<?xml version="1.0" encoding="utf-8"?>
<!-- Generator: Adobe Illustrator 19.2.0, SVG Export Plug-In . SVG Version: 6.00 Build 0)  -->
<svg version="1.0" id="Layer_1" xmlns="http://www.w3.org/2000/svg" xmlns:xlink="http://www.w3.org/1999/xlink" x="0px" y="0px"
	 viewBox="0 0 203.2 126.7" style="enable-background:new 0 0 203.2 126.7;" xml:space="preserve">
<style type="text/css">
	.st0{fill:#C4C4C4;}
	.st1{fill:#E3000F;}
	.st2{fill:#858584;}
	.st3{clip-path:url(#SVGID_2_);fill:#4F8C40;}
	.st4{clip-path:url(#SVGID_2_);fill:#A4C039;}
</style>
<g>
	<path class="st0" d="M73.7,57.9C69.1,53.3,62,57.1,62,63.6c0,6.5,11.7,13.3,11.8,13.3c0,0,11.8-6.8,11.8-13.3
		C85.5,57.1,78.3,53.3,73.7,57.9"/>
	<g>
		<g>
			<path class="st1" d="M53.8,9.3c-8.6,0-15.7,7-15.7,15.7c0,8.6,7,15.7,15.7,15.7s15.7-7,15.7-15.7C69.5,16.3,62.4,9.3,53.8,9.3z
				 M53.8,35.9c-6,0-10.9-4.9-10.9-10.9S47.8,14,53.8,14s10.9,4.9,10.9,10.9S59.8,35.9,53.8,35.9z"/>
			<path class="st1" d="M53.8,3.1c-12.1,0-21.9,9.8-21.9,21.9c0,12.1,9.8,21.9,21.9,21.9S75.7,37,75.7,24.9
				C75.7,12.9,65.9,3.1,53.8,3.1z M53.8,42.1c-9.5,0-17.2-7.7-17.2-17.2S44.3,7.8,53.8,7.8S71,15.5,71,24.9S63.3,42.1,53.8,42.1z"/>
			<path class="st1" d="M163.3,34.9c-3.1,4.4-8.2,7.2-14,7.2c-9.5,0-17.2-7.7-17.2-17.2s7.7-17.2,17.2-17.2c5.8,0,10.9,2.9,14,7.2
				l3.4-3.4c-4-5.2-10.3-8.6-17.4-8.6c-12.1,0-21.9,9.8-21.9,21.9c0,12.1,9.8,21.9,21.9,21.9c7.1,0,13.4-3.4,17.4-8.6L163.3,34.9z"
				/>
			<path class="st1" d="M158.8,19.5l3.4-3.4c0,0,0,0,0,0l0,0l0,0c-2.8-4.1-7.5-6.7-12.9-6.7c-8.6,0-15.7,7-15.7,15.7
				c0,8.6,7,15.7,15.7,15.7c5.4,0,10.1-2.7,12.9-6.8l-3.4-3.4c-1.9,3.3-5.4,5.5-9.5,5.5c-2,0-3.8-0.5-5.4-1.5L158.8,19.5
				C158.8,19.5,158.8,19.5,158.8,19.5z M149.3,14c2.3,0,4.5,0.8,6.3,2l-15.2,15.2c-1.3-1.8-2-3.9-2-6.3
				C138.4,18.9,143.3,14,149.3,14z"/>
			<path class="st1" d="M180.2,27.9h5.2c5.1,0,9.2-4.1,9.2-9.2s-4.1-9.2-9.2-9.2h-11v37.3h4.7V34.3l9.9,12.5h6.1L180.2,27.9z
				 M179.1,14.6h6.6c2.3,0,4.2,1.9,4.2,4.2c0,2.3-1.9,4.2-4.2,4.2h-6.6V14.6z"/>
			<path class="st1" d="M173,8.1h12.5c5.9,0,10.7,4.8,10.7,10.7s-4.8,10.7-10.7,10.7h-2.1l13.7,17.4h6.2l-11.3-14.4
				c5.3-2.5,8.9-7.8,8.9-14c0-8.5-6.9-15.4-15.4-15.4c0,0,0,0,0,0v0h-6.2H176h-7.7v43.8h4.7V8.1z"/>
			<polygon class="st1" points="0,13.9 11.1,13.9 11.1,46.8 15.8,46.8 15.8,9.2 0,9.2 			"/>
			<polygon class="st1" points="22,3.1 11.1,3.1 0,3.1 0,7.7 33.1,7.7 33.1,3.1 			"/>
			<polygon class="st1" points="17.3,46.8 22,46.8 22,13.9 33.1,13.9 33.1,9.2 17.3,9.2 			"/>
			<polygon class="st1" points="90.3,43.8 100.8,0 100.8,0 95.1,0 95,0 90.3,21.5 85.5,0 79.8,0 			"/>
			<polygon class="st1" points="102.3,0 112.9,43.8 123.4,0 117.6,0 112.9,21.5 108.1,0 108.1,0 102.3,0 			"/>
			<polygon class="st1" points="101.6,3 91.1,46.8 96.8,46.8 101.6,28.4 106.3,46.8 112.1,46.8 			"/>
			<polygon class="st1" points="78.2,0 72.5,0 83.7,46.8 83.7,46.8 83.8,46.8 89.5,46.8 			"/>
			<polygon class="st1" points="130.7,0 124.9,0 113.7,46.8 119.4,46.8 119.4,46.8 119.4,46.8 			"/>
		</g>
		<g>
			<path class="st1" d="M200.2,3.6c0.4,0.4,0.6,0.8,0.6,1.4c0,0.5-0.2,1-0.6,1.4c-0.4,0.4-0.8,0.6-1.4,0.6c-0.5,0-1-0.2-1.4-0.6
				C197,6,196.8,5.6,196.8,5c0-0.5,0.2-1,0.6-1.4c0.4-0.4,0.8-0.6,1.4-0.6C199.3,3.1,199.8,3.3,200.2,3.6z M200,6.2
				c0.3-0.3,0.5-0.7,0.5-1.2c0-0.5-0.2-0.9-0.5-1.2c-0.3-0.3-0.7-0.5-1.2-0.5s-0.9,0.2-1.2,0.5s-0.5,0.7-0.5,1.2
				c0,0.5,0.2,0.9,0.5,1.2c0.3,0.3,0.7,0.5,1.2,0.5C199.3,6.7,199.7,6.6,200,6.2z M199.7,4.6c0,0.3-0.2,0.6-0.5,0.7l0.6,0.8h-0.5
				l-0.5-0.7h-0.5v0.7H198V3.9h0.8c0.3,0,0.5,0.1,0.7,0.2C199.6,4.2,199.7,4.4,199.7,4.6z M199.2,4.9c0.1-0.1,0.1-0.2,0.1-0.3
				c0-0.1,0-0.2-0.1-0.3c-0.1-0.1-0.2-0.1-0.4-0.1h-0.4V5h0.4C199,5,199.2,5,199.2,4.9z"/>
		</g>
	</g>
	<g>
		<path class="st2" d="M41.3,67.1c-0.1,0.3-0.2,0.7-0.4,0.9s-0.3,0.5-0.5,0.8c-0.2,0.2-0.4,0.4-0.7,0.5s-0.5,0.2-0.9,0.2
			c-0.4,0-0.7-0.1-0.9-0.2c-0.2-0.2-0.4-0.3-0.5-0.6c-0.1-0.2-0.2-0.5-0.2-0.8s0-0.5,0-0.8c0-0.2,0-0.4,0.1-0.6s0.1-0.4,0.2-0.6
			c0.1-0.2,0.2-0.4,0.3-0.6c0.1-0.2,0.2-0.4,0.4-0.6c0.1-0.2,0.1-0.3,0.2-0.4c0.1-0.1,0.2-0.2,0.4-0.3c0.1-0.1,0.3-0.1,0.5-0.2
			s0.3-0.1,0.5-0.1c0,0,0.1,0,0.1,0s0,0,0.1,0c0.1,0,0.3,0.1,0.4,0.1c0.2,0.1,0.3,0.2,0.5,0.4s0.3,0.4,0.4,0.6s0.2,0.5,0.2,0.9
			c0,0.1,0,0.2,0,0.3c0,0.1,0,0.2,0,0.3c0.2-0.1,0.4-0.2,0.6-0.3c0.2-0.1,0.4-0.2,0.6-0.4c0.2-0.1,0.4-0.3,0.6-0.4
			c0.2-0.1,0.3-0.3,0.4-0.4c0.1-0.1,0.2-0.1,0.2-0.1s0.1,0,0.1,0.1c0,0,0,0.1,0,0.2s-0.1,0.2-0.1,0.3c0,0.1-0.2,0.2-0.3,0.3
			c-0.2,0.2-0.4,0.3-0.6,0.5s-0.5,0.4-0.8,0.5C41.8,66.9,41.6,67.1,41.3,67.1z M38.2,67.5c0,0.2,0,0.3,0,0.5s0.1,0.3,0.1,0.4
			c0.1,0.1,0.1,0.2,0.2,0.3c0.1,0.1,0.2,0.1,0.3,0.1c0.2,0,0.3,0,0.4-0.1c0.1-0.1,0.3-0.2,0.4-0.3c0.1-0.1,0.2-0.3,0.3-0.4
			c0.1-0.2,0.2-0.3,0.2-0.5c-0.1,0-0.1,0-0.2,0c-0.1,0-0.1,0-0.2,0c-0.3,0-0.6-0.1-0.9-0.3s-0.4-0.5-0.6-0.8
			c-0.1,0.2-0.1,0.4-0.1,0.5C38.2,67.1,38.2,67.3,38.2,67.5z M39,65.1c0,0.1,0,0.2,0,0.3c0,0.1,0,0.3,0,0.4c0,0.2,0.1,0.3,0.1,0.4
			s0.2,0.2,0.3,0.3c0.2,0.1,0.4,0.1,0.6,0.1c0,0,0.1,0,0.1,0c0,0,0.1,0,0.1,0c0-0.1,0.1-0.2,0.1-0.3c0-0.1,0-0.2,0-0.2
			c0-0.2,0-0.3,0-0.5s-0.1-0.3-0.1-0.5c0-0.1-0.1-0.3-0.2-0.4c-0.1-0.1-0.2-0.1-0.3-0.1c-0.2,0-0.3,0-0.5,0.1
			C39.3,64.8,39.2,65,39,65.1z"/>
		<path class="st2" d="M46.6,66.9c-0.2,0.3-0.5,0.7-0.7,1c-0.2,0.3-0.5,0.6-0.7,0.9s-0.4,0.5-0.6,0.6c-0.2,0.2-0.3,0.2-0.5,0.2
			c-0.3,0-0.5-0.1-0.7-0.4c-0.2-0.3-0.3-0.6-0.4-1c-0.1-0.4-0.2-0.8-0.2-1.2c0-0.4,0-0.8,0-1.2c0-0.3,0.1-0.6,0.1-0.8
			c0-0.2,0.1-0.4,0.2-0.5c0.1-0.1,0.1-0.2,0.2-0.3c0.1-0.1,0.2-0.1,0.4-0.1c0.1,0,0.1,0,0.2,0s0.2,0,0.2,0c0.1,0,0.1,0,0.2,0.1
			c0,0,0,0.1,0,0.2c0,0.1,0,0.2-0.1,0.4s-0.1,0.3-0.1,0.5c0,0.2-0.1,0.4-0.1,0.6c0,0.2-0.1,0.4-0.1,0.6c0,0.3,0,0.6,0,0.9
			s0.1,0.5,0.1,0.6c0.1,0.2,0.1,0.3,0.2,0.4s0.1,0.1,0.1,0.1c0,0,0.1-0.1,0.2-0.2s0.3-0.3,0.4-0.5c0.2-0.2,0.3-0.4,0.5-0.7
			c0.2-0.3,0.3-0.5,0.5-0.8c-0.1-0.1-0.1-0.3-0.1-0.5c0-0.3,0.1-0.6,0.2-0.8c0.1-0.2,0.2-0.5,0.4-0.6s0.3-0.3,0.4-0.4
			c0.1-0.1,0.3-0.1,0.4-0.1c0.2,0,0.4,0.1,0.4,0.2c0.1,0.1,0.1,0.2,0.1,0.4c0,0.2-0.1,0.4-0.2,0.8s-0.3,0.7-0.6,1.1
			c0,0,0.1,0,0.1,0.1c0.1,0,0.1,0,0.2,0c0.3,0,0.6,0,0.8-0.1s0.5-0.2,0.6-0.3c0.2-0.1,0.3-0.2,0.5-0.3s0.2-0.2,0.3-0.3
			c0.1-0.1,0.1-0.1,0.2-0.1c0.1,0,0.1,0,0.1,0c0,0,0.1,0.1,0.1,0.1s0,0.1-0.1,0.2c-0.3,0.4-0.7,0.7-1.2,0.9c-0.5,0.2-1,0.4-1.6,0.4
			c-0.1,0-0.1,0-0.2,0S46.7,66.9,46.6,66.9z"/>
		<path class="st2" d="M54.6,66.5c-0.3,0.4-0.6,0.8-0.9,1.1c-0.3,0.4-0.7,0.7-1.1,1c-0.4,0.3-0.8,0.5-1.2,0.7
			c-0.4,0.2-0.8,0.3-1.2,0.3c-0.2,0-0.4,0-0.6-0.1c-0.2-0.1-0.4-0.2-0.6-0.4s-0.3-0.4-0.4-0.8c-0.1-0.3-0.1-0.7-0.1-1.1
			c0-0.4,0.1-0.7,0.3-1.2c0.2-0.4,0.4-0.8,0.7-1.1c0.3-0.3,0.6-0.6,0.9-0.8c0.4-0.2,0.7-0.3,1.1-0.3c0.3,0,0.6,0.1,0.7,0.3
			c0.2,0.2,0.2,0.4,0.2,0.6c0,0.3-0.1,0.5-0.2,0.8c-0.1,0.2-0.3,0.4-0.5,0.6s-0.4,0.4-0.6,0.5c-0.2,0.2-0.4,0.3-0.6,0.4
			c-0.2,0.1-0.4,0.3-0.6,0.4c-0.2,0.1-0.3,0.2-0.5,0.3c0,0.2,0,0.4,0.1,0.6s0.2,0.3,0.3,0.4c0.1,0.1,0.2,0.2,0.4,0.2
			c0.1,0,0.3,0.1,0.4,0.1c0.3,0,0.6-0.1,0.9-0.3c0.3-0.2,0.7-0.4,1-0.7c0.3-0.3,0.6-0.6,0.9-0.8c0.3-0.3,0.5-0.5,0.7-0.8
			c0.1-0.1,0.1-0.1,0.2-0.1s0.1,0,0.2,0c0,0,0.1,0.1,0.1,0.2C54.7,66.3,54.7,66.4,54.6,66.5z M51.2,64.4c-0.1,0-0.2,0.1-0.4,0.2
			s-0.3,0.3-0.4,0.5s-0.3,0.4-0.4,0.7c-0.1,0.3-0.2,0.6-0.3,1c0.1-0.1,0.2-0.2,0.3-0.2c0.1-0.1,0.2-0.2,0.4-0.3
			c0.4-0.3,0.6-0.6,0.8-0.8c0.2-0.2,0.2-0.4,0.3-0.6c0-0.2,0-0.3-0.1-0.4C51.4,64.5,51.3,64.4,51.2,64.4z"/>
		<path class="st2" d="M53.1,69.2c-0.1,0.1-0.1,0.2-0.2,0.2c-0.1,0-0.1,0-0.2,0s-0.1-0.1-0.1-0.1s0-0.2,0.1-0.3
			c0-0.1,0.1-0.2,0.2-0.4c0.1-0.2,0.2-0.4,0.3-0.7c0.1-0.3,0.3-0.5,0.4-0.9s0.3-0.6,0.4-0.9c0.1-0.3,0.3-0.5,0.4-0.7
			c0.1-0.2,0.2-0.4,0.3-0.5c-0.1-0.1-0.2-0.2-0.2-0.2s-0.1-0.1-0.1-0.3c0-0.1,0-0.3,0.1-0.5s0.2-0.4,0.3-0.5
			c0.1-0.2,0.2-0.3,0.4-0.4c0.1-0.1,0.3-0.2,0.4-0.2c0.2,0,0.4,0.1,0.5,0.2c0.1,0.2,0.2,0.3,0.2,0.5c0,0.1,0,0.3,0,0.4
			c0,0.2-0.1,0.3-0.2,0.5c0,0,0.1,0,0.1,0.1c0,0,0.1,0,0.2,0c0.1,0,0.2,0,0.3,0c0.1,0,0.1,0,0.3,0c0.2,0,0.3,0,0.4,0.1
			c0.1,0.1,0.2,0.2,0.2,0.3s0.1,0.2,0.1,0.4c0,0.1,0.1,0.2,0.1,0.4c0,0.2,0,0.5-0.2,0.7c-0.1,0.2-0.3,0.5-0.5,0.8
			c-0.1,0.2-0.2,0.4-0.4,0.6c-0.1,0.2-0.2,0.4-0.2,0.6c0,0.1,0,0.2,0.1,0.3c0,0.1,0.2,0.1,0.4,0.1c0.2,0,0.3-0.1,0.5-0.2
			c0.2-0.1,0.4-0.3,0.6-0.4c0.2-0.2,0.4-0.4,0.6-0.6s0.4-0.4,0.5-0.6s0.3-0.4,0.4-0.5c0.1-0.2,0.2-0.3,0.2-0.3
			c0-0.1,0.1-0.1,0.2-0.1c0.1,0,0.1,0,0.2,0c0.1,0,0.1,0.1,0.1,0.2c0,0.1,0,0.2-0.1,0.3c-0.1,0.1-0.1,0.2-0.3,0.4
			c-0.1,0.2-0.3,0.4-0.5,0.7c-0.2,0.2-0.4,0.5-0.6,0.7c-0.2,0.3-0.5,0.5-0.7,0.7c-0.2,0.2-0.5,0.4-0.7,0.5c-0.2,0.1-0.5,0.2-0.7,0.2
			c-0.2,0-0.4,0-0.6-0.1c-0.2-0.1-0.3-0.2-0.4-0.3c-0.1-0.1-0.2-0.3-0.2-0.4c0-0.2-0.1-0.3,0-0.4c0-0.1,0-0.2,0.1-0.3
			s0.1-0.2,0.2-0.4s0.1-0.3,0.2-0.4c0.1-0.1,0.1-0.3,0.2-0.4c0.2-0.3,0.3-0.5,0.4-0.7c0.1-0.2,0.1-0.3,0.1-0.5c0-0.1,0-0.2-0.1-0.2
			c0-0.1-0.1-0.1-0.2-0.1c-0.1,0-0.1,0-0.1,0c0,0,0,0-0.1,0c0,0-0.1,0-0.1,0c0,0-0.1,0-0.2,0c-0.1,0-0.2,0-0.3-0.1
			c-0.1,0-0.2-0.1-0.2-0.1c0,0.1-0.1,0.2-0.2,0.4c-0.1,0.2-0.3,0.4-0.4,0.7c-0.2,0.3-0.3,0.6-0.5,0.9c-0.2,0.3-0.4,0.6-0.5,0.8
			s-0.3,0.5-0.4,0.7C53.2,69.1,53.2,69.2,53.1,69.2z"/>
		<g>
			<path class="st2" d="M69.7,60.3c-0.1-0.1-0.1-0.1-0.2-0.2c-0.3-0.2-0.5-0.1-0.8,0.1c-0.2,0.1-0.3,0.3-0.5,0.4
				c-0.2,0.1-0.3,0.3-0.4,0.4c-0.2,0.2-0.2,0.3-0.2,0.3l0,0.1l0.1,0.1c0.1,0.1,0.2,0.2,0.3,0.3c0.1,0.1,0.1,0.1,0.2,0.2
				c0,0.1,0,0.2-0.1,0.3l-0.1,0.7c-0.3,1.5-0.6,2.7-0.8,3.5l-0.5,1.7c-0.1,0.2-0.1,0.3-0.1,0.4c0,0.2,0,0.3,0,0.4
				c0,0.1,0.1,0.3,0.2,0.3c0.1,0.1,0.3,0.1,0.4,0.1c0,0,0,0,0,0c0,0,0.1,0,0.1,0c0.1,0,0.2,0,0.2,0c0.1,0,0.2,0,0.3,0
				c0.1,0,0.2-0.1,0.3-0.1l0.2-0.1l-0.1-0.2c-0.1-0.2-0.1-0.4-0.1-0.7c0-0.3,0-0.5,0.1-0.8c0-0.3,0.1-0.5,0.2-0.7
				c0.1-0.3,0.1-0.5,0.2-0.7l1.4-5.5c0-0.1,0-0.2-0.1-0.3C69.9,60.4,69.8,60.3,69.7,60.3z"/>
			<path class="st2" d="M75.4,61.3c-0.1-0.4-0.3-0.7-0.6-1c-0.5-0.6-1.4-0.5-2-0.1c-0.3,0.2-0.6,0.5-0.9,0.8
				c-0.3,0.3-0.5,0.7-0.8,1.2c-0.2,0.4-0.4,0.9-0.6,1.4c-0.2,0.5-0.3,0.9-0.4,1.4c-0.1,0.5-0.1,0.9-0.1,1.3c0,0.6,0.1,1.1,0.2,1.6
				c0.1,0.4,0.2,0.8,0.4,1.1c0.2,0.3,0.4,0.5,0.6,0.7c0.2,0.1,0.5,0.2,0.7,0.2c0.3,0,0.6-0.1,1-0.3c0.4-0.2,0.8-0.5,1.1-0.9
				c0.4-0.4,0.7-1,1-1.7c0.3-0.7,0.5-1.6,0.6-2.7c0.1-0.5,0.1-1.1,0-1.5C75.7,62.2,75.6,61.7,75.4,61.3z M73.8,61.2
				c0.1,0,0.2,0,0.2,0.1c0.1,0.1,0.2,0.2,0.2,0.4c0.1,0.2,0.1,0.4,0.1,0.6c0,0.2,0,0.5,0,0.7c0,0.2,0,0.4,0,0.6c0,0.2,0,0.3,0,0.3
				c-0.1,0.5-0.2,1.1-0.3,1.7c-0.2,0.6-0.4,1.1-0.6,1.5c-0.2,0.5-0.4,0.8-0.7,1.1c-0.2,0.2-0.4,0.4-0.5,0.4c0,0-0.1,0-0.2-0.1
				c-0.1-0.1-0.1-0.3-0.2-0.5c0-0.2-0.1-0.4-0.1-0.6c0-0.2,0-0.3,0-0.4c0-0.8,0.1-1.6,0.3-2.4c0.2-0.7,0.4-1.4,0.6-1.9
				c0.2-0.5,0.5-0.9,0.7-1.2C73.6,61.2,73.7,61.2,73.8,61.2z"/>
			<path class="st2" d="M81.7,62.7c0-0.5-0.1-1-0.3-1.4c-0.1-0.4-0.3-0.7-0.6-1c-0.5-0.6-1.4-0.5-2-0.1c-0.3,0.2-0.6,0.5-0.9,0.8
				c-0.3,0.3-0.5,0.7-0.8,1.2c-0.2,0.4-0.4,0.9-0.6,1.4c-0.2,0.5-0.3,0.9-0.4,1.4c-0.1,0.5-0.1,0.9-0.1,1.3c0,0.6,0.1,1.1,0.2,1.6
				c0.1,0.4,0.2,0.8,0.4,1.1c0.2,0.3,0.4,0.5,0.6,0.7c0.2,0.1,0.5,0.2,0.7,0.2c0.3,0,0.6-0.1,1-0.3c0.4-0.2,0.8-0.5,1.1-0.9
				c0.4-0.4,0.7-1,1-1.7c0.3-0.7,0.5-1.6,0.6-2.7C81.8,63.7,81.8,63.2,81.7,62.7z M79.8,61.2c0.1,0,0.2,0,0.2,0.1
				c0.1,0.1,0.2,0.2,0.2,0.4c0.1,0.2,0.1,0.4,0.1,0.6c0,0.2,0,0.5,0,0.7c0,0.2,0,0.4,0,0.6c0,0.2,0,0.3,0,0.3
				c-0.1,0.5-0.2,1.1-0.3,1.7c-0.2,0.6-0.4,1.1-0.6,1.5c-0.2,0.5-0.4,0.8-0.7,1.1c-0.2,0.2-0.4,0.4-0.5,0.4c0,0-0.1,0-0.2-0.1
				c-0.1-0.1-0.1-0.3-0.2-0.5c0-0.2-0.1-0.4-0.1-0.6c0-0.2,0-0.3,0-0.4c0-0.8,0.1-1.6,0.3-2.4c0.2-0.7,0.4-1.4,0.6-1.9
				c0.2-0.5,0.5-0.9,0.7-1.2C79.6,61.2,79.8,61.2,79.8,61.2z"/>
		</g>
		<path class="st2" d="M92.4,64.4c0.1-0.1,0.2-0.2,0.3-0.2c0.1,0,0.2-0.1,0.3-0.1c0.1,0,0.2,0,0.3,0c0.2,0,0.4,0.1,0.4,0.2
			c0.1,0.1,0.1,0.3,0,0.6c0,0.2-0.1,0.3-0.2,0.6c-0.1,0.2-0.2,0.5-0.3,0.8S93.1,67,93,67.5s-0.2,0.9-0.3,1.4
			c-0.1,0.4-0.2,0.9-0.3,1.5c-0.1,0.5-0.2,1.1-0.4,1.8c-0.1,0.7-0.3,1.5-0.5,2.4c0,0.2-0.1,0.4-0.3,0.4c-0.1,0-0.3,0-0.5-0.1
			c-0.1,0-0.1-0.1-0.2-0.1c0,0-0.1-0.1-0.1-0.2c-0.1-0.1-0.1-0.1-0.1-0.2c0.2-0.7,0.4-1.4,0.5-2s0.3-1.1,0.4-1.6
			c0.1-0.5,0.3-1,0.4-1.4c0-0.2,0.1-0.4,0.1-0.6c0-0.2,0.1-0.4,0.1-0.5c-0.1,0.2-0.2,0.4-0.4,0.5c-0.1,0.2-0.3,0.3-0.4,0.4
			s-0.3,0.2-0.5,0.3c-0.2,0.1-0.4,0.1-0.6,0.1c-0.5-0.1-0.8-0.2-1-0.5c-0.2-0.3-0.3-0.7-0.3-1.1c0-0.2,0-0.4,0.1-0.6
			c0-0.2,0.1-0.4,0.1-0.6c0.1-0.2,0.1-0.4,0.2-0.6s0.1-0.3,0.1-0.4c0.1-0.3,0.2-0.6,0.2-0.9c0-0.2,0-0.4-0.1-0.6
			c0.1-0.1,0.2-0.1,0.4-0.2c0.1,0,0.2-0.1,0.3-0.1c0.1,0,0.2,0,0.3,0c0.2,0,0.4,0.1,0.4,0.3c0,0.1,0,0.4,0,0.6
			c0,0.2-0.1,0.3-0.2,0.6s-0.2,0.5-0.3,0.7S90,66.8,89.9,67s-0.1,0.4-0.1,0.4c-0.1,0.4-0.1,0.7,0,0.9c0.1,0.2,0.2,0.3,0.5,0.3
			c0.1,0,0.2-0.1,0.4-0.2c0.1-0.1,0.3-0.2,0.4-0.4s0.3-0.4,0.4-0.6c0.1-0.2,0.3-0.4,0.4-0.7c0.1-0.2,0.2-0.4,0.3-0.7
			c0.1-0.2,0.2-0.4,0.2-0.6c0.1-0.3,0.1-0.6,0.1-0.8C92.6,64.7,92.5,64.5,92.4,64.4z"/>
		<path class="st2" d="M100.2,66.5c-0.3,0.4-0.6,0.8-0.9,1.1c-0.3,0.4-0.7,0.7-1.1,1c-0.4,0.3-0.8,0.5-1.2,0.7
			c-0.4,0.2-0.8,0.3-1.2,0.3c-0.2,0-0.4,0-0.6-0.1c-0.2-0.1-0.4-0.2-0.6-0.4s-0.3-0.4-0.4-0.8c-0.1-0.3-0.1-0.7-0.1-1.1
			c0-0.4,0.1-0.7,0.3-1.2c0.2-0.4,0.4-0.8,0.7-1.1c0.3-0.3,0.6-0.6,0.9-0.8c0.4-0.2,0.7-0.3,1.1-0.3c0.3,0,0.6,0.1,0.7,0.3
			c0.2,0.2,0.2,0.4,0.2,0.6c0,0.3-0.1,0.5-0.2,0.8c-0.1,0.2-0.3,0.4-0.5,0.6s-0.4,0.4-0.6,0.5c-0.2,0.2-0.4,0.3-0.6,0.4
			c-0.2,0.1-0.4,0.3-0.6,0.4c-0.2,0.1-0.3,0.2-0.5,0.3c0,0.2,0,0.4,0.1,0.6s0.2,0.3,0.3,0.4c0.1,0.1,0.2,0.2,0.4,0.2
			c0.1,0,0.3,0.1,0.4,0.1c0.3,0,0.6-0.1,0.9-0.3c0.3-0.2,0.7-0.4,1-0.7c0.3-0.3,0.6-0.6,0.9-0.8c0.3-0.3,0.5-0.5,0.7-0.8
			c0.1-0.1,0.1-0.1,0.2-0.1s0.1,0,0.2,0c0,0,0.1,0.1,0.1,0.2C100.3,66.3,100.2,66.4,100.2,66.5z M96.7,64.4c-0.1,0-0.2,0.1-0.4,0.2
			s-0.3,0.3-0.4,0.5s-0.3,0.4-0.4,0.7c-0.1,0.3-0.2,0.6-0.3,1c0.1-0.1,0.2-0.2,0.3-0.2c0.1-0.1,0.2-0.2,0.4-0.3
			c0.4-0.3,0.6-0.6,0.8-0.8c0.2-0.2,0.2-0.4,0.3-0.6c0-0.2,0-0.3-0.1-0.4C96.9,64.5,96.8,64.4,96.7,64.4z"/>
		<path class="st2" d="M106,66.6c-0.1,0.2-0.3,0.4-0.5,0.7c-0.2,0.3-0.4,0.5-0.6,0.8s-0.4,0.5-0.6,0.7c-0.2,0.2-0.4,0.4-0.5,0.5
			c-0.1,0.1-0.2,0.1-0.3,0.1c-0.1,0-0.2,0.1-0.4,0.1s-0.2,0-0.3,0s-0.2-0.1-0.3-0.1c-0.1-0.1-0.1-0.2-0.2-0.3c0-0.1-0.1-0.2-0.1-0.4
			c0-0.2-0.1-0.4,0-0.6c-0.2,0.4-0.4,0.6-0.7,0.8c-0.3,0.2-0.5,0.3-0.7,0.4c-0.3,0.1-0.5,0.2-0.8,0.2c-0.1,0-0.3,0-0.4-0.1
			c-0.1-0.1-0.3-0.2-0.4-0.4c-0.1-0.2-0.2-0.4-0.2-0.7c0-0.3,0-0.6,0.1-1c0.1-0.5,0.3-1,0.6-1.5c0.3-0.4,0.6-0.8,0.9-1.1
			c0.3-0.3,0.6-0.6,0.9-0.7c0.3-0.2,0.6-0.2,0.8-0.2c0.2,0,0.4,0.1,0.6,0.2c0.1,0.1,0.2,0.2,0.2,0.4c0,0.2,0,0.4-0.2,0.7
			c0.1,0,0.2,0,0.3-0.1c0.1,0,0.1,0,0.2,0c0.1,0,0.1,0,0.1,0c0,0,0,0.1,0,0.1c0,0.1,0,0.2,0,0.3c0,0.2-0.1,0.4-0.1,0.6
			c-0.1,0.3-0.1,0.6-0.2,1c0,0.1,0,0.2,0,0.2c0,0.1,0,0.1,0,0.2c0,0.1,0,0.1,0,0.2c0,0.1,0,0.2-0.1,0.3c0,0.1,0,0.2,0,0.3
			c0,0.1,0,0.2,0,0.3c0,0.1,0.1,0.1,0.1,0.2s0.1,0.1,0.2,0.1c0.1,0,0.2-0.1,0.3-0.2c0.1-0.1,0.3-0.3,0.5-0.4
			c0.2-0.2,0.3-0.4,0.5-0.6c0.2-0.2,0.3-0.4,0.5-0.6s0.3-0.4,0.4-0.5c0.1-0.2,0.2-0.3,0.3-0.3c0.1-0.1,0.1-0.1,0.2-0.1
			s0.1,0,0.2,0.1c0,0.1,0,0.1,0,0.2S106.1,66.5,106,66.6z M102.1,67.2c0-0.2,0.1-0.4,0.2-0.6c0.1-0.2,0.1-0.5,0.2-0.7
			c0-0.2,0.1-0.4,0.1-0.6c0-0.1,0-0.2,0-0.2c0,0-0.1,0-0.1,0c0,0-0.1,0-0.2,0c-0.1,0-0.1,0-0.2,0c0.1-0.1,0.1-0.3,0.1-0.4
			c0-0.1,0-0.2,0-0.2c0-0.1,0-0.1-0.1-0.1c-0.1-0.1-0.3,0-0.5,0.2c-0.2,0.2-0.5,0.6-0.8,1.2c-0.1,0.2-0.2,0.5-0.3,0.7
			c-0.1,0.3-0.1,0.5-0.2,0.7c0,0.2,0,0.4,0,0.6c0,0.2,0.1,0.3,0.1,0.3c0.1,0.1,0.2,0.1,0.3,0.1c0.1,0,0.3,0,0.4-0.1
			c0.1-0.1,0.3-0.2,0.4-0.3s0.2-0.2,0.3-0.3c0.1-0.1,0.2-0.2,0.3-0.3C102.1,67.3,102.1,67.2,102.1,67.2z"/>
		<path class="st2" d="M104.6,69.2c-0.1,0.1-0.1,0.2-0.2,0.2c-0.1,0-0.1,0-0.2,0s-0.1-0.1-0.1-0.1s0-0.2,0.1-0.3
			c0-0.1,0.1-0.2,0.2-0.4c0.1-0.2,0.2-0.4,0.3-0.7c0.1-0.3,0.3-0.5,0.4-0.9s0.3-0.6,0.4-0.9c0.1-0.3,0.3-0.5,0.4-0.7
			c0.1-0.2,0.2-0.4,0.3-0.5c-0.1-0.1-0.2-0.2-0.2-0.2s-0.1-0.1-0.1-0.3c0-0.1,0-0.3,0.1-0.5s0.2-0.4,0.3-0.5
			c0.1-0.2,0.2-0.3,0.4-0.4c0.1-0.1,0.3-0.2,0.4-0.2c0.2,0,0.4,0.1,0.5,0.2c0.1,0.2,0.2,0.3,0.2,0.5c0,0.1,0,0.3,0,0.4
			c0,0.2-0.1,0.3-0.2,0.5c0,0,0.1,0,0.1,0.1c0,0,0.1,0,0.2,0c0.1,0,0.2,0,0.3,0c0.1,0,0.1,0,0.3,0c0.2,0,0.3,0,0.4,0.1
			c0.1,0.1,0.2,0.2,0.2,0.3s0.1,0.2,0.1,0.4c0,0.1,0.1,0.2,0.1,0.4c0,0.2,0,0.5-0.2,0.7c-0.1,0.2-0.3,0.5-0.5,0.8
			c-0.1,0.2-0.2,0.4-0.4,0.6c-0.1,0.2-0.2,0.4-0.2,0.6c0,0.1,0,0.2,0.1,0.3c0,0.1,0.2,0.1,0.4,0.1c0.2,0,0.3-0.1,0.5-0.2
			c0.2-0.1,0.4-0.3,0.6-0.4c0.2-0.2,0.4-0.4,0.6-0.6s0.4-0.4,0.5-0.6s0.3-0.4,0.4-0.5c0.1-0.2,0.2-0.3,0.2-0.3
			c0-0.1,0.1-0.1,0.2-0.1c0.1,0,0.1,0,0.2,0c0.1,0,0.1,0.1,0.1,0.2c0,0.1,0,0.2-0.1,0.3c-0.1,0.1-0.1,0.2-0.3,0.4
			c-0.1,0.2-0.3,0.4-0.5,0.7c-0.2,0.2-0.4,0.5-0.6,0.7c-0.2,0.3-0.5,0.5-0.7,0.7c-0.2,0.2-0.5,0.4-0.7,0.5c-0.2,0.1-0.5,0.2-0.7,0.2
			c-0.2,0-0.4,0-0.6-0.1c-0.2-0.1-0.3-0.2-0.4-0.3c-0.1-0.1-0.2-0.3-0.2-0.4c0-0.2-0.1-0.3,0-0.4c0-0.1,0-0.2,0.1-0.3
			s0.1-0.2,0.2-0.4s0.1-0.3,0.2-0.4c0.1-0.1,0.1-0.3,0.2-0.4c0.2-0.3,0.3-0.5,0.4-0.7c0.1-0.2,0.1-0.3,0.1-0.5c0-0.1,0-0.2-0.1-0.2
			c0-0.1-0.1-0.1-0.2-0.1c-0.1,0-0.1,0-0.1,0c0,0,0,0-0.1,0c0,0-0.1,0-0.1,0c0,0-0.1,0-0.2,0c-0.1,0-0.2,0-0.3-0.1
			c-0.1,0-0.2-0.1-0.2-0.1c0,0.1-0.1,0.2-0.2,0.4c-0.1,0.2-0.3,0.4-0.4,0.7c-0.2,0.3-0.3,0.6-0.5,0.9c-0.2,0.3-0.4,0.6-0.5,0.8
			s-0.3,0.5-0.4,0.7C104.7,69.1,104.7,69.2,104.6,69.2z"/>
		<path class="st2" d="M112.6,68.8c0.1,0,0.1,0.1,0.2,0.1c0.1,0,0.2,0,0.3-0.1c0.1,0,0.2-0.1,0.2-0.1c0.1-0.1,0.1-0.1,0.2-0.2
			c0-0.1,0-0.2,0-0.4c0-0.2-0.1-0.4-0.2-0.6c-0.1-0.2-0.2-0.4-0.2-0.6c-0.1-0.2-0.2-0.4-0.2-0.6c-0.1-0.1-0.1-0.3-0.1-0.4
			c0-0.1-0.1-0.2-0.1-0.3c0-0.1-0.1-0.2-0.1-0.2c0,0.1-0.1,0.2-0.2,0.3c-0.1,0.2-0.2,0.3-0.4,0.5c-0.1,0.2-0.3,0.3-0.4,0.5
			c-0.1,0.1-0.2,0.2-0.2,0.3c-0.1,0.1-0.1,0.1-0.2,0.1c-0.1,0-0.1,0-0.2,0c0,0-0.1-0.1-0.1-0.2c0-0.1,0-0.2,0.1-0.3
			c0.1-0.1,0.1-0.2,0.2-0.3s0.2-0.3,0.3-0.5c0.1-0.2,0.2-0.3,0.3-0.4s0.1-0.2,0.1-0.2c0-0.1,0-0.2-0.1-0.3c-0.1-0.1-0.1-0.2,0-0.4
			c0-0.1,0.1-0.3,0.2-0.4c0.1-0.2,0.3-0.3,0.4-0.4c0.2-0.1,0.3-0.2,0.5-0.3c0.2-0.1,0.3-0.1,0.5,0c0.1,0.1,0.2,0.1,0.3,0.2
			c0.1,0.1,0.1,0.2,0.1,0.3c0,0,0,0.1-0.1,0.2c0,0.1-0.1,0.2-0.2,0.3c-0.1,0.1-0.2,0.2-0.3,0.4c0,0.2,0.1,0.4,0.1,0.6
			c0,0.2,0.1,0.3,0.1,0.4c0.1,0.2,0.1,0.3,0.2,0.4c0.1,0.2,0.2,0.3,0.3,0.5s0.2,0.3,0.2,0.5c0.1,0.2,0.1,0.3,0.2,0.5
			c0,0.1,0.1,0.3,0,0.4c0,0.2-0.1,0.3-0.2,0.5c-0.1,0.2-0.3,0.4-0.5,0.6c-0.2,0.2-0.4,0.4-0.7,0.5c-0.2,0.1-0.5,0.2-0.8,0.2
			c-0.2,0-0.4-0.1-0.5-0.2c-0.2-0.1-0.3-0.3-0.4-0.4c-0.1-0.2-0.2-0.3-0.3-0.5c-0.1-0.2-0.1-0.3,0-0.3c0.1-0.1,0.1-0.2,0.1-0.3
			c0-0.1,0.1-0.1,0.2-0.2c0,0,0.1-0.1,0.1-0.1c0,0,0.1-0.1,0.2-0.1c0.1,0,0.2-0.1,0.3-0.1c0.1,0.3,0.2,0.5,0.2,0.6s0.1,0.3,0.2,0.4
			C112.5,68.7,112.5,68.8,112.6,68.8z"/>
		<path class="st2" d="M122.7,67.1c-0.1,0.3-0.2,0.7-0.4,0.9s-0.3,0.5-0.5,0.8c-0.2,0.2-0.4,0.4-0.7,0.5s-0.5,0.2-0.9,0.2
			c-0.4,0-0.7-0.1-0.9-0.2c-0.2-0.2-0.4-0.3-0.5-0.6c-0.1-0.2-0.2-0.5-0.2-0.8s0-0.5,0-0.8c0-0.2,0-0.4,0.1-0.6s0.1-0.4,0.2-0.6
			c0.1-0.2,0.2-0.4,0.3-0.6c0.1-0.2,0.2-0.4,0.4-0.6c0.1-0.2,0.1-0.3,0.2-0.4c0.1-0.1,0.2-0.2,0.4-0.3c0.1-0.1,0.3-0.1,0.5-0.2
			s0.3-0.1,0.5-0.1c0,0,0.1,0,0.1,0s0,0,0.1,0c0.1,0,0.3,0.1,0.4,0.1c0.2,0.1,0.3,0.2,0.5,0.4s0.3,0.4,0.4,0.6s0.2,0.5,0.2,0.9
			c0,0.1,0,0.2,0,0.3c0,0.1,0,0.2,0,0.3c0.2-0.1,0.4-0.2,0.6-0.3c0.2-0.1,0.4-0.2,0.6-0.4c0.2-0.1,0.4-0.3,0.6-0.4
			c0.2-0.1,0.3-0.3,0.4-0.4c0.1-0.1,0.2-0.1,0.2-0.1s0.1,0,0.1,0.1c0,0,0,0.1,0,0.2s-0.1,0.2-0.1,0.3c0,0.1-0.2,0.2-0.3,0.3
			c-0.2,0.2-0.4,0.3-0.6,0.5s-0.5,0.4-0.8,0.5C123.3,66.9,123,67.1,122.7,67.1z M119.6,67.5c0,0.2,0,0.3,0,0.5s0.1,0.3,0.1,0.4
			c0.1,0.1,0.1,0.2,0.2,0.3c0.1,0.1,0.2,0.1,0.3,0.1c0.2,0,0.3,0,0.4-0.1c0.1-0.1,0.3-0.2,0.4-0.3c0.1-0.1,0.2-0.3,0.3-0.4
			c0.1-0.2,0.2-0.3,0.2-0.5c-0.1,0-0.1,0-0.2,0c-0.1,0-0.1,0-0.2,0c-0.3,0-0.6-0.1-0.9-0.3s-0.4-0.5-0.6-0.8
			c-0.1,0.2-0.1,0.4-0.1,0.5C119.6,67.1,119.6,67.3,119.6,67.5z M120.5,65.1c0,0.1,0,0.2,0,0.3c0,0.1,0,0.3,0,0.4
			c0,0.2,0.1,0.3,0.1,0.4s0.2,0.2,0.3,0.3c0.2,0.1,0.4,0.1,0.6,0.1c0,0,0.1,0,0.1,0c0,0,0.1,0,0.1,0c0-0.1,0.1-0.2,0.1-0.3
			c0-0.1,0-0.2,0-0.2c0-0.2,0-0.3,0-0.5s-0.1-0.3-0.1-0.5c0-0.1-0.1-0.3-0.2-0.4c-0.1-0.1-0.2-0.1-0.3-0.1c-0.2,0-0.3,0-0.5,0.1
			C120.7,64.8,120.6,65,120.5,65.1z"/>
		<path class="st2" d="M124.4,67.9c-0.1-0.1-0.2-0.2-0.2-0.3c0-0.1-0.1-0.2-0.1-0.3c0-0.1,0-0.2,0-0.3c0-0.1,0.1-0.2,0.2-0.3
			c0.1-0.1,0.1-0.2,0.3-0.3c0.1-0.1,0.2-0.2,0.4-0.3c0.1-0.3,0.2-0.6,0.3-0.9c0.1-0.3,0.2-0.6,0.2-0.9c0.1-0.3,0.2-0.6,0.2-0.9
			c0.2-0.8,0.3-1.4,0.3-1.8s0-0.8,0-0.9c0-0.1,0-0.1,0-0.2c0-0.1,0-0.1,0-0.2c0-0.1,0-0.1,0-0.2c0.1-0.1,0.2-0.1,0.3-0.1
			c0.1,0,0.1-0.1,0.2-0.1c0.1,0,0.1,0,0.2-0.1c0.2,0,0.4-0.1,0.6-0.1c0.2,0,0.3,0,0.3,0.1c0,0,0,0.1,0,0.2s0,0.3,0,0.4
			c0,0.2,0,0.4,0,0.6c0,0.2-0.1,0.4-0.1,0.7c-0.1,0.2-0.1,0.5-0.3,0.9c-0.1,0.3-0.2,0.7-0.4,1.2c-0.2,0.5-0.4,1.2-0.6,2
			c0.3-0.1,0.6-0.2,0.9-0.3c0.3-0.1,0.6-0.1,1-0.2c0.3-0.1,0.7-0.1,1-0.1c0.3,0,0.6,0,0.9,0c0.1,0,0.1,0,0.1,0.1c0,0,0,0.1,0,0.2
			c0,0.1-0.1,0.1-0.1,0.2c-0.1,0-0.2,0.1-0.3,0.1c-0.2,0-0.4,0-0.6,0.1c-0.2,0-0.4,0.1-0.7,0.1c-0.2,0-0.5,0.1-0.7,0.1
			c-0.2,0.1-0.4,0.1-0.6,0.2c-0.2,0.1-0.3,0.1-0.5,0.2c-0.1,0-0.3,0.1-0.4,0.2c-0.1,0.1-0.3,0.1-0.3,0.2l-0.3,1
			c0.5,0.4,0.9,0.7,1.2,1.1c0.3,0.4,0.5,0.7,0.6,1.1c0.2,0.4,0.2,0.7,0.3,1.1c0,0.4-0.1,0.8-0.2,1.2c-0.1,0.4-0.3,0.8-0.5,1.1
			c-0.2,0.4-0.4,0.7-0.7,1c-0.3,0.3-0.5,0.6-0.8,0.8c-0.3,0.2-0.6,0.4-0.9,0.5s-0.6,0.2-0.8,0.1c-0.2,0-0.3-0.1-0.5-0.2
			c-0.1-0.1-0.2-0.2-0.3-0.4c-0.1-0.2-0.1-0.3-0.1-0.5c0-0.2,0-0.4,0.1-0.6c0-0.2,0.1-0.5,0.2-1c0.1-0.4,0.2-1,0.5-1.9
			C123.8,70.3,124.1,69.2,124.4,67.9z M125.2,68.5c-0.1,0.4-0.2,0.9-0.3,1.2c-0.1,0.4-0.2,0.7-0.2,1c-0.1,0.3-0.1,0.6-0.2,0.9
			c-0.1,0.3-0.2,0.7-0.2,1c-0.1,0.3-0.2,0.6-0.2,0.9s-0.1,0.5-0.1,0.6c0,0.2,0.1,0.2,0.2,0.2c0.3,0,0.5-0.1,0.8-0.3
			c0.3-0.2,0.5-0.5,0.8-0.8s0.4-0.7,0.6-1.1c0.2-0.4,0.2-0.7,0.2-1.1c0-0.4-0.1-0.7-0.2-1.1c-0.1-0.2-0.2-0.4-0.3-0.5
			c-0.1-0.2-0.2-0.3-0.4-0.5C125.5,68.8,125.4,68.6,125.2,68.5z"/>
		<path class="st2" d="M135.9,68.6c-0.1,0.1-0.2,0.3-0.3,0.4c-0.1,0.1-0.2,0.3-0.4,0.4c-0.1,0.1-0.3,0.2-0.4,0.3
			c-0.2,0.1-0.3,0.1-0.5,0.1c-0.4,0-0.7-0.1-1-0.3s-0.4-0.4-0.5-0.6c-0.1-0.2-0.2-0.5-0.2-0.7c0-0.2,0-0.4,0-0.6
			c0-0.4,0.1-0.8,0.2-1.2c0.2-0.4,0.4-0.8,0.6-1.2c0.3-0.3,0.6-0.6,0.9-0.8c0.3-0.2,0.7-0.3,1-0.3c0.2,0,0.4,0,0.6,0.1
			c0.2,0.1,0.3,0.2,0.4,0.3c0.1,0.1,0.2,0.3,0.2,0.4c0,0.2,0.1,0.3,0.1,0.4c0-0.1,0-0.2,0.1-0.3c0-0.1,0-0.2,0.1-0.3
			c0-0.1,0-0.2,0.1-0.3c0.1,0,0.1-0.1,0.2-0.1c0.1,0,0.1,0,0.2-0.1c0.1,0,0.2,0,0.2,0c0.1,0,0.2,0,0.2,0c0.1,0,0.2,0.1,0.3,0.1
			c-0.2,0.8-0.4,1.4-0.5,1.8c-0.1,0.2-0.1,0.4-0.1,0.6c0,0.1-0.1,0.3-0.2,0.6s-0.1,0.6-0.2,0.9c-0.1,0.3-0.2,0.7-0.3,1.1
			c-0.1,0.4-0.2,0.8-0.3,1.1c0.2-0.2,0.4-0.4,0.6-0.6c0.2-0.2,0.5-0.5,0.7-0.7c0.2-0.2,0.5-0.5,0.7-0.7s0.4-0.5,0.6-0.8
			c0.1-0.1,0.2-0.2,0.3-0.3c0.1,0,0.1,0,0.2,0c0,0,0,0.1,0,0.2c0,0.1-0.1,0.2-0.1,0.3c-0.1,0.2-0.3,0.4-0.5,0.6s-0.3,0.4-0.5,0.7
			c-0.2,0.2-0.4,0.4-0.6,0.6c-0.2,0.2-0.4,0.4-0.5,0.6c-0.2,0.2-0.4,0.4-0.6,0.6c-0.2,0.2-0.4,0.4-0.6,0.7c0,0.2-0.1,0.3-0.1,0.5
			c0,0.1,0,0.3-0.1,0.4c0,0.3-0.1,0.6-0.1,0.8c0,0.2,0,0.4,0,0.6s0,0.3,0,0.5s0,0.3,0,0.4c0,0.3,0,0.5,0,0.7s-0.1,0.2-0.3,0.2
			c-0.1,0-0.2,0-0.3-0.1c-0.1-0.1-0.3-0.2-0.4-0.3c-0.1-0.1-0.2-0.3-0.3-0.5c-0.1-0.2-0.1-0.4-0.1-0.7c0-0.3,0.1-0.7,0.2-1
			c0.1-0.3,0.3-0.6,0.5-1c0.1-0.2,0.1-0.5,0.2-0.7c0.1-0.3,0.2-0.6,0.2-0.8c0.1-0.3,0.2-0.6,0.2-0.9S135.9,68.8,135.9,68.6z
			 M133.8,67.9c0,0.3,0,0.5,0.1,0.6c0.1,0.1,0.1,0.2,0.2,0.3c0.1,0.1,0.2,0.1,0.3,0.1s0.2,0,0.2,0c0.2,0,0.4-0.1,0.5-0.2
			c0.2-0.2,0.3-0.3,0.5-0.6c0.1-0.2,0.3-0.5,0.4-0.8c0.1-0.3,0.2-0.5,0.2-0.8c0-0.1,0.1-0.3,0.1-0.4c0-0.1,0-0.2,0.1-0.3
			c-0.2,0-0.3,0-0.3-0.1s-0.1-0.2-0.1-0.5c0-0.1,0-0.2,0-0.3c0-0.1,0-0.2-0.1-0.3c0-0.1-0.1-0.2-0.2-0.2c-0.1-0.1-0.2-0.1-0.3-0.1
			c-0.2,0-0.4,0.1-0.6,0.3c-0.2,0.2-0.4,0.5-0.5,0.8c-0.2,0.3-0.3,0.7-0.4,1.1C133.8,67.2,133.8,67.5,133.8,67.9z"/>
		<path class="st2" d="M140.6,69.5c-0.3,0-0.6-0.1-0.8-0.2c-0.2-0.1-0.4-0.2-0.5-0.4c-0.1-0.2-0.2-0.3-0.3-0.5
			c0-0.2-0.1-0.3-0.1-0.5c0-0.3,0-0.5,0.1-0.8c0-0.3,0.1-0.6,0.2-0.8c0.1-0.3,0.1-0.5,0.2-0.6c0-0.2,0.1-0.3,0.1-0.3
			c0.1-0.3,0.2-0.5,0.3-0.7c0.1-0.2,0.3-0.3,0.5-0.4c0.1,0,0.2,0,0.3-0.1c0.1,0,0.2,0,0.2,0c0.1,0,0.2,0,0.2,0
			c-0.2,0.6-0.4,1.1-0.6,1.5c-0.1,0.4-0.2,0.7-0.3,1c-0.1,0.3-0.1,0.5-0.1,0.7c0,0.4,0,0.7,0.1,0.9c0.1,0.2,0.4,0.3,0.7,0.3
			c0.2,0,0.5-0.1,0.7-0.3c0.2-0.2,0.4-0.4,0.6-0.7c0-0.1,0-0.3,0-0.4c0-0.3,0-0.6,0.1-0.8c0-0.3,0.1-0.5,0.2-0.8
			c0.1-0.2,0.1-0.4,0.2-0.6c0.1-0.2,0.1-0.3,0.2-0.4c0.1-0.2,0.2-0.3,0.3-0.4s0.2-0.1,0.4-0.1c0.1,0,0.1,0,0.2,0c0,0,0.1,0,0.1,0
			c0.1,0,0.2,0.1,0.2,0.2c0,0.1,0,0.4,0,0.6c0,0.3-0.1,0.6-0.2,0.9c-0.1,0.2-0.1,0.5-0.2,0.6c-0.1,0.2-0.1,0.3-0.2,0.4
			c-0.1,0.1-0.1,0.2-0.2,0.3c-0.1,0.1-0.1,0.1-0.1,0.2c0,0.3,0,0.5,0.1,0.6c0,0.2,0.1,0.3,0.1,0.4c0,0.1,0.1,0.1,0.1,0.2
			s0.1,0,0.2,0c0.1,0,0.3-0.1,0.4-0.2c0.2-0.1,0.3-0.3,0.5-0.5c0.2-0.2,0.4-0.4,0.5-0.6c0.2-0.2,0.3-0.4,0.5-0.6
			c0.2-0.2,0.3-0.4,0.4-0.5c0.1-0.1,0.2-0.2,0.2-0.3c0.1-0.1,0.1-0.1,0.2-0.1c0.1,0,0.1,0,0.1,0c0,0,0.1,0.1,0.1,0.1
			c0,0.1,0,0.1-0.1,0.2c-0.2,0.3-0.4,0.7-0.7,1.1c-0.3,0.4-0.5,0.7-0.8,1s-0.6,0.6-0.9,0.8s-0.6,0.3-0.9,0.3c-0.2,0-0.4-0.1-0.6-0.2
			s-0.3-0.4-0.4-0.7c-0.2,0.3-0.4,0.6-0.7,0.7C141.3,69.4,141,69.5,140.6,69.5z"/>
		<path class="st2" d="M152.2,66.6c-0.1,0.2-0.3,0.4-0.5,0.7c-0.2,0.3-0.4,0.5-0.6,0.8s-0.4,0.5-0.6,0.7c-0.2,0.2-0.4,0.4-0.5,0.5
			c-0.1,0.1-0.2,0.1-0.3,0.1c-0.1,0-0.2,0.1-0.4,0.1s-0.2,0-0.3,0s-0.2-0.1-0.3-0.1c-0.1-0.1-0.1-0.2-0.2-0.3c0-0.1-0.1-0.2-0.1-0.4
			s-0.1-0.4,0-0.6c-0.2,0.4-0.4,0.6-0.7,0.8c-0.3,0.2-0.5,0.3-0.7,0.4c-0.3,0.1-0.5,0.2-0.8,0.2c-0.1,0-0.3,0-0.4-0.1
			c-0.1-0.1-0.3-0.2-0.4-0.4c-0.1-0.2-0.2-0.4-0.2-0.7c0-0.3,0-0.6,0.1-1c0.1-0.5,0.3-1,0.6-1.5c0.3-0.4,0.6-0.8,0.9-1.1
			c0.3-0.3,0.6-0.6,0.9-0.7c0.3-0.2,0.6-0.2,0.8-0.2c0.2,0,0.4,0.1,0.6,0.2c0.1,0.1,0.2,0.2,0.2,0.4c0,0.2,0,0.4-0.2,0.7
			c0.1,0,0.2,0,0.3-0.1c0.1,0,0.1,0,0.2,0c0.1,0,0.1,0,0.1,0c0,0,0,0.1,0,0.1c0,0.1,0,0.2,0,0.3c0,0.2-0.1,0.4-0.1,0.6
			c-0.1,0.3-0.1,0.6-0.2,1c0,0.1,0,0.2,0,0.2c0,0.1,0,0.1,0,0.2c0,0.1,0,0.1,0,0.2c0,0.1,0,0.2-0.1,0.3c0,0.1,0,0.2,0,0.3
			c0,0.1,0,0.2,0,0.3c0,0.1,0.1,0.1,0.1,0.2s0.1,0.1,0.2,0.1c0.1,0,0.2-0.1,0.3-0.2c0.1-0.1,0.3-0.3,0.5-0.4
			c0.2-0.2,0.3-0.4,0.5-0.6c0.2-0.2,0.3-0.4,0.5-0.6s0.3-0.4,0.4-0.5c0.1-0.2,0.2-0.3,0.3-0.3c0.1-0.1,0.1-0.1,0.2-0.1
			s0.1,0,0.2,0.1c0,0.1,0,0.1,0,0.2S152.3,66.5,152.2,66.6z M148.3,67.2c0-0.2,0.1-0.4,0.2-0.6c0.1-0.2,0.1-0.5,0.2-0.7
			c0-0.2,0.1-0.4,0.1-0.6c0-0.1,0-0.2,0-0.2c0,0-0.1,0-0.1,0c0,0-0.1,0-0.2,0c-0.1,0-0.1,0-0.2,0c0.1-0.1,0.1-0.3,0.1-0.4
			c0-0.1,0-0.2,0-0.2c0-0.1,0-0.1-0.1-0.1c-0.1-0.1-0.3,0-0.5,0.2c-0.2,0.2-0.5,0.6-0.8,1.2c-0.1,0.2-0.2,0.5-0.3,0.7
			c-0.1,0.3-0.1,0.5-0.2,0.7c0,0.2,0,0.4,0,0.6c0,0.2,0.1,0.3,0.1,0.3c0.1,0.1,0.2,0.1,0.3,0.1c0.1,0,0.3,0,0.4-0.1
			c0.1-0.1,0.3-0.2,0.4-0.3s0.2-0.2,0.3-0.3c0.1-0.1,0.2-0.2,0.3-0.3C148.3,67.3,148.3,67.2,148.3,67.2z"/>
		<path class="st2" d="M151.1,69.1c0.4-1.6,0.7-3,0.9-4s0.4-1.8,0.5-2.3c0.1-0.6,0.2-1.1,0.3-1.3c0-0.2,0-0.3,0.1-0.5
			c0-0.1,0-0.3,0-0.4c0-0.2,0-0.3,0-0.4c0.1,0,0.1-0.1,0.2-0.1c0.1,0,0.2,0,0.2-0.1c0.1,0,0.2,0,0.3-0.1c0.1,0,0.2,0,0.3,0
			c0.1,0,0.1,0,0.2,0c0.1,0,0.1,0,0.1,0.1c0.1,0,0.1,0.1,0.1,0.3c0,0.1,0,0.3,0,0.4c0,0.2-0.1,0.4-0.1,0.5c-0.1,0.4-0.3,0.9-0.4,1.7
			c-0.2,0.6-0.4,1.4-0.6,2.5c-0.3,1.1-0.6,2.4-1,4c0,0-0.1,0.1-0.2,0.1s-0.1,0-0.2,0c-0.1,0-0.1,0-0.2,0c-0.1,0-0.1,0-0.2-0.1
			c-0.1,0-0.1-0.1-0.2-0.1C151.2,69.2,151.2,69.2,151.1,69.1z"/>
		<path class="st2" d="M154.3,64.3c0-0.1,0.1-0.1,0.3-0.1c0.1,0,0.3-0.1,0.4-0.1c0.1,0,0.3,0,0.4,0c0.1,0,0.2,0,0.2,0
			c0,0,0,0.1-0.1,0.3c-0.1,0.2-0.1,0.4-0.2,0.6c-0.1,0.2-0.2,0.5-0.3,0.7c-0.1,0.3-0.2,0.5-0.2,0.6c0,0.2-0.1,0.3-0.2,0.5
			c-0.1,0.2-0.1,0.4-0.2,0.6c0,0.2-0.1,0.4-0.1,0.5c0,0.2,0,0.3,0,0.4c0,0.1,0.1,0.2,0.1,0.2c0.1,0,0.1,0.1,0.2,0.1
			c0.2,0,0.4-0.1,0.7-0.3c0.3-0.2,0.5-0.4,0.8-0.7c0.3-0.3,0.5-0.5,0.8-0.8c0.2-0.3,0.4-0.5,0.5-0.7c0.1-0.1,0.1-0.1,0.2-0.2
			s0.1,0,0.2,0c0,0,0.1,0.1,0.1,0.2s0,0.2-0.1,0.3c-0.1,0.2-0.4,0.5-0.6,0.9c-0.3,0.3-0.6,0.7-0.9,1c-0.3,0.3-0.6,0.6-0.9,0.8
			s-0.5,0.3-0.7,0.3c-0.2,0-0.3,0-0.4-0.1c-0.1-0.1-0.3-0.1-0.4-0.2c-0.1-0.1-0.2-0.2-0.3-0.4s-0.1-0.3-0.1-0.4c0-0.2,0-0.5,0-0.9
			c0-0.4,0.1-0.8,0.1-1.2c0.1-0.4,0.2-0.8,0.3-1.2S154.2,64.4,154.3,64.3z M156.2,61.4c0,0.1-0.1,0.2-0.2,0.3
			c-0.1,0.1-0.2,0.2-0.3,0.2c-0.1,0.1-0.2,0.1-0.3,0.1s-0.2,0-0.2-0.1c-0.2-0.1-0.3-0.3-0.3-0.5c0-0.2,0-0.3,0.1-0.5
			s0.2-0.3,0.3-0.4c0.1-0.1,0.2-0.2,0.3-0.2c0.1,0,0.2,0,0.2,0.1c0.1,0.1,0.1,0.1,0.2,0.2c0,0.1,0.1,0.2,0.1,0.3
			C156.2,61.2,156.2,61.3,156.2,61.4z"/>
		<path class="st2" d="M161.9,65.9c0-0.1,0.1-0.1,0.1-0.1c0.1,0,0.1,0,0.1,0c0,0,0.1,0.1,0.1,0.1c0,0.1,0,0.1-0.1,0.3
			c-0.2,0.3-0.4,0.7-0.7,1.1c-0.3,0.4-0.6,0.8-0.9,1.1c-0.3,0.3-0.6,0.6-0.9,0.8c-0.3,0.2-0.6,0.3-0.8,0.3c-0.3,0-0.5-0.1-0.7-0.2
			c-0.2-0.1-0.3-0.3-0.5-0.4s-0.2-0.4-0.2-0.6c0-0.2-0.1-0.4,0-0.6c0-0.1,0-0.4,0.1-0.8c0.1-0.4,0.1-0.8,0.2-1.3s0.2-1,0.3-1.6
			c0.1-0.6,0.2-1.1,0.4-1.6c-0.2,0-0.3,0-0.5,0.1c-0.2,0-0.3,0-0.4,0c-0.3,0-0.6,0-0.8-0.1s-0.4-0.1-0.6-0.2c-0.1,0-0.1-0.1-0.1-0.2
			c0-0.1,0-0.1,0.1-0.2c0-0.1,0.1-0.1,0.2-0.2s0.1-0.1,0.2-0.1c0.2,0,0.4,0,0.5,0s0.4,0,0.6,0c0.2,0,0.3,0,0.5,0s0.3,0,0.5-0.1
			c0.1-0.4,0.2-0.8,0.3-1.1c0.1-0.3,0.2-0.5,0.3-0.7c0,0,0.1-0.1,0.2-0.1c0.1,0,0.2-0.1,0.3-0.1c0.1,0,0.2,0,0.3,0
			c0.1,0,0.2,0,0.2,0.1c0,0.1,0.1,0.3,0.1,0.5c0,0.3-0.1,0.7-0.1,1.1c0.4,0,0.7,0,1,0.1c0.3,0,0.5,0.1,0.7,0.1
			c0.2,0,0.4,0.1,0.5,0.1s0.2,0.1,0.3,0.1c0.1,0,0.1,0.1,0.1,0.1c0,0.1,0,0.1,0,0.2c0,0.1-0.1,0.1-0.2,0.2c-0.1,0.1-0.2,0.1-0.2,0.1
			c-0.1,0-0.2,0-0.3-0.1c-0.1,0-0.2,0-0.4-0.1c-0.2,0-0.3,0-0.6-0.1c-0.2,0-0.5,0-0.7,0c-0.1,0-0.1,0-0.2,0c-0.1,0-0.1,0-0.2,0
			c0,0.1-0.1,0.3-0.1,0.4c0,0.1-0.1,0.3-0.1,0.4c-0.1,0.4-0.2,0.7-0.4,1.2c-0.1,0.4-0.3,0.8-0.5,1.3s-0.4,1-0.6,1.5
			c-0.1,0.4,0,0.7,0,0.9s0.1,0.3,0.2,0.4c0.1,0.1,0.3,0.2,0.4,0.2c0.1,0,0.3,0,0.5-0.1s0.4-0.3,0.6-0.4c0.2-0.2,0.4-0.4,0.6-0.6
			c0.2-0.2,0.4-0.4,0.6-0.7s0.3-0.4,0.5-0.6C161.7,66.1,161.8,66,161.9,65.9z"/>
		<path class="st2" d="M164.6,64.4c0.1-0.1,0.2-0.2,0.3-0.2c0.1,0,0.2-0.1,0.3-0.1c0.1,0,0.2,0,0.3,0c0.2,0,0.4,0.1,0.4,0.2
			c0.1,0.1,0.1,0.3,0,0.6c0,0.2-0.1,0.3-0.2,0.6c-0.1,0.2-0.2,0.5-0.3,0.8s-0.2,0.7-0.3,1.1s-0.2,0.9-0.3,1.4
			c-0.1,0.4-0.2,0.9-0.3,1.5c-0.1,0.5-0.2,1.1-0.4,1.8c-0.1,0.7-0.3,1.5-0.5,2.4c0,0.2-0.1,0.4-0.3,0.4c-0.1,0-0.3,0-0.5-0.1
			c-0.1,0-0.1-0.1-0.2-0.1c0,0-0.1-0.1-0.1-0.2c-0.1-0.1-0.1-0.1-0.1-0.2c0.2-0.7,0.4-1.4,0.5-2s0.3-1.1,0.4-1.6
			c0.1-0.5,0.3-1,0.4-1.4c0-0.2,0.1-0.4,0.1-0.6c0-0.2,0.1-0.4,0.1-0.5c-0.1,0.2-0.2,0.4-0.4,0.5c-0.1,0.2-0.3,0.3-0.4,0.4
			s-0.3,0.2-0.5,0.3c-0.2,0.1-0.4,0.1-0.6,0.1c-0.5-0.1-0.8-0.2-1-0.5c-0.2-0.3-0.3-0.7-0.3-1.1c0-0.2,0-0.4,0.1-0.6
			c0-0.2,0.1-0.4,0.1-0.6c0.1-0.2,0.1-0.4,0.2-0.6s0.1-0.3,0.1-0.4c0.1-0.3,0.2-0.6,0.2-0.9c0-0.2,0-0.4-0.1-0.6
			c0.1-0.1,0.2-0.1,0.4-0.2c0.1,0,0.2-0.1,0.3-0.1c0.1,0,0.2,0,0.3,0c0.2,0,0.4,0.1,0.4,0.3c0,0.1,0,0.4,0,0.6
			c0,0.2-0.1,0.3-0.2,0.6s-0.2,0.5-0.3,0.7s-0.2,0.5-0.2,0.7s-0.1,0.4-0.1,0.4c-0.1,0.4-0.1,0.7,0,0.9c0.1,0.2,0.2,0.3,0.5,0.3
			c0.1,0,0.2-0.1,0.4-0.2c0.1-0.1,0.3-0.2,0.4-0.4s0.3-0.4,0.4-0.6c0.1-0.2,0.3-0.4,0.4-0.7c0.1-0.2,0.2-0.4,0.3-0.7
			c0.1-0.2,0.2-0.4,0.2-0.6c0.1-0.3,0.1-0.6,0.1-0.8C164.8,64.7,164.7,64.5,164.6,64.4z"/>
	</g>
</g>
<g>
	<defs>
		<rect id="SVGID_1_" y="87.6" width="202.9" height="38.1"/>
	</defs>
	<clipPath id="SVGID_2_">
		<use xlink:href="#SVGID_1_"  style="overflow:visible;"/>
	</clipPath>
	<path class="st3" d="M188,103.7c0.1-0.7,0.2-1.4,0.5-2c0.3-0.6,0.6-1.2,1-1.6c0.4-0.5,0.9-0.8,1.4-1.1c0.5-0.3,1.1-0.4,1.7-0.4
		c0.7,0,1.3,0.1,1.9,0.4c0.6,0.3,1.1,0.6,1.6,1.1c0.4,0.5,0.8,1,1.1,1.6c0.3,0.6,0.4,1.3,0.4,2L188,103.7z M196.7,116.6
		c1-0.4,1.9-0.9,2.7-1.5c0.8-0.6,1.5-1.4,2.2-2.3c0.6-0.9,1.1-1.8,1.3-2.8l-1.1-0.5c-0.2,0.6-0.5,1.2-0.9,1.8
		c-0.4,0.6-1,1.1-1.6,1.5c-0.6,0.4-1.3,0.8-2.1,1.1c-0.8,0.3-1.6,0.4-2.4,0.4c-1,0-1.9-0.2-2.7-0.7c-0.8-0.5-1.6-1.1-2.2-1.9
		c-0.6-0.8-1.1-1.8-1.4-2.9c-0.3-1.1-0.5-2.3-0.5-3.6h14.4c0-1.1-0.2-2.1-0.6-3.1c-0.4-1-1-1.8-1.8-2.6c-0.8-0.7-1.7-1.3-2.7-1.8
		c-1.1-0.4-2.2-0.7-3.5-0.7c-1.4,0-2.7,0.3-3.9,0.8c-1.2,0.5-2.2,1.3-3,2.2c-0.8,1-1.5,2.1-1.9,3.4c-0.5,1.3-0.7,2.8-0.7,4.3
		c0,1.3,0.2,2.5,0.7,3.6c0.5,1.1,1.2,2.1,2,3c0.9,0.8,1.9,1.5,3,2c1.1,0.5,2.4,0.7,3.7,0.7C194.7,117.2,195.7,117,196.7,116.6
		 M169.1,109.1c-0.5-0.3-1-0.8-1.4-1.3c-0.4-0.6-0.7-1.2-0.9-2c-0.2-0.8-0.3-1.6-0.3-2.4c0-0.7,0.1-1.4,0.2-2
		c0.1-0.6,0.4-1.2,0.7-1.7s0.7-0.8,1.2-1.1c0.5-0.3,1-0.4,1.7-0.4c0.7,0,1.3,0.2,1.9,0.5c0.6,0.3,1.1,0.8,1.5,1.4
		c0.4,0.6,0.8,1.3,1.1,2.1c0.3,0.8,0.4,1.7,0.4,2.6c0,0.7-0.1,1.3-0.3,1.9c-0.2,0.6-0.5,1.1-0.9,1.5c-0.4,0.4-0.8,0.8-1.3,1
		c-0.5,0.2-1,0.4-1.6,0.4C170.2,109.5,169.6,109.4,169.1,109.1 M167.4,116.8c0.6,0.1,1.3,0.1,2.2,0.2c0.8,0.1,1.7,0.1,2.7,0.2
		c0.9,0,1.9,0.1,2.8,0.1c1.5,0,2.7,0.2,3.5,0.6c0.9,0.4,1.3,1,1.3,1.9c0,0.4-0.2,0.8-0.6,1.2c-0.4,0.4-0.9,0.8-1.6,1.1
		c-0.7,0.3-1.6,0.6-2.6,0.8c-1,0.2-2.2,0.3-3.4,0.3c-1.2,0-2.3-0.1-3.2-0.3c-0.9-0.2-1.7-0.4-2.3-0.7c-0.6-0.3-1.1-0.6-1.4-1
		c-0.3-0.4-0.5-0.8-0.5-1.2c0-0.3,0-0.5,0.1-0.8c0.1-0.3,0.2-0.6,0.3-0.9c0.1-0.3,0.3-0.6,0.5-0.8c0.2-0.3,0.5-0.5,0.8-0.7
		C166.4,116.7,166.8,116.7,167.4,116.8 M176.1,98.5c-0.2-0.2-0.5-0.4-0.9-0.5c-0.4-0.2-0.8-0.3-1.3-0.4c-0.5-0.1-1-0.2-1.6-0.3
		c-0.6-0.1-1.1-0.1-1.7-0.1c-1.2,0-2.3,0.2-3.3,0.5c-1,0.4-1.9,0.9-2.7,1.5c-0.8,0.6-1.4,1.4-1.8,2.2s-0.7,1.7-0.7,2.7
		c0,1.3,0.4,2.4,1.1,3.4c0.7,1,1.7,1.8,3.1,2.3c-0.5,0.2-1,0.5-1.5,0.8c-0.5,0.3-0.9,0.7-1.2,1.1c-0.4,0.4-0.6,0.8-0.8,1.2
		c-0.2,0.4-0.3,0.8-0.3,1.2c0,0.3,0.1,0.5,0.2,0.8c0.1,0.2,0.3,0.4,0.5,0.6c0.2,0.2,0.5,0.4,0.8,0.5c0.3,0.2,0.6,0.3,1,0.4
		c-0.5,0.4-1,0.8-1.5,1.2c-0.5,0.4-1,0.8-1.4,1.3c-0.4,0.4-0.8,0.9-1,1.4c-0.3,0.5-0.4,1-0.4,1.5c0,1.2,0.8,2.1,2.4,2.9
		c1.6,0.7,4,1.1,7.1,1.1c1.8,0,3.4-0.2,4.8-0.5c1.4-0.3,2.6-0.8,3.6-1.5c1-0.6,1.7-1.4,2.3-2.3c0.5-0.9,0.8-1.9,0.8-3.1
		c0-0.6-0.1-1.2-0.3-1.7c-0.2-0.5-0.5-1-1-1.3c-0.5-0.4-1.1-0.7-1.8-0.9c-0.8-0.2-1.7-0.4-2.8-0.4l-7.2-0.3c-0.8,0-1.4-0.2-1.8-0.4
		c-0.4-0.2-0.6-0.6-0.6-0.9c0-0.4,0.1-0.8,0.4-1.2c0.3-0.4,0.6-0.7,0.9-1c0.4,0.1,0.8,0.2,1.3,0.3c0.5,0.1,1,0.1,1.5,0.1
		c1.3,0,2.5-0.2,3.6-0.5c1.1-0.3,2-0.8,2.8-1.4c0.8-0.6,1.4-1.3,1.8-2.1c0.4-0.8,0.7-1.7,0.7-2.7c0-0.6-0.1-1.3-0.3-1.9
		c-0.2-0.7-0.5-1.2-0.9-1.8h3.7v-1.6H176.1z M141.9,116.8h3.8v-14.3c0.4-0.4,0.9-0.8,1.3-1.1c0.5-0.3,0.9-0.6,1.4-0.9
		c0.5-0.2,0.9-0.4,1.4-0.6c0.5-0.1,0.9-0.2,1.3-0.2c0.9,0,1.6,0.3,2.2,1c0.6,0.7,0.9,1.6,0.9,2.9v13.2h3.8v-13.9
		c0-0.8-0.1-1.6-0.4-2.3c-0.3-0.7-0.6-1.3-1-1.9c-0.4-0.5-1-0.9-1.5-1.2c-0.6-0.3-1.2-0.5-1.9-0.5c-1.3,0-2.6,0.3-3.8,1
		c-1.3,0.7-2.5,1.6-3.6,2.9v-3.5h-3.8V116.8z M132.9,112.7c-0.4,0.3-0.8,0.6-1.1,0.8c-0.4,0.3-0.7,0.5-1.1,0.7
		c-0.4,0.2-0.7,0.3-1.1,0.5c-0.4,0.1-0.8,0.2-1.2,0.2c-0.4,0-0.8-0.1-1.2-0.3c-0.4-0.2-0.7-0.4-1-0.8s-0.5-0.7-0.7-1.1
		c-0.2-0.4-0.3-0.9-0.3-1.3c0-0.5,0.1-0.9,0.3-1.3c0.2-0.4,0.5-0.8,0.9-1.2c0.4-0.4,0.8-0.7,1.4-1.1s1.1-0.6,1.6-0.9
		c0.6-0.3,1.2-0.5,1.7-0.8c0.6-0.2,1.2-0.4,1.7-0.6V112.7z M136.7,102.2c0-0.8-0.1-1.5-0.4-2.1c-0.2-0.6-0.6-1.2-1.2-1.6
		c-0.5-0.4-1.2-0.8-2.1-1c-0.9-0.2-1.9-0.4-3.2-0.4c-1,0-2,0.1-3,0.3c-0.9,0.2-1.8,0.6-2.5,1c-0.7,0.4-1.3,0.9-1.7,1.4
		c-0.4,0.6-0.6,1.1-0.6,1.8c0,0.3,0,0.6,0.1,0.9c0.1,0.3,0.2,0.5,0.4,0.7c0.2,0.2,0.4,0.4,0.6,0.5c0.2,0.1,0.5,0.2,0.8,0.2
		c0.4,0,0.7-0.1,0.9-0.2c0.2-0.1,0.4-0.3,0.6-0.6c0.1-0.2,0.2-0.5,0.3-0.8c0.1-0.3,0.1-0.6,0.1-1c0-0.4,0-0.7,0.1-1.1
		c0.1-0.4,0.2-0.7,0.5-0.9c0.2-0.3,0.6-0.5,1-0.7s0.9-0.3,1.6-0.3c0.6,0,1.1,0.1,1.6,0.2c0.5,0.2,0.9,0.4,1.2,0.8
		c0.3,0.4,0.6,0.9,0.7,1.5c0.2,0.6,0.3,1.3,0.3,2.2v1.2c-0.9,0.2-1.7,0.4-2.7,0.7c-0.9,0.3-1.8,0.5-2.6,0.9
		c-0.9,0.3-1.7,0.7-2.4,1.1c-0.8,0.4-1.4,0.9-2,1.4c-0.6,0.5-1,1.1-1.3,1.8c-0.3,0.7-0.5,1.4-0.5,2.2c0,0.7,0.1,1.3,0.3,1.9
		c0.2,0.6,0.6,1.1,1,1.5c0.4,0.4,1,0.8,1.6,1c0.6,0.2,1.3,0.4,2,0.4c0.8,0,1.5-0.1,2.1-0.3c0.6-0.2,1.2-0.4,1.7-0.7
		c0.5-0.3,1-0.6,1.4-1c0.4-0.4,0.9-0.7,1.3-1.1v2.6h3.8V102.2z M107.8,116.8h3.8v-13.4c0.3-0.4,0.5-0.8,0.8-1.2
		c0.3-0.4,0.5-0.7,0.8-1c0.3-0.3,0.5-0.5,0.8-0.6c0.3-0.1,0.5-0.2,0.8-0.2c0.3,0,0.6,0,0.8,0.1c0.2,0.1,0.4,0.2,0.6,0.3
		c0.2,0.1,0.4,0.2,0.7,0.3c0.3,0.1,0.6,0.1,1,0.1c0.7,0,1.2-0.2,1.6-0.5c0.4-0.3,0.6-0.8,0.6-1.4c0-0.3-0.1-0.6-0.2-0.9
		c-0.2-0.3-0.4-0.5-0.6-0.7c-0.3-0.2-0.6-0.4-0.9-0.5c-0.4-0.1-0.7-0.2-1.2-0.2c-0.5,0-1,0.1-1.5,0.3c-0.5,0.2-1,0.5-1.4,0.9
		c-0.5,0.4-0.9,0.8-1.3,1.3c-0.4,0.5-0.8,1-1.2,1.5v-3.6h-3.8V116.8z"/>
	<path class="st4" d="M86.4,87.6h-1.1l-2.7,1.1v28.1h3.8v-14.3c0.4-0.4,0.9-0.8,1.3-1.1c0.5-0.3,0.9-0.6,1.4-0.9
		c0.5-0.2,0.9-0.4,1.4-0.6c0.5-0.1,0.9-0.2,1.3-0.2c0.9,0,1.7,0.3,2.2,1c0.6,0.7,0.9,1.6,0.9,2.9v13.2h3.8v-13.9
		c0-0.8-0.1-1.6-0.4-2.3c-0.3-0.7-0.6-1.3-1-1.9c-0.4-0.5-1-0.9-1.5-1.2c-0.6-0.3-1.2-0.5-1.9-0.5c-1.3,0-2.6,0.3-3.8,1
		c-1.3,0.7-2.5,1.6-3.6,2.9V87.6z M79.3,113.7c-0.3,0.3-0.6,0.6-0.9,0.8c-0.4,0.2-0.7,0.3-1.2,0.3c-0.3,0-0.6-0.1-0.8-0.2
		s-0.5-0.3-0.7-0.4c-0.2-0.2-0.3-0.4-0.4-0.7c-0.1-0.3-0.2-0.5-0.2-0.8V99.1h4.3v-1.6h-4.3v-6.6H74c-0.2,1-0.4,1.9-0.7,2.8
		c-0.3,0.9-0.6,1.6-1,2.3c-0.4,0.7-1,1.2-1.7,1.6c-0.7,0.4-1.6,0.6-2.7,0.6v1h3.3v13.6c0,0.7,0.1,1.3,0.2,1.8c0.1,0.6,0.4,1,0.7,1.4
		c0.3,0.4,0.7,0.7,1.2,0.9c0.5,0.2,1,0.3,1.7,0.3c1.2,0,2.3-0.3,3.1-0.8c0.9-0.5,1.5-1.2,2-2.1L79.3,113.7z M65.3,87.6h-1.1
		l-2.7,1.1v28.1h3.8V87.6z M52.3,112.7c-0.4,0.3-0.8,0.6-1.1,0.8c-0.4,0.3-0.7,0.5-1.1,0.7c-0.4,0.2-0.7,0.3-1.1,0.5
		s-0.8,0.2-1.2,0.2c-0.4,0-0.8-0.1-1.2-0.3s-0.7-0.4-1-0.8c-0.3-0.3-0.5-0.7-0.7-1.1c-0.2-0.4-0.3-0.9-0.3-1.3
		c0-0.5,0.1-0.9,0.3-1.3c0.2-0.4,0.5-0.8,0.9-1.2c0.4-0.4,0.8-0.7,1.4-1.1c0.5-0.3,1.1-0.6,1.6-0.9c0.6-0.3,1.2-0.5,1.7-0.8
		c0.6-0.2,1.2-0.4,1.7-0.6V112.7z M56.2,102.2c0-0.8-0.1-1.5-0.4-2.1c-0.2-0.6-0.6-1.2-1.2-1.6c-0.5-0.4-1.2-0.8-2.1-1
		c-0.9-0.2-1.9-0.4-3.2-0.4c-1,0-2,0.1-3,0.4c-0.9,0.2-1.8,0.6-2.5,1c-0.7,0.4-1.3,0.9-1.7,1.4c-0.4,0.6-0.6,1.1-0.6,1.8
		c0,0.3,0,0.6,0.1,0.9c0.1,0.3,0.2,0.5,0.4,0.7c0.2,0.2,0.4,0.4,0.6,0.5c0.2,0.1,0.5,0.2,0.8,0.2c0.4,0,0.7-0.1,0.9-0.2
		c0.2-0.1,0.4-0.3,0.6-0.6c0.1-0.2,0.2-0.5,0.3-0.8c0.1-0.3,0.1-0.6,0.1-1c0-0.4,0-0.7,0.1-1.1c0.1-0.4,0.2-0.7,0.5-0.9
		c0.2-0.3,0.6-0.5,1-0.7c0.4-0.2,0.9-0.3,1.6-0.3c0.6,0,1.1,0.1,1.6,0.2c0.5,0.2,0.9,0.4,1.2,0.8c0.3,0.4,0.6,0.9,0.7,1.5
		c0.2,0.6,0.3,1.3,0.3,2.2v1.2c-0.9,0.2-1.7,0.4-2.7,0.7c-0.9,0.3-1.8,0.5-2.6,0.9s-1.7,0.7-2.4,1.1c-0.8,0.4-1.4,0.9-2,1.4
		c-0.6,0.5-1,1.1-1.3,1.8c-0.3,0.7-0.5,1.4-0.5,2.2c0,0.7,0.1,1.3,0.3,1.9c0.2,0.6,0.6,1.1,1,1.5c0.4,0.4,1,0.8,1.6,1
		c0.6,0.2,1.3,0.4,2,0.4c0.8,0,1.5-0.1,2.1-0.3s1.2-0.4,1.7-0.7c0.5-0.3,1-0.6,1.4-1c0.4-0.4,0.9-0.7,1.3-1.1v2.6h3.8V102.2z
		 M23.5,103.7c0.1-0.7,0.2-1.4,0.5-2c0.3-0.6,0.6-1.2,1-1.6c0.4-0.5,0.9-0.8,1.4-1.1c0.5-0.3,1.1-0.4,1.7-0.4c0.7,0,1.3,0.1,1.9,0.4
		c0.6,0.3,1.1,0.6,1.6,1.1c0.4,0.5,0.8,1,1.1,1.6c0.3,0.6,0.4,1.3,0.4,2L23.5,103.7z M32.2,116.6c1-0.4,1.9-0.9,2.7-1.5
		c0.8-0.6,1.5-1.4,2.2-2.3c0.6-0.9,1.1-1.8,1.3-2.8l-1.1-0.5c-0.2,0.6-0.5,1.2-0.9,1.8c-0.4,0.6-1,1.1-1.6,1.5
		c-0.6,0.4-1.3,0.8-2.1,1.1c-0.8,0.3-1.6,0.4-2.4,0.4c-1,0-1.9-0.2-2.7-0.7c-0.8-0.5-1.6-1.1-2.2-1.9c-0.6-0.8-1.1-1.8-1.4-2.9
		c-0.3-1.1-0.5-2.3-0.5-3.6h14.4c0-1.1-0.2-2.1-0.6-3.1c-0.4-1-1-1.8-1.8-2.6c-0.8-0.7-1.7-1.3-2.7-1.8c-1.1-0.4-2.2-0.7-3.5-0.7
		c-1.4,0-2.7,0.3-3.9,0.8c-1.2,0.5-2.2,1.3-3,2.2c-0.8,1-1.5,2.1-1.9,3.4c-0.5,1.3-0.7,2.7-0.7,4.3c0,1.3,0.2,2.5,0.7,3.6
		c0.5,1.1,1.2,2.1,2,3c0.9,0.8,1.9,1.5,3,2c1.1,0.5,2.4,0.7,3.7,0.7C30.2,117.2,31.2,117,32.2,116.6 M3.8,87.6H2.7L0,88.7v28.1h3.8
		v-14.3c0.4-0.4,0.9-0.8,1.3-1.1c0.5-0.3,0.9-0.6,1.4-0.9c0.5-0.2,0.9-0.4,1.4-0.6c0.5-0.1,0.9-0.2,1.3-0.2c0.9,0,1.7,0.3,2.2,1
		c0.6,0.7,0.9,1.6,0.9,2.9v13.2h3.8v-13.9c0-0.8-0.1-1.6-0.4-2.3c-0.3-0.7-0.6-1.3-1-1.9c-0.4-0.5-1-0.9-1.5-1.2
		c-0.6-0.3-1.2-0.5-1.9-0.5c-1.3,0-2.6,0.3-3.8,1C6.2,98.7,5,99.7,3.8,101V87.6z"/>
</g>
</svg>
