<?xml version="1.0" encoding="utf-8"?>
<!-- Generator: Adobe Illustrator 19.2.0, SVG Export Plug-In . SVG Version: 6.00 Build 0)  -->
<svg version="1.0" id="Layer_1" xmlns="http://www.w3.org/2000/svg" xmlns:xlink="http://www.w3.org/1999/xlink" x="0px" y="0px"
	 viewBox="0 0 572.9 116.1" style="enable-background:new 0 0 572.9 116.1;" xml:space="preserve">
<style type="text/css">
	.st0{fill:#381950;}
	.st1{fill:#AFB4BB;}
	.st2{fill:#381950;stroke:#20201E;stroke-width:0.5;stroke-miterlimit:10;}
</style>
<g id="XMLID_392_">
	<path id="XMLID_393_" class="st0" d="M15.9,33.3c5.3-5.1,10.6-7.4,18.4-7.4c17.5,0,32.6,14.7,32.6,33.8c0,19.4-16.4,33.8-35.1,33.8
		C15,93.6,0,79.4,0,58.8V5.6l15.9-2V33.3z M15.9,59.8C15.9,70.2,24,79,34.7,79c9,0,17.2-8.9,17.2-19.3c0-10.4-8.1-19.3-17.2-19.3
		C24,40.5,15.9,49.4,15.9,59.8z"/>
	<path id="XMLID_396_" class="st0" d="M76.7,92.6V5.6l15.9-2v86.8L76.7,92.6z"/>
	<path id="XMLID_398_" class="st0" d="M104.5,27.9l15.9-2v64.3l-15.9,2.3V27.9z"/>
	<path id="XMLID_401_" class="st0" d="M132.8,27.9l15-1.5v8.8h0.3c5.4-7.3,10.6-9.3,19.5-9.3c13.1,0,21.9,8.4,21.9,21.9v42.6
		l-15.9,2.1V52.1c0-6.8-3.1-12.4-10.3-12.4c-10,0-14.7,7.6-14.7,15.7v35.1l-15.9,2.1V27.9z"/>
	<path id="XMLID_403_" class="st0" d="M250.9,84.7c-6.6,6.6-11,8.9-19.8,8.9c-18.2,0-31.4-16.2-31.4-33.8
		c0-17.7,13.3-33.8,31.4-33.8c6.4,0,13,1.9,18.9,6.8V5.6l15.9-2v87.1l-15,2.4V84.7z M233.1,79c10.6,0,18.4-8.9,18.4-19.3
		c0-10.4-7.8-19.3-18.4-19.3s-18.4,8.9-18.4,19.3C214.7,70.2,222.5,79,233.1,79z"/>
	<path id="XMLID_406_" class="st0" d="M284.7,73.5c4.1,4.4,8.3,6.8,14.4,6.8c5.1,0,8.9-3.3,8.9-6.5c0-11.4-31.4-4-31.4-28.3
		c0-13,11.5-19.5,23.3-19.5c9,0,17.5,3.6,23.5,10.4L313,45.6c-3.1-3.4-7.1-6.4-12-6.4c-4.6,0-7.6,1.8-7.6,6.6
		c0,10.4,31.4,3.3,31.4,26.7c0,14.5-13.2,21-26.1,21c-8.9,0-18-3.4-23.9-10.3L284.7,73.5z"/>
	<path id="XMLID_408_" class="st1" d="M333.7,91.6l24.4-29.8c6.4-7.9,18.4-20.4,18.4-30.1c0-7.1-4.8-13-14.2-13
		c-8.8,0-13.7,6.4-13.7,13.8c0,6.3,4.9,12.4,11.3,12.9l-10.1,13.4c-6-2.3-17.7-9.1-17.7-27.7c0-13.3,9.6-27.4,31.7-27.4
		c16.3,0,29.2,11.9,29.2,28.6c0,17.9-17.4,31.3-27.9,43.5h29.6l-4.1,15.9H333.7z"/>
	<path id="XMLID_410_" class="st0" d="M416.2,71.9c-10.9-4.6-15-10.3-15-20.9c0-14.9,12.9-25.1,29.1-25.1c7.3,0,13,0.8,15.4,0.8
		c6.3,0,15-2,22.2-4.3L464.7,36h-9.8c4,4.5,6.4,9.1,6.4,15.5c0,8.9-5.5,15.4-13.5,18.7c8.9,4.3,14.7,10.8,14.7,20.9
		c0,17.3-16.7,25.1-30.1,25.1c-14.5,0-23.8-3.6-32.2-12.8l9.8-10.1c6.8,7,10.8,9.6,20.8,9.6c6.4,0,15.2-3.9,15.2-12.4
		c0-9.8-7.6-14.3-16.9-14.3c-5.5,0-10.8,2-15.4,4.6L416.2,71.9z M431.3,64.3c7.3,0,14.2-5.6,14.2-13.3c0-7.5-6.9-13.2-14.2-13.2
		c-7.3,0-14.2,5.6-14.2,13.2C417.1,58.6,424,64.3,431.3,64.3z"/>
	<path id="XMLID_413_" class="st0" d="M505.7,25.9c18.8,0,35.3,14.7,35.3,33.8s-16.5,33.8-35.3,33.8c-18.8,0-35.3-14.7-35.3-33.8
		S486.9,25.9,505.7,25.9z M505.7,79c10.8,0,20.3-8.4,20.3-19.3c0-10.9-9.5-19.3-20.3-19.3c-10.8,0-20.3,8.4-20.3,19.3
		C485.4,70.7,494.9,79,505.7,79z"/>
</g>
<g>
	<path class="st0" d="M541.4,25.6h-5.3v-2.8H550v2.8h-5.3v14.7h-3.3V25.6z M553.3,22.8h5l4.7,13.4h0.1l4.7-13.4h5v17.5h-3.3V25.7
		h-0.1l-5.1,14.6h-2.7l-5.1-14.6h-0.1v14.6h-3.3V22.8z"/>
</g>
<path class="st2" d="M40.9,10.7"/>
<polygon id="XMLID_399_" class="st0" points="119.7,15.1 103.8,17.4 103.8,2.1 119.6,0 "/>
<path class="st2" d="M42.7,25.1"/>
</svg>
