<?xml version="1.0" encoding="utf-8"?>
<!-- Generator: Adobe Illustrator 19.2.0, SVG Export Plug-In . SVG Version: 6.00 Build 0)  -->
<svg version="1.1" baseProfile="tiny" id="Layer_1" xmlns="http://www.w3.org/2000/svg" xmlns:xlink="http://www.w3.org/1999/xlink"
	 x="0px" y="0px" viewBox="0 0 268.97 57" xml:space="preserve">
<path fill="#00539F" d="M26.99,1.37H7.56c0,0-3.78-0.57-6.03,3.19c-2.44,4.07,0.62,9.91,0.62,9.91l8.39,13.57
	c0,0,0.87,1.08,0.21,2.2c-0.6,1.03-1.78,0.92-1.78,0.92H0l2.44,12.76h19.92c0,0,4.72,0.57,7.02-4.29c2.11-4.47-0.87-8.46-0.87-8.46
	l-8.39-15.55c0,0-0.26-0.52,0-0.86c0.23-0.31,0.66-0.26,0.66-0.26h8.68L26.99,1.37z M58.05,43.97c0,0-13.75,1.48-23.12-12.78
	C29.8,23.38,28.58,1.84,48.98,1.27c5.29,0,9.6,0.08,9.6,0.08l2.62,13.1c0,0-4.88,0.04-9.08,0.04c-4.21,0-6.13,2.75-6.13,5.73
	s0.39,8.72,10.15,10.96c3.32,0.77,5.77,0.08,5.77,0.08L58.05,43.97L58.05,43.97z M65.55,15.92h14.78v28H65.55V15.92z M162.96,1.39
	l-4.02,18.96l-3.65-18.96h-14.66l10.45,42.56h14.9l3.34-16.48l2.91,13.82l6.06-25.09l-2.16-14.81H162.96z"/>
<path fill="#ED1C24" d="M184.17,1.39l-1.24,6.07h26.9l1.73-6.07H184.17z"/>
<path fill="#00539F" d="M182.5,9.51l-1.98,7.43h12.74l2.35-7.43H182.5z"/>
<path fill="#ED1C24" d="M180.03,19.67l-1.42,5.82h24.67l1.79-5.82H180.03z"/>
<path fill="#00539F" d="M178.36,28.03h12.92l-3.65,15.86h-13.05L178.36,28.03z"/>
<path fill="#ED1C24" d="M207.98,43.96h8.22L226.96,1.4h-8.04L207.98,43.96z M232.12,1.32h8.11l5.84,14.43l14.01-14.43h8.89
	l-19.59,21.52l9.28,21.06h-8.43l-6.55-14.82L229.73,43.9h-9.28l20.18-22.23L232.12,1.32z"/>
<path fill="#00539F" d="M107.22,1.33h30.48l3.46,12.7h-17.75v2.36h15.15L134.6,29h-11.38v2.07h18.92l-4.02,12.82h-30.85L107.22,1.33
	z M116.48,48.97c-4.55-1.91-10.31-4.8-13.8-8.33c-6.43-6.51-7.13-11.57-7.13-11.57s10.22-7.89,7.87-17.31
	C100.78,1.18,94.14,1.54,83.94,1.54L65.95,1.42L63.54,14.5c0,0,17.55-0.07,19.84-0.01c2.29,0.06,4.92,0.16,4.88,3.72
	c-0.03,3.03-6.68,6.66-6.68,6.66S80.55,32.41,89.95,44c3.63,4.47,7.95,8.44,11.88,11.64L116.48,48.97L116.48,48.97z"/>
</svg>
