<?xml version="1.0" encoding="utf-8"?>
<!-- Generator: Adobe Illustrator 19.2.0, SVG Export Plug-In . SVG Version: 6.00 Build 0)  -->
<svg version="1.2" baseProfile="tiny" id="Layer_1" xmlns="http://www.w3.org/2000/svg" xmlns:xlink="http://www.w3.org/1999/xlink"
	 x="0px" y="0px" viewBox="0 0 600 131.7" xml:space="preserve">
<g>
	<path fill="#005CAB" d="M424.1,90.6c0,12.8,0,25.4,0,38.3c-8.6,0-17.1,0-25.8,0c0-0.8,0-1.4,0-2.1c0-17.1,0-34.2,0-51.4
		c0-4.5-0.2-9-1.5-13.3c-2.4-7.7-7.1-13-15.2-14.5c-11.9-2.2-21.8,4.2-24.8,16c-0.8,3.2-1.2,6.6-1.2,9.8c-0.1,17.7-0.1,35.4-0.1,53
		c0,0.7,0,1.4,0,2.5c-8.5,0-16.9,0-25.4,0c0-3.1,0-5.9,0-8.7c-0.1-0.1-0.2-0.1-0.3-0.2c-0.4,0.4-0.8,0.7-1.2,1.1
		c-7.5,7.1-16.4,10.8-26.8,10.5c-13.3-0.4-24.9-4.9-34-14.8c-6.5-7-10-15.4-10.8-24.8c-0.1-0.8-0.2-1.5-0.3-2.3
		c-4.4,16.6-14,29.1-29.6,36.5s-31.3,7.3-46.9,0c-9.5-4.4-16.9-11.2-22.4-20c-5.6-8.8-8.3-18.5-8.3-28.9s2.9-20,8.4-28.9
		c-0.1-0.1-0.1-0.2-0.2-0.4c-2.4,0.3-4.8,0.6-7.2,1.1c-10.5,2.3-17.4,10.4-18.1,21.2c-0.2,3.6-0.3,7.1-0.3,10.7
		c0,15.2,0,30.4,0,45.5c0,0.7,0,1.4,0,2.3c-8.6,0-16.9,0-25.4,0c0-12.7,0-25.4,0-38c-0.1,0-0.2-0.1-0.3-0.1
		c-0.2,0.6-0.3,1.2-0.5,1.7c-6.5,21.3-20.6,34.2-42.6,38.1c-11.8,2.1-23.4,0.7-34.2-4.7c-12.8-6.4-21.2-16.7-25.8-30.1
		c-2-5.8-3-11.8-3-17.9C0,52.5-0.1,27.2-0.1,1.8C-0.1,1.2-0.1,0.7,0,0c8.3,0,16.4,0,24.8,0c0,12.1,0,24.1,0,36
		c0.1,0.1,0.2,0.1,0.3,0.2c0.3-0.3,0.7-0.5,1-0.8c8.2-7.6,18-11.3,29.1-11.5c24.7-0.6,44.5,16,50.5,38.6c0.2,0.7,0.4,1.4,0.6,2.2
		c0.5-2.7,0.8-5.3,1.5-7.8c3.6-13.9,12.4-23.2,25.5-28.5c8.7-3.6,17.9-4.6,27.3-4.4c0.2,0,0.5,0.1,0.9,0.2c0,6.2,0,12.3,0,18.8
		c15-16.3,33.1-23.1,54.5-18c21.4,5.1,34.4,19.3,40.6,40.5c0-21.9,0-43.5,0-65.2c8.6,0,17,0,25.7,0c0,8.2,0,16.4,0,24.9
		c13.3,0,26.3,0,39.4,0c0,8,0,15.9,0,24c-13,0-26.1,0-39.2,0c-0.1,0.7-0.1,1.2-0.1,1.6c0,9.7-0.1,19.3,0.1,29
		c0.1,3.7,0.2,7.5,0.9,11.1c1.5,8.7,7.3,14.3,16,16c6.1,1.2,12,0.9,17.6-2.1c6.9-3.8,10.6-9.8,11.9-17.3c0.7-3.8,0.9-7.6,1-11.4
		c0.1-24.5,0.1-49,0.1-73.6c0-0.7,0.1-1.4,0.1-2.2c8.4,0,16.8,0,25.3,0c0,11.2,0,22.3,0,33.8c0.5-0.3,0.8-0.4,1-0.6
		c14.9-13.8,36.7-12.6,51-1.1c9.8,7.9,15.3,18.3,16.5,30.9c0.1,0.7,0.2,1.3,0.4,2c0.2-0.9,0.4-1.8,0.7-2.6
		c6.3-21,20.2-33.8,41.6-38.1c15.6-3.1,30.2,0,43.3,9.2c10.7,7.5,17.4,17.7,20.6,30.4c0.1,0.5,0.3,1,0.6,1.5
		c0.2-1.3,0.3-2.6,0.5-3.9c2.4-15.4,10.8-26.2,24.9-32.5c9.2-4.1,19-5.4,29-5.1c0.2,0,0.3,0.1,0.6,0.1c0,8,0,15.9,0,24.1
		c-1,0-1.9,0-2.8,0c-3.7,0-7.4,0.4-10.8,1.7c-8.8,3-13.9,9.3-15.3,18.4c-0.6,4-0.6,8-0.7,12.1c-0.1,15.4,0,30.9,0,46.3
		c0,0.7,0,1.3,0,1.9c-1.3,0.5-23.4,0.7-25.5,0.2c0-14.3,0-28.6,0-43c-27.5,0-54.8,0-82.2,0c0.9,8.7,7.9,19.7,19.6,23.3
		c11.8,3.7,28.6-0.5,35.1-16.6c8.1,0,16.3,0,24.7,0c-0.1,0.7-0.2,1.3-0.4,1.8c-5.8,19.7-18.7,32-38.9,36.1
		c-13,2.7-25.8,1.2-37.7-4.9c-13.8-7-22.5-18.2-26.5-33.2c-0.1-0.4-0.2-0.9-0.4-1.3C424.4,90.8,424.3,90.7,424.1,90.6z M23.9,77.4
		c-0.3,15.9,12.7,29.3,28.5,29.6c17,0.3,30.1-12.1,30.6-28.6c0.4-15.9-11.3-30-29-30.4C37.1,47.6,24.2,60.3,23.9,77.4z M233.1,77.3
		c0-16.6-12.9-29.5-29.4-29.5c-16.6,0.1-29.6,12.6-29.6,29.5c0,17.4,13.5,29.6,29.6,29.5C220.3,106.9,233.1,94,233.1,77.3z
		 M504.5,65.4c-1.2-4.7-3.6-8.5-6.8-11.8c-5.3-5.5-11.6-8.5-19.2-8.9c-16-0.8-26.4,11.6-28.4,20.6C468.1,65.4,486.2,65.4,504.5,65.4
		z"/>
	<path fill="#005CAB" d="M587.2,130.6c-7,0-12.9-5.8-12.9-12.7c0-6.9,5.8-12.6,12.8-12.7c7-0.1,12.9,5.8,12.9,12.7
		C600,124.8,594.2,130.5,587.2,130.6z M587.2,106.9c-6.2,0-11,4.8-11.1,10.9c0,6.1,4.8,10.9,11,10.9c6.1,0,10.9-4.8,11-10.8
		C598.2,111.9,593.4,107,587.2,106.9z"/>
	<path fill="#005CAB" d="M593.6,125.4c-0.9,0-1.5,0-2.3,0c-0.2-1.1-0.3-2-0.4-3c-0.2-2.6-0.8-3.1-3.3-3.1c-1.1,0-2.3,0-3.4,0.1
		c-0.1,0-0.3,0.1-0.6,0.3c0,1.8,0,3.8,0,5.8c-0.8,0-1.4,0-2.1,0c0-5,0-9.9,0-14.9c0.3-0.1,0.6-0.3,1-0.2c2.3,0,4.7,0,7,0.2
		c1.8,0.1,3.2,0.8,3.7,2.7c0.5,1.8,0.2,3.5-1.3,4.9c-0.1,0.1-0.2,0.2-0.4,0.4C593.4,120.1,592.7,122.8,593.6,125.4z M583.6,112.1
		c0,1.8,0,3.4,0,5.2c1.9,0,3.8,0.1,5.6,0c1.4-0.1,2-1.1,2-2.6s-0.5-2.4-1.9-2.5C587.4,112,585.6,112.1,583.6,112.1z"/>
</g>
</svg>
