<?xml version="1.0" encoding="utf-8"?>
<!-- Generator: Adobe Illustrator 21.0.1, SVG Export Plug-In . SVG Version: 6.00 Build 0)  -->
<svg version="1.2" baseProfile="tiny" id="Layer_1" xmlns="http://www.w3.org/2000/svg" xmlns:xlink="http://www.w3.org/1999/xlink"
	 x="0px" y="0px" viewBox="0 0 600 222.3" overflow="inherit" xml:space="preserve">
<path fill="#00529C" d="M271.1,164.7c2.3,0,4.5,0,6.6,0c0.7,0.9,0.4,2,0.4,2.9c0.1,7.3,0.1,14.5,0.1,21.8c0,0.6,0,1.2,0.1,1.7
	c1,5.6,4.2,8.4,9.4,8.1c4.7-0.2,9.3-4.4,9.4-9.2c0.3-7.3,0.1-14.7,0.2-22c0-1.1-0.2-2.1,0.3-3.3c2.1-0.3,4.3-0.2,6.6,0
	c0,13.1,0,26.1,0,39.2c-1.8,0.4-3.5,0.3-5.4,0.1c-0.9-1.8-0.5-3.7-0.9-5.7c-1,0.4-1.4,1.3-2,1.9c-5.5,6.2-15.9,6.5-21.1,0.7
	c-2.7-3.1-3.7-6.9-3.7-10.8C271,181.8,271.1,173.4,271.1,164.7z"/>
<path fill="#00529C" d="M205.7,195.8c3.6-10.7,7.1-20.9,10.5-31.1c2.5,0,4.8,0,7.2,0c0,1.7-0.8,3-1.4,4.4
	c-4.9,12.6-9.2,25.4-14.9,37.6c-2.7,5.7-6,10.8-11.8,13.9c-1.5,0.8-2.9,1.5-4.7,1.7c-0.6-1.9-1.1-3.8-1.7-5.8
	c6.4-2.6,10.5-7.1,13-13.5c-5-12.6-10.1-25.3-15.2-38.3c2.8,0,5.1,0,7.8,0C198,174.9,201.7,185.1,205.7,195.8z"/>
<path fill="#00529C" d="M377.6,166.1c-0.4,1.6-0.9,3.1-1.8,4.6c-3.2-1.1-6.5-1.9-9.9-1.7c-2.2,0.2-4.2,0.7-5.8,2.4
	c-2.1,2.2-1.8,5.1,0.8,6.7c2,1.3,4.3,2,6.6,2.8c1.6,0.6,3.2,1.2,4.8,2c5.7,2.8,7.7,6.1,7,12c-0.6,5.3-4,8.1-8.8,9.4
	c-6.6,1.7-13,1.1-19.4-1.8c0.7-1.7,1.3-3.2,1.9-4.8c4,1.1,7.7,2.4,11.8,2.2c1.8-0.1,3.6-0.5,5.2-1.4c3.9-2.2,4.1-6.5,0.3-8.9
	c-2.3-1.5-4.9-2.3-7.4-3.2c-2-0.7-3.9-1.7-5.8-2.8c-7.6-4.5-5.5-14.7,1-18C363.2,162.9,371.7,163,377.6,166.1z"/>
<path fill="#00529C" d="M154.8,164.6c3.7,0,6.8,0,10.1,0c0.5,1.7,0.4,3.2,0.1,5.1c-3.2,0-6.5,0-9.7,0c-0.2,0.6-0.4,0.9-0.4,1.2
	c0,7.3-0.1,14.7,0,22c0.1,4.9,2.4,6.8,7.3,6.3c0.6-0.1,1.3-0.2,2.1-0.3c0.1,1.5,0.3,2.9,0.4,4.2c0,0.3-0.1,0.6-0.2,1
	c-2.9,1.1-5.8,1.3-8.7,0.7c-4.3-0.9-7-3.9-7.5-8.6c-0.8-6.8-0.2-13.7-0.3-20.5c0-1.9,0-3.7,0-5.5c-2.1-0.8-4.1,0-6-0.7
	c0-1.5,0-2.9,0-4.5c1.8-0.8,3.7,0,5.7-0.6c0.8-2.5,0-5.2,0.5-7.8c2.1-1,4.3-1.5,6.8-2.2C154.8,157.9,154.8,161.1,154.8,164.6z"/>
<path fill="#00529C" d="M315.8,164.8c1.8,0,3.7,0,5.7,0c0.8,2.2-0.1,4.6,0.9,7.3c3.1-5.9,7.5-8.9,14-8.3c0.5,2.2,0.2,4.3,0.2,6.5
	c-0.5,0.1-0.9,0.2-1.2,0.2c-8.4,0.4-12.5,4.6-12.6,13.1c-0.1,5.9,0,11.7,0,17.6c0,0.9,0,1.8,0,2.8c-2.4,0.5-4.6,0.3-7.1,0.2
	C315.8,191,315.8,178,315.8,164.8z"/>
<path fill="#00529C" d="M388.1,164.7c2.3,0,4.3,0,6.6,0c0,13.1,0,26.1,0,39.1c-0.8,0.5-1.5,0.4-2.3,0.4c-1.4,0-2.8,0.2-4.3-0.3
	C388.1,191,388.1,178,388.1,164.7z"/>
<path fill="#00529C" d="M396.1,152.5c0,2.6-2,4.6-4.7,4.6c-2.6,0-4.5-2-4.5-4.5c0-2.6,2.1-4.7,4.7-4.7
	C394,147.9,396.1,150,396.1,152.5z"/>
<path fill="#00529C" d="M584.9,25.6c-6.5-0.2-13,0.4-19.3,2.1c-13.7,3.6-24.4,11-30.3,24.3c-2.1,4.7-3,9.7-3.6,15.2
	C523.8,40.2,506,25.3,478.6,25c-27.9-0.3-45.7,14.6-53.6,41.6c-1.7-17.1-9.1-30.4-24.6-37.7c-15.6-7.4-30.4-5.1-44,6.6
	c0-11.6,0-22.6,0-33.6c-8.4,0-16.6,0-24.7,0c-0.5,1.1-0.3,2.1-0.3,3c0,14.7,0.1,29.4,0,44.1c-0.1,11.8,0.5,23.6-0.5,35.4
	c-0.5,5.9-2,11.4-5.8,16c-6.1,7.4-14.2,9.6-23.3,8c-9.9-1.7-15.3-7.1-17.3-16.8c-0.5-2.3-0.7-4.7-0.7-7.1c0-10.5,0-32.8,0-34.2
	c12.6,0,26.1,0,39,0c0-8.1,0-15.8,0-23.7c-13.1,0-25.9,0-39.1,0c0-8.3,0-16.4,0-24.5c-8.7,0-17,0-25.6,0c0,21.6,0,42.9,0,64.2
	c-6.3-20.7-19.3-34.9-40.6-39.9c-21.3-4.9-39.4,1.6-54.5,18.3c0-6.8,0-12.9,0-19c-7.9-0.5-15.4,0.2-22.7,2.4
	c-16,4.8-26.9,14.8-30.9,31.5c-0.5,1.9-0.7,3.9-1,5.9c-5.2-17.6-15.4-30.9-33-37c-17.6-6.1-34-3.6-48.7,9.6c0-12.5,0-24.4,0-36.5
	c-8.3,0-16.2,0-24.1,0C2,2.6,2.2,3.4,2.2,4.2c0,23.3,0,46.5,0,69.8c0,5,0.1,9.9,1,14.8c2.5,13.9,8.9,25.4,20.4,33.9
	c12.2,8.9,26,11.4,40.6,9.2c20.5-3.1,34.5-14.6,41.9-34c0.6-1.6,1.1-3.3,1.7-5c0.2,0,0.3,0,0.5,0.1c0,12.2,0,24.5,0,36.8
	c8.5,0,16.8,0,25.2,0c0-1.3,0-2.4,0-3.4c0-15.4-0.1-30.9,0-46.3c0-4.6,0.1-9.2,1.4-13.7c3-10.3,14.4-18,24.6-16.3
	c-8.4,14.2-10.7,29.3-5.7,45.1c5,15.9,15.5,27.2,30.9,33.6c13.6,5.7,27.5,5.7,41.1,0c16.8-7.1,27.2-19.9,32.2-37.5
	c1.6,18.1,10.5,31.2,27.3,38c16.5,6.6,32.2,5.2,45.9-8c0.5,3.2-0.1,6,0.5,8.6c8.3,0,16.5,0,24.6,0c0.5-1.1,0.3-2.1,0.3-3.1
	c0-17.3,0-34.6,0-52c0-3.8,0.5-7.6,1.6-11.2c3.1-9.8,10.8-15.2,21.3-15c9.1,0.2,16.2,6.1,18.8,15.7c1.1,4,1.2,8.1,1.2,12.3
	c0,16.7,0,33.3,0,50c0,1-0.2,2.1,0.4,3.2c8.2,0,16.5,0,25.1,0c0-12.7,0-25.1,0-37.8c0.4,0.3,0.5,0.4,0.6,0.5
	c0.2,0.6,0.4,1.3,0.6,1.9c2.2,7.9,6,14.9,11.5,21.1c17.6,19.7,49,21.6,68.6,10c12.1-7.1,19.3-17.8,22.7-31.3
	c-2.3-0.4-22.4-0.4-24.5,0c-6.1,14.6-20.9,19.8-33.4,16.8c-12.7-3.1-20.5-15.2-21.1-23.9c27.3,0,54.5,0,82.1,0c0,14.4,0,28.6,0,42.7
	c8.6,0,16.8,0,25.1,0c0-1.3,0-2.4,0-3.4c0-17.2-0.1-34.5,0.1-51.7c0.2-14.8,9.4-24.1,24.1-25c1.7-0.1,3.6,0.4,5.2-0.5
	c0-7.9,0-15.6,0-23.4C585.9,25.7,585.4,25.6,584.9,25.6z M55.4,108.4c-16.2,0-29.2-12.8-29.6-28.3c-0.5-16.6,12.2-30.8,29.4-30.8
	c16.8,0,29.7,12.9,29.7,29.7C84.9,95.4,71.9,108.3,55.4,108.4z M205,108.4c-16.6-0.1-29.7-13.2-29.6-29.7
	c0.1-16.7,13.2-29.5,30.1-29.4c16.2,0.1,29.2,13.3,29.2,29.6C234.7,95.4,221.6,108.4,205,108.4z M450.7,66.8
	c2.7-10.3,13.3-21.5,28.7-20.7c11.7,0.6,24,10.4,25.6,20.7C487,66.8,468.9,66.8,450.7,66.8z"/>
<path fill="#00529C" d="M433.2,148.6c0,6.9,0,13.7,0,20.8c-7.2-8.8-20.7-6.7-26.1,1.9c-4.2,6.7-4.8,13.9-2.6,21.3
	c1.9,6.6,6.2,11.1,13.1,12.3c6.5,1.1,12-1,15.9-6.7c0.1-0.1,0.3,0,0.7-0.1c0.1,1.9,0.2,3.8,0.3,5.9c2.1,0.3,4,0.4,5.7,0
	c0-18.7,0-37.1,0-55.7C437.6,148.4,435.5,148.1,433.2,148.6z M433.3,184.9c-0.1,1.6,0.2,3.8-0.4,6c-1.4,4.8-5,8-9.6,8.4
	c-5,0.4-9.1-1.8-11.1-6.5c-2.6-5.9-2.5-11.9,0.5-17.6c2.4-4.7,7.3-6.9,12.5-5.7c4.6,1.1,8,5.5,8.1,10.6
	C433.4,181.5,433.3,182.9,433.3,184.9z"/>
<path fill="#00529C" d="M263.9,181.7c-0.4-8.3-5.7-15.1-13.4-17.3c-8.3-2.3-17,0.7-21.7,7.4c-3.3,4.8-3.8,10.2-3.4,15.9
	c0.7,11.3,11.1,19.4,22.3,17.2c10.4-2,16.2-9.5,16.2-20.7C263.9,183.4,263.9,182.5,263.9,181.7z M252.7,196.2
	c-4.1,4.9-11.2,5.2-15.7,0.7c-5.8-5.8-6-18.5-0.4-24.5c5-5.3,13.1-4.7,17.2,1.4c2,2.9,2.9,6.3,2.9,10.8
	C256.6,188.9,255.5,192.8,252.7,196.2z"/>
<path fill="#00529C" d="M481.3,177.6c-2.1-12.5-15.1-18.3-25.6-11.1c-7.9,5.4-9.7,13.5-8.5,22.5c1.2,8.9,6.2,14.1,14.9,15.8
	c5.3,1,10.5,0.4,15.6-1.4c0.6-0.2,1.3-0.3,1.6-1.2c-0.2-1.4-0.4-3-1.4-4.4c-2.8,1.2-5.7,1.6-8.7,1.8c-9.4,0.6-15.4-4.5-15.5-13.8
	c4.7,0,9.3,0,13.9,0c4.6,0,9.2,0,13.6,0c0.6-1.1,0.4-1.9,0.5-2.7C481.8,181.2,481.6,179.4,481.3,177.6z M474.6,180.3
	c-6.9,0-13.7,0-20.6,0c0.1-6.6,5.4-12,11.3-11.7C471.2,169,475.4,174.2,474.6,180.3z"/>
<path fill="#00529C" d="M135.3,198.4c0-6.8,0.1-13.7-0.1-20.5c-0.2-5-1.6-9.8-6.5-12.2c-7.3-3.7-14.5-2.1-21.6,1.3
	c0.6,1.7,0.8,3.3,1.7,4.7c3.4-1.8,6.9-2.8,10.7-2.7c5.9,0.1,9.1,3.7,8.5,9.9c-2.4,0.2-4.9,0.4-7.3,0.7c-4.6,0.6-9.1,1.8-12.6,5
	c-6.6,6.1-4.5,17.5,3.8,19.9c5.7,1.7,10.9,0.4,15.3-3.6c0.4-0.4,0.6-1.2,1.6-1.1c0.3,1.4,0.5,2.8,0.8,4.3c2.1,0.1,4,0.4,5.9-0.2
	C135.9,202,135.3,200.2,135.3,198.4z M128.2,192.4c-1.1,5.1-7,8.6-12,7.2c-2.5-0.7-4.2-2.4-4.6-5c-0.5-3,0-5.8,2.7-7.7
	c4.2-3,9-3.1,14-3.2C128.5,186.9,128.7,189.7,128.2,192.4z"/>
<path fill="#00529C" d="M587.6,105.6c-7.1,0-12.7,5.4-12.7,12.4c0,6.9,5.6,12.4,12.7,12.4c7.1,0,12.4-5.3,12.4-12.2
	C600,111,594.7,105.6,587.6,105.6z M587.7,129c-6.2,0.1-11.1-4.7-11.2-11c0-6.1,4.8-11,10.9-11c6,0,11.1,4.9,11.2,10.9
	C598.7,123.8,593.7,129,587.7,129z"/>
<path fill="#00529C" d="M591.8,118.4c0.7-0.5,1.1-1.1,1.5-1.7c1-2.3-0.1-6-3.5-6c-2.8,0-4.6-0.1-7.6-0.1c-0.1,0-0.2,14.7-0.1,14.7
	c0.4,0,1.2,0,1.7,0c0-2.4,0-4.1,0-6.1c1.9,0,4.7-0.3,6,0.3c2.6,1.2,0.9,4.2,2.4,5.9c0.5,0,1.2,0,1.8,0
	C592.5,123.3,593.5,120.3,591.8,118.4z M589.4,117.6c-1.8,0.1-3.6,0-5.7,0c0-2,0-4.2,0-5.5c2.2,0,3.9-0.1,5.8,0
	c1.5,0.1,2.3,1.2,2.2,2.7C591.6,116.3,590.9,117.4,589.4,117.6z"/>
</svg>
