<?xml version="1.0" encoding="utf-8"?>
<!-- Generator: Adobe Illustrator 19.2.0, SVG Export Plug-In . SVG Version: 6.00 Build 0)  -->
<svg version="1.0" xmlns="http://www.w3.org/2000/svg" xmlns:xlink="http://www.w3.org/1999/xlink" x="0px" y="0px"
	 viewBox="0 0 127.5 119.1" style="enable-background:new 0 0 127.5 119.1;" xml:space="preserve">
<style type="text/css">
	.st0{fill:#55496D;}
	.st1{clip-path:url(#SVGID_2_);fill:none;stroke:#FFFFFF;stroke-width:2.3871;}
	.st2{fill:#FFFFFF;}
</style>
<g id="base">
</g>
<g id="shadow">
</g>
<g id="wax_stamp">
	<rect x="1.2" y="1.2" class="st0" width="125.1" height="116.8"/>
	<g>
		<defs>
			<rect id="SVGID_1_" width="127.5" height="119.1"/>
		</defs>
		<clipPath id="SVGID_2_">
			<use xlink:href="#SVGID_1_"  style="overflow:visible;"/>
		</clipPath>
		<rect x="1.2" y="1.2" class="st1" width="125.1" height="116.8"/>
	</g>
	<g>
		<path class="st2" d="M70.6,85.3c10.3,0,24.8-1.7,24.8-20.4h3.7l-4.2,24H24.5v-3c2.6-0.1,3.2,0.1,5.8-0.1c4.1-0.2,4.1-3,4.1-6.2
			V24.5c0-1-0.1-2-0.8-2.7c-0.3-0.5-1-0.8-1.4-1.1c-3.2-0.6-4.5-0.6-7.7-0.6v-2.4h32.3v2.4c-2.3,0-2.7,0-5,0.1c-1.4,0-3,0.1-4.2,1
			c-0.5,0.3-0.8,1.1-1,1.6c-0.3,1.1-0.3,2.4-0.3,3.5V73C46.3,81.7,53.1,85.3,70.6,85.3"/>
		<path class="st2" d="M57.8,63.7c-4.5-0.8-7.2-3.9-7.2-8.6c0-5.6,3.9-7.8,8.6-9.2l0.9-0.3c-5.7-2.4-8.4-7-8.4-13.2
			c0-4.5,2.3-9,6-11.7C61.3,18,65.9,17,70.4,17c4.5,0,8.7,0.9,12.3,3.7c2.6-2.5,5.6-5.1,9.3-5.1c3,0,6.3,1.8,6.3,5.2
			c0,3.5-3.2,5.5-6.3,4.2c-1-0.4-1.8-1.3-2.1-2.2c-0.1-0.6-0.3-1.2-0.4-1.7c-0.5-0.7-0.8-0.5-1.5-0.4c-0.4,0.3-0.9,0.5-1.2,0.8
			l-1.6,1.6c2.7,2.3,3.6,6,3.6,9.3c0,5.8-2.4,10.4-7.4,13.2c-4.7,2.6-9.9,2.5-15.1,2.6c-3,0.1-9.3,0-9.3,4.2c0,2.3,1.3,3.6,3.6,3.6
			c2.7,0,5.4,0.2,8.1,0.2c1.9,0,3.8,0.1,5.7,0.1c2.6,0,5.2,0.2,7.8,0.3c6.2,0.2,10.8,4.5,10.8,10.9c0,12.1-11.9,15.4-21.9,15.4
			c-7.2,0-22.4-0.4-22.4-10.5c0-2.3,1.8-4.5,3.6-6.1c1.6-1.2,3.2-1.7,5.1-2.3L57.8,63.7z M56.1,72.4c0,3.6,3.6,5.3,6.5,6
			c3.2,0.7,5.6,0.7,8.9,0.7c2.9,0,7-0.8,9.6-1.9c2.5-1.1,5-3.7,5-6.5c0-4.3-3.8-6.1-7.5-6.4c-1.8-0.2-3.7-0.3-5.5-0.3
			c-3.7,0-7.2,0.2-10.9,0.5C58.9,65.9,56.1,68.3,56.1,72.4 M60.2,32.6c0,6.6,2.8,12.1,10.1,12.1c6.8,0,9.7-5.8,9.7-11.9
			c0-6.7-2.1-12-9.8-12C63.4,20.8,60.2,26.4,60.2,32.6"/>
		<g>
			<path class="st2" d="M29.8,105.3c-2.8,0-5.3-2.3-5.3-5.2c0-2.9,2.4-5.3,5.3-5.3c2.9,0,5.3,2.3,5.3,5.2
				C35.2,103,32.7,105.3,29.8,105.3 M29.8,95.7c-2.4,0-4.3,2-4.3,4.4c0,2.3,2,4.3,4.3,4.3c2.4,0,4.3-1.9,4.3-4.3
				C34.2,97.7,32.2,95.7,29.8,95.7"/>
			<path class="st2" d="M44.5,103.4c-0.6,1.2-1.7,1.9-3.1,1.9c-1.3,0-2.5-0.7-3.1-1.9c-0.3-0.6-0.4-1.4-0.4-2.1V95h1v6.3
				c0,0.5,0.1,1.3,0.3,1.8c0.4,0.8,1.2,1.2,2.1,1.2c0.9,0,1.6-0.4,2.1-1.2c0.3-0.5,0.3-1.3,0.3-1.8V95h1v6.3
				C44.9,102,44.8,102.8,44.5,103.4"/>
			<polygon class="st2" points="50.6,95.9 50.6,105.1 49.6,105.1 49.6,95.9 47.3,95.9 47.3,95 52.9,95 52.9,95.9 			"/>
			<path class="st2" d="M61.5,104.3c-0.9,0.6-2.2,0.8-3.3,0.8h-2.9V95h2.9c1.1,0,2.4,0.2,3.3,0.8c1.4,0.9,2.3,2.6,2.3,4.2
				C63.8,101.7,62.9,103.3,61.5,104.3 M61,96.7c-1-0.7-2.1-0.8-3.3-0.8h-1.5v8.3h1.7c1.2,0,2.3-0.1,3.2-0.8c1-0.7,1.6-2.1,1.6-3.3
				C62.8,98.7,62.1,97.4,61,96.7"/>
			<path class="st2" d="M71.5,105.3c-2.8,0-5.3-2.3-5.3-5.2c0-2.9,2.4-5.3,5.3-5.3c2.9,0,5.3,2.3,5.3,5.2
				C76.9,103,74.4,105.3,71.5,105.3 M71.5,95.7c-2.4,0-4.3,2-4.3,4.4c0,2.3,2,4.3,4.3,4.3c2.4,0,4.3-1.9,4.3-4.3
				C75.9,97.7,73.9,95.7,71.5,95.7"/>
			<path class="st2" d="M84.6,105.3c-2.8,0-5.3-2.3-5.3-5.2c0-2.9,2.4-5.3,5.3-5.3c2.9,0,5.3,2.3,5.3,5.2
				C89.9,103,87.5,105.3,84.6,105.3 M84.6,95.7c-2.4,0-4.3,2-4.3,4.4c0,2.3,2,4.3,4.3,4.3c2.4,0,4.3-1.9,4.3-4.3
				C88.9,97.7,87,95.7,84.6,95.7"/>
			<path class="st2" d="M96.7,101.3l2.9,3.8h-1.3l-3.4-4.6c0.6,0,1.6,0,2.2-0.1c1-0.3,1.7-1.1,1.7-2.1c0-0.8-0.4-1.6-1.1-1.9
				c-0.6-0.3-1.3-0.4-2-0.4h-1.8v9.2h-1V95h2.6c0.8,0,1.8,0,2.5,0.4c1.1,0.5,1.8,1.6,1.8,2.9C99.7,100,98.4,101.2,96.7,101.3"/>
		</g>
	</g>
</g>
<g id="text">
</g>
</svg>
