<?xml version="1.0" encoding="utf-8"?>
<!-- Generator: Adobe Illustrator 19.2.0, SVG Export Plug-In . SVG Version: 6.00 Build 0)  -->
<svg version="1.2" baseProfile="tiny" id="Layer_1" xmlns="http://www.w3.org/2000/svg" xmlns:xlink="http://www.w3.org/1999/xlink"
	 x="0px" y="0px" viewBox="0 0 600 87.2" xml:space="preserve">
<path fill="#495056" d="M567.5,29.1c0,0-17.7-5.5-20.3-8.1c-2.6-2.6-0.4-10,8.7-8.9c9.1,1,20.5,7.7,25.6,10.8c5.1,3,7.7,1.2,8.3-0.6
	c0.6-1.8-10.2-16.1-13.2-19.3c-3-3.3-6.9-3.7-8.5-1.6c-1.6,2-4.9,2.2-8.7,1C555.5,1,541,0.6,534.7,2.9c-6.3,2.2-10.4,5.5-10.4,5.5
	s0-5.9-5.9-6.1c-5.9-0.2-19.7,0.4-20.5,0.4c-0.8,0-3.3,1.8-3,4.5c0.2,2.6,4.7,4.7,5.9,5.5c1.2,0.8,3.3,6.1,2.8,12.6
	c-0.4,6.5-0.8,11.8-2.2,11.4c-1.4-0.4-30.9-30.3-34.2-32.3c-3.3-2-5.7-2.8-16.3-2.6c-10.6,0.2-11,0.2-13.4,1.2c-2.4,1-2.4,1-2.4,1
	s-2-2-6.9-2c-4.9,0-20.9,0.8-23,0.8c-2,0-5.1,2.2-4.9,4.5c0.2,2.2,4.7,4.7,6.1,5.7c1.4,1,2.2,3.5,2.4,14c0.2,10.6-0.4,43.1-0.6,45.1
	c-0.2,2-5.1,4.5-5.9,4.5c-0.8,0-2.6,0-3.9-0.6c-1.2-0.6-3.7-2.2-5.5-6.1c-1.8-3.9-21.1-42.9-21.1-44.1c0-1.2,2.2-6.9,6.3-11
	c4.1-4.1,11-3.9,11.6-7.3c0.6-3.5-0.2-5.3-4.9-5.3c-4.7,0-20.7,0-20.7,0S360,1.9,360,5.3c0,3.5,4.9,4.9,5.1,6.3
	c0.2,1.4,2.4,2-6.3,9.1c-8.7,7.1-12.6,10-12.8,7.3c-0.2-2.6,0-12.8,0-14.2c0-1.4,4.3-4.5,5.3-5.1c1-0.6,1.8-5.9-2.8-6.3
	c-4.7-0.4-26.2,0-27.8,0c-1.6,0-3,1.8-4.1,1.4c-1-0.4-1.8-2-3.7-2c-1.8,0-37.4,0.4-46.5,0.4c-9.1,0-13.4-1-14.6-1
	c-1.2,0-7.3-0.4-9.4,2.8c-2,3.2-9.5,15.2-9.5,15.2s-7.3-13.8-8.1-15.2c-0.8-1.4-1-2.2-7.5-2.2c-6.5,0-10.6,0-12.2,2.8
	c-1.6,2.8-27.8,62.8-29.1,65.4c-1.2,2.6-4.9,4.5-5.7,4.3c-0.8-0.2-1-0.6-0.4-1.8c0.6-1.2,23.2-56.7,24.8-58.5
	c1.6-1.8,7.1-3.3,7.3-5.7c0.2-2.4-1-5.9-7.1-5.9c-6.1,0-19.5,0.4-21.1,0.4c-1.6,0-3.3,3-2.4,4.7c0.8,1.6,6.3,4.7,5.5,8.1
	c-0.8,3.5-15.6,38.8-16.3,39.8c-0.6,1-2.4,0.4-3-1c-0.6-1.4-9.4-20.1-9.8-21.5c-0.4-1.4,1.2-3.9,2.4-4.5c1.2-0.6,3.9-2.6,3.9-5.7
	c0-3-5.7-3.7-9.8-3.7c-4.1,0-20.3,0-20.3,0s-3.9,0.6-4.1,4.3c-0.2,3.7,5.9,5.1,6.5,7.3c0.6,2.2-1.8,10.2-4.7,17.3
	c-2.8,7.1-4.3,9.8-5.7,6.9c-1.4-2.8-16.1-35.8-16.7-38.2c-0.6-2.4,1-4.7,1.8-5.3c0.8-0.6,4.3-1.6,3.9-4.9c-0.4-3.2-3.1-3.7-16.3-3.9
	C75.4,2.5,72,2.7,70.3,3.6c-1.6,0.8-3.2,2.2-3.2,2.2s-4.3-5.5-7.9-5.1c-3.7,0.4-5.1,3.9-8.9,3.3C46.4,3.4,14.8-3.3,8.6,17.8
	c-6.3,21.1,28.7,29.7,35,32.1c0,0,15.8,5.1,20,11.5c4,6-1.5,13.5-20.8,13.2C23.5,74.3,13,62.3,7.2,59.9c-5.7-2.4-7.5,1.5-7.2,3.3
	C0.3,65,9.4,80.9,12.7,84.8c3.3,3.9,7.2,1.5,9-0.6c1.8-2.1,3.9-1.8,11.1,0.3C40,86.6,63,91,79.5,80.6c18.7-11.7,8.1-31.6,1.2-37.3
	c-6.1-5-22.9-12-22.9-12c-11-4.3-21.8-8-23.8-10.5c-3.1-3.9-0.4-8.3,6.9-8.1c7.3,0.2,20.3,4.9,26.2,9.6c5.9,4.7,9.1,3.5,10.4,2.6
	c1.2-0.8,2.8,1.8,3.9,4.3c1,2.4,22.8,53,22.8,53s0.4,3.7,6.1,3.7c5.7,0,11.4,0.6,13.4-3.7c2-4.3,7.5-21.3,8.9-24.4
	c1.4-3,2.4-3.5,3.2-1.2c0.8,2.2,11.4,25.6,12,26.6c0.6,1,2.2,2.6,8.9,2.6c6.7,0,7.9-1.8,7.9-1.8s3.5,1,5.9,1
	c2.4,0,23.2-0.4,23.2-0.4S196,84,196,81c0-3-5.7-6.9-5.7-6.9s1-10.4,8.7-11.8c7.7-1.4,21.1-1.4,24.8,1.6c3.7,3,5.1,8.7,4.7,10.2
	c-0.4,1.4-5.7,3.7-5.7,6.3c0,2.6,2.4,4.5,4.7,4.5c0,0,28.9,0,29.7,0c0.8,0,3.5-0.6,4.1-0.2c0.6,0.4,1.6,0.4,2.8,0.4
	c1.2,0,27.8,0,27.8,0s5.3,0.2,5.3-4.1c0-4.3-6.5-4.1-7.3-8.1c-0.8-4.1-1-50.6-1-52.6c0-2-0.4-5.5,3.9-5.7c4.3-0.2,12-1,16.5,4.1
	c4.5,5.1,10.4,9.1,11.4,9.1c1,0,3.7-0.2,3.7,2.6c0,2.8-0.8,42.7-0.8,42.7s-1.6,2.4-3.2,2.8c-1.6,0.4-3.7,2.8-3.7,5.1
	c0,2.2,3.9,3.5,8.9,3.5c5.1,0,23.8,0,23.8,0s4.1-0.6,4.1-4.3c0-3.7-7.7-4.7-7.7-8.1c0-3.5,0-26,0-26s4.1-4.5,5.9-6.5
	c1.8-2,5.3-1.2,6.1,0.4c0.8,1.6,13.8,30.5,13.8,31.5c0,1,0.6,3.5-2.2,4.9c-1.1,0.6-3.1,2.8-3,5.1c0,2.2,3.6,3,7.5,3
	c0.1,0,0.3,0,0.4,0l23-0.4c0,0,3.9-1.2,5.1-0.4c1.2,0.8,3.5,1,5.9,1c2.4,0,24,0.4,25.6,0.2c1.6-0.2,4.5,0.2,5.7,0.2
	c1.2,0,20.1,0.2,21.1,0.2c0,0,4.1,0,4.1-4.1c0-4.1-3.1-4.1-4.9-5.5c-1.8-1.4-3.5-7.9-3.5-14.8c0-6.9,0.8-30.9,0.8-30.9
	s1-2.2,2.8-0.8c1.8,1.4,40.9,41.3,41.7,42.9c0.8,1.6,2,4.3,1.8,6.5c-0.2,2.2,0.4,6.5,4.7,6.5c4.3,0,7.3-0.4,7.3-5.3
	c0-4.9,1-8.3,1-8.3s2.2,1.4,4.1,4.7c1.8,3.3,5.7,10.6,7.1,10.8c1.4,0.2,4.3,0,6.1-2c1.8-2,2.6-3,5.1-2.6c2.4,0.4,20.7,5.3,32.9,4.3
	c12.2-1,28.2-6.7,28.5-28.7C600.2,39.4,572.9,31,567.5,29.1z M216.4,50.6c-0.7,0-14.3,0.2-14.3,0.2s-2.5-0.9-1.1-4.5
	c1.4-3.6,7.5-18,8-19.3c0.5-1.3,1.2-0.7,2.1,0.2c0.9,0.9,7.5,19.3,7.5,19.3S219.1,50.8,216.4,50.6z M267.1,71.7c0,0-0.5,4.6-7,5.2
	c-1.6,0.1-7.5-3.7-9.5-7.5c-2-3.7-13.7-38.2-14.3-40c-0.5-1.8,1.1-3,2.3-3.4c1.2-0.4,8.7-6.8,10.2-8.6c1.4-1.8,8.2-4.1,13-3.6
	c4.8,0.5,5.5,3,5.5,7.1C267.5,25.1,267.1,71.7,267.1,71.7z M441.9,74c-1.4,2.3-5.9,2.7-8.4,1.2c-2.5-1.4-3.6-4.6-3.6-4.6
	s-0.7-50.7-0.7-53.2c0-2.5,2.5-5,3.6-5.5c1.1-0.5,3.2-1.8,3.2-1.8c3.2,0.4,7.1,2.1,7.1,4.6C443.2,17.2,443.4,71.6,441.9,74z
	 M554.5,74.1c-16.9-1.2-31.8-12.8-33-13.7c-1.2-0.9-5.9-4.3-5.9-4.3s0-35.3,0.3-39.6c0.4-4.3,6.4-5,6.4-5
	c-3.7,10.7-0.7,18.9,7.3,25.2c8,6.2,25.5,11.8,33.7,15.2c8.2,3.4,13.4,8.2,13.2,12.7C576.4,68.9,571.4,75.4,554.5,74.1z"/>
</svg>
