<?xml version="1.0" encoding="utf-8"?>
<!-- Generator: Adobe Illustrator 21.0.1, SVG Export Plug-In . SVG Version: 6.00 Build 0)  -->
<svg version="1.1" id="Layer_1" xmlns="http://www.w3.org/2000/svg" xmlns:xlink="http://www.w3.org/1999/xlink" x="0px" y="0px"
	 viewBox="0 0 199.3 65.5" style="enable-background:new 0 0 199.3 65.5;" xml:space="preserve">
<style type="text/css">
	.st0{clip-path:url(#SVGID_2_);fill:url(#SVGID_3_);}
	.st1{clip-path:url(#SVGID_5_);fill:url(#SVGID_6_);}
	.st2{clip-path:url(#SVGID_8_);fill:url(#SVGID_9_);}
	.st3{clip-path:url(#SVGID_11_);fill:url(#SVGID_12_);}
	.st4{clip-path:url(#SVGID_14_);fill:url(#SVGID_15_);}
	.st5{clip-path:url(#SVGID_17_);fill:url(#SVGID_18_);}
	.st6{clip-path:url(#SVGID_20_);fill:url(#SVGID_21_);}
	.st7{clip-path:url(#SVGID_23_);fill:url(#SVGID_24_);}
	.st8{clip-path:url(#SVGID_26_);fill:url(#SVGID_27_);}
	.st9{clip-path:url(#SVGID_29_);fill:url(#SVGID_30_);}
	.st10{clip-path:url(#SVGID_32_);fill:url(#SVGID_33_);}
	.st11{clip-path:url(#SVGID_35_);fill:url(#SVGID_36_);}
	.st12{clip-path:url(#SVGID_38_);fill:url(#SVGID_39_);}
	.st13{clip-path:url(#SVGID_41_);fill:url(#SVGID_42_);}
	.st14{clip-path:url(#SVGID_44_);fill:url(#SVGID_45_);}
	.st15{clip-path:url(#SVGID_47_);fill:#858584;}
	.st16{clip-path:url(#SVGID_47_);fill:#EEEBE1;}
</style>
<g>
	<defs>
		<path id="SVGID_1_" d="M63.5,24.5c0,5.9-4.8,10.7-10.7,10.7c-5.9,0-10.7-4.8-10.7-10.7c0-5.9,4.8-10.7,10.7-10.7
			C58.7,13.7,63.5,18.5,63.5,24.5 M68.1,24.5c0-8.5-6.9-15.4-15.4-15.4c-8.5,0-15.4,6.9-15.4,15.4c0,8.5,6.9,15.4,15.4,15.4
			C61.2,39.8,68.1,32.9,68.1,24.5"/>
	</defs>
	<clipPath id="SVGID_2_">
		<use xlink:href="#SVGID_1_"  style="overflow:visible;"/>
	</clipPath>
	
		<linearGradient id="SVGID_3_" gradientUnits="userSpaceOnUse" x1="-124.1434" y1="69.5299" x2="-123.3622" y2="69.5299" gradientTransform="matrix(253.6871 93.9373 93.9373 -253.6871 24955.7051 29303.0859)">
		<stop  offset="0" style="stop-color:#A2A1A2"/>
		<stop  offset="1.271223e-02" style="stop-color:#A9A8A9"/>
		<stop  offset="8.255100e-02" style="stop-color:#CBCACB"/>
		<stop  offset="0.149" style="stop-color:#E3E2E3"/>
		<stop  offset="0.21" style="stop-color:#F2F1F2"/>
		<stop  offset="0.2606" style="stop-color:#F7F6F7"/>
		<stop  offset="0.2979" style="stop-color:#F1F0F1"/>
		<stop  offset="0.3467" style="stop-color:#E1E0E1"/>
		<stop  offset="0.4016" style="stop-color:#C6C5C6"/>
		<stop  offset="0.4485" style="stop-color:#AAA8AA"/>
		<stop  offset="0.5162" style="stop-color:#B6B5B6"/>
		<stop  offset="0.5818" style="stop-color:#BDBCBC"/>
		<stop  offset="0.6272" style="stop-color:#CFCECE"/>
		<stop  offset="0.6993" style="stop-color:#E5E3E3"/>
		<stop  offset="0.7682" style="stop-color:#F2F1F1"/>
		<stop  offset="0.8303" style="stop-color:#F7F5F5"/>
		<stop  offset="1" style="stop-color:#AFAEAF"/>
	</linearGradient>
	<polygon class="st0" points="41.1,-0.9 78.1,12.8 64.4,49.8 27.4,36.1 	"/>
</g>
<g>
	<defs>
		<path id="SVGID_4_" d="M69.6,24.5c0,9.3-7.5,16.8-16.8,16.8s-16.8-7.5-16.8-16.8c0-9.3,7.5-16.8,16.8-16.8S69.6,15.2,69.6,24.5
			 M74.2,24.5C74.2,12.6,64.6,3,52.8,3c-11.9,0-21.5,9.6-21.5,21.5c0,11.9,9.6,21.5,21.5,21.5C64.6,45.9,74.2,36.3,74.2,24.5"/>
	</defs>
	<clipPath id="SVGID_5_">
		<use xlink:href="#SVGID_4_"  style="overflow:visible;"/>
	</clipPath>
	
		<linearGradient id="SVGID_6_" gradientUnits="userSpaceOnUse" x1="-124.1434" y1="69.5299" x2="-123.3622" y2="69.5299" gradientTransform="matrix(253.6871 93.9373 93.9373 -253.6871 24955.7051 29303.0859)">
		<stop  offset="0" style="stop-color:#A2A1A2"/>
		<stop  offset="1.271223e-02" style="stop-color:#A9A8A9"/>
		<stop  offset="8.255100e-02" style="stop-color:#CBCACB"/>
		<stop  offset="0.149" style="stop-color:#E3E2E3"/>
		<stop  offset="0.21" style="stop-color:#F2F1F2"/>
		<stop  offset="0.2606" style="stop-color:#F7F6F7"/>
		<stop  offset="0.2979" style="stop-color:#F1F0F1"/>
		<stop  offset="0.3467" style="stop-color:#E1E0E1"/>
		<stop  offset="0.4016" style="stop-color:#C6C5C6"/>
		<stop  offset="0.4485" style="stop-color:#AAA8AA"/>
		<stop  offset="0.5162" style="stop-color:#B6B5B6"/>
		<stop  offset="0.5818" style="stop-color:#BDBCBC"/>
		<stop  offset="0.6272" style="stop-color:#CFCECE"/>
		<stop  offset="0.6993" style="stop-color:#E5E3E3"/>
		<stop  offset="0.7682" style="stop-color:#F2F1F1"/>
		<stop  offset="0.8303" style="stop-color:#F7F5F5"/>
		<stop  offset="1" style="stop-color:#AFAEAF"/>
	</linearGradient>
	<polygon class="st1" points="36.5,-11 88.2,8.2 69,59.9 17.3,40.7 	"/>
</g>
<g>
	<defs>
		<path id="SVGID_7_" d="M163.5,37.5l-3.3-3.3c-3.1,4.3-8.1,7.1-13.7,7.1c-9.3,0-16.8-7.5-16.8-16.8c0-9.3,7.6-16.8,16.8-16.8
			c5.7,0,10.7,2.8,13.7,7.1l3.3-3.3c-3.9-5.1-10.1-8.4-17-8.4C134.6,3,125,12.6,125,24.5c0,11.9,9.6,21.5,21.5,21.5
			C153.4,45.9,159.5,42.6,163.5,37.5"/>
	</defs>
	<clipPath id="SVGID_8_">
		<use xlink:href="#SVGID_7_"  style="overflow:visible;"/>
	</clipPath>
	
		<linearGradient id="SVGID_9_" gradientUnits="userSpaceOnUse" x1="-124.1434" y1="69.4934" x2="-123.3622" y2="69.4934" gradientTransform="matrix(253.6871 93.9373 93.9373 -253.6871 24970.1641 29264.0391)">
		<stop  offset="0" style="stop-color:#A2A1A2"/>
		<stop  offset="1.271223e-02" style="stop-color:#A9A8A9"/>
		<stop  offset="8.255100e-02" style="stop-color:#CBCACB"/>
		<stop  offset="0.149" style="stop-color:#E3E2E3"/>
		<stop  offset="0.21" style="stop-color:#F2F1F2"/>
		<stop  offset="0.2606" style="stop-color:#F7F6F7"/>
		<stop  offset="0.2979" style="stop-color:#F1F0F1"/>
		<stop  offset="0.3467" style="stop-color:#E1E0E1"/>
		<stop  offset="0.4016" style="stop-color:#C6C5C6"/>
		<stop  offset="0.4485" style="stop-color:#AAA8AA"/>
		<stop  offset="0.5162" style="stop-color:#B6B5B6"/>
		<stop  offset="0.5818" style="stop-color:#BDBCBC"/>
		<stop  offset="0.6272" style="stop-color:#CFCECE"/>
		<stop  offset="0.6993" style="stop-color:#E5E3E3"/>
		<stop  offset="0.7682" style="stop-color:#F2F1F1"/>
		<stop  offset="0.8303" style="stop-color:#F7F5F5"/>
		<stop  offset="1" style="stop-color:#AFAEAF"/>
	</linearGradient>
	<polygon class="st2" points="129.6,-9.5 177.4,8.2 158.8,58.5 111,40.7 	"/>
</g>
<g>
	<defs>
		<path id="SVGID_10_" d="M152.6,15.7l-14.9,14.9c-1.2-1.7-2-3.9-2-6.2c0-5.9,4.8-10.7,10.7-10.7C148.7,13.7,150.8,14.5,152.6,15.7
			 M159.1,33.1l-3.4-3.4c-1.9,3.2-5.3,5.4-9.3,5.4c-1.9,0-3.8-0.5-5.3-1.4l14.6-14.6c0,0,0,0,0,0l3.4-3.4c0,0,0,0,0,0l0,0l0,0
			c-2.8-4-7.4-6.6-12.6-6.6c-8.5,0-15.4,6.9-15.4,15.4c0,8.5,6.9,15.4,15.4,15.4C151.7,39.8,156.3,37.2,159.1,33.1"/>
	</defs>
	<clipPath id="SVGID_11_">
		<use xlink:href="#SVGID_10_"  style="overflow:visible;"/>
	</clipPath>
	
		<linearGradient id="SVGID_12_" gradientUnits="userSpaceOnUse" x1="-124.1434" y1="69.4945" x2="-123.3622" y2="69.4945" gradientTransform="matrix(253.6871 93.9373 93.9373 -253.6871 24970.1641 29264.0391)">
		<stop  offset="0" style="stop-color:#A2A1A2"/>
		<stop  offset="1.271223e-02" style="stop-color:#A9A8A9"/>
		<stop  offset="8.255100e-02" style="stop-color:#CBCACB"/>
		<stop  offset="0.149" style="stop-color:#E3E2E3"/>
		<stop  offset="0.21" style="stop-color:#F2F1F2"/>
		<stop  offset="0.2606" style="stop-color:#F7F6F7"/>
		<stop  offset="0.2979" style="stop-color:#F1F0F1"/>
		<stop  offset="0.3467" style="stop-color:#E1E0E1"/>
		<stop  offset="0.4016" style="stop-color:#C6C5C6"/>
		<stop  offset="0.4485" style="stop-color:#AAA8AA"/>
		<stop  offset="0.5162" style="stop-color:#B6B5B6"/>
		<stop  offset="0.5818" style="stop-color:#BDBCBC"/>
		<stop  offset="0.6272" style="stop-color:#CFCECE"/>
		<stop  offset="0.6993" style="stop-color:#E5E3E3"/>
		<stop  offset="0.7682" style="stop-color:#F2F1F1"/>
		<stop  offset="0.8303" style="stop-color:#F7F5F5"/>
		<stop  offset="1" style="stop-color:#AFAEAF"/>
	</linearGradient>
	<polygon class="st3" points="134.4,0 169.1,12.8 155.7,48.9 121.1,36.1 	"/>
</g>
<g>
	<defs>
		<path id="SVGID_13_" d="M186.3,18.4c0,2.3-1.9,4.1-4.1,4.1h-6.5v-8.3h6.5C184.4,14.3,186.3,16.2,186.3,18.4 M175.7,45.9V33.6
			l9.7,12.3h6l-14.6-18.5h5.1c5,0,9-4,9-9s-4-9-9-9h-10.8v0v36.5h0H175.7z"/>
	</defs>
	<clipPath id="SVGID_14_">
		<use xlink:href="#SVGID_13_"  style="overflow:visible;"/>
	</clipPath>
	
		<linearGradient id="SVGID_15_" gradientUnits="userSpaceOnUse" x1="-124.1434" y1="69.4933" x2="-123.3622" y2="69.4933" gradientTransform="matrix(253.6871 93.9373 93.9373 -253.6871 24973.5957 29254.7734)">
		<stop  offset="0" style="stop-color:#A2A1A2"/>
		<stop  offset="1.271223e-02" style="stop-color:#A9A8A9"/>
		<stop  offset="8.255100e-02" style="stop-color:#CBCACB"/>
		<stop  offset="0.149" style="stop-color:#E3E2E3"/>
		<stop  offset="0.21" style="stop-color:#F2F1F2"/>
		<stop  offset="0.2606" style="stop-color:#F7F6F7"/>
		<stop  offset="0.2979" style="stop-color:#F1F0F1"/>
		<stop  offset="0.3467" style="stop-color:#E1E0E1"/>
		<stop  offset="0.4016" style="stop-color:#C6C5C6"/>
		<stop  offset="0.4485" style="stop-color:#AAA8AA"/>
		<stop  offset="0.5162" style="stop-color:#B6B5B6"/>
		<stop  offset="0.5818" style="stop-color:#BDBCBC"/>
		<stop  offset="0.6272" style="stop-color:#CFCECE"/>
		<stop  offset="0.6993" style="stop-color:#E5E3E3"/>
		<stop  offset="0.7682" style="stop-color:#F2F1F1"/>
		<stop  offset="0.8303" style="stop-color:#F7F5F5"/>
		<stop  offset="1" style="stop-color:#AFAEAF"/>
	</linearGradient>
	<polygon class="st4" points="173.5,2.8 203.3,13.8 188.9,52.5 159.2,41.5 	"/>
</g>
<g>
	<defs>
		<path id="SVGID_16_" d="M169.6,45.9v-38h12.2c5.8,0,10.5,4.7,10.5,10.5s-4.7,10.5-10.5,10.5h-2.1l13.5,17.1h6l-11.1-14.1
			c5.2-2.4,8.7-7.6,8.7-13.7c0-8.4-6.8-15.1-15.1-15.1c0,0,0,0,0,0v0h-6.1h-3.1H165v42.9h0H169.6z"/>
	</defs>
	<clipPath id="SVGID_17_">
		<use xlink:href="#SVGID_16_"  style="overflow:visible;"/>
	</clipPath>
	
		<linearGradient id="SVGID_18_" gradientUnits="userSpaceOnUse" x1="-124.1434" y1="69.4955" x2="-123.3622" y2="69.4955" gradientTransform="matrix(253.6871 93.9373 93.9373 -253.6871 24974.5391 29252.2227)">
		<stop  offset="0" style="stop-color:#A2A1A2"/>
		<stop  offset="1.271223e-02" style="stop-color:#A9A8A9"/>
		<stop  offset="8.255100e-02" style="stop-color:#CBCACB"/>
		<stop  offset="0.149" style="stop-color:#E3E2E3"/>
		<stop  offset="0.21" style="stop-color:#F2F1F2"/>
		<stop  offset="0.2606" style="stop-color:#F7F6F7"/>
		<stop  offset="0.2979" style="stop-color:#F1F0F1"/>
		<stop  offset="0.3467" style="stop-color:#E1E0E1"/>
		<stop  offset="0.4016" style="stop-color:#C6C5C6"/>
		<stop  offset="0.4485" style="stop-color:#AAA8AA"/>
		<stop  offset="0.5162" style="stop-color:#B6B5B6"/>
		<stop  offset="0.5818" style="stop-color:#BDBCBC"/>
		<stop  offset="0.6272" style="stop-color:#CFCECE"/>
		<stop  offset="0.6993" style="stop-color:#E5E3E3"/>
		<stop  offset="0.7682" style="stop-color:#F2F1F1"/>
		<stop  offset="0.8303" style="stop-color:#F7F5F5"/>
		<stop  offset="1" style="stop-color:#AFAEAF"/>
	</linearGradient>
	<polygon class="st5" points="169.2,-8.1 213.3,8.2 195.2,57.1 151.1,40.7 	"/>
</g>
<g>
	<defs>
		<polygon id="SVGID_19_" points="15.5,45.9 15.5,45.9 15.5,9.1 0,9.1 0,13.6 10.9,13.6 10.9,45.9 		"/>
	</defs>
	<clipPath id="SVGID_20_">
		<use xlink:href="#SVGID_19_"  style="overflow:visible;"/>
	</clipPath>
	
		<linearGradient id="SVGID_21_" gradientUnits="userSpaceOnUse" x1="-124.1434" y1="69.54" x2="-123.3622" y2="69.54" gradientTransform="matrix(253.6871 93.9373 93.9373 -253.6871 24948.3398 29322.9746)">
		<stop  offset="0" style="stop-color:#A2A1A2"/>
		<stop  offset="1.271223e-02" style="stop-color:#A9A8A9"/>
		<stop  offset="8.255100e-02" style="stop-color:#CBCACB"/>
		<stop  offset="0.149" style="stop-color:#E3E2E3"/>
		<stop  offset="0.21" style="stop-color:#F2F1F2"/>
		<stop  offset="0.2606" style="stop-color:#F7F6F7"/>
		<stop  offset="0.2979" style="stop-color:#F1F0F1"/>
		<stop  offset="0.3467" style="stop-color:#E1E0E1"/>
		<stop  offset="0.4016" style="stop-color:#C6C5C6"/>
		<stop  offset="0.4485" style="stop-color:#AAA8AA"/>
		<stop  offset="0.5162" style="stop-color:#B6B5B6"/>
		<stop  offset="0.5818" style="stop-color:#BDBCBC"/>
		<stop  offset="0.6272" style="stop-color:#CFCECE"/>
		<stop  offset="0.6993" style="stop-color:#E5E3E3"/>
		<stop  offset="0.7682" style="stop-color:#F2F1F1"/>
		<stop  offset="0.8303" style="stop-color:#F7F5F5"/>
		<stop  offset="1" style="stop-color:#AFAEAF"/>
	</linearGradient>
	<polygon class="st6" points="1.9,4 27.5,13.5 13.6,51 -12,41.5 	"/>
</g>
<g>
	<defs>
		<polygon id="SVGID_22_" points="32.5,7.6 32.5,7.6 32.5,3 32.5,3 21.6,3 10.9,3 0,3 0,3 0,7.6 		"/>
	</defs>
	<clipPath id="SVGID_23_">
		<use xlink:href="#SVGID_22_"  style="overflow:visible;"/>
	</clipPath>
	
		<linearGradient id="SVGID_24_" gradientUnits="userSpaceOnUse" x1="-124.1434" y1="69.5244" x2="-123.3622" y2="69.5244" gradientTransform="matrix(253.6871 93.9373 93.9373 -253.6871 24958.0586 29296.7285)">
		<stop  offset="0" style="stop-color:#A2A1A2"/>
		<stop  offset="1.271223e-02" style="stop-color:#A9A8A9"/>
		<stop  offset="8.255100e-02" style="stop-color:#CBCACB"/>
		<stop  offset="0.149" style="stop-color:#E3E2E3"/>
		<stop  offset="0.21" style="stop-color:#F2F1F2"/>
		<stop  offset="0.2606" style="stop-color:#F7F6F7"/>
		<stop  offset="0.2979" style="stop-color:#F1F0F1"/>
		<stop  offset="0.3467" style="stop-color:#E1E0E1"/>
		<stop  offset="0.4016" style="stop-color:#C6C5C6"/>
		<stop  offset="0.4485" style="stop-color:#AAA8AA"/>
		<stop  offset="0.5162" style="stop-color:#B6B5B6"/>
		<stop  offset="0.5818" style="stop-color:#BDBCBC"/>
		<stop  offset="0.6272" style="stop-color:#CFCECE"/>
		<stop  offset="0.6993" style="stop-color:#E5E3E3"/>
		<stop  offset="0.7682" style="stop-color:#F2F1F1"/>
		<stop  offset="0.8303" style="stop-color:#F7F5F5"/>
		<stop  offset="1" style="stop-color:#AFAEAF"/>
	</linearGradient>
	<polygon class="st7" points="3.9,-7.6 34,3.6 28.6,18.2 -1.5,7 	"/>
</g>
<g>
	<defs>
		<polygon id="SVGID_25_" points="21.6,45.9 21.6,13.6 32.5,13.6 32.5,9.1 17,9.1 17,45.9 		"/>
	</defs>
	<clipPath id="SVGID_26_">
		<use xlink:href="#SVGID_25_"  style="overflow:visible;"/>
	</clipPath>
	
		<linearGradient id="SVGID_27_" gradientUnits="userSpaceOnUse" x1="-124.1434" y1="69.5429" x2="-123.3622" y2="69.5429" gradientTransform="matrix(253.6871 93.9373 93.9373 -253.6871 24950.1172 29318.1758)">
		<stop  offset="0" style="stop-color:#A2A1A2"/>
		<stop  offset="1.271223e-02" style="stop-color:#A9A8A9"/>
		<stop  offset="8.255100e-02" style="stop-color:#CBCACB"/>
		<stop  offset="0.149" style="stop-color:#E3E2E3"/>
		<stop  offset="0.21" style="stop-color:#F2F1F2"/>
		<stop  offset="0.2606" style="stop-color:#F7F6F7"/>
		<stop  offset="0.2979" style="stop-color:#F1F0F1"/>
		<stop  offset="0.3467" style="stop-color:#E1E0E1"/>
		<stop  offset="0.4016" style="stop-color:#C6C5C6"/>
		<stop  offset="0.4485" style="stop-color:#AAA8AA"/>
		<stop  offset="0.5162" style="stop-color:#B6B5B6"/>
		<stop  offset="0.5818" style="stop-color:#BDBCBC"/>
		<stop  offset="0.6272" style="stop-color:#CFCECE"/>
		<stop  offset="0.6993" style="stop-color:#E5E3E3"/>
		<stop  offset="0.7682" style="stop-color:#F2F1F1"/>
		<stop  offset="0.8303" style="stop-color:#F7F5F5"/>
		<stop  offset="1" style="stop-color:#AFAEAF"/>
	</linearGradient>
	<polygon class="st8" points="18.8,4 44.5,13.5 30.6,51 5,41.5 	"/>
</g>
<g>
	<defs>
		<polygon id="SVGID_28_" points="98.8,0 98.8,0 93.2,0 88.5,21.1 83.9,0 78.2,0 78.2,0 88.6,43 		"/>
	</defs>
	<clipPath id="SVGID_29_">
		<use xlink:href="#SVGID_28_"  style="overflow:visible;"/>
	</clipPath>
	
		<linearGradient id="SVGID_30_" gradientUnits="userSpaceOnUse" x1="-124.1434" y1="69.5056" x2="-123.3622" y2="69.5056" gradientTransform="matrix(253.6871 93.9373 93.9373 -253.6871 24963.2598 29282.6836)">
		<stop  offset="0" style="stop-color:#A2A1A2"/>
		<stop  offset="1.271223e-02" style="stop-color:#A9A8A9"/>
		<stop  offset="8.255100e-02" style="stop-color:#CBCACB"/>
		<stop  offset="0.149" style="stop-color:#E3E2E3"/>
		<stop  offset="0.21" style="stop-color:#F2F1F2"/>
		<stop  offset="0.2606" style="stop-color:#F7F6F7"/>
		<stop  offset="0.2979" style="stop-color:#F1F0F1"/>
		<stop  offset="0.3467" style="stop-color:#E1E0E1"/>
		<stop  offset="0.4016" style="stop-color:#C6C5C6"/>
		<stop  offset="0.4485" style="stop-color:#AAA8AA"/>
		<stop  offset="0.5162" style="stop-color:#B6B5B6"/>
		<stop  offset="0.5818" style="stop-color:#BDBCBC"/>
		<stop  offset="0.6272" style="stop-color:#CFCECE"/>
		<stop  offset="0.6993" style="stop-color:#E5E3E3"/>
		<stop  offset="0.7682" style="stop-color:#F2F1F1"/>
		<stop  offset="0.8303" style="stop-color:#F7F5F5"/>
		<stop  offset="1" style="stop-color:#AFAEAF"/>
	</linearGradient>
	<polygon class="st9" points="80.7,-6.7 112.8,5.2 96.3,49.7 64.2,37.8 	"/>
</g>
<g>
	<defs>
		<polygon id="SVGID_31_" points="121,0 115.4,0 110.7,21.1 106,0 100.4,0 100.4,0 110.7,43 		"/>
	</defs>
	<clipPath id="SVGID_32_">
		<use xlink:href="#SVGID_31_"  style="overflow:visible;"/>
	</clipPath>
	
		<linearGradient id="SVGID_33_" gradientUnits="userSpaceOnUse" x1="-124.1434" y1="69.4977" x2="-123.3622" y2="69.4977" gradientTransform="matrix(253.6871 93.9373 93.9373 -253.6871 24966.6777 29273.4531)">
		<stop  offset="0" style="stop-color:#A2A1A2"/>
		<stop  offset="1.271223e-02" style="stop-color:#A9A8A9"/>
		<stop  offset="8.255100e-02" style="stop-color:#CBCACB"/>
		<stop  offset="0.149" style="stop-color:#E3E2E3"/>
		<stop  offset="0.21" style="stop-color:#F2F1F2"/>
		<stop  offset="0.2606" style="stop-color:#F7F6F7"/>
		<stop  offset="0.2979" style="stop-color:#F1F0F1"/>
		<stop  offset="0.3467" style="stop-color:#E1E0E1"/>
		<stop  offset="0.4016" style="stop-color:#C6C5C6"/>
		<stop  offset="0.4485" style="stop-color:#AAA8AA"/>
		<stop  offset="0.5162" style="stop-color:#B6B5B6"/>
		<stop  offset="0.5818" style="stop-color:#BDBCBC"/>
		<stop  offset="0.6272" style="stop-color:#CFCECE"/>
		<stop  offset="0.6993" style="stop-color:#E5E3E3"/>
		<stop  offset="0.7682" style="stop-color:#F2F1F1"/>
		<stop  offset="0.8303" style="stop-color:#F7F5F5"/>
		<stop  offset="1" style="stop-color:#AFAEAF"/>
	</linearGradient>
	<polygon class="st10" points="102.8,-6.7 135,5.2 118.5,49.7 86.3,37.8 	"/>
</g>
<g>
	<defs>
		<polygon id="SVGID_34_" points="94.9,45.9 99.6,27.8 104.3,45.9 109.9,45.9 99.6,3 89.3,45.9 89.3,45.9 		"/>
	</defs>
	<clipPath id="SVGID_35_">
		<use xlink:href="#SVGID_34_"  style="overflow:visible;"/>
	</clipPath>
	
		<linearGradient id="SVGID_36_" gradientUnits="userSpaceOnUse" x1="-124.1434" y1="69.5215" x2="-123.3622" y2="69.5215" gradientTransform="matrix(253.6871 93.9373 93.9373 -253.6871 24962.1523 29285.6738)">
		<stop  offset="0" style="stop-color:#A2A1A2"/>
		<stop  offset="1.271223e-02" style="stop-color:#A9A8A9"/>
		<stop  offset="8.255100e-02" style="stop-color:#CBCACB"/>
		<stop  offset="0.149" style="stop-color:#E3E2E3"/>
		<stop  offset="0.21" style="stop-color:#F2F1F2"/>
		<stop  offset="0.2606" style="stop-color:#F7F6F7"/>
		<stop  offset="0.2979" style="stop-color:#F1F0F1"/>
		<stop  offset="0.3467" style="stop-color:#E1E0E1"/>
		<stop  offset="0.4016" style="stop-color:#C6C5C6"/>
		<stop  offset="0.4485" style="stop-color:#AAA8AA"/>
		<stop  offset="0.5162" style="stop-color:#B6B5B6"/>
		<stop  offset="0.5818" style="stop-color:#BDBCBC"/>
		<stop  offset="0.6272" style="stop-color:#CFCECE"/>
		<stop  offset="0.6993" style="stop-color:#E5E3E3"/>
		<stop  offset="0.7682" style="stop-color:#F2F1F1"/>
		<stop  offset="0.8303" style="stop-color:#F7F5F5"/>
		<stop  offset="1" style="stop-color:#AFAEAF"/>
	</linearGradient>
	<polygon class="st11" points="91.8,-3.8 123.9,8.1 107.4,52.6 75.3,40.7 	"/>
</g>
<g>
	<defs>
		<polygon id="SVGID_37_" points="82.1,45.9 87.8,45.9 87.8,45.9 76.7,0 71.1,0 82.1,45.9 82.1,45.9 		"/>
	</defs>
	<clipPath id="SVGID_38_">
		<use xlink:href="#SVGID_37_"  style="overflow:visible;"/>
	</clipPath>
	
		<linearGradient id="SVGID_39_" gradientUnits="userSpaceOnUse" x1="-124.1434" y1="69.5189" x2="-123.3622" y2="69.5189" gradientTransform="matrix(253.6871 93.9373 93.9373 -253.6871 24960.4453 29290.2852)">
		<stop  offset="0" style="stop-color:#A2A1A2"/>
		<stop  offset="1.271223e-02" style="stop-color:#A9A8A9"/>
		<stop  offset="8.255100e-02" style="stop-color:#CBCACB"/>
		<stop  offset="0.149" style="stop-color:#E3E2E3"/>
		<stop  offset="0.21" style="stop-color:#F2F1F2"/>
		<stop  offset="0.2606" style="stop-color:#F7F6F7"/>
		<stop  offset="0.2979" style="stop-color:#F1F0F1"/>
		<stop  offset="0.3467" style="stop-color:#E1E0E1"/>
		<stop  offset="0.4016" style="stop-color:#C6C5C6"/>
		<stop  offset="0.4485" style="stop-color:#AAA8AA"/>
		<stop  offset="0.5162" style="stop-color:#B6B5B6"/>
		<stop  offset="0.5818" style="stop-color:#BDBCBC"/>
		<stop  offset="0.6272" style="stop-color:#CFCECE"/>
		<stop  offset="0.6993" style="stop-color:#E5E3E3"/>
		<stop  offset="0.7682" style="stop-color:#F2F1F1"/>
		<stop  offset="0.8303" style="stop-color:#F7F5F5"/>
		<stop  offset="1" style="stop-color:#AFAEAF"/>
	</linearGradient>
	<polygon class="st12" points="73.1,-5.4 102.7,5.5 85.8,51.4 56.1,40.4 	"/>
</g>
<g>
	<defs>
		<polygon id="SVGID_40_" points="117.1,45.9 117.1,45.9 117.1,45.9 128.2,0 122.5,0 111.5,45.9 111.5,45.9 		"/>
	</defs>
	<clipPath id="SVGID_41_">
		<use xlink:href="#SVGID_40_"  style="overflow:visible;"/>
	</clipPath>
	
		<linearGradient id="SVGID_42_" gradientUnits="userSpaceOnUse" x1="-124.1434" y1="69.5043" x2="-123.3622" y2="69.5043" gradientTransform="matrix(253.6871 93.9373 93.9373 -253.6871 24966.6836 29273.4375)">
		<stop  offset="0" style="stop-color:#A2A1A2"/>
		<stop  offset="1.271223e-02" style="stop-color:#A9A8A9"/>
		<stop  offset="8.255100e-02" style="stop-color:#CBCACB"/>
		<stop  offset="0.149" style="stop-color:#E3E2E3"/>
		<stop  offset="0.21" style="stop-color:#F2F1F2"/>
		<stop  offset="0.2606" style="stop-color:#F7F6F7"/>
		<stop  offset="0.2979" style="stop-color:#F1F0F1"/>
		<stop  offset="0.3467" style="stop-color:#E1E0E1"/>
		<stop  offset="0.4016" style="stop-color:#C6C5C6"/>
		<stop  offset="0.4485" style="stop-color:#AAA8AA"/>
		<stop  offset="0.5162" style="stop-color:#B6B5B6"/>
		<stop  offset="0.5818" style="stop-color:#BDBCBC"/>
		<stop  offset="0.6272" style="stop-color:#CFCECE"/>
		<stop  offset="0.6993" style="stop-color:#E5E3E3"/>
		<stop  offset="0.7682" style="stop-color:#F2F1F1"/>
		<stop  offset="0.8303" style="stop-color:#F7F5F5"/>
		<stop  offset="1" style="stop-color:#AFAEAF"/>
	</linearGradient>
	<polygon class="st13" points="113.5,-5.4 143.1,5.5 126.2,51.4 96.5,40.4 	"/>
</g>
<g>
	<defs>
		<path id="SVGID_43_" d="M195.4,4.3c0.1,0.1,0.1,0.1,0.1,0.3c0,0.1,0,0.2-0.1,0.3c-0.1,0.1-0.2,0.1-0.4,0.1h-0.4V4.2h0.4
			C195.2,4.2,195.3,4.2,195.4,4.3 M194.6,5.9V5.2h0.5l0.5,0.7h0.4l-0.5-0.7c0.3-0.1,0.4-0.3,0.4-0.6c0-0.2-0.1-0.4-0.2-0.5
			c-0.1-0.1-0.4-0.2-0.7-0.2h-0.8v2.1H194.6z M196.1,3.7c0.3,0.3,0.5,0.7,0.5,1.2c0,0.5-0.2,0.9-0.5,1.2c-0.3,0.3-0.7,0.5-1.2,0.5
			c-0.5,0-0.9-0.2-1.2-0.5c-0.3-0.3-0.5-0.7-0.5-1.2c0-0.5,0.2-0.9,0.5-1.2c0.3-0.3,0.7-0.5,1.2-0.5S195.8,3.4,196.1,3.7 M196.3,6.3
			c0.4-0.4,0.6-0.8,0.6-1.3c0-0.5-0.2-1-0.6-1.3c-0.4-0.4-0.8-0.6-1.4-0.6c-0.5,0-1,0.2-1.3,0.6c-0.4,0.4-0.6,0.8-0.6,1.3
			c0,0.5,0.2,1,0.6,1.3c0.4,0.4,0.8,0.6,1.3,0.6C195.5,6.8,195.9,6.6,196.3,6.3"/>
	</defs>
	<clipPath id="SVGID_44_">
		<use xlink:href="#SVGID_43_"  style="overflow:visible;"/>
	</clipPath>
	
		<linearGradient id="SVGID_45_" gradientUnits="userSpaceOnUse" x1="-124.1434" y1="69.4598" x2="-123.3622" y2="69.4598" gradientTransform="matrix(253.6871 93.9373 93.9373 -253.6871 24985.8008 29221.8105)">
		<stop  offset="0" style="stop-color:#A2A1A2"/>
		<stop  offset="1.271223e-02" style="stop-color:#A9A8A9"/>
		<stop  offset="8.255100e-02" style="stop-color:#CBCACB"/>
		<stop  offset="0.149" style="stop-color:#E3E2E3"/>
		<stop  offset="0.21" style="stop-color:#F2F1F2"/>
		<stop  offset="0.2606" style="stop-color:#F7F6F7"/>
		<stop  offset="0.2979" style="stop-color:#F1F0F1"/>
		<stop  offset="0.3467" style="stop-color:#E1E0E1"/>
		<stop  offset="0.4016" style="stop-color:#C6C5C6"/>
		<stop  offset="0.4485" style="stop-color:#AAA8AA"/>
		<stop  offset="0.5162" style="stop-color:#B6B5B6"/>
		<stop  offset="0.5818" style="stop-color:#BDBCBC"/>
		<stop  offset="0.6272" style="stop-color:#CFCECE"/>
		<stop  offset="0.6993" style="stop-color:#E5E3E3"/>
		<stop  offset="0.7682" style="stop-color:#F2F1F1"/>
		<stop  offset="0.8303" style="stop-color:#F7F5F5"/>
		<stop  offset="1" style="stop-color:#AFAEAF"/>
	</linearGradient>
	<polygon class="st14" points="193.5,1.8 198.1,3.5 196.4,8.1 191.8,6.4 	"/>
</g>
<g>
	<defs>
		<rect id="SVGID_46_" width="199.3" height="65.5"/>
	</defs>
	<clipPath id="SVGID_47_">
		<use xlink:href="#SVGID_46_"  style="overflow:visible;"/>
	</clipPath>
	<path class="st15" d="M154.8,64c-0.1,0.3-0.3,0.5-0.4,0.7c-0.1,0.2-0.3,0.3-0.5,0.4c-0.2,0.1-0.3,0.1-0.5,0.1h-0.1
		c0-0.1-0.1-0.1-0.1-0.2c0-0.1-0.1-0.2-0.1-0.3c0-0.1-0.1-0.1-0.2-0.2c-0.1-0.1-0.2-0.1-0.3-0.1c-0.1,0-0.2,0-0.3,0.1
		c-0.1,0.1-0.1,0.2-0.1,0.3c0,0.1,0,0.1,0,0.2c0,0.1,0.1,0.1,0.2,0.2c0.1,0.1,0.2,0.1,0.3,0.1c0.1,0,0.3,0,0.6,0
		c0.3,0,0.6,0,0.9-0.1c0.3-0.1,0.5-0.3,0.7-0.5c0.2-0.2,0.4-0.5,0.6-0.8c0.2-0.3,0.3-0.8,0.4-1.2l0.7-3.3l0-0.1l-0.7,0.1l-0.7,3.1
		c-0.2,0.2-0.4,0.3-0.5,0.4c-0.2,0.1-0.4,0.2-0.6,0.2c-0.2,0-0.3-0.1-0.4-0.2c-0.1-0.1-0.1-0.3-0.1-0.4c0-0.1,0-0.1,0-0.2
		c0-0.1,0-0.2,0.1-0.3l0.4-1.5c0-0.1,0-0.2,0.1-0.3c0-0.1,0-0.2,0-0.2c0-0.2-0.1-0.4-0.2-0.5c-0.1-0.1-0.3-0.2-0.5-0.2
		c-0.1,0-0.2,0-0.4,0.1c-0.2,0.1-0.4,0.1-0.6,0.2l-0.1,0.3c0.1,0,0.1,0,0.2-0.1c0.1,0,0.2,0,0.2,0c0.2,0,0.3,0,0.3,0.1
		c0.1,0.1,0.1,0.2,0.1,0.3c0,0.1,0,0.2,0,0.3c0,0.1,0,0.2-0.1,0.3l-0.3,1.3c0,0.2-0.1,0.3-0.1,0.4c0,0.1,0,0.2,0,0.2
		c0,0.3,0.1,0.5,0.2,0.6c0.2,0.2,0.4,0.2,0.6,0.2c0.3,0,0.6-0.1,0.8-0.2c0.2-0.1,0.5-0.3,0.7-0.5h0C155.1,63.4,155,63.7,154.8,64
		 M150.8,63.6c0.2-0.1,0.4-0.1,0.6-0.2l0.1-0.3c-0.1,0-0.2,0.1-0.3,0.1c-0.1,0-0.2,0-0.3,0c-0.2,0-0.3,0-0.4-0.1
		c-0.1-0.1-0.1-0.2-0.1-0.3c0-0.1,0-0.2,0-0.3c0-0.1,0-0.2,0.1-0.3l0.5-2.3h1.2l0.1-0.4H151l0.3-1.2h-0.8l-0.3,1.2h-0.8l-0.1,0.4
		h0.7l-0.7,2.8c0,0.1,0,0.1,0,0.2c0,0.1,0,0.1,0,0.2c0,0.2,0.1,0.4,0.2,0.5c0.1,0.1,0.3,0.2,0.6,0.2
		C150.4,63.7,150.6,63.7,150.8,63.6 M148.9,57.4c-0.1-0.1-0.2-0.2-0.4-0.2c-0.1,0-0.3,0.1-0.4,0.2c-0.1,0.1-0.2,0.2-0.2,0.4
		c0,0.1,0,0.3,0.2,0.4c0.1,0.1,0.2,0.2,0.4,0.2c0.2,0,0.3-0.1,0.4-0.2c0.1-0.1,0.2-0.3,0.2-0.4C149.1,57.6,149,57.5,148.9,57.4
		 M148.5,63.2c-0.1,0-0.2,0-0.2,0c-0.2,0-0.3,0-0.3-0.1c-0.1-0.1-0.1-0.2-0.1-0.3c0-0.1,0-0.2,0-0.3c0-0.1,0-0.2,0.1-0.3l0.4-1.8
		c0-0.1,0-0.2,0.1-0.3c0-0.1,0-0.2,0-0.2c0-0.2-0.1-0.3-0.2-0.4c-0.1-0.1-0.3-0.2-0.5-0.2c-0.1,0-0.2,0-0.4,0.1
		c-0.2,0-0.4,0.1-0.6,0.2l-0.1,0.3c0.1,0,0.1,0,0.2,0c0.1,0,0.2,0,0.2,0c0.2,0,0.3,0,0.3,0.1c0.1,0.1,0.1,0.2,0.1,0.3
		c0,0.1,0,0.2,0,0.3c0,0.1,0,0.2-0.1,0.3l-0.4,1.8c0,0.1,0,0.2-0.1,0.3c0,0.1,0,0.1,0,0.2c0,0.2,0.1,0.3,0.2,0.4
		c0.1,0.1,0.3,0.2,0.5,0.2c0.1,0,0.2,0,0.4-0.1c0.2,0,0.4-0.1,0.6-0.2l0.1-0.3C148.7,63.2,148.6,63.2,148.5,63.2 M146.6,57.1
		l-1.6,0.1l-0.1,0.3c0.1,0,0.2,0,0.3,0c0.1,0,0.2,0,0.2,0c0.1,0,0.1,0.1,0.1,0.1c0,0.1,0.1,0.1,0.1,0.2c0,0.1,0,0.1,0,0.1
		c0,0,0,0.1,0,0.2l-1,4.4c0,0.1,0,0.2-0.1,0.3c0,0.1,0,0.1,0,0.2c0,0.2,0.1,0.3,0.2,0.4c0.1,0.1,0.3,0.2,0.5,0.2
		c0.2,0,0.3,0,0.5-0.1c0.1,0,0.3-0.1,0.6-0.2l0.1-0.3c-0.1,0-0.1,0-0.2,0c-0.1,0-0.2,0-0.2,0c-0.2,0-0.3,0-0.3-0.1
		c-0.1-0.1-0.1-0.2-0.1-0.3c0-0.1,0-0.2,0-0.3c0-0.1,0-0.2,0.1-0.3L146.6,57.1L146.6,57.1z M142.3,62.7c-0.2,0.2-0.4,0.4-0.6,0.5
		c-0.2,0.1-0.3,0.1-0.5,0.1c-0.2,0-0.3,0-0.4-0.1c-0.1-0.1-0.2-0.1-0.2-0.2c-0.1-0.1-0.1-0.2-0.1-0.4c0-0.1,0-0.3,0-0.5
		c0-0.3,0-0.6,0.1-0.9c0.1-0.3,0.2-0.6,0.4-0.8c0.2-0.2,0.3-0.4,0.5-0.5c0.2-0.1,0.4-0.2,0.6-0.2c0.1,0,0.3,0,0.4,0.1
		c0.1,0,0.2,0.1,0.2,0.2c0.1,0.1,0.1,0.2,0.1,0.2c0,0.1,0,0.2,0,0.3L142.3,62.7z M142.4,63.5c0.1,0.1,0.3,0.2,0.5,0.2
		c0.2,0,0.3,0,0.4-0.1c0.1,0,0.3-0.1,0.6-0.2l0.1-0.3c-0.1,0-0.1,0-0.2,0.1c-0.1,0-0.2,0-0.2,0c-0.2,0-0.3,0-0.3-0.1
		c-0.1-0.1-0.1-0.2-0.1-0.3c0-0.1,0-0.1,0-0.3c0-0.1,0-0.2,0.1-0.3l0.6-2.7l-0.1-0.1l-0.8,0.2c-0.1-0.1-0.2-0.1-0.4-0.2
		c-0.2-0.1-0.4-0.1-0.6-0.1c-0.3,0-0.6,0.1-0.9,0.2c-0.3,0.2-0.6,0.4-0.8,0.6c-0.2,0.3-0.4,0.6-0.5,0.9c-0.1,0.3-0.2,0.7-0.2,1
		c0,0.5,0.1,0.9,0.3,1.2s0.5,0.4,1,0.4c0.2,0,0.3,0,0.4-0.1c0.1-0.1,0.2-0.1,0.4-0.2c0.1-0.1,0.2-0.1,0.3-0.2
		c0.1-0.1,0.2-0.1,0.2-0.2h0C142.2,63.2,142.3,63.4,142.4,63.5 M137.5,63.5c0.1,0.1,0.3,0.2,0.5,0.2c0.1,0,0.3,0,0.4-0.1
		c0.2,0,0.3-0.1,0.6-0.2l0.1-0.3c-0.1,0-0.1,0-0.2,0.1c-0.1,0-0.2,0-0.2,0c-0.2,0-0.3,0-0.3-0.1c-0.1-0.1-0.1-0.2-0.1-0.3
		c0,0,0-0.1,0-0.2c0-0.1,0-0.2,0.1-0.3l0.6-2.7l-0.1-0.1l-0.7,0.1l-0.7,3.2c-0.2,0.2-0.4,0.3-0.6,0.4c-0.2,0.1-0.4,0.1-0.6,0.1
		c-0.2,0-0.3-0.1-0.4-0.2c-0.1-0.1-0.1-0.3-0.1-0.4c0-0.1,0-0.1,0-0.2c0-0.1,0-0.2,0.1-0.3l0.4-1.6c0-0.1,0-0.2,0-0.3
		c0-0.1,0-0.2,0-0.2c0-0.2-0.1-0.3-0.2-0.4c-0.1-0.1-0.3-0.2-0.5-0.2c-0.1,0-0.2,0-0.4,0.1c-0.2,0.1-0.4,0.1-0.6,0.2l-0.1,0.3
		c0.1,0,0.1,0,0.2-0.1c0.1,0,0.2,0,0.2,0c0.2,0,0.3,0,0.3,0.1c0.1,0.1,0.1,0.2,0.1,0.3c0,0.1,0,0.2,0,0.3c0,0.1,0,0.2-0.1,0.3
		l-0.3,1.3c0,0.2-0.1,0.3-0.1,0.4c0,0.1,0,0.2,0,0.2c0,0.3,0.1,0.5,0.2,0.6c0.1,0.2,0.4,0.2,0.6,0.2c0.2,0,0.3,0,0.4,0
		c0.1,0,0.2-0.1,0.4-0.1c0.1-0.1,0.2-0.1,0.3-0.2c0.1-0.1,0.2-0.2,0.4-0.3h0C137.4,63.2,137.4,63.3,137.5,63.5 M132.7,62.6
		c-0.2,0.2-0.4,0.3-0.6,0.5c-0.2,0.1-0.4,0.2-0.6,0.2c-0.2,0-0.3,0-0.4-0.1c-0.1-0.1-0.2-0.1-0.2-0.2c-0.1-0.1-0.1-0.2-0.1-0.4
		c0-0.1,0-0.3,0-0.5c0-0.3,0-0.6,0.1-0.9c0.1-0.3,0.2-0.6,0.4-0.8c0.2-0.2,0.3-0.4,0.5-0.5c0.2-0.1,0.4-0.2,0.6-0.2
		c0.1,0,0.3,0,0.4,0.1c0.1,0,0.2,0.1,0.2,0.2c0.1,0.1,0.1,0.2,0.1,0.2c0,0.1,0,0.2,0,0.3L132.7,62.6z M132.2,64.7
		c0,0.1-0.1,0.2-0.1,0.3c-0.1,0.1-0.1,0.1-0.2,0.1c-0.1,0-0.2,0-0.2,0c-0.1,0-0.2,0-0.3,0l-0.1,0.3h2.3l0.1-0.3c-0.1,0-0.1,0-0.2,0
		c-0.1,0-0.2,0-0.2-0.1c-0.1,0-0.1-0.1-0.2-0.1c-0.1,0-0.1-0.1-0.1-0.2c0,0,0-0.1,0-0.2c0-0.1,0-0.1,0-0.2l1.1-5l0-0.1l-0.8,0.2
		c-0.1-0.1-0.2-0.1-0.4-0.2c-0.2-0.1-0.4-0.1-0.6-0.1c-0.3,0-0.6,0.1-0.9,0.2c-0.3,0.2-0.6,0.4-0.8,0.6c-0.2,0.3-0.4,0.6-0.5,0.9
		c-0.1,0.3-0.2,0.7-0.2,1c0,0.5,0.1,0.9,0.3,1.2c0.2,0.3,0.5,0.4,1,0.4c0.2,0,0.3,0,0.4-0.1c0.1-0.1,0.3-0.1,0.4-0.2
		c0.1-0.1,0.2-0.2,0.3-0.2c0.1-0.1,0.1-0.1,0.2-0.2h0L132.2,64.7z M127.9,59.9l0.1-0.4h-1.1l0.1-0.4c0.1-0.6,0.3-1,0.4-1.2
		c0.1-0.2,0.3-0.4,0.5-0.4c0.1,0.1,0.1,0.1,0.1,0.2c0,0.1,0.1,0.1,0.1,0.2c0.1,0.1,0.1,0.1,0.2,0.1c0.1,0,0.1,0.1,0.2,0.1
		c0.1,0,0.3,0,0.3-0.1c0.1-0.1,0.1-0.2,0.1-0.3c0-0.1-0.1-0.3-0.2-0.4c-0.1-0.1-0.3-0.1-0.5-0.1c-0.2,0-0.4,0.1-0.7,0.2
		c-0.2,0.1-0.4,0.2-0.6,0.4c-0.2,0.2-0.3,0.4-0.5,0.7c-0.1,0.3-0.3,0.5-0.3,0.9l-0.1,0.3h-0.8l-0.1,0.4h0.8l-0.8,3.6
		c-0.1,0.5-0.2,0.9-0.4,1.2c-0.2,0.3-0.3,0.4-0.5,0.4c0-0.1-0.1-0.1-0.1-0.2c0-0.1-0.1-0.1-0.1-0.2c-0.1-0.1-0.1-0.1-0.2-0.1
		c-0.1,0-0.1-0.1-0.2-0.1c-0.1,0-0.2,0-0.3,0.1c-0.1,0.1-0.1,0.2-0.1,0.3c0,0.1,0.1,0.3,0.2,0.4c0.1,0.1,0.3,0.1,0.5,0.1
		c0.4,0,0.9-0.2,1.3-0.6c0.4-0.4,0.7-0.9,0.8-1.5l0.7-3.5H127.9z M123.7,61.8c-0.1,0.3-0.2,0.6-0.3,0.8c-0.1,0.2-0.3,0.4-0.5,0.6
		c-0.2,0.2-0.4,0.2-0.7,0.2c-0.3,0-0.5-0.1-0.6-0.3c-0.1-0.2-0.2-0.5-0.2-0.9c0-0.2,0-0.5,0.1-0.8c0.1-0.3,0.1-0.6,0.3-0.8
		c0.1-0.3,0.3-0.6,0.5-0.7c0.2-0.1,0.4-0.2,0.7-0.2c0.3,0,0.5,0.1,0.6,0.3c0.1,0.2,0.2,0.5,0.2,0.9
		C123.8,61.2,123.7,61.5,123.7,61.8 M124.2,59.8c-0.3-0.3-0.7-0.5-1.2-0.5c-0.4,0-0.7,0.1-1,0.2c-0.3,0.1-0.6,0.3-0.8,0.6
		c-0.2,0.2-0.4,0.5-0.5,0.8c-0.1,0.3-0.2,0.7-0.2,1c0,0.5,0.1,0.9,0.4,1.2c0.3,0.3,0.7,0.4,1.1,0.4c0.4,0,0.7-0.1,1.1-0.2
		c0.3-0.2,0.6-0.4,0.8-0.6c0.2-0.2,0.4-0.5,0.5-0.9c0.1-0.3,0.2-0.7,0.2-1C124.6,60.5,124.5,60.1,124.2,59.8"/>
	<path class="st16" d="M116.3,59.3l0.5-1.1c-0.6-0.4-1.4-0.7-2.3-0.7c-1.4,0-2.3,0.7-2.3,1.8c0,2.1,3.2,1.5,3.2,2.6
		c0,0.4-0.3,0.6-0.9,0.6c-0.6,0-1.5-0.3-2.1-0.9l-0.5,1.1c0.7,0.6,1.7,1,2.7,1c1.3,0,2.3-0.6,2.3-1.8c0-2.2-3.2-1.5-3.2-2.7
		c0-0.3,0.3-0.5,0.8-0.5C115,58.7,115.7,58.9,116.3,59.3 M106.6,58.7h1.3c0.7,0,1.2,0.3,1.2,1c0,0.7-0.4,1-1.2,1h-1.3V58.7z
		 M110.5,63.6l-1.3-2c0.7-0.3,1.1-1,1.1-1.9c0-1.3-0.9-2.1-2.5-2.1h-2.6v6h1.4v-1.7h1.3h0.1l1,1.7H110.5z M99.5,61.3l1-2.3l0.9,2.3
		H99.5z M102.3,63.6h1.4l-2.6-6h-1.4l-2.6,6h1.4l0.5-1.2h2.8L102.3,63.6z M91,57.6v6h4.7v-1.1h-3.3v-1.3h2.9V60h-2.9v-1.3h3.2v-1.1
		H91z M89.5,57.6h-1.4l-1.5,2.7l-1.5-2.7h-1.4l2.2,4.1v1.9h1.4v-1.9L89.5,57.6z M76.5,58.5c0.7,0,1,0.6,1,2c0,1.4-0.3,2-1,2
		c-0.7,0-1-0.6-1-2C75.4,59.2,75.8,58.5,76.5,58.5 M76.5,57.5c-1.5,0-2.3,1.1-2.3,3c0,2,0.8,3,2.3,3c1.5,0,2.3-1.1,2.3-3
		C78.8,58.6,77.9,57.5,76.5,57.5 M70.1,58.5c0.7,0,1,0.6,1,2c0,1.4-0.3,2-1,2c-0.7,0-1-0.6-1-2C69.1,59.2,69.4,58.5,70.1,58.5
		 M70.1,57.5c-1.5,0-2.3,1.1-2.3,3c0,2,0.8,3,2.3,3c1.5,0,2.3-1.1,2.3-3C72.4,58.6,71.6,57.5,70.1,57.5 M62.6,57.6v1.1h1.2v4.9h1.4
		v-6H62.6z"/>
	<path class="st15" d="M59.7,59.7c0-0.1-0.1-0.1-0.1-0.2c-0.1-0.1-0.1-0.1-0.2-0.1c-0.1,0-0.2,0-0.3,0c-0.2,0-0.4,0.1-0.5,0.2
		c-0.2,0.1-0.4,0.3-0.8,0.6h0c0-0.2,0-0.4-0.1-0.5c-0.1-0.1-0.3-0.2-0.5-0.2c-0.1,0-0.3,0-0.4,0.1c-0.2,0-0.4,0.1-0.6,0.2L56,60
		c0.1,0,0.1,0,0.2-0.1c0.1,0,0.2,0,0.2,0c0.2,0,0.3,0,0.3,0.1c0.1,0.1,0.1,0.2,0.1,0.3c0,0.1,0,0.2,0,0.3c0,0.1,0,0.2-0.1,0.3
		l-0.6,2.7H57l0.7-3c0.2-0.2,0.3-0.3,0.4-0.4c0.1-0.1,0.3-0.2,0.4-0.2c0.1-0.1,0.2-0.1,0.3-0.1c0.1,0,0.1,0,0.2,0
		c0,0.1-0.1,0.2-0.1,0.3c0,0.1-0.1,0.2-0.1,0.3c0,0.1,0,0.2,0.1,0.3c0.1,0.1,0.2,0.1,0.3,0.1c0.1,0,0.2,0,0.3-0.1
		c0.1,0,0.1-0.1,0.2-0.2c0-0.1,0.1-0.1,0.1-0.2c0-0.1,0-0.2,0-0.3C59.7,59.9,59.7,59.8,59.7,59.7 M54.6,60.8
		c-0.1,0.2-0.3,0.3-0.5,0.5c-0.2,0.1-0.4,0.2-0.6,0.2c-0.2,0.1-0.5,0.1-0.7,0.1c0.1-0.5,0.3-1,0.5-1.4c0.3-0.4,0.6-0.6,0.9-0.6
		c0.1,0,0.1,0,0.2,0c0.1,0,0.1,0,0.2,0.1c0,0,0.1,0.1,0.1,0.1c0,0.1,0,0.1,0,0.3C54.8,60.4,54.7,60.6,54.6,60.8 M55.2,59.6
		c-0.2-0.2-0.5-0.2-0.9-0.2c-0.4,0-0.7,0.1-1,0.2c-0.3,0.2-0.6,0.4-0.8,0.6c-0.2,0.3-0.4,0.6-0.5,0.9c-0.1,0.3-0.2,0.7-0.2,1
		c0,0.5,0.1,0.9,0.4,1.2c0.3,0.3,0.6,0.4,1.1,0.4c0.4,0,0.7-0.1,1-0.3c0.3-0.2,0.6-0.5,0.8-0.8l-0.2-0.2c-0.2,0.3-0.4,0.5-0.6,0.6
		c-0.2,0.1-0.5,0.2-0.7,0.2c-0.3,0-0.6-0.1-0.7-0.3c-0.2-0.2-0.2-0.6-0.2-1c0.3,0,0.6-0.1,0.9-0.1c0.3-0.1,0.5-0.1,0.8-0.2
		c0.4-0.1,0.6-0.3,0.8-0.5c0.2-0.2,0.3-0.5,0.3-0.8C55.5,60,55.4,59.8,55.2,59.6 M51.3,59.6c-0.1-0.1-0.2-0.2-0.4-0.2
		c-0.1,0-0.2,0-0.3,0.1c-0.1,0.1-0.2,0.2-0.2,0.4c0,0.1,0,0.2,0.1,0.3c0,0.1,0.1,0.2,0.2,0.2c0.1,0.1,0.1,0.1,0.2,0.2
		c0,0.1,0.1,0.2,0.1,0.4c0,0.3,0,0.6-0.1,0.9c-0.1,0.3-0.2,0.5-0.4,0.7c-0.2,0.2-0.3,0.3-0.5,0.5c-0.2,0.1-0.4,0.2-0.6,0.2
		c-0.1,0-0.2,0-0.2,0c-0.1,0-0.2-0.1-0.2-0.1c-0.1-0.1-0.1-0.1-0.2-0.2c0-0.1-0.1-0.2-0.1-0.4c0,0,0-0.1,0-0.2c0-0.1,0-0.2,0.1-0.3
		l0.4-1.6c0-0.1,0-0.2,0.1-0.3c0-0.1,0-0.1,0-0.2c0-0.2-0.1-0.3-0.2-0.4c-0.1-0.1-0.3-0.2-0.5-0.2c-0.1,0-0.2,0-0.4,0.1
		c-0.2,0.1-0.4,0.1-0.6,0.2L47.3,60c0.1,0,0.1,0,0.2-0.1c0.1,0,0.2,0,0.2,0c0.2,0,0.3,0,0.3,0.1c0.1,0.1,0.1,0.2,0.1,0.3
		c0,0.1,0,0.2,0,0.3c0,0.1,0,0.2-0.1,0.3l-0.4,1.3c0,0,0,0.1,0,0.2c0,0.1,0,0.2,0,0.2c0,0.3,0.1,0.6,0.3,0.8
		c0.2,0.2,0.5,0.3,0.9,0.3c0.4,0,0.7-0.1,1-0.3c0.3-0.2,0.6-0.5,0.8-0.8c0.2-0.3,0.4-0.7,0.5-1.1c0.1-0.4,0.2-0.9,0.2-1.3
		C51.4,59.9,51.4,59.7,51.3,59.6 M46,61.8c-0.1,0.3-0.2,0.6-0.3,0.8c-0.1,0.2-0.3,0.4-0.5,0.6c-0.2,0.2-0.4,0.2-0.7,0.2
		c-0.3,0-0.5-0.1-0.6-0.3c-0.1-0.2-0.2-0.5-0.2-0.9c0-0.2,0-0.5,0.1-0.8c0.1-0.3,0.1-0.6,0.3-0.8c0.1-0.3,0.3-0.6,0.5-0.7
		c0.2-0.1,0.4-0.2,0.7-0.2c0.3,0,0.5,0.1,0.6,0.3c0.1,0.2,0.2,0.5,0.2,0.9C46.1,61.2,46,61.5,46,61.8 M46.5,59.8
		c-0.3-0.3-0.7-0.5-1.2-0.5c-0.4,0-0.7,0.1-1,0.2c-0.3,0.1-0.6,0.3-0.8,0.6c-0.2,0.2-0.4,0.5-0.5,0.8c-0.1,0.3-0.2,0.7-0.2,1
		c0,0.5,0.1,0.9,0.4,1.2c0.3,0.3,0.7,0.4,1.1,0.4c0.4,0,0.7-0.1,1.1-0.2c0.3-0.2,0.6-0.4,0.8-0.6c0.2-0.2,0.4-0.5,0.5-0.9
		c0.1-0.3,0.2-0.7,0.2-1C46.9,60.5,46.8,60.1,46.5,59.8"/>
</g>
</svg>
