<?xml version="1.0" encoding="utf-8"?>
<!-- Generator: Adobe Illustrator 19.2.0, SVG Export Plug-In . SVG Version: 6.00 Build 0)  -->
<svg version="1.0" id="Layer_1" xmlns="http://www.w3.org/2000/svg" xmlns:xlink="http://www.w3.org/1999/xlink" x="0px" y="0px"
	 viewBox="0 0 100.3 47.4" style="enable-background:new 0 0 100.3 47.4;" xml:space="preserve">
<style type="text/css">
	.st0{fill:#545455;}
</style>
<g>
	<g>
		<path class="st0" d="M33.1,14.5c-0.2-1-0.3-1.7-1.4-2.2h7.1c-0.7,0.3-1,0.6-1,1.2c0,0.2,0,0.3,0.1,0.6l2.2,12.5l5.4-14.3h3.2
			l5,14.5l2.2-12.7c0-0.3,0.1-0.5,0.1-0.6c0-0.6-0.3-0.9-1-1.2h5.6c-1.1,0.5-1.2,1.2-1.4,2.2l-3.4,18h-4.5l-4.8-13.9l-5.2,13.9h-4.6
			L33.1,14.5z"/>
		<path class="st0" d="M66.9,32.9c-4,0-6.8-2.9-6.8-5.9c0-2.5,1.4-4.3,4-5.2c2.2-0.8,5.4-1.4,9.4-3v-0.2c0-2.4-1.3-3.4-4.3-3.4
			c-3.4,0-5.6,0.9-7.2,3.2v-4.6c1.8-1.2,4.7-2,8.3-2c6.5,0,7.9,2.7,8,9v5.7c0,2.3,0.1,4.2,1.1,5.9h-4.6c-0.6-0.8-0.8-2-0.9-3.7
			C73.1,31.1,70.2,32.9,66.9,32.9 M65.1,26.4c0,1.6,1.5,3,3.5,3c2.6,0,5-2.8,5-7.3v-0.6C67.9,23.5,65.1,23.9,65.1,26.4"/>
		<path class="st0" d="M82.3,30.1v-0.4V14.9v-0.4c0-1.1-0.1-1.8-1.4-2.2h6.3L87,16.6c1.9-3.2,4-4.8,6.8-4.8c1.4,0,2.8,0.6,3.7,1.7
			c1.3,1.5,1.4,3.1,1.4,5.2v11.1v0.4c0,1.2,0.1,1.7,1.4,2.2h-7.6c1.3-0.5,1.4-1.1,1.4-2.2v-0.4V19.4c0-2.5-0.6-3.7-2.2-3.7
			c-1.5,0-3.3,1.4-4.8,4.2v9.9v0.4c0,1.2,0.1,1.7,1.4,2.2h-7.6C82.2,31.9,82.3,31.2,82.3,30.1"/>
		<path class="st0" d="M1.2,9.1c0.3,0.7,2.9,3.1,3.8,3.6c1.1,0.6,4.3,2.1,8,2.9c4.2,1,9,1.9,10.6,3.5c1.4,1.4,1.1,3.4,0.1,4.5
			c-0.1-0.9-0.8-1.9-2.4-2.4c-2-0.7-10.6-1.9-14.3-3.6C1.2,15.1,1.4,11.7,1.2,9.1"/>
		<path class="st0" d="M0,14.2c0.5,0.9,2.4,3.4,5.6,5c3.1,1.6,8.5,2.5,10.7,2.8c2.1,0.3,4.5,0.6,5.2,1.4c1.3,1.4,0.1,2-0.5,2.9
			c0-0.3-0.4-0.6-1.1-0.6c-3.6,0-10.6-0.5-14.6-2.9C2.2,20.9,0.2,17.9,0,14.2"/>
		<path class="st0" d="M3.6,22.9c1.6,2.4,8,6.4,14.2,6.1c3.6-0.2,7.3-2.5,8.3-5c0.9-2.3,0.6-5.2-1.8-6.9c-3.4-2.5-10.9-2.1-15-5.6
			C5.8,8.6,7,4.4,8.5,2.8c2.4-2.5,6.4-3.2,9.9-2.6c2.5,0.4,5,1.7,5.6,2c0.7,0.3,1.1,0.5,1.5,1.2c0.3,0.8,0.7,1.9,1,2.1
			c0.2,0.3,0.3,0.6,0,0.7S25.8,6.1,25.8,6c-0.1-0.1-0.5-0.4-0.7-0.2C24.8,6,24.8,6.4,25,6.7C25.1,7,25.4,7.6,25.3,8
			c-0.2,0.5-0.4,0.5-0.9,0.3s-1.2-0.9-1.5-1.4c-0.3-0.6-2.6-3.1-4.8-3.6c-2.5-0.5-5.3,0-6.4,0.9c-0.9,0.7-1.6,2.3-0.6,3.8
			c0.5,0.7,1.4,1.4,3.9,1.9c4,0.8,9.2,1.3,12.6,3.7c3.7,2.6,4.2,7.2,2.9,11.2c-2.3,7.2-11.7,8.5-16.6,7.6
			C4.5,30.6,3.5,23.9,3.6,22.9"/>
		<path class="st0" d="M26.5,8.6c0.4-0.2,0.7,0,0.8,0.3c0.1,0.2,0.6,1.1,0.8,1.3c0.3,0.2,1.2,1,1.4,1.2c0.2,0.2,0.7,0.5,0.8,0.7
			c-0.1,0.2-2.2-0.4-3-1.2s-1-1.1-1.1-1.4C26.2,9.2,26,8.9,26.5,8.6"/>
		<path class="st0" d="M19.2,38v7.1h-0.7v-0.6l0,0c-0.2,0.5-0.8,0.7-1.6,0.7c-0.8,0-1.3-0.2-1.6-0.6c-0.3-0.4-0.4-1.1-0.4-2.1
			c0-0.9,0.1-1.6,0.4-1.9s0.8-0.5,1.5-0.5c0.9,0,1.4,0.2,1.6,0.7l0,0V38H19.2z M17,40.7c-0.5,0-0.9,0.1-1.1,0.4
			c-0.2,0.2-0.3,0.8-0.3,1.5c0,0.8,0.1,1.4,0.3,1.6c0.2,0.3,0.5,0.4,1.1,0.4s1-0.1,1.2-0.4c0.2-0.3,0.3-0.8,0.3-1.7
			c0-0.7-0.1-1.2-0.3-1.4C17.9,40.8,17.5,40.7,17,40.7"/>
		<path class="st0" d="M24.3,43.6H25v0.2c0,0.5-0.2,0.9-0.5,1.1c-0.3,0.2-0.9,0.3-1.7,0.3c-0.9,0-1.5-0.2-1.8-0.5s-0.4-1-0.4-2.1
			c0-1,0.1-1.7,0.4-2s0.9-0.5,1.7-0.5c0.9,0,1.5,0.1,1.8,0.4c0.3,0.3,0.4,0.9,0.4,1.9v0.4h-3.6c0,0.8,0.1,1.3,0.3,1.5
			c0.2,0.2,0.6,0.3,1.2,0.3s1-0.1,1.1-0.2c0.2-0.1,0.3-0.3,0.3-0.7v-0.1H24.3z M24.3,42.2V42c0-0.5-0.1-0.9-0.3-1
			c-0.2-0.2-0.6-0.2-1.1-0.2c-0.6,0-1,0.1-1.1,0.3c-0.2,0.2-0.3,0.6-0.3,1.2L24.3,42.2L24.3,42.2z"/>
		<path class="st0" d="M30.5,41.5h-0.7c0-0.3-0.1-0.6-0.2-0.6c-0.1-0.1-0.5-0.1-1.1-0.1c-0.5,0-0.9,0-1,0.1s-0.2,0.3-0.2,0.6
			c0,0.5,0.2,0.8,0.7,0.8h0.6h0.7c0.9,0,1.4,0.5,1.4,1.4c0,0.6-0.1,0.9-0.4,1.2c-0.3,0.2-0.8,0.3-1.6,0.3c-0.8,0-1.4-0.1-1.7-0.3
			c-0.3-0.2-0.5-0.6-0.5-1.1v-0.3h0.8v0.2c0,0.3,0.1,0.5,0.2,0.7c0.2,0.1,0.5,0.2,1,0.2c0.6,0,1-0.1,1.2-0.2
			c0.2-0.1,0.3-0.4,0.3-0.7c0-0.5-0.2-0.8-0.7-0.8c-1.1,0-1.8-0.1-2.2-0.3c-0.3-0.2-0.5-0.6-0.5-1.2c0-0.6,0.1-0.9,0.4-1.1
			c0.3-0.2,0.8-0.3,1.6-0.3c1.3,0,2,0.4,2,1.2L30.5,41.5L30.5,41.5z"/>
		<path class="st0" d="M32.8,38.8h-0.7V38h0.7V38.8z M32.8,45.1h-0.7v-5h0.7V45.1z"/>
		<path class="st0" d="M38.7,40.2v5.3c0,0.7-0.2,1.2-0.5,1.5s-0.9,0.4-1.7,0.4c-0.7,0-1.3-0.1-1.5-0.3c-0.3-0.2-0.4-0.7-0.4-1.3h0.7
			c0,0.4,0.1,0.7,0.2,0.8c0.2,0.1,0.5,0.2,1,0.2c0.6,0,0.9-0.1,1.1-0.2c0.2-0.2,0.3-0.5,0.3-1v-1l0,0c-0.2,0.5-0.7,0.7-1.6,0.7
			c-0.7,0-1.2-0.2-1.5-0.5c-0.3-0.4-0.4-1-0.4-2s0.1-1.7,0.4-2c0.3-0.4,0.8-0.5,1.6-0.5s1.3,0.2,1.6,0.7l0,0v-0.7h0.7V40.2z
			 M36.5,40.7c-0.6,0-0.9,0.1-1.1,0.4c-0.2,0.2-0.3,0.8-0.3,1.6s0.1,1.4,0.3,1.6c0.2,0.2,0.5,0.4,1.1,0.4s1-0.1,1.1-0.4
			c0.2-0.3,0.3-0.8,0.3-1.7c0-0.8-0.1-1.2-0.3-1.5C37.5,40.8,37.1,40.7,36.5,40.7"/>
		<path class="st0" d="M40.4,40.2h0.7v0.7l0,0c0.2-0.5,0.8-0.8,1.7-0.8c0.7,0,1.2,0.1,1.4,0.4c0.3,0.2,0.4,0.7,0.4,1.4v3.2h-0.7V42
			v-0.2c0-0.4-0.1-0.7-0.2-0.9c-0.2-0.1-0.5-0.2-0.9-0.2c-1,0-1.5,0.5-1.5,1.5v3h-0.7v-5H40.4z"/>
		<path class="st0" d="M49.8,43.6h0.7v0.2c0,0.5-0.2,0.9-0.5,1.1c-0.3,0.2-0.9,0.3-1.7,0.3c-0.9,0-1.5-0.2-1.8-0.5s-0.4-1-0.4-2.1
			c0-1,0.1-1.7,0.4-2c0.3-0.3,0.9-0.5,1.7-0.5c0.9,0,1.5,0.1,1.8,0.4c0.3,0.3,0.4,0.9,0.4,1.9v0.4H47c0,0.8,0.1,1.3,0.3,1.5
			s0.6,0.3,1.2,0.3c0.6,0,1-0.1,1.1-0.2c0.2-0.1,0.3-0.3,0.3-0.7L49.8,43.6L49.8,43.6z M49.8,42.2V42c0-0.5-0.1-0.9-0.3-1
			c-0.2-0.2-0.6-0.2-1.1-0.2c-0.6,0-1,0.1-1.1,0.3c-0.2,0.2-0.3,0.6-0.3,1.2L49.8,42.2L49.8,42.2z"/>
		<path class="st0" d="M56.3,38v7.1h-0.7v-0.6l0,0c-0.2,0.5-0.8,0.7-1.6,0.7s-1.3-0.2-1.6-0.6c-0.3-0.4-0.4-1.1-0.4-2.1
			c0-0.9,0.1-1.6,0.4-1.9s0.8-0.5,1.5-0.5c0.9,0,1.4,0.2,1.6,0.7l0,0V38H56.3z M54.1,40.7c-0.5,0-0.9,0.1-1.1,0.4
			c-0.2,0.2-0.3,0.8-0.3,1.5c0,0.8,0.1,1.4,0.3,1.6c0.2,0.3,0.5,0.4,1.1,0.4s1-0.1,1.2-0.4c0.2-0.3,0.3-0.8,0.3-1.7
			c0-0.7-0.1-1.2-0.3-1.4C55,40.8,54.6,40.7,54.1,40.7"/>
		<path class="st0" d="M61.2,45.1v-4.4h-0.8v-0.6h0.8v-0.7c0-1,0.5-1.5,1.5-1.5c0.1,0,0.3,0,0.5,0v0.6c-0.2,0-0.4,0-0.5,0
			c-0.5,0-0.8,0.3-0.8,0.8v0.8h1.3v0.6H62v4.4C62,45.1,61.2,45.1,61.2,45.1z"/>
		<path class="st0" d="M66.3,40.1c0.9,0,1.5,0.2,1.8,0.5s0.4,1,0.4,2.1s-0.1,1.8-0.4,2.1s-0.9,0.5-1.8,0.5s-1.5-0.2-1.8-0.5
			s-0.4-1-0.4-2.1s0.1-1.8,0.4-2.1C64.8,40.2,65.4,40.1,66.3,40.1 M66.3,40.7c-0.6,0-1,0.1-1.2,0.3s-0.2,0.8-0.2,1.6
			c0,0.9,0.1,1.4,0.2,1.6c0.2,0.2,0.6,0.3,1.2,0.3s1.1-0.1,1.2-0.3c0.2-0.2,0.2-0.8,0.2-1.6c0-0.9-0.1-1.4-0.2-1.6
			C67.4,40.8,67,40.7,66.3,40.7"/>
		<path class="st0" d="M70.2,40.2h0.7l-0.1,0.6l0,0c0.3-0.5,0.8-0.7,1.4-0.7c0.9,0,1.4,0.5,1.4,1.4v0.3h-0.7v-0.1c0-0.1,0-0.2,0-0.3
			c0-0.5-0.3-0.8-0.8-0.8c-0.8,0-1.2,0.5-1.2,1.5v3h-0.7C70.2,45.1,70.2,40.2,70.2,40.2z"/>
		<rect x="77.9" y="38" class="st0" width="0.7" height="7.1"/>
		<path class="st0" d="M81,38.8h-0.7V38H81V38.8z M81,45.1h-0.7v-5H81V45.1z"/>
		<path class="st0" d="M82.9,45.1v-4.4h-0.8v-0.6h0.8v-0.7c0-1,0.5-1.5,1.5-1.5c0.1,0,0.3,0,0.5,0v0.6c-0.2,0-0.4,0-0.5,0
			c-0.5,0-0.8,0.3-0.8,0.8v0.8h1.3v0.6h-1.3v4.4C83.6,45.1,82.9,45.1,82.9,45.1z"/>
		<path class="st0" d="M89.4,43.6h0.7v0.2c0,0.5-0.2,0.9-0.5,1.1c-0.3,0.2-0.9,0.3-1.7,0.3c-0.9,0-1.5-0.2-1.8-0.5s-0.4-1-0.4-2.1
			c0-1,0.1-1.7,0.4-2s0.9-0.5,1.7-0.5c0.9,0,1.5,0.1,1.8,0.4c0.3,0.3,0.4,0.9,0.4,1.9v0.4h-3.6c0,0.8,0.1,1.3,0.3,1.5
			c0.2,0.2,0.6,0.3,1.2,0.3s1-0.1,1.1-0.2c0.2-0.1,0.3-0.3,0.3-0.7L89.4,43.6L89.4,43.6z M89.4,42.2V42c0-0.5-0.1-0.9-0.3-1
			c-0.2-0.2-0.6-0.2-1.1-0.2c-0.6,0-1,0.1-1.1,0.3c-0.2,0.2-0.3,0.6-0.3,1.2L89.4,42.2L89.4,42.2z"/>
	</g>
</g>
</svg>
