<?xml version="1.0" encoding="utf-8"?>
<!-- Generator: Adobe Illustrator 19.2.0, SVG Export Plug-In . SVG Version: 6.00 Build 0)  -->
<svg version="1.0" id="Layer_1" xmlns="http://www.w3.org/2000/svg" xmlns:xlink="http://www.w3.org/1999/xlink" x="0px" y="0px"
	 viewBox="0 0 87.8 47.4" style="enable-background:new 0 0 87.8 47.4;" xml:space="preserve">
<style type="text/css">
	.st0{fill:#545455;}
</style>
<g>
	<g>
		<path class="st0" d="M16.6,8.3l-0.1-0.1l0,0c-0.2-0.1-0.7-0.5-1.7-0.5s-2.3,0.8-2.6,2.6L9.1,28c-0.6,3.2-1.7,4.8-3.4,4.8
			c-0.8,0-1.4-0.2-1.7-0.7c-0.4-0.5-0.6-1.4-0.4-2.5c0.2-1.3,0.7-2.1,0.7-2.1c0-0.1,0-0.1,0-0.2c-0.1-0.4-0.5-1.1-1.5-1.1
			c-1.4,0-2.4,1.1-2.7,3.2c-0.3,1.5,0,2.9,0.8,3.8c0.9,1.1,2.5,1.7,4.5,1.7c4.3,0,7.2-3.2,8.3-9.2l3-17.2
			C16.6,8.5,16.6,8.4,16.6,8.3z"/>
		<path class="st0" d="M37.2,37.9c-0.1,0-0.1,0-0.2,0c0,0-0.5,0.3-1.5,0.3c-5.1,0-6.3-4.2-7.5-8.6c-1.1-3.9-2.2-7.9-6.1-8.9
			c3.5-0.9,7.6-3.7,8.4-8.1c0.5-2.7,0.1-4.9-1.3-6.5c-1.8-2.2-5.2-3.2-10.5-3.2c-5.8,0-13,3.5-13.8,8.2c-0.1,0.7,0,1.4,0.4,1.8
			c0.3,0.4,0.8,0.6,1.3,0.6c1.1,0,1.4-0.5,1.5-0.6c0-0.1,0.1-0.1,0-0.2c0,0-0.1-0.6,0-1.3c0.7-3.8,6.4-6.1,10.2-6.1
			c3.3,0,5.7,0.8,6.9,2.3c1,1.2,1.3,2.8,1,4.9c-0.6,3.3-3.9,6.8-8.8,6.8c-0.5,0-1.3,0.3-1.4,1.2c-0.1,0.5,0,0.8,0.2,1.1
			c0.2,0.2,0.5,0.4,0.9,0.4c4.6,0,5.7,3.7,7.1,8.1c1.5,4.9,3.2,10.4,10.8,10.4c1.8,0,3-0.6,3.2-1.5c0.1-0.3,0-0.6-0.1-0.7
			C37.6,37.9,37.3,37.9,37.2,37.9z"/>
		<path class="st0" d="M86.3,16.6c-1.2-1.4-3-2.2-5.2-2.2c-4.9,0-8.6,3.5-9.6,9.1c-0.5,2.9,0,5.3,1.4,7c1.2,1.4,3.1,2.2,5.3,2.2
			c3.8,0,8.3-2.9,9.4-9.2C88.1,20.7,87.6,18.3,86.3,16.6z M75.9,22.4c1.1,2.6,3.5,4.7,6.3,5.4c-0.8,2.1-1.9,2.9-3.8,2.9
			c-1.1,0-1.8-0.3-2.3-0.9c-0.8-1-1-3-0.4-6.3C75.8,23.2,75.9,22.8,75.9,22.4z M78.1,18.3c0.2-1.3,1.5-1.8,2.7-1.8
			c1.1,0,1.9,0.3,2.3,0.8c0.8,0.9,0.8,2.7,0.2,6.2c-0.1,0.8-0.3,1.6-0.5,2.2C79.7,24.7,77.5,21.4,78.1,18.3z"/>
		<path class="st0" d="M71,16.3c-0.7-0.9-1.9-1.3-3.5-1.3c-2.1,0-4,1.3-5.7,3.8l0.3-1.6c0.2-1.1-0.1-1.7-0.4-2.1
			c-0.3-0.4-0.9-0.6-1.5-0.6c-1.2,0-1.8,0.6-1.8,0.6l-0.1,0.1L56,28.1c-1,1.8-2.4,2.6-4.3,2.6c-1,0-1.8-0.4-2.4-1
			c-0.6-0.8-0.9-1.8-0.6-3.1l1.7-9.6h6.5c0.1,0,0.2-0.1,0.3-0.2c0.1-0.6,0.1-1-0.2-1.3c-0.2-0.3-0.6-0.4-1.2-0.4h-5l1-5.5
			c0-0.1,0-0.1,0-0.2c0-0.1-0.4-0.7-1.6-0.7c-1.1,0-2.4,0.7-2.7,2.6L45,25.6c-0.1,0.5-0.1,1-0.2,1.4c-1.5,2.5-4,3.7-6.3,3.7
			c-1.4,0-2.5-0.4-3.2-1.1c-0.7-0.8-1.1-1.9-1.1-3.4c5-0.1,9.2-3,9.9-7c0.2-1.3,0-2.6-0.7-3.4c-0.7-0.9-1.9-1.3-3.5-1.3
			c-4.9,0-8.7,3.7-9.7,9.4c-0.5,2.7-0.1,4.8,1.2,6.4c1.4,1.6,3.8,2.5,6.9,2.5c3.1,0,5.4-1.3,7-3c0.2,0.4,0.4,0.8,0.7,1.1
			c1.1,1.3,2.9,1.9,5.2,1.9c1.8,0,3.4-0.5,4.6-1.5c0.1,0.4,0.2,0.7,0.4,0.8c0.3,0.4,0.9,0.6,1.5,0.6c1.2,0,1.8-0.6,1.8-0.6l0.1-0.1
			l1.1-6.2c0.4-2.5,3.6-8.8,6.1-8.8c0.5,0,0.9,0.2,1.3,0.6c0.4,0.5,0.6,1.3,0.5,2.2c-0.1,0.8-0.5,1.4-0.5,1.4c0,0.1,0,0.1,0,0.2
			s0.2,0.7,1.3,0.7c1,0,2.3-0.9,2.5-2.4C72,18.4,71.7,17.1,71,16.3z M40.6,19.3c-0.6,3.4-4,4.5-6.3,4.8c1-5.5,2.3-7.7,4.6-7.7
			c0.6,0,1.1,0.2,1.4,0.5C40.7,17.5,40.8,18.3,40.6,19.3z"/>
	</g>
</g>
</svg>
