<?xml version="1.0" encoding="utf-8"?>
<!-- Generator: Adobe Illustrator 19.2.0, SVG Export Plug-In . SVG Version: 6.00 Build 0)  -->
<svg version="1.1" id="Layer_1" xmlns="http://www.w3.org/2000/svg" xmlns:xlink="http://www.w3.org/1999/xlink" x="0px" y="0px"
	 viewBox="0 0 561.5 560" style="enable-background:new 0 0 561.5 560;" xml:space="preserve">
<style type="text/css">
	.st0{fill:#FFFFFF;}
</style>
<path class="st0" d="M281.6,0C126.9,0,1.6,125.3,1.6,280s125.3,280,280,280s280-125.3,280-280S436.2,0,281.6,0z M284.1,158.6
	c5.3-4.9,11.7-7.4,19.1-7.4s13.7,2.5,19,7.4s7.9,10.9,7.9,17.8c0,7-2.6,12.9-7.9,17.8c-5.3,4.9-11.6,7.3-19,7.3s-13.8-2.4-19.1-7.3
	c-5.3-4.9-8-10.8-8-17.8C276.2,169.5,278.8,163.6,284.1,158.6z M230.1,256c-0.9,3.5-2.3,6.4-4.1,8.8c-2.3,2.9-4.8,5.2-7.5,6.7
	c-2.7,1.6-6.7,2.3-12.1,2.3c-7.1,0-12.7-1.8-16.7-5.3s-6-7.2-6-11c0-4.6,1-9.1,2.9-13.6s4.3-9.2,7.3-14.1c-0.8-1-2.5-2.2-5-3.7
	s-5.8-2.2-9.8-2.2c-10.7,0-19.6,6.5-26.6,19.4c-7,12.9-10.6,29-10.6,48.1c0,14.5,2.7,25.6,8,33.1c5.4,7.5,13,11.3,22.8,11.3
	c10.1,0,18.5-1.9,25.2-5.8s13.6-10.5,20.6-20l9.9,8.4c-7.5,11.6-17.4,20.9-29.8,28c-12.3,7-25.4,10.6-39.1,10.6
	c-21,0-37.4-5.3-49.2-15.8s-17.6-25-17.6-43.4c0-11.1,1.9-21.6,5.6-31.5s9.5-19,17.3-27.1c7.2-7.7,16.5-13.9,27.9-18.8
	c11.3-4.8,24-7.3,38-7.3c16.2,0,28.6,3,37.1,8.9c8.6,5.9,12.8,14.1,12.8,24.6C231.4,249.3,231,252.5,230.1,256z M305.3,353.2
	c-5.5,1.7-11.7,2.8-18.8,2.8c-11,0-19.5-2.7-25.6-8c-6.1-5.4-9.1-12.1-9.1-20.4c0-3.2,0.2-6.5,0.7-9.8s1.2-7.1,2.2-11.3l11.3-40.1
	c1-3.8,1.9-7.5,2.5-10.9c0.7-3.4,1-6.6,1-9.4c0-5.1-1.1-8.7-3.2-10.7s-6.1-3-12.1-3c-2.9,0-5.9,0.5-9,1.4c-2.5,0.7-7.4,2.4-10.4,3.4
	c-1-3.4-2.6-6.5-4.8-9.3c8-3.2,25.1-9.5,31.6-11.6c6.8-2.1,13.2-3.2,19.2-3.2c10.9,0,19.3,2.6,25.2,7.9c5.9,5.3,8.9,12.1,8.9,20.5
	c0,1.7-0.2,4.8-0.6,9.2s-1.2,8.4-2.3,12.1l-11.3,39.9c-0.9,3.2-1.7,6.9-2.5,11c-0.7,4.1-1.1,7.2-1.1,9.3c0,5.3,1.2,8.9,3.6,10.8
	s6.5,2.9,12.3,2.9c2.7,0,5.8-0.5,9.3-1.4c5.8-1.6,9.8-3.6,10.4-3.9l0,0c0.1,0,0.1,0,0,0l6.9,9.5
	C330.7,345.5,314.2,350.5,305.3,353.2z M466.5,256c-0.9,3.5-2.3,6.4-4.1,8.8c-2.3,2.9-4.8,5.2-7.5,6.7c-2.7,1.6-6.7,2.3-12.1,2.3
	c-7.1,0-12.7-1.8-16.7-5.3s-6-7.2-6-11c0-4.6,1-9.1,2.9-13.6s4.3-9.2,7.3-14.1c-0.8-1-2.5-2.2-5-3.7s-5.8-2.2-9.8-2.2
	c-10.7,0-19.6,6.5-26.6,19.4c-7,12.9-10.6,29-10.6,48.1c0,14.5,2.7,25.6,8,33.1c5.4,7.5,13,11.3,22.8,11.3c10.1,0,18.5-1.9,25.2-5.8
	s13.6-10.5,20.6-20l9.9,8.4c-7.5,11.6-17.4,20.9-29.8,28c-12.3,7-25.4,10.6-39.1,10.6c-21,0-37.4-5.3-49.2-15.8
	c-11.8-10.5-17.6-25-17.6-43.4c0-11.1,1.9-21.6,5.6-31.5s9.5-19,17.3-27.1c7.2-7.7,16.5-13.9,27.9-18.8c11.3-4.8,24-7.3,38-7.3
	c16.2,0,28.6,3,37.1,8.9c8.6,5.9,12.8,14.1,12.8,24.6C467.9,249.3,467.4,252.5,466.5,256z"/>
</svg>
