<?xml version="1.0" encoding="utf-8"?>
<!-- Generator: Adobe Illustrator 19.2.0, SVG Export Plug-In . SVG Version: 6.00 Build 0)  -->
<svg version="1.1" id="Layer_1" xmlns="http://www.w3.org/2000/svg" xmlns:xlink="http://www.w3.org/1999/xlink" x="0px" y="0px"
	 viewBox="0 0 561.5 560" style="enable-background:new 0 0 561.5 560;" xml:space="preserve">
<style type="text/css">
	.st0{fill:#2D85AB;}
</style>
<path class="st0" d="M280.8,0C126.6,0,1.7,124.9,1.7,279.1s124.9,279.1,279.1,279.1s279.1-124.9,279.1-279.1S434.9,0,280.8,0z
	 M283.3,158.1c5.3-4.9,11.6-7.4,19-7.4s13.7,2.5,18.9,7.4c5.2,4.9,7.9,10.9,7.9,17.8c0,6.9-2.6,12.8-7.9,17.7
	c-5.2,4.9-11.6,7.3-18.9,7.3c-7.4,0-13.7-2.4-19-7.3c-5.3-4.9-7.9-10.8-7.9-17.7C275.4,169,278,163.1,283.3,158.1z M229.4,255.2
	c-0.9,3.5-2.3,6.4-4.1,8.8c-2.3,2.9-4.8,5.2-7.5,6.7c-2.7,1.6-6.7,2.3-12.1,2.3c-7.1,0-12.7-1.8-16.6-5.3c-4-3.5-5.9-7.2-5.9-11
	c0-4.6,1-9.1,2.9-13.5c1.9-4.5,4.3-9.2,7.2-14.1c-0.8-1-2.5-2.2-5-3.7s-5.8-2.2-9.8-2.2c-10.7,0-19.5,6.5-26.5,19.4
	s-10.5,28.9-10.5,47.9c0,14.5,2.7,25.5,8,33s12.9,11.2,22.8,11.2c10,0,18.4-1.9,25.1-5.8c6.7-3.9,13.6-10.5,20.6-19.9l9.8,8.3
	c-7.5,11.6-17.4,20.9-29.7,27.9s-25.3,10.5-39,10.5c-21,0-37.3-5.2-49-15.7s-17.6-24.9-17.6-43.2c0-11,1.9-21.5,5.6-31.4
	s9.5-18.9,17.2-27c7.2-7.7,16.5-13.9,27.8-18.7s23.9-7.2,37.9-7.2c16.1,0,28.5,3,37,8.9s12.8,14.1,12.8,24.5
	C230.8,248.6,230.3,251.7,229.4,255.2z M304.5,352.1c-5.5,1.7-11.6,2.8-18.7,2.8c-10.9,0-19.4-2.7-25.5-8s-9.1-12.1-9.1-20.3
	c0-3.2,0.2-6.4,0.7-9.8c0.5-3.3,1.2-7.1,2.2-11.3l11.3-39.9c1-3.8,1.9-7.5,2.5-10.9c0.7-3.4,1-6.5,1-9.4c0-5.1-1.1-8.7-3.2-10.7
	s-6.1-3-12.1-3c-2.9,0-5.9,0.5-9,1.4c-2.5,0.7-7.4,2.3-10.4,3.4c-1-3.4-2.6-6.5-4.8-9.3c7.9-3.2,25-9.5,31.5-11.5
	c6.8-2.1,13.1-3.2,19.2-3.2c10.9,0,19.2,2.6,25.1,7.9c5.9,5.2,8.8,12.1,8.8,20.4c0,1.7-0.2,4.8-0.6,9.2s-1.2,8.4-2.3,12L300,301.7
	c-0.9,3.2-1.7,6.8-2.5,10.9c-0.7,4.1-1.1,7.2-1.1,9.3c0,5.3,1.2,8.9,3.5,10.8c2.4,1.9,6.5,2.9,12.3,2.9c2.7,0,5.8-0.5,9.3-1.4
	c5.8-1.6,9.8-3.6,10.3-3.9l0,0c0.1,0,0.1,0,0,0l6.9,9.5C329.8,344.5,313.3,349.4,304.5,352.1z M465.1,255.2
	c-0.9,3.5-2.3,6.4-4.1,8.8c-2.3,2.9-4.8,5.2-7.5,6.7c-2.7,1.6-6.7,2.3-12.1,2.3c-7.1,0-12.7-1.8-16.6-5.3c-4-3.5-5.9-7.2-5.9-11
	c0-4.6,1-9.1,2.9-13.5c1.9-4.5,4.3-9.2,7.2-14.1c-0.8-1-2.5-2.2-5-3.7s-5.8-2.2-9.8-2.2c-10.7,0-19.5,6.5-26.5,19.4
	s-10.5,28.9-10.5,47.9c0,14.5,2.7,25.5,8,33s12.9,11.2,22.8,11.2c10,0,18.4-1.9,25.1-5.8s13.6-10.5,20.6-19.9l9.8,8.3
	c-7.5,11.6-17.4,20.9-29.7,27.9c-12.3,7-25.3,10.5-39,10.5c-21,0-37.3-5.2-49-15.7s-17.6-24.9-17.6-43.2c0-11,1.9-21.5,5.6-31.4
	s9.5-18.9,17.2-27c7.2-7.7,16.5-13.9,27.8-18.7s23.9-7.2,37.9-7.2c16.1,0,28.5,3,37,8.9s12.8,14.1,12.8,24.5
	C466.5,248.6,466,251.7,465.1,255.2z"/>
</svg>
