<?xml version="1.0" encoding="utf-8"?>
<!-- Generator: Adobe Illustrator 19.2.0, SVG Export Plug-In . SVG Version: 6.00 Build 0)  -->
<svg version="1.0" id="Layer_1" xmlns="http://www.w3.org/2000/svg" xmlns:xlink="http://www.w3.org/1999/xlink" x="0px" y="0px"
	 viewBox="0 0 1530.4 1058.5" style="enable-background:new 0 0 1530.4 1058.5;" xml:space="preserve">
<style type="text/css">
	.st0{clip-path:url(#SVGID_2_);fill:url(#SVGID_3_);}
	.st1{clip-path:url(#SVGID_5_);fill:url(#SVGID_6_);}
	.st2{clip-path:url(#SVGID_8_);fill:url(#SVGID_9_);}
	.st3{clip-path:url(#SVGID_11_);fill:url(#SVGID_12_);}
	.st4{clip-path:url(#SVGID_14_);fill:url(#SVGID_15_);}
	.st5{clip-path:url(#SVGID_17_);fill:url(#SVGID_18_);}
	.st6{clip-path:url(#SVGID_20_);fill:url(#SVGID_21_);}
	.st7{clip-path:url(#SVGID_23_);fill:url(#SVGID_24_);}
</style>
<g>
	<defs>
		<path id="SVGID_1_" d="M81.3,15.9c-15.8,6.4-30,15.7-42.2,27.6C26.8,55.4,17.1,69.7,10.3,85.9C3.5,102.1,0,119.8,0,138.4
			c0,18.6,3.5,36.3,10.3,52.5c6.8,16.2,16.5,30.5,28.9,42.4c12.3,11.9,26.6,21.2,42.5,27.6c15.9,6.4,33,9.7,50.8,9.7
			c16.9,0,32.9-2.9,47.7-8.6c14.7-5.7,27.6-13.1,38.4-22.2c10.8-9,19.4-19,25.6-29.6l4.4-7.5h-22.6l-1.5,2.1
			c-3.8,5.3-9.6,11.6-17.3,18.8c-7.6,7-18,13.5-30.9,19.3c-12.8,5.7-27.5,8.6-43.7,8.6c-20.4,0-39.5-4.9-56.7-14.7
			c-17.1-9.7-30.9-23.4-40.9-40.7c-10-17.2-15.1-36.7-15.1-57.9c0-21.1,5.1-40.5,15.1-57.8c10-17.3,23.7-31,40.9-40.8
			c17-9.7,35.8-14.6,56-14.6h0.6c15.7,0,30,2.9,42.5,8.6c12.6,5.8,23,12.3,30.8,19.4c7.9,7.3,14.2,14,18.7,20.1l1.5,2h23.3l-4.9-7.7
			c-6.7-10.4-15.6-20.4-26.3-29.7c-10.8-9.3-23.5-17-37.9-22.8c-14.4-5.8-30.5-8.8-47.7-8.8C114.3,6.3,97,9.5,81.3,15.9"/>
	</defs>
	<clipPath id="SVGID_2_">
		<use xlink:href="#SVGID_1_"  style="overflow:visible;"/>
	</clipPath>
	
		<linearGradient id="SVGID_3_" gradientUnits="userSpaceOnUse" x1="-132.4213" y1="1143.7976" x2="-131.4205" y2="1143.7976" gradientTransform="matrix(-1531.3959 0 0 1531.3959 -201256.7344 -1751468.625)">
		<stop  offset="0" style="stop-color:#E3C783"/>
		<stop  offset="5.618000e-03" style="stop-color:#E3C783"/>
		<stop  offset="0.1854" style="stop-color:#E9D590"/>
		<stop  offset="0.4101" style="stop-color:#F5EFE2"/>
		<stop  offset="0.7303" style="stop-color:#B38225"/>
		<stop  offset="0.9335" style="stop-color:#DEBF81"/>
		<stop  offset="0.9494" style="stop-color:#E2C488"/>
		<stop  offset="1" style="stop-color:#E2C488"/>
	</linearGradient>
	<rect y="6.3" class="st0" width="249.2" height="264.4"/>
</g>
<g>
	<defs>
		<path id="SVGID_4_" d="M490.4,10.5v255.8h20V29.5h41.1c11.9,0,21.1,0.2,27.6,0.6c6.3,0.4,12.1,1.2,17.4,2.5
			c5.1,1.3,9.8,3.3,14.1,6c5.6,3.5,10.4,8.2,14.4,13.8c4.1,5.8,7.2,12.1,9.3,18.7c2.1,6.6,3.2,13.5,3.2,20.3
			c0,9.4-1.5,18.2-4.5,26.2c-2.9,7.9-7.9,15.5-14.7,22.5c-4.7,4-9.5,7.1-14.4,9.1c-4.9,2.1-10.1,3.5-15.5,4.2
			c-5.6,0.7-12.8,1.1-21.3,1.1h-25l79.2,111.6h24.9l-66.4-92.9l0.3,0c17.5-0.7,32.2-5.3,43.7-13.7c11.5-8.3,20.1-18.8,25.5-31
			c5.3-12.1,8-24.1,8-35.7v-1.9c-0.3-15-4.1-29.1-11.2-41.9c-7.2-13-16.3-22.3-26.8-27.6c-7.2-3.9-15.9-6.8-25.9-8.5
			c-9.7-1.7-23.9-2.5-42-2.5H490.4z"/>
	</defs>
	<clipPath id="SVGID_5_">
		<use xlink:href="#SVGID_4_"  style="overflow:visible;"/>
	</clipPath>
	
		<linearGradient id="SVGID_6_" gradientUnits="userSpaceOnUse" x1="-132.4217" y1="1143.7976" x2="-131.4198" y2="1143.7976" gradientTransform="matrix(-1531.3959 0 0 1531.3959 -201256.7344 -1751468.625)">
		<stop  offset="0" style="stop-color:#E3C783"/>
		<stop  offset="5.618000e-03" style="stop-color:#E3C783"/>
		<stop  offset="0.1854" style="stop-color:#E9D590"/>
		<stop  offset="0.4101" style="stop-color:#F5EFE2"/>
		<stop  offset="0.7303" style="stop-color:#B38225"/>
		<stop  offset="0.9335" style="stop-color:#DEBF81"/>
		<stop  offset="0.9494" style="stop-color:#E2C488"/>
		<stop  offset="1" style="stop-color:#E2C488"/>
	</linearGradient>
	<rect x="490.4" y="10.5" class="st1" width="167.1" height="255.8"/>
</g>
<g>
	<defs>
		<polygon id="SVGID_7_" points="923.7,10.5 813.5,234.2 704.4,13.3 703,10.5 679.1,10.5 679.1,266.3 698.9,266.3 698.9,45.6 
			807.5,266.3 819.3,266.3 927.5,45.6 927.5,266.3 947.3,266.3 947.3,10.5 		"/>
	</defs>
	<clipPath id="SVGID_8_">
		<use xlink:href="#SVGID_7_"  style="overflow:visible;"/>
	</clipPath>
	
		<linearGradient id="SVGID_9_" gradientUnits="userSpaceOnUse" x1="-132.4201" y1="1143.7976" x2="-131.4209" y2="1143.7976" gradientTransform="matrix(-1531.3959 0 0 1531.3959 -201256.7344 -1751468.625)">
		<stop  offset="0" style="stop-color:#E3C783"/>
		<stop  offset="5.618000e-03" style="stop-color:#E3C783"/>
		<stop  offset="0.1854" style="stop-color:#E9D590"/>
		<stop  offset="0.4101" style="stop-color:#F5EFE2"/>
		<stop  offset="0.7303" style="stop-color:#B38225"/>
		<stop  offset="0.9335" style="stop-color:#DEBF81"/>
		<stop  offset="0.9494" style="stop-color:#E2C488"/>
		<stop  offset="1" style="stop-color:#E2C488"/>
	</linearGradient>
	<rect x="679.1" y="10.5" class="st2" width="268.3" height="255.8"/>
</g>
<g>
	<defs>
		<polygon id="SVGID_10_" points="1440.8,10.5 1440.8,233.6 1280.8,12.6 1279.3,10.5 1256.9,10.5 1256.9,266.3 1276.7,266.3 
			1276.7,40 1439.1,264.2 1440.6,266.3 1460.8,266.3 1460.8,10.5 		"/>
	</defs>
	<clipPath id="SVGID_11_">
		<use xlink:href="#SVGID_10_"  style="overflow:visible;"/>
	</clipPath>
	
		<linearGradient id="SVGID_12_" gradientUnits="userSpaceOnUse" x1="-132.4202" y1="1143.7976" x2="-131.4214" y2="1143.7976" gradientTransform="matrix(-1531.3959 0 0 1531.3959 -201256.7344 -1751468.625)">
		<stop  offset="0" style="stop-color:#E3C783"/>
		<stop  offset="5.618000e-03" style="stop-color:#E3C783"/>
		<stop  offset="0.1854" style="stop-color:#E9D590"/>
		<stop  offset="0.4101" style="stop-color:#F5EFE2"/>
		<stop  offset="0.7303" style="stop-color:#B38225"/>
		<stop  offset="0.9335" style="stop-color:#DEBF81"/>
		<stop  offset="0.9494" style="stop-color:#E2C488"/>
		<stop  offset="1" style="stop-color:#E2C488"/>
	</linearGradient>
	<rect x="1256.9" y="10.5" class="st3" width="203.9" height="255.8"/>
</g>
<g>
	<defs>
		<polygon id="SVGID_13_" points="349.4,10.5 239.7,266.3 261.2,266.3 315.9,139.7 358.9,37.6 411.5,161.7 326.7,161.7 316.8,180.7 
			420.1,180.7 456.9,266.3 478.4,266.3 368.8,10.5 		"/>
	</defs>
	<clipPath id="SVGID_14_">
		<use xlink:href="#SVGID_13_"  style="overflow:visible;"/>
	</clipPath>
	
		<linearGradient id="SVGID_15_" gradientUnits="userSpaceOnUse" x1="-132.4208" y1="1143.7976" x2="-131.4202" y2="1143.7976" gradientTransform="matrix(-1531.3959 0 0 1531.3959 -201256.7344 -1751468.625)">
		<stop  offset="0" style="stop-color:#E3C783"/>
		<stop  offset="5.618000e-03" style="stop-color:#E3C783"/>
		<stop  offset="0.1854" style="stop-color:#E9D590"/>
		<stop  offset="0.4101" style="stop-color:#F5EFE2"/>
		<stop  offset="0.7303" style="stop-color:#B38225"/>
		<stop  offset="0.9335" style="stop-color:#DEBF81"/>
		<stop  offset="0.9494" style="stop-color:#E2C488"/>
		<stop  offset="1" style="stop-color:#E2C488"/>
	</linearGradient>
	<rect x="239.7" y="10.5" class="st4" width="238.7" height="255.8"/>
</g>
<g>
	<defs>
		<path id="SVGID_16_" d="M1032.9,18c-21.1,12-37.9,28.7-50,49.8c-12.1,21-18.2,44.4-18.2,69.7c0,25.4,6,48.8,17.8,69.4
			c11.8,20.7,28.4,37.3,49.3,49.2c20.9,11.9,44.6,18,70.6,18.2h0c17.9,0,35.1-3,51.4-9c16.3-6,31.2-15.2,44.3-27.5
			c12.6-11.8,22.8-26.3,30.4-43.3l3.1-7h-22.4l-1.3,2.8c-6.6,13.6-15.2,25.3-25.6,34.7c-10.6,9.7-22.7,17.1-36.1,22.1
			c-24.1,9-52.2,11-82.4,0.6c-13.4-4.6-26.3-11.9-38.3-21.6c-11.9-9.6-21.6-21.9-28.9-36.5c-5.5-11.2-9.1-24.1-10.4-38.7
			c-0.6-5.3-0.9-9.7-0.9-13.8c0-4.9,0.4-10,1.2-16c1.4-13.5,4.9-26,10.4-37c6.3-12.8,15-24.2,25.8-34.1c10.8-9.8,23.3-17.5,37-22.7
			c13.8-5.2,28.9-7.9,44.8-7.9c18.7,0,37,4.8,54.2,14.2c17.2,9.5,31.5,22.6,42.4,39.1c10.2,15.4,16,32.1,17.5,49.8h-207.5l-8.1,19.4
			h235.9l0.7-10.8c-0.7-19.5-4.9-37.7-12.5-53.9c-7.7-16.2-17.9-30.2-30.5-41.7c-12.5-11.4-27.1-20.3-43.2-26.4
			c-16.1-6.1-33.2-9.1-50.7-9.1C1077.6-0.1,1054,6,1032.9,18"/>
	</defs>
	<clipPath id="SVGID_17_">
		<use xlink:href="#SVGID_16_"  style="overflow:visible;"/>
	</clipPath>
	
		<linearGradient id="SVGID_18_" gradientUnits="userSpaceOnUse" x1="-132.4207" y1="1143.7981" x2="-131.4204" y2="1143.7981" gradientTransform="matrix(-1531.3959 0 0 1531.3959 -201256.7344 -1751470.625)">
		<stop  offset="0" style="stop-color:#E3C783"/>
		<stop  offset="5.618000e-03" style="stop-color:#E3C783"/>
		<stop  offset="0.1854" style="stop-color:#E9D590"/>
		<stop  offset="0.4101" style="stop-color:#F5EFE2"/>
		<stop  offset="0.7303" style="stop-color:#B38225"/>
		<stop  offset="0.9335" style="stop-color:#DEBF81"/>
		<stop  offset="0.9494" style="stop-color:#E2C488"/>
		<stop  offset="1" style="stop-color:#E2C488"/>
	</linearGradient>
	<rect x="964.8" y="-0.1" class="st5" width="275.2" height="274.3"/>
</g>
<g>
	<defs>
		<path id="SVGID_19_" d="M1501,15.2h5.6c2.4,0,4.4,0.3,4.7,3.3c0,4.5-3.4,4.5-5.4,4.5h-5V15.2z M1495.5,10.7v28h5.6V27.5h4.9
			c3.9,0.4,4.8,1.6,5,6c0.1,3.5,0.3,4.4,0.8,5.2h5.7c-0.6-1.2-0.6-1.7-0.9-6.5c-0.1-3.6-0.8-5.9-4.7-7v-0.1c3.8-0.9,5.2-3.7,5.2-6.8
			c0-7.6-8.1-7.6-9.9-7.6H1495.5z M1487.2,24.4c0-10.3,8.1-18.9,18.7-18.9c10.6,0,18.7,8.6,18.7,18.9c0,10.5-8.3,18.9-18.7,18.9
			C1495.5,43.4,1487.2,34.9,1487.2,24.4 M1481.5,24.4c0,13.4,10.8,24.5,24.5,24.5c13.3,0,24.4-10.9,24.4-24.5
			c0-13.4-10.8-24.4-24.4-24.4C1492.2,0,1481.5,11.1,1481.5,24.4"/>
	</defs>
	<clipPath id="SVGID_20_">
		<use xlink:href="#SVGID_19_"  style="overflow:visible;"/>
	</clipPath>
	
		<linearGradient id="SVGID_21_" gradientUnits="userSpaceOnUse" x1="-132.4203" y1="1143.7976" x2="-131.4292" y2="1143.7976" gradientTransform="matrix(-1531.3959 0 0 1531.3959 -201256.7344 -1751582.625)">
		<stop  offset="0" style="stop-color:#E3C783"/>
		<stop  offset="5.618000e-03" style="stop-color:#E3C783"/>
		<stop  offset="0.1854" style="stop-color:#E9D590"/>
		<stop  offset="0.4101" style="stop-color:#F5EFE2"/>
		<stop  offset="0.7303" style="stop-color:#B38225"/>
		<stop  offset="0.9335" style="stop-color:#DEBF81"/>
		<stop  offset="0.9494" style="stop-color:#E2C488"/>
		<stop  offset="1" style="stop-color:#E2C488"/>
	</linearGradient>
	<rect x="1481.5" class="st6" width="48.9" height="48.9"/>
</g>
<g>
	<defs>
		<path id="SVGID_22_" d="M922.3,731.3c-17.2,9.8-39.7,30.1-34.4,52.2c1,4.1,7.6,7.4,11,3.5c2.7-3.2-0.8-11.2,0-15.3
			c1.1-5.7,4.4-10.7,8.1-15c16.1-19.3,38.9-26.9,57.2-6c8.6,9.8,9.4,40.7,25.3,33c3.1-1.5,6-19.1,8-22.6
			c6.3-11.1,21.5-19.8,31.1-7.3c12.4,16-14.8,50-22,63.5c-4,7.6-11.6,14.9-16.8,21.6c-2.7,3.5-27-18.8-29.7-20.9
			c-7.3-5.8-39.7-39.7-48.1-36.9c-15.3,5,27.1,35.6,30.6,38.4c8.9,7.1,17.6,14.4,26.7,21.3c14.8,11.2,7,13.5-5,25.1
			c-1.8,1.8-11.7,9.7-9,13.3c7.9,10.3,16.4-3,24.2-10.3c3.2-3,8.8-12.9,13.8-8.7c4.8,4,14,3.6,9.3-3.8c-7.9-12.4,18-36.1,24.6-48.5
			c8.9-16.9,24.2-45.6,8.8-63.1c-5.6-6.4-15.2-9.7-23.5-8.3c-16.2,2.7-18.6,13.4-28.7,23.4c-2.1-3.5-4.3-7-6.5-10.5
			c0.5,0.8,0.9,1.4-0.1-0.2c-1.1-1.7-0.7-1-0.1-0.2c-8.1-12.8-23-22-37.9-22C933.5,726.9,927.7,728.3,922.3,731.3 M972.4,640.6
			c0.4-0.8,0.2-1.3,0-1.4C972.4,639.8,972.4,640.3,972.4,640.6 M974.1,631.7c0.1,0,0.2-0.1,0.3-0.1c1-0.6,1-1,0.8-1
			C974.8,630.5,974.3,630.9,974.1,631.7 M1272.4,618.1C1272.4,618.1,1272.4,618.1,1272.4,618.1
			C1272.4,618.2,1272.4,618.2,1272.4,618.1c0.1,0.1,0.2,0,0.1-0.2c0-0.1,0-0.2-0.1-0.2C1272.4,617.7,1272.4,617.8,1272.4,618.1
			 M972.4,636.7c0.1-2.5,0.7-5.1,2.7-4.1c2.7,1.2-1.8,7.1-2.7,8.1c0,0,0-0.1,0-0.1c0,0.1-0.1,0.2-0.1,0.2c0,0,0,0,0,0c0,0-0.1,0,0,0
			c-0.4-1.2-0.1-1.7,0.1-1.6C972.4,638.5,972.4,637.6,972.4,636.7 M974.3,631.5c-0.1,0-0.2,0.1-0.3,0.1c1.5-6-1.2-20.3-10.2-10.8
			c-5.9,6.2-10.8,20.6-13.3,28.7c-4,13.1-12,39.6-0.5,48.8c10.2,8.1,21.4-32.1,23.7-39.3c5.5-17,14.1-39,30.4-48.7
			c4,14.2-7.8,32.6-4.1,48.6c3,12.9,11,18.7,22.5,23.7c10.7,4.6,26.7,2.3,35-5.7c5.5-5.3-10.4-5-21.1-4.8c-4.3,0.1-7.8,0.2-8.7-0.1
			c-32.9-11,5.1-53.1-8.7-69.9c-4.3-5.2-8.2-7.3-11.8-7.3C993.5,594.9,984,625.8,974.3,631.5 M1140.4,581
			C1139.8,581.4,1140.6,581.1,1140.4,581L1140.4,581 M1305.6,569.3c-2.9,6-30.1,50.4-33.2,48.8c0,0,0,0,0,0c0,0,0,0,0,0
			C1272.4,606.6,1288.9,564.3,1305.6,569.3 M1153.4,541c-18.6,30.6-46.5,59.5-84.2,64.7c-1.2-16.4,9.4-32.9,17-46.5
			c2-3.7,10.4-13.3,8.8-18c-1.5-4.4-9.5-9.3-13.2-4.7c-20.9,25.7-38.5,69.9-25.3,102.5c7,17.4,17.5,30.5,35.2,37.9
			c10.8,4.5,43,10.6,41.4-8.8c-5.6-0.6-10.7-0.3-15.4,0c-9.9,0.6-18.8,1.3-30-6.6c-14-9.8-20.7-30.2-18.9-46.6
			c24.4,8.1,53.6-20.5,71.7-33.9c2.4,1.6-12,59.5-14.3,65.3c-3,7.5,1.6,18.6,11.1,16.3c6.2-1.5,11.6-14,14.7-18.9
			c6.7-10.8,42.4-74.8,57.9-65.4c4.5,2.7-2.5,31.5-2.8,36.6c-1,13.9,1.3,31.8,11.6,42.2c9,9.1,23.6,10.9,34.8,5.1
			c5.2-2.7,14.9-17,19.7-15.5c11,3.5,23.5,2.1,33.9-2.7c11.8-5.4,10-18.2,18.5-4.8c11.4,18,42.8,18.7,61,20.1
			c5.1,0.4,37.1,0.6,35.7-9.7c-0.6-4.4-16.7-3.6-28.9-2.9c-5.8,0.3-10.8,0.7-12.7,0.5c-26.2-2.8-45.7-7.7-46.3-36.9
			c-0.2-7.1-0.8-18,2.4-24.7c3.8-8-4.3-22.3-11.3-12.6c-10.2,14-3.3,33.7-10.9,48.7c-4.4,8.8-38,24.3-35.6,8.1
			c2.3-15.7,15.8-31.7,24.7-44.3c6.3-8.9,28.2-30.1,3.2-30.9c-24.8-0.9-45.8,30.5-48.9,51.4c-3.6,24,6.6,26-1,34.6
			c-4.2,4.8-21.8,18.1-27.7,9.7c-16.8-23.5,6.4-54.6-6.6-76.1c-21.9-36.1-61.7,40.1-75.3,48.9c-5.5-4.5,15.2-54.3,17.8-61.5
			c2.1-5.9,7.7-16.3,4.2-22.9c-2.1-4-4.4-5.6-6.6-5.6C1159,533.3,1155.7,537.2,1153.4,541 M139.7,461C139.7,461,139.7,461,139.7,461
			 M139.7,461L139.7,461 M139.7,460.6c0-0.2,0-0.3,0-0.3S139.7,460.4,139.7,460.6 M224.6,413.1C224.6,413.1,224.6,413.1,224.6,413.1
			C224.6,413.1,224.6,413.1,224.6,413.1C224.6,413.1,224.6,413.1,224.6,413.1 M233,385c-4.8,6.4-5.9,18.5,0.7,24.3
			c16.3,14.4,30-9.1,39.3-17.8c2.8,15.5,0.4,40-4,55.1c-4.9,16.9-23.1,22.2-38.2,25.9c-23.5,5.8-73.7,15.1-86.3-10.8
			c-1.5-0.3-2,0.5-1.7,2.4c-1.1-1.7-0.5-3.7-1.1-5.8c-0.8,0.9-1.9,1.1-2,2.3c0,0,0,0,0,0c0,0,0,0,0,0c0,0.2,0,0.3,0,0.4
			c0,0,0-0.2,0-0.3c-1.5,31.9,60.2,23.9,78.4,21.6c15.3-1.9,33.4-5.6,45.7-15.5c15.1-12.2,13.2-32.2,14-49.7c0.2-4.4,1.1-49.5-9-31
			c-5,9.1-11.6,15.6-21.7,18.3c-11.1,2.9-14-6-8.5-15.2c2.6-4.4,2.8-9.2,0.5-9.2C237.7,379.9,235.7,381.4,233,385 M193.1,358.5
			c-5.8,0.5-15,1-19.5,5.1c-2.1,1.9,0,7.8,3.3,6.1c10.1-5.2,35.9-11,45.1-1.6c-4.3,4-9.8,6.6-15.2,9c-7.8,3.5-6,2.6-6.1,1.6
			c-0.1-0.5-0.6-0.9-2.9-0.8c-6,0.2-1.8,3.9-6.9,5.3c-2.4,0.7,2.3,62.1,8.5,12.9c2.6,0.8,29.1,13.8,25.1,16.9c0,0,0,0,0,0
			c-1.5,1.2-1,0.8-0.5,0.4c0.2-0.2,0.4-0.3,0.5-0.4c-8.3,6.5-23.3,6.5-34.9,6.4c-2.3,0-4.5,0-6.5,0c-17.4,0.4,4,7.4,10.6,7.1
			c8.4-0.3,35.9,0.6,38.8-11c2.2-8.6-29.3-30.1-32.3-28.1c3.6-2.3,37.8-14.1,28.3-22.1c-7-5.9-16.8-7.5-26.2-7.5
			C199.2,358,196.1,358.2,193.1,358.5 M529.4,360.8c-48.1,12.1-137.1,52.6-177.6,77c-16.5,10-45.8,29-59.7,40.2
			c-8.4,6.8-21.3,18-26.5,27.8c-23.6,45.4,42.4,98.2,78.9,112c24.6,9.3,45.9,28.6,70.4,38.6c18.1,7.4,36.6,20,53.5,30.1
			c19.6,11.8,38.7,23.7,57.9,35.8c9.8,6.2,19.9,10.9,28.7,18.4c8,6.8,15.4,18,24.6,23.1c105.4,59,33.6,140,33.4,140
			c-1.8,7.8-57.8,50.4-58.4,50.8C535.3,969.3,447.8,1012,405,1025c-35.6,10.8-70.4,18-107.1,23.4c-31.8,4.7-73.6,4.1-102.5-11.6
			c-35.7-19.4-25.9-69.3-20.2-102c3.6-21.3,12.5-39.9,19-58.9c12.7-37.2,85.1-121,65.6-102.5c-16.1,9.4-61.2,62.9-76.6,102.4
			c-1.1,2.8-11.7,32.2-12.6,36.4c-3.1,14-8.7,30.6-9.8,36.9c-3.9,22.7-2.8,38.4-3.2,46.2c-2.3,47.1,51.3,61.9,89.2,63.1
			c29.3,0.9,59.9-2,88.7-7.7c9.9-2,61.8-13.9,65.4-16.8c-0.6-0.3,54-16.8,80.4-30.4c29.1-15,59.8-27,87.6-47
			c26.5-19.1,82.5-51.6,80.6-124c-0.6-22-21.7-46.9-36.2-62.1c18.1-8.1,27.2-19.2,36.9-36c6.7,5.6-5.4,31.8,15.6,25.8
			c5.8-1.7,10.6-39.8,12.7-46.7c5.9-19.5,18.2-62.9,39.8-69.7c5.2,23.2-0.4,50.1-0.1,73.8c0.1,5.6-2.9,23.9,4.9,26.5
			c5,1.7,10.3,3.3,12.9-2.9c6.6-16.2,13.8-32,20.2-48.3c3.6-9.1,8.2-28.3,13.5-37c4.7,5.2,1.1,22.2,2.4,29.1
			c1.8,9.4,5.6,19.7,12.1,26.9c15.9,17.7,37.7,8,54.7-1.2c8.4-4.5,6.6-10.6,15.8-5.6c3.1,1.7,6.3,3.2,9.5,4.7
			c10.7,4.4,20.1-4.4,26.7-11.5c10.3-11.2,12.7-24.6,20.3-36.9c3.9,7.6,8.7,17.9,18.6,19c2.5,0.3,16.6,0.1,12.4-7.1
			c-3.8-6.5-10.7-0.2-15-11.4c-2.5-6.5-3-18-1-24.7c2.5-8.6,6.7-14.7-2.8-19.6c-6.7-3.5-10.9,5.6-10.3,11
			c1.3,11-10.4,30.7-16.3,39.4c-5,7.4-23.4,35.6-34.4,27.5c-7.5-5.5-9.9-22.8-8.5-31c3.1-17.9,8.8-38.7,23.3-51
			c6.1-5.2,32.6-8.9,33.6-14.8c-15.1-15.3-41.3-2.6-51.8,11.6c-12,16.3-18.5,33.3-20.6,53.3c-1.2,11.2,2.2,19.6,4.1,30.3
			c-6.3,4.9-11.2,9.2-18.9,11.8c-19.1,6.4-33.8,2.6-36.2-20.9c-1.1-10.6,8.3-61.7,1.7-66.6c-16.4-12.3-21.4,3.5-26.8,18
			c-3.1,8.2-25.6,63.6-27.5,69.6c-5-17.7,1.1-40.2-0.3-58.6c-1-13.4-17.5-24.4-28.9-13.1c-6.3,6.2-12.3,12.1-16.8,19.8
			c-2.3,3.9-12,34.7-18.3,39.4c-4.7-4.1,4.3-29.8,5.5-35.5c1.4-6.7,9.4-26.4,4.1-32.1c-14.5-15.6-18.5,15.3-20.9,24
			c-8.4,31.1-11.3,68.4-32.7,94.4c-15.6,19-34.9,16.2-49.9-2.2c-14.5-17.8-12-50.8-5.6-70.9c8-25.2,23-47.6,43.9-63.8
			c10-7.7,20.6-10.5,31.8-15.9c4.3-2.1,9-1.9,13.6-1.7c4.8,0.2,9.4,0.4,13.5-1.9c-32.6-20.4-73,9.3-92.2,35.3
			c-24.2,32.8-30.6,64.8-25.5,105.2c-37.1-19.2-71.1-45.2-108.2-65c-41.5-22.1-83.6-43.2-123.2-68.7c-20.9-13.4-49.3-38.5-50.9-65.1
			c-1.6-26.8,29.1-44.2,47.7-58.2c43.2-32.3,95.4-58.1,145.9-77.6c29.9-11.6,59.5-23.1,90.6-31.3c27.6-7.3,66.7-18.4,93.5-5.3
			c27.3,13.3,5,37.4-10.2,48.8c-16.9,12.7-96.3,64.3-111.6,74.2c-18.4,11.8-39,23.2-58.5,34.2c-27.9,15.8-58.2,35.3-90.1,41.4
			c-14.3,2.7-12.1,13.7,2.5,11.1c16.1-2.8,30.7-8.7,45.1-16.3c47.8-25.2,94.8-51.3,140.6-80c27-16.9,53.8-33.9,79.2-53.1
			c10.3-7.8,23.2-17.2,29-29.3c6.6-13.8,1.7-22.8-7.2-31c-13.3-12.3-29.2-16.6-46.6-16.6C594.1,340.5,560.8,352.9,529.4,360.8"/>
	</defs>
	<clipPath id="SVGID_23_">
		<use xlink:href="#SVGID_22_"  style="overflow:visible;"/>
	</clipPath>
	
		<linearGradient id="SVGID_24_" gradientUnits="userSpaceOnUse" x1="-132.4213" y1="1143.7981" x2="-131.4215" y2="1143.7981" gradientTransform="matrix(1282.5072 0 0 -1282.5072 169969.5 1467629.25)">
		<stop  offset="0" style="stop-color:#E3C783"/>
		<stop  offset="5.618000e-03" style="stop-color:#E3C783"/>
		<stop  offset="0.1854" style="stop-color:#E9D590"/>
		<stop  offset="0.4101" style="stop-color:#F5EFE2"/>
		<stop  offset="0.7303" style="stop-color:#B38225"/>
		<stop  offset="0.9335" style="stop-color:#DEBF81"/>
		<stop  offset="0.9494" style="stop-color:#E2C488"/>
		<stop  offset="1" style="stop-color:#E2C488"/>
	</linearGradient>
	<rect x="138.2" y="340.5" class="st7" width="1285.4" height="718.7"/>
</g>
</svg>
