<?xml version="1.0" encoding="utf-8"?>
<!-- Generator: Adobe Illustrator 19.2.0, SVG Export Plug-In . SVG Version: 6.00 Build 0)  -->
<svg version="1.1" id="Layer_1" xmlns="http://www.w3.org/2000/svg" xmlns:xlink="http://www.w3.org/1999/xlink" x="0px" y="0px"
	 viewBox="0 0 300 180" style="enable-background:new 0 0 300 180;" xml:space="preserve">
<style type="text/css">
	.st0{fill:#9C9B9B;}
	.st1{fill:#92B93C;}
</style>
<g>
	<path class="st0" d="M252.6,103.1c2.7,2.5,6,3.8,9.8,3.8c4.1,0,7.5-1.4,10.4-4.3c0.4-0.4,0.7-0.7,1-1.1l3.1,1.1
		c-0.6,0.8-1.2,1.5-1.9,2.2c-3.5,3.5-7.7,5.2-12.6,5.2c-4.9,0-9.1-1.7-12.6-5.2c-3.5-3.5-5.2-7.7-5.2-12.6c0-4.9,1.7-9.1,5.2-12.6
		c3.5-3.5,7.7-5.2,12.6-5.2c4.2,0,7.9,1.3,11.1,3.8c0.5,0.4,1,0.9,1.6,1.4c0.2,0.2,0.4,0.4,0.6,0.6l-2.2,2.2L252.6,103.1z
		 M271.3,80.3c-2.5-1.9-5.5-2.9-8.8-2.9c-4.1,0-7.5,1.4-10.4,4.3c-2.9,2.9-4.3,6.3-4.3,10.4c0,3.4,1,6.3,2.9,8.8L271.3,80.3z"/>
</g>
<g>
	<path class="st0" d="M168.8,58.2h2.9v24.2c0.5-0.7,1.1-1.4,1.8-2.1c3.4-3.4,7.6-5.1,12.4-5.1c4.9,0,9,1.7,12.4,5.1
		c3.4,3.4,5.1,7.6,5.1,12.4c0,4.8-1.7,9-5.1,12.4c-3.4,3.4-7.6,5.1-12.4,5.1c-4.8,0-9-1.7-12.4-5.1c-0.7-0.7-1.3-1.4-1.8-2.1v6.4
		h-2.9V58.2z M171.7,89.7v6c0.6,2.7,1.9,5.1,4,7.2c2.8,2.8,6.3,4.3,10.3,4.3c4,0,7.4-1.4,10.3-4.2c2.8-2.8,4.3-6.2,4.3-10.2
		c0-4-1.4-7.4-4.3-10.3c-2.8-2.8-6.3-4.3-10.3-4.3c-4,0-7.4,1.4-10.3,4.3C173.5,84.5,172.2,86.9,171.7,89.7z"/>
	<path class="st0" d="M241.3,77.9l-7.7,9.6l12.3,21.8h-3.6l-10.6-19.5l-2.8,3.5v16H226V64.6h2.9v24.1l8.7-10.8
		C237.6,77.9,241.3,77.9,241.3,77.9z"/>
</g>
<path class="st0" d="M208.3,72.1h11.4c0.7,0,1.3,0.6,1.3,1.3v15.4v0.2v19.7c0,0.4-0.3,0.6-0.6,0.6h-12.7c-0.4,0-0.6-0.3-0.6-0.6
	V88.9v-0.2V73.3C207,72.6,207.6,72.1,208.3,72.1L208.3,72.1z M208.3,73.9h11.3v33.5h-11.3V73.9L208.3,73.9z"/>
<path class="st1" d="M212.1,67.8h3.7c0.9,0,1.6,1,1.6,2.2v0.5h-6.8v-0.5C210.6,68.7,211.3,67.8,212.1,67.8L212.1,67.8z"/>
<polygon class="st1" points="209.3,75 218.7,75 218.7,79.4 209.3,82.7 "/>
<polygon class="st1" points="218.8,106.5 209.2,106.5 209.2,101.9 218.8,98.4 "/>
<path class="st1" d="M218.7,82.5l-9.3,3.2c0-2.5,0-4.9,0-7.4l9.3-3.2C218.7,77.6,218.7,80,218.7,82.5L218.7,82.5z"/>
<path class="st1" d="M218.8,102.9l-9.6,3.4c0-2.7,0-5.4,0-8.1l9.6-3.4C218.8,97.5,218.8,100.2,218.8,102.9L218.8,102.9z"/>
<path class="st1" d="M218.8,93l-9.6,3.4c0,0,0-6.1,0-8.8l9.6-3.4c0,2.7,0,5.4,0,8.1V93z"/>
<path class="st1" d="M55.2,108.9v-6.3c-3.9,4.6-8.7,6.9-14.7,6.9c-5.3,0-9.8-1.8-13.4-5.4c-3.7-3.7-5.5-8.2-5.5-13.5
	c0-5.3,1.8-9.8,5.4-13.4c3.7-3.7,8.2-5.5,13.5-5.5c5.9,0,10.7,2.3,14.7,6.9v-6.4h3.6v36.6C58.9,108.9,55.2,108.9,55.2,108.9z
	 M51.4,79.8c-3-3-6.6-4.5-10.8-4.5c-4.3,0-7.9,1.5-10.8,4.4c-3,3-4.5,6.7-4.5,10.9c0,4.2,1.5,7.8,4.5,10.8c3,3,6.6,4.5,10.8,4.5
	c4.3,0,7.9-1.5,10.8-4.4c3-3,4.5-6.7,4.5-10.9C55.9,86.4,54.4,82.8,51.4,79.8z"/>
<path class="st1" d="M68.2,89.8c0,5,1.3,8.9,4,11.8c2.8,3,6.6,4.4,11.5,4.4c2.5,0,4.7-0.4,6.7-1.2c2.5-1.1,4.8-3.2,6.8-6.5l3.3,1.5
	c-2.3,4.4-5.9,7.3-10.7,8.9c-1.8,0.6-3.9,0.9-6.2,0.9c-5.5,0-10-1.8-13.6-5.4c-3.6-3.6-5.4-8.1-5.4-13.6c0-5.5,1.8-10,5.3-13.6
	c3.6-3.6,8.2-5.4,13.7-5.4c5.4,0,9.9,1.7,13.5,5.1c3.6,3.4,5.4,7.7,5.4,13.1L68.2,89.8L68.2,89.8z M93.2,78.2c-2.8-2-6-3-9.6-3
	c-7.6,0-12.6,3.7-14.9,11.2h29.8C97.9,83,96.1,80.3,93.2,78.2z"/>
<path class="st1" d="M126.1,77.7c-1-0.7-2-1.3-3-1.7c-1.1-0.4-2.2-0.6-3.4-0.6c-1,0-2,0.3-2.8,0.9c-0.9,0.6-1.7,1.4-2.3,2.3
	c-0.6,0.9-1.2,1.9-1.6,3.1c-0.4,1.1-0.6,2.2-0.6,3.1v24.1h-3.6V72.3h3.6v5c0.8-1.4,1.8-2.6,3-3.7c1.2-1.1,2.6-1.7,4.1-1.7
	c1.8,0,3.3,0.2,4.5,0.6c1.2,0.4,2.5,1.2,4,2.2L126.1,77.7z"/>
<path class="st1" d="M158.2,104c-3.7,3.7-8.2,5.5-13.5,5.5c-5.3,0-9.8-1.8-13.4-5.4c-3.7-3.7-5.5-8.2-5.5-13.5
	c0-5.3,1.8-9.7,5.5-13.4c3.6-3.7,8.1-5.6,13.4-5.6c5.3,0,9.7,1.8,13.4,5.5c3.7,3.7,5.5,8.2,5.5,13.5C163.6,96,161.8,100.4,158.2,104
	z M155.6,79.7c-3-3-6.6-4.5-10.9-4.5c-4.1,0-7.7,1.5-10.7,4.6c-3.1,3.1-4.6,6.7-4.6,10.8c0,4.2,1.5,7.8,4.5,10.8
	c3,3,6.6,4.5,10.8,4.5c4.3,0,7.9-1.5,10.8-4.4c3-3,4.5-6.7,4.5-10.9C160,86.3,158.5,82.7,155.6,79.7z"/>
</svg>
