<?xml version="1.0" encoding="utf-8"?>
<!-- Generator: Adobe Illustrator 21.0.1, SVG Export Plug-In . SVG Version: 6.00 Build 0)  -->
<svg version="1.2" baseProfile="tiny" id="Layer_1" xmlns="http://www.w3.org/2000/svg" xmlns:xlink="http://www.w3.org/1999/xlink"
	 x="0px" y="0px" viewBox="0 0 300 180" xml:space="preserve">
<g>
	<g>
		<path fill="#777777" d="M78.3,106.2h-4v8.2h27.7l-0.3-8.2c-4.6,0.3-5.4-1.6-5.4-1.6l-20-48.5L62,63.6l2.9,6c2,3.7,0.6,5.1,0.6,5.1
			l-11.7,28.8c-1.4,4-9.1,2.7-9.1,2.7v8.2h20.8v-8.2c-3.5,0.7-3.4-2.7-3.4-2.7l1.7-4.3h13.5l1.6,3.7C80,106.1,78.3,106.2,78.3,106.2
			z M66.3,93l4-10l4.3,10H66.3z"/>
	</g>
	<g>
		<path fill="#777777" d="M195.6,106.2h-4v8.2h27.7l-0.3-8.2c-4.6,0.3-5.4-1.6-5.4-1.6l-20-48.5l-14.3,7.4l2.9,6
			c2,3.7,0.6,5.1,0.6,5.1L171,103.5c-1.4,4-9.1,2.7-9.1,2.7v8.2h20.8v-8.2c-3.4,0.7-3.4-2.7-3.4-2.7l1.7-4.3h13.5l1.6,3.7
			C197.3,106.1,195.6,106.2,195.6,106.2z M183.6,93l4-10l4.3,10H183.6z"/>
	</g>
	<path fill="#777777" d="M223.9,60.3h24.5v6.4c0,0-4-0.3-4,2v36.5c0,0,0.9,2,3.7,1.7l-0.3,7.4h-24.6v-8.2c0,0,5.7,1.3,5.4-3.3
		s0-32.8,0-32.8s0-3.4-2.9-3.4h-2.3L223.9,60.3z"/>
	<g>
		<path fill="#777777" d="M159.3,66.7v-6.4h-24.8v6.4c5.2-1.1,3.4,2,3.4,2l-11.1,10.5V68.7c0-2.3,4-2,4-2v-6.4h-24.5l-0.3,6.4h2.3
			c2.9,0,2.9,3.4,2.9,3.4s-0.3,28.3,0,32.8c0.3,4.6-5.4,3.3-5.4,3.3v8.2h24.6l0.3-7.4c-2.8,0.3-3.7-1.7-3.7-1.7V94.4l8,10.5
			c1.9,1.3-1.8,1.3-1.8,1.3l0,8.2h25.7v-8.2c-2.3,0-4.3,0-4.3,0L136.8,81l13.4-14.3H159.3z"/>
	</g>
</g>
</svg>
