<?xml version="1.0" encoding="utf-8"?>
<!-- Generator: Adobe Illustrator 19.2.0, SVG Export Plug-In . SVG Version: 6.00 Build 0)  -->
<svg version="1.1" baseProfile="tiny" id="Layer_1" xmlns="http://www.w3.org/2000/svg" xmlns:xlink="http://www.w3.org/1999/xlink"
	 x="0px" y="0px" viewBox="0 0 300 180" xml:space="preserve">
<g>
	<g>
		<path fill="#C12223" d="M78.26,106.22h-3.99v8.15h27.66l-0.29-8.15c-4.57,0.29-5.38-1.56-5.38-1.56L76.28,56.15l-14.27,7.42
			l2.85,5.99c2,3.71,0.57,5.14,0.57,5.14l-11.7,28.83c-1.43,3.99-9.15,2.7-9.15,2.7v8.15h20.83v-8.15c-3.45,0.7-3.4-2.7-3.4-2.7
			l1.72-4.28h13.52l1.59,3.71C79.99,106.09,78.26,106.22,78.26,106.22z M66.27,92.96l4.02-9.99l4.28,9.99H66.27z"/>
	</g>
	<g>
		<path fill="#C12223" d="M195.56,106.22h-3.99v8.15h27.66l-0.29-8.15c-4.57,0.29-5.38-1.56-5.38-1.56l-19.98-48.52l-14.27,7.42
			l2.85,5.99c2,3.71,0.57,5.14,0.57,5.14l-11.7,28.83c-1.43,3.99-9.15,2.7-9.15,2.7v8.15h20.83v-8.15c-3.45,0.7-3.4-2.7-3.4-2.7
			l1.72-4.28h13.52l1.59,3.71C197.29,106.09,195.56,106.22,195.56,106.22z M183.57,92.96l4.02-9.99l4.28,9.99H183.57z"/>
	</g>
	<path fill="#C12223" d="M223.88,60.33h24.54v6.38c0,0-3.97-0.29-3.97,2v36.53c0,0,0.86,2,3.71,1.71l-0.29,7.42h-24.56v-8.15
		c0,0,5.73,1.3,5.44-3.27c-0.29-4.57,0-32.82,0-32.82s0-3.43-2.88-3.43h-2.28L223.88,60.33z"/>
	<g>
		<path fill="#C12223" d="M159.31,66.7v-6.38h-24.83v6.38c5.16-1.14,3.45,2,3.45,2L126.8,79.24V68.7c0-2.28,3.97-2,3.97-2v-6.38
			h-24.54l-0.29,6.38h2.28c2.88,0,2.88,3.43,2.88,3.43s-0.29,28.26,0,32.82c0.29,4.57-5.44,3.27-5.44,3.27v8.15h24.56l0.29-7.42
			c-2.85,0.28-3.71-1.71-3.71-1.71V94.42l7.99,10.53c1.95,1.27-1.76,1.27-1.76,1.27l0.02,8.15h25.69v-8.15c-2.26,0-4.28,0-4.28,0
			l-17.67-25.25l13.39-14.27H159.31z"/>
	</g>
</g>
</svg>
