<?xml version="1.0" encoding="utf-8"?>
<!-- Generator: Adobe Illustrator 21.0.1, SVG Export Plug-In . SVG Version: 6.00 Build 0)  -->
<svg version="1.2" baseProfile="tiny" id="Layer_1" xmlns="http://www.w3.org/2000/svg" xmlns:xlink="http://www.w3.org/1999/xlink"
	 x="0px" y="0px" viewBox="0 0 300 180" xml:space="preserve">
<g>
	<g>
		<path fill="#AAAAAA" d="M138.4,33.7c1.6-0.3,3.3-0.6,5-0.9c2.1-0.3,4.3-0.5,6.4-0.5c1.2,0,2.4,0,3.6,0l3.5-1.1c-0.1,0-0.1,0-0.1,0
			c-2.2-0.1-4.5-0.2-6.7-0.1c-2.2,0.1-4.5,0.3-6.7,0.6c-2.2,0.3-4.5,0.7-6.6,1.2c-0.5,0.1-1.1,0.2-1.6,0.4L138.4,33.7z"/>
		<path fill="#AAAAAA" d="M185.9,43c-1.3-1.4-2.8-2.7-4.4-3.8l-0.8,1.7c1.1,0.9,2.2,1.9,3.1,2.9c1.5,1.6,2.7,3.4,3.6,5.2
			c0.9,1.9,1.5,3.9,1.8,5.9c0.3,2.1,0.2,4.3-0.3,6.5c-0.1,0.6-0.3,1.2-0.5,1.8c-0.2,0.6-0.4,1.2-0.7,1.9c-0.2,0.5-0.4,0.9-0.6,1.4
			l1.8,2.3c0.2-0.4,0.4-0.8,0.6-1.2c0.3-0.7,0.6-1.3,0.9-2s0.5-1.3,0.7-2c0.2-0.7,0.4-1.3,0.5-2c0.5-2.4,0.5-4.7,0.2-6.9
			c-0.3-2.2-1-4.3-2-6.3C188.8,46.5,187.5,44.7,185.9,43z"/>
		<path fill="#AAAAAA" d="M173,81c-2.4,1.5-5,2.8-7.7,3.9c-3.4,1.4-6.9,2.5-10.6,3.3c-3.7,0.8-7.4,1.3-11.2,1.4
			c-3.8,0.2-7.5,0-11.1-0.6c-1.5-0.2-3-0.5-4.5-0.8c-1.4-0.3-2.8-0.7-4.2-1.2c-1.3-0.4-2.6-0.9-3.8-1.5c-0.2-0.1-0.4-0.2-0.6-0.3
			l-3.3,1.2c0.7,0.4,1.4,0.7,2.1,1c1.3,0.6,2.7,1.1,4.1,1.6c1.4,0.5,2.9,0.9,4.4,1.2s3.1,0.7,4.8,0.9c3.9,0.6,7.9,0.8,11.9,0.6
			c4-0.2,8.1-0.7,12-1.5c3.9-0.8,7.7-2,11.3-3.5c3.5-1.4,6.8-3.2,9.8-5.2L173,81z"/>
		<path fill="#AAAAAA" d="M103.6,75.2l1.7-2.5c-0.5-1.1-0.9-2.1-1.2-3.2c-0.5-1.8-0.7-3.7-0.6-5.5c0.1-1.8,0.4-3.7,1-5.5
			c0.6-1.8,1.4-3.6,2.5-5.3c0.5-0.7,0.9-1.5,1.5-2.2c0.5-0.7,1.1-1.4,1.7-2.1s1.2-1.3,1.9-2c0.1-0.1,0.2-0.2,0.4-0.4l-0.8-1.5
			c-0.5,0.4-1,0.9-1.4,1.3c-0.7,0.7-1.4,1.4-2,2.1c-0.6,0.7-1.2,1.5-1.8,2.2c-0.6,0.8-1.1,1.5-1.6,2.3c-1.2,1.9-2.1,3.8-2.7,5.7
			c-0.7,1.9-1,3.9-1.1,5.8c-0.1,2,0.1,3.9,0.6,5.9C102,71.9,102.7,73.6,103.6,75.2z"/>
	</g>
	<g>
		<g>
			<polygon fill="#777777" points="112.8,35.2 157.3,41.8 146.1,45.5 125.2,42.2 128.5,48.3 123.2,56 			"/>
			<polygon fill="#AAAAAA" points="180.5,29 169.3,52.1 165.3,60.4 159.9,52.9 167.5,38.5 157.3,41.8 146.2,40.2 			"/>
			<polygon fill="#777777" points="128.5,48.3 132.4,55.2 121.6,72 133.5,67.8 145.9,70.3 102.9,85.5 			"/>
			<g>
				<polygon fill="#777777" points="169.3,52.1 190.1,79 133.5,67.8 146,63.4 170.8,68.1 165.3,60.4 				"/>
			</g>
		</g>
	</g>
</g>
<g>
	<g>
		<g>
			<path fill="#777777" d="M247.4,113c-0.4,0.4-0.9,0.6-1.4,0.6c-0.6,0-1.1-0.2-1.5-0.6s-0.6-0.9-0.6-1.5c0-0.6,0.2-1.1,0.6-1.5
				c0.4-0.4,0.9-0.6,1.4-0.6c0.6,0,1.1,0.2,1.5,0.6c0.4,0.4,0.6,0.9,0.6,1.5C248,112.1,247.8,112.6,247.4,113z M244.7,110.3
				c-0.3,0.3-0.5,0.7-0.5,1.2c0,0.5,0.2,0.9,0.5,1.2c0.3,0.3,0.7,0.5,1.2,0.5s0.9-0.2,1.2-0.5c0.3-0.3,0.5-0.7,0.5-1.2
				c0-0.5-0.2-0.9-0.5-1.2s-0.7-0.5-1.2-0.5C245.5,109.8,245.1,110,244.7,110.3z M245,112.7v-2.3c0.1,0,0.4,0,0.6,0
				c0.3,0,0.4,0,0.5,0c0.2,0,0.3,0.1,0.4,0.1c0.2,0.1,0.3,0.3,0.3,0.6c0,0.2-0.1,0.3-0.2,0.4s-0.2,0.1-0.4,0.2
				c0.1,0,0.2,0.1,0.3,0.1c0.1,0.1,0.2,0.3,0.2,0.5v0.2c0,0,0,0.1,0,0.1s0,0,0,0.1l0,0.1h-0.6c0-0.1,0-0.2,0-0.3s0-0.2,0-0.3
				c0-0.1-0.1-0.1-0.2-0.2c-0.1,0-0.1,0-0.2,0l-0.1,0h-0.1v0.8L245,112.7L245,112.7z M246.1,110.8c-0.1,0-0.2-0.1-0.4-0.1h-0.1v0.7
				h0.2c0.1,0,0.2,0,0.3-0.1c0.1-0.1,0.1-0.2,0.1-0.3C246.3,111,246.2,110.9,246.1,110.8z"/>
		</g>
		<g>
			<path fill="#777777" d="M80.7,144c0.1,0.3-0.1,0.6-0.4,0.6h-9.1c-0.4,0-0.8-0.2-1-0.6l-0.7-2.8h-9.9L59,144
				c-0.2,0.4-0.5,0.6-1,0.6h-9.1c-0.4,0-0.5-0.3-0.4-0.6l10.3-30.4c0.1-0.3,0.6-0.6,1.1-0.6h9.3c0.5,0,1,0.3,1.1,0.6L80.7,144z
				 M64.6,123.9l-2.5,8.7h4.9L64.6,123.9z"/>
			<path fill="#777777" d="M117.1,113c0.4,0,0.7,0.3,0.6,0.6l-1.9,7c0,0.4-0.4,0.6-0.7,0.6h-5.6v22.7c0,0.3-0.3,0.6-0.6,0.6h-8.1
				c-0.4,0-0.7-0.3-0.7-0.6v-22.7h-7.6c-0.3,0-0.6-0.3-0.6-0.6v-6.9c0-0.4,0.3-0.7,0.6-0.7H117.1z"/>
			<path fill="#777777" d="M153.1,136.3c0.3,0,0.6,0.3,0.6,0.6l-1.9,7c0,0.3-0.4,0.6-0.7,0.6h-15.3c-0.4,0-0.7-0.3-0.7-0.6v-30.3
				c0-0.4,0.3-0.7,0.7-0.7h8.1c0.4,0,0.7,0.3,0.7,0.7v22.7H153.1z"/>
			<path fill="#777777" d="M224.6,134.9c0.1-0.5,0.5-0.6,0.8-0.4c2.1,1.2,4.6,2.1,6.4,2.2c1.5,0,2.4-0.7,2.4-1.7
				c0-2.7-12.9-2.6-12.9-12.5c0-6.1,4.6-10.2,11.6-10.2c3.2,0,7.4,1.3,10.2,3.3c0.4,0.2,0.5,0.6,0.4,0.8l-2.9,6.4
				c-0.1,0.5-0.5,0.6-0.8,0.4c-2.2-1.3-4.9-2.2-6.4-2.4c-1.4,0-2.3,0.6-2.3,1.7c0,2.7,12.9,2.5,12.9,12.6c0,6.1-4.7,10.2-11.8,10.2
				c-3.9,0-7.9-1.2-10.2-3c-0.4-0.3-0.5-0.6-0.4-0.8L224.6,134.9z"/>
			<path fill="#777777" d="M203.8,144c0.1,0.3-0.1,0.6-0.4,0.6h-9.1c-0.4,0-0.8-0.2-1-0.6l-0.7-2.8h-9.9L182,144
				c-0.2,0.4-0.6,0.6-1,0.6H172c-0.4,0-0.6-0.3-0.4-0.6l10.3-30.4c0.1-0.3,0.6-0.6,1.1-0.6h9.3c0.5,0,1,0.3,1.1,0.6L203.8,144z
				 M187.7,123.9l-2.5,8.7h4.9L187.7,123.9z"/>
		</g>
	</g>
</g>
</svg>
