<?xml version="1.0" encoding="utf-8"?>
<!-- Generator: Adobe Illustrator 21.0.1, SVG Export Plug-In . SVG Version: 6.00 Build 0)  -->
<svg version="1.2" baseProfile="tiny" id="Layer_1" xmlns="http://www.w3.org/2000/svg" xmlns:xlink="http://www.w3.org/1999/xlink"
	 x="0px" y="0px" viewBox="0 0 300 180" overflow="inherit" xml:space="preserve">
<rect x="80.8" y="21.7" fill="#777777" width="138.6" height="138.6"/>
<rect x="80.8" y="21.7" fill="none" stroke="#D57B19" stroke-width="0.1956" width="138.6" height="138.6"/>
<path fill="#FFFFFF" d="M205.6,111.8c0.5-13.8-6.6-21.4-19.6-21.4c-12,0-19,8.7-19,21.7c0,13.7,7,21.8,19,21.8h20.3V126h-6
	C203.2,123.1,205.3,118,205.6,111.8 M181.1,112.1c0-7.3,1.5-10.8,4.9-10.8s4.9,3.5,4.9,10.8c0,7.3-1.6,10.8-4.9,10.8
	S181.1,119.3,181.1,112.1"/>
<path fill="#FFFFFF" d="M122.2,111.7c4.8-2.5,6.1-5.5,6.1-10.2C128.2,95.4,123.8,91,115,91H94.9v42.9h20.4c7.4,0,13.9-4.1,13.9-12
	C129.3,116.6,126.7,113.2,122.2,111.7 M108.7,100.7h1.8c2.5,0,3.8,1.1,3.8,3.3c0,2.2-1.3,3.5-3.8,3.5h-1.8V100.7z M111.1,124.2h-2.4
	v-7.7h2.4c2.5,0,4,1.2,4,3.7C115,122.8,113.5,124.2,111.1,124.2"/>
<path fill="#FFFFFF" d="M165.9,134c-0.4-2.6-1.7-5.5-3.7-8.7c0.8-0.8,1.6-1.7,2.5-2.7l-5.2-6.1c-0.8,0.7-1.5,1.4-2.3,2.1
	c-1.1-1.3-2.2-2.6-3.5-3.9c3.6-2.5,6.1-5.6,6.1-9.7c0-4.5-3.9-9-11.2-9c-7.6,0-11.9,4.4-11.9,9.4c0,2.9,1.7,5.7,3.6,7.9
	c-3.6,2.4-6.7,5.8-6.9,10c-0.5,7.4,5.2,11.4,12.2,11.1c2.8-0.1,5.8-1,9.4-3.2c0.6,1,0.9,2,1.1,2.7H165.9z M148.5,102.9
	c1.3,0,2.2,1.3,2.2,2.6c0,0.9-0.6,2.2-2.6,3.5c-1.2-1.4-2-2.5-2-3.6C146.2,104.2,147.1,102.9,148.5,102.9 M144.5,125.2
	c-1.1-0.9-2-3.8,1.2-6c1.4,1.5,2.9,3.3,4.5,5.2C148,125.9,146.1,126.5,144.5,125.2"/>
</svg>
