<?xml version="1.0" encoding="utf-8"?>
<!-- Generator: Adobe Illustrator 19.2.0, SVG Export Plug-In . SVG Version: 6.00 Build 0)  -->
<svg version="1.1" baseProfile="tiny" id="Layer_1" xmlns="http://www.w3.org/2000/svg" xmlns:xlink="http://www.w3.org/1999/xlink"
	 x="0px" y="0px" viewBox="0 0 300 180" xml:space="preserve">
<rect x="80.79" y="21.71" fill="#D57B19" width="138.58" height="138.58"/>
<rect x="80.79" y="21.71" fill="none" stroke="#D57B19" stroke-width="0.1956" width="138.58" height="138.58"/>
<path fill="#FFFFFF" d="M205.58,111.82c0.51-13.77-6.65-21.44-19.6-21.44c-12,0-18.98,8.72-18.98,21.71c0,13.7,6.97,21.8,18.98,21.8
	h20.29v-7.91h-5.97C203.24,123.07,205.34,118.03,205.58,111.82 M181.12,112.08c0-7.27,1.54-10.76,4.86-10.76
	c3.32,0,4.87,3.49,4.87,10.76c0,7.27-1.55,10.75-4.87,10.75C182.66,122.83,181.12,119.35,181.12,112.08"/>
<path fill="#FFFFFF" d="M122.17,111.72c4.79-2.51,6.14-5.52,6.08-10.25C128.17,95.38,123.83,91,114.98,91H94.89v42.93h20.45
	c7.44,0,13.95-4.08,13.95-12.04C129.29,116.61,126.73,113.16,122.17,111.72 M108.69,100.72h1.78c2.46,0,3.78,1.11,3.78,3.33
	c0,2.23-1.32,3.51-3.78,3.51h-1.78V100.72z M111.05,124.19h-2.36v-7.65h2.36c2.49,0,4,1.24,4,3.73
	C115.04,122.77,113.54,124.19,111.05,124.19"/>
<path fill="#FFFFFF" d="M165.9,133.96c-0.38-2.56-1.68-5.52-3.73-8.74c0.82-0.82,1.65-1.7,2.51-2.66l-5.24-6.07
	c-0.76,0.68-1.52,1.37-2.27,2.06c-1.08-1.28-2.24-2.58-3.49-3.89c3.63-2.46,6.09-5.62,6.09-9.66c0-4.46-3.95-8.97-11.18-8.97
	c-7.57,0-11.89,4.37-11.89,9.42c0,2.86,1.74,5.66,3.56,7.88c-3.56,2.45-6.66,5.83-6.92,10.01c-0.47,7.43,5.25,11.4,12.23,11.1
	c2.79-0.11,5.84-0.99,9.36-3.22c0.56,1.04,0.95,1.98,1.1,2.74H165.9z M148.5,102.87c1.33,0,2.24,1.29,2.24,2.58
	c0,0.89-0.55,2.15-2.6,3.53c-1.24-1.37-1.98-2.5-1.98-3.62C146.16,104.18,147.1,102.87,148.5,102.87 M144.53,125.2
	c-1.15-0.94-1.99-3.82,1.23-5.96c1.36,1.51,2.94,3.33,4.46,5.22C148,125.91,146.05,126.46,144.53,125.2"/>
</svg>
