<?xml version="1.0" encoding="utf-8"?>
<!-- Generator: Adobe Illustrator 19.2.0, SVG Export Plug-In . SVG Version: 6.00 Build 0)  -->
<svg version="1.1" baseProfile="tiny" id="Layer_1" xmlns="http://www.w3.org/2000/svg" xmlns:xlink="http://www.w3.org/1999/xlink"
	 x="0px" y="0px" viewBox="0 0 300 180" xml:space="preserve">
<g id="XMLID_392_">
	<path id="XMLID_393_" fill="#381950" d="M32.93,79.46c2.4-2.3,4.8-3.35,8.33-3.35c7.93,0,14.75,6.66,14.75,15.3
		c0,8.78-7.42,15.3-15.88,15.3c-7.61,0.04-14.39-6.38-14.39-15.7V66.93l7.2-0.91C32.93,66.02,32.93,79.46,32.93,79.46z M32.93,91.46
		c0,4.7,3.67,8.69,8.51,8.69c4.07,0,7.79-4.03,7.79-8.74c0-4.71-3.67-8.74-7.79-8.74C36.59,82.72,32.93,86.75,32.93,91.46z"/>
	<path id="XMLID_396_" fill="#381950" d="M60.45,106.31V66.93l7.2-0.91v39.29L60.45,106.31z"/>
	<path id="XMLID_398_" fill="#381950" d="M73.03,77.02l7.2-0.91v29.1l-7.2,1.05V77.02z"/>
	<path id="XMLID_401_" fill="#381950" d="M85.84,77.02l6.78-0.68v3.98h0.14c2.44-3.31,4.8-4.21,8.82-4.21c5.93,0,9.91,3.8,9.91,9.91
		v19.29l-7.2,0.95V87.99c0-3.08-1.41-5.61-4.66-5.61c-4.52,0-6.66,3.45-6.66,7.1v15.88l-7.2,0.95v-29.3H85.84z"/>
	<path id="XMLID_403_" fill="#381950" d="M139.3,102.73c-2.99,2.99-4.98,4.03-8.96,4.03c-8.24,0-14.21-7.33-14.21-15.3
		c0-8.01,6.02-15.3,14.21-15.3c2.9,0,5.89,0.86,8.56,3.08v-12.3l7.2-0.91v39.43l-6.78,1.09v-3.8H139.3z M131.24,100.14
		c4.8,0,8.33-4.03,8.33-8.74c0-4.71-3.53-8.74-8.33-8.74c-4.8,0-8.33,4.03-8.33,8.74C122.92,96.17,126.45,100.14,131.24,100.14z"/>
	<path id="XMLID_406_" fill="#381950" d="M154.6,97.66c1.86,1.99,3.76,3.08,6.52,3.08c2.3,0,4.03-1.49,4.03-2.94
		c0-5.16-14.21-1.81-14.21-12.81c0-5.89,5.21-8.82,10.55-8.82c4.07,0,7.93,1.63,10.64,4.7l-4.7,4.16c-1.41-1.54-3.21-2.9-5.43-2.9
		c-2.08,0-3.45,0.81-3.45,2.99c0,4.7,14.21,1.49,14.21,12.09c0,6.56-5.97,9.5-11.82,9.5c-4.03,0-8.15-1.54-10.82-4.66L154.6,97.66z"
		/>
	<path id="XMLID_408_" fill="#AFB4BB" d="M176.78,105.85l11.04-13.49c2.9-3.57,8.33-9.24,8.33-13.62c0-3.21-2.18-5.89-6.43-5.89
		c-3.98,0-6.2,2.9-6.2,6.25c0,2.85,2.22,5.61,5.12,5.84l-4.58,6.07c-2.72-1.05-8.01-4.12-8.01-12.53c0-6.02,4.34-12.41,14.35-12.41
		c7.38,0,13.22,5.39,13.22,12.95c0,8.11-7.87,14.17-12.63,19.69h13.4l-1.86,7.2h-25.75L176.78,105.85L176.78,105.85z"/>
	<path id="XMLID_410_" fill="#381950" d="M214.13,96.93c-4.94-2.08-6.78-4.66-6.78-9.46c0-6.74,5.84-11.36,13.17-11.36
		c3.31,0,5.89,0.36,6.98,0.36c2.85,0,6.78-0.91,10.05-1.94l-1.45,6.16h-4.44c1.81,2.04,2.9,4.12,2.9,7.02
		c0,4.03-2.49,6.98-6.11,8.47c4.03,1.94,6.66,4.89,6.66,9.46c0,7.83-7.56,11.36-13.62,11.36c-6.56,0-10.77-1.63-14.57-5.79
		l4.44-4.58c3.08,3.17,4.89,4.34,9.42,4.34c2.9,0,6.88-1.76,6.88-5.61c0-4.44-3.45-6.47-7.65-6.47c-2.49,0-4.89,0.91-6.98,2.08
		L214.13,96.93z M220.96,93.5c3.31,0,6.43-2.54,6.43-6.02c0-3.39-3.13-5.97-6.43-5.97c-3.3,0-6.43,2.54-6.43,5.97
		C214.53,90.92,217.66,93.5,220.96,93.5z"/>
	<path id="XMLID_413_" fill="#381950" d="M254.64,76.11c8.51,0,15.98,6.66,15.98,15.3s-7.47,15.3-15.98,15.3
		c-8.51,0-15.98-6.66-15.98-15.3S246.13,76.11,254.64,76.11z M254.64,100.14c4.89,0,9.18-3.8,9.18-8.74s-4.3-8.74-9.18-8.74
		c-4.89,0-9.18,3.8-9.18,8.74C245.45,96.39,249.74,100.14,254.64,100.14z"/>
</g>
<g>
	<path fill="#381950" d="M270.8,75.98h-2.4v-1.27h6.29v1.27h-2.4v6.66h-1.49V75.98z M276.19,74.71h2.26l2.12,6.07h0.04l2.12-6.07
		H285v7.93h-1.49v-6.61h-0.04l-2.3,6.61h-1.23l-2.3-6.61h-0.04v6.61h-1.49v-7.93H276.19z"/>
</g>
<path fill="#381950" stroke="#20201E" stroke-width="0.2264" stroke-miterlimit="10" d="M44.25,69.23"/>
<polygon id="XMLID_399_" fill="#381950" points="79.91,71.22 72.72,72.27 72.72,65.34 79.87,64.39 "/>
<path fill="#381950" stroke="#20201E" stroke-width="0.2264" stroke-miterlimit="10" d="M45.06,75.75"/>
</svg>
