<?xml version="1.0" encoding="utf-8"?>
<!-- Generator: Adobe Illustrator 21.0.1, SVG Export Plug-In . SVG Version: 6.00 Build 0)  -->
<svg version="1.2" baseProfile="tiny" id="Layer_1" xmlns="http://www.w3.org/2000/svg" xmlns:xlink="http://www.w3.org/1999/xlink"
	 x="0px" y="0px" viewBox="0 0 300 180" overflow="scroll" xml:space="preserve">
<g id="XMLID_392_">
	<path id="XMLID_393_" fill="#777777" d="M32.9,79.5c2.4-2.3,4.8-3.3,8.3-3.3c7.9,0,14.8,6.7,14.8,15.3c0,8.8-7.4,15.3-15.9,15.3
		c-7.6,0-14.4-6.4-14.4-15.7V66.9l7.2-0.9C32.9,66,32.9,79.5,32.9,79.5z M32.9,91.5c0,4.7,3.7,8.7,8.5,8.7c4.1,0,7.8-4,7.8-8.7
		s-3.7-8.7-7.8-8.7C36.6,82.7,32.9,86.8,32.9,91.5z"/>
	<path id="XMLID_396_" fill="#777777" d="M60.5,106.3V66.9l7.2-0.9v39.3L60.5,106.3z"/>
	<path id="XMLID_398_" fill="#777777" d="M73,77l7.2-0.9v29.1l-7.2,1.1V77z"/>
	<path id="XMLID_401_" fill="#777777" d="M85.8,77l6.8-0.7v4h0.1c2.4-3.3,4.8-4.2,8.8-4.2c5.9,0,9.9,3.8,9.9,9.9v19.3l-7.2,0.9V88
		c0-3.1-1.4-5.6-4.7-5.6c-4.5,0-6.7,3.4-6.7,7.1v15.9l-7.2,0.9L85.8,77L85.8,77L85.8,77z"/>
	<path id="XMLID_403_" fill="#777777" d="M139.3,102.7c-3,3-5,4-9,4c-8.2,0-14.2-7.3-14.2-15.3c0-8,6-15.3,14.2-15.3
		c2.9,0,5.9,0.9,8.6,3.1V66.9l7.2-0.9v39.4l-6.8,1.1L139.3,102.7L139.3,102.7L139.3,102.7z M131.2,100.1c4.8,0,8.3-4,8.3-8.7
		s-3.5-8.7-8.3-8.7s-8.3,4-8.3,8.7C122.9,96.2,126.4,100.1,131.2,100.1z"/>
	<path id="XMLID_406_" fill="#777777" d="M154.6,97.7c1.9,2,3.8,3.1,6.5,3.1c2.3,0,4-1.5,4-2.9c0-5.2-14.2-1.8-14.2-12.8
		c0-5.9,5.2-8.8,10.6-8.8c4.1,0,7.9,1.6,10.6,4.7l-4.7,4.2c-1.4-1.5-3.2-2.9-5.4-2.9c-2.1,0-3.4,0.8-3.4,3c0,4.7,14.2,1.5,14.2,12.1
		c0,6.6-6,9.5-11.8,9.5c-4,0-8.1-1.5-10.8-4.7L154.6,97.7z"/>
	<path id="XMLID_408_" fill="#AAAAAA" d="M176.8,105.8l11-13.5c2.9-3.6,8.3-9.2,8.3-13.6c0-3.2-2.2-5.9-6.4-5.9
		c-4,0-6.2,2.9-6.2,6.2c0,2.8,2.2,5.6,5.1,5.8l-4.6,6.1c-2.7-1.1-8-4.1-8-12.5c0-6,4.3-12.4,14.4-12.4c7.4,0,13.2,5.4,13.2,12.9
		c0,8.1-7.9,14.2-12.6,19.7h13.4l-1.9,7.2L176.8,105.8L176.8,105.8L176.8,105.8z"/>
	<path id="XMLID_410_" fill="#777777" d="M214.1,96.9c-4.9-2.1-6.8-4.7-6.8-9.5c0-6.7,5.8-11.4,13.2-11.4c3.3,0,5.9,0.4,7,0.4
		c2.9,0,6.8-0.9,10.1-1.9l-1.4,6.2h-4.4c1.8,2,2.9,4.1,2.9,7c0,4-2.5,7-6.1,8.5c4,1.9,6.7,4.9,6.7,9.5c0,7.8-7.6,11.4-13.6,11.4
		c-6.6,0-10.8-1.6-14.6-5.8l4.4-4.6c3.1,3.2,4.9,4.3,9.4,4.3c2.9,0,6.9-1.8,6.9-5.6c0-4.4-3.4-6.5-7.6-6.5c-2.5,0-4.9,0.9-7,2.1
		L214.1,96.9z M221,93.5c3.3,0,6.4-2.5,6.4-6c0-3.4-3.1-6-6.4-6c-3.3,0-6.4,2.5-6.4,6C214.5,90.9,217.7,93.5,221,93.5z"/>
	<path id="XMLID_413_" fill="#777777" d="M254.6,76.1c8.5,0,16,6.7,16,15.3s-7.5,15.3-16,15.3s-16-6.7-16-15.3
		S246.1,76.1,254.6,76.1z M254.6,100.1c4.9,0,9.2-3.8,9.2-8.7s-4.3-8.7-9.2-8.7c-4.9,0-9.2,3.8-9.2,8.7
		C245.4,96.4,249.7,100.1,254.6,100.1z"/>
</g>
<g>
	<path fill="#777777" d="M270.8,76h-2.4v-1.3h6.3V76h-2.4v6.7h-1.5L270.8,76L270.8,76z M276.2,74.7h2.3l2.1,6.1h0l2.1-6.1h2.3v7.9
		h-1.5V76h0l-2.3,6.6h-1.2l-2.3-6.6h0v6.6h-1.5L276.2,74.7L276.2,74.7z"/>
</g>
<path fill="#381950" stroke="#20201E" stroke-width="0.2264" stroke-miterlimit="10" d="M44.2,69.2"/>
<polygon id="XMLID_399_" fill="#777777" points="79.9,71.2 72.7,72.3 72.7,65.3 79.9,64.4 "/>
<path fill="#381950" stroke="#20201E" stroke-width="0.2264" stroke-miterlimit="10" d="M45.1,75.8"/>
</svg>
