<?xml version="1.0" encoding="utf-8"?>
<!-- Generator: Adobe Illustrator 19.2.0, SVG Export Plug-In . SVG Version: 6.00 Build 0)  -->
<svg version="1.2" baseProfile="tiny" id="Layer_1" xmlns="http://www.w3.org/2000/svg" xmlns:xlink="http://www.w3.org/1999/xlink"
	 x="0px" y="0px" viewBox="0 0 300 180" xml:space="preserve">
<g>
	<path fill="#005CAB" d="M205.1,97.9c0,5.2,0,10.3,0,15.5c-3.5,0-6.9,0-10.4,0c0-0.3,0-0.6,0-0.8c0-6.9,0-13.8,0-20.7
		c0-1.8-0.1-3.6-0.6-5.4c-1-3.1-2.9-5.2-6.1-5.9c-4.8-0.9-8.8,1.7-10,6.5c-0.3,1.3-0.5,2.7-0.5,4c0,7.1,0,14.3,0,21.4
		c0,0.3,0,0.6,0,1c-3.4,0-6.8,0-10.3,0c0-1.3,0-2.4,0-3.5c0,0-0.1,0-0.1-0.1c-0.2,0.2-0.3,0.3-0.5,0.4c-3,2.9-6.6,4.4-10.8,4.2
		c-5.4-0.2-10.1-2-13.7-6c-2.6-2.8-4-6.2-4.4-10c0-0.3-0.1-0.6-0.1-0.9c-1.8,6.7-5.7,11.7-11.9,14.7c-6.3,3-12.6,2.9-18.9,0
		c-3.8-1.8-6.8-4.5-9-8.1c-2.3-3.6-3.4-7.5-3.4-11.7c0-4.2,1.2-8.1,3.4-11.7c0,0,0-0.1-0.1-0.2c-1,0.1-1.9,0.2-2.9,0.4
		c-4.2,0.9-7,4.2-7.3,8.6c-0.1,1.5-0.1,2.9-0.1,4.3c0,6.1,0,12.3,0,18.4c0,0.3,0,0.6,0,0.9c-3.5,0-6.8,0-10.3,0c0-5.1,0-10.3,0-15.3
		c0,0-0.1,0-0.1,0c-0.1,0.2-0.1,0.5-0.2,0.7c-2.6,8.6-8.3,13.8-17.2,15.4c-4.8,0.8-9.4,0.3-13.8-1.9c-5.2-2.6-8.6-6.7-10.4-12.1
		c-0.8-2.3-1.2-4.8-1.2-7.2c-0.1-10.2-0.2-20.4-0.2-30.7c0-0.2,0-0.4,0-0.7c3.4,0,6.6,0,10,0c0,4.9,0,9.7,0,14.5c0,0,0.1,0,0.1,0.1
		c0.1-0.1,0.3-0.2,0.4-0.3c3.3-3.1,7.3-4.6,11.7-4.6c10-0.2,18,6.5,20.4,15.6c0.1,0.3,0.2,0.6,0.2,0.9c0.2-1.1,0.3-2.1,0.6-3.1
		c1.5-5.6,5-9.4,10.3-11.5c3.5-1.5,7.2-1.9,11-1.8c0.1,0,0.2,0,0.4,0.1c0,2.5,0,5,0,7.6c6.1-6.6,13.4-9.3,22-7.3
		c8.6,2.1,13.9,7.8,16.4,16.3c0-8.8,0-17.6,0-26.3c3.5,0,6.9,0,10.4,0c0,3.3,0,6.6,0,10.1c5.4,0,10.6,0,15.9,0c0,3.2,0,6.4,0,9.7
		c-5.2,0-10.5,0-15.8,0c0,0.3,0,0.5,0,0.6c0,3.9,0,7.8,0,11.7c0,1.5,0.1,3,0.4,4.5c0.6,3.5,2.9,5.8,6.5,6.5c2.5,0.5,4.8,0.4,7.1-0.8
		c2.8-1.5,4.3-4,4.8-7c0.3-1.5,0.4-3.1,0.4-4.6c0-9.9,0-19.8,0-29.7c0-0.3,0-0.6,0-0.9c3.4,0,6.8,0,10.2,0c0,4.5,0,9,0,13.6
		c0.2-0.1,0.3-0.2,0.4-0.2c6-5.6,14.8-5.1,20.6-0.4c4,3.2,6.2,7.4,6.7,12.5c0,0.3,0.1,0.5,0.2,0.8c0.1-0.4,0.2-0.7,0.3-1
		c2.5-8.5,8.2-13.6,16.8-15.4c6.3-1.3,12.2,0,17.5,3.7c4.3,3,7,7.1,8.3,12.3c0,0.2,0.1,0.4,0.2,0.6c0.1-0.5,0.1-1,0.2-1.6
		c1-6.2,4.4-10.6,10.1-13.1c3.7-1.7,7.7-2.2,11.7-2.1c0.1,0,0.1,0,0.2,0c0,3.2,0,6.4,0,9.7c-0.4,0-0.8,0-1.1,0c-1.5,0-3,0.2-4.4,0.7
		c-3.6,1.2-5.6,3.8-6.2,7.4c-0.2,1.6-0.2,3.2-0.3,4.9c0,6.2,0,12.5,0,18.7c0,0.3,0,0.5,0,0.8c-0.5,0.2-9.4,0.3-10.3,0.1
		c0-5.8,0-11.5,0-17.4c-11.1,0-22.1,0-33.2,0c0.4,3.5,3.2,8,7.9,9.4c4.8,1.5,11.5-0.2,14.2-6.7c3.3,0,6.6,0,10,0
		c0,0.3-0.1,0.5-0.2,0.7c-2.3,8-7.5,12.9-15.7,14.6c-5.2,1.1-10.4,0.5-15.2-2c-5.6-2.8-9.1-7.3-10.7-13.4c0-0.2-0.1-0.4-0.2-0.5
		C205.2,98,205.1,97.9,205.1,97.9z M43.5,92.6c-0.1,6.4,5.1,11.8,11.5,11.9c6.9,0.1,12.1-4.9,12.4-11.5c0.2-6.4-4.6-12.1-11.7-12.3
		C48.9,80.5,43.6,85.7,43.5,92.6z M128,92.5c0-6.7-5.2-11.9-11.9-11.9c-6.7,0-11.9,5.1-11.9,11.9c0,7,5.4,11.9,11.9,11.9
		C122.8,104.5,128,99.3,128,92.5z M237.5,87.7c-0.5-1.9-1.5-3.4-2.7-4.8c-2.1-2.2-4.7-3.4-7.7-3.6c-6.5-0.3-10.7,4.7-11.5,8.3
		C222.8,87.7,230.1,87.7,237.5,87.7z"/>
	<path fill="#005CAB" d="M270.9,114c-2.8,0-5.2-2.3-5.2-5.1c0-2.8,2.3-5.1,5.2-5.1c2.8,0,5.2,2.3,5.2,5.1
		C276.1,111.7,273.7,114,270.9,114z M270.9,104.5c-2.5,0-4.4,1.9-4.5,4.4c0,2.5,1.9,4.4,4.4,4.4c2.5,0,4.4-1.9,4.4-4.4
		C275.3,106.5,273.4,104.5,270.9,104.5z"/>
	<path fill="#005CAB" d="M273.5,111.9c-0.4,0-0.6,0-0.9,0c-0.1-0.4-0.1-0.8-0.2-1.2c-0.1-1-0.3-1.3-1.3-1.3c-0.4,0-0.9,0-1.4,0
		c0,0-0.1,0-0.2,0.1c0,0.7,0,1.5,0,2.3c-0.3,0-0.6,0-0.8,0c0-2,0-4,0-6c0.1,0,0.2-0.1,0.4-0.1c0.9,0,1.9,0,2.8,0.1
		c0.7,0,1.3,0.3,1.5,1.1c0.2,0.7,0.1,1.4-0.5,2c0,0-0.1,0.1-0.2,0.2C273.4,109.8,273.1,110.9,273.5,111.9z M269.4,106.6
		c0,0.7,0,1.4,0,2.1c0.8,0,1.5,0,2.3,0c0.6,0,0.8-0.4,0.8-1s-0.2-1-0.8-1C271,106.5,270.3,106.6,269.4,106.6z"/>
</g>
</svg>
