<?xml version="1.0" encoding="utf-8"?>
<!-- Generator: Adobe Illustrator 19.2.0, SVG Export Plug-In . SVG Version: 6.00 Build 0)  -->
<svg version="1.1" baseProfile="tiny" id="Layer_1" xmlns="http://www.w3.org/2000/svg" xmlns:xlink="http://www.w3.org/1999/xlink"
	 x="0px" y="0px" viewBox="0 0 300 180" xml:space="preserve">
<g>
	<g>
		<path fill="#1C224E" d="M50.01,51.44h24.35v4.36H54.83v17.45h18.81v4.36H54.83v22h-4.82V51.44z"/>
		<path fill="#1C224E" d="M81.98,83.47c0.33,6.97,6.84,12.89,13.8,12.89c6.51-0.13,11.13-3.97,12.76-8.4h4.82
			c-2.47,7.1-9.31,12.5-17.51,12.5c-9.96,0-18.55-8.07-18.55-18.62c0-10.09,8.14-18.55,18.49-18.75c7.81,0.06,13.35,4.69,15.88,9.11
			c2.41,3.84,2.93,7.81,2.73,11.26H81.98z M109.78,79.36c-1.43-8.4-8.27-12.17-13.93-12.17c-5.6,0-12.56,3.78-13.87,12.17H109.78z"
			/>
	</g>
	<g>
		<path fill="#1C224E" d="M119.76,51.44h4.56v48.17h-4.56V51.44z"/>
		<path fill="#1C224E" d="M131.54,51.44h4.56v48.17h-4.56V51.44z"/>
	</g>
	<g>
		<path fill="#1C224E" d="M160.19,63.09c10.55,0,18.68,8.92,18.68,18.68c0,9.7-8.01,18.68-18.68,18.68
			c-10.42,0-18.55-8.79-18.55-18.42C141.63,70.77,150.81,63.09,160.19,63.09z M160.25,96.35c6.9,0,14.06-5.47,14.06-14.78
			c0-9.37-7.94-14.39-14.06-14.39c-6.51,0-14.06,5.34-14.06,14.78C146.19,90.24,152.89,96.35,160.25,96.35z"/>
		<path fill="#1C224E" d="M178.87,64h4.75l11.2,29.82h0.13l8.14-25.52h3.97l8.2,25.52h0.13L226.72,64h4.69l-13.61,35.61h-5.14
			l-7.55-23.7h-0.13l-7.42,23.7h-5.14L178.87,64z"/>
	</g>
	<g>
		<path fill="#1C224E" d="M236.42,89.06c0.13,6.77,4.75,7.29,6.38,7.29c4.3,0,6.64-2.54,6.64-6.38c0-4.88-4.43-5.99-7.1-7.1
			c-3.65-1.24-9.44-3.19-9.44-9.9c0-5.01,3.58-9.9,10.16-9.9c5.34,0,9.76,4.1,9.7,9.7h-4.56c-0.33-4.36-3.32-5.6-5.34-5.6
			c-3.65,0-5.4,2.93-5.4,5.34c0,3.78,3.77,5.08,6.38,5.92c4.17,1.37,10.16,3.65,10.16,11c0.07,6.12-3.65,11-11.2,11
			c-4.95,0-11.13-3.38-10.94-11.39H236.42z"/>
	</g>
	<g>
		<path fill="#1C224E" d="M98.16,119.7c-0.53,1.13-0.96,2.2-1.29,3.22c-2.46-0.08-4.2-0.12-5.25-0.12c-1.03,0-2.77,0.04-5.24,0.12
			c-0.1,0-0.16-0.09-0.16-0.27c0-0.16,0.05-0.25,0.16-0.26c0.54-0.07,0.95-0.15,1.24-0.26c0.29-0.11,0.49-0.25,0.6-0.43
			c0.11-0.18,0.17-0.5,0.17-0.96v-9.2c0-0.45-0.05-0.77-0.16-0.95c-0.11-0.19-0.3-0.33-0.59-0.45c-0.29-0.11-0.71-0.2-1.26-0.26
			c-0.1,0-0.16-0.09-0.16-0.27c0-0.18,0.05-0.27,0.16-0.27c1.64,0.08,3.32,0.12,5.04,0.12c1.73,0,3.42-0.04,5.05-0.12
			c0.15,1.01,0.37,2.01,0.65,2.99c0,0.13-0.11,0.2-0.34,0.2c-0.11,0-0.18-0.05-0.21-0.14c-0.48-1.54-1.51-2.31-3.09-2.31h-1.97
			c-0.76,0-1.13,0.39-1.13,1.17v4.35h2.46c0.65,0,1.1-0.15,1.33-0.45c0.23-0.3,0.39-0.83,0.49-1.59c0-0.1,0.09-0.16,0.27-0.16
			c0.18,0,0.27,0.05,0.27,0.16c0,0.33-0.02,0.74-0.06,1.23c-0.04,0.48-0.06,0.86-0.06,1.16c0,0.31,0.02,0.7,0.06,1.17
			c0.04,0.51,0.06,0.92,0.06,1.25c0,0.1-0.09,0.16-0.27,0.16c-0.18,0-0.27-0.05-0.27-0.16c-0.1-0.79-0.27-1.35-0.52-1.67
			c-0.25-0.32-0.68-0.48-1.3-0.48H90.4v4.81c0,0.77,0.38,1.15,1.13,1.15h2.13c0.77,0,1.54-0.25,2.31-0.76
			c0.76-0.5,1.32-1.13,1.68-1.89c0.03-0.06,0.08-0.09,0.17-0.09c0.09,0,0.17,0.02,0.24,0.07C98.13,119.57,98.16,119.63,98.16,119.7z
			"/>
		<path fill="#1C224E" d="M105.44,120.41c0,0.79-0.31,1.46-0.94,2c-0.62,0.54-1.38,0.81-2.26,0.81c-0.31,0-0.79-0.07-1.44-0.2
			c-0.49-0.1-0.82-0.15-0.99-0.15c-0.05-0.46-0.17-1.15-0.36-2.08c0-0.1,0.09-0.15,0.28-0.15c0.16,0,0.25,0.05,0.28,0.16
			c0.15,0.48,0.45,0.9,0.89,1.26c0.44,0.36,0.9,0.54,1.37,0.54c0.49,0,0.87-0.13,1.14-0.4c0.27-0.27,0.41-0.64,0.41-1.12
			c0-0.31-0.11-0.58-0.34-0.81c-0.22-0.23-0.71-0.52-1.46-0.87c-0.98-0.45-1.63-0.87-1.95-1.27c-0.32-0.4-0.47-0.87-0.47-1.43
			c0-0.68,0.3-1.27,0.89-1.76c0.59-0.49,1.29-0.74,2.1-0.74c0.34,0,0.81,0.06,1.43,0.18c0.34,0.07,0.56,0.1,0.66,0.1
			c0.02,0.77,0.06,1.42,0.13,1.96c0,0.1-0.09,0.15-0.28,0.15c-0.16,0-0.25-0.05-0.27-0.16c-0.07-0.48-0.25-0.86-0.54-1.16
			c-0.29-0.3-0.63-0.45-1.02-0.45c-1.01,0-1.52,0.44-1.52,1.33c0,0.3,0.12,0.58,0.36,0.83c0.24,0.25,0.76,0.58,1.57,0.99
			c0.96,0.48,1.59,0.9,1.9,1.25C105.29,119.56,105.44,119.96,105.44,120.41z"/>
	</g>
	<g>
		<path fill="#1C224E" d="M112.67,115.15c0,0.35-0.08,0.53-0.25,0.53l-2.91-0.08v4.69c0,1.23,0.44,1.84,1.31,1.84
			c0.54,0,1.03-0.13,1.47-0.38c0.05,0,0.1,0.03,0.14,0.1c0.04,0.07,0.06,0.14,0.06,0.22c0,0.16-0.24,0.38-0.73,0.66
			c-0.48,0.28-1.03,0.42-1.63,0.42c-0.74,0-1.33-0.23-1.77-0.68c-0.44-0.45-0.66-1.05-0.66-1.79v-0.09l0.04-4.75
			c0-0.18-0.08-0.27-0.23-0.27h-0.74c-0.14,0-0.21-0.08-0.21-0.25c0-0.13,0.06-0.22,0.18-0.29c0.9-0.54,1.69-1.29,2.36-2.27
			c0.07-0.1,0.16-0.16,0.27-0.16c0.18,0,0.27,0.05,0.27,0.16l-0.08,1.87h2.87C112.58,114.62,112.67,114.8,112.67,115.15z"/>
		<path fill="#1C224E" d="M120.22,123.14c-0.36,0-0.68-0.09-0.95-0.27c-0.27-0.18-0.45-0.42-0.55-0.73
			c-0.7,0.72-1.61,1.07-2.74,1.07c-0.59,0-1.06-0.18-1.44-0.54c-0.37-0.36-0.56-0.81-0.56-1.35c0-1.34,1.58-2.42,4.75-3.24
			l0.06-1.52v-0.05c0-0.47-0.12-0.84-0.35-1.12c-0.23-0.28-0.54-0.42-0.92-0.42c-0.38,0-0.71,0.09-0.98,0.28
			c-0.27,0.19-0.4,0.42-0.41,0.7c-0.01,0.42-0.12,0.74-0.33,0.98c-0.21,0.24-0.49,0.35-0.85,0.35c-0.21,0-0.38-0.06-0.51-0.19
			c-0.13-0.12-0.2-0.29-0.2-0.5c0-0.5,0.46-1.03,1.37-1.58c0.91-0.55,1.76-0.83,2.54-0.83c0.7,0,1.27,0.21,1.71,0.63
			c0.44,0.42,0.65,0.98,0.65,1.68v0.12l-0.15,4.42v0.07c0,0.68,0.22,1.03,0.66,1.03c0.21,0,0.47-0.13,0.75-0.39l0.07-0.02
			c0.05,0,0.1,0.03,0.15,0.1c0.05,0.07,0.07,0.14,0.07,0.22c0,0.19-0.2,0.42-0.59,0.69C121.11,123,120.68,123.14,120.22,123.14z
			 M118.73,118.74c-1.9,0.43-2.84,1.14-2.84,2.14c0,0.93,0.36,1.39,1.07,1.39c0.34,0,0.68-0.09,1.02-0.26
			c0.33-0.17,0.56-0.39,0.68-0.64L118.73,118.74z"/>
	</g>
	<g>
		<path fill="#1C224E" d="M132.07,118.67c0,1.2-0.42,2.26-1.27,3.17c-0.85,0.92-1.83,1.38-2.94,1.38c-0.62,0-1.22-0.13-1.8-0.39
			c-0.4-0.18-0.75-0.27-1.06-0.27c-0.49,0-0.81,0.21-0.97,0.63c-0.03,0.08-0.11,0.12-0.24,0.12c-0.17,0-0.25-0.05-0.25-0.16
			c0.05-0.55,0.08-1.2,0.08-1.97v-9.52c0-0.53-0.07-0.87-0.2-1.03c-0.13-0.16-0.42-0.27-0.87-0.31c-0.1,0-0.16-0.08-0.16-0.24
			c0-0.19,0.05-0.28,0.16-0.28c1.16-0.3,1.98-0.65,2.46-1.03c0.1-0.08,0.18-0.12,0.24-0.12c0.18,0,0.27,0.05,0.27,0.16
			c-0.1,1.42-0.16,2.56-0.16,3.42v2.92c0.61-0.61,1.36-0.92,2.25-0.92c1.33,0,2.4,0.4,3.22,1.2
			C131.66,116.21,132.07,117.3,132.07,118.67z M130.1,118.75c0-1.2-0.24-2.14-0.71-2.82c-0.48-0.68-1.15-1.02-2.01-1.02
			c-0.46,0-0.92,0.17-1.36,0.52c-0.44,0.35-0.66,0.69-0.66,1.04V121c0,0.35,0.26,0.7,0.79,1.05c0.53,0.36,1.01,0.53,1.46,0.53
			c0.78,0,1.39-0.35,1.83-1.05C129.88,120.84,130.1,119.91,130.1,118.75z"/>
		<path fill="#1C224E" d="M137.65,122.63c0,0.18-0.05,0.27-0.16,0.27c-0.27,0-0.61-0.02-1.03-0.05c-0.47-0.03-0.86-0.05-1.18-0.05
			c-0.31,0-0.7,0.02-1.16,0.05c-0.42,0.03-0.76,0.05-1.03,0.05c-0.1,0-0.16-0.09-0.16-0.27c0-0.16,0.05-0.25,0.16-0.26
			c0.55-0.07,0.91-0.2,1.08-0.4c0.17-0.2,0.25-0.62,0.25-1.25v-9.07c0-0.53-0.07-0.87-0.2-1.03c-0.13-0.16-0.43-0.27-0.9-0.32
			c-0.1-0.01-0.16-0.1-0.16-0.25c0-0.16,0.05-0.24,0.16-0.24c0.68-0.18,1.24-0.36,1.68-0.56c0.44-0.2,0.71-0.37,0.82-0.5
			c0.07-0.07,0.14-0.11,0.21-0.11c0.18,0,0.27,0.05,0.27,0.16c-0.1,1.46-0.16,2.59-0.16,3.4v8.53c0,0.64,0.08,1.06,0.24,1.25
			c0.16,0.2,0.52,0.33,1.08,0.4C137.6,122.38,137.65,122.47,137.65,122.63z"/>
	</g>
	<g>
		<path fill="#1C224E" d="M143.47,122.65c0,0.18-0.05,0.27-0.16,0.27c-0.27,0-0.61-0.02-1.03-0.06c-0.47-0.04-0.86-0.06-1.18-0.06
			c-0.32,0-0.71,0.02-1.17,0.06c-0.41,0.04-0.75,0.06-1.02,0.06c-0.1,0-0.16-0.09-0.16-0.27c0-0.16,0.05-0.25,0.16-0.26
			c0.55-0.07,0.91-0.21,1.07-0.4c0.16-0.2,0.24-0.61,0.24-1.25v-3.61c0-0.52-0.07-0.86-0.2-1.02c-0.13-0.16-0.43-0.27-0.87-0.32
			c-0.1,0-0.16-0.09-0.16-0.26c0-0.16,0.05-0.24,0.16-0.24c0.68-0.18,1.24-0.36,1.67-0.56c0.44-0.2,0.71-0.36,0.82-0.49
			c0.06-0.08,0.14-0.12,0.21-0.12c0.18,0,0.27,0.05,0.27,0.16c-0.1,1.46-0.16,2.59-0.16,3.4v3.07c0,0.64,0.08,1.05,0.24,1.25
			c0.16,0.2,0.52,0.33,1.09,0.4C143.42,122.4,143.47,122.49,143.47,122.65z M142.11,110.84c0,0.27-0.1,0.51-0.3,0.71
			c-0.2,0.2-0.44,0.3-0.72,0.3c-0.28,0-0.52-0.1-0.72-0.3c-0.2-0.2-0.3-0.44-0.3-0.71c0-0.29,0.1-0.53,0.29-0.72
			c0.2-0.2,0.44-0.29,0.72-0.29c0.28,0,0.52,0.1,0.72,0.29C142.01,110.31,142.11,110.56,142.11,110.84z"/>
		<path fill="#1C224E" d="M150.72,120.41c0,0.79-0.31,1.46-0.94,2c-0.62,0.54-1.38,0.81-2.26,0.81c-0.31,0-0.79-0.07-1.44-0.2
			c-0.49-0.1-0.82-0.15-0.99-0.15c-0.05-0.46-0.17-1.15-0.36-2.08c0-0.1,0.09-0.15,0.28-0.15c0.16,0,0.25,0.05,0.28,0.16
			c0.15,0.48,0.45,0.9,0.89,1.26c0.44,0.36,0.9,0.54,1.37,0.54c0.49,0,0.87-0.13,1.14-0.4c0.27-0.27,0.41-0.64,0.41-1.12
			c0-0.31-0.11-0.58-0.34-0.81c-0.22-0.23-0.71-0.52-1.46-0.87c-0.98-0.45-1.63-0.87-1.95-1.27c-0.32-0.4-0.47-0.87-0.47-1.43
			c0-0.68,0.3-1.27,0.89-1.76c0.59-0.49,1.29-0.74,2.1-0.74c0.34,0,0.81,0.06,1.43,0.18c0.34,0.07,0.56,0.1,0.66,0.1
			c0.02,0.77,0.06,1.42,0.13,1.96c0,0.1-0.09,0.15-0.28,0.15c-0.16,0-0.25-0.05-0.27-0.16c-0.07-0.48-0.25-0.86-0.54-1.16
			c-0.29-0.3-0.63-0.45-1.02-0.45c-1.01,0-1.52,0.44-1.52,1.33c0,0.3,0.12,0.58,0.36,0.83c0.24,0.25,0.76,0.58,1.57,0.99
			c0.96,0.48,1.59,0.9,1.9,1.25C150.57,119.56,150.72,119.96,150.72,120.41z"/>
	</g>
	<g>
		<path fill="#1C224E" d="M162.13,122.65c0,0.18-0.05,0.27-0.16,0.27c-0.26,0-0.58-0.02-0.97-0.06c-0.42-0.04-0.78-0.06-1.1-0.06
			c-0.33,0-0.7,0.02-1.13,0.06c-0.38,0.04-0.71,0.06-0.97,0.06c-0.1,0-0.15-0.09-0.15-0.27c0-0.16,0.05-0.25,0.15-0.26
			c0.45-0.05,0.75-0.18,0.89-0.38c0.14-0.2,0.21-0.63,0.21-1.27v-3.26c0-1.41-0.64-2.11-1.92-2.11c-0.81,0-1.51,0.33-2.1,0.98v4.4
			c0,0.59,0.09,0.99,0.25,1.22c0.17,0.23,0.5,0.37,1,0.43c0.11,0.01,0.16,0.1,0.16,0.26c0,0.18-0.05,0.27-0.16,0.27
			c-0.27,0-0.61-0.02-1.04-0.06c-0.48-0.04-0.88-0.06-1.2-0.06c-0.32,0-0.69,0.02-1.11,0.06c-0.37,0.04-0.69,0.06-0.96,0.06
			c-0.1,0-0.16-0.09-0.16-0.27c0-0.16,0.05-0.25,0.16-0.26c0.55-0.06,0.9-0.19,1.07-0.39c0.16-0.2,0.24-0.62,0.24-1.26v-9.07
			c0-0.53-0.06-0.87-0.19-1.04c-0.13-0.16-0.42-0.27-0.88-0.32c-0.1-0.01-0.16-0.1-0.16-0.25c0-0.17,0.05-0.26,0.16-0.26
			c1.11-0.26,1.93-0.61,2.46-1.04c0.1-0.08,0.18-0.12,0.24-0.12c0.18,0,0.27,0.05,0.27,0.16c-0.1,1.07-0.16,2.2-0.16,3.4v3.31
			c0.93-0.89,1.86-1.33,2.76-1.33c0.93,0,1.66,0.25,2.19,0.76c0.53,0.51,0.8,1.19,0.8,2.05v3.73c0,0.64,0.08,1.06,0.25,1.25
			c0.17,0.2,0.53,0.33,1.08,0.4C162.08,122.4,162.13,122.49,162.13,122.65z"/>
		<path fill="#1C224E" d="M170.54,117.38c0,0.18-0.12,0.27-0.35,0.27h-5.35c-0.04,0.35-0.06,0.72-0.06,1.09
			c0,1.05,0.25,1.85,0.75,2.42c0.5,0.56,1.21,0.85,2.12,0.85c0.46,0,0.93-0.12,1.4-0.37c0.47-0.25,0.85-0.56,1.13-0.95l0.05-0.02
			c0.06,0,0.12,0.04,0.17,0.11c0.06,0.07,0.08,0.16,0.08,0.25c0,0.14-0.21,0.42-0.62,0.85c-0.42,0.43-0.87,0.76-1.36,0.99
			c-0.49,0.23-1,0.34-1.53,0.34c-1.17,0-2.16-0.43-2.96-1.29c-0.8-0.86-1.2-1.91-1.2-3.16c0-1.28,0.39-2.36,1.18-3.24
			c0.78-0.89,1.78-1.33,2.98-1.33c1.01,0,1.86,0.33,2.54,0.99C170.2,115.85,170.54,116.58,170.54,117.38z M168.76,116.52
			c0-0.49-0.17-0.89-0.5-1.22c-0.33-0.32-0.77-0.48-1.29-0.48c-0.5,0-0.94,0.21-1.3,0.63c-0.37,0.42-0.62,0.97-0.75,1.66l2.72-0.08
			c0.41-0.01,0.7-0.05,0.87-0.12C168.68,116.84,168.76,116.71,168.76,116.52z"/>
	</g>
	<g>
		<path fill="#1C224E" d="M181.76,122.28c0,0.14-0.05,0.22-0.16,0.23c-0.37,0.05-0.8,0.14-1.29,0.27c-0.49,0.14-0.87,0.27-1.15,0.41
			c-0.14,0.07-0.25,0.11-0.31,0.11c-0.1,0-0.16-0.05-0.16-0.16l0.08-1.05c-0.69,0.76-1.57,1.13-2.64,1.13
			c-1.13,0-2.09-0.43-2.88-1.3c-0.79-0.87-1.19-1.91-1.19-3.12c0-1.37,0.44-2.49,1.31-3.34c0.88-0.85,1.98-1.27,3.3-1.27
			c0.76,0,1.45,0.23,2.09,0.7v-3.25c0-0.53-0.07-0.87-0.2-1.03c-0.13-0.16-0.43-0.27-0.9-0.32c-0.1-0.01-0.16-0.1-0.16-0.25
			c0-0.17,0.05-0.26,0.16-0.26c0.61-0.14,1.15-0.32,1.6-0.52c0.45-0.2,0.76-0.38,0.91-0.54c0.07-0.07,0.13-0.1,0.21-0.1
			c0.18,0,0.28,0.05,0.28,0.16c-0.11,1.42-0.16,2.55-0.16,3.4v8.6c0,0.45,0.07,0.75,0.2,0.9c0.13,0.15,0.43,0.26,0.9,0.33
			C181.71,122.02,181.76,122.1,181.76,122.28z M178.77,121.23v-5.01c0-0.34-0.2-0.66-0.59-0.96c-0.39-0.3-0.82-0.45-1.28-0.45
			c-1.9,0-2.85,1.34-2.85,4.01c0,1.06,0.23,1.93,0.68,2.63c0.46,0.7,1.05,1.05,1.8,1.05c0.42,0,0.81-0.1,1.15-0.29
			C178.02,122.02,178.39,121.7,178.77,121.23z"/>
	</g>
	<g>
		<path fill="#1C224E" d="M193.5,122.66c0,0.18-0.05,0.27-0.14,0.27c-0.27,0-0.67-0.02-1.19-0.06c-0.56-0.04-1.01-0.06-1.32-0.06
			c-0.32,0-0.77,0.02-1.33,0.06c-0.51,0.04-0.9,0.06-1.16,0.06c-0.1,0-0.16-0.09-0.16-0.27c0-0.11,0.02-0.18,0.07-0.21
			c0.05-0.03,0.14-0.05,0.29-0.07c0.51-0.07,0.84-0.15,0.99-0.25c0.15-0.1,0.26-0.25,0.32-0.45c0.07-0.2,0.1-0.49,0.1-0.86v-4.52
			c0-0.41-0.04-0.72-0.13-0.93s-0.22-0.35-0.4-0.43c-0.18-0.08-0.49-0.14-0.94-0.2c-0.13-0.01-0.22-0.04-0.26-0.07
			c-0.04-0.03-0.06-0.1-0.06-0.21c0-0.18,0.05-0.27,0.16-0.27c0.27,0,0.66,0.02,1.16,0.06c0.56,0.04,1.01,0.06,1.33,0.06
			c0.32,0,0.76-0.02,1.32-0.06c0.52-0.04,0.92-0.06,1.19-0.06c0.09,0,0.14,0.09,0.14,0.27c0,0.17-0.1,0.26-0.3,0.28
			c-0.53,0.06-0.87,0.14-1.03,0.23c-0.16,0.09-0.27,0.25-0.34,0.46c-0.07,0.21-0.1,0.5-0.1,0.87v4.52c0,0.42,0.04,0.73,0.12,0.94
			c0.08,0.21,0.21,0.35,0.39,0.43c0.18,0.08,0.48,0.14,0.91,0.2c0.14,0.01,0.23,0.03,0.28,0.06
			C193.47,122.47,193.5,122.54,193.5,122.66z"/>
		<path fill="#1C224E" d="M202.68,119.82c0,0.96-0.35,1.76-1.05,2.42c-0.7,0.66-1.6,0.98-2.69,0.98c-1.1,0-2-0.3-2.67-0.9
			c-0.68-0.6-1.02-1.35-1.02-2.25c0-0.66,0.25-1.32,0.76-1.99c0.5-0.67,1.18-1.25,2.02-1.74c-1.47-1.19-2.21-2.3-2.21-3.35
			c0-1,0.33-1.83,0.99-2.5c0.66-0.67,1.48-1,2.46-1c1,0,1.82,0.28,2.45,0.85c0.63,0.56,0.95,1.28,0.95,2.14
			c0,0.63-0.23,1.27-0.7,1.91c-0.46,0.64-1.04,1.15-1.72,1.54c0.92,0.79,1.55,1.49,1.9,2.08C202.5,118.6,202.68,119.2,202.68,119.82
			z M200.87,120.33c0-0.58-0.14-1.1-0.41-1.57c-0.27-0.47-0.93-1.13-1.97-2.01c-1.19,0.76-1.78,1.82-1.78,3.2
			c0,0.8,0.2,1.43,0.59,1.92c0.39,0.48,0.91,0.72,1.56,0.72c0.64,0,1.13-0.19,1.48-0.59C200.7,121.62,200.87,121.06,200.87,120.33z
			 M201.28,112.58c0-0.78-0.17-1.38-0.52-1.81c-0.35-0.43-0.82-0.65-1.42-0.65c-0.64,0-1.13,0.19-1.47,0.56
			c-0.34,0.37-0.51,0.91-0.51,1.61c0,0.83,0.8,1.91,2.4,3.25c0.4-0.3,0.76-0.74,1.05-1.31C201.13,113.65,201.28,113.1,201.28,112.58
			z"/>
	</g>
	<g>
		<path fill="#1C224E" d="M211.72,114.41l-0.03,0.1l-5.05,12.6c-0.07,0.17-0.25,0.25-0.57,0.25c-0.29,0-0.43-0.08-0.43-0.24
			l0.01-0.07l4.74-11.02h-4.08c-0.34,0-0.66,0.1-0.94,0.3c-0.28,0.2-0.48,0.46-0.61,0.8c-0.04,0.1-0.13,0.16-0.27,0.16
			c-0.16,0-0.25-0.06-0.27-0.18c0.31-0.99,0.54-1.96,0.68-2.91c0.32,0.08,1.41,0.12,3.24,0.12c1.93,0,3.07-0.04,3.42-0.12
			C211.67,114.19,211.72,114.26,211.72,114.41z"/>
		<path fill="#1C224E" d="M221.65,109.85c0,0.1-0.02,0.16-0.07,0.18c-1.8,0.6-3.31,1.71-4.52,3.33c-1.22,1.62-1.83,3.39-1.83,5.31
			c0,1.24,0.2,2.2,0.59,2.89c0.39,0.69,0.95,1.04,1.68,1.04c0.7,0,1.23-0.3,1.61-0.89c0.37-0.59,0.56-1.44,0.56-2.55
			c0-0.92-0.18-1.64-0.55-2.15c-0.37-0.52-0.87-0.78-1.52-0.78c-0.26,0-0.51,0.06-0.74,0.18l-0.08,0.02c-0.08,0-0.15-0.04-0.21-0.12
			c-0.07-0.08-0.1-0.15-0.1-0.22c0-0.12,0.23-0.33,0.68-0.61c0.45-0.28,0.88-0.42,1.27-0.42c0.94,0,1.7,0.36,2.28,1.07
			c0.57,0.71,0.86,1.65,0.86,2.8c0,1.15-0.41,2.16-1.23,3.01c-0.82,0.86-1.81,1.28-2.98,1.28c-1.19,0-2.16-0.43-2.93-1.28
			c-0.77-0.85-1.15-1.89-1.15-3.1c0-2.26,1.06-4.38,3.17-6.37c0.56-0.53,1.17-1.01,1.82-1.45c0.66-0.44,1.31-0.8,1.96-1.09
			c0.66-0.29,1.06-0.44,1.22-0.44C221.58,109.49,221.65,109.61,221.65,109.85z"/>
	</g>
</g>
</svg>
