<?xml version="1.0" encoding="utf-8"?>
<!-- Generator: Adobe Illustrator 21.0.1, SVG Export Plug-In . SVG Version: 6.00 Build 0)  -->
<svg version="1.2" baseProfile="tiny" id="Layer_1" xmlns="http://www.w3.org/2000/svg" xmlns:xlink="http://www.w3.org/1999/xlink"
	 x="0px" y="0px" viewBox="0 0 300 180" overflow="inherit" xml:space="preserve">
<g>
	<g>
		<path fill="#777777" d="M50,51.4h24.4v4.4H54.8v17.5h18.8v4.4H54.8v22H50C50,99.6,50,51.4,50,51.4z"/>
		<path fill="#777777" d="M82,83.5c0.3,7,6.8,12.9,13.8,12.9c6.5-0.1,11.1-4,12.8-8.4h4.8c-2.5,7.1-9.3,12.5-17.5,12.5
			c-10,0-18.6-8.1-18.6-18.6c0-10.1,8.1-18.5,18.5-18.8c7.8,0.1,13.3,4.7,15.9,9.1c2.4,3.8,2.9,7.8,2.7,11.3L82,83.5L82,83.5z
			 M109.8,79.4c-1.4-8.4-8.3-12.2-13.9-12.2c-5.6,0-12.6,3.8-13.9,12.2H109.8z"/>
	</g>
	<g>
		<path fill="#777777" d="M119.8,51.4h4.6v48.2h-4.6V51.4z"/>
		<path fill="#777777" d="M131.5,51.4h4.6v48.2h-4.6V51.4z"/>
	</g>
	<g>
		<path fill="#777777" d="M160.2,63.1c10.6,0,18.7,8.9,18.7,18.7c0,9.7-8,18.7-18.7,18.7c-10.4,0-18.6-8.8-18.6-18.4
			C141.6,70.8,150.8,63.1,160.2,63.1z M160.2,96.3c6.9,0,14.1-5.5,14.1-14.8c0-9.4-7.9-14.4-14.1-14.4c-6.5,0-14.1,5.3-14.1,14.8
			C146.2,90.2,152.9,96.3,160.2,96.3z"/>
		<path fill="#777777" d="M178.9,64h4.8l11.2,29.8h0.1l8.1-25.5h4l8.2,25.5h0.1L226.7,64h4.7l-13.6,35.6h-5.1l-7.6-23.7H205
			l-7.4,23.7h-5.1L178.9,64z"/>
	</g>
	<g>
		<path fill="#777777" d="M236.4,89.1c0.1,6.8,4.8,7.3,6.4,7.3c4.3,0,6.6-2.5,6.6-6.4c0-4.9-4.4-6-7.1-7.1c-3.6-1.2-9.4-3.2-9.4-9.9
			c0-5,3.6-9.9,10.2-9.9c5.3,0,9.8,4.1,9.7,9.7h-4.6c-0.3-4.4-3.3-5.6-5.3-5.6c-3.6,0-5.4,2.9-5.4,5.3c0,3.8,3.8,5.1,6.4,5.9
			c4.2,1.4,10.2,3.7,10.2,11c0.1,6.1-3.6,11-11.2,11c-4.9,0-11.1-3.4-10.9-11.4L236.4,89.1L236.4,89.1z"/>
	</g>
	<g>
		<path fill="#777777" d="M98.2,119.7c-0.5,1.1-1,2.2-1.3,3.2c-2.5-0.1-4.2-0.1-5.2-0.1c-1,0-2.8,0-5.2,0.1c-0.1,0-0.2-0.1-0.2-0.3
			c0-0.2,0.1-0.2,0.2-0.3c0.5-0.1,0.9-0.2,1.2-0.3s0.5-0.2,0.6-0.4s0.2-0.5,0.2-1v-9.2c0-0.4-0.1-0.8-0.2-0.9
			c-0.1-0.2-0.3-0.3-0.6-0.4c-0.3-0.1-0.7-0.2-1.3-0.3c-0.1,0-0.2-0.1-0.2-0.3s0.1-0.3,0.2-0.3c1.6,0.1,3.3,0.1,5,0.1
			c1.7,0,3.4,0,5.1-0.1c0.2,1,0.4,2,0.7,3c0,0.1-0.1,0.2-0.3,0.2c-0.1,0-0.2-0.1-0.2-0.1c-0.5-1.5-1.5-2.3-3.1-2.3h-2
			c-0.8,0-1.1,0.4-1.1,1.2v4.3h2.5c0.7,0,1.1-0.2,1.3-0.4c0.2-0.3,0.4-0.8,0.5-1.6c0-0.1,0.1-0.2,0.3-0.2s0.3,0.1,0.3,0.2
			c0,0.3,0,0.7-0.1,1.2c0,0.5-0.1,0.9-0.1,1.2c0,0.3,0,0.7,0.1,1.2c0,0.5,0.1,0.9,0.1,1.2c0,0.1-0.1,0.2-0.3,0.2s-0.3-0.1-0.3-0.2
			c-0.1-0.8-0.3-1.3-0.5-1.7s-0.7-0.5-1.3-0.5h-2.4v4.8c0,0.8,0.4,1.2,1.1,1.2h2.1c0.8,0,1.5-0.2,2.3-0.8c0.8-0.5,1.3-1.1,1.7-1.9
			c0-0.1,0.1-0.1,0.2-0.1s0.2,0,0.2,0.1C98.1,119.6,98.2,119.6,98.2,119.7z"/>
		<path fill="#777777" d="M105.4,120.4c0,0.8-0.3,1.5-0.9,2c-0.6,0.5-1.4,0.8-2.3,0.8c-0.3,0-0.8-0.1-1.4-0.2
			c-0.5-0.1-0.8-0.2-1-0.2c-0.1-0.5-0.2-1.2-0.4-2.1c0-0.1,0.1-0.2,0.3-0.2c0.2,0,0.2,0.1,0.3,0.2c0.2,0.5,0.4,0.9,0.9,1.3
			s0.9,0.5,1.4,0.5c0.5,0,0.9-0.1,1.1-0.4c0.3-0.3,0.4-0.6,0.4-1.1c0-0.3-0.1-0.6-0.3-0.8c-0.2-0.2-0.7-0.5-1.5-0.9
			c-1-0.4-1.6-0.9-1.9-1.3c-0.3-0.4-0.5-0.9-0.5-1.4c0-0.7,0.3-1.3,0.9-1.8c0.6-0.5,1.3-0.7,2.1-0.7c0.3,0,0.8,0.1,1.4,0.2
			c0.3,0.1,0.6,0.1,0.7,0.1c0,0.8,0.1,1.4,0.1,2c0,0.1-0.1,0.2-0.3,0.2c-0.2,0-0.2-0.1-0.3-0.2c-0.1-0.5-0.2-0.9-0.5-1.2
			s-0.6-0.4-1-0.4c-1,0-1.5,0.4-1.5,1.3c0,0.3,0.1,0.6,0.4,0.8s0.8,0.6,1.6,1c1,0.5,1.6,0.9,1.9,1.2
			C105.3,119.6,105.4,120,105.4,120.4z"/>
	</g>
	<g>
		<path fill="#777777" d="M112.7,115.2c0,0.3-0.1,0.5-0.2,0.5l-2.9-0.1v4.7c0,1.2,0.4,1.8,1.3,1.8c0.5,0,1-0.1,1.5-0.4
			c0.1,0,0.1,0,0.1,0.1s0.1,0.1,0.1,0.2c0,0.2-0.2,0.4-0.7,0.7c-0.5,0.3-1,0.4-1.6,0.4c-0.7,0-1.3-0.2-1.8-0.7
			c-0.4-0.4-0.7-1.1-0.7-1.8v-0.1l0-4.8c0-0.2-0.1-0.3-0.2-0.3h-0.7c-0.1,0-0.2-0.1-0.2-0.2c0-0.1,0.1-0.2,0.2-0.3
			c0.9-0.5,1.7-1.3,2.4-2.3c0.1-0.1,0.2-0.2,0.3-0.2c0.2,0,0.3,0.1,0.3,0.2l-0.1,1.9h2.9C112.6,114.6,112.7,114.8,112.7,115.2z"/>
		<path fill="#777777" d="M120.2,123.1c-0.4,0-0.7-0.1-0.9-0.3s-0.4-0.4-0.6-0.7c-0.7,0.7-1.6,1.1-2.7,1.1c-0.6,0-1.1-0.2-1.4-0.5
			c-0.4-0.4-0.6-0.8-0.6-1.3c0-1.3,1.6-2.4,4.8-3.2l0.1-1.5v-0.1c0-0.5-0.1-0.8-0.3-1.1c-0.2-0.3-0.5-0.4-0.9-0.4s-0.7,0.1-1,0.3
			c-0.3,0.2-0.4,0.4-0.4,0.7c0,0.4-0.1,0.7-0.3,1c-0.2,0.2-0.5,0.3-0.8,0.3c-0.2,0-0.4-0.1-0.5-0.2c-0.1-0.1-0.2-0.3-0.2-0.5
			c0-0.5,0.5-1,1.4-1.6s1.8-0.8,2.5-0.8c0.7,0,1.3,0.2,1.7,0.6s0.7,1,0.7,1.7v0.1l-0.2,4.4v0.1c0,0.7,0.2,1,0.7,1
			c0.2,0,0.5-0.1,0.8-0.4l0.1,0c0.1,0,0.1,0,0.2,0.1s0.1,0.1,0.1,0.2c0,0.2-0.2,0.4-0.6,0.7C121.1,123,120.7,123.1,120.2,123.1z
			 M118.7,118.7c-1.9,0.4-2.8,1.1-2.8,2.1c0,0.9,0.4,1.4,1.1,1.4c0.3,0,0.7-0.1,1-0.3c0.3-0.2,0.6-0.4,0.7-0.6L118.7,118.7z"/>
	</g>
	<g>
		<path fill="#777777" d="M132.1,118.7c0,1.2-0.4,2.3-1.3,3.2c-0.9,0.9-1.8,1.4-2.9,1.4c-0.6,0-1.2-0.1-1.8-0.4
			c-0.4-0.2-0.8-0.3-1.1-0.3c-0.5,0-0.8,0.2-1,0.6c0,0.1-0.1,0.1-0.2,0.1c-0.2,0-0.2-0.1-0.2-0.2c0.1-0.6,0.1-1.2,0.1-2v-9.5
			c0-0.5-0.1-0.9-0.2-1c-0.1-0.2-0.4-0.3-0.9-0.3c-0.1,0-0.2-0.1-0.2-0.2c0-0.2,0.1-0.3,0.2-0.3c1.2-0.3,2-0.7,2.5-1
			c0.1-0.1,0.2-0.1,0.2-0.1c0.2,0,0.3,0.1,0.3,0.2c-0.1,1.4-0.2,2.6-0.2,3.4v2.9c0.6-0.6,1.4-0.9,2.2-0.9c1.3,0,2.4,0.4,3.2,1.2
			C131.7,116.2,132.1,117.3,132.1,118.7z M130.1,118.8c0-1.2-0.2-2.1-0.7-2.8c-0.5-0.7-1.1-1-2-1c-0.5,0-0.9,0.2-1.4,0.5
			s-0.7,0.7-0.7,1v4.5c0,0.3,0.3,0.7,0.8,1.1c0.5,0.4,1,0.5,1.5,0.5c0.8,0,1.4-0.3,1.8-1.1C129.9,120.8,130.1,119.9,130.1,118.8z"/>
		<path fill="#777777" d="M137.6,122.6c0,0.2-0.1,0.3-0.2,0.3c-0.3,0-0.6,0-1-0.1c-0.5,0-0.9-0.1-1.2-0.1c-0.3,0-0.7,0-1.2,0.1
			c-0.4,0-0.8,0.1-1,0.1c-0.1,0-0.2-0.1-0.2-0.3c0-0.2,0.1-0.2,0.2-0.3c0.6-0.1,0.9-0.2,1.1-0.4c0.2-0.2,0.2-0.6,0.2-1.2v-9.1
			c0-0.5-0.1-0.9-0.2-1c-0.1-0.2-0.4-0.3-0.9-0.3c-0.1,0-0.2-0.1-0.2-0.2c0-0.2,0.1-0.2,0.2-0.2c0.7-0.2,1.2-0.4,1.7-0.6
			c0.4-0.2,0.7-0.4,0.8-0.5c0.1-0.1,0.1-0.1,0.2-0.1c0.2,0,0.3,0.1,0.3,0.2c-0.1,1.5-0.2,2.6-0.2,3.4v8.5c0,0.6,0.1,1.1,0.2,1.2
			c0.2,0.2,0.5,0.3,1.1,0.4C137.6,122.4,137.6,122.5,137.6,122.6z"/>
	</g>
	<g>
		<path fill="#777777" d="M143.5,122.7c0,0.2-0.1,0.3-0.2,0.3c-0.3,0-0.6,0-1-0.1c-0.5,0-0.9-0.1-1.2-0.1c-0.3,0-0.7,0-1.2,0.1
			c-0.4,0-0.8,0.1-1,0.1c-0.1,0-0.2-0.1-0.2-0.3c0-0.2,0.1-0.2,0.2-0.3c0.6-0.1,0.9-0.2,1.1-0.4c0.2-0.2,0.2-0.6,0.2-1.2v-3.6
			c0-0.5-0.1-0.9-0.2-1c-0.1-0.2-0.4-0.3-0.9-0.3c-0.1,0-0.2-0.1-0.2-0.3c0-0.2,0.1-0.2,0.2-0.2c0.7-0.2,1.2-0.4,1.7-0.6
			c0.4-0.2,0.7-0.4,0.8-0.5c0.1-0.1,0.1-0.1,0.2-0.1c0.2,0,0.3,0.1,0.3,0.2c-0.1,1.5-0.2,2.6-0.2,3.4v3.1c0,0.6,0.1,1.1,0.2,1.2
			s0.5,0.3,1.1,0.4C143.4,122.4,143.5,122.5,143.5,122.7z M142.1,110.8c0,0.3-0.1,0.5-0.3,0.7s-0.4,0.3-0.7,0.3s-0.5-0.1-0.7-0.3
			c-0.2-0.2-0.3-0.4-0.3-0.7c0-0.3,0.1-0.5,0.3-0.7c0.2-0.2,0.4-0.3,0.7-0.3s0.5,0.1,0.7,0.3C142,110.3,142.1,110.6,142.1,110.8z"/>
		<path fill="#777777" d="M150.7,120.4c0,0.8-0.3,1.5-0.9,2c-0.6,0.5-1.4,0.8-2.3,0.8c-0.3,0-0.8-0.1-1.4-0.2
			c-0.5-0.1-0.8-0.2-1-0.2c-0.1-0.5-0.2-1.2-0.4-2.1c0-0.1,0.1-0.2,0.3-0.2c0.2,0,0.2,0.1,0.3,0.2c0.1,0.5,0.4,0.9,0.9,1.3
			s0.9,0.5,1.4,0.5c0.5,0,0.9-0.1,1.1-0.4c0.3-0.3,0.4-0.6,0.4-1.1c0-0.3-0.1-0.6-0.3-0.8c-0.2-0.2-0.7-0.5-1.5-0.9
			c-1-0.4-1.6-0.9-1.9-1.3c-0.3-0.4-0.5-0.9-0.5-1.4c0-0.7,0.3-1.3,0.9-1.8c0.6-0.5,1.3-0.7,2.1-0.7c0.3,0,0.8,0.1,1.4,0.2
			c0.3,0.1,0.6,0.1,0.7,0.1c0,0.8,0.1,1.4,0.1,2c0,0.1-0.1,0.2-0.3,0.2c-0.2,0-0.2-0.1-0.3-0.2c-0.1-0.5-0.2-0.9-0.5-1.2
			s-0.6-0.4-1-0.4c-1,0-1.5,0.4-1.5,1.3c0,0.3,0.1,0.6,0.4,0.8s0.8,0.6,1.6,1c1,0.5,1.6,0.9,1.9,1.2
			C150.6,119.6,150.7,120,150.7,120.4z"/>
	</g>
	<g>
		<path fill="#777777" d="M162.1,122.7c0,0.2-0.1,0.3-0.2,0.3c-0.3,0-0.6,0-1-0.1c-0.4,0-0.8-0.1-1.1-0.1c-0.3,0-0.7,0-1.1,0.1
			c-0.4,0-0.7,0.1-1,0.1c-0.1,0-0.1-0.1-0.1-0.3c0-0.2,0.1-0.2,0.1-0.3c0.4-0.1,0.8-0.2,0.9-0.4s0.2-0.6,0.2-1.3v-3.3
			c0-1.4-0.6-2.1-1.9-2.1c-0.8,0-1.5,0.3-2.1,1v4.4c0,0.6,0.1,1,0.2,1.2c0.2,0.2,0.5,0.4,1,0.4c0.1,0,0.2,0.1,0.2,0.3
			c0,0.2-0.1,0.3-0.2,0.3c-0.3,0-0.6,0-1-0.1c-0.5,0-0.9-0.1-1.2-0.1c-0.3,0-0.7,0-1.1,0.1c-0.4,0-0.7,0.1-1,0.1
			c-0.1,0-0.2-0.1-0.2-0.3c0-0.2,0.1-0.2,0.2-0.3c0.6-0.1,0.9-0.2,1.1-0.4c0.2-0.2,0.2-0.6,0.2-1.3v-9.1c0-0.5-0.1-0.9-0.2-1
			c-0.1-0.2-0.4-0.3-0.9-0.3c-0.1,0-0.2-0.1-0.2-0.2c0-0.2,0.1-0.3,0.2-0.3c1.1-0.3,1.9-0.6,2.5-1c0.1-0.1,0.2-0.1,0.2-0.1
			c0.2,0,0.3,0.1,0.3,0.2c-0.1,1.1-0.2,2.2-0.2,3.4v3.3c0.9-0.9,1.9-1.3,2.8-1.3c0.9,0,1.7,0.2,2.2,0.8s0.8,1.2,0.8,2.1v3.7
			c0,0.6,0.1,1.1,0.2,1.2c0.2,0.2,0.5,0.3,1.1,0.4C162.1,122.4,162.1,122.5,162.1,122.7z"/>
		<path fill="#777777" d="M170.5,117.4c0,0.2-0.1,0.3-0.4,0.3h-5.4c0,0.3-0.1,0.7-0.1,1.1c0,1.1,0.2,1.8,0.8,2.4
			c0.5,0.6,1.2,0.8,2.1,0.8c0.5,0,0.9-0.1,1.4-0.4s0.9-0.6,1.1-0.9l0.1,0c0.1,0,0.1,0,0.2,0.1c0.1,0.1,0.1,0.2,0.1,0.2
			c0,0.1-0.2,0.4-0.6,0.8c-0.4,0.4-0.9,0.8-1.4,1c-0.5,0.2-1,0.3-1.5,0.3c-1.2,0-2.2-0.4-3-1.3s-1.2-1.9-1.2-3.2
			c0-1.3,0.4-2.4,1.2-3.2c0.8-0.9,1.8-1.3,3-1.3c1,0,1.9,0.3,2.5,1C170.2,115.8,170.5,116.6,170.5,117.4z M168.8,116.5
			c0-0.5-0.2-0.9-0.5-1.2c-0.3-0.3-0.8-0.5-1.3-0.5c-0.5,0-0.9,0.2-1.3,0.6c-0.4,0.4-0.6,1-0.8,1.7l2.7-0.1c0.4,0,0.7-0.1,0.9-0.1
			C168.7,116.8,168.8,116.7,168.8,116.5z"/>
	</g>
	<g>
		<path fill="#777777" d="M181.8,122.3c0,0.1-0.1,0.2-0.2,0.2c-0.4,0.1-0.8,0.1-1.3,0.3c-0.5,0.1-0.9,0.3-1.1,0.4
			c-0.1,0.1-0.2,0.1-0.3,0.1c-0.1,0-0.2-0.1-0.2-0.2l0.1-1.1c-0.7,0.8-1.6,1.1-2.6,1.1c-1.1,0-2.1-0.4-2.9-1.3
			c-0.8-0.9-1.2-1.9-1.2-3.1c0-1.4,0.4-2.5,1.3-3.3c0.9-0.8,2-1.3,3.3-1.3c0.8,0,1.4,0.2,2.1,0.7v-3.2c0-0.5-0.1-0.9-0.2-1
			c-0.1-0.2-0.4-0.3-0.9-0.3c-0.1,0-0.2-0.1-0.2-0.2c0-0.2,0.1-0.3,0.2-0.3c0.6-0.1,1.1-0.3,1.6-0.5c0.4-0.2,0.8-0.4,0.9-0.5
			c0.1-0.1,0.1-0.1,0.2-0.1c0.2,0,0.3,0.1,0.3,0.2c-0.1,1.4-0.2,2.6-0.2,3.4v8.6c0,0.4,0.1,0.8,0.2,0.9c0.1,0.2,0.4,0.3,0.9,0.3
			C181.7,122,181.8,122.1,181.8,122.3z M178.8,121.2v-5c0-0.3-0.2-0.7-0.6-1c-0.4-0.3-0.8-0.4-1.3-0.4c-1.9,0-2.9,1.3-2.9,4
			c0,1.1,0.2,1.9,0.7,2.6c0.5,0.7,1.1,1.1,1.8,1.1c0.4,0,0.8-0.1,1.1-0.3C178,122,178.4,121.7,178.8,121.2z"/>
	</g>
	<g>
		<path fill="#777777" d="M193.5,122.7c0,0.2-0.1,0.3-0.1,0.3c-0.3,0-0.7,0-1.2-0.1c-0.6,0-1-0.1-1.3-0.1c-0.3,0-0.8,0-1.3,0.1
			c-0.5,0-0.9,0.1-1.2,0.1c-0.1,0-0.2-0.1-0.2-0.3c0-0.1,0-0.2,0.1-0.2s0.1-0.1,0.3-0.1c0.5-0.1,0.8-0.2,1-0.2
			c0.1-0.1,0.3-0.2,0.3-0.4c0.1-0.2,0.1-0.5,0.1-0.9v-4.5c0-0.4,0-0.7-0.1-0.9s-0.2-0.3-0.4-0.4s-0.5-0.1-0.9-0.2
			c-0.1,0-0.2,0-0.3-0.1s-0.1-0.1-0.1-0.2c0-0.2,0.1-0.3,0.2-0.3c0.3,0,0.7,0,1.2,0.1c0.6,0,1,0.1,1.3,0.1s0.8,0,1.3-0.1
			c0.5,0,0.9-0.1,1.2-0.1c0.1,0,0.1,0.1,0.1,0.3c0,0.2-0.1,0.3-0.3,0.3c-0.5,0.1-0.9,0.1-1,0.2c-0.2,0.1-0.3,0.2-0.3,0.5
			c-0.1,0.2-0.1,0.5-0.1,0.9v4.5c0,0.4,0,0.7,0.1,0.9s0.2,0.3,0.4,0.4s0.5,0.1,0.9,0.2c0.1,0,0.2,0,0.3,0.1
			C193.5,122.5,193.5,122.5,193.5,122.7z"/>
		<path fill="#777777" d="M202.7,119.8c0,1-0.4,1.8-1.1,2.4c-0.7,0.7-1.6,1-2.7,1c-1.1,0-2-0.3-2.7-0.9c-0.7-0.6-1-1.3-1-2.2
			c0-0.7,0.2-1.3,0.8-2c0.5-0.7,1.2-1.2,2-1.7c-1.5-1.2-2.2-2.3-2.2-3.3c0-1,0.3-1.8,1-2.5s1.5-1,2.5-1c1,0,1.8,0.3,2.4,0.8
			c0.6,0.6,0.9,1.3,0.9,2.1c0,0.6-0.2,1.3-0.7,1.9c-0.5,0.6-1,1.2-1.7,1.5c0.9,0.8,1.6,1.5,1.9,2.1
			C202.5,118.6,202.7,119.2,202.7,119.8z M200.9,120.3c0-0.6-0.1-1.1-0.4-1.6s-0.9-1.1-2-2c-1.2,0.8-1.8,1.8-1.8,3.2
			c0,0.8,0.2,1.4,0.6,1.9c0.4,0.5,0.9,0.7,1.6,0.7c0.6,0,1.1-0.2,1.5-0.6C200.7,121.6,200.9,121.1,200.9,120.3z M201.3,112.6
			c0-0.8-0.2-1.4-0.5-1.8s-0.8-0.7-1.4-0.7c-0.6,0-1.1,0.2-1.5,0.6c-0.3,0.4-0.5,0.9-0.5,1.6c0,0.8,0.8,1.9,2.4,3.2
			c0.4-0.3,0.8-0.7,1.1-1.3C201.1,113.7,201.3,113.1,201.3,112.6z"/>
	</g>
	<g>
		<path fill="#777777" d="M211.7,114.4L211.7,114.4l-5.1,12.7c-0.1,0.2-0.2,0.2-0.6,0.2c-0.3,0-0.4-0.1-0.4-0.2l0-0.1l4.7-11h-4.1
			c-0.3,0-0.7,0.1-0.9,0.3c-0.3,0.2-0.5,0.5-0.6,0.8c0,0.1-0.1,0.2-0.3,0.2c-0.2,0-0.2-0.1-0.3-0.2c0.3-1,0.5-2,0.7-2.9
			c0.3,0.1,1.4,0.1,3.2,0.1c1.9,0,3.1,0,3.4-0.1C211.7,114.2,211.7,114.3,211.7,114.4z"/>
		<path fill="#777777" d="M221.6,109.8c0,0.1,0,0.2-0.1,0.2c-1.8,0.6-3.3,1.7-4.5,3.3c-1.2,1.6-1.8,3.4-1.8,5.3
			c0,1.2,0.2,2.2,0.6,2.9s0.9,1,1.7,1c0.7,0,1.2-0.3,1.6-0.9c0.4-0.6,0.6-1.4,0.6-2.6c0-0.9-0.2-1.6-0.6-2.2
			c-0.4-0.5-0.9-0.8-1.5-0.8c-0.3,0-0.5,0.1-0.7,0.2l-0.1,0c-0.1,0-0.1,0-0.2-0.1c-0.1-0.1-0.1-0.2-0.1-0.2c0-0.1,0.2-0.3,0.7-0.6
			s0.9-0.4,1.3-0.4c0.9,0,1.7,0.4,2.3,1.1c0.6,0.7,0.9,1.7,0.9,2.8s-0.4,2.2-1.2,3c-0.8,0.9-1.8,1.3-3,1.3c-1.2,0-2.2-0.4-2.9-1.3
			c-0.8-0.8-1.1-1.9-1.1-3.1c0-2.3,1.1-4.4,3.2-6.4c0.6-0.5,1.2-1,1.8-1.4c0.7-0.4,1.3-0.8,2-1.1c0.7-0.3,1.1-0.4,1.2-0.4
			C221.6,109.5,221.6,109.6,221.6,109.8z"/>
	</g>
</g>
</svg>
