<?xml version="1.0" encoding="utf-8"?>
<!-- Generator: Adobe Illustrator 21.0.1, SVG Export Plug-In . SVG Version: 6.00 Build 0)  -->
<svg version="1.2" baseProfile="tiny" id="Layer_1" xmlns="http://www.w3.org/2000/svg" xmlns:xlink="http://www.w3.org/1999/xlink"
	 x="0px" y="0px" viewBox="0 0 300 180" xml:space="preserve">
<g>
	<path fill="#777777" d="M20.6,95.5c0.2-0.9,0.3-1.8,0.5-2.6c1.4-6.6,2.8-13.1,4.2-19.7c0.1-0.7,0.3-1.4,0.5-2.1c3.3,0,6.5,0,9.8,0
		c-0.2,1.1-0.5,2.2-0.7,3.2c-1.4,6.7-2.9,13.3-4.3,19.9c-0.1,0.7-0.2,1.3-0.2,2c0,1.1,0.6,1.8,1.7,2c1.4,0.3,2.6,0,3.8-0.8
		c0.4-0.3,0.8-0.6,1.2-1c0.9-0.9,1.4-1.9,1.4-3.3c0.2-5.8,2-11.2,5.5-16c1.6-2.2,3.5-4.1,6.1-5.2c2.7-1.2,5.4-1.6,8.3-1.1
		c1.6,0.3,2.8,1.1,3.2,2.8c0,0,0.1,0.1,0.1,0.1c1.1-4.9,2.1-9.8,3.2-14.8c3.3-0.5,6.7-0.9,10.1-1.3c-0.2,0.7-0.3,1.3-0.4,2
		c-2.4,11.2-4.9,22.5-7.3,33.7c-0.2,0.9-0.3,1.8-0.4,2.8c-0.1,1.1,0.6,1.8,1.7,2.1c1.6,0.3,3.1,0,4.3-1.3c0.5-0.5,0.9-1.1,1.2-1.7
		c0.1-0.2,0.2-0.5,0.2-0.8c0-5.9,1.6-11.3,4.8-16.2c2.3-3.7,5.7-6.2,10-7.4c2.3-0.6,4.7-0.5,7.1,0.1c2.3,0.6,3.8,2.3,4,4.6
		c0.4,3.6-0.6,6.8-3,9.4c-2.9,3.3-6.7,5.2-11,5.8c-0.5,0.1-1,0.1-1.5,0.2c-0.2,1.8-0.3,3.5,0.1,5.3c0.3,1.7,1.5,2.6,3.1,2.9
		c2.9,0.4,5.7-0.1,8.2-1.7c1.6-1.1,3-2.3,4.4-3.8c0.2-0.2,0.2-0.5,0.3-0.8c0.3-4.8,1.6-9.3,4-13.4c1.1-1.8,2.3-3.4,3.8-4.8
		c2.8-2.7,6.1-3.9,9.9-3.8c0.8,0,1.5,0.1,2.2,0.2c1.7,0.3,2.8,1.2,3.1,3.1c0.2-1,0.4-2,0.6-3c3.3,0,6.5,0,9.8,0
		c-0.3,1.2-0.5,2.4-0.8,3.6c-1.4,6.6-2.9,13.2-4.3,19.8c-0.1,0.7-0.1,1.5-0.1,2.2c0.1,1.2,0.9,1.9,2.1,2c1.4,0.2,2.6-0.2,3.6-1.3
		c1.2-1.3,2-2.9,2.4-4.6c0.9-3.9,1.7-7.8,2.6-11.8c1.6-7.2,3.2-14.5,4.7-21.7c0-0.1,0.1-0.3,0.1-0.5c3.3-0.4,6.6-0.9,10-1.3
		c0,0.2,0,0.3,0,0.4c-2,9.4-4.1,18.7-6.1,28.1c-0.6,2.8-1.2,5.7-1.8,8.6c-0.1,0.4-0.1,0.9-0.1,1.3c0.1,1.3,1,2.2,2.2,2.2
		c0.4,0,0.9,0,1.3-0.1c0.4-0.1,0.8-0.2,1.4-0.3c0,0.3-0.1,0.7-0.1,1c-0.6,3.9-3.8,5.8-6.9,5.9c-1.4,0.1-2.7-0.1-3.9-0.7
		c-1.8-0.8-2.9-2.2-3.4-4.1c-0.1-0.2-0.1-0.5-0.2-0.8c-0.2,0.3-0.4,0.6-0.6,0.8c-1.7,2.1-3.8,3.7-6.4,4.4c-1.6,0.4-3.3,0.6-5,0.3
		c-2.6-0.4-4.3-2.1-4.8-4.8c-0.1-0.3-0.1-0.7-0.2-1.1c-0.2,0.3-0.4,0.5-0.5,0.7c-1.6,2-3.4,3.6-5.8,4.6c-2.1,0.8-4.2,1-6.4,0.5
		c-3-0.7-4.7-2.7-5.7-5.4c-0.3-0.7-0.4-1.5-0.7-2.3c-0.2,0.3-0.5,0.5-0.7,0.8c-2.2,2.4-4.6,4.4-7.6,5.7c-3.6,1.5-7.3,2-11.1,1
		c-2.9-0.7-5.2-2.4-6.2-5.4c0,0-0.1-0.1-0.1-0.2c-0.2,0.2-0.3,0.4-0.5,0.7c-1.9,2.4-4.3,4.1-7.4,4.7c-1.4,0.3-2.8,0.4-4.2,0.1
		c-2.7-0.5-4.3-2.1-4.9-4.8c0-0.2-0.1-0.4-0.2-0.8c-0.2,0.2-0.3,0.4-0.4,0.6c-1,1.3-2.1,2.5-3.4,3.5c-2.6,1.8-5.5,2.4-8.6,1.8
		c-2.5-0.5-4.2-2-5.3-4.2c-0.3-0.5-0.5-1.1-0.7-1.6c-0.2,0.2-0.4,0.5-0.5,0.7c-2,2.5-4.4,4.2-7.5,4.9c-1.6,0.4-3.1,0.6-4.7,0.3
		c-3.1-0.6-5.1-2.8-5.5-5.9c0-0.2-0.1-0.3-0.1-0.5C20.6,97.4,20.6,96.4,20.6,95.5z M110.5,93.2c0,0.3,0,0.7,0,1.1
		c0.1,0.9,0.2,1.8,0.6,2.6c0.6,1.1,1.4,1.6,2.7,1.6c1,0,1.9-0.4,2.8-1c1.3-0.9,2.2-2.2,2.6-3.7c0.3-1.1,0.6-2.2,0.8-3.3
		c0.9-4.2,1.8-8.3,2.7-12.5c0.3-1.4-0.6-2.8-2.1-3c-1.4-0.2-2.7,0.2-3.7,1.1c-0.9,0.9-1.7,1.8-2.4,2.9
		C111.7,83.3,110.8,88.2,110.5,93.2z M48.5,93.6c0.1,0.6,0.2,1.7,0.5,2.7c0.5,1.7,2,2.5,3.7,2.1c2-0.5,3.4-1.7,4.3-3.6
		c0.4-0.9,0.6-1.8,0.8-2.8c1-4.8,2.1-9.5,3.1-14.2c0.1-0.3,0-0.8-0.1-1.1c-0.5-1.3-1.6-1.9-3-1.7c-1.4,0.2-2.5,0.8-3.4,1.8
		c-0.8,1-1.6,2-2.3,3.1C49.7,83.9,48.8,88.5,48.5,93.6z M85.1,87.8c0.8-0.2,1.4-0.2,2-0.4c4.6-1.4,8.2-6.5,7.9-11.3
		c0-0.3-0.1-0.6-0.2-0.8c-0.3-0.9-1-1.4-1.9-1.1c-0.6,0.2-1.3,0.4-1.8,0.8c-0.6,0.5-1.2,1.1-1.7,1.8c-1.2,1.6-2,3.4-2.7,5.2
		C86,83.8,85.4,85.7,85.1,87.8z"/>
	<path fill="#777777" d="M33.5,56.9c0.2,0.1,0.4,0.1,0.6,0.2c2.9,0.8,4.6,3.8,3.7,6.7c-0.7,2-2.1,3.2-4.2,3.6
		c-2.8,0.5-5.4-1.1-6.2-3.6c-0.9-3,0.9-6.1,4-6.8c0.1,0,0.2-0.1,0.3-0.1C32.3,56.9,32.9,56.9,33.5,56.9z"/>
	<path fill="#777777" d="M285.4,84.1c-0.4,0-0.8,0-1.2,0c0-0.5,0-0.9,0-1.5c-0.9,0.8-1.7,1.2-2.7,1.5c-3.7,1-7.5-1.6-7.9-5.4
		c-0.4-3.2,1.1-6,3.8-7.1c2.4-1,4.8-0.7,7,0.6c0.1,0.1,0.2,0.2,0.4,0.3c-0.1,0.2-0.2,0.4-0.4,0.5c-0.1,0.1-0.2,0.2-0.2,0.3
		c-1-0.3-1.8-0.8-2.7-1c-2.5-0.6-4.9,0.5-6,2.7c-1.2,2.3-0.7,5.2,1.2,6.9c2,1.9,5.3,1.7,7.4-0.4c0.1-0.1,0.2-0.3,0.2-0.4
		c0-0.6,0-1.2,0-1.9c-0.8,0-1.5,0-2.2,0c0-0.4,0-0.8,0-1.1c1.2,0,2.3,0,3.5,0C285.4,80,285.4,82,285.4,84.1z"/>
	<path fill="#777777" d="M265.5,82c0-3.7,0-7.2,0-10.8c0.4,0,0.8,0,1.2,0c0,4.3,0,8.5,0,12.9c-0.2,0-0.5,0-0.7,0
		c-0.4,0.1-0.7-0.1-0.9-0.4c-1.8-2.6-3.7-5.1-5.5-7.7c-0.6-0.9-1.3-1.8-1.9-2.8c0,3.6,0,7.2,0,10.8c-0.4,0-0.8,0-1.2,0
		c0-4.3,0-8.5,0-12.8c1-0.3,1.2-0.2,1.7,0.6c2,2.8,4,5.5,6,8.2C264.7,80.7,265.1,81.3,265.5,82z"/>
	<path fill="#777777" d="M204.4,70.9c3.8,0,6.7,2.9,6.7,6.6c0,3.8-3,6.8-6.8,6.8c-3.7,0-6.7-3-6.7-6.8
		C197.7,73.8,200.6,70.9,204.4,70.9z M204.4,83.1c3,0,5.4-2.5,5.4-5.6c0-3-2.4-5.4-5.3-5.4c-3,0-5.4,2.4-5.4,5.4
		C199,80.6,201.4,83.1,204.4,83.1z"/>
	<path fill="#777777" d="M166.1,104.7c0-4.3,0-8.6,0-12.8c0.2,0,0.3-0.1,0.5-0.1c1.4,0,2.8,0,4.2,0c1.7,0,3.2,0.5,4.4,1.7
		c1.6,1.5,2,3.5,1.8,5.6c-0.4,3.5-2.7,5.6-6.2,5.6C169.1,104.7,167.6,104.7,166.1,104.7z M167.4,93c0,3.5,0,7,0,10.6
		c1.4-0.1,2.8,0,4.2-0.2c2.1-0.3,3.4-1.6,3.8-3.7c0.1-0.6,0.2-1.3,0.1-1.9c-0.1-2.7-1.7-4.4-4.3-4.8C170,92.9,168.7,93,167.4,93z"/>
	<path fill="#777777" d="M274.5,104.6c0-4.3,0-8.5,0-12.8c0.5,0,0.9,0,1.4,0c1.4,0,2.8,0,4.2,0.1c3.1,0.3,5.2,2.7,5.3,5.8
		c0,1.1,0,2.1-0.4,3.1c-0.9,2.4-2.7,3.6-5.1,3.8c-1.7,0.2-3.4,0.1-5.1,0.1C274.6,104.7,274.6,104.7,274.5,104.6z M275.8,103.6
		c1.2,0,2.4,0.1,3.6,0c2.3-0.2,3.9-1.5,4.4-3.6c0.2-0.8,0.2-1.6,0.2-2.4c-0.2-1.9-1.1-3.4-3-4.2c-1.7-0.7-3.4-0.3-5.2-0.4
		C275.8,96.5,275.8,100,275.8,103.6z"/>
	<path fill="#777777" d="M180.8,71.1c0.4,0,0.8,0,1.2,0c0,1.9,0,3.8,0,5.8c2.6,0,5.1,0,7.6,0c0-1.9,0-3.8,0-5.8c0.5,0,0.9,0,1.3,0
		c0,4.3,0,8.5,0,12.9c-0.4,0-0.8,0-1.3,0c0-1.9,0-3.9,0-5.8c-2.6,0-5.1,0-7.6,0c0,1.9,0,3.9,0,5.8c-0.4,0-0.9,0-1.3,0
		C180.8,79.7,180.8,75.4,180.8,71.1z"/>
	<path fill="#777777" d="M198.1,104.7c-0.6,0-1,0-1.5,0c-0.9-1.6-1.8-3.2-2.6-4.8c-0.2-0.5-0.5-0.7-1.1-0.7c-0.8,0.1-1.7,0-2.6,0
		c0,1.8,0,3.6,0,5.4c-0.5,0-0.9,0-1.3,0c0-4.3,0-8.5,0-12.8c0.1,0,0.2-0.1,0.4-0.1c1.5,0,2.9,0,4.4,0c2.9,0.1,4.5,3.1,3.1,5.6
		c-0.4,0.7-0.8,1-1.9,1.6c0.5,0.9,1.1,1.9,1.6,2.8C197,102.7,197.5,103.7,198.1,104.7z M190.4,98.1c1.3,0,2.4,0,3.6,0
		c0.1,0,0.2,0,0.4-0.1c1.4-0.4,2.1-2,1.5-3.6c-0.3-0.8-0.8-1.3-1.6-1.4c-1.3-0.1-2.6-0.1-3.9-0.2C190.4,94.7,190.4,96.3,190.4,98.1z
		"/>
	<path fill="#777777" d="M219.1,79c0,1.7,0,3.4,0,5c-0.4,0-0.8,0-1.3,0c0-4.3,0-8.5,0-12.8c0,0,0.1-0.1,0.1-0.1c1.7,0,3.4-0.1,5,0
		c2.1,0.1,3.5,1.7,3.5,3.8c0,2.1-1.4,3.7-3.4,3.9c-1,0.1-2,0.1-3.1,0.1C219.6,79,219.4,79,219.1,79z M219.1,72.3c0,1.9,0,3.7,0,5.5
		c1.2,0,2.4,0.1,3.5,0c1.5-0.1,2.4-1.2,2.4-2.7c0-1.5-0.9-2.6-2.3-2.7C221.5,72.2,220.4,72.3,219.1,72.3z"/>
	<path fill="#777777" d="M234,79c0,1.7,0,3.4,0,5c-0.4,0-0.8,0-1.2,0c0-4.3,0-8.5,0-12.8c0.1,0,0.3-0.1,0.4-0.1c1.4,0,2.7,0,4.1,0
		c0.4,0,0.7,0,1.1,0.1c2,0.5,3.1,2,2.9,4.2c-0.1,1.9-1.5,3.3-3.4,3.5c-1,0.1-2,0.1-3,0.1C234.6,79,234.4,79,234,79z M234.1,72.3
		c0,1.9,0,3.7,0,5.5c1.2,0,2.4,0.1,3.6,0c1.5-0.1,2.4-1.2,2.3-2.8c0-1.5-0.9-2.6-2.4-2.7C236.4,72.3,235.3,72.3,234.1,72.3z"/>
	<path fill="#777777" d="M225.5,102c0.2,0.3,0.5,0.6,0.7,0.8c-1.7,2-6.2,3.1-9.4,0.5c-2.8-2.3-3.1-6.9-0.7-9.6
		c2.9-3.2,7.8-2.4,9.7-0.5c-0.2,0.3-0.4,0.6-0.7,0.9c-1.6-1.2-3.4-1.7-5.4-1.2c-1.2,0.3-2.1,0.9-2.9,1.9c-1.6,2.2-1.3,5.4,0.6,7.3
		C219.2,104,222.6,104.5,225.5,102z"/>
	<path fill="#777777" d="M209.1,97.6c0,0.4,0,0.8,0,1.2c-1.6,0-3.3,0-4.9,0c0,1.6,0,3.2,0,4.8c2.1,0,4.2,0,6.4,0c0,0.4,0,0.7,0,1.1
		c-2.5,0-5.1,0-7.6,0c0-4.3,0-8.5,0-12.8c2.4,0,4.9,0,7.3,0c0,0.3,0,0.7,0,1.1c-2,0-4,0-6.1,0c0,1.6,0,3.1,0,4.7
		C205.8,97.6,207.4,97.6,209.1,97.6z"/>
	<path fill="#777777" d="M173.9,72.2c-0.2,0.3-0.4,0.7-0.6,1c-0.8-0.6-1.6-1-2.6-1.1c-0.8-0.1-1.6,0.1-2.2,0.6
		c-1.1,0.9-1.1,2.3,0,3.1c0.6,0.4,1.2,0.7,1.8,1c0.7,0.3,1.4,0.6,2,1c1.5,0.8,2.1,2,1.8,3.6c-0.2,1.4-1.3,2.5-2.9,2.8
		c-1.9,0.3-3.7-0.2-5.2-1.5c0.3-0.3,0.5-0.7,0.8-1c1,0.8,2,1.3,3.2,1.4c0.6,0,1.3-0.1,1.8-0.4c1.2-0.8,1.4-2.3,0.3-3.3
		c-0.4-0.3-0.9-0.6-1.3-0.9c-0.6-0.3-1.3-0.6-1.9-0.9c-0.5-0.2-1-0.5-1.4-0.8c-1.6-1.1-1.7-3.2-0.4-4.6c0.6-0.6,1.2-1,2-1.2
		C170.8,70.6,172.6,71.1,173.9,72.2z"/>
	<path fill="#777777" d="M240,91.8c0,0.4,0,0.7,0,1.1c-1.5,0-3.1,0-4.6,0c0,3.9,0,7.8,0,11.8c-0.5,0-0.9,0-1.3,0c0-3.9,0-7.8,0-11.7
		c-1.6,0-3.1,0-4.7,0c0-0.4,0-0.8,0-1.1C232.8,91.8,236.4,91.8,240,91.8z"/>
	<path fill="#777777" d="M264.4,92.9c-1.6,0-3.1,0-4.7,0c0-0.4,0-0.7,0-1.1c3.5,0,7.1,0,10.7,0c0,0.3,0,0.7,0,1.1
		c-1.5,0-3.1,0-4.7,0c0,4,0,7.8,0,11.7c-0.5,0-0.9,0-1.3,0C264.4,100.8,264.4,96.9,264.4,92.9z"/>
	<path fill="#777777" d="M258.4,103.6c0,0.4,0,0.8,0,1.1c-2.4,0-4.9,0-7.3,0c0-4.3,0-8.5,0-12.8c0.2,0,0.4,0,0.6,0
		c0.2,0,0.4,0,0.6,0c0,3.9,0,7.8,0,11.8C254.4,103.6,256.4,103.6,258.4,103.6z"/>
	<path fill="#777777" d="M182,91.8c0.4,0,0.8,0,1.2,0c0,4.3,0,8.6,0,12.8c-0.4,0-0.8,0-1.2,0C182,100.4,182,96.1,182,91.8z"/>
	<path fill="#777777" d="M247.7,71.2c0.4,0,0.8,0,1.2,0c0,4.3,0,8.6,0,12.8c-0.4,0-0.8,0-1.2,0C247.7,79.8,247.7,75.5,247.7,71.2z"
		/>
</g>
</svg>
