<?xml version="1.0" encoding="utf-8"?>
<!-- Generator: Adobe Illustrator 21.0.1, SVG Export Plug-In . SVG Version: 6.00 Build 0)  -->
<svg version="1.2" baseProfile="tiny" id="Layer_1" xmlns="http://www.w3.org/2000/svg" xmlns:xlink="http://www.w3.org/1999/xlink"
	 x="0px" y="0px" viewBox="0 0 300 180" overflow="scroll" xml:space="preserve">
<path fill="#AAAAAA" d="M127.9,73.8c9.9-2.3,15-1.9,20.1-0.2c5.1,1.9,7.8,5.9,7.8,13.3c0,15-12.7,27-12.7,27s24.5-13.5,24.9-28.5
	c0.2-8-4-12.9-8.9-15.2c-2.7-1.3-5.8-1.8-9-1.8C139.5,68.5,127.9,73.8,127.9,73.8"/>
<path fill="#777777" d="M62.6,66.9c-2.2,0-3.8-1.6-3.8-3.8c0-2.2,1.6-3.8,3.8-3.8c2.2,0,3.8,1.6,3.8,3.8
	C66.4,65.3,64.8,66.9,62.6,66.9"/>
<path fill="#777777" d="M183.4,100.2c-4.8,0-9.7-1.6-9.7-1.6l1.2-5.6c0,0,4.1,1.6,8.3,1.6c3.5,0,7.1-0.4,7.1-3.6c0-1.7-1.3-2.4-5-3
	l-2.5-0.4c-5.5-0.9-9.2-2.7-9.2-8.2c0-5.9,4.9-9.4,13-9.4c3.7,0,7.7,1.4,7.7,1.4l-1.2,5.4c0,0-2.9-1.2-6.6-1.2
	c-6.9,0-6.9,2.7-6.9,3.6c0,1.9,1.2,2.4,4.9,3l2.5,0.4c4,0.6,9.2,2.2,9.2,8.2C196.2,97.1,192,100.2,183.4,100.2"/>
<path fill="#777777" d="M244.4,100.2c-11.1,0-16.7-5.1-16.7-15.2c0-9.1,5.5-15.2,13.7-15.2c4,0,7.1,1.1,9.3,3.4
	c2.5,2.6,3.7,6.7,3.5,12.1l-0.1,2.1h-20c0.7,4.9,4,7.2,10.5,7.2c2.7,0,5.3-0.6,6.3-1.1l0.1-0.1l1.3,5.4l-0.5,0.2
	C250.2,99.6,247.2,100.2,244.4,100.2 M247.9,82.1c-0.1-4.6-2.3-7-6.7-7c-4,0-6.7,2.6-7.2,7H247.9z"/>
<polygon fill="#777777" points="27,99.8 27,99.8 33.7,99.8 33.7,83.5 47.2,99.8 56.2,99.8 39.7,80.7 56.9,59.3 48.9,59.3 33.7,78.4 
	33.7,59.3 27,59.3 "/>
<rect x="59.5" y="70.4" fill="#777777" width="6.2" height="29.4"/>
<path fill="#777777" d="M83.5,69.8c-6.3,0-11.6,2.2-11.6,2.2v27.8h6.2V76.2c1.9-0.4,3.6-0.6,4.8-0.6c4.7,0,7.5,1.3,7.5,7.7v16.5h6.2
	V82.6C96.5,74,92.3,69.8,83.5,69.8"/>
<path fill="#777777" d="M212.4,69.8c-2.2,0-4.3,0.4-6.5,1.1V59.3h-6.2v9.6v30.9h6.2V76.6c2-0.7,3.8-1.1,5.4-1.1
	c4.1,0,6.9,1.3,6.9,7.7v16.5h6.2V82.6C224.4,72,217.9,69.8,212.4,69.8"/>
<path fill="#777777" d="M115.5,69.8c-9.7,0-15.5,5.5-15.5,14.7c0,9.2,5.8,14.7,15.5,14.7c1.3,0,2.6-0.1,3.9-0.4v0.5
	c0,4.6-2.9,7.3-8,7.3c-3.4,0-6.6-1-6.6-1l-1.3,5.2c0,0,3.6,1.4,7.9,1.4c8.5,0,14.2-5.2,14.2-13V71.7
	C125.6,71.7,121.6,69.8,115.5,69.8 M119.4,93.3c-1,0.3-2.4,0.5-3.7,0.5c-6.2,0-9.4-3.1-9.4-9.3c0-6.1,3.1-9.1,9.4-9.1
	c1.2,0,2.4,0.2,3.7,0.5V93.3z"/>
<path fill="#777777" d="M269,70.2c-6.8,0-11,1.8-11,1.8v9.4v18.4h6.2V76.3c1.4-0.2,3-0.4,4.4-0.4c2.6,0,4.4,0.2,4.4,0.2v-5.7
	C273,70.5,270.9,70.2,269,70.2"/>
<path fill="#777777" d="M134.8,77c-2.9,17.5-2.8,47.8-2.6,51.9c0.7-2.1,12.5-46.8,13.8-51.1c4.7-15.3,8.1-22.8,29.8-21.5
	c8,0.5,15.2,2.3,15.2,2.3s-16.5-7.3-30.2-7.5c-0.2,0-0.3,0-0.5,0C146.4,51.1,137.8,59.7,134.8,77"/>
<path fill="#AAAAAA" d="M162.1,60.3c-1.5,1.5-1.5,3.9,0,5.4c1.6,1.6,4,1.6,5.5,0.2c1.6-1.6,1.6-4,0-5.7c-0.7-0.7-1.7-1.1-2.6-1.1
	C164,59.1,162.9,59.5,162.1,60.3"/>
</svg>
