<?xml version="1.0" encoding="utf-8"?>
<!-- Generator: Adobe Illustrator 21.0.1, SVG Export Plug-In . SVG Version: 6.00 Build 0)  -->
<svg version="1.2" baseProfile="tiny" id="Layer_1" xmlns="http://www.w3.org/2000/svg" xmlns:xlink="http://www.w3.org/1999/xlink"
	 x="0px" y="0px" viewBox="0 0 300 180" xml:space="preserve">
<g>
	<rect x="81" y="25.6" fill="#777777" width="138.1" height="128.8"/>
	<g>
		<rect x="81.2" y="25.9" fill="none" width="137.5" height="128.3"/>
		<path fill="#FFFFFF" d="M80.7,154.7h138.6V25.3H80.7V154.7z M81.2,25.9h137.5v128.3H81.2V25.9z"/>
	</g>
	<g>
		<path fill="none" d="M169.5,134.2c0,2.6,2.3,4.8,4.9,4.8c2.7,0,4.9-2.2,4.9-4.9c0-2.7-2.2-4.9-4.9-4.9
			C171.7,129.2,169.5,131.5,169.5,134.2z"/>
		<path fill="none" d="M154.7,134.2c0,2.6,2.3,4.8,4.9,4.8c2.7,0,4.9-2.2,4.9-4.9c0-2.7-2.2-4.9-4.9-4.9
			C156.9,129.2,154.7,131.5,154.7,134.2z"/>
		<path fill="none" d="M147.8,130.3c-1.1-0.8-2.4-0.9-3.8-0.9h-1.6v9.4h1.9c1.3,0,2.6-0.1,3.7-0.9c1.2-0.9,1.8-2.3,1.8-3.8
			C149.7,132.6,149,131.1,147.8,130.3z"/>
		<path fill="none" d="M149.6,109.6c3.6,0.8,6.3,0.8,10,0.8c3.3,0,7.9-0.9,10.9-2.2c2.8-1.2,5.7-4.1,5.7-7.4c0-4.9-4.4-6.8-8.5-7.2
			c-2.1-0.2-4.1-0.3-6.2-0.3c-4.1,0-8.2,0.2-12.3,0.6c-3.8,1.7-7,4.5-7,9C142.2,106.8,146.2,108.8,149.6,109.6z"/>
		<path fill="none" d="M158.2,44.5c-7.7,0-11.3,6.3-11.3,13.4c0,7.5,3.1,13.7,11.4,13.7c7.7,0,11-6.5,11-13.5
			C169.3,50.5,166.9,44.5,158.2,44.5z"/>
		<path fill="none" d="M112.5,139c2.7,0,4.9-2.2,4.9-4.9c0-2.7-2.2-4.9-4.9-4.9c-2.7,0-4.9,2.2-4.9,4.9
			C107.6,136.8,109.9,139,112.5,139z"/>
		<path fill="#FFFFFF" d="M113.1,117.9c-3,0.2-3.6,0-6.6,0.2v3.4H186l4.8-27.1h-4.2c0,21.2-16.4,23.1-28,23.1
			c-19.8,0-27.5-4-27.5-13.8V50.8c0-1.2,0-2.7,0.4-4c0.2-0.6,0.5-1.5,1.1-1.8c1.4-1,3.1-1.1,4.7-1.1c2.6-0.1,3-0.1,5.6-0.1V41h-36.5
			v2.7c3.6,0,5.1,0,8.7,0.6c0.5,0.4,1.2,0.6,1.6,1.2c0.8,0.9,0.9,2,0.9,3.1v62.1C117.6,114.5,117.6,117.6,113.1,117.9z"/>
		<path fill="#FFFFFF" d="M178.2,44.4c0.9-0.1,1.2-0.3,1.7,0.4c0.1,0.7,0.3,1.3,0.4,2c0.3,1.1,1.3,2.1,2.4,2.5
			c3.5,1.4,7.1-0.9,7.1-4.8c0-3.8-3.7-5.9-7.1-5.9c-4.2,0-7.6,2.9-10.6,5.8c-4.1-3.2-8.8-4.1-13.9-4.1c-5,0-10.2,1.1-14.4,4.1
			c-4.1,3-6.8,8.2-6.8,13.3c0,7,3.1,12.2,9.5,14.9l-1,0.3c-5.3,1.6-9.7,4.1-9.7,10.4c0,5.2,3.1,8.8,8.2,9.7l-1,0.3
			c-2.2,0.7-3.9,1.2-5.8,2.6c-2,1.7-4,4.2-4,6.9c0,11.4,17.2,11.8,25.4,11.8c11.3,0,24.8-3.7,24.8-17.4c0-7.2-5.2-12.1-12.2-12.3
			c-2.9-0.1-5.9-0.3-8.8-0.3c-2.2,0-4.2-0.1-6.4-0.1c-3,0-6.1-0.2-9.1-0.2c-2.5,0-4-1.4-4-4c0-4.8,7.2-4.7,10.6-4.8
			c5.9-0.1,11.8,0,17.1-2.9c5.7-3.2,8.4-8.4,8.4-14.9c0-3.8-1-7.9-4-10.6l1.9-1.8C177.2,44.9,177.8,44.7,178.2,44.4z M149.2,93.8
			c4.1-0.3,8.2-0.6,12.3-0.6c2.1,0,4.1,0.1,6.2,0.3c4.1,0.3,8.5,2.3,8.5,7.2c0,3.3-2.8,6.2-5.7,7.4c-2.9,1.3-7.6,2.2-10.9,2.2
			c-3.7,0-6.4,0-10-0.8c-3.4-0.8-7.4-2.7-7.4-6.7C142.2,98.2,145.4,95.5,149.2,93.8z M158.3,71.6c-8.3,0-11.4-6.2-11.4-13.7
			c0-7.1,3.6-13.4,11.3-13.4c8.7,0,11.1,6,11.1,13.6C169.3,65.1,166.1,71.6,158.3,71.6z"/>
		<path fill="#FFFFFF" d="M112.5,140c3.3,0,6.1-2.6,6.1-5.9s-2.8-5.9-6.1-5.9c-3.3,0-6,2.6-6,6C106.5,137.4,109.3,140,112.5,140z
			 M112.5,129.2c2.7,0,4.9,2.2,4.9,4.9s-2.2,4.9-4.9,4.9c-2.6,0-4.9-2.2-4.9-4.8C107.6,131.5,109.8,129.2,112.5,129.2z"/>
		<path fill="#FFFFFF" d="M121.7,128.4v7.1c0,0.8,0.1,1.7,0.4,2.4c0.7,1.4,1.9,2.1,3.4,2.1c1.5,0,2.8-0.7,3.5-2.1
			c0.3-0.7,0.4-1.6,0.4-2.4v-7.1h-1.1v7.1c0,0.6-0.1,1.5-0.4,2.1c-0.5,0.9-1.3,1.4-2.4,1.4s-1.8-0.5-2.4-1.4
			c-0.3-0.6-0.4-1.4-0.4-2.1v-7.1H121.7z"/>
		<polygon fill="#FFFFFF" points="136,139.8 136,129.4 138.6,129.4 138.6,128.4 132.2,128.4 132.2,129.4 134.8,129.4 134.8,139.8 		
			"/>
		<path fill="#FFFFFF" d="M144.6,128.4h-3.3v11.4h3.3c1.2,0,2.7-0.3,3.7-0.9c1.6-1,2.6-2.8,2.6-4.7c0-1.9-1-3.8-2.6-4.8
			C147.2,128.7,145.8,128.4,144.6,128.4z M149.7,134.1c0,1.4-0.6,2.9-1.8,3.8c-1.1,0.8-2.3,0.9-3.7,0.9h-1.9v-9.4h1.6
			c1.3,0,2.6,0.1,3.8,0.9C149,131.1,149.7,132.6,149.7,134.1z"/>
		<path fill="#FFFFFF" d="M153.6,134.2c0,3.3,2.8,5.9,6,5.9c3.3,0,6.1-2.6,6.1-5.9s-2.8-5.9-6.1-5.9
			C156.3,128.2,153.6,130.8,153.6,134.2z M164.5,134.1c0,2.7-2.2,4.9-4.9,4.9c-2.6,0-4.9-2.2-4.9-4.8c0-2.7,2.2-4.9,4.9-4.9
			C162.3,129.2,164.5,131.4,164.5,134.1z"/>
		<path fill="#FFFFFF" d="M168.4,134.2c0,3.3,2.8,5.9,6,5.9c3.2,0,6.1-2.6,6.1-5.9s-2.8-5.9-6.1-5.9
			C171.1,128.2,168.4,130.8,168.4,134.2z M179.3,134.1c0,2.7-2.2,4.9-4.9,4.9c-2.6,0-4.9-2.2-4.9-4.8c0-2.7,2.2-4.9,4.9-4.9
			C177.1,129.2,179.3,131.4,179.3,134.1z"/>
		<path fill="#FFFFFF" d="M191.4,132.1c0-1.4-0.8-2.6-2-3.2c-0.8-0.4-1.9-0.4-2.8-0.4h-2.9v11.4h1.1v-10.4h2c0.8,0,1.5,0.1,2.2,0.4
			c0.8,0.4,1.2,1.3,1.2,2.2c0,1.2-0.8,2.1-1.9,2.4c-0.7,0.2-1.8,0.2-2.5,0.2l3.9,5.2h1.4l-3.2-4.3C190,135.4,191.4,134,191.4,132.1z
			"/>
	</g>
</g>
</svg>
