<?xml version="1.0" encoding="utf-8"?>
<!-- Generator: Adobe Illustrator 19.2.0, SVG Export Plug-In . SVG Version: 6.00 Build 0)  -->
<svg version="1.1" baseProfile="tiny" id="Layer_1" xmlns="http://www.w3.org/2000/svg" xmlns:xlink="http://www.w3.org/1999/xlink"
	 x="0px" y="0px" viewBox="0 0 300 180" xml:space="preserve">
<path fill="#C32117" d="M279,67.32v37.25h-2.83l-28.88-31.5c-0.28-0.3-0.78-0.11-0.78,0.3v31.2h-2.94V67.32h2.83l29.09,31.5
	c0.28,0.3,0.77,0.1,0.77-0.3V67.32H279z"/>
<path fill="#C32117" d="M223.13,67.37h-3.34l-18.83,37.2h3.34l6.68-12.3h20.85l6.58,12.3h3.44L223.13,67.37z M229.7,89.53h-16.59
	c-0.37,0-0.62-0.39-0.45-0.73l8.29-16.31c0.19-0.37,0.71-0.37,0.89,0l8.29,16.31C230.31,89.14,230.07,89.53,229.7,89.53z"/>
<path fill="#C32117" d="M152.07,67.37h-3.34l-18.83,37.2h3.34l6.68-12.3h20.85l6.58,12.3h3.44L152.07,67.37z M158.64,89.53h-16.59
	c-0.37,0-0.62-0.39-0.45-0.73l8.29-16.31c0.19-0.37,0.71-0.37,0.89,0l8.29,16.31C159.26,89.14,159.02,89.53,158.64,89.53z"/>
<path fill="#C32117" d="M95.38,67.37h-3.34l-18.83,37.2h3.34l6.68-12.3h20.85l6.58,12.3h3.44L95.38,67.37z M101.96,89.53H85.37
	c-0.37,0-0.62-0.39-0.45-0.73l8.29-16.31c0.19-0.37,0.71-0.37,0.89,0l8.29,16.31C102.57,89.14,102.33,89.53,101.96,89.53z"/>
<polygon fill="#C32117" points="173.02,67.37 176.26,67.37 176.26,101.88 199.14,101.88 199.14,104.57 173.02,104.57 "/>
<polygon fill="#C32117" points="107.53,67.37 136.89,67.37 136.89,70.1 123.93,70.1 123.93,104.57 121.1,104.57 121.1,70.2 
	107.53,70.2 "/>
<path fill="#C32117" d="M23.08,104.57h2.94l4.94-32.03c0.01-0.1,0.15-0.11,0.19-0.03l14.84,32.05h2.33l14.64-32.05
	c0.04-0.09,0.17-0.07,0.19,0.03l5.21,32.03h2.94l-5.67-37.2h-3.44l-14.5,31.6c-0.2,0.43-0.81,0.43-1,0l-14.56-31.6h-3.54
	L23.08,104.57z"/>
</svg>
