<?xml version="1.0" encoding="utf-8"?>
<!-- Generator: Adobe Illustrator 21.0.1, SVG Export Plug-In . SVG Version: 6.00 Build 0)  -->
<svg version="1.2" baseProfile="tiny" id="Layer_1" xmlns="http://www.w3.org/2000/svg" xmlns:xlink="http://www.w3.org/1999/xlink"
	 x="0px" y="0px" viewBox="0 0 300 180" xml:space="preserve">
<path fill="#777777" d="M279,67.3v37.2h-2.8l-28.9-31.5c-0.3-0.3-0.8-0.1-0.8,0.3v31.2h-2.9V67.3h2.8l29.1,31.5
	c0.3,0.3,0.8,0.1,0.8-0.3V67.3H279z"/>
<path fill="#777777" d="M223.1,67.4h-3.3L201,104.6h3.3l6.7-12.3h20.9l6.6,12.3h3.4L223.1,67.4z M229.7,89.5h-16.6
	c-0.4,0-0.6-0.4-0.4-0.7l8.3-16.3c0.2-0.4,0.7-0.4,0.9,0l8.3,16.3C230.3,89.1,230.1,89.5,229.7,89.5z"/>
<path fill="#777777" d="M152.1,67.4h-3.3l-18.8,37.2h3.3l6.7-12.3h20.9l6.6,12.3h3.4L152.1,67.4z M158.6,89.5h-16.6
	c-0.4,0-0.6-0.4-0.4-0.7l8.3-16.3c0.2-0.4,0.7-0.4,0.9,0l8.3,16.3C159.3,89.1,159,89.5,158.6,89.5z"/>
<path fill="#777777" d="M95.4,67.4H92l-18.8,37.2h3.3l6.7-12.3h20.8l6.6,12.3h3.4L95.4,67.4z M102,89.5H85.4c-0.4,0-0.6-0.4-0.4-0.7
	l8.3-16.3c0.2-0.4,0.7-0.4,0.9,0l8.3,16.3C102.6,89.1,102.3,89.5,102,89.5z"/>
<polygon fill="#777777" points="173,67.4 176.3,67.4 176.3,101.9 199.1,101.9 199.1,104.6 173,104.6 "/>
<polygon fill="#777777" points="107.5,67.4 136.9,67.4 136.9,70.1 123.9,70.1 123.9,104.6 121.1,104.6 121.1,70.2 107.5,70.2 "/>
<path fill="#777777" d="M23.1,104.6H26l4.9-32c0-0.1,0.1-0.1,0.2,0l14.8,32h2.3L63,72.5c0-0.1,0.2-0.1,0.2,0l5.2,32h2.9l-5.7-37.2
	h-3.4L47.7,99c-0.2,0.4-0.8,0.4-1,0L32.1,67.4h-3.5L23.1,104.6z"/>
</svg>
