<?xml version="1.0" encoding="utf-8"?>
<!-- Generator: Adobe Illustrator 21.0.1, SVG Export Plug-In . SVG Version: 6.00 Build 0)  -->
<svg version="1.2" baseProfile="tiny" id="Layer_1" xmlns="http://www.w3.org/2000/svg" xmlns:xlink="http://www.w3.org/1999/xlink"
	 x="0px" y="0px" viewBox="0 0 300 180" overflow="inherit" xml:space="preserve">
<path fill="#777777" d="M153.8,96v-9.4c0-4.6,3.7-8.3,8.3-8.3h0.9c3.5,0,3.5,5.3,0,5.3h-0.9c-1.7,0-3,1.4-3,3V96
	C159.1,99.5,153.8,99.5,153.8,96L153.8,96z"/>
<path fill="#777777" d="M171.5,80.9l0,15.1c0,3.5-5.3,3.5-5.3,0l0-15.1C166.2,77.4,171.5,77.4,171.5,80.9L171.5,80.9z"/>
<path fill="#777777" d="M166.1,73.4c0-1.5,1.2-2.7,2.7-2.7c1.5,0,2.7,1.2,2.7,2.7s-1.2,2.7-2.7,2.7
	C167.3,76.1,166.1,74.8,166.1,73.4L166.1,73.4z"/>
<path fill="#777777" d="M231.3,96v-9.4c0-4.6,3.7-8.3,8.3-8.3h0.9c3.5,0,3.5,5.3,0,5.3h-0.9c-1.7,0-3,1.4-3,3V96
	C236.6,99.5,231.3,99.5,231.3,96L231.3,96z"/>
<path fill="#777777" d="M190.4,93.9c-1.5,3.2-4.8,5-8.2,5c-5.6,0-9.8-4.8-9.8-10.3c0-5.5,4.2-10.3,9.8-10.3c3.4,0,6.8,1.8,8.2,5
	c1.4,3.1-3.2,5.1-4.6,2.1c-0.5-1.1-1.9-2.1-3.6-2.1c-2.5,0-4.8,2.2-4.8,5.3s2.3,5.3,4.8,5.3c1.7,0,3.1-0.9,3.6-2.1
	C187.3,88.7,191.8,90.8,190.4,93.9L190.4,93.9z"/>
<path fill="#777777" d="M196.8,73.5v5.6c1.1-0.5,2.3-0.7,3.5-0.7c4.9,0,8.9,4,8.9,8.9v8.9c0,3.5-5.3,3.5-5.3,0v-8.9
	c0-2-1.6-3.6-3.6-3.6c-1.7,0-3.2,1.2-3.5,2.9v0.2v9.4c0,3.5-5.3,3.5-5.3,0V73.5C191.5,70,196.8,70,196.8,73.5L196.8,73.5z"/>
<path fill="#777777" d="M251.6,98.7c-5.6,0-9.8-4.8-9.8-10.3S246,78,251.6,78c1.6,0,3.2,0.4,4.5,1.2v-5.4c0-3.5,5.3-3.5,5.3,0v14.2
	c0,0.1,0,0.3,0,0.4C261.4,93.9,257.1,98.7,251.6,98.7L251.6,98.7z M251.6,93.6c2.5,0,4.8-2.2,4.8-5.3s-2.3-5.3-4.8-5.3
	c-2.5,0-4.8,2.2-4.8,5.3C246.8,91.4,249.1,93.6,251.6,93.6L251.6,93.6z"/>
<path fill="#777777" d="M266.2,92.7c1.3,1,3.1,1.4,4.8,1.3c1.8-0.1,2.5-0.8,2.3-1.6c-0.2-1-3.2-1.5-3.6-1.6
	c-3.7-0.7-7.6-2.1-7.3-6.7c0.4-4.2,3.8-5.8,6.5-6c2.7-0.2,5.4,0.2,7.7,2.1c2.6,2.1-0.2,5.7-3.3,3.6c-1.5-1-2.9-1-4-0.9
	c-1.5,0.1-2,0.9-2,1.5c0,1.2,2.7,1.4,3.2,1.5c3.7,0.6,8,2,7.6,6.8c-0.4,4.3-4,5.7-6.8,5.9c-2.8,0.3-5.7-0.5-8-2.2
	C260.7,94.6,263.5,90.8,266.2,92.7L266.2,92.7z"/>
<path fill="#777777" d="M220,78.2c-5.6,0-9.9,4.8-9.9,10.4c0,5.7,4.4,10.1,9.9,10.1c1.7,0,3.9-0.7,5-1.5l0,0c0,0,0.1,0.2,0.1,0.2
	c1,2.1,4.8,1.7,4.8-1.2v-7.4v-0.1C229.9,83,225.6,78.2,220,78.2z M219.8,93.8c-2.6,0-4.9-1.9-4.9-5.2c0-3.1,2.3-5.4,4.9-5.4
	s4.9,2.2,4.9,5.4C224.7,92,222.6,93.8,219.8,93.8z"/>
<path fill="#777777" d="M76.5,96v-9.8c0-4.8,3.9-8.7,8.7-8.7h0.9c3.7,0,3.7,5.5,0,5.5h-0.9c-1.8,0-3.2,1.4-3.2,3.2V96
	C82,99.7,76.5,99.7,76.5,96L76.5,96z"/>
<path fill="#777777" d="M65.2,77.4c5.8,0,10.2,5,10.2,10.8C75.4,94,71,99,65.2,99c-5.8,0-10.2-5-10.2-10.8
	C55,82.4,59.4,77.4,65.2,77.4L65.2,77.4z M65.2,82.7c-2.6,0-5,2.3-5,5.5c0,3.2,2.4,5.5,5,5.5c2.6,0,5-2.3,5-5.5
	C70.2,85,67.8,82.7,65.2,82.7L65.2,82.7z"/>
<path fill="#777777" d="M24.7,96v-9.8c0-4.8,3.9-8.7,8.7-8.7c2.3,0,4.4,0.9,5.9,2.3c1.5-1.4,3.6-2.3,5.9-2.3c4.8,0,8.7,3.9,8.7,8.7
	V96c0,3.7-5.5,3.7-5.5,0v-9.8c0-1.8-1.4-3.2-3.2-3.2s-3.2,1.4-3.2,3.2V96c0,3.7-5.5,3.7-5.5,0v-9.8c0-1.8-1.4-3.2-3.2-3.2
	c-1.8,0-3.2,1.4-3.2,3.2V96C30.3,99.7,24.7,99.7,24.7,96L24.7,96z"/>
<path fill="#777777" d="M114.2,72.4v5.8c1.1-0.5,2.4-0.8,3.7-0.8c5.1,0,9.2,4.1,9.2,9.2V96c0,3.7-5.5,3.7-5.5,0v-9.3
	c0-2.1-1.7-3.7-3.7-3.7c-1.8,0-3.3,1.3-3.7,3v0.2V96c0,3.7-5.5,3.7-5.5,0V72.4C108.7,68.7,114.2,68.7,114.2,72.4L114.2,72.4z"/>
<path fill="#777777" d="M140.9,103.9v-5.8c-1.1,0.5-2.4,0.8-3.7,0.8c-5.1,0-9.2-4.1-9.2-9.2v-9.3c0-3.7,5.5-3.7,5.5,0v9.3
	c0,2.1,1.7,3.7,3.7,3.7c1.8,0,3.3-1.3,3.7-3v-0.2v-9.8c0-3.7,5.5-3.7,5.5,0v23.6C146.5,107.6,140.9,107.6,140.9,103.9L140.9,103.9z"
	/>
<path fill="#777777" d="M97.4,77.4c5.8,0,10.2,5,10.2,10.8c0,5.8-4.4,10.8-10.2,10.8c-1.7,0-3.3-0.4-4.8-1.2v5.7
	c0,3.7-5.5,3.7-5.5,0V88.2c0-0.2,0-0.3,0-0.4C87.4,82.2,91.8,77.4,97.4,77.4L97.4,77.4z M97.4,82.7c-2.6,0-5,2.3-5,5.5
	c0,3.2,2.4,5.5,5,5.5c2.6,0,5-2.3,5-5.5C102.4,85,100,82.7,97.4,82.7L97.4,82.7z"/>
<path fill="#777777" d="M276.6,75.5c0,1.4,1.1,2.4,2.4,2.4c1.3,0,2.4-1,2.4-2.4c0-1.4-1.1-2.4-2.4-2.4
	C277.7,73.1,276.6,74.2,276.6,75.5L276.6,75.5z M277,75.5c0-1.2,0.9-2,2-2c1.1,0,2,0.9,2,2c0,1.2-0.9,2.1-2,2.1
	C277.9,77.6,277,76.7,277,75.5L277,75.5z M278.1,76.9h0.4v-1.2h0.5l0.8,1.2h0.5l-0.8-1.2c0.4-0.1,0.7-0.3,0.7-0.8
	c0-0.5-0.3-0.8-1-0.8h-1.1L278.1,76.9L278.1,76.9z M278.5,74.5h0.6c0.3,0,0.6,0.1,0.6,0.4c0,0.4-0.4,0.5-0.7,0.5h-0.5V74.5
	L278.5,74.5z"/>
</svg>
