<?xml version="1.0" encoding="utf-8"?>
<!-- Generator: Adobe Illustrator 21.0.1, SVG Export Plug-In . SVG Version: 6.00 Build 0)  -->
<svg version="1.2" baseProfile="tiny" id="Layer_1" xmlns="http://www.w3.org/2000/svg" xmlns:xlink="http://www.w3.org/1999/xlink"
	 x="0px" y="0px" viewBox="0 0 300 180" overflow="inherit" xml:space="preserve">
<polygon fill="#AAAAAA" points="256.6,54.1 241.3,112.8 241.1,112.8 224.7,54.1 216.7,54.1 200.4,112.8 200.2,112.8 185,54.1 
	178.1,54.1 196.7,121.1 203.7,121.1 220.6,61.1 220.8,61.1 237.7,121.1 244.5,121.1 263,54.1 "/>
<polygon fill="#999999" points="160,54.1 121.1,90.2 121.1,54.1 114.7,54.1 114.7,121.1 121.1,121.1 121.1,98.1 133.9,86.2 
	161.8,121.1 170.1,121.1 138.7,81.8 168.7,54.1 "/>
<path fill="#777777" d="M44.5,121.1h6.4V91.4h24.2c12-0.5,13,9.9,13.4,19.3c0.3,2.8,0.3,7.9,1.8,10.4h7c-2.8-3.3-2.8-12.6-3.1-17.2
	c-0.5-8.1-3-13.9-11.7-15.1v-0.2c8.6-1.8,13.1-8.5,13.1-17.1c0-12.1-9.4-17.5-20.4-17.5H44.6L44.5,121.1L44.5,121.1z M50.9,59.5
	h23.8c9.7,0,14.4,5.1,14.4,13.3c0,8.2-6.7,13.1-14.4,13.1H50.9V59.5z"/>
</svg>
