<?xml version="1.0" encoding="utf-8"?>
<!-- Generator: Adobe Illustrator 21.0.1, SVG Export Plug-In . SVG Version: 6.00 Build 0)  -->
<svg version="1.2" baseProfile="tiny" id="Layer_1" xmlns="http://www.w3.org/2000/svg" xmlns:xlink="http://www.w3.org/1999/xlink"
	 x="0px" y="0px" viewBox="0 0 300 180" overflow="scroll" xml:space="preserve">
<path fill="#777777" d="M45,67.9H25.6c0,0-3.8-0.6-6,3.2c-2.4,4.1,0.6,9.9,0.6,9.9l8.4,13.6c0,0,0.9,1.1,0.2,2.2
	c-0.6,1-1.8,0.9-1.8,0.9h-9l2.4,12.8h19.9c0,0,4.7,0.6,7-4.3c2.1-4.5-0.9-8.5-0.9-8.5l-8.4-15.6c0,0-0.3-0.5,0-0.9
	c0.2-0.3,0.7-0.3,0.7-0.3h8.7L45,67.9z M76.1,110.5c0,0-13.8,1.5-23.1-12.8c-5.1-7.8-6.3-29.3,14.1-29.9c5.3,0,9.6,0.1,9.6,0.1
	L79.2,81c0,0-4.9,0-9.1,0c-4.2,0-6.1,2.8-6.1,5.7s0.4,8.7,10.2,11c3.3,0.8,5.8,0.1,5.8,0.1L76.1,110.5L76.1,110.5z M83.6,82.4h14.8
	v28H83.6V82.4z M181,67.9l-4,19l-3.6-19h-14.7l10.4,42.6H184l3.3-16.5l2.9,13.8l6.1-25.1l-2.2-14.8H181z"/>
<path fill="#AAAAAA" d="M202.2,67.9L201,74h26.9l1.7-6.1H202.2z"/>
<path fill="#777777" d="M200.5,76l-2,7.4h12.7l2.4-7.4H200.5z"/>
<path fill="#AAAAAA" d="M198.1,86.2l-1.4,5.8h24.7l1.8-5.8H198.1z"/>
<path fill="#777777" d="M196.4,94.5h12.9l-3.6,15.9h-13.1L196.4,94.5z"/>
<path fill="#AAAAAA" d="M226,110.5h8.2L245,67.9h-8L226,110.5z M250.1,67.8h8.1l5.8,14.4l14-14.4h8.9l-19.6,21.5l9.3,21.1h-8.4
	l-6.5-14.8l-13.9,14.8h-9.3l20.2-22.2L250.1,67.8z"/>
<path fill="#777777" d="M125.2,67.8h30.5l3.5,12.7h-17.8v2.4h15.1l-4,12.6h-11.4v2.1h18.9l-4,12.8h-30.8L125.2,67.8z M134.5,115.5
	c-4.6-1.9-10.3-4.8-13.8-8.3c-6.4-6.5-7.1-11.6-7.1-11.6s10.2-7.9,7.9-17.3C118.8,67.7,112.2,68,102,68l-18-0.1L81.6,81
	c0,0,17.5-0.1,19.8,0c2.3,0.1,4.9,0.2,4.9,3.7c0,3-6.7,6.7-6.7,6.7s-1,7.5,8.4,19.1c3.6,4.5,7.9,8.4,11.9,11.6L134.5,115.5
	L134.5,115.5z"/>
</svg>
