<?xml version="1.0" encoding="utf-8"?>
<!-- Generator: Adobe Illustrator 21.0.1, SVG Export Plug-In . SVG Version: 6.00 Build 0)  -->
<svg version="1.2" baseProfile="tiny" id="Layer_1" xmlns="http://www.w3.org/2000/svg" xmlns:xlink="http://www.w3.org/1999/xlink"
	 x="0px" y="0px" viewBox="0 0 300 180" xml:space="preserve">
<rect x="58.2" y="40.8" fill="#CCCCCC" width="185.5" height="89.1"/>
<g>
	<path fill="#FFFFFF" d="M66,97.8c4.5,6.7,12.8,10.8,21.3,10.8c5.8,0,8.2-2.2,8.2-5.7c0-4.1-3.1-4.7-10.2-7.3
		c-13.7-5-20.6-9.2-20.6-21.6c0-11.4,10.3-23.3,25-24.3c9.1-0.6,12.4,0.5,19.2,2.9v19.9c-5.9-4.8-8-7-15.3-7.9
		c-5-0.6-8.6,2.4-8.2,5.5c0.6,4.7,4.9,4.1,15.7,8.3c9.7,3.8,14.4,12.2,14.4,22.1c0,13.7-13,22.7-28.4,22.5
		c-8.7-0.1-15.7-1.2-21.2-5.9L66,97.8"/>
</g>
<g>
	<path fill="#FFFFFF" d="M110.7,68.9h6.1V57.3l19.8-2.5v13.9h9.3v14.1h-9.7v20c0,0,0.7,6.5,8.8,2.4v14.5c0,0-24.9,9.7-27.8-8.2V82.7
		h-6.5V68.9"/>
</g>
<g>
	<path fill="#FFFFFF" d="M201.1,96l-14.7-27h23.4l4.7,9.9l4.7-9.9H238l-15.5,27l14.9,24.9h-22.1l-5.1-7.9l-5.4,8.4h-32.2l-1.2-4.8
		c-2.6,3.1-3.9,6-10.9,6c-8.9,0-14.2-5.1-14.2-14.3c0-8.9,3.6-14.2,12.3-18.9c7.4-4,10.9-3.3,10.9-3.3c0-2.8-0.7-4.6-4.2-4.8
		c-5.1-0.3-8.8,0.2-15.2,5V70.2c6.6-3.1,11.8-3.3,19.3-2.4c11.2,1.3,18.8,8.3,19.2,17.4v28.7L201.1,96 M164.6,104.6
		c0.3,6.7,6.2,3,6.2,3V97.3C164.5,100.1,164.6,104.6,164.6,104.6z"/>
</g>
<g>
	<polyline fill="#777777" points="243.8,139.3 243.8,129.6 58.2,129.6 58.2,139.3 243.8,139.3 	"/>
</g>
<g>
	<polyline fill="#FFFFFF" points="66.7,137.4 66.7,132.9 65.7,132.9 65.7,131.4 69.3,131.4 69.3,132.9 68.3,132.9 68.3,137.4 
		66.7,137.4 	"/>
</g>
<g>
	<path fill="#FFFFFF" d="M79.8,131.4h1.9c1.3,0,2.1,0.7,2.1,1.8c0,0.7-0.3,1.2-1,1.5l1.2,2.6h-1.8l-0.8-2.3v2.3h-1.7v-5.9
		 M81.5,134.1c0.4,0,0.7-0.2,0.7-0.7s-0.2-0.7-0.6-0.7c0,0,0,0-0.1,0V134.1L81.5,134.1z"/>
</g>
<g>
	<path fill="#FFFFFF" d="M96.1,131.4H98l1.3,5.9h-1.6l-0.1-0.9h-1l-0.1,0.9h-1.6L96.1,131.4 M97.3,135.3l-0.3-2.2l-0.3,2.2H97.3z"/>
</g>
<g>
	<path fill="#FFFFFF" d="M111.6,131.4c1,0,1.6,0.1,2.2,0.7c0.4,0.5,0.7,1.2,0.7,2.3c0,2-0.9,3-2.5,3h-1.6v-5.9h1.2 M112,135.9
		C112,135.9,112.1,135.9,112,135.9c0.6,0,0.8-0.5,0.8-1.5s-0.1-1.5-0.7-1.5c0,0,0,0-0.1,0L112,135.9L112,135.9z"/>
</g>
<g>
	<polyline fill="#FFFFFF" points="125.7,131.4 128.7,131.4 128.7,132.9 127.4,132.9 127.4,133.6 128.6,133.6 128.6,135 127.4,135 
		127.4,135.8 128.7,135.8 128.7,137.4 125.7,137.4 125.7,131.4 	"/>
</g>
<g>
	<path fill="#FFFFFF" d="M148.8,137.5c-0.6,0-1.1-0.2-1.6-0.7c-0.6-0.6-0.8-1.4-0.8-2.4c0-1.9,1-3,2.4-3c0.4,0,0.7,0.1,1,0.2v1.4
		c-0.2-0.1-0.4-0.2-0.6-0.2c-0.7,0-1,0.6-1,1.6s0.4,1.6,1,1.6c0.2,0,0.4-0.1,0.6-0.2v1.5C149.4,137.4,149.1,137.5,148.8,137.5"/>
</g>
<g>
	<polyline fill="#FFFFFF" points="161,131.4 164,131.4 164,132.9 162.7,132.9 162.7,133.6 163.9,133.6 163.9,135 162.7,135 
		162.7,135.8 164,135.8 164,137.4 161,137.4 161,131.4 	"/>
</g>
<g>
	<polyline fill="#FFFFFF" points="175.4,131.4 177.1,131.4 178,134.6 178,131.4 179.5,131.4 179.5,137.4 177.9,137.4 176.9,134.4 
		176.9,137.4 175.4,137.4 175.4,131.4 	"/>
</g>
<g>
	<polyline fill="#FFFFFF" points="191.7,137.4 191.7,132.9 190.7,132.9 190.7,131.4 194.3,131.4 194.3,132.9 193.3,132.9 
		193.3,137.4 191.7,137.4 	"/>
</g>
<g>
	<path fill="#FFFFFF" d="M205.5,131.4h1.9c1.3,0,2.1,0.7,2.1,1.8c0,0.7-0.3,1.2-1,1.5l1.2,2.6h-1.8l-0.8-2.3v2.3h-1.7L205.5,131.4
		 M207.2,134.1c0.4,0,0.6-0.2,0.6-0.7s-0.2-0.7-0.6-0.7c0,0,0,0-0.1,0v1.4H207.2z"/>
</g>
<g>
	<polyline fill="#FFFFFF" points="220.9,131.4 223.9,131.4 223.9,132.9 222.6,132.9 222.6,133.6 223.7,133.6 223.7,135 222.6,135 
		222.6,135.8 223.9,135.8 223.9,137.4 220.9,137.4 220.9,131.4 	"/>
</g>
<g>
	<path fill="#FFFFFF" d="M235.6,136c0.3,0,0.4-0.2,0.4-0.4s-0.2-0.4-0.4-0.6c-0.7-0.6-1.2-1.1-1.2-1.9c0-1,0.7-1.7,1.8-1.7
		c0.4,0,0.9,0.1,1.4,0.3v1.5c-0.4-0.3-0.8-0.5-1-0.5c-0.3,0-0.4,0.1-0.4,0.4c0,0.2,0.2,0.4,0.5,0.6c0.8,0.6,1.2,1,1.2,1.9
		c0,1.2-0.8,1.9-2,1.9c-0.5,0-0.9-0.1-1.4-0.4v-1.6C234.9,135.8,235.3,136,235.6,136"/>
</g>
<g>
	<path fill="#FFFFFF" d="M65.8,97.8c4.5,6.7,12.8,10.8,21.3,10.8c5.8,0,8.2-2.2,8.2-5.7c0-4.1-3.1-4.7-10.2-7.3
		c-13.7-5-20.6-9.2-20.6-21.6c0-11.4,10.3-23.3,25-24.3c9.1-0.6,12.4,0.5,19.2,2.9v19.9c-5.9-4.8-8-7-15.3-7.9
		c-4.9-0.6-8.6,2.5-8.1,5.6c0.6,4.7,4.9,4.1,15.7,8.3c9.7,3.8,14.4,12.2,14.4,22.1c0,13.7-13,22.7-28.4,22.5
		c-8.7-0.1-15.7-1.2-21.2-5.9V97.8"/>
</g>
<g>
	<path fill="#777777" d="M87.6,124.3c-0.2,0-0.4,0-0.7,0c-7.8-0.1-15.8-1-22-6.2l-0.4-0.4V93.6l2.3,3.5c4.1,6.2,12.1,10.2,20.3,10.2
		c6.9,0,6.9-3.2,6.9-4.4c0-2.7-1.5-3.3-7.2-5.3c-0.7-0.2-1.4-0.5-2.2-0.8C72,92.2,63.2,87.8,63.2,74c0-6,2.7-12.1,7.3-16.9
		c4.9-5.1,11.6-8.2,18.8-8.6c9.2-0.6,12.7,0.5,19.7,3l0.8,0.3v23.4l-3.4-2.8c-4.9-4.1-7-5.8-13.4-6.5c-2.3-0.3-4.5,0.4-5.8,1.7
		c-0.7,0.8-1.1,1.6-1,2.5c0.3,2.4,1.7,2.9,6.7,4.5c2.2,0.7,4.9,1.5,8.2,2.8c9.7,3.8,15.2,12.3,15.2,23.3c0,5.9-2.3,11.2-6.5,15.4
		C104.7,121.3,96.5,124.3,87.6,124.3z M67.1,116.6c5.2,4.1,11.7,5.1,19.9,5.2c8.5,0.2,16.3-2.6,21.3-7.6c3.8-3.7,5.8-8.4,5.8-13.6
		c0-9.9-4.9-17.5-13.6-20.9c-3.2-1.3-5.9-2.1-8-2.8c-5.1-1.6-7.9-2.5-8.5-6.6c-0.2-1.6,0.4-3.3,1.7-4.6c1.8-1.9,4.8-2.8,7.9-2.4
		c6.8,0.8,9.4,2.7,13.9,6.4V53.4c-6.3-2.2-9.5-3.1-17.9-2.6c-11.5,0.8-23.8,10.2-23.8,23c0,11.3,5.8,15.3,19.8,20.4
		c0.8,0.3,1.5,0.5,2.2,0.8c5.7,2,8.9,3.1,8.9,7.7c0,3.2-1.6,7-9.4,7s-15.2-3.2-20.1-8.4C67.1,101.4,67.1,116.6,67.1,116.6z"/>
</g>
<g>
	<path fill="#FFFFFF" d="M110.6,68.9h6.1V57.3l19.8-2.5v13.9h9.3v14.1H136v20c0,0,0.7,6.5,8.8,2.4v14.5c0,0-24.9,9.7-27.8-8.2V82.7
		h-6.5L110.6,68.9"/>
</g>
<g>
	<path fill="#777777" d="M131.2,123.6c-3.2,0-6.4-0.5-9.1-2.1c-3.4-2-5.6-5.2-6.3-9.8v-0.2V84h-6.5V67.7h6.1V56.2l22.3-2.8v14.1h9.3
		v16.6h-9.7v18.7c0,0.3,0.3,1.6,1.4,2.2c1.2,0.6,3.1,0.3,5.6-0.9l0.6-0.3l0.6,0.4c0.6,0.4,0.6,0.4,0.6,8.3v8.1l-0.8,0.3
		C144.9,121.1,138.2,123.6,131.2,123.6z M118.3,111.5c0.6,3.7,2.3,6.3,5,7.9c6.6,3.7,17.2,0.5,20.2-0.5c0-4,0-9,0-11.7
		c-2.4,0.9-4.5,0.9-6.1,0c-2.4-1.3-2.7-4.1-2.7-4.2v-0.1V81.6h9.7V70h-9.3V56.3l-17.3,2.2v11.7h-6.1v11.4h6.5L118.3,111.5z"/>
</g>
<g>
	<path fill="#777777" d="M161.5,123.7c-9.7,0-15.4-5.8-15.4-15.5c0-9.3,3.8-15.1,12.9-20c3.9-2.1,7.4-3.3,10.2-3.5
		c-0.2-1.6-0.9-2.2-2.9-2.3c-4.5-0.3-8-0.1-14.3,4.7l-2,1.5V69l0.7-0.3c7-3.2,12.6-3.4,19.9-2.5c11.7,1.4,19.9,8.9,20.3,18.7v24.7
		l9.7-13.9l-15.3-28.2h26.3l3.9,8.3l3.9-8.3h21.8L225,95.7l15.6,26.2h-25l-4.4-6.8l-4.7,7.3h-33.8l-0.9-3.3
		C169.8,121.5,167.6,123.7,161.5,123.7z M170,87.1c-2.5,0-5.9,1.1-9.8,3.2c-8.4,4.5-11.6,9.5-11.6,17.8s4.7,13,12.9,13
		c5.4,0,6.9-1.8,8.9-4.3c0.3-0.4,0.7-0.8,1-1.2l1.6-1.8l1.6,6.2h30.5l6.1-9.5l5.8,8.9h19.2L222,95.6l14.8-25.7H221l-5.5,11.6
		L210,69.9h-20.5l14,25.8l-15.2,21.8V84.8c-0.4-8.4-7.6-15-18.1-16.2c-6.8-0.8-11.7-0.7-17.9,2v13c5.3-3.6,8.9-4.1,14-3.8
		c4.7,0.3,5.4,3.2,5.4,6.1v0.5l-0.4,0.4c-0.4,0.4-0.9,0.4-1.1,0.4C170.2,87.1,170.1,87.1,170,87.1z M168.5,109.4
		c-0.6,0-1.3-0.1-1.9-0.4c-1.4-0.8-2.2-2.4-2.3-4.8l0,0c0-0.2-0.1-5.3,6.9-8.4L173,95v12.9l-0.6,0.4
		C172.1,108.4,170.4,109.4,168.5,109.4z M166.8,104.2c0,1,0.2,2.2,1,2.6c0.7,0.4,1.9,0,2.7-0.3V99
		C166.9,101.3,166.8,103.9,166.8,104.2z"/>
</g>
</svg>
