<?xml version="1.0" encoding="utf-8"?>
<!-- Generator: Adobe Illustrator 19.2.0, SVG Export Plug-In . SVG Version: 6.00 Build 0)  -->
<svg version="1.1" baseProfile="tiny" id="Layer_1" xmlns="http://www.w3.org/2000/svg" xmlns:xlink="http://www.w3.org/1999/xlink"
	 x="0px" y="0px" viewBox="0 0 300 180" xml:space="preserve">
<g>
	<g>
		<path fill="#74787B" d="M85.17,119.95v15.57h-1.6l0.08-1.42l-0.05-0.01c-0.51,1.06-1.66,1.58-3.5,1.58c-1.67,0-2.81-0.4-3.43-1.22
			c-0.61-0.82-0.92-2.33-0.92-4.55c0-2.05,0.3-3.46,0.92-4.26c0.62-0.79,1.72-1.19,3.31-1.19c1.99,0,3.17,0.51,3.55,1.54l0.04-0.03
			v-6.02H85.17z M80.37,125.78c-1.18,0-1.97,0.28-2.35,0.82c-0.39,0.54-0.58,1.65-0.58,3.3c0,1.83,0.19,3.02,0.57,3.59
			c0.39,0.57,1.18,0.86,2.39,0.86c1.31,0,2.17-0.28,2.56-0.86c0.4-0.57,0.59-1.82,0.59-3.75c0-1.56-0.22-2.61-0.65-3.15
			C82.47,126.05,81.63,125.78,80.37,125.78z"/>
		<path fill="#74787B" d="M96.47,132.22h1.64l0.01,0.4c0,1.13-0.35,1.92-1.04,2.38c-0.69,0.45-1.89,0.68-3.62,0.68
			c-2,0-3.33-0.37-3.95-1.1s-0.94-2.28-0.94-4.62c0-2.17,0.31-3.63,0.95-4.37s1.87-1.12,3.7-1.12c2,0,3.32,0.32,3.94,0.96
			s0.94,2,0.94,4.08v0.85h-7.85c0,1.72,0.18,2.81,0.55,3.28s1.23,0.71,2.58,0.71c1.29,0,2.12-0.11,2.5-0.34
			c0.39-0.22,0.57-0.71,0.57-1.45v-0.33H96.47z M96.47,129.11l-0.01-0.51c0-1.18-0.19-1.95-0.58-2.3c-0.39-0.35-1.22-0.53-2.51-0.53
			c-1.3,0-2.13,0.21-2.51,0.62c-0.39,0.41-0.58,1.32-0.58,2.72H96.47z"/>
		<path fill="#74787B" d="M109.98,127.47h-1.6c0-0.76-0.16-1.23-0.46-1.42s-1.1-0.28-2.38-0.28c-1.19,0-1.94,0.1-2.26,0.29
			c-0.32,0.19-0.48,0.66-0.48,1.4c0,1.12,0.54,1.7,1.61,1.76l1.29,0.06l1.64,0.08c1.98,0.1,2.96,1.13,2.96,3.1
			c0,1.22-0.33,2.07-0.98,2.52c-0.65,0.46-1.85,0.68-3.59,0.68c-1.79,0-3.01-0.22-3.69-0.65c-0.67-0.43-1.01-1.22-1.01-2.38
			l0.01-0.6h1.65l0.01,0.51c0,0.72,0.18,1.19,0.55,1.43c0.37,0.24,1.08,0.36,2.15,0.36c1.31,0,2.18-0.13,2.6-0.38
			c0.41-0.25,0.62-0.77,0.62-1.57c0-1.15-0.52-1.72-1.56-1.72c-2.43,0-4.03-0.2-4.79-0.62c-0.76-0.41-1.15-1.26-1.15-2.55
			c0-1.22,0.3-2.04,0.9-2.44c0.61-0.4,1.81-0.61,3.61-0.61c2.89,0,4.34,0.87,4.34,2.61v0.4H109.98z"/>
		<path fill="#74787B" d="M115.13,119.95v1.79h-1.6v-1.79H115.13z M115.13,124.61v10.9h-1.6v-10.9
			C113.53,124.61,115.13,124.61,115.13,124.61z"/>
		<path fill="#74787B" d="M127.97,124.61v11.61c0,1.58-0.34,2.67-1.03,3.26c-0.69,0.6-1.94,0.89-3.76,0.89
			c-1.63,0-2.74-0.25-3.33-0.75c-0.59-0.51-0.89-1.44-0.89-2.81h1.53c0,0.94,0.17,1.54,0.52,1.83c0.35,0.28,1.1,0.42,2.28,0.42
			c1.21,0,2.03-0.18,2.45-0.55c0.41-0.37,0.62-1.08,0.62-2.14v-2.19l-0.04-0.01c-0.41,1.01-1.6,1.52-3.56,1.52
			c-1.61,0-2.72-0.4-3.33-1.19c-0.61-0.8-0.91-2.24-0.91-4.35c0-2.18,0.31-3.68,0.93-4.48c0.62-0.8,1.76-1.2,3.45-1.2
			c1.79,0,2.95,0.54,3.5,1.65l0.04-0.01l-0.08-1.47h1.59V124.61z M123.21,125.78c-1.25,0-2.07,0.27-2.44,0.79
			c-0.38,0.53-0.56,1.68-0.56,3.47c0,1.8,0.18,2.97,0.56,3.51c0.38,0.53,1.19,0.8,2.44,0.8c1.27,0,2.1-0.29,2.51-0.88
			c0.4-0.59,0.61-1.82,0.61-3.68c0-1.65-0.2-2.72-0.61-3.23C125.33,126.03,124.48,125.78,123.21,125.78z"/>
		<path fill="#74787B" d="M131.68,124.61h1.53l-0.05,1.48l0.05,0.04c0.49-1.12,1.69-1.67,3.63-1.67c1.55,0,2.61,0.28,3.16,0.82
			c0.55,0.55,0.83,1.6,0.83,3.14v7.09h-1.6v-6.96v-0.41c0-0.94-0.17-1.56-0.53-1.88s-1.05-0.49-2.07-0.49
			c-2.24,0-3.36,1.06-3.36,3.18v6.55h-1.6L131.68,124.61L131.68,124.61z"/>
		<path fill="#74787B" d="M152.24,132.22h1.64l0.01,0.4c0,1.13-0.35,1.92-1.04,2.38c-0.69,0.45-1.89,0.68-3.62,0.68
			c-2,0-3.33-0.37-3.95-1.1c-0.62-0.74-0.94-2.28-0.94-4.62c0-2.17,0.31-3.63,0.95-4.37s1.87-1.12,3.7-1.12c2,0,3.32,0.32,3.94,0.96
			s0.94,2,0.94,4.08v0.85h-7.85c0,1.72,0.18,2.81,0.55,3.28c0.37,0.47,1.23,0.71,2.58,0.71c1.29,0,2.12-0.11,2.5-0.34
			c0.39-0.22,0.57-0.71,0.57-1.45v-0.33H152.24z M152.24,129.11l-0.01-0.51c0-1.18-0.19-1.95-0.58-2.3
			c-0.39-0.35-1.22-0.53-2.51-0.53c-1.3,0-2.13,0.21-2.51,0.62c-0.39,0.41-0.58,1.32-0.58,2.72H152.24z"/>
		<path fill="#74787B" d="M166.41,119.95v15.57h-1.6l0.08-1.42l-0.05-0.01c-0.51,1.06-1.66,1.58-3.5,1.58
			c-1.67,0-2.81-0.4-3.43-1.22c-0.61-0.82-0.92-2.33-0.92-4.55c0-2.05,0.3-3.46,0.92-4.26c0.62-0.79,1.72-1.19,3.31-1.19
			c1.99,0,3.17,0.51,3.55,1.54l0.04-0.03v-6.02H166.41z M161.61,125.78c-1.19,0-1.97,0.28-2.35,0.82s-0.58,1.65-0.58,3.3
			c0,1.83,0.19,3.02,0.57,3.59c0.39,0.57,1.19,0.86,2.39,0.86c1.31,0,2.17-0.28,2.56-0.86c0.4-0.57,0.59-1.82,0.59-3.75
			c0-1.56-0.22-2.61-0.65-3.15C163.7,126.05,162.86,125.78,161.61,125.78z"/>
		<path fill="#74787B" d="M177.29,135.51v-9.58h-1.66v-1.32h1.66v-1.62c0-2.13,1.1-3.21,3.3-3.21c0.33,0,0.71,0.03,1.15,0.08v1.32
			c-0.51-0.06-0.89-0.08-1.13-0.08c-1.15,0-1.72,0.58-1.72,1.74v1.76h2.85v1.32h-2.85v9.58H177.29z"/>
		<path fill="#74787B" d="M188.48,124.45c2.01,0,3.32,0.35,3.92,1.05c0.6,0.7,0.9,2.22,0.9,4.56c0,2.34-0.29,3.86-0.9,4.56
			c-0.6,0.7-1.91,1.05-3.92,1.05c-2,0-3.31-0.35-3.92-1.05c-0.6-0.7-0.9-2.22-0.9-4.56c0-2.34,0.3-3.86,0.9-4.56
			C185.16,124.8,186.47,124.45,188.48,124.45z M188.48,125.78c-1.42,0-2.29,0.23-2.63,0.69c-0.34,0.46-0.51,1.66-0.51,3.59
			c0,1.94,0.17,3.13,0.51,3.59c0.34,0.46,1.21,0.69,2.63,0.69c1.42,0,2.3-0.23,2.64-0.69c0.34-0.46,0.51-1.66,0.51-3.59
			c0-1.94-0.17-3.13-0.51-3.59C190.78,126.01,189.9,125.78,188.48,125.78z"/>
		<path fill="#74787B" d="M196.88,124.61h1.6l-0.16,1.26l0.04,0.04c0.63-1.03,1.67-1.53,3.12-1.53c2,0,3.01,1.04,3.01,3.1
			l-0.01,0.75h-1.57l0.04-0.28c0.03-0.28,0.04-0.48,0.04-0.58c0-1.12-0.61-1.67-1.83-1.67c-1.78,0-2.67,1.1-2.67,3.3v6.53h-1.6
			L196.88,124.61L196.88,124.61z"/>
		<path fill="#74787B" d="M215.28,119.95v15.57h-1.6v-15.57H215.28z"/>
		<path fill="#74787B" d="M220.59,119.95v1.79h-1.6v-1.79H220.59z M220.59,124.61v10.9h-1.6v-10.9
			C218.99,124.61,220.59,124.61,220.59,124.61z"/>
		<path fill="#74787B" d="M224.74,135.51v-9.58h-1.66v-1.32h1.66v-1.62c0-2.13,1.1-3.21,3.3-3.21c0.33,0,0.71,0.03,1.15,0.08v1.32
			c-0.51-0.06-0.89-0.08-1.13-0.08c-1.15,0-1.72,0.58-1.72,1.74v1.76h2.85v1.32h-2.85v9.58H224.74z"/>
		<path fill="#74787B" d="M239,132.22h1.64l0.01,0.4c0,1.13-0.35,1.92-1.04,2.38c-0.69,0.45-1.89,0.68-3.62,0.68
			c-2,0-3.33-0.37-3.95-1.1c-0.62-0.74-0.94-2.28-0.94-4.62c0-2.17,0.31-3.63,0.95-4.37s1.87-1.12,3.7-1.12c2,0,3.32,0.32,3.94,0.96
			s0.94,2,0.94,4.08v0.85h-7.85c0,1.72,0.18,2.81,0.55,3.28c0.37,0.47,1.23,0.71,2.58,0.71c1.29,0,2.12-0.11,2.5-0.34
			c0.39-0.22,0.57-0.71,0.57-1.45v-0.33H239z M239,129.11l-0.01-0.51c0-1.18-0.19-1.95-0.58-2.3s-1.22-0.53-2.51-0.53
			c-1.3,0-2.13,0.21-2.51,0.62c-0.39,0.41-0.58,1.32-0.58,2.72H239z"/>
	</g>
</g>
<g>
	<g>
		<path fill="#C32417" d="M111.59,70.48c-0.42-2.28-0.59-3.71-3.04-4.9h15.95c-1.52,0.59-2.2,1.43-2.2,2.7
			c0,0.34,0.08,0.67,0.17,1.27l4.81,27.94l11.98-31.9h7.18l11.22,32.4l4.9-28.44c0.08-0.68,0.17-1.01,0.17-1.27
			c0-1.27-0.68-2.11-2.2-2.7h12.41c-2.36,1.19-2.62,2.62-3.04,4.9l-7.68,40.25h-10.03L141.46,79.6l-11.64,31.14h-10.29L111.59,70.48
			z"/>
		<path fill="#C32417" d="M187.03,111.49c-8.94,0-15.19-6.41-15.19-13.25c0-5.49,3.21-9.62,9.03-11.73
			c4.81-1.69,11.98-3.21,21.02-6.66c0-0.17,0-0.34,0-0.42c0-5.32-2.95-7.59-9.54-7.59c-7.51,0-12.41,2.02-16.04,7.26V68.71
			c4.05-2.7,10.55-4.39,18.56-4.39c14.51,0,17.72,5.99,17.81,20.08l0.08,12.83c0,5.15,0.17,9.28,2.36,13.08h-10.29
			c-1.27-1.77-1.77-4.48-1.94-8.19C200.95,107.61,194.37,111.49,187.03,111.49z M182.99,97.07c0,3.63,3.29,6.66,7.77,6.66
			c5.73,0,11.22-6.25,11.22-16.28c0-0.42,0-0.93,0-1.35C189.39,90.48,182.99,91.32,182.99,97.07z"/>
		<path fill="#C32417" d="M221.46,105.33c0-0.26,0-0.59,0-0.85V71.4c0-0.26,0-0.59,0-0.85c0-2.53-0.17-3.97-3.03-4.98h14.1
			l-0.51,9.54c4.3-7.26,9.03-10.72,15.27-10.72c3.04,0,6.16,1.35,8.35,3.8c2.95,3.29,3.12,6.92,3.12,11.56v24.73
			c0,0.34,0,0.59,0,0.85c0,2.62,0.17,3.89,3.04,4.98h-17.05c2.87-1.09,3.04-2.36,3.04-4.98c0-0.26,0-0.51,0-0.85V81.37
			c0-5.49-1.27-8.27-4.81-8.27c-3.29,0-7.34,3.12-10.63,9.36v22.03c0,0.34,0,0.59,0,0.85c0,2.62,0.17,3.89,3.04,4.98h-16.97
			C221.3,109.22,221.46,107.78,221.46,105.33z"/>
	</g>
	<g>
		<path fill="#BCBEC0" d="M40.24,58.29c0.65,1.49,6.4,6.87,8.44,8.07c2.44,1.44,9.67,4.6,17.9,6.58c9.41,2.28,20.03,4.17,23.66,7.79
			c3.16,3.16,2.44,7.58,0.28,10.02c-0.28-2.04-1.81-4.22-5.48-5.47c-4.36-1.48-23.66-4.36-31.9-7.98
			C40.24,71.65,40.7,64.08,40.24,58.29"/>
		<path fill="#BCBEC0" d="M37.55,69.7c1.08,2.06,5.34,7.64,12.43,11.23c6.95,3.52,19.02,5.51,23.92,6.3
			c4.64,0.74,10.03,1.39,11.6,3.06c2.88,3.06,0.28,4.54-1.02,6.4c0-0.74-0.93-1.41-2.42-1.39c-8.07,0.09-23.69-1.21-32.64-6.5
			C42.43,84.68,37.96,77.98,37.55,69.7"/>
		<path fill="#C32417" d="M45.53,89.08c3.62,5.29,17.81,14.38,31.63,13.64c8.09-0.43,16.29-5.5,18.55-11.13
			c2.1-5.25,1.42-11.54-3.99-15.49c-7.61-5.57-24.39-4.73-33.57-12.52c-7.58-6.43-5.05-15.73-1.58-19.29
			c5.4-5.55,14.26-7.16,22.17-5.84c5.56,0.93,11.13,3.8,12.61,4.46c1.49,0.65,2.54,1.05,3.28,2.78c0.74,1.73,1.67,4.14,2.16,4.76
			c0.5,0.62,0.62,1.3-0.06,1.49c-0.68,0.18-1.48-0.18-1.61-0.43s-1.05-0.99-1.54-0.5s-0.5,1.23-0.18,1.98
			c0.31,0.74,0.99,1.92,0.62,2.97c-0.38,1.05-0.8,1.11-1.92,0.74c-1.11-0.37-2.66-1.92-3.28-3.22c-0.62-1.3-5.87-6.98-10.75-8.04
			c-5.54-1.19-11.81,0.08-14.28,2.1c-2.04,1.67-3.61,5.22-1.24,8.59c1.18,1.67,3.03,3.1,8.79,4.26c8.89,1.81,20.56,2.88,28.2,8.23
			c8.34,5.83,9.37,16.06,6.55,24.98c-5.1,16.13-26.23,19.01-37.16,16.88C47.65,106.32,45.48,91.4,45.53,89.08"/>
		<path fill="#C32417" d="M96.68,57.14c0.78-0.37,1.57,0.05,1.8,0.61c0.23,0.55,1.25,2.41,1.86,2.97c0.61,0.55,2.65,2.18,3.06,2.59
			c0.41,0.42,1.58,1.02,1.86,1.49c-0.14,0.41-4.96-0.84-6.68-2.6c-1.72-1.76-2.22-2.55-2.36-3.06
			C96.08,58.61,95.75,57.93,96.68,57.14"/>
	</g>
</g>
</svg>
