<?xml version="1.0" encoding="utf-8"?>
<!-- Generator: Adobe Illustrator 21.0.1, SVG Export Plug-In . SVG Version: 6.00 Build 0)  -->
<svg version="1.2" baseProfile="tiny" id="Layer_1" xmlns="http://www.w3.org/2000/svg" xmlns:xlink="http://www.w3.org/1999/xlink"
	 x="0px" y="0px" viewBox="0 0 300 180" overflow="scroll" xml:space="preserve">
<g>
	<g>
		<path fill="#AAAAAA" d="M85.2,119.9v15.6h-1.6l0.1-1.4l-0.1,0c-0.5,1.1-1.7,1.6-3.5,1.6c-1.7,0-2.8-0.4-3.4-1.2
			c-0.6-0.8-0.9-2.3-0.9-4.6c0-2.1,0.3-3.5,0.9-4.3c0.6-0.8,1.7-1.2,3.3-1.2c2,0,3.2,0.5,3.6,1.5l0,0v-6L85.2,119.9L85.2,119.9z
			 M80.4,125.8c-1.2,0-2,0.3-2.3,0.8c-0.4,0.5-0.6,1.7-0.6,3.3c0,1.8,0.2,3,0.6,3.6c0.4,0.6,1.2,0.9,2.4,0.9c1.3,0,2.2-0.3,2.6-0.9
			c0.4-0.6,0.6-1.8,0.6-3.8c0-1.6-0.2-2.6-0.7-3.2C82.5,126.1,81.6,125.8,80.4,125.8z"/>
		<path fill="#AAAAAA" d="M96.5,132.2h1.6l0,0.4c0,1.1-0.3,1.9-1,2.4c-0.7,0.4-1.9,0.7-3.6,0.7c-2,0-3.3-0.4-3.9-1.1
			s-0.9-2.3-0.9-4.6c0-2.2,0.3-3.6,0.9-4.4s1.9-1.1,3.7-1.1c2,0,3.3,0.3,3.9,1s0.9,2,0.9,4.1v0.9h-7.8c0,1.7,0.2,2.8,0.6,3.3
			s1.2,0.7,2.6,0.7c1.3,0,2.1-0.1,2.5-0.3c0.4-0.2,0.6-0.7,0.6-1.4L96.5,132.2L96.5,132.2L96.5,132.2z M96.5,129.1l0-0.5
			c0-1.2-0.2-1.9-0.6-2.3c-0.4-0.3-1.2-0.5-2.5-0.5c-1.3,0-2.1,0.2-2.5,0.6c-0.4,0.4-0.6,1.3-0.6,2.7H96.5z"/>
		<path fill="#AAAAAA" d="M110,127.5h-1.6c0-0.8-0.2-1.2-0.5-1.4s-1.1-0.3-2.4-0.3c-1.2,0-1.9,0.1-2.3,0.3s-0.5,0.7-0.5,1.4
			c0,1.1,0.5,1.7,1.6,1.8l1.3,0.1l1.6,0.1c2,0.1,3,1.1,3,3.1c0,1.2-0.3,2.1-1,2.5c-0.7,0.5-1.8,0.7-3.6,0.7c-1.8,0-3-0.2-3.7-0.6
			c-0.7-0.4-1-1.2-1-2.4l0-0.6h1.7l0,0.5c0,0.7,0.2,1.2,0.6,1.4c0.4,0.2,1.1,0.4,2.2,0.4c1.3,0,2.2-0.1,2.6-0.4
			c0.4-0.2,0.6-0.8,0.6-1.6c0-1.1-0.5-1.7-1.6-1.7c-2.4,0-4-0.2-4.8-0.6c-0.8-0.4-1.2-1.3-1.2-2.6c0-1.2,0.3-2,0.9-2.4
			c0.6-0.4,1.8-0.6,3.6-0.6c2.9,0,4.3,0.9,4.3,2.6L110,127.5L110,127.5L110,127.5z"/>
		<path fill="#AAAAAA" d="M115.1,119.9v1.8h-1.6v-1.8H115.1z M115.1,124.6v10.9h-1.6v-10.9C113.5,124.6,115.1,124.6,115.1,124.6z"/>
		<path fill="#AAAAAA" d="M128,124.6v11.6c0,1.6-0.3,2.7-1,3.3c-0.7,0.6-1.9,0.9-3.8,0.9c-1.6,0-2.7-0.2-3.3-0.8
			c-0.6-0.5-0.9-1.4-0.9-2.8h1.5c0,0.9,0.2,1.5,0.5,1.8c0.3,0.3,1.1,0.4,2.3,0.4c1.2,0,2-0.2,2.4-0.6c0.4-0.4,0.6-1.1,0.6-2.1v-2.2
			l0,0c-0.4,1-1.6,1.5-3.6,1.5c-1.6,0-2.7-0.4-3.3-1.2c-0.6-0.8-0.9-2.2-0.9-4.4c0-2.2,0.3-3.7,0.9-4.5s1.8-1.2,3.4-1.2
			c1.8,0,2.9,0.5,3.5,1.7l0,0l-0.1-1.5L128,124.6L128,124.6L128,124.6z M123.2,125.8c-1.2,0-2.1,0.3-2.4,0.8
			c-0.4,0.5-0.6,1.7-0.6,3.5c0,1.8,0.2,3,0.6,3.5c0.4,0.5,1.2,0.8,2.4,0.8c1.3,0,2.1-0.3,2.5-0.9c0.4-0.6,0.6-1.8,0.6-3.7
			c0-1.6-0.2-2.7-0.6-3.2C125.3,126,124.5,125.8,123.2,125.8z"/>
		<path fill="#AAAAAA" d="M131.7,124.6h1.5l-0.1,1.5l0.1,0c0.5-1.1,1.7-1.7,3.6-1.7c1.6,0,2.6,0.3,3.2,0.8c0.6,0.6,0.8,1.6,0.8,3.1
			v7.1h-1.6v-7v-0.4c0-0.9-0.2-1.6-0.5-1.9s-1.1-0.5-2.1-0.5c-2.2,0-3.4,1.1-3.4,3.2v6.6h-1.6L131.7,124.6L131.7,124.6z"/>
		<path fill="#AAAAAA" d="M152.2,132.2h1.6l0,0.4c0,1.1-0.4,1.9-1,2.4c-0.7,0.4-1.9,0.7-3.6,0.7c-2,0-3.3-0.4-3.9-1.1
			c-0.6-0.7-0.9-2.3-0.9-4.6c0-2.2,0.3-3.6,0.9-4.4s1.9-1.1,3.7-1.1c2,0,3.3,0.3,3.9,1s0.9,2,0.9,4.1v0.9H146c0,1.7,0.2,2.8,0.6,3.3
			c0.4,0.5,1.2,0.7,2.6,0.7c1.3,0,2.1-0.1,2.5-0.3c0.4-0.2,0.6-0.7,0.6-1.4L152.2,132.2L152.2,132.2L152.2,132.2z M152.2,129.1
			l0-0.5c0-1.2-0.2-1.9-0.6-2.3c-0.4-0.3-1.2-0.5-2.5-0.5c-1.3,0-2.1,0.2-2.5,0.6c-0.4,0.4-0.6,1.3-0.6,2.7H152.2z"/>
		<path fill="#AAAAAA" d="M166.4,119.9v15.6h-1.6l0.1-1.4l-0.1,0c-0.5,1.1-1.7,1.6-3.5,1.6c-1.7,0-2.8-0.4-3.4-1.2
			c-0.6-0.8-0.9-2.3-0.9-4.6c0-2.1,0.3-3.5,0.9-4.3c0.6-0.8,1.7-1.2,3.3-1.2c2,0,3.2,0.5,3.6,1.5l0,0v-6L166.4,119.9L166.4,119.9z
			 M161.6,125.8c-1.2,0-2,0.3-2.4,0.8s-0.6,1.7-0.6,3.3c0,1.8,0.2,3,0.6,3.6c0.4,0.6,1.2,0.9,2.4,0.9c1.3,0,2.2-0.3,2.6-0.9
			c0.4-0.6,0.6-1.8,0.6-3.8c0-1.6-0.2-2.6-0.6-3.2C163.7,126.1,162.9,125.8,161.6,125.8z"/>
		<path fill="#AAAAAA" d="M177.3,135.5v-9.6h-1.7v-1.3h1.7V123c0-2.1,1.1-3.2,3.3-3.2c0.3,0,0.7,0,1.1,0.1v1.3
			c-0.5-0.1-0.9-0.1-1.1-0.1c-1.1,0-1.7,0.6-1.7,1.7v1.8h2.9v1.3h-2.9v9.6L177.3,135.5L177.3,135.5z"/>
		<path fill="#AAAAAA" d="M188.5,124.4c2,0,3.3,0.3,3.9,1.1c0.6,0.7,0.9,2.2,0.9,4.6s-0.3,3.9-0.9,4.6c-0.6,0.7-1.9,1.1-3.9,1.1
			c-2,0-3.3-0.4-3.9-1.1c-0.6-0.7-0.9-2.2-0.9-4.6s0.3-3.9,0.9-4.6C185.2,124.8,186.5,124.4,188.5,124.4z M188.5,125.8
			c-1.4,0-2.3,0.2-2.6,0.7c-0.3,0.5-0.5,1.7-0.5,3.6c0,1.9,0.2,3.1,0.5,3.6c0.3,0.5,1.2,0.7,2.6,0.7s2.3-0.2,2.6-0.7
			s0.5-1.7,0.5-3.6c0-1.9-0.2-3.1-0.5-3.6S189.9,125.8,188.5,125.8z"/>
		<path fill="#AAAAAA" d="M196.9,124.6h1.6l-0.2,1.3l0,0c0.6-1,1.7-1.5,3.1-1.5c2,0,3,1,3,3.1l0,0.8h-1.6l0-0.3c0-0.3,0-0.5,0-0.6
			c0-1.1-0.6-1.7-1.8-1.7c-1.8,0-2.7,1.1-2.7,3.3v6.5h-1.6L196.9,124.6L196.9,124.6z"/>
		<path fill="#AAAAAA" d="M215.3,119.9v15.6h-1.6v-15.6C213.7,119.9,215.3,119.9,215.3,119.9z"/>
		<path fill="#AAAAAA" d="M220.6,119.9v1.8H219v-1.8H220.6z M220.6,124.6v10.9H219v-10.9C219,124.6,220.6,124.6,220.6,124.6z"/>
		<path fill="#AAAAAA" d="M224.7,135.5v-9.6h-1.7v-1.3h1.7V123c0-2.1,1.1-3.2,3.3-3.2c0.3,0,0.7,0,1.1,0.1v1.3
			c-0.5-0.1-0.9-0.1-1.1-0.1c-1.1,0-1.7,0.6-1.7,1.7v1.8h2.9v1.3h-2.9v9.6L224.7,135.5L224.7,135.5z"/>
		<path fill="#AAAAAA" d="M239,132.2h1.6l0,0.4c0,1.1-0.4,1.9-1,2.4c-0.7,0.4-1.9,0.7-3.6,0.7c-2,0-3.3-0.4-3.9-1.1
			c-0.6-0.7-0.9-2.3-0.9-4.6c0-2.2,0.3-3.6,0.9-4.4s1.9-1.1,3.7-1.1c2,0,3.3,0.3,3.9,1s0.9,2,0.9,4.1v0.9h-7.9
			c0,1.7,0.2,2.8,0.6,3.3c0.4,0.5,1.2,0.7,2.6,0.7c1.3,0,2.1-0.1,2.5-0.3c0.4-0.2,0.6-0.7,0.6-1.4L239,132.2L239,132.2L239,132.2z
			 M239,129.1l0-0.5c0-1.2-0.2-1.9-0.6-2.3s-1.2-0.5-2.5-0.5c-1.3,0-2.1,0.2-2.5,0.6c-0.4,0.4-0.6,1.3-0.6,2.7H239z"/>
	</g>
</g>
<g>
	<g>
		<path fill="#777777" d="M111.6,70.5c-0.4-2.3-0.6-3.7-3-4.9h15.9c-1.5,0.6-2.2,1.4-2.2,2.7c0,0.3,0.1,0.7,0.2,1.3l4.8,27.9
			l12-31.9h7.2L157.7,98l4.9-28.4c0.1-0.7,0.2-1,0.2-1.3c0-1.3-0.7-2.1-2.2-2.7h12.4c-2.4,1.2-2.6,2.6-3,4.9l-7.7,40.2h-10
			l-10.7-31.1l-11.6,31.1h-10.3L111.6,70.5z"/>
		<path fill="#777777" d="M187,111.5c-8.9,0-15.2-6.4-15.2-13.2c0-5.5,3.2-9.6,9-11.7c4.8-1.7,12-3.2,21-6.7c0-0.2,0-0.3,0-0.4
			c0-5.3-2.9-7.6-9.5-7.6c-7.5,0-12.4,2-16,7.3V68.7c4.1-2.7,10.6-4.4,18.6-4.4c14.5,0,17.7,6,17.8,20.1l0.1,12.8
			c0,5.2,0.2,9.3,2.4,13.1h-10.3c-1.3-1.8-1.8-4.5-1.9-8.2C200.9,107.6,194.4,111.5,187,111.5z M183,97.1c0,3.6,3.3,6.7,7.8,6.7
			c5.7,0,11.2-6.2,11.2-16.3c0-0.4,0-0.9,0-1.3C189.4,90.5,183,91.3,183,97.1z"/>
		<path fill="#777777" d="M221.5,105.3c0-0.3,0-0.6,0-0.8V71.4c0-0.3,0-0.6,0-0.8c0-2.5-0.2-4-3-5h14.1l-0.5,9.5
			c4.3-7.3,9-10.7,15.3-10.7c3,0,6.2,1.3,8.4,3.8c2.9,3.3,3.1,6.9,3.1,11.6v24.7c0,0.3,0,0.6,0,0.8c0,2.6,0.2,3.9,3,5h-17.1
			c2.9-1.1,3-2.4,3-5c0-0.3,0-0.5,0-0.8V81.4c0-5.5-1.3-8.3-4.8-8.3c-3.3,0-7.3,3.1-10.6,9.4v22c0,0.3,0,0.6,0,0.8
			c0,2.6,0.2,3.9,3,5h-17C221.3,109.2,221.5,107.8,221.5,105.3z"/>
	</g>
	<g>
		<path fill="#AAAAAA" d="M40.2,58.3c0.7,1.5,6.4,6.9,8.4,8.1c2.4,1.4,9.7,4.6,17.9,6.6c9.4,2.3,20,4.2,23.7,7.8
			c3.2,3.2,2.4,7.6,0.3,10c-0.3-2-1.8-4.2-5.5-5.5c-4.4-1.5-23.7-4.4-31.9-8C40.2,71.7,40.7,64.1,40.2,58.3"/>
		<path fill="#AAAAAA" d="M37.5,69.7c1.1,2.1,5.3,7.6,12.4,11.2c7,3.5,19,5.5,23.9,6.3c4.6,0.7,10,1.4,11.6,3.1
			c2.9,3.1,0.3,4.5-1,6.4c0-0.7-0.9-1.4-2.4-1.4c-8.1,0.1-23.7-1.2-32.6-6.5C42.4,84.7,38,78,37.5,69.7"/>
		<path fill="#777777" d="M45.5,89.1c3.6,5.3,17.8,14.4,31.6,13.6c8.1-0.4,16.3-5.5,18.5-11.1c2.1-5.2,1.4-11.5-4-15.5
			c-7.6-5.6-24.4-4.7-33.6-12.5c-7.6-6.4-5-15.7-1.6-19.3c5.4-5.5,14.3-7.2,22.2-5.8c5.6,0.9,11.1,3.8,12.6,4.5
			c1.5,0.7,2.5,1,3.3,2.8s1.7,4.1,2.2,4.8c0.5,0.6,0.6,1.3-0.1,1.5c-0.7,0.2-1.5-0.2-1.6-0.4s-1.1-1-1.5-0.5s-0.5,1.2-0.2,2
			c0.3,0.7,1,1.9,0.6,3c-0.4,1-0.8,1.1-1.9,0.7c-1.1-0.4-2.7-1.9-3.3-3.2c-0.6-1.3-5.9-7-10.8-8c-5.5-1.2-11.8,0.1-14.3,2.1
			c-2,1.7-3.6,5.2-1.2,8.6c1.2,1.7,3,3.1,8.8,4.3c8.9,1.8,20.6,2.9,28.2,8.2c8.3,5.8,9.4,16.1,6.6,25c-5.1,16.1-26.2,19-37.2,16.9
			C47.7,106.3,45.5,91.4,45.5,89.1"/>
		<path fill="#777777" d="M96.7,57.1c0.8-0.4,1.6,0,1.8,0.6c0.2,0.5,1.2,2.4,1.9,3c0.6,0.5,2.7,2.2,3.1,2.6c0.4,0.4,1.6,1,1.9,1.5
			c-0.1,0.4-5-0.8-6.7-2.6s-2.2-2.5-2.4-3.1C96.1,58.6,95.8,57.9,96.7,57.1"/>
	</g>
</g>
</svg>
