<?xml version="1.0" encoding="utf-8"?>
<!-- Generator: Adobe Illustrator 21.0.1, SVG Export Plug-In . SVG Version: 6.00 Build 0)  -->
<svg version="1.2" baseProfile="tiny" id="Layer_1" xmlns="http://www.w3.org/2000/svg" xmlns:xlink="http://www.w3.org/1999/xlink"
	 x="0px" y="0px" viewBox="0 0 300 180" overflow="inherit" xml:space="preserve">
<g>
	<ellipse fill="#FFFFFF" cx="150.8" cy="90.5" rx="75.2" ry="75.2"/>
	<path fill="#777777" d="M150.8,167.2c-20.5,0-39.8-8-54.3-22.5C82,130.3,74,111,74,90.5s8-39.8,22.5-54.3s33.8-22.5,54.3-22.5
		s39.8,8,54.3,22.5c14.5,14.5,22.5,33.8,22.5,54.3s-8,39.8-22.5,54.3C190.5,159.2,171.3,167.2,150.8,167.2z M150.8,16.9
		c-19.7,0-38.2,7.7-52.1,21.6s-21.6,32.4-21.6,52s7.7,38.2,21.6,52s32.4,21.6,52.1,21.6s38.2-7.7,52.1-21.6s21.6-32.4,21.6-52.1
		s-7.7-38.2-21.6-52C188.9,24.5,170.4,16.9,150.8,16.9z"/>
</g>
<g>
	<path fill="#777777" d="M85.9,119.1c-3.9-8.8-6-18.5-6-28.7c0-39.2,31.8-71.1,71.1-71.1c39.2,0,71.1,31.8,71.1,71.1
		c0,10.2-2.1,19.9-6,28.7H85.9z"/>
</g>
<g>
	<path fill="#FFFFFF" d="M102.2,108.6h6.3c1.9,0,1.8-2.5,0.2-2.5c-0.4,0-0.6,0-1.3,0c-0.6,0-1.2-0.2-1.2-1.4c0,0,0-38.3,0-39.2
		c0-1.3,0.9-1.8,1.6-1.8c0,0,3.6,0,3.8,0c1.2,0,1.9,0.6,2.6,1.4c1.4,1.7,2.5,4.6,2.8,5.5c0.4,1.2,1.1,1.1,1.3,0.9
		c0.2-0.2,0.4-0.8,0.1-2.1c-0.6-2.3-1.3-7.9-1.4-8.6c-0.1-0.7-0.8-0.6-1.2-0.4s-0.8,0.8-1.5,0.8h-7.6h-2.2H94
		c-0.8,0-1.1-0.6-1.5-0.8c-0.4-0.3-1.1-0.3-1.2,0.4c-0.1,0.7-0.8,6.2-1.4,8.6c-0.3,1.3-0.2,1.9,0.1,2.1c0.3,0.2,0.9,0.3,1.3-0.9
		c0.3-0.9,1.3-3.8,2.8-5.5c0.7-0.9,1.4-1.4,2.6-1.4c0.2,0,3.8,0,3.8,0c0.7,0,1.6,0.5,1.6,1.8c0,0.9,0,39.2,0,39.2
		c0,1.2-0.6,1.4-1.2,1.4c-0.8,0-0.9,0-1.3,0c-1.6,0-1.7,2.5,0.2,2.5h0.9H102.2z"/>
</g>
<g>
	<path fill="#FFFFFF" d="M137.1,108.6h1.7h0.9c1.9,0,1.8-2.5,0.1-2.5c-0.5,0-0.6,0-1.4,0c-1,0-1.8-1-1.7-2.5l2.3-31.4
		c0.1-1,0.7-0.8,0.8-0.2c0,0,7.1,33.2,7.4,35c0.4,1.8,1.5,1.2,1.7,0.1l8-39.5c0.1-0.6,0.7-0.9,0.8,0.3l1.2,35.7
		c0.1,1.5-0.7,2.5-1.7,2.5c-0.8,0-0.9,0-1.3,0c-1.6,0-1.7,2.5,0.1,2.5h3.5h1.7h4.3c1.9,0,1.8-2.5,0.1-2.5c-0.5,0-0.1,0-0.8,0
		c-0.6,0-1.6-0.7-1.8-2.3L161.7,66c-0.2-2,0.9-3,1.9-3c0.8,0,0.4,0,0.9,0c1.6,0,1.7-2.5-0.1-2.5h-5.1c-0.6,0-2,0.2-2.4,2.2
		l-6.8,32.3c-0.1,0.6-0.6,0.4-0.6,0.1l-6.9-32.3c-0.4-2-1.8-2.2-2.4-2.2h-4.9c-1.9,0-1.8,2.5-0.1,2.5c0.4,0,0.6,0,1.4,0
		c1,0,2.1,1,1.9,3l-3,37.7c-0.2,1.6-1.2,2.3-1.8,2.3l-3.5,0c-0.4,0-0.6,0-1.4,0c-0.6,0-1.2-0.2-1.2-1.4V64.5c0-1.2,0.6-1.5,1.2-1.5
		c0.8,0,0.9,0,1.4,0c1.6,0,1.7-2.5-0.1-2.5h-6.3h-1.7h-0.9c-1.9,0-1.8,2.5-0.2,2.5c0.4,0,0.6,0,1.3,0c0.6,0,1.2,0.2,1.2,1.5v40.1
		c0,1.2-0.6,1.4-1.2,1.4c-0.8,0-0.9,0-1.3,0c-1.6,0-1.7,2.5,0.2,2.5h0.9h1.7h6.3C129.8,108.6,137.1,108.6,137.1,108.6z"/>
</g>
<g>
	<path fill="#FFFFFF" d="M189,91.6c0.5,0.1,0.6-0.5,0.6-1.1c0-0.6-0.3-2.9-0.4-3.1c-0.1-0.2-0.1-0.8-0.9-0.8c-0.7,0-1.8-0.1-2.5-0.2
		s-7.3-1.5-11.2,0.6s-6,5.2-6.1,9.7c-0.1,4.5,3.5,9.6,7.6,10.6c3.6,0.9,7.5,0.9,11.4,0c2.4-0.6,2.7-1.6,2.7-2.1s0.6-2.8-0.1-3.1
		c-0.8-0.3-0.9,0.2-1.1,0.5c-0.5,0.8-1.7,2.2-2.6,2.8c-1.3,0.8-2.9,1.7-6.1,1.3c-3.1-0.4-6.9-4.3-7.4-8.2c-0.6-4.2,0.8-8.7,5-10.6
		c3.1-1.4,7-1.3,10.1,2.7C188.5,91.2,188.6,91.5,189,91.6z"/>
</g>
<g>
	<ellipse fill="#FFFFFF" cx="204.7" cy="96.4" rx="12" ry="11.1"/>
</g>
<g>
	<circle fill="#FFFFFF" cx="204.7" cy="96.4" r="1.1"/>
</g>
<g>
	<path fill="#777777" d="M206.6,108.2l1.4,0l0-9.3l1.8-4.5l4.5-4.1c0,0,0.4-0.3,0.4-0.7c0-0.2-0.1-0.5-0.3-0.6h-9.6h0h-9.6
		c-0.1,0.1-0.3,0.4-0.3,0.6c0,0.4,0.4,0.7,0.4,0.7l4.5,4.1l1.8,4.5l0,9.3H206.6z"/>
</g>
</svg>
