<?xml version="1.0" encoding="utf-8"?>
<!-- Generator: Adobe Illustrator 19.2.0, SVG Export Plug-In . SVG Version: 6.00 Build 0)  -->
<svg version="1.1" baseProfile="tiny" id="Layer_1" xmlns="http://www.w3.org/2000/svg" xmlns:xlink="http://www.w3.org/1999/xlink"
	 x="0px" y="0px" viewBox="0 0 300 180" xml:space="preserve">
<g>
	<ellipse fill="#FFFFFF" cx="150.76" cy="90.49" rx="75.18" ry="75.18"/>
	<path fill="#C10016" d="M150.76,167.23c-20.5,0-39.77-7.98-54.27-22.48C82,130.26,74.01,110.99,74.01,90.49
		c0-20.5,7.98-39.77,22.48-54.27s33.77-22.48,54.27-22.48c20.5,0,39.77,7.98,54.26,22.48c14.49,14.49,22.48,33.77,22.48,54.27
		c0,20.5-7.98,39.77-22.48,54.26C190.53,159.25,171.26,167.23,150.76,167.23z M150.76,16.88c-19.66,0-38.15,7.66-52.05,21.56
		c-13.9,13.9-21.56,32.39-21.56,52.05c0,19.66,7.66,38.15,21.56,52.05c13.9,13.9,32.39,21.56,52.05,21.56
		c19.66,0,38.15-7.66,52.05-21.56c13.9-13.9,21.56-32.39,21.56-52.05c0-19.66-7.66-38.15-21.56-52.05
		C188.91,24.53,170.42,16.88,150.76,16.88z"/>
</g>
<g>
	<path fill="#C10016" d="M85.91,119.14c-3.86-8.77-6.01-18.46-6.01-28.65c0-39.25,31.81-71.07,71.07-71.07
		c39.25,0,71.07,31.82,71.07,71.07c0,10.19-2.15,19.89-6.01,28.65L85.91,119.14z"/>
</g>
<g>
	<path fill="#FFFFFF" d="M102.25,108.56h6.28c1.88,0,1.76-2.47,0.15-2.47c-0.45,0-0.58,0.01-1.35,0.01c-0.63,0-1.25-0.23-1.25-1.44
		c0,0,0-38.3,0-39.22c0-1.31,0.86-1.81,1.57-1.81c0,0,3.56,0,3.77,0c1.16,0,1.87,0.56,2.6,1.42c1.44,1.69,2.47,4.59,2.79,5.46
		c0.45,1.24,1.07,1.08,1.33,0.93c0.25-0.15,0.4-0.81,0.07-2.09c-0.59-2.34-1.26-7.92-1.36-8.58c-0.11-0.67-0.77-0.62-1.18-0.36
		c-0.41,0.26-0.77,0.82-1.54,0.82h-7.61h-2.21H94.01c-0.77,0-1.13-0.57-1.54-0.82c-0.41-0.26-1.08-0.31-1.18,0.36
		c-0.11,0.66-0.77,6.24-1.36,8.58c-0.32,1.29-0.18,1.94,0.08,2.09c0.26,0.16,0.89,0.31,1.33-0.93c0.32-0.87,1.34-3.77,2.79-5.46
		c0.73-0.86,1.44-1.42,2.6-1.42c0.21,0,3.77,0,3.77,0c0.72,0,1.58,0.5,1.58,1.81c0,0.93,0,39.22,0,39.22c0,1.21-0.62,1.44-1.25,1.44
		c-0.77,0-0.89-0.01-1.35-0.01c-1.59,0-1.73,2.47,0.16,2.47h0.91H102.25z"/>
</g>
<g>
	<path fill="#FFFFFF" d="M137.12,108.56h1.69h0.92c1.89,0,1.75-2.47,0.15-2.47c-0.46,0-0.58,0.01-1.35,0.01
		c-0.96,0-1.75-0.98-1.67-2.48l2.34-31.41c0.1-0.96,0.73-0.85,0.84-0.23c0,0,7.07,33.17,7.45,35.01c0.37,1.84,1.53,1.16,1.72,0.11
		l8.01-39.47c0.11-0.6,0.67-0.91,0.81,0.27l1.21,35.71c0.08,1.5-0.71,2.48-1.67,2.48c-0.77,0-0.86-0.01-1.31-0.01
		c-1.6,0-1.74,2.47,0.15,2.47h3.46h1.7h4.33c1.89,0,1.75-2.47,0.15-2.47c-0.46,0-0.05,0.01-0.82,0.01c-0.63,0-1.65-0.69-1.83-2.3
		l-1.68-37.74c-0.19-1.98,0.9-2.97,1.87-2.97c0.77,0,0.44,0.01,0.9,0.01c1.6,0,1.74-2.47-0.15-2.47h-5.05
		c-0.63,0-1.98,0.15-2.4,2.17l-6.81,32.28c-0.15,0.6-0.56,0.37-0.64,0.07l-6.86-32.35c-0.41-2.02-1.75-2.17-2.39-2.17h-4.94
		c-1.89,0-1.75,2.47-0.15,2.47c0.45,0,0.58-0.01,1.35-0.01c0.97,0,2.06,0.99,1.87,2.97l-3.03,37.74c-0.19,1.61-1.21,2.3-1.83,2.3
		l-3.49-0.01c-0.45,0-0.57,0.01-1.35,0.01c-0.62,0-1.24-0.23-1.24-1.44V64.54c0-1.21,0.61-1.45,1.24-1.45
		c0.77,0,0.89,0.01,1.35,0.01c1.6,0,1.74-2.47-0.15-2.47h-6.28h-1.69h-0.91c-1.89,0-1.76,2.47-0.15,2.47c0.45,0,0.58-0.01,1.35-0.01
		c0.62,0,1.24,0.23,1.24,1.45v40.12c0,1.21-0.62,1.44-1.24,1.44c-0.77,0-0.89-0.01-1.35-0.01c-1.6,0-1.74,2.47,0.15,2.47h0.91h1.69
		h6.28H137.12z"/>
</g>
<g>
	<path fill="#FFFFFF" d="M189.02,91.59c0.48,0.13,0.63-0.52,0.59-1.1c-0.04-0.58-0.31-2.89-0.38-3.08c-0.08-0.2-0.15-0.85-0.85-0.85
		c-0.69,0-1.81-0.11-2.54-0.23c-0.73-0.12-7.28-1.48-11.17,0.64c-3.89,2.12-5.97,5.17-6.09,9.72c-0.12,4.54,3.5,9.55,7.55,10.59
		c3.57,0.91,7.5,0.91,11.36-0.04c2.45-0.6,2.66-1.58,2.74-2.12c0.08-0.54,0.61-2.83-0.15-3.13c-0.77-0.31-0.93,0.16-1.13,0.49
		c-0.49,0.8-1.66,2.21-2.6,2.8c-1.32,0.82-2.93,1.73-6.05,1.31c-3.12-0.42-6.85-4.31-7.39-8.21c-0.58-4.22,0.77-8.7,4.96-10.63
		c3.14-1.45,7.02-1.33,10.06,2.65C188.5,91.16,188.57,91.47,189.02,91.59z"/>
</g>
<g>
	<ellipse fill="#FFFFFF" cx="204.7" cy="96.38" rx="12.01" ry="11.11"/>
</g>
<g>
	<circle fill="#FFFFFF" cx="204.66" cy="96.38" r="1.1"/>
</g>
<g>
	<path fill="#C10016" d="M206.6,108.25l1.45-0.04l-0.02-9.26l1.77-4.49l4.48-4.07c0,0,0.39-0.31,0.39-0.67
		c0-0.17-0.14-0.5-0.27-0.59h-9.62h0.03h-9.62c-0.13,0.09-0.27,0.42-0.27,0.59c0,0.37,0.39,0.67,0.39,0.67l4.47,4.07l1.77,4.49
		l-0.01,9.3H206.6z"/>
</g>
</svg>
