<?xml version="1.0" encoding="utf-8"?>
<!-- Generator: Adobe Illustrator 19.2.0, SVG Export Plug-In . SVG Version: 6.00 Build 0)  -->
<svg version="1.1" baseProfile="tiny" id="Layer_1" xmlns="http://www.w3.org/2000/svg" xmlns:xlink="http://www.w3.org/1999/xlink"
	 x="0px" y="0px" viewBox="0 0 300 180" xml:space="preserve">
<g>
	<g>
		<path fill="#C10016" d="M94.87,68.47c-10.17,0-18.45,8.28-18.45,18.45c0,10.17,8.28,18.45,18.45,18.45s18.45-8.28,18.45-18.45
			C113.32,76.74,105.04,68.47,94.87,68.47z M94.87,99.81c-7.12,0-12.89-5.77-12.89-12.89s5.77-12.89,12.89-12.89
			c7.12,0,12.89,5.77,12.89,12.89S101.99,99.81,94.87,99.81z"/>
		<path fill="#C10016" d="M94.87,61.14c-14.24,0-25.78,11.54-25.78,25.78c0,14.24,11.54,25.78,25.78,25.78s25.78-11.54,25.78-25.78
			C120.65,72.68,109.11,61.14,94.87,61.14z M94.87,107.14c-11.15,0-20.22-9.07-20.22-20.22S83.72,66.7,94.87,66.7
			s20.22,9.07,20.22,20.22S106.02,107.14,94.87,107.14z"/>
		<path fill="#C10016" d="M223.89,98.6c-3.67,5.16-9.68,8.53-16.47,8.53c-11.15,0-20.22-9.07-20.22-20.22s9.07-20.22,20.22-20.22
			c6.79,0,12.8,3.38,16.47,8.53l3.99-3.99c-4.71-6.14-12.12-10.11-20.46-10.11c-14.24,0-25.78,11.54-25.78,25.78
			c0,14.24,11.54,25.78,25.78,25.78c8.34,0,15.75-3.96,20.46-10.11L223.89,98.6z"/>
		<path fill="#C10016" d="M218.6,80.52l4.03-4.03c0,0-0.01-0.01-0.01-0.01l0.01-0.01l-0.06-0.06c-3.34-4.8-8.88-7.95-15.15-7.95
			c-10.17,0-18.45,8.28-18.45,18.45c0,10.17,8.28,18.45,18.45,18.45c6.31,0,11.88-3.19,15.21-8.03l-4.03-4.03
			c-2.22,3.88-6.39,6.49-11.18,6.49c-2.34,0-4.52-0.63-6.41-1.72l17.58-17.58C218.59,80.51,218.6,80.52,218.6,80.52z M207.42,74.03
			c2.76,0,5.3,0.89,7.4,2.37l-17.93,17.93c-1.48-2.1-2.35-4.65-2.35-7.41C194.53,79.8,200.3,74.03,207.42,74.03z"/>
		<path fill="#C10016" d="M243.84,90.43h6.13c5.96,0,10.81-4.85,10.81-10.81c0-5.96-4.85-10.81-10.81-10.81h-12.92v43.89h5.5V97.94
			l11.65,14.76h7.22L243.84,90.43z M242.56,74.71h7.75c2.75,0,4.98,2.23,4.98,4.98c0,2.75-2.23,4.98-4.98,4.98h-7.75V74.71z"/>
		<path fill="#C10016" d="M235.28,67.04h14.69c6.94,0,12.58,5.64,12.58,12.58c0,6.94-5.64,12.58-12.58,12.58h-2.48l16.19,20.5h7.25
			l-13.37-16.94c6.2-2.89,10.51-9.17,10.51-16.46c0-10.04-8.14-18.17-18.17-18.17c-0.01,0-0.03,0-0.04,0v0h-7.3h-3.72h-9.06v51.56
			h5.5V67.04z"/>
		<polygon fill="#C10016" points="31.48,73.91 44.61,73.91 44.61,112.7 50.11,112.7 50.11,68.41 31.48,68.41 		"/>
		<polygon fill="#C10016" points="57.38,61.14 44.61,61.14 31.48,61.14 31.48,66.64 70.51,66.64 70.51,61.14 		"/>
		<polygon fill="#C10016" points="51.88,112.7 57.38,112.7 57.38,73.91 70.51,73.91 70.51,68.41 51.88,68.41 		"/>
		<polygon fill="#C10016" points="137.88,109.19 150.23,57.54 150.23,57.52 143.48,57.52 143.48,57.52 137.85,82.88 132.23,57.52 
			125.45,57.52 		"/>
		<polygon fill="#C10016" points="152.06,57.54 164.49,109.19 176.84,57.52 170.11,57.52 164.48,82.88 158.86,57.52 158.86,57.52 
			152.06,57.52 		"/>
		<polygon fill="#C10016" points="151.15,61.08 138.81,112.7 145.56,112.7 151.17,90.95 156.78,112.7 163.57,112.7 		"/>
		<polygon fill="#C10016" points="123.63,57.52 116.85,57.52 130.16,112.63 130.15,112.7 130.18,112.7 136.96,112.7 		"/>
		<polygon fill="#C10016" points="185.49,57.52 178.67,57.52 165.41,112.7 172.16,112.7 172.19,112.7 172.18,112.63 		"/>
	</g>
	<g>
		<path fill="#C10016" d="M267.33,61.81c0.45,0.45,0.67,0.99,0.67,1.62c0,0.63-0.22,1.17-0.67,1.62c-0.45,0.45-0.99,0.68-1.63,0.68
			c-0.64,0-1.18-0.22-1.62-0.67c-0.44-0.45-0.67-0.99-0.67-1.62c0-0.63,0.22-1.17,0.67-1.62c0.45-0.45,0.99-0.68,1.62-0.68
			C266.34,61.14,266.88,61.36,267.33,61.81z M267.13,64.86c0.39-0.4,0.59-0.87,0.59-1.43c0-0.55-0.19-1.03-0.58-1.42
			c-0.39-0.39-0.86-0.59-1.42-0.59c-0.56,0-1.04,0.2-1.43,0.59c-0.39,0.4-0.58,0.87-0.58,1.43c0,0.55,0.19,1.03,0.58,1.42
			c0.38,0.39,0.86,0.59,1.42,0.59S266.74,65.25,267.13,64.86z M266.81,62.99c0,0.41-0.18,0.67-0.54,0.77l0.66,0.89h-0.53l-0.6-0.83
			h-0.54v0.83h-0.43v-2.48h0.93c0.38,0,0.65,0.06,0.81,0.19C266.73,62.5,266.81,62.7,266.81,62.99z M266.26,63.33
			c0.09-0.07,0.13-0.19,0.13-0.35c0-0.16-0.04-0.28-0.13-0.34c-0.09-0.06-0.24-0.09-0.47-0.09h-0.53v0.89h0.51
			C266.01,63.44,266.17,63.41,266.26,63.33z"/>
	</g>
</g>
</svg>
