<?xml version="1.0" encoding="utf-8"?>
<!-- Generator: Adobe Illustrator 21.0.1, SVG Export Plug-In . SVG Version: 6.00 Build 0)  -->
<svg version="1.2" baseProfile="tiny" id="Layer_1" xmlns="http://www.w3.org/2000/svg" xmlns:xlink="http://www.w3.org/1999/xlink"
	 x="0px" y="0px" viewBox="0 0 300 180" xml:space="preserve">
<g>
	<g>
		<path fill="#777777" d="M94.9,68.5c-10.2,0-18.5,8.3-18.5,18.4s8.3,18.4,18.4,18.4s18.4-8.3,18.4-18.4
			C113.3,76.7,105,68.5,94.9,68.5z M94.9,99.8C87.8,99.8,82,94,82,86.9S87.8,74,94.9,74s12.9,5.8,12.9,12.9S102,99.8,94.9,99.8z"/>
		<path fill="#777777" d="M94.9,61.1c-14.2,0-25.8,11.5-25.8,25.8s11.5,25.8,25.8,25.8s25.8-11.5,25.8-25.8S109.1,61.1,94.9,61.1z
			 M94.9,107.1c-11.2,0-20.2-9.1-20.2-20.2s9.1-20.2,20.2-20.2s20.2,9.1,20.2,20.2S106,107.1,94.9,107.1z"/>
		<path fill="#777777" d="M223.9,98.6c-3.7,5.2-9.7,8.5-16.5,8.5c-11.1,0-20.2-9.1-20.2-20.2s9.1-20.2,20.2-20.2
			c6.8,0,12.8,3.4,16.5,8.5l4-4c-4.7-6.1-12.1-10.1-20.5-10.1c-14.2,0-25.8,11.5-25.8,25.8s11.5,25.8,25.8,25.8
			c8.3,0,15.8-4,20.5-10.1L223.9,98.6z"/>
		<path fill="#777777" d="M218.6,80.5l4-4l0,0l0,0l-0.1-0.1c-3.3-4.8-8.9-7.9-15.1-7.9c-10.2,0-18.4,8.3-18.4,18.5
			s8.3,18.4,18.4,18.4c6.3,0,11.9-3.2,15.2-8l-4-4c-2.2,3.9-6.4,6.5-11.2,6.5c-2.3,0-4.5-0.6-6.4-1.7L218.6,80.5
			C218.6,80.5,218.6,80.5,218.6,80.5z M207.4,74c2.8,0,5.3,0.9,7.4,2.4l-17.9,17.9c-1.5-2.1-2.4-4.7-2.4-7.4
			C194.5,79.8,200.3,74,207.4,74z"/>
		<path fill="#777777" d="M243.8,90.4h6.1c6,0,10.8-4.8,10.8-10.8s-4.9-10.8-10.8-10.8h-12.9v43.9h5.5V97.9l11.6,14.8h7.2
			L243.8,90.4z M242.6,74.7h7.8c2.8,0,5,2.2,5,5s-2.2,5-5,5h-7.8V74.7z"/>
		<path fill="#777777" d="M235.3,67H250c6.9,0,12.6,5.6,12.6,12.6s-5.6,12.6-12.6,12.6h-2.5l16.2,20.5h7.2l-13.4-16.9
			c6.2-2.9,10.5-9.2,10.5-16.5c0-10-8.1-18.2-18.2-18.2c0,0,0,0,0,0l0,0h-7.3h-3.7h-9.1v51.6h5.5L235.3,67L235.3,67z"/>
		<polygon fill="#777777" points="31.5,73.9 44.6,73.9 44.6,112.7 50.1,112.7 50.1,68.4 31.5,68.4 		"/>
		<polygon fill="#777777" points="57.4,61.1 44.6,61.1 31.5,61.1 31.5,66.6 70.5,66.6 70.5,61.1 		"/>
		<polygon fill="#777777" points="51.9,112.7 57.4,112.7 57.4,73.9 70.5,73.9 70.5,68.4 51.9,68.4 		"/>
		<polygon fill="#777777" points="137.9,109.2 150.2,57.5 150.2,57.5 143.5,57.5 143.5,57.5 137.9,82.9 132.2,57.5 125.4,57.5 		"/>
		<polygon fill="#777777" points="152.1,57.5 164.5,109.2 176.8,57.5 170.1,57.5 164.5,82.9 158.9,57.5 158.9,57.5 152.1,57.5 		"/>
		<polygon fill="#777777" points="151.1,61.1 138.8,112.7 145.6,112.7 151.2,90.9 156.8,112.7 163.6,112.7 		"/>
		<polygon fill="#777777" points="123.6,57.5 116.8,57.5 130.2,112.6 130.1,112.7 130.2,112.7 137,112.7 		"/>
		<polygon fill="#777777" points="185.5,57.5 178.7,57.5 165.4,112.7 172.2,112.7 172.2,112.7 172.2,112.6 		"/>
	</g>
	<g>
		<path fill="#777777" d="M267.3,61.8c0.5,0.5,0.7,1,0.7,1.6s-0.2,1.2-0.7,1.6c-0.5,0.4-1,0.7-1.6,0.7s-1.2-0.2-1.6-0.7
			s-0.7-1-0.7-1.6s0.2-1.2,0.7-1.6s1-0.7,1.6-0.7C266.3,61.1,266.9,61.4,267.3,61.8z M267.1,64.9c0.4-0.4,0.6-0.9,0.6-1.4
			c0-0.5-0.2-1-0.6-1.4c-0.4-0.4-0.9-0.6-1.4-0.6c-0.6,0-1,0.2-1.4,0.6c-0.4,0.4-0.6,0.9-0.6,1.4c0,0.5,0.2,1,0.6,1.4
			c0.4,0.4,0.9,0.6,1.4,0.6S266.7,65.2,267.1,64.9z M266.8,63c0,0.4-0.2,0.7-0.5,0.8l0.7,0.9h-0.5l-0.6-0.8h-0.5v0.8h-0.4v-2.5h0.9
			c0.4,0,0.6,0.1,0.8,0.2C266.7,62.5,266.8,62.7,266.8,63z M266.3,63.3c0.1-0.1,0.1-0.2,0.1-0.3s0-0.3-0.1-0.3s-0.2-0.1-0.5-0.1
			h-0.5v0.9h0.5C266,63.4,266.2,63.4,266.3,63.3z"/>
	</g>
</g>
</svg>
