<?xml version="1.0" encoding="utf-8"?>
<!-- Generator: Adobe Illustrator 21.0.1, SVG Export Plug-In . SVG Version: 6.00 Build 0)  -->
<svg version="1.2" baseProfile="tiny" id="Layer_1" xmlns="http://www.w3.org/2000/svg" xmlns:xlink="http://www.w3.org/1999/xlink"
	 x="0px" y="0px" viewBox="0 0 300 180" overflow="scroll" xml:space="preserve">
<g>
	<path fill="#777777" d="M42.1,56.8V105c0,4,2.8,6.8,6.9,6.8h34.1v-55H65.9v41.2h-6.8V56.8H42.1z"/>
	<path fill="#777777" d="M87.7,63.7v11.5c0,4.4,0.9,6.8,4.6,9.3l14.8,9.9v3.6H87.7v13.7h29.7c4,0,6.8-2.8,6.8-6.8V92.5
		c0-4.4-0.9-6.8-4.6-9.3l-14.8-10v-2.5h16.8l2.7-7.1v-6.8H94.6C90.5,56.8,87.7,59.7,87.7,63.7z"/>
	<path fill="#777777" d="M134.3,56.8l-7.7,48.1v6.8h17l1.1-11.1h7.5l1,11.1h17.1V105l-7.6-48.1C162.7,56.8,134.3,56.8,134.3,56.8z
		 M146,87l1.6-16.3h1.9L151,87H146z"/>
	<polygon fill="#777777" points="191.6,56.8 173.5,56.8 173.5,111.8 189.1,111.8 189.1,105 186.9,86.4 188.3,86.4 196.3,111.8 
		214.4,111.8 214.4,56.8 198.7,56.8 198.7,63.7 200.9,82.3 199.5,82.3 	"/>
	<path fill="#777777" d="M225.2,56.8l-7.6,48.1v6.8h17l1.1-11.1h7.5l1,11.1h17.1V105l-7.6-48.1C253.6,56.8,225.2,56.8,225.2,56.8z
		 M236.9,87l1.6-16.3h1.9l1.6,16.3H236.9z"/>
	<path fill="#777777" d="M266.7,66.3c0-0.1,0-0.1-0.1-0.2c0-0.1,0-0.1-0.1-0.1c-0.3-0.5-0.5-0.9-0.7-1.3c-0.1-0.2-0.3-0.4-0.4-0.6
		c-0.2-0.2-0.4-0.3-0.7-0.4v0c1.2-0.3,1.9-0.9,1.9-1.9c0-0.7-0.2-1.2-0.6-1.5c-0.4-0.3-1-0.5-1.9-0.5h-3v6.9h1.7V64
		c0.1,0,0.1,0,0.2,0c0.2,0,0.5,0.1,0.7,0.4c0.2,0.3,0.6,0.9,1.1,1.9l0.3,0.5h2c0-0.1-0.1-0.1-0.1-0.2
		C266.8,66.4,266.7,66.3,266.7,66.3z M263.5,62.7h-0.7V61h0.8c0.4,0,0.7,0.1,1,0.2c0.2,0.2,0.3,0.4,0.3,0.6
		C264.8,62.4,264.4,62.7,263.5,62.7z"/>
	<path fill="#777777" d="M267.1,57.7c-1-0.6-2-0.8-3.2-0.8s-2.2,0.3-3.2,0.8c-1,0.6-1.8,1.4-2.3,2.3c-0.6,1-0.9,2.1-0.9,3.2
		c0,1.2,0.3,2.2,0.9,3.2c0.6,1,1.4,1.8,2.3,2.3c1,0.6,2,0.9,3.2,0.9s2.2-0.3,3.2-0.9s1.8-1.3,2.3-2.3c0.6-1,0.9-2.1,0.9-3.2
		c0-1.2-0.3-2.2-0.9-3.2C268.9,59.1,268.1,58.3,267.1,57.7z M268.4,65.8c-0.5,0.8-1.1,1.4-1.9,1.9c-0.8,0.5-1.7,0.7-2.6,0.7
		c-0.5,0-0.9-0.1-1.3-0.2c-0.4-0.1-0.8-0.3-1.3-0.5c-0.8-0.5-1.4-1.1-1.9-1.9c-0.5-0.8-0.7-1.7-0.7-2.6s0.2-1.8,0.7-2.6
		c0.5-0.8,1.1-1.4,1.9-1.9c0.8-0.5,1.6-0.7,2.6-0.7s1.8,0.2,2.6,0.7c0.8,0.5,1.4,1.1,1.9,1.9c0.5,0.8,0.7,1.7,0.7,2.6
		C269.1,64.2,268.8,65,268.4,65.8z"/>
	<polygon fill="#AAAAAA" points="125.1,120 123.4,120 124.6,130.9 127,130.9 127.6,125.1 128.2,130.9 130.5,130.9 131.7,120 
		130.2,120 129.4,128.7 128.5,120 126.8,120 126,128.6 	"/>
	<polygon fill="#AAAAAA" points="172.1,128.9 170.7,120 169,120 170.7,130.9 173.2,130.9 174.9,120 173.4,120 	"/>
	<rect x="166.5" y="120" fill="#AAAAAA" width="1.7" height="10.9"/>
	<polygon fill="#AAAAAA" points="180.4,121.6 180.4,120 175.7,120 175.7,130.9 180.4,130.9 180.4,129.4 177.4,129.4 177.4,126.2 
		179.8,126.2 179.8,124.6 177.4,124.6 177.4,121.6 	"/>
	<polygon fill="#AAAAAA" points="161.2,120 161.2,130.9 165.7,130.9 165.7,129.4 162.9,129.4 162.9,120 	"/>
	<path fill="#AAAAAA" d="M152.5,122.6v5.7c0,1.8,0.9,2.8,2.6,2.8c1.7,0,2.6-1,2.6-2.8v-5.7c0-1.8-0.9-2.8-2.6-2.8
		C153.4,119.9,152.5,120.9,152.5,122.6z M155.9,122.5v5.9c0,0.8-0.3,1.1-0.9,1.1s-0.9-0.3-0.9-1.1v-5.9c0-0.8,0.3-1.1,0.9-1.1
		S155.9,121.8,155.9,122.5z"/>
	<path fill="#AAAAAA" d="M141.9,130.9h1.8c-0.2-0.4-0.2-0.8-0.2-1.3v-1.7c0-1.1-0.3-2-1.1-2.3c0.8-0.4,1.1-1.1,1.1-2.2v-0.9
		c0-1.7-0.8-2.5-2.5-2.5h-2.6v10.9h1.7v-4.4h0.6c0.8,0,1.1,0.4,1.1,1.4v1.7C141.8,130.5,141.8,130.7,141.9,130.9z M141.8,123.8
		c0,0.9-0.4,1.2-1,1.2h-0.7v-3.4h0.8c0.6,0,0.9,0.3,0.9,1.1V123.8L141.8,123.8z"/>
	<polygon fill="#AAAAAA" points="188.4,121.6 188.4,120 183.9,120 183.9,130.9 185.6,130.9 185.6,126.4 187.8,126.4 187.8,124.9 
		185.6,124.9 185.6,121.6 	"/>
	<polygon fill="#AAAAAA" points="137.3,121.6 137.3,120 132.6,120 132.6,130.9 137.3,130.9 137.3,129.4 134.3,129.4 134.3,126.2 
		136.7,126.2 136.7,124.6 134.3,124.6 134.3,121.6 	"/>
	<polygon fill="#AAAAAA" points="150.1,130.9 150.1,121.6 151.9,121.6 151.9,120 146.5,120 146.5,121.6 148.3,121.6 148.3,130.9 	
		"/>
	<polygon fill="#AAAAAA" points="96.8,120 96.8,130.9 98.6,130.9 98.6,126.3 100.5,126.3 100.5,130.9 102.2,130.9 102.2,120 
		100.5,120 100.5,124.7 98.6,124.7 98.6,120 	"/>
	<path fill="#AAAAAA" d="M122.7,128.3v-5.7c0-1.8-0.9-2.8-2.6-2.8s-2.6,1-2.6,2.8v5.7c0,1.8,0.9,2.8,2.6,2.8
		C121.8,131.1,122.7,130.1,122.7,128.3z M119.2,128.4v-5.9c0-0.8,0.3-1.1,0.9-1.1s0.9,0.3,0.9,1.1v5.9c0,0.8-0.3,1.1-0.9,1.1
		C119.6,129.5,119.2,129.2,119.2,128.4z"/>
	<path fill="#AAAAAA" d="M114.2,126.8c1.7,0,2.6-0.9,2.6-2.7v-1.4c0-1.8-0.8-2.7-2.6-2.7h-2.5v10.9h1.7v-4.1L114.2,126.8
		L114.2,126.8z M113.4,121.6h0.8c0.6,0,0.8,0.2,0.8,1v1.6c0,0.8-0.3,1-0.8,1h-0.8V121.6z"/>
	<polygon fill="#AAAAAA" points="108.2,121.6 108.2,120 103.5,120 103.5,130.9 108.2,130.9 108.2,129.4 105.2,129.4 105.2,126.2 
		107.6,126.2 107.6,124.6 105.2,124.6 105.2,121.6 	"/>
	<polygon fill="#AAAAAA" points="94.3,130.9 94.3,121.6 96.1,121.6 96.1,120 90.8,120 90.8,121.6 92.6,121.6 92.6,130.9 	"/>
	<polygon fill="#AAAAAA" points="200.2,121.6 200.2,120 195.5,120 195.5,130.9 200.2,130.9 200.2,129.4 197.3,129.4 197.3,126.2 
		199.6,126.2 199.6,124.6 197.3,124.6 197.3,121.6 	"/>
	<path fill="#AAAAAA" d="M192.9,130.9h1.8c-0.2-0.4-0.2-0.8-0.2-1.3v-1.7c0-1.1-0.3-2-1.1-2.3c0.8-0.4,1.1-1.1,1.1-2.2v-0.9
		c0-1.7-0.8-2.5-2.5-2.5h-2.6v10.9h1.7v-4.4h0.6c0.8,0,1.1,0.4,1.1,1.4v1.7C192.7,130.5,192.8,130.7,192.9,130.9z M192.7,123.8
		c0,0.9-0.4,1.2-1,1.2H191v-3.4h0.8c0.6,0,0.9,0.3,0.9,1.1V123.8L192.7,123.8z"/>
	<path fill="#AAAAAA" d="M201,127.7v0.7c0,1.8,0.9,2.8,2.6,2.8c1.7,0,2.6-1,2.6-2.8c0-3.1-3.4-3.6-3.4-5.8c0-0.8,0.3-1.1,0.9-1.1
		s0.9,0.3,0.9,1.1v0.4h1.6v-0.3c0-1.8-0.9-2.8-2.5-2.8s-2.5,1-2.5,2.8c0,3.1,3.4,3.6,3.4,5.8c0,0.8-0.3,1.1-0.9,1.1
		s-0.9-0.3-0.9-1.1v-0.8L201,127.7L201,127.7z"/>
	<polygon fill="#AAAAAA" points="212.5,130.9 212.5,120 210.8,120 210.8,124.7 208.8,124.7 208.8,120 207.1,120 207.1,130.9 
		208.8,130.9 208.8,126.3 210.8,126.3 210.8,130.9 	"/>
</g>
</svg>
