<?xml version="1.0" encoding="utf-8"?>
<!-- Generator: Adobe Illustrator 19.2.0, SVG Export Plug-In . SVG Version: 6.00 Build 0)  -->
<svg version="1.1" baseProfile="tiny" id="Layer_1" xmlns="http://www.w3.org/2000/svg" xmlns:xlink="http://www.w3.org/1999/xlink"
	 x="0px" y="0px" viewBox="0 0 300 180" xml:space="preserve">
<polygon fill="#57304B" points="38.69,75.27 32.52,90.67 26.32,75.27 20.98,75.27 20.98,75.29 30.3,98.01 34.74,98.01 44.04,75.27 
	"/>
<g>
	<path fill="#57304B" d="M44.53,77.43c0-1.57,1.27-2.77,2.77-2.77c1.53,0,2.77,1.21,2.77,2.77c0,1.53-1.24,2.74-2.77,2.74
		C45.8,80.17,44.53,78.96,44.53,77.43 M44.89,81.57h4.86v10.67c0,1.17,0.26,1.73,1.11,1.73c0.2,0,0.52-0.03,0.59-0.06v4.14
		c-0.16,0.07-0.91,0.26-2.25,0.26c-2.61,0-4.31-1.24-4.31-4.63V81.57z"/>
	<path fill="#57304B" d="M61.2,81.05c2.45,0,4.76,0.78,6.85,3.07l-3.07,3.03c-1.01-1.08-2.09-1.7-3.78-1.7
		c-2.35,0-4.21,1.79-4.21,4.31c0,2.48,1.86,4.27,4.21,4.27c1.7,0,2.77-0.62,3.78-1.7l3.07,3.03c-2.09,2.28-4.4,3.07-6.85,3.07
		c-5.02,0-9.07-3.65-9.07-8.68C52.13,84.73,56.17,81.05,61.2,81.05"/>
	<path fill="#57304B" d="M70.69,85.97h-2.15v-4.4h2.15v-6.3h4.73v6.3h3.65v4.4h-3.65v5.87c0,1.6,0.65,2.19,2.09,2.19
		c0.36,0,0.82-0.06,1.24-0.13v4.31c-0.55,0.13-1.47,0.23-2.38,0.23c-2.41,0-5.68-0.72-5.68-5.87V85.97z"/>
	<path fill="#57304B" d="M88.8,81.08c5.06,0,9.14,3.85,9.14,8.71c0,4.86-4.08,8.71-9.14,8.71c-5.09,0-9.14-3.85-9.14-8.71
		C79.66,84.93,83.71,81.08,88.8,81.08 M88.8,94.1c2.38,0,4.27-1.89,4.27-4.31c0-2.38-1.89-4.31-4.27-4.31
		c-2.41,0-4.27,1.92-4.27,4.31C84.52,92.21,86.38,94.1,88.8,94.1"/>
	<path fill="#57304B" d="M99.66,81.57h4.86v2.25c0.75-1.66,2.51-2.61,4.76-2.61c0.46,0,1.01,0.06,1.27,0.1v4.57
		c-0.46-0.1-1.01-0.16-1.63-0.16c-2.77,0-4.4,1.6-4.4,4.27v8.03h-4.86V81.57z"/>
	<path fill="#57304B" d="M111.83,77.43c0-1.57,1.27-2.77,2.77-2.77c1.53,0,2.77,1.21,2.77,2.77c0,1.53-1.24,2.74-2.77,2.74
		C113.1,80.17,111.83,78.96,111.83,77.43 M112.19,81.57h4.86v10.67c0,1.17,0.26,1.73,1.11,1.73c0.2,0,0.52-0.03,0.59-0.06v4.14
		c-0.16,0.07-0.91,0.26-2.25,0.26c-2.61,0-4.31-1.24-4.31-4.63V81.57z"/>
	<path fill="#57304B" d="M127.36,81.28c2.51,0,4.44,1.01,4.89,2.45v-2.15h4.86v10.67c0,1.34,0.36,1.83,1.21,1.83
		c0.23,0,0.59-0.03,0.82-0.06v4.05c-0.49,0.16-1.4,0.26-2.19,0.26c-0.88,0-1.86-0.13-2.68-0.59c-0.52-0.33-1.17-0.85-1.47-1.76
		c-0.95,1.4-2.58,2.38-5.45,2.38c-4.67,0-8.16-3.75-8.16-8.55C119.2,85.06,122.69,81.28,127.36,81.28 M128.24,93.9
		c2.38,0,4.31-1.79,4.31-4.11c0-2.32-1.93-4.11-4.31-4.11c-2.35,0-4.18,1.79-4.18,4.11C124.07,92.11,125.89,93.9,128.24,93.9"/>
	<path fill="#57304B" d="M141.06,75.27h9.59c3.46,0,7.67,2.71,7.67,7.7c0,4.6-3.91,7.7-7.67,7.7h-4.57v7.34h-5.02V75.27z
		 M150.36,86.1c1.01,0,2.94-0.65,2.94-3.13c0-2.51-1.93-3.13-2.94-3.13h-4.27v6.26H150.36z"/>
	<path fill="#57304B" d="M159.82,75.27h4.86v16.64c0,1.5,0.55,2.12,1.89,2.12c0.36,0,0.82-0.03,1.17-0.13v4.31
		c-0.49,0.13-1.44,0.23-2.32,0.23c-2.32,0-5.61-0.72-5.61-5.77V75.27z"/>
	<path fill="#57304B" d="M168.73,81.57h4.86v9.4c0,1.89,0.98,3.1,2.84,3.1c1.76,0,3.03-1.34,3.03-3.26v-9.23h4.86v10.67
		c0,1.34,0.36,1.83,1.21,1.83c0.23,0,0.59-0.03,0.82-0.07v4.05c-0.49,0.16-1.4,0.26-2.19,0.26c-0.88,0-1.86-0.13-2.68-0.59
		c-0.52-0.33-1.17-0.85-1.47-1.76c-0.72,1.4-2.28,2.41-4.83,2.41c-4.14,0-6.46-2.58-6.46-6.82V81.57z"/>
	<path fill="#57304B" d="M187.68,81.57h4.86v2.06c0.62-1.44,2.25-2.41,4.27-2.41c2.25,0,3.72,0.91,4.47,2.61
		c1.08-2.06,3.13-2.61,5.42-2.61c3.72,0,5.77,2.58,5.77,6.82v4.14c0,1.21,0.2,1.73,1.08,1.73c0.2,0,0.42-0.03,0.49-0.03v4.11
		c-0.1,0.03-0.82,0.23-2.09,0.23c-2.58,0-4.34-1.24-4.34-4.7v-4.89c0-1.89-0.82-3.1-2.38-3.1c-1.57,0-2.68,1.34-2.68,3.26v9.23
		h-4.86v-9.4c0-1.89-0.85-3.1-2.45-3.1c-1.57,0-2.71,1.34-2.71,3.26v9.23h-4.86V81.57z"/>
	<path fill="#57304B" d="M229.55,81.05c2.45,0,4.76,0.78,6.85,3.07l-3.07,3.03c-1.01-1.08-2.09-1.7-3.78-1.7
		c-2.35,0-4.21,1.79-4.21,4.31c0,2.48,1.86,4.27,4.21,4.27c1.7,0,2.77-0.62,3.78-1.7l3.07,3.03c-2.09,2.28-4.4,3.07-6.85,3.07
		c-5.02,0-9.07-3.65-9.07-8.68C220.48,84.73,224.53,81.05,229.55,81.05"/>
	<path fill="#57304B" d="M245.54,81.08c5.06,0,9.13,3.85,9.13,8.71c0,4.86-4.08,8.71-9.13,8.71c-5.09,0-9.14-3.85-9.14-8.71
		C236.4,84.93,240.45,81.08,245.54,81.08 M245.54,94.1c2.38,0,4.27-1.89,4.27-4.31c0-2.38-1.89-4.31-4.27-4.31
		c-2.41,0-4.27,1.92-4.27,4.31C241.26,92.21,243.12,94.1,245.54,94.1"/>
	<path fill="#57304B" d="M256.07,81.57h4.86v2.06c0.62-1.44,2.25-2.41,4.27-2.41c2.25,0,3.72,0.91,4.47,2.61
		c1.08-2.06,3.16-2.61,5.48-2.61c3.75,0,5.84,2.58,5.84,6.82v9.98h-4.86v-9.4c0-1.89-0.85-3.1-2.45-3.1c-1.6,0-2.74,1.34-2.74,3.26
		v9.23h-4.86v-9.4c0-1.89-0.85-3.1-2.45-3.1c-1.57,0-2.71,1.34-2.71,3.26v9.23h-4.86V81.57z"/>
	<polygon fill="#57304B" points="220.64,93.87 217.94,91.58 215.24,93.87 215.23,97.98 220.64,97.98 	"/>
</g>
</svg>
