<?xml version="1.0" encoding="utf-8"?>
<!-- Generator: Adobe Illustrator 21.0.1, SVG Export Plug-In . SVG Version: 6.00 Build 0)  -->
<svg version="1.2" baseProfile="tiny" id="Layer_1" xmlns="http://www.w3.org/2000/svg" xmlns:xlink="http://www.w3.org/1999/xlink"
	 x="0px" y="0px" viewBox="0 0 300 180" overflow="inherit" xml:space="preserve">
<polygon fill="#777777" points="38.7,75.3 32.5,90.7 26.3,75.3 21,75.3 21,75.3 30.3,98 34.7,98 44,75.3 "/>
<g>
	<path fill="#777777" d="M44.5,77.4c0-1.6,1.3-2.8,2.8-2.8c1.5,0,2.8,1.2,2.8,2.8c0,1.5-1.2,2.7-2.8,2.7
		C45.8,80.2,44.5,79,44.5,77.4 M44.9,81.6h4.9v10.7c0,1.2,0.3,1.7,1.1,1.7c0.2,0,0.5,0,0.6-0.1v4.1c-0.2,0.1-0.9,0.3-2.2,0.3
		c-2.6,0-4.3-1.2-4.3-4.6V81.6z"/>
	<path fill="#777777" d="M61.2,81.1c2.5,0,4.8,0.8,6.9,3.1l-3.1,3c-1-1.1-2.1-1.7-3.8-1.7c-2.3,0-4.2,1.8-4.2,4.3
		c0,2.5,1.9,4.3,4.2,4.3c1.7,0,2.8-0.6,3.8-1.7l3.1,3c-2.1,2.3-4.4,3.1-6.8,3.1c-5,0-9.1-3.7-9.1-8.7C52.1,84.7,56.2,81.1,61.2,81.1
		"/>
	<path fill="#777777" d="M70.7,86h-2.2v-4.4h2.2v-6.3h4.7v6.3h3.7V86h-3.7v5.9c0,1.6,0.7,2.2,2.1,2.2c0.4,0,0.8-0.1,1.2-0.1v4.3
		c-0.6,0.1-1.5,0.2-2.4,0.2c-2.4,0-5.7-0.7-5.7-5.9V86z"/>
	<path fill="#777777" d="M88.8,81.1c5.1,0,9.1,3.8,9.1,8.7s-4.1,8.7-9.1,8.7c-5.1,0-9.1-3.8-9.1-8.7S83.7,81.1,88.8,81.1 M88.8,94.1
		c2.4,0,4.3-1.9,4.3-4.3c0-2.4-1.9-4.3-4.3-4.3c-2.4,0-4.3,1.9-4.3,4.3C84.5,92.2,86.4,94.1,88.8,94.1"/>
	<path fill="#777777" d="M99.7,81.6h4.9v2.2c0.8-1.7,2.5-2.6,4.8-2.6c0.5,0,1,0.1,1.3,0.1v4.6c-0.5-0.1-1-0.2-1.6-0.2
		c-2.8,0-4.4,1.6-4.4,4.3v8h-4.9V81.6z"/>
	<path fill="#777777" d="M111.8,77.4c0-1.6,1.3-2.8,2.8-2.8c1.5,0,2.8,1.2,2.8,2.8c0,1.5-1.2,2.7-2.8,2.7
		C113.1,80.2,111.8,79,111.8,77.4 M112.2,81.6h4.9v10.7c0,1.2,0.3,1.7,1.1,1.7c0.2,0,0.5,0,0.6-0.1v4.1c-0.2,0.1-0.9,0.3-2.2,0.3
		c-2.6,0-4.3-1.2-4.3-4.6V81.6z"/>
	<path fill="#777777" d="M127.4,81.3c2.5,0,4.4,1,4.9,2.4v-2.2h4.9v10.7c0,1.3,0.4,1.8,1.2,1.8c0.2,0,0.6,0,0.8-0.1v4.1
		c-0.5,0.2-1.4,0.3-2.2,0.3c-0.9,0-1.9-0.1-2.7-0.6c-0.5-0.3-1.2-0.8-1.5-1.8c-0.9,1.4-2.6,2.4-5.4,2.4c-4.7,0-8.2-3.8-8.2-8.6
		C119.2,85.1,122.7,81.3,127.4,81.3 M128.2,93.9c2.4,0,4.3-1.8,4.3-4.1s-1.9-4.1-4.3-4.1c-2.3,0-4.2,1.8-4.2,4.1
		C124.1,92.1,125.9,93.9,128.2,93.9"/>
	<path fill="#777777" d="M141.1,75.3h9.6c3.5,0,7.7,2.7,7.7,7.7c0,4.6-3.9,7.7-7.7,7.7h-4.6V98h-5L141.1,75.3L141.1,75.3z
		 M150.4,86.1c1,0,2.9-0.7,2.9-3.1c0-2.5-1.9-3.1-2.9-3.1h-4.3v6.3C146.1,86.1,150.4,86.1,150.4,86.1z"/>
	<path fill="#777777" d="M159.8,75.3h4.9v16.6c0,1.5,0.6,2.1,1.9,2.1c0.4,0,0.8,0,1.2-0.1v4.3c-0.5,0.1-1.4,0.2-2.3,0.2
		c-2.3,0-5.6-0.7-5.6-5.8L159.8,75.3L159.8,75.3z"/>
	<path fill="#777777" d="M168.7,81.6h4.9V91c0,1.9,1,3.1,2.8,3.1c1.8,0,3-1.3,3-3.3v-9.2h4.9v10.7c0,1.3,0.4,1.8,1.2,1.8
		c0.2,0,0.6,0,0.8-0.1v4.1c-0.5,0.2-1.4,0.3-2.2,0.3c-0.9,0-1.9-0.1-2.7-0.6c-0.5-0.3-1.2-0.8-1.5-1.8c-0.7,1.4-2.3,2.4-4.8,2.4
		c-4.1,0-6.5-2.6-6.5-6.8L168.7,81.6L168.7,81.6z"/>
	<path fill="#777777" d="M187.7,81.6h4.9v2.1c0.6-1.4,2.2-2.4,4.3-2.4c2.2,0,3.7,0.9,4.5,2.6c1.1-2.1,3.1-2.6,5.4-2.6
		c3.7,0,5.8,2.6,5.8,6.8v4.1c0,1.2,0.2,1.7,1.1,1.7c0.2,0,0.4,0,0.5,0V98c-0.1,0-0.8,0.2-2.1,0.2c-2.6,0-4.3-1.2-4.3-4.7v-4.9
		c0-1.9-0.8-3.1-2.4-3.1c-1.6,0-2.7,1.3-2.7,3.3V98h-4.9v-9.4c0-1.9-0.9-3.1-2.4-3.1c-1.6,0-2.7,1.3-2.7,3.3V98h-4.9L187.7,81.6
		L187.7,81.6z"/>
	<path fill="#777777" d="M229.6,81.1c2.4,0,4.8,0.8,6.9,3.1l-3.1,3c-1-1.1-2.1-1.7-3.8-1.7c-2.4,0-4.2,1.8-4.2,4.3
		c0,2.5,1.9,4.3,4.2,4.3c1.7,0,2.8-0.6,3.8-1.7l3.1,3c-2.1,2.3-4.4,3.1-6.9,3.1c-5,0-9.1-3.7-9.1-8.7
		C220.5,84.7,224.5,81.1,229.6,81.1"/>
	<path fill="#777777" d="M245.5,81.1c5.1,0,9.1,3.8,9.1,8.7s-4.1,8.7-9.1,8.7c-5.1,0-9.1-3.8-9.1-8.7S240.4,81.1,245.5,81.1
		 M245.5,94.1c2.4,0,4.3-1.9,4.3-4.3c0-2.4-1.9-4.3-4.3-4.3c-2.4,0-4.3,1.9-4.3,4.3C241.3,92.2,243.1,94.1,245.5,94.1"/>
	<path fill="#777777" d="M256.1,81.6h4.9v2.1c0.6-1.4,2.2-2.4,4.3-2.4c2.2,0,3.7,0.9,4.5,2.6c1.1-2.1,3.2-2.6,5.5-2.6
		c3.8,0,5.8,2.6,5.8,6.8v10h-4.9v-9.4c0-1.9-0.9-3.1-2.5-3.1s-2.7,1.3-2.7,3.3V98h-4.9v-9.4c0-1.9-0.9-3.1-2.5-3.1
		c-1.6,0-2.7,1.3-2.7,3.3V98h-4.9L256.1,81.6L256.1,81.6z"/>
	<polygon fill="#777777" points="220.6,93.9 217.9,91.6 215.2,93.9 215.2,98 220.6,98 	"/>
</g>
</svg>
