<?xml version="1.0" encoding="utf-8"?>
<!-- Generator: Adobe Illustrator 21.0.1, SVG Export Plug-In . SVG Version: 6.00 Build 0)  -->
<svg version="1.2" baseProfile="tiny" id="Layer_1" xmlns="http://www.w3.org/2000/svg" xmlns:xlink="http://www.w3.org/1999/xlink"
	 x="0px" y="0px" viewBox="0 0 300 180" xml:space="preserve">
<path fill="#777777" d="M148.3,24.6c-53.4,0-96.7,25-96.7,55.8s43.3,55.8,96.7,55.8s96.7-25,96.7-55.8
	C245,49.6,201.7,24.6,148.3,24.6 M148.3,134.6c-52.1,0-94.3-24.2-94.3-54.1c0-29.9,42.2-54.2,94.3-54.2s94.3,24.2,94.3,54.2
	C242.6,110.4,200.4,134.6,148.3,134.6"/>
<polygon fill="#777777" points="137.6,90.7 145.4,90.7 141.1,83.8 "/>
<path fill="#777777" d="M177.7,73.2h-3.6L174,99.1h4.8c6.8,0,12.3-5.8,12.3-12.9C191.1,79.2,184.8,73.2,177.7,73.2"/>
<path fill="#777777" d="M148.3,33.8c-48,0-86.9,20.9-86.9,46.7s38.9,46.7,86.9,46.7s86.9-20.9,86.9-46.7
	C235.2,54.7,196.3,33.8,148.3,33.8 M119.9,103.2L119.9,103.2L110.5,88l-4.4,8.6v0l-3.4,6.6L77.2,61.8h-4.5v-4h25v4h-7l15.2,24.6
	l1.6-3.2l-5-8.2l5.1-9.9L122,88.5l13.8-26.7h-3.4v-4h13.4v4h-4.6l-20.5,39.7v-0.1L119.9,103.2z M181.9,103.2h-9.4H163H157h-5.2h-5.4
	v-4h3l-1.6-2.5h-12.4l-1.3,2.5h3v4H132h-5.2h-3.2v-4h5.3l9.9-19.2l0,0l0.5-0.9l0,0l-1.6-2.7l4.1-7.9l18.9,30.7h2.5V72.2H160v-3.4h16
	h4c7.7,0,16.2,7.9,16.2,17.2C196.1,95.5,189.4,103.2,181.9,103.2 M223.9,72.2h-15.2v11.5h12.1v4h-12.1v11.5h15.2v4h-28.6v-4h2.6v-27
	h-2.6v-4h28.6L223.9,72.2L223.9,72.2z"/>
<polygon fill="#777777" points="111.4,155.4 111.4,158 101.2,158 101.2,144.1 111.3,144.1 111.3,146.6 104.6,146.6 104.6,149.6 
	111,149.6 111,152.1 104.6,152.1 104.6,155.4 "/>
<path fill="#777777" d="M122.6,148v2.1c-1.4-0.6-2.5-1-3.4-1c-0.5,0-0.9,0.1-1.1,0.2s-0.4,0.4-0.4,0.6c0,0.2,0.1,0.4,0.3,0.6
	c0.2,0.2,0.7,0.4,1.5,0.7c0.8,0.3,1.4,0.6,1.9,0.8s0.9,0.6,1.2,1.1c0.3,0.4,0.5,1,0.5,1.7c0,1-0.4,1.8-1.1,2.4
	c-0.8,0.6-1.7,0.9-3,0.9c-1.3,0-2.6-0.4-3.8-1v-2.3c0.7,0.5,1.3,0.8,1.9,1c0.6,0.2,1.1,0.3,1.8,0.3c1,0,1.6-0.3,1.6-1
	c0-0.2-0.1-0.4-0.3-0.6c-0.2-0.2-0.7-0.4-1.5-0.7c-0.8-0.3-1.4-0.6-1.9-0.8c-0.5-0.2-0.9-0.6-1.2-1s-0.5-1-0.5-1.7
	c0-0.9,0.4-1.6,1.1-2.2c0.7-0.6,1.7-0.8,3-0.8C120.1,147.2,121.3,147.5,122.6,148"/>
<polygon fill="#777777" points="135.6,147.3 135.6,149.3 131.8,149.3 131.8,158 129.1,158 129.1,149.3 125.2,149.3 125.2,147.3 "/>
<path fill="#777777" d="M136.2,156.8c0-0.4,0.1-0.7,0.4-1c0.3-0.3,0.6-0.4,1-0.4c0.4,0,0.7,0.1,1,0.4c0.3,0.3,0.4,0.6,0.4,1
	c0,0.4-0.1,0.7-0.4,1c-0.3,0.3-0.6,0.4-1,0.4s-0.7-0.1-1-0.4C136.3,157.5,136.2,157.1,136.2,156.8"/>
<rect x="149.2" y="144.1" fill="#777777" width="3.1" height="13.9"/>
<path fill="#777777" d="M161.2,150.7c-1.1-0.7-1.7-1.7-1.7-3c0-1.1,0.4-2,1.2-2.7c0.8-0.7,1.8-1,3.1-1c1.3,0,2.4,0.4,3.2,1.1
	c0.8,0.7,1.2,1.6,1.2,2.7c0,1.3-0.6,2.3-1.7,3c1.4,0.7,2.1,1.8,2.1,3.4c0,1.2-0.4,2.2-1.3,3c-0.9,0.8-2,1.1-3.4,1.1
	c-1.4,0-2.5-0.4-3.3-1.2s-1.3-1.8-1.3-3C159.1,152.4,159.8,151.3,161.2,150.7 M163.8,156.1c0.4,0,0.8-0.2,1.1-0.6s0.4-0.9,0.4-1.6
	c0-0.7-0.1-1.2-0.4-1.6c-0.3-0.4-0.7-0.6-1.1-0.6s-0.9,0.2-1.1,0.6s-0.4,0.9-0.4,1.6c0,0.7,0.1,1.2,0.4,1.6
	C163,155.9,163.4,156.1,163.8,156.1 M163.8,149.8c0.4,0,0.7-0.2,0.9-0.5c0.2-0.4,0.3-0.8,0.3-1.5c0-1.2-0.4-1.9-1.3-1.9
	c-0.4,0-0.7,0.2-0.9,0.5s-0.4,0.8-0.4,1.4c0,0.6,0.1,1.1,0.4,1.4C163.1,149.6,163.4,149.8,163.8,149.8"/>
<rect x="175.2" y="144.1" fill="#777777" width="3.1" height="13.9"/>
<path fill="#777777" d="M190.4,143.9c1.5,0,2.6,0.6,3.4,1.9c0.8,1.3,1.2,3,1.2,5.2c0,2.3-0.4,4-1.2,5.3c-0.8,1.3-1.9,1.9-3.4,1.9
	c-1.5,0-2.7-0.6-3.5-1.9c-0.8-1.3-1.3-3-1.3-5.2c0-2.3,0.4-4,1.3-5.3C187.8,144.5,188.9,143.9,190.4,143.9 M190.4,155.6
	c0.6,0,1-0.3,1.2-1c0.2-0.7,0.4-1.9,0.4-3.8c0-1.6-0.1-2.6-0.4-3.3c-0.2-0.6-0.7-1-1.2-1s-1,0.3-1.2,0.9c-0.3,0.6-0.4,1.9-0.4,3.7
	c0,1.6,0.1,2.7,0.4,3.4C189.4,155.2,189.8,155.6,190.4,155.6"/>
</svg>
