<?xml version="1.0" encoding="utf-8"?>
<!-- Generator: Adobe Illustrator 19.2.0, SVG Export Plug-In . SVG Version: 6.00 Build 0)  -->
<svg version="1.1" baseProfile="tiny" id="Layer_1" xmlns="http://www.w3.org/2000/svg" xmlns:xlink="http://www.w3.org/1999/xlink"
	 x="0px" y="0px" viewBox="0 0 300 180" xml:space="preserve">
<path fill="#D53541" d="M148.33,24.61c-53.39,0-96.67,25.01-96.67,55.85s43.28,55.85,96.67,55.85S245,111.31,245,80.46
	C244.99,49.62,201.72,24.61,148.33,24.61 M148.33,134.6c-52.07,0-94.28-24.24-94.28-54.14c0-29.91,42.21-54.15,94.28-54.15
	s94.28,24.24,94.28,54.15C242.61,110.36,200.4,134.6,148.33,134.6"/>
<polygon fill="#D53541" points="137.61,90.66 145.38,90.66 141.15,83.79 "/>
<path fill="#D53541" d="M177.71,73.23h-3.62l-0.06,25.86h4.8c6.78,0,12.27-5.79,12.27-12.92C191.1,79.17,184.84,73.23,177.71,73.23"
	/>
<path fill="#D53541" d="M148.33,33.8c-48,0-86.92,20.89-86.92,46.66s38.92,46.66,86.92,46.66s86.92-20.89,86.92-46.66
	C235.24,54.68,196.33,33.8,148.33,33.8 M119.87,103.2h-0.04l-9.33-15.15l-4.43,8.58v-0.01l-3.38,6.56L77.2,61.75h-4.48v-4.02h25.01
	v4.02h-6.97l15.15,24.6l1.62-3.16l-5.03-8.17l5.12-9.94l14.39,23.38l13.77-26.73h-3.36v-4.02h13.44v4.02h-4.58l-20.47,39.72v-0.08
	L119.87,103.2z M181.89,103.2h-9.44h-9.41h-6.07h-5.17h-5.43v-4.02h2.96l-1.57-2.54h-12.39l-1.3,2.54h3.01v4.02h-5.08h-5.18h-3.17
	v-4.02h5.25l9.91-19.22l-0.01-0.01l0.46-0.89l0,0l-1.65-2.68l4.07-7.9l18.9,30.69h2.47V72.24h-3.06v-3.4h15.96h4.03
	c7.67,0,16.18,7.9,16.18,17.18C196.15,95.5,189.39,103.2,181.89,103.2 M223.93,72.18h-15.25v11.48h12.07v4.02h-12.07v11.48h15.25
	v4.02H195.3v-4.02h2.55V72.18h-2.55v-4.02h28.63V72.18z"/>
<polygon fill="#D53541" points="111.41,155.45 111.41,158 101.15,158 101.15,144.07 111.27,144.07 111.27,146.63 104.61,146.63 
	104.61,149.55 110.96,149.55 110.96,152.1 104.61,152.1 104.61,155.45 "/>
<path fill="#D53541" d="M122.58,148.02v2.09c-1.42-0.64-2.54-0.96-3.38-0.96c-0.48,0-0.86,0.08-1.14,0.24
	c-0.28,0.16-0.43,0.37-0.43,0.64c0,0.2,0.11,0.4,0.31,0.58c0.2,0.18,0.7,0.42,1.49,0.72c0.79,0.29,1.42,0.56,1.89,0.81
	c0.47,0.25,0.88,0.6,1.23,1.05c0.35,0.45,0.51,1.02,0.51,1.72c0,0.99-0.38,1.78-1.13,2.36c-0.75,0.59-1.74,0.88-2.97,0.88
	c-1.32,0-2.61-0.35-3.85-1.03v-2.3c0.72,0.48,1.34,0.83,1.89,1.04c0.55,0.22,1.13,0.33,1.75,0.33c1.04,0,1.57-0.33,1.57-0.99
	c0-0.22-0.11-0.43-0.32-0.64c-0.21-0.19-0.72-0.43-1.51-0.72c-0.8-0.28-1.43-0.55-1.89-0.79c-0.46-0.24-0.87-0.59-1.21-1.04
	s-0.51-1.03-0.51-1.74c0-0.92,0.37-1.65,1.11-2.22c0.73-0.56,1.73-0.84,2.97-0.84C120.11,147.19,121.3,147.47,122.58,148.02"/>
<polygon fill="#D53541" points="135.62,147.32 135.62,149.28 131.75,149.28 131.75,158 129.09,158 129.09,149.28 125.23,149.28 
	125.23,147.32 "/>
<path fill="#D53541" d="M136.16,156.78c0-0.38,0.14-0.7,0.4-0.96c0.27-0.27,0.59-0.4,0.96-0.4c0.38,0,0.7,0.14,0.97,0.4
	c0.27,0.27,0.4,0.59,0.4,0.96c0,0.38-0.14,0.7-0.4,0.97c-0.27,0.27-0.59,0.4-0.97,0.4c-0.38,0-0.7-0.14-0.96-0.4
	C136.3,157.47,136.16,157.15,136.16,156.78"/>
<rect x="149.18" y="144.07" fill="#D53541" width="3.08" height="13.92"/>
<path fill="#D53541" d="M161.22,150.66c-1.14-0.72-1.71-1.71-1.71-2.98c0-1.13,0.39-2.04,1.17-2.74c0.77-0.7,1.8-1.04,3.06-1.04
	c1.32,0,2.38,0.37,3.16,1.11c0.77,0.74,1.17,1.63,1.17,2.69c0,1.3-0.57,2.28-1.69,2.96c1.39,0.72,2.08,1.84,2.08,3.36
	c0,1.25-0.43,2.25-1.29,3.02c-0.85,0.76-1.99,1.14-3.41,1.14c-1.37,0-2.48-0.39-3.34-1.16s-1.29-1.77-1.29-2.98
	C159.13,152.43,159.82,151.3,161.22,150.66 M163.81,156.15c0.45,0,0.83-0.19,1.11-0.58c0.28-0.39,0.43-0.91,0.43-1.56
	c0-0.69-0.14-1.23-0.43-1.62c-0.28-0.4-0.66-0.6-1.13-0.6c-0.47,0-0.85,0.19-1.14,0.58c-0.29,0.39-0.43,0.91-0.43,1.56
	c0,0.68,0.14,1.22,0.43,1.61C162.96,155.94,163.35,156.15,163.81,156.15 M163.81,149.8c0.4,0,0.71-0.17,0.93-0.53
	c0.22-0.36,0.34-0.84,0.34-1.47c0-1.24-0.43-1.86-1.3-1.86c-0.4,0-0.71,0.16-0.94,0.5s-0.35,0.8-0.35,1.39
	c0,0.61,0.12,1.08,0.36,1.43C163.09,149.62,163.41,149.8,163.81,149.8"/>
<rect x="175.25" y="144.07" fill="#D53541" width="3.08" height="13.92"/>
<path fill="#D53541" d="M190.37,143.9c1.48,0,2.63,0.63,3.45,1.9c0.83,1.27,1.24,3,1.24,5.17c0,2.27-0.4,4.03-1.21,5.31
	c-0.8,1.27-1.95,1.9-3.45,1.9c-1.52,0-2.7-0.63-3.53-1.89c-0.84-1.27-1.26-3.01-1.26-5.24c0-2.26,0.43-4.01,1.29-5.27
	C187.75,144.53,188.9,143.9,190.37,143.9 M190.37,155.57c0.56,0,0.97-0.34,1.22-1.01c0.25-0.68,0.38-1.94,0.38-3.8
	c0-1.55-0.13-2.64-0.38-3.29c-0.25-0.64-0.67-0.96-1.24-0.96s-0.98,0.31-1.24,0.94c-0.26,0.63-0.4,1.88-0.4,3.73
	c0,1.56,0.14,2.68,0.4,3.36C189.36,155.23,189.79,155.57,190.37,155.57"/>
</svg>
