<?xml version="1.0" encoding="utf-8"?>
<!-- Generator: Adobe Illustrator 19.2.0, SVG Export Plug-In . SVG Version: 6.00 Build 0)  -->
<svg version="1.1" baseProfile="tiny" id="Layer_1" xmlns="http://www.w3.org/2000/svg" xmlns:xlink="http://www.w3.org/1999/xlink"
	 x="0px" y="0px" viewBox="0 0 300 180" xml:space="preserve">
<g>
	<path fill-rule="evenodd" fill="#26406A" d="M146.8,60.28l0.33-0.55c0.06-0.27,0-0.44-0.27-0.49l-1.98-0.27
		c-0.44,0-0.71,0.22-0.93,0.6l-0.5,1.26l-0.38,1.81c0,0.33,0,0.49,0.17,0.55c0.11,0,0.22-0.06,0.33-0.17L146.8,60.28L146.8,60.28z"
		/>
	<path fill-rule="evenodd" fill="#26406A" d="M128.07,44.57l0.77,1.98l9.11,30.04h7.25l-0.82-1.26c-0.82-1.54-1.43-3.24-1.92-5.11
		c-0.49-1.92-0.71-3.73-0.71-5.49c0-1.48,0.22-2.91,0.6-4.23c0.33-1.15,0.66-1.92,1.04-2.31c0.22-0.22,0.55-0.38,0.93-0.44l2.8,0.11
		c0.17-0.11,0.27-0.28,0.27-0.55c0-0.6-0.38-1.15-1.26-1.65c-0.17-0.11-0.22-0.22-0.22-0.39l0.05-0.22l0.28-0.11h6.2l0.27,0.11
		l0.11,0.22c0,0.16-0.11,0.27-0.28,0.39c-0.82,0.5-1.21,1.04-1.21,1.65c0,0.27,0.11,0.44,0.27,0.55l2.8-0.11
		c0.38,0.06,0.66,0.22,0.93,0.44c0.39,0.38,0.71,1.15,1.05,2.31c0.38,1.32,0.6,2.75,0.6,4.23c0,1.76-0.27,3.57-0.71,5.49
		c-0.49,1.87-1.1,3.57-1.92,5.11l-0.82,1.26h7.3l9-30.04c0.27-0.88,0.55-1.48,0.82-1.98c0.28-0.44,0.61-0.82,0.99-1.04
		c0.44-0.33,0.99-0.49,1.54-0.49c0.22,0,0.28-0.11,0.28-0.33c0-0.17-0.06-0.27-0.28-0.27h-11.7c-0.22,0-0.33,0.11-0.33,0.27
		c0,0.22,0.11,0.33,0.33,0.33l0.99,0.16c0.22,0.11,0.44,0.22,0.6,0.38c0.33,0.33,0.5,0.77,0.5,1.32l-4.45,16.14l-9.45-18.12
		l-0.33-0.27l-0.38,0.27l-9.39,18.12l-4.01-14c-0.33-1.04-0.44-1.76-0.44-2.14c-0.05-0.55,0.11-0.99,0.49-1.32
		c0.11-0.16,0.33-0.27,0.6-0.38l0.99-0.16l0.33-0.33l-0.33-0.27h-11.7c-0.22,0-0.33,0.11-0.33,0.27c0,0.22,0.11,0.33,0.33,0.33
		c0.55,0,1.04,0.16,1.54,0.49C127.47,43.75,127.8,44.14,128.07,44.57L128.07,44.57z"/>
	<path fill-rule="evenodd" fill="#26406A" d="M152.01,60.28l-0.33-0.55c-0.05-0.27,0.05-0.44,0.27-0.49l1.98-0.27
		c0.44,0,0.72,0.22,0.93,0.6l0.49,1.26l0.39,1.81c0,0.33,0,0.49-0.16,0.55c-0.11,0-0.22-0.06-0.33-0.17L152.01,60.28L152.01,60.28z"
		/>
	<path fill-rule="evenodd" fill="#26406A" d="M251.24,94.87l0.44,0.77v21.63l-0.44,0.77l-0.71,0.44l-1.27,0.11
		c-0.11,0-0.16,0.05-0.27,0.11l-0.11,0.22l0.11,0.22l0.27,0.11h8.62c2.86,0,5.22-0.27,6.97-0.82c1.76-0.55,3.29-1.37,4.72-2.64
		c2.8-2.47,4.23-5.88,4.23-10.21c0-1.48-0.27-2.97-0.88-4.45c-0.6-1.48-1.43-2.8-2.47-3.79c-1.26-1.26-2.75-2.19-4.5-2.74
		c-1.75-0.66-3.9-0.99-6.42-0.99h-10.49l-0.27,0.16l-0.11,0.22l0.11,0.22l0.27,0.11C250.14,94.32,250.91,94.49,251.24,94.87
		L251.24,94.87z M255.9,96.41l3.46-0.33c1.65,0,3.13,0.22,4.28,0.66c1.1,0.38,2.09,1.04,2.91,1.81c1.87,1.87,2.8,4.45,2.8,7.85
		c0,1.16-0.17,2.31-0.44,3.4c-0.33,1.32-0.88,2.47-1.59,3.41c-1.82,2.36-4.61,3.57-8.4,3.57h-2.2l-0.82-0.17V96.41L255.9,96.41z"/>
	<path fill-rule="evenodd" fill="#26406A" d="M236.74,94.05c-1.7-0.72-3.51-1.05-5.38-1.05c-2.03,0-4.01,0.39-5.76,1.15
		c-1.76,0.71-3.24,1.65-4.56,2.91c-1.21,1.26-2.2,2.69-2.91,4.28c-0.66,1.59-1.05,3.24-1.05,5c0,1.87,0.39,3.68,1.1,5.38
		c0.72,1.59,1.71,3.02,3.02,4.28c1.26,1.21,2.74,2.14,4.45,2.85c1.7,0.66,3.51,0.99,5.38,0.99c1.87,0,3.62-0.33,5.33-0.93
		c1.76-0.66,3.24-1.59,4.5-2.75c1.38-1.26,2.42-2.69,3.13-4.34c0.77-1.76,1.15-3.68,1.15-5.71c0-1.87-0.33-3.63-1.1-5.28
		c-0.66-1.59-1.65-2.96-2.97-4.17C239.82,95.53,238.39,94.6,236.74,94.05L236.74,94.05z M231.08,95.48c1.21,0,2.42,0.33,3.57,0.82
		c1.15,0.55,2.2,1.32,3.07,2.25c0.93,1.05,1.65,2.31,2.14,3.68c0.49,1.48,0.83,3.07,0.83,4.78c0,1.48-0.22,2.86-0.71,4.12
		c-0.38,1.21-1.04,2.31-1.87,3.29c-0.77,0.93-1.76,1.65-2.91,2.2c-1.21,0.55-2.53,0.82-3.9,0.82c-1.48,0-2.91-0.38-4.18-1.04
		c-1.15-0.61-2.14-1.48-3.02-2.64c-0.82-1.1-1.37-2.31-1.87-3.73c-0.39-1.32-0.61-2.69-0.61-4.12c0-1.54,0.27-2.97,0.71-4.28
		c0.44-1.21,1.15-2.31,2.03-3.24c0.83-0.93,1.81-1.59,2.96-2.09C228.56,95.75,229.77,95.48,231.08,95.48L231.08,95.48z"/>
	<path fill-rule="evenodd" fill="#26406A" d="M198.19,93.01c-2.09,0-4.01,0.39-5.82,1.15c-1.7,0.71-3.18,1.65-4.5,2.91
		c-1.27,1.26-2.25,2.69-2.91,4.28c-0.66,1.59-1.04,3.24-1.04,5c0,1.87,0.38,3.68,1.1,5.38c0.71,1.59,1.7,3.02,2.97,4.28
		c1.32,1.21,2.8,2.14,4.45,2.85c1.76,0.66,3.57,0.99,5.44,0.99c1.87,0,3.62-0.33,5.33-0.93c1.7-0.66,3.18-1.59,4.5-2.75
		c1.37-1.26,2.41-2.69,3.13-4.34c0.77-1.76,1.15-3.68,1.15-5.71c0-1.87-0.33-3.63-1.1-5.28c-0.71-1.59-1.7-2.96-2.96-4.17
		c-1.27-1.15-2.75-2.09-4.39-2.64C201.82,93.33,200.06,93.01,198.19,93.01L198.19,93.01z M197.86,95.48c1.26,0,2.47,0.33,3.62,0.82
		c1.16,0.55,2.2,1.32,3.07,2.25c0.88,1.05,1.6,2.31,2.09,3.68c0.55,1.48,0.83,3.07,0.83,4.78c0,1.48-0.22,2.86-0.66,4.12
		c-0.44,1.21-1.04,2.31-1.87,3.29c-0.82,0.93-1.81,1.65-2.96,2.2c-1.15,0.55-2.47,0.82-3.85,0.82c-1.54,0-2.91-0.38-4.17-1.04
		c-1.15-0.61-2.19-1.48-3.02-2.64c-0.82-1.1-1.43-2.31-1.87-3.73c-0.38-1.32-0.6-2.69-0.6-4.12c0-1.54,0.22-2.97,0.71-4.28
		c0.49-1.21,1.1-2.31,1.98-3.24c0.88-0.93,1.87-1.59,3.02-2.09C195.34,95.75,196.55,95.48,197.86,95.48L197.86,95.48z"/>
	<path fill-rule="evenodd" fill="#26406A" d="M182.6,93.77l-0.33-0.16h-8.29c-0.11,0-0.22,0.05-0.33,0.16l-0.05,0.22l0.05,0.22
		l0.33,0.11c0.61,0,1.04,0.11,1.21,0.39c0.22,0.22,0.22,0.77,0.06,1.54l-4.06,13.84l-6.92-15.65l-0.44-0.38
		c-0.17-0.06-0.33,0.06-0.44,0.33l-7.09,15.6l-4.06-13.9c-0.17-0.66-0.11-1.1,0.05-1.37c0.17-0.27,0.61-0.39,1.27-0.39l0.27-0.11
		l0.11-0.22l-0.11-0.22l-0.27-0.16h-8.51c-0.11,0-0.22,0.05-0.27,0.16c-0.11,0.05-0.11,0.11-0.11,0.22l0.11,0.22l0.27,0.11l1.1,0.11
		c0.22,0.06,0.49,0.22,0.66,0.44l0.38,0.5l8.07,23.56l0.33,0.71c0.05,0.11,0.16,0.22,0.33,0.22l0.28-0.22l0.33-0.66l7.14-17.57
		l7.25,17.57l0.38,0.66l0.27,0.22l0.27-0.22l0.33-0.71l4.56-13.95c1.32-4.28,2.25-7.14,2.8-8.51l0.6-1.15l0.44-0.44
		c0.17-0.22,0.39-0.38,0.6-0.44l1.1-0.11l0.33-0.11l0.05-0.22L182.6,93.77L182.6,93.77z"/>
	<path fill-rule="evenodd" fill="#26406A" d="M25.33,93.61c-0.11,0-0.22,0.05-0.33,0.16l-0.05,0.22L25,94.21l0.33,0.11l1.1,0.11
		c0.22,0.06,0.49,0.22,0.66,0.44l0.38,0.5l0.6,1.32l7.8,22.95l0.33,0.22l0.27-0.22l7.47-18.23l7.25,17.57l0.38,0.66l0.27,0.22
		l0.33-0.22l0.27-0.71l4.56-13.95c1.32-4.28,2.25-7.14,2.85-8.51c0.22-0.5,0.39-0.93,0.55-1.15l0.44-0.44
		c0.11-0.22,0.38-0.38,0.66-0.44l1.1-0.11l0.27-0.11L63,93.99l-0.11-0.22l-0.27-0.16h-8.35c-0.11,0-0.22,0.05-0.33,0.16l-0.11,0.22
		l0.11,0.22l0.33,0.11c0.6,0,1.04,0.11,1.26,0.39c0.16,0.22,0.16,0.77,0,1.54l-4.01,13.84l-6.97-15.65l-0.38-0.38
		c-0.16-0.06-0.33,0.06-0.44,0.33l-7.08,15.6l-4.06-13.9c-0.16-0.66-0.16-1.1,0-1.37c0.17-0.27,0.6-0.39,1.26-0.39l0.33-0.11
		l0.05-0.22l-0.05-0.22c-0.06-0.11-0.17-0.16-0.33-0.16H25.33L25.33,93.61z"/>
	<path fill-rule="evenodd" fill="#26406A" d="M140.21,93.83c-0.11-0.05-0.22-0.17-0.44-0.22l-6.31-0.61c-2.31,0-4.39,0.39-6.37,1.05
		c-2.25,0.82-4.06,1.92-5.54,3.46c-1.1,1.15-1.98,2.42-2.58,3.96c-0.66,1.59-0.93,3.24-0.93,5c0,1.81,0.27,3.57,0.99,5.22
		c0.55,1.48,1.37,2.75,2.36,3.74c2.96,2.96,7.03,4.45,12.24,4.45l3.24-0.22l4.61-0.77l0.44-0.11l0.05-0.27v-11.64l-0.11-0.49
		l-0.44-0.16h-5.98c-0.11,0-0.22,0.05-0.27,0.11l-0.11,0.27l0.11,0.22l0.27,0.11l1.21,0.06c0.33,0.11,0.61,0.28,0.77,0.44l0.44,0.82
		l0.05,8.24l-2.03,0.55l-2.75,0.27c-2.86,0-5.27-0.94-7.14-2.8c-1.15-1.15-2.03-2.47-2.58-3.95c-0.5-1.32-0.77-2.86-0.77-4.56
		c0-1.48,0.27-2.86,0.77-4.12c0.49-1.37,1.2-2.47,2.2-3.46c0.88-0.93,2.03-1.59,3.35-2.09c1.32-0.49,2.75-0.71,4.34-0.71
		c2.47,0,4.23,0.49,5.38,1.6c0.55,0.49,0.82,1.04,0.93,1.7c0.05,0.17,0.11,0.28,0.27,0.28l0.33-0.11l0.11-0.27v-4.45L140.21,93.83
		L140.21,93.83z"/>
	<path fill-rule="evenodd" fill="#26406A" d="M82.17,93.77l-0.55-0.16H65.2l-0.27,0.16l-0.11,0.22l0.11,0.22l0.27,0.11l1.21,0.11
		c0.33,0.06,0.55,0.22,0.77,0.44c0.22,0.17,0.38,0.44,0.38,0.77v21.58c0,0.33-0.16,0.6-0.38,0.82c-0.22,0.22-0.44,0.33-0.77,0.44
		l-1.21,0.11l-0.27,0.11l-0.11,0.22l0.11,0.22l0.27,0.11h17.74l0.44-0.11l0.17-0.6l0.05-3.62c0-0.22-0.05-0.33-0.22-0.38
		c-0.22-0.06-0.33,0.05-0.38,0.22l-0.11,0.44l-0.33,0.55c-0.27,0.33-0.77,0.55-1.37,0.71l-9.33,0.22v-9.5h5
		c1.32,0,2.14,0.17,2.47,0.5l0.22,0.49l0.05,0.33c0.06,0.17,0.22,0.27,0.38,0.22c0.16-0.05,0.22-0.16,0.22-0.33v-4.88l-0.16-0.33
		c-0.22-0.05-0.33,0-0.39,0.16l-0.06,0.17l-0.05,0.22l-0.22,0.44c-0.33,0.33-1.15,0.49-2.47,0.49h-5v-8.46l8.13,0.22
		c0.61,0.16,1.04,0.38,1.37,0.71l0.33,0.49L81.78,98c0.05,0.17,0.22,0.28,0.38,0.22c0.17-0.05,0.22-0.16,0.22-0.38l-0.05-3.51
		L82.17,93.77L82.17,93.77z"/>
	<path fill-rule="evenodd" fill="#26406A" d="M112.86,105.58c0-1.48-0.27-2.97-0.88-4.45c-0.6-1.48-1.43-2.8-2.47-3.79
		c-1.21-1.26-2.69-2.19-4.45-2.74c-1.81-0.66-3.95-0.99-6.42-0.99H88.37c-0.11,0-0.22,0.05-0.27,0.16
		c-0.11,0.05-0.11,0.11-0.11,0.22l0.11,0.22l0.27,0.11l1.21,0.11l0.77,0.44l0.44,0.77v21.58l-0.44,0.82l-0.77,0.44l-1.21,0.11
		c-0.11,0-0.22,0.05-0.27,0.11c-0.11,0.06-0.11,0.11-0.11,0.22l0.11,0.22l0.27,0.11h8.62c2.86,0,5.16-0.27,6.97-0.82
		c1.7-0.55,3.29-1.37,4.67-2.64C111.49,113.32,112.86,109.92,112.86,105.58L112.86,105.58z M102.7,96.74
		c1.1,0.38,2.09,1.04,2.91,1.81c1.92,1.87,2.86,4.45,2.86,7.85c0,1.16-0.16,2.31-0.44,3.4c-0.33,1.32-0.88,2.47-1.59,3.41
		c-1.81,2.36-4.67,3.57-8.46,3.57h-2.14l-0.82-0.17V96.41l3.41-0.33C100.12,96.08,101.55,96.3,102.7,96.74L102.7,96.74z"/>
</g>
</svg>
