<?xml version="1.0" encoding="utf-8"?>
<!-- Generator: Adobe Illustrator 19.2.0, SVG Export Plug-In . SVG Version: 6.00 Build 0)  -->
<svg version="1.1" id="Layer_1" xmlns="http://www.w3.org/2000/svg" xmlns:xlink="http://www.w3.org/1999/xlink" x="0px" y="0px"
	 viewBox="0 0 300 180" enable-background="new 0 0 300 180" xml:space="preserve">
<g>
	<g>
		<g>
			<g>
				<path fill="#2B2C2D" d="M283.8,105.2c0-0.3,0.1-0.5,0.2-0.8c0.1-0.2,0.2-0.4,0.4-0.6c0.2-0.2,0.4-0.3,0.6-0.4
					c0.2-0.1,0.5-0.2,0.7-0.2c0.3,0,0.5,0.1,0.7,0.2c0.2,0.1,0.4,0.2,0.6,0.4c0.2,0.2,0.3,0.4,0.4,0.6c0.1,0.2,0.2,0.5,0.2,0.8
					s-0.1,0.5-0.2,0.8c-0.1,0.2-0.2,0.4-0.4,0.6c-0.2,0.2-0.4,0.3-0.6,0.4c-0.2,0.1-0.5,0.2-0.7,0.2c-0.3,0-0.5-0.1-0.7-0.2
					c-0.2-0.1-0.4-0.2-0.6-0.4c-0.2-0.2-0.3-0.4-0.4-0.6C283.9,105.7,283.8,105.5,283.8,105.2z M284.2,105.2c0,0.2,0,0.5,0.1,0.6
					c0.1,0.2,0.2,0.4,0.3,0.5c0.2,0.2,0.3,0.3,0.5,0.3c0.2,0.1,0.4,0.1,0.6,0.1s0.4,0,0.6-0.1c0.2-0.1,0.4-0.2,0.5-0.3
					c0.2-0.2,0.2-0.3,0.3-0.5c0.1-0.2,0.1-0.4,0.1-0.6c0-0.2,0-0.5-0.1-0.6c-0.1-0.2-0.2-0.4-0.3-0.5c-0.2-0.2-0.3-0.3-0.5-0.3
					c-0.2-0.1-0.4-0.1-0.6-0.1s-0.4,0-0.6,0.1c-0.2,0.1-0.4,0.2-0.5,0.3c-0.2,0.2-0.2,0.3-0.3,0.5
					C284.2,104.7,284.2,105,284.2,105.2z M285,104.1h0.9c0.5,0,0.8,0.2,0.8,0.6c0,0.2-0.1,0.3-0.2,0.4s-0.2,0.2-0.4,0.2l0.6,1h-0.4
					l-0.6-1h-0.4v1H285L285,104.1z M285.4,105.1h0.3c0.1,0,0.2,0,0.2,0s0.1,0,0.2,0c0.1,0,0.1-0.1,0.1-0.1c0-0.1,0.1-0.1,0.1-0.2
					c0-0.1,0-0.1,0-0.2c0-0.1-0.1-0.1-0.1-0.1c-0.1,0-0.1,0-0.2-0.1c-0.1,0-0.1,0-0.2,0h-0.5L285.4,105.1z"/>
			</g>
		</g>
	</g>
	<g>
		<g>
			<path fill="#C3153A" d="M250.2,15.7l-3.1,11.5l-1.9,0l-3.3,19.9l4.5,0.9l1.4,3.4l-2.2,2.2l-3.4,0l-2.6,6.9l-5.1,30.9l-29.9,12.1
				l-33.8-18.9l-1.6-13.7l-8.1-0.2l-1.1-16.3l-0.4-5.4l7.1-2.2l-3-13.8l-1-4.6l-2.8-12.8l5.6,0.9l17.5,0l44.8-12.2
				c-8.5-2.9-17.6-4.3-27.1-4.2C156.6,0.9,121,36.9,121,81.3c0,1.9,0.1,3.8,0.2,5.6c0.1,1.1,1.3,1.8,2.3,1.2c11.6-7,23-9.7,34-8.1
				h0.1c3.8,0.6,6.8,3.6,7.4,7.2c1.4,9.8-5.4,14.7-10.9,18.8c-0.2,0.2-0.5,0.3-0.7,0.5c-0.2,0.2-0.2,0.5,0,0.7
				c1.1,0.8,3.9,2.7,4.7,3.8c0.3,0.5,1,0.4,1.2-0.1c0,0,0.1-0.4,0.5-1c2.3-3.2,6.6-4,10.4-2h0c0.4,0.2,0.7,0.5,1,0.7
				c0.2,0.2,0.6,0.2,0.8,0.1c6.2-3.8,8.7-4.2,14.7-4.3c3.7-0.2,5.8,1.9,6.2,4.2c0.1,0.4,0.6,0.6,0.9,0.3c4-3.4,8.2-1.4,9.2-0.8
				c0.1,0.1,0.2,0.2,0.4,0.2c1.5,1.2,3,3.1,3.4,5.2c0.1,0.5,0.8,0.7,1.1,0.3c2-2.1,4.1-4.3,6.3-6.9c1.8-2,4.5-2.9,7.1-2.4
				c2.7,0.6,4.7,2.4,5.6,4.9v0c0.3,0.8,0.4,1.6,0.4,2.6l0,0c0,0-0.6,3.9,2.1,0.8l0.8-0.9c4.8-5.6,10.5-10,15-11.5l0.4-0.1l0,0l0.4,0
				c4.9-0.4,8.8,3.6,9.5,7.6l0.1,0.6l0,0l-0.1,0.6l0,0c0,0-0.2,4.3,5.3-0.6l0,0c4.3-4,12.6-10.2,19.1-7.4l0,0c0.5,0.2,1-0.1,1.1-0.6
				c1.5-6.1,2.3-12.5,2.3-19C283.5,54.5,270.4,30.6,250.2,15.7z"/>
			<g>
				<g>
					<defs>
						<path id="SVGID_1_" d="M250.2,15.7l-3.1,11.5l-1.9,0l-3.3,19.9l4.5,0.9l1.4,3.4l-2.2,2.2l-3.4,0l-2.6,6.9l-5.1,30.9
							l-29.9,12.1l-33.8-18.9l-1.6-13.7l-8.1-0.2l-1.1-16.3l-0.4-5.4l7.1-2.2l-3-13.8l-1-4.6l-2.8-12.8l5.6,0.9l17.5,0l44.8-12.2
							c-8.5-2.9-17.6-4.3-27.1-4.2C156.6,0.9,121,36.9,121,81.3c0,1.9,0.1,3.8,0.2,5.6c0.1,1.1,1.3,1.8,2.3,1.2
							c11.6-7,23-9.7,34-8.1h0.1c3.8,0.6,6.8,3.6,7.4,7.2c1.4,9.8-5.4,14.7-10.9,18.8c-0.2,0.2-0.5,0.3-0.7,0.5
							c-0.2,0.2-0.2,0.5,0,0.7c1.1,0.8,3.9,2.7,4.7,3.8c0.3,0.5,1,0.4,1.2-0.1c0,0,0.1-0.4,0.5-1c2.3-3.2,6.6-4,10.4-2h0
							c0.4,0.2,0.7,0.5,1,0.7c0.2,0.2,0.6,0.2,0.8,0.1c6.2-3.8,8.7-4.2,14.7-4.3c3.7-0.2,5.8,1.9,6.2,4.2c0.1,0.4,0.6,0.6,0.9,0.3
							c4-3.4,8.2-1.4,9.2-0.8c0.1,0.1,0.2,0.2,0.4,0.2c1.5,1.2,3,3.1,3.4,5.2c0.1,0.5,0.8,0.7,1.1,0.3c2-2.1,4.1-4.3,6.3-6.9
							c1.8-2,4.5-2.9,7.1-2.4c2.7,0.6,4.7,2.4,5.6,4.9v0c0.3,0.8,0.4,1.6,0.4,2.6l0,0c0,0-0.6,3.9,2.1,0.8l0.8-0.9
							c4.8-5.6,10.5-10,15-11.5l0.4-0.1l0,0l0.4,0c4.9-0.4,8.8,3.6,9.5,7.6l0.1,0.6l0,0l-0.1,0.6l0,0c0,0-0.2,4.3,5.3-0.6l0,0
							c4.3-4,12.6-10.2,19.1-7.4l0,0c0.5,0.2,1-0.1,1.1-0.6c1.5-6.1,2.3-12.5,2.3-19C283.5,54.5,270.4,30.6,250.2,15.7z"/>
					</defs>
					<clipPath id="SVGID_2_">
						<use xlink:href="#SVGID_1_"  overflow="visible"/>
					</clipPath>
					<g clip-path="url(#SVGID_2_)">
						<polygon opacity="0.1" fill="#FFFFFF" enable-background="new    " points="204.6,103.4 195.9,111 152.1,115.5 150.6,107.4 
													"/>
						<polygon opacity="0.1" fill="#20201E" enable-background="new    " points="204.6,103.4 150.6,107.4 152.2,97 						"/>
						<polygon opacity="0.1" fill="#FFFFFF" enable-background="new    " points="204.6,103.4 108.6,91.7 110.8,73.2 						"/>
						<polygon opacity="0.1" fill="#20201E" enable-background="new    " points="204.6,103.4 110.8,73.2 114.3,52.7 						"/>
						<polygon opacity="0.1" fill="#FFFFFF" enable-background="new    " points="204.6,103.4 114.3,52.7 127.9,26.4 						"/>
						<polygon opacity="0.1" fill="#20201E" enable-background="new    " points="204.6,103.4 127.9,26.4 153,6.6 						"/>
						<polygon opacity="0.1" fill="#FFFFFF" enable-background="new    " points="204.6,103.4 153,6.6 181.5,-4.2 						"/>
						<polygon opacity="0.1" fill="#20201E" enable-background="new    " points="204.6,103.4 181.5,-4.2 210.4,-5.9 						"/>
						<polygon opacity="0.1" fill="#FFFFFF" enable-background="new    " points="204.6,103.4 210.4,-5.9 232.8,-5 						"/>
						<polygon opacity="0.1" fill="#20201E" enable-background="new    " points="204.6,103.4 195.9,111 205.1,123 						"/>
						<polygon opacity="0.1" fill="#FFFFFF" enable-background="new    " points="204.6,103.4 205.1,123 220,129.2 						"/>
						<polygon opacity="0.1" fill="#20201E" enable-background="new    " points="204.6,103.4 220,129.2 248.5,130.3 						"/>
						<polygon opacity="0.1" fill="#FFFFFF" enable-background="new    " points="204.6,103.4 248.5,130.3 287.7,118.7 						"/>
						<polygon opacity="0.1" fill="#20201E" enable-background="new    " points="204.6,103.4 287.7,118.7 300,93.3 						"/>
						<polygon opacity="0.1" fill="#FFFFFF" enable-background="new    " points="204.6,103.4 295.4,66.5 300,93.3 						"/>
						<polygon opacity="0.1" fill="#20201E" enable-background="new    " points="204.6,103.4 295.4,66.5 294.8,45.5 						"/>
						<polygon opacity="0.1" fill="#FFFFFF" enable-background="new    " points="204.6,103.4 294.8,45.5 277.9,21.1 						"/>
						<polygon opacity="0.1" fill="#20201E" enable-background="new    " points="204.6,103.4 277.9,21.1 252.6,4.1 						"/>
					</g>
				</g>
			</g>
			<polygon fill="#BB9B69" points="168.1,22.6 170,50.4 162.2,51.4 163.4,67.8 171.3,68.1 173.1,82.7 204.4,100.2 231.5,89.3 
				242.5,23.2 			"/>
			<polygon fill="#2B2C2D" points="205.4,47.1 205.1,59.9 211.3,44.6 			"/>
			<polygon fill="#2B2C2D" points="239.8,50.4 235.4,62.5 235.8,49.7 			"/>
			<polygon fill="#2B2C2D" points="175.2,47.3 178.5,59.9 179.2,46.9 			"/>
			<polygon fill="#2B2C2D" points="217.2,48.3 214.9,61 211.4,44.4 			"/>
			<polygon fill="#2B2C2D" points="202.7,37 183.1,41.3 203.2,43.3 			"/>
			<polygon fill="#2B2C2D" points="249.4,1.3 168,23.3 243.5,24.3 			"/>
			<polygon fill="#2B2C2D" points="163.9,19.3 195.6,19.2 165.3,29.3 			"/>
			<polygon fill="#2B2C2D" points="183.2,22.2 171.5,57.3 163.2,19 			"/>
			<polygon fill="#2B2C2D" points="213,83.4 193.2,80.4 211.5,87.2 			"/>
			<polygon fill="#2B2C2D" points="218.6,39.1 232.1,45.5 217.3,44 			"/>
			<polygon fill="#2B2C2D" points="214.2,73.2 205,73.1 213.7,70.2 			"/>
			<polygon fill="#2B2C2D" points="209.6,48.9 173.6,48.4 170.1,47.5 211.4,44.3 			"/>
			<polygon fill="#2B2C2D" points="213,49.1 245.1,50.8 244.9,50.7 211.4,44.3 			"/>
			<polygon fill="#2B2C2D" points="199,54.8 193.6,52.6 199.2,52.1 			"/>
			<polygon fill="#2B2C2D" points="226,57.5 220.6,55.3 226.2,54.8 			"/>
			<polygon fill="#2B2C2D" points="205.1,59.9 178.5,59.9 205.1,58.9 			"/>
			<polygon fill="#2B2C2D" points="215,60.2 235.4,62.5 214.9,61 			"/>
		</g>
		<g>
			<g>
				<path fill="#2B2C2D" d="M95.7,137.9c1.1-1.7,3.7-2.6,5-1.2c1.1,1.1,0.8,3.1-0.2,4.2c-1.3,1.4-4.2,2.1-5.2,0.2
					C94.7,140,95,139,95.7,137.9z"/>
				<path fill="#2B2C2D" d="M146.2,108.3c2.3,0.2,9.3,1.5,9.6,5.6c0.7,11.9-12.3,17.8-21.1,22.4c-3.9,2-7,3.4-10.1,3.3
					c-2,4.1-7.7,3.2-7.6,1.4c0.6-10,4.2-20,8.1-29.1c1.7-3.9,4.1-8.9,4.9-13c-3.4,1.1-6.5,5.9-7.6,6.2c-1,0.2-2.8-0.6-3.9-1.7
					c-2.1-2.1-2.9-5.1-0.6-7.7c11-8.3,24.6-14.8,39.3-12.7c2.5,0.4,4.5,2.4,4.8,4.6C163.4,98.6,152.6,101.8,146.2,108.3z
					 M131.5,118.9c-1.1,2.2-2.8,6.3-3.5,9.3c5.2-2.5,11-6.1,15.1-10C139.6,117.5,135.9,117.6,131.5,118.9z M139.8,94.2
					c0.6,0.6,1.6,3.1,0.9,6c3-1.9,7.4-5.6,9.9-8.3C147.6,91.8,144,92.2,139.8,94.2z"/>
				<path fill="#2B2C2D" d="M211.6,133.2c0.3,1.6,3,1.4,5.4,0.8c1-0.3,2.1,0.5,2.1,1.6c0.1,3.9-2.5,6.3-4.5,6.6
					c-5.7,1.2-9.1-2.5-10.6-6.4c0-0.1-0.1-0.2-0.1-0.3c-0.4-1.2-1.9-1.5-2.8-0.6c-3.1,3.4-7.8,7.8-10.5,7.7c-3.6,0-5.6-3-6-6.4
					c-1.2-9.9,5.9-17.7,11.3-25.3c0.8-1,3.6-1.7,5.6-0.4c1.5,1.1,2.6,3,2.5,4.4c-1.8,3-5.9,8.4-7.9,12c-0.4,0.6,0.1,1.5,0.6,1
					c6.9-4.8,14.1-12.3,20-19.1c2.2-2.5,6.4-1.7,7.4,1.4c0,0,0,0.1,0,0.1c0.2,0.5,0.2,1,0.2,1.6c0,1-0.4,1.9-1,2.7
					C218.8,120.4,211.1,127.2,211.6,133.2z"/>
				<path fill="#2B2C2D" d="M246.4,121.9c-0.9,0.6-2.5,0.1-3.7-0.8c-1.1-0.8-1.5-2.2-1-3.5c0,0,0,0,0-0.1c0.2-0.6-0.6-1.2-1-0.7
					c-5.3,5.2-11.3,13.4-11.3,17.5c0,1.6,5.7,0.2,9.3-1.3c2.9-1.1,6.2-4.3,7.5-2.5c1.3,1.6,0.2,4.3-1,5.5c-5.2,4.4-9.7,7.5-16.1,6.3
					c-3.4-0.6-5.6-3-6.5-5.9c-2.5-8.6,4.4-15.9,10.1-22.5c4.4-5.2,9.7-9.3,13.7-10.6c3.2-0.2,5.7,2.5,6.2,5.1
					C251.7,113.3,249.7,118.6,246.4,121.9z"/>
				<path fill="#2B2C2D" d="M272.9,126c-3.4,2.1-6.6,3.4-9.5,2.9c-0.5-0.1-1-0.2-1.4-0.3c-1.8-0.6-3.7,0.5-4.1,2.3
					c-0.1,0.2-0.1,0.4-0.1,0.6c-0.2,1.3,0.3,2.6,1.4,3.3c0.9,0.6,1.9,1,3.2,1c6.8,0,9.8-5.6,13.5-5c2,0.3,1.3,3,0.6,4.3
					c-2.4,3.9-7.5,7-12.1,7.5c-5.2,0.6-10.5-1.2-12.6-5.6c-4.8-10.1,3.2-18.6,11.4-26.3c5.1-4.7,11.5-8.7,15.8-6.8
					c2.6,1,3.9,2.9,4.5,5.2C284.3,116.4,279.3,122,272.9,126z M265.7,120c-0.3,0.4,0.1,1,0.6,0.8c1.4-0.6,3.2-1.6,4.6-3
					c1.4-1.4,2.7-3,3.4-4.3c0.3-0.5-0.3-1-0.8-0.7C271.5,114.3,268,117,265.7,120z"/>
				<g>
					<g>
						<path fill="#2B2C2D" d="M105.3,114c-9.3,8-12.9,2.1-19.6,13.2c-2,4-3.7,8.4-4.7,12.6c-0.4,1.6-1.6,2.8-3,2.8
							c-1.3,0-2.5-0.2-3.6-0.7c-7.6-3.3-3.4-11.8-0.9-18.5c1.8-4.7,4.8-11.8,4.8-11.8c1.5-2.1,4.2-2.3,6.5-1.1
							c0.9,0.5,1.6,1.7,1.9,2.7c8.4-5.4,10-5.7,16.2-5.8c1.8-0.1,3,0.6,3.1,1.8C106.5,110.3,106.4,112.8,105.3,114z"/>
					</g>
				</g>
				<g>
					<g>
						<path fill="#2B2C2D" d="M187.3,115.5c-8.5,4.9-11.4,1.3-17.6,11.7c-2,4-3.7,8.4-4.7,12.6c-0.4,1.6-1.6,2.8-3,2.8
							c-1.3,0-2.5-0.2-3.6-0.7c-7.6-3.3-3.4-11.8-0.9-18.5c1.8-4.7,4.8-11.8,4.8-11.8c1.5-2.1,4.2-2.3,6.5-1.1
							c0.6,0.3,1.2,1,1.5,1.8c0.2,0.5,0.8,0.6,1.2,0.3c7.6-4.9,9.4-5.2,15.4-5.2c1.8-0.1,3,0.6,3.1,1.8c0.1,0.4,0.2,0.9,0.2,1.5
							C190.2,112.7,189,114.5,187.3,115.5z"/>
					</g>
				</g>
				<g>
					<path fill="#2B2C2D" d="M32.7,142.6c-2.2-0.2-4.4-0.2-6.4-0.6c-3.1-0.7-5-3.9-4.1-7c3.8-13.9,8.3-28.5,17-40.4
						c-6.3-0.2-12.4,1.2-16.7,3.6c-2.5,1.4-5.5,1.5-7.9,0.1c-1.4-0.8-2.4-2-2.9-3.5c-0.4-4.8,12.9-9.2,23.1-10.5
						c14.7-2,27.6,2,35.1,11c4.5,5.5,6.5,11.8,3.7,18.5C66.8,125,52.2,134.9,39,141.3C37.1,142.2,34.9,142.7,32.7,142.6z M52.9,95.4
						c-6.7,10.9-16,24.4-17.1,35.9c11.7-7.4,27.5-17.8,27.6-28C63.5,100.3,58,95,52.9,95.4z"/>
				</g>
			</g>
			<g>
				<path fill="#2B2C2D" d="M98.5,151.8c0,0.2-0.2,0.4-0.6,0.4c-0.2,1.7-0.4,3.2-0.9,4.4c1.7,1,3.8,2.3,4.9,3.1l-1.3,1.4
					c-1-0.8-2.8-2-4.4-3c-1.1,1.5-2.9,2.7-5.9,3.4c-0.2-0.5-0.6-1.2-1-1.5c5.4-1.3,6.5-3.5,6.8-8.4L98.5,151.8z M94,153.5
					c-0.5,1.4-1.3,3-2.7,3.9l-1.3-0.9c1.2-0.8,2.1-2.2,2.6-3.5L94,153.5z M115.2,161.6c-1.4-1-3.8-2.5-5.9-3.6
					c-1.1,1.4-2.8,2.6-5.7,3.3c-0.2-0.5-0.7-1.2-1.1-1.5c5.3-1.2,6.4-3.5,6.7-8.1l2.4,0.2c0,0.2-0.2,0.4-0.6,0.4
					c-0.2,1.6-0.4,3.1-0.9,4.3c2.3,1.1,5,2.7,6.5,3.8l-1.2,1.4h0.8v5.6h-2v-3.9H92.5v3.9h-2v-5.6L115.2,161.6L115.2,161.6z
					 M111.8,170.9h-7.5c-0.2,0.6-0.5,1.3-0.8,2h10.8v7h-2V179H95v0.9h-1.9v-7.1h8.5c0.2-0.6,0.4-1.3,0.6-2h-7v-5.6h16.6L111.8,170.9
					L111.8,170.9z M112.3,177.5v-3H95v3H112.3z M97.1,166.8v2.6h12.6v-2.6H97.1z M98.8,156.3c0.8-0.9,1.8-2.2,2.3-3.2l1.9,0.9
					c-0.1,0.2-0.3,0.2-0.6,0.2c-0.6,0.8-1.7,1.9-2.5,2.7L98.8,156.3z M107,153.6c-0.6,1.4-1.4,2.9-2.7,3.8l-1.4-0.9
					c1.2-0.8,2.1-2.2,2.6-3.5L107,153.6z M112.1,156.3c0.9-0.9,2-2.3,2.6-3.3l2,1c-0.1,0.2-0.3,0.2-0.6,0.2c-0.7,0.8-1.9,2-2.8,2.8
					L112.1,156.3z"/>
				<path fill="#2B2C2D" d="M150.8,174.1h-6.5c1,0.8,2.2,1.5,3.6,2.1c1.7-0.7,3.8-1.8,5-2.7l1.8,1.2c-0.1,0.2-0.3,0.2-0.6,0.2
					c-1.1,0.6-2.8,1.4-4.3,2c2.1,0.7,4.5,1.1,7,1.4c-0.4,0.4-0.9,1.2-1.2,1.7c-3.4-0.4-6.5-1.3-9.1-2.5l-0.1,1.1
					c-5,0.4-10.4,0.8-13.8,1c0,0.2-0.2,0.4-0.4,0.4l-0.8-2.2c1.1-0.1,2.4-0.1,3.8-0.2v-10c-1.7,1.3-3.5,2.3-5.4,3.1
					c-0.3-0.4-0.9-1.1-1.3-1.4c3-1.2,6.1-3.1,8.1-5.5h-7.6v-1.6H142v-1.9h-8.9v-1.6h8.9v-1.9h-10.7v-1.6h6.1
					c-0.5-0.9-1.2-1.9-1.9-2.7l1.8-0.7c1,1,1.9,2.4,2.3,3.3l-0.2,0.1h7.4l-0.1,0c0.7-1,1.6-2.4,2.1-3.4l2.4,0.8
					c-0.1,0.2-0.3,0.2-0.6,0.2c-0.5,0.7-1.1,1.6-1.7,2.4h6.1v1.6h-10.8v1.9h9v1.6h-9v1.9h12.8v1.6h-7.7c2,2.2,5.1,4.1,8.2,4.9
					c-0.4,0.4-1,1.1-1.3,1.6c-1.8-0.6-3.7-1.6-5.3-2.8L150.8,174.1L150.8,174.1z M149.4,166.3c-0.9-0.8-1.7-1.7-2.3-2.6h-7.6
					c-0.7,0.9-1.5,1.8-2.4,2.6h5.1v-1.9l2.6,0.2c0,0.2-0.2,0.4-0.6,0.4v1.3L149.4,166.3L149.4,166.3z M137.5,167.8v1.8h11.3v-1.8
					H137.5z M137.5,172.7h11.3v-1.8h-11.3V172.7z M137.5,174.1v3.3c2.6-0.2,5.4-0.3,8.3-0.5c-1.4-0.8-2.7-1.8-3.6-2.9H137.5z"/>
				<path fill="#2B2C2D" d="M196.9,171.2v1.7h-7.5v4.7c0,1.1-0.2,1.7-1.2,2c-1,0.3-2.5,0.3-5,0.3c-0.1-0.6-0.4-1.3-0.6-1.8
					c1.9,0.1,3.7,0.1,4.2,0.1c0.5,0,0.6-0.2,0.6-0.6V173h-18.5v-1.7h18.5v-2l2.6,0.1c-0.1,0.2-0.2,0.3-0.6,0.4v1.4L196.9,171.2
					L196.9,171.2z M181.8,157.6v-1.9h-12.6v-1.7h12.6v-2.4l2.6,0.2c0,0.2-0.2,0.4-0.6,0.4v1.8h12.8v1.7h-12.8v1.9h9.2v8.4h-3.2
					c2.2,0.9,4.6,2.1,5.9,3.1l-1.2,1.2c-0.5-0.4-1.1-0.8-1.9-1.3c-7.8,0.2-16.3,0.5-21.4,0.5c-0.1,0.2-0.2,0.4-0.5,0.4l-0.6-2
					c3,0,7.2,0,11.7-0.1v-1.8h-9v-8.4H181.8z M179,178.4c-1.1-1.2-3.3-2.9-5.2-4.1l1.4-1.2c1.9,1.1,4.2,2.7,5.2,3.9L179,178.4z
					 M174.8,159.1v2h7v-2H174.8z M174.8,164.5h7v-2.1h-7V164.5z M191,159.1h-7.2v2h7.2V159.1z M191,164.5v-2.1h-7.2v2.1H191z
					 M183.8,166v1.8l6.3-0.1c-0.9-0.4-1.7-0.7-2.6-1l0.7-0.7L183.8,166L183.8,166z"/>
				<path fill="#2B2C2D" d="M224.8,162c0.6,2,1.4,3.9,2.5,5.7c2-1.3,4.4-3,5.9-4.3l1.9,1.7c-0.1,0.1-0.4,0.2-0.6,0.1
					c-1.5,1.2-4.1,2.8-6.1,4c2.2,3,5.1,5.3,8.7,6.5c-0.5,0.4-1,1.2-1.4,1.7c-6.3-2.3-10.3-7.9-12.5-14.9c-1,0.7-2.1,1.4-3.4,2.1
					c4.2,3,6,6.9,6,10c0,3.3-2.1,5.3-5.2,5.3c-0.8,0-1.7,0-2.7-0.1c0-0.5-0.2-1.4-0.6-1.9c1.1,0.1,2.2,0.1,2.9,0.1
					c0.9,0,1.6-0.1,2.3-0.6c0.9-0.6,1.4-1.7,1.4-3.1c0-0.9-0.2-1.8-0.6-2.8c-3.4,2.9-8.6,5.8-13,7.2c-0.2-0.5-0.7-1.3-1.1-1.7
					c4.6-1.3,10.2-4.2,13.3-7.2c-0.4-0.6-0.9-1.3-1.4-1.9c-2.6,1.9-6.8,4.1-9.9,5.2c-0.2-0.5-0.7-1.2-1.1-1.6c3.2-1,7.4-2.9,9.9-4.8
					c-0.5-0.5-1.1-1-1.7-1.4c-2.3,1.1-4.8,1.9-7.1,2.6c-0.2-0.4-0.7-1.2-1-1.5c3.8-1,8-2.6,11-4.6h-7.2v-1.8h17.5v1.8L224.8,162
					L224.8,162z M211.9,157.1v4.1h-2v-6h11.6v-3.6l2.7,0.2c0,0.2-0.2,0.4-0.6,0.4v3h11.8v6h-2.1v-4.1L211.9,157.1L211.9,157.1z"/>
			</g>
		</g>
	</g>
</g>
</svg>
