<?xml version="1.0" encoding="utf-8"?>
<!-- Generator: Adobe Illustrator 19.2.0, SVG Export Plug-In . SVG Version: 6.00 Build 0)  -->
<svg version="1.1" baseProfile="tiny" id="Layer_1" xmlns="http://www.w3.org/2000/svg" xmlns:xlink="http://www.w3.org/1999/xlink"
	 x="0px" y="0px" viewBox="0 0 300 97.4" xml:space="preserve">
<path fill="#FFFFFF" d="M0,0v63.3c0,5.3,3.7,9,9,9h44.8V0H31.4v54.2h-8.9V0H0z"/>
<path fill="#FFFFFF" d="M60,9v15.2c0,5.8,1.1,8.9,6,12.3l19.5,13v4.8H60v18.1h39.1c5.2,0,8.9-3.7,8.9-9V46.9c0-5.8-1.1-9-6-12.3
	L82.5,21.5v-3.3h22l3.5-9.3V0H69C63.7,0,60,3.7,60,9z"/>
<path fill="#FFFFFF" d="M121.2,0l-10.1,63.3v9h22.4l1.4-14.6h9.8l1.3,14.6h22.5v-9L158.5,0C158.6,0,121.2,0,121.2,0z M136.6,39.6
	l2.1-21.5h2.5l2,21.5H136.6z"/>
<polygon fill="#FFFFFF" points="196.5,0 172.7,0 172.7,72.3 193.3,72.3 193.3,63.3 190.4,38.9 192.2,38.9 202.8,72.3 226.6,72.3 
	226.6,0 205.8,0 205.8,9 208.8,33.4 207,33.4 "/>
<path fill="#FFFFFF" d="M240.7,0l-10.1,63.3v9H253l1.4-14.6h9.8l1.3,14.6h22.5v-9L278,0C278.1,0,240.7,0,240.7,0z M256.1,39.6
	l2.1-21.5h2.5l2.1,21.5H256.1z"/>
<path fill="#FFFFFF" d="M295.3,12.4c0-0.1-0.1-0.2-0.1-0.2c-0.1-0.1-0.1-0.1-0.1-0.1c-0.4-0.7-0.7-1.2-1-1.7
	c-0.2-0.3-0.4-0.6-0.6-0.8c-0.2-0.2-0.5-0.4-0.9-0.5V8.9c1.6-0.3,2.4-1.2,2.4-2.5c0-0.9-0.3-1.5-0.8-1.9c-0.5-0.4-1.3-0.6-2.4-0.6
	h-4v9h2.2V9.4c0.1,0,0.2,0,0.3,0c0.3,0,0.6,0.2,0.9,0.5c0.3,0.4,0.8,1.2,1.4,2.4l0.3,0.7h2.6c0-0.1-0.1-0.2-0.1-0.3
	C295.4,12.6,295.3,12.5,295.3,12.4z M291,7.7h-1V5.5h1.1c0.5,0,1,0.1,1.2,0.3c0.3,0.2,0.4,0.5,0.4,0.8C292.8,7.3,292.2,7.7,291,7.7z
	"/>
<path fill="#FFFFFF" d="M295.8,1.1c-1.3-0.7-2.7-1.1-4.2-1.1c-1.5,0-2.9,0.4-4.2,1.1c-1.3,0.7-2.3,1.8-3.1,3.1
	c-0.7,1.3-1.1,2.7-1.1,4.2c0,1.5,0.4,2.9,1.1,4.2c0.7,1.3,1.8,2.3,3.1,3.1c1.3,0.7,2.7,1.1,4.2,1.1c1.5,0,2.9-0.4,4.2-1.1
	c1.3-0.7,2.3-1.8,3.1-3.1c0.7-1.3,1.1-2.7,1.1-4.2c0-1.5-0.4-2.9-1.1-4.2C298.1,2.9,297.1,1.9,295.8,1.1z M297.5,11.8
	c-0.6,1-1.4,1.9-2.5,2.5c-1.1,0.6-2.2,0.9-3.4,0.9c-0.6,0-1.2-0.1-1.7-0.2c-0.6-0.1-1.1-0.4-1.7-0.7c-1-0.6-1.9-1.4-2.5-2.5
	c-0.6-1-0.9-2.2-0.9-3.4s0.3-2.4,0.9-3.4c0.6-1,1.4-1.9,2.5-2.5c1-0.6,2.2-0.9,3.4-0.9c1.2,0,2.4,0.3,3.4,0.9
	c1.1,0.6,1.9,1.4,2.5,2.5c0.6,1.1,0.9,2.2,0.9,3.4C298.4,9.6,298.1,10.8,297.5,11.8z"/>
<polygon fill="#FFFFFF" points="109.1,83 106.9,83 108.5,97.4 111.6,97.4 112.4,89.8 113.3,97.4 116.3,97.4 117.9,83 115.9,83 
	114.7,94.5 113.6,83 111.4,83 110.3,94.4 "/>
<polygon fill="#FFFFFF" points="170.9,94.8 169.1,83 166.9,83 169.1,97.4 172.4,97.4 174.7,83 172.6,83 "/>
<rect x="163.5" y="83" fill="#FFFFFF" width="2.2" height="14.4"/>
<polygon fill="#FFFFFF" points="181.8,85.1 181.8,83 175.7,83 175.7,97.4 181.8,97.4 181.8,95.4 178,95.4 178,91.2 181,91.2 
	181,89.1 178,89.1 178,85.1 "/>
<polygon fill="#FFFFFF" points="156.6,83 156.6,97.4 162.6,97.4 162.6,95.4 158.8,95.4 158.8,83 "/>
<path fill="#FFFFFF" d="M145.1,86.5V94c0,2.3,1.2,3.6,3.4,3.6c2.2,0,3.4-1.3,3.4-3.6v-7.5c0-2.3-1.2-3.6-3.4-3.6
	C146.3,82.9,145.1,84.2,145.1,86.5z M149.7,86.4v7.8c0,1-0.4,1.4-1.2,1.4s-1.2-0.4-1.2-1.4v-7.8c0-1,0.4-1.4,1.2-1.4
	S149.7,85.3,149.7,86.4z"/>
<path fill="#FFFFFF" d="M131.3,97.4h2.3c-0.2-0.5-0.2-1.1-0.2-1.7v-2.2c0-1.5-0.4-2.6-1.5-3c1-0.5,1.5-1.4,1.5-2.9v-1.1
	c0-2.2-1-3.3-3.3-3.3h-3.4v14.4h2.2v-5.8h0.8c1,0,1.5,0.5,1.5,1.8v2.2C131.1,96.8,131.1,97,131.3,97.4z M131,88
	c0,1.1-0.5,1.5-1.4,1.5h-0.9v-4.4h1.1c0.8,0,1.1,0.4,1.1,1.5V88L131,88z"/>
<polygon fill="#FFFFFF" points="192.4,85.1 192.4,83 186.4,83 186.4,97.4 188.7,97.4 188.7,91.5 191.6,91.5 191.6,89.4 188.7,89.4 
	188.7,85.1 "/>
<polygon fill="#FFFFFF" points="125.1,85.1 125.1,83 119,83 119,97.4 125.1,97.4 125.1,95.4 121.3,95.4 121.3,91.2 124.3,91.2 
	124.3,89.1 121.3,89.1 121.3,85.1 "/>
<polygon fill="#FFFFFF" points="141.9,97.4 141.9,85.1 144.3,85.1 144.3,83 137.3,83 137.3,85.1 139.7,85.1 139.7,97.4 "/>
<polygon fill="#FFFFFF" points="72,83 72,97.4 74.2,97.4 74.2,91.3 76.8,91.3 76.8,97.4 79.1,97.4 79.1,83 76.8,83 76.8,89.2 
	74.2,89.2 74.2,83 "/>
<path fill="#FFFFFF" d="M106,94v-7.5c0-2.3-1.2-3.6-3.4-3.6s-3.4,1.3-3.4,3.6V94c0,2.3,1.2,3.6,3.4,3.6C104.8,97.6,106,96.3,106,94z
	 M101.4,94.1v-7.8c0-1,0.4-1.4,1.2-1.4s1.2,0.4,1.2,1.4v7.8c0,1-0.4,1.4-1.2,1.4C101.8,95.5,101.4,95.1,101.4,94.1z"/>
<path fill="#FFFFFF" d="M94.8,83h-3.3v14.4h2.2V92l1.1,0c2.2,0,3.4-1.2,3.4-3.5v-1.9C98.2,84.3,97.1,83,94.8,83z M95.9,88.6
	c0,1-0.4,1.4-1.1,1.4h-1.1v-4.9h1.1c0.7,0,1.1,0.3,1.1,1.4V88.6z"/>
<polygon fill="#FFFFFF" points="86.9,85.1 86.9,83 80.7,83 80.7,97.4 86.9,97.4 86.9,95.4 83,95.4 83,91.2 86.1,91.2 86.1,89.1 
	83,89.1 83,85.1 "/>
<polygon fill="#FFFFFF" points="68.6,97.4 68.6,85.1 71,85.1 71,83 64,83 64,85.1 66.4,85.1 66.4,97.4 "/>
<polygon fill="#FFFFFF" points="207.9,85.1 207.9,83 201.7,83 201.7,97.4 207.9,97.4 207.9,95.4 204,95.4 204,91.2 207.1,91.2 
	207.1,89.1 204,89.1 204,85.1 "/>
<path fill="#FFFFFF" d="M198.2,97.4h2.3c-0.2-0.5-0.2-1.1-0.2-1.7v-2.2c0-1.5-0.4-2.6-1.5-3c1-0.5,1.5-1.4,1.5-2.9v-1.1
	c0-2.2-1-3.3-3.3-3.3h-3.4v14.4h2.2v-5.8h0.8c1,0,1.5,0.5,1.5,1.8v2.2C198,96.8,198.1,97,198.2,97.4z M198,88c0,1.1-0.5,1.5-1.4,1.5
	h-0.9v-4.4h1.1c0.8,0,1.1,0.4,1.1,1.5V88L198,88z"/>
<path fill="#FFFFFF" d="M208.9,93.1V94c0,2.3,1.2,3.6,3.4,3.6c2.2,0,3.4-1.3,3.4-3.6c0-4.1-4.4-4.7-4.4-7.6c0-1,0.4-1.4,1.1-1.4
	s1.1,0.4,1.1,1.4v0.6h2.1v-0.4c0-2.3-1.1-3.6-3.3-3.6s-3.3,1.3-3.3,3.6c0,4.1,4.4,4.7,4.4,7.6c0,1-0.4,1.4-1.2,1.4s-1.2-0.4-1.2-1.4
	v-1L208.9,93.1L208.9,93.1z"/>
<polygon fill="#FFFFFF" points="224.1,97.4 224.1,83 221.8,83 221.8,89.2 219.2,89.2 219.2,83 217,83 217,97.4 219.2,97.4 
	219.2,91.3 221.8,91.3 221.8,97.4 "/>
</svg>
