<?xml version="1.0" encoding="utf-8"?>
<!-- Generator: Adobe Illustrator 19.2.0, SVG Export Plug-In . SVG Version: 6.00 Build 0)  -->
<svg version="1.1" baseProfile="tiny" id="Layer_1" xmlns="http://www.w3.org/2000/svg" xmlns:xlink="http://www.w3.org/1999/xlink"
	 x="0px" y="0px" viewBox="0 0 300 180" xml:space="preserve">
<g>
	<g>
		<path fill="#3C4132" d="M138.42,33.68c1.65-0.35,3.31-0.64,4.99-0.86c2.12-0.28,4.26-0.46,6.4-0.53c1.19-0.04,2.37-0.04,3.56-0.02
			l3.5-1.14c-0.05,0-0.09-0.01-0.13-0.01c-2.22-0.15-4.47-0.18-6.72-0.11c-2.24,0.08-4.49,0.27-6.73,0.56
			c-2.23,0.3-4.46,0.7-6.65,1.21c-0.53,0.12-1.06,0.25-1.59,0.39L138.42,33.68z"/>
		<path fill="#3C4132" d="M185.92,42.97c-1.29-1.37-2.78-2.66-4.45-3.84l-0.83,1.73c1.15,0.91,2.2,1.86,3.13,2.87
			c1.5,1.62,2.71,3.37,3.62,5.22c0.93,1.88,1.54,3.87,1.8,5.94c0.27,2.11,0.18,4.29-0.29,6.52c-0.13,0.62-0.29,1.24-0.48,1.85
			c-0.19,0.62-0.41,1.24-0.66,1.85c-0.19,0.47-0.4,0.94-0.63,1.41l1.77,2.3c0.23-0.41,0.45-0.81,0.65-1.22
			c0.32-0.65,0.61-1.31,0.87-1.97c0.26-0.66,0.48-1.32,0.68-1.98c0.19-0.66,0.36-1.31,0.49-1.97c0.48-2.37,0.54-4.69,0.23-6.92
			c-0.31-2.19-0.98-4.29-1.99-6.28C188.83,46.52,187.52,44.67,185.92,42.97z"/>
		<path fill="#3C4132" d="M173.02,81.03c-2.42,1.48-5,2.8-7.72,3.93c-3.38,1.4-6.94,2.5-10.6,3.3c-3.67,0.8-7.43,1.27-11.2,1.42
			c-3.75,0.15-7.49-0.04-11.14-0.57c-1.54-0.22-3.03-0.5-4.48-0.83c-1.44-0.33-2.83-0.72-4.18-1.16c-1.34-0.44-2.62-0.93-3.85-1.46
			c-0.21-0.09-0.4-0.19-0.6-0.28l-3.27,1.16c0.7,0.36,1.41,0.71,2.14,1.03c1.31,0.58,2.68,1.11,4.1,1.58
			c1.43,0.47,2.91,0.89,4.45,1.25c1.54,0.36,3.13,0.66,4.77,0.9c3.89,0.57,7.89,0.78,11.9,0.63c4.03-0.15,8.05-0.66,11.98-1.52
			c3.92-0.85,7.72-2.04,11.32-3.54c3.48-1.45,6.75-3.19,9.75-5.18L173.02,81.03z"/>
		<path fill="#3C4132" d="M103.59,75.21l1.73-2.52c-0.5-1.05-0.9-2.12-1.19-3.2c-0.49-1.82-0.7-3.67-0.63-5.53
			c0.07-1.83,0.41-3.67,1-5.5c0.59-1.8,1.42-3.59,2.5-5.35c0.46-0.74,0.95-1.48,1.49-2.19c0.53-0.71,1.1-1.41,1.7-2.09
			c0.6-0.68,1.23-1.34,1.9-1.99c0.12-0.12,0.25-0.24,0.38-0.36l-0.76-1.52c-0.5,0.43-0.98,0.87-1.45,1.32
			c-0.71,0.68-1.39,1.38-2.03,2.1c-0.64,0.72-1.25,1.46-1.81,2.21c-0.57,0.76-1.1,1.53-1.59,2.31c-1.16,1.86-2.07,3.75-2.71,5.65
			c-0.65,1.94-1.03,3.89-1.13,5.83c-0.1,1.98,0.09,3.95,0.59,5.88C102.01,71.93,102.69,73.59,103.59,75.21z"/>
	</g>
	<g>
		<g>
			<polygon fill="#4F5642" points="112.77,35.22 157.29,41.84 146.13,45.54 125.15,42.24 128.49,48.27 123.18,56.02 			"/>
			<polygon fill="#DB8F18" points="180.47,28.99 169.32,52.11 165.3,60.44 159.91,52.91 167.5,38.45 157.29,41.84 146.17,40.19 			
				"/>
			<polygon fill="#3C4131" points="128.49,48.27 132.35,55.24 121.55,71.96 133.49,67.8 145.94,70.27 102.93,85.54 			"/>
			<g>
				<polygon fill="#4F5642" points="169.32,52.11 190.06,79 133.49,67.8 146,63.44 170.75,68.06 165.3,60.44 				"/>
			</g>
		</g>
	</g>
</g>
<g>
	<g>
		<g>
			<path fill="#3C4131" d="M247.38,113.02c-0.4,0.39-0.88,0.58-1.44,0.58c-0.58,0-1.07-0.2-1.47-0.6c-0.4-0.4-0.6-0.89-0.6-1.47
				c0-0.6,0.21-1.1,0.64-1.5c0.4-0.37,0.88-0.56,1.42-0.56c0.57,0,1.06,0.2,1.46,0.6c0.4,0.4,0.6,0.89,0.6,1.46
				C248,112.13,247.79,112.62,247.38,113.02z M244.72,110.35c-0.33,0.34-0.49,0.73-0.49,1.2c0,0.48,0.17,0.88,0.5,1.22
				c0.33,0.33,0.73,0.5,1.2,0.5c0.47,0,0.87-0.17,1.2-0.5c0.33-0.34,0.5-0.74,0.5-1.21c0-0.46-0.17-0.86-0.5-1.2
				c-0.33-0.34-0.74-0.52-1.2-0.52C245.46,109.83,245.06,110,244.72,110.35z M245.03,112.69v-2.29c0.14,0,0.35,0,0.64,0
				c0.28,0,0.44,0,0.47,0c0.18,0.01,0.33,0.05,0.45,0.12c0.2,0.11,0.31,0.29,0.31,0.55c0,0.19-0.05,0.33-0.16,0.42
				c-0.11,0.09-0.24,0.14-0.4,0.15c0.14,0.03,0.25,0.07,0.32,0.13c0.13,0.11,0.2,0.28,0.2,0.51v0.2c0,0.02,0,0.05,0,0.07
				c0,0.02,0.01,0.04,0.02,0.07l0.02,0.06h-0.57c-0.02-0.07-0.03-0.18-0.04-0.32c-0.01-0.14-0.02-0.23-0.04-0.28
				c-0.03-0.08-0.09-0.14-0.17-0.17c-0.05-0.02-0.11-0.03-0.2-0.04l-0.13-0.01h-0.13v0.81H245.03z M246.12,110.85
				c-0.08-0.03-0.2-0.05-0.35-0.05h-0.15v0.66h0.23c0.14,0,0.25-0.03,0.33-0.08c0.08-0.06,0.12-0.15,0.12-0.27
				C246.31,110.99,246.25,110.9,246.12,110.85z"/>
		</g>
		<g>
			<path fill="#3C4131" d="M80.73,143.96c0.14,0.28-0.05,0.59-0.41,0.59h-9.06c-0.41,0-0.78-0.23-0.96-0.59l-0.71-2.83h-9.93
				l-0.71,2.83c-0.18,0.37-0.55,0.59-0.96,0.59h-9.06c-0.37,0-0.55-0.32-0.41-0.59l10.34-30.4c0.14-0.27,0.64-0.59,1.1-0.59h9.34
				c0.46,0,0.96,0.32,1.1,0.59L80.73,143.96z M64.62,123.91l-2.47,8.7h4.94L64.62,123.91z"/>
			<path fill="#3C4131" d="M117.1,112.97c0.41,0,0.69,0.32,0.64,0.64l-1.9,6.96c-0.04,0.37-0.41,0.64-0.73,0.64h-5.61v22.7
				c0,0.32-0.28,0.64-0.64,0.64h-8.1c-0.37,0-0.69-0.32-0.69-0.64v-22.7h-7.6c-0.32,0-0.64-0.28-0.64-0.64v-6.91
				c0-0.37,0.32-0.69,0.64-0.69H117.1z"/>
			<path fill="#3C4131" d="M153.15,136.32c0.32,0,0.59,0.27,0.59,0.64l-1.85,6.96c-0.04,0.32-0.37,0.64-0.73,0.64h-15.32
				c-0.37,0-0.69-0.32-0.69-0.64v-30.26c0-0.37,0.32-0.69,0.69-0.69h8.1c0.37,0,0.69,0.32,0.69,0.69v22.66H153.15z"/>
			<path fill="#3C4131" d="M224.63,134.95c0.14-0.46,0.46-0.59,0.82-0.37c2.11,1.19,4.62,2.06,6.36,2.2c1.46,0,2.43-0.69,2.43-1.74
				c0-2.7-12.86-2.56-12.86-12.54c0-6.13,4.62-10.21,11.58-10.21c3.25,0,7.37,1.33,10.25,3.3c0.37,0.23,0.5,0.59,0.37,0.82
				l-2.88,6.45c-0.14,0.46-0.46,0.59-0.82,0.37c-2.24-1.28-4.85-2.24-6.45-2.38c-1.42,0-2.33,0.64-2.33,1.65
				c0,2.7,12.95,2.52,12.95,12.59c0,6.09-4.71,10.16-11.76,10.16c-3.85,0-7.87-1.19-10.16-3.02c-0.37-0.27-0.5-0.59-0.37-0.82
				L224.63,134.95z"/>
			<path fill="#3C4131" d="M203.82,143.96c0.14,0.28-0.05,0.59-0.41,0.59h-9.06c-0.41,0-0.78-0.23-0.96-0.59l-0.71-2.83h-9.93
				l-0.71,2.83c-0.18,0.37-0.55,0.59-0.96,0.59H172c-0.37,0-0.55-0.32-0.41-0.59l10.34-30.4c0.14-0.27,0.64-0.59,1.1-0.59h9.34
				c0.46,0,0.96,0.32,1.1,0.59L203.82,143.96z M187.7,123.91l-2.47,8.7h4.94L187.7,123.91z"/>
		</g>
	</g>
</g>
</svg>
