<?xml version="1.0" encoding="utf-8"?>
<!-- Generator: Adobe Illustrator 19.2.0, SVG Export Plug-In . SVG Version: 6.00 Build 0)  -->
<svg version="1.1" baseProfile="tiny" id="Layer_1" xmlns="http://www.w3.org/2000/svg" xmlns:xlink="http://www.w3.org/1999/xlink"
	 x="0px" y="0px" viewBox="0 0 300 180" xml:space="preserve">
<g>
	<path fill="#005CAB" d="M200.22,94.32c0,4.87,0,9.69,0,14.57c-3.28,0-6.51,0-9.81,0c0-0.29,0-0.54,0-0.79
		c0-6.52,0.01-13.04,0-19.56c0-1.71-0.07-3.43-0.59-5.08c-0.9-2.92-2.7-4.95-5.8-5.52c-4.55-0.83-8.29,1.6-9.43,6.11
		c-0.31,1.21-0.46,2.5-0.47,3.75c-0.05,6.73-0.03,13.47-0.03,20.2c0,0.27,0,0.54,0,0.94c-3.25,0.01-6.44,0-9.69,0
		c0-1.17,0-2.23,0-3.3c-0.04-0.02-0.07-0.04-0.11-0.06c-0.15,0.14-0.3,0.28-0.44,0.42c-2.87,2.69-6.26,4.12-10.21,4
		c-5.05-0.15-9.47-1.88-12.96-5.65c-2.46-2.66-3.79-5.85-4.1-9.46c-0.02-0.29-0.06-0.58-0.13-0.89c-1.69,6.32-5.35,11.08-11.27,13.9
		c-5.92,2.82-11.93,2.77-17.87,0c-3.6-1.68-6.44-4.27-8.55-7.63c-2.12-3.36-3.16-7.04-3.16-11.01c0-3.97,1.1-7.63,3.19-11
		c-0.02-0.05-0.04-0.09-0.07-0.14c-0.91,0.13-1.83,0.21-2.73,0.41c-4.01,0.89-6.64,3.95-6.91,8.06c-0.09,1.36-0.12,2.72-0.13,4.08
		c-0.01,5.78-0.01,11.56-0.01,17.34c0,0.27,0,0.54,0,0.86c-3.26,0-6.43,0-9.67,0c0-4.84,0-9.66,0-14.47
		c-0.04-0.01-0.08-0.02-0.12-0.02c-0.07,0.22-0.13,0.44-0.2,0.66c-2.46,8.13-7.86,13.01-16.21,14.52c-4.5,0.81-8.9,0.27-13.02-1.78
		c-4.88-2.43-8.08-6.35-9.82-11.48c-0.75-2.21-1.14-4.49-1.15-6.82c-0.05-9.65-0.07-19.3-0.1-28.95c0-0.23,0.03-0.45,0.05-0.71
		c3.16,0,6.26,0,9.45,0c0,4.6,0,9.16,0,13.72c0.04,0.02,0.09,0.04,0.13,0.06c0.12-0.1,0.25-0.19,0.37-0.3
		c3.13-2.88,6.84-4.29,11.08-4.39c9.39-0.22,16.95,6.1,19.24,14.7c0.07,0.26,0.14,0.52,0.23,0.84c0.2-1.04,0.32-2.02,0.57-2.96
		c1.38-5.28,4.73-8.83,9.73-10.87c3.33-1.36,6.83-1.77,10.41-1.69c0.09,0,0.18,0.03,0.36,0.07c0,2.35,0,4.69,0,7.15
		c5.73-6.2,12.62-8.8,20.77-6.86c8.14,1.94,13.11,7.34,15.45,15.43c0-8.34,0-16.55,0-24.83c3.27,0,6.49,0,9.8,0
		c0,3.13,0,6.26,0,9.48c5.05,0,10,0,15.01,0c0,3.06,0,6.04,0,9.13c-4.97,0-9.94,0-14.93,0c-0.02,0.27-0.05,0.44-0.05,0.61
		c0,3.68-0.02,7.36,0.02,11.03c0.02,1.41,0.09,2.85,0.34,4.24c0.59,3.32,2.77,5.46,6.09,6.11c2.31,0.45,4.58,0.35,6.7-0.8
		c2.61-1.43,4.03-3.73,4.53-6.59c0.25-1.43,0.36-2.9,0.37-4.35c0.03-9.34,0.02-18.68,0.02-28.02c0-0.27,0.02-0.53,0.04-0.84
		c3.21,0,6.38,0,9.62,0c0,4.26,0,8.5,0,12.86c0.2-0.13,0.3-0.17,0.38-0.24c5.69-5.25,13.96-4.81,19.44-0.41
		c3.75,3.01,5.82,6.97,6.29,11.76c0.02,0.25,0.06,0.5,0.16,0.76c0.09-0.33,0.16-0.67,0.26-1c2.4-7.98,7.69-12.89,15.84-14.52
		c5.94-1.19,11.5,0.01,16.48,3.52c4.06,2.86,6.64,6.76,7.86,11.57c0.05,0.19,0.1,0.37,0.22,0.57c0.07-0.49,0.12-0.99,0.2-1.48
		c0.92-5.85,4.13-9.97,9.5-12.38c3.51-1.58,7.24-2.04,11.06-1.93c0.06,0,0.11,0.03,0.22,0.05c0,3.03,0,6.07,0,9.19
		c-0.37,0-0.71,0-1.06,0c-1.41,0.01-2.8,0.17-4.13,0.64c-3.34,1.16-5.3,3.53-5.82,7.01c-0.22,1.51-0.24,3.06-0.25,4.6
		c-0.03,5.88-0.01,11.75-0.01,17.63c0,0.25,0,0.5,0,0.73c-0.48,0.2-8.91,0.25-9.71,0.06c0-5.43,0-10.88,0-16.38
		c-10.49,0-20.89,0-31.29,0c0.35,3.33,3.02,7.5,7.47,8.89c4.51,1.41,10.9-0.18,13.35-6.33c3.09,0,6.19,0,9.39,0
		c-0.05,0.26-0.07,0.48-0.14,0.69c-2.21,7.52-7.12,12.18-14.81,13.74c-4.97,1.01-9.81,0.45-14.36-1.88
		c-5.25-2.68-8.58-6.95-10.1-12.63c-0.05-0.17-0.09-0.34-0.14-0.51C200.33,94.41,200.29,94.39,200.22,94.32z M47.8,89.31
		c-0.1,6.05,4.82,11.16,10.85,11.26c6.49,0.1,11.48-4.62,11.65-10.91C70.46,83.6,66,78.22,59.25,78.08
		C52.83,77.95,47.91,82.81,47.8,89.31z M127.49,89.29c-0.01-6.33-4.9-11.24-11.21-11.22c-6.33,0.02-11.27,4.78-11.27,11.24
		c0,6.62,5.16,11.26,11.26,11.25C122.6,100.56,127.49,95.65,127.49,89.29z M230.86,84.74c-0.47-1.79-1.39-3.23-2.6-4.48
		c-2-2.08-4.43-3.23-7.33-3.38c-6.1-0.31-10.05,4.43-10.81,7.86C217,84.74,223.88,84.74,230.86,84.74z"/>
	<path fill="#005CAB" d="M262.36,109.56c-2.67,0.01-4.91-2.2-4.9-4.85c0.01-2.63,2.2-4.81,4.86-4.83c2.67-0.02,4.91,2.2,4.9,4.85
		C267.21,107.36,265.01,109.55,262.36,109.56z M262.36,100.56c-2.35-0.01-4.2,1.82-4.21,4.15c0,2.33,1.84,4.17,4.19,4.17
		c2.31,0,4.17-1.82,4.19-4.12C266.55,102.45,264.7,100.57,262.36,100.56z"/>
	<path fill="#005CAB" d="M264.78,107.58c-0.33,0-0.57,0-0.88,0c-0.06-0.4-0.12-0.78-0.16-1.16c-0.09-0.98-0.31-1.18-1.26-1.19
		c-0.43,0-0.86,0.01-1.28,0.02c-0.05,0-0.11,0.04-0.24,0.1c0,0.7,0,1.43,0,2.21c-0.31,0-0.52,0-0.79,0c0-1.9,0-3.77,0-5.69
		c0.12-0.03,0.24-0.1,0.37-0.09c0.89,0.01,1.79,0.01,2.68,0.06c0.67,0.03,1.22,0.31,1.42,1.01c0.2,0.7,0.09,1.35-0.51,1.85
		c-0.04,0.04-0.08,0.08-0.16,0.15C264.72,105.57,264.44,106.61,264.78,107.58z M260.98,102.53c0,0.67,0,1.3,0,1.97
		c0.74,0,1.43,0.04,2.12-0.01c0.53-0.04,0.75-0.4,0.75-0.99c0-0.59-0.18-0.9-0.72-0.95C262.44,102.49,261.73,102.53,260.98,102.53z"
		/>
</g>
</svg>
