<?xml version="1.0" encoding="utf-8"?>
<!-- Generator: Adobe Illustrator 19.2.0, SVG Export Plug-In . SVG Version: 6.00 Build 0)  -->
<svg version="1.1" id="Layer_1" xmlns="http://www.w3.org/2000/svg" xmlns:xlink="http://www.w3.org/1999/xlink" x="0px" y="0px"
	 viewBox="0 0 300 180" enable-background="new 0 0 300 180" xml:space="preserve">
<g>
	<g>
		<defs>
			<path id="SVGID_1_" d="M64.74,24.73c-2.04,0.83-3.87,2.03-5.45,3.56c-1.59,1.54-2.84,3.38-3.72,5.47
				c-0.88,2.09-1.33,4.38-1.33,6.78c0,2.4,0.45,4.69,1.33,6.78c0.88,2.09,2.13,3.94,3.73,5.47c1.59,1.54,3.43,2.74,5.49,3.56
				c2.05,0.83,4.26,1.25,6.56,1.25c2.18,0,4.25-0.37,6.16-1.11c1.9-0.74,3.56-1.69,4.96-2.87c1.39-1.16,2.5-2.45,3.3-3.82l0.57-0.97
				h-2.92l-0.19,0.27c-0.49,0.68-1.24,1.5-2.23,2.43c-0.98,0.9-2.32,1.74-3.99,2.49c-1.65,0.74-3.55,1.11-5.64,1.11
				c-2.63,0-5.1-0.63-7.32-1.9c-2.21-1.25-3.99-3.02-5.28-5.25c-1.29-2.22-1.95-4.74-1.95-7.47c0-2.72,0.66-5.23,1.95-7.46
				c1.29-2.23,3.06-4,5.28-5.27c2.19-1.25,4.62-1.88,7.23-1.88h0.08c2.03,0,3.87,0.37,5.49,1.11c1.63,0.75,2.97,1.59,3.98,2.5
				c1.02,0.94,1.83,1.81,2.41,2.59l0.19,0.26h3.01l-0.63-0.99c-0.86-1.34-2.01-2.63-3.4-3.83c-1.39-1.2-3.03-2.19-4.89-2.94
				s-3.94-1.14-6.16-1.14C69,23.49,66.77,23.9,64.74,24.73"/>
		</defs>
		<linearGradient id="SVGID_2_" gradientUnits="userSpaceOnUse" x1="54.2474" y1="40.5349" x2="86.4295" y2="40.5349">
			<stop  offset="0" style="stop-color:#E3C783"/>
			<stop  offset="5.618000e-03" style="stop-color:#E3C783"/>
			<stop  offset="0.1854" style="stop-color:#E9D590"/>
			<stop  offset="0.4101" style="stop-color:#DEC99C"/>
			<stop  offset="0.7303" style="stop-color:#B38225"/>
			<stop  offset="0.9335" style="stop-color:#DEBF81"/>
			<stop  offset="0.9494" style="stop-color:#E2C488"/>
			<stop  offset="1" style="stop-color:#E2C488"/>
		</linearGradient>
		<use xlink:href="#SVGID_1_"  overflow="visible" fill="url(#SVGID_2_)"/>
		<clipPath id="SVGID_3_">
			<use xlink:href="#SVGID_1_"  overflow="visible"/>
		</clipPath>
		
			<linearGradient id="SVGID_4_" gradientUnits="userSpaceOnUse" x1="-130.5844" y1="-772.8572" x2="-130.4552" y2="-772.8572" gradientTransform="matrix(-1531.3959 0 0 -1531.3959 -199724.3438 -1183509.75)">
			<stop  offset="0" style="stop-color:#E3C783"/>
			<stop  offset="5.618000e-03" style="stop-color:#E3C783"/>
			<stop  offset="0.1854" style="stop-color:#E9D590"/>
			<stop  offset="0.4101" style="stop-color:#DEC99C"/>
			<stop  offset="0.7303" style="stop-color:#B38225"/>
			<stop  offset="0.9335" style="stop-color:#DEBF81"/>
			<stop  offset="0.9494" style="stop-color:#E2C488"/>
			<stop  offset="1" style="stop-color:#E2C488"/>
		</linearGradient>
		<rect x="54.25" y="23.49" clip-path="url(#SVGID_3_)" fill="url(#SVGID_4_)" width="32.17" height="34.13"/>
	</g>
</g>
<g>
	<g>
		<defs>
			<path id="SVGID_5_" d="M117.55,24.03v33.02h2.58V26.48h5.31c1.54,0,2.72,0.03,3.56,0.08c0.81,0.05,1.56,0.15,2.25,0.32
				c0.66,0.17,1.27,0.43,1.82,0.77c0.72,0.45,1.34,1.06,1.86,1.78c0.53,0.75,0.93,1.56,1.2,2.41c0.27,0.85,0.41,1.74,0.41,2.62
				c0,1.21-0.19,2.35-0.58,3.38c-0.37,1.02-1.02,2-1.9,2.9c-0.61,0.52-1.23,0.92-1.86,1.17c-0.63,0.27-1.3,0.45-2,0.54
				c-0.72,0.09-1.65,0.14-2.75,0.14h-3.23l10.22,14.41h3.21l-8.57-11.99h0.04c2.26-0.09,4.16-0.68,5.64-1.77
				c1.48-1.07,2.59-2.43,3.29-4c0.68-1.56,1.03-3.11,1.03-4.61v-0.25c-0.04-1.94-0.53-3.76-1.45-5.41c-0.93-1.68-2.1-2.88-3.46-3.56
				c-0.93-0.5-2.05-0.88-3.34-1.1c-1.25-0.22-3.09-0.32-5.42-0.32h-7.87V24.03z"/>
		</defs>
		<linearGradient id="SVGID_6_" gradientUnits="userSpaceOnUse" x1="117.5531" y1="40.5349" x2="139.0982" y2="40.5349">
			<stop  offset="0" style="stop-color:#E3C783"/>
			<stop  offset="5.618000e-03" style="stop-color:#E3C783"/>
			<stop  offset="0.1854" style="stop-color:#E9D590"/>
			<stop  offset="0.4101" style="stop-color:#DEC99C"/>
			<stop  offset="0.7303" style="stop-color:#B38225"/>
			<stop  offset="0.9335" style="stop-color:#DEBF81"/>
			<stop  offset="0.9494" style="stop-color:#E2C488"/>
			<stop  offset="1" style="stop-color:#E2C488"/>
		</linearGradient>
		<use xlink:href="#SVGID_5_"  overflow="visible" fill="url(#SVGID_6_)"/>
		<clipPath id="SVGID_7_">
			<use xlink:href="#SVGID_5_"  overflow="visible"/>
		</clipPath>
		
			<linearGradient id="SVGID_8_" gradientUnits="userSpaceOnUse" x1="-130.5845" y1="-772.8572" x2="-130.4551" y2="-772.8572" gradientTransform="matrix(-1531.3959 0 0 -1531.3959 -199724.3438 -1183509.75)">
			<stop  offset="0" style="stop-color:#E3C783"/>
			<stop  offset="5.618000e-03" style="stop-color:#E3C783"/>
			<stop  offset="0.1854" style="stop-color:#E9D590"/>
			<stop  offset="0.4101" style="stop-color:#DEC99C"/>
			<stop  offset="0.7303" style="stop-color:#B38225"/>
			<stop  offset="0.9335" style="stop-color:#DEBF81"/>
			<stop  offset="0.9494" style="stop-color:#E2C488"/>
			<stop  offset="1" style="stop-color:#E2C488"/>
		</linearGradient>
		<rect x="117.55" y="24.03" clip-path="url(#SVGID_7_)" fill="url(#SVGID_8_)" width="21.57" height="33.02"/>
	</g>
</g>
<g>
	<g>
		<defs>
			<polygon id="SVGID_9_" points="173.49,24.03 159.26,52.91 145.18,24.39 145,24.03 141.91,24.03 141.91,57.05 144.47,57.05 
				144.47,28.56 158.49,57.05 160.01,57.05 173.98,28.56 173.98,57.05 176.53,57.05 176.53,24.03 			"/>
		</defs>
		<linearGradient id="SVGID_10_" gradientUnits="userSpaceOnUse" x1="141.9124" y1="40.5414" x2="176.5343" y2="40.5414">
			<stop  offset="0" style="stop-color:#E3C783"/>
			<stop  offset="5.618000e-03" style="stop-color:#E3C783"/>
			<stop  offset="0.1854" style="stop-color:#E9D590"/>
			<stop  offset="0.4101" style="stop-color:#DEC99C"/>
			<stop  offset="0.7303" style="stop-color:#B38225"/>
			<stop  offset="0.9335" style="stop-color:#DEBF81"/>
			<stop  offset="0.9494" style="stop-color:#E2C488"/>
			<stop  offset="1" style="stop-color:#E2C488"/>
		</linearGradient>
		<use xlink:href="#SVGID_9_"  overflow="visible" fill="url(#SVGID_10_)"/>
		<clipPath id="SVGID_11_">
			<use xlink:href="#SVGID_9_"  overflow="visible"/>
		</clipPath>
		
			<linearGradient id="SVGID_12_" gradientUnits="userSpaceOnUse" x1="-130.5843" y1="-772.8572" x2="-130.4553" y2="-772.8572" gradientTransform="matrix(-1531.3959 0 0 -1531.3959 -199724.3438 -1183509.75)">
			<stop  offset="0" style="stop-color:#E3C783"/>
			<stop  offset="5.618000e-03" style="stop-color:#E3C783"/>
			<stop  offset="0.1854" style="stop-color:#E9D590"/>
			<stop  offset="0.4101" style="stop-color:#DEC99C"/>
			<stop  offset="0.7303" style="stop-color:#B38225"/>
			<stop  offset="0.9335" style="stop-color:#DEBF81"/>
			<stop  offset="0.9494" style="stop-color:#E2C488"/>
			<stop  offset="1" style="stop-color:#E2C488"/>
		</linearGradient>
		<rect x="141.91" y="24.03" clip-path="url(#SVGID_11_)" fill="url(#SVGID_12_)" width="34.63" height="33.02"/>
	</g>
</g>
<g>
	<g>
		<defs>
			<polygon id="SVGID_13_" points="240.24,24.03 240.24,52.83 219.59,24.3 219.39,24.03 216.5,24.03 216.5,57.05 219.06,57.05 
				219.06,27.84 240.02,56.78 240.21,57.05 242.82,57.05 242.82,24.03 			"/>
		</defs>
		<linearGradient id="SVGID_14_" gradientUnits="userSpaceOnUse" x1="216.5005" y1="40.5414" x2="242.822" y2="40.5414">
			<stop  offset="0" style="stop-color:#E3C783"/>
			<stop  offset="5.618000e-03" style="stop-color:#E3C783"/>
			<stop  offset="0.1854" style="stop-color:#E9D590"/>
			<stop  offset="0.4101" style="stop-color:#DEC99C"/>
			<stop  offset="0.7303" style="stop-color:#B38225"/>
			<stop  offset="0.9335" style="stop-color:#DEBF81"/>
			<stop  offset="0.9494" style="stop-color:#E2C488"/>
			<stop  offset="1" style="stop-color:#E2C488"/>
		</linearGradient>
		<use xlink:href="#SVGID_13_"  overflow="visible" fill="url(#SVGID_14_)"/>
		<clipPath id="SVGID_15_">
			<use xlink:href="#SVGID_13_"  overflow="visible"/>
		</clipPath>
		
			<linearGradient id="SVGID_16_" gradientUnits="userSpaceOnUse" x1="-130.5843" y1="-772.8572" x2="-130.4553" y2="-772.8572" gradientTransform="matrix(-1531.3959 0 0 -1531.3959 -199724.3438 -1183509.75)">
			<stop  offset="0" style="stop-color:#E3C783"/>
			<stop  offset="5.618000e-03" style="stop-color:#E3C783"/>
			<stop  offset="0.1854" style="stop-color:#E9D590"/>
			<stop  offset="0.4101" style="stop-color:#DEC99C"/>
			<stop  offset="0.7303" style="stop-color:#B38225"/>
			<stop  offset="0.9335" style="stop-color:#DEBF81"/>
			<stop  offset="0.9494" style="stop-color:#E2C488"/>
			<stop  offset="1" style="stop-color:#E2C488"/>
		</linearGradient>
		<rect x="216.5" y="24.03" clip-path="url(#SVGID_15_)" fill="url(#SVGID_16_)" width="26.32" height="33.02"/>
	</g>
</g>
<g>
	<g>
		<defs>
			<polygon id="SVGID_17_" points="99.35,24.03 85.19,57.05 87.97,57.05 95.03,40.71 100.58,27.53 107.37,43.55 96.42,43.55 
				95.14,46 108.48,46 113.23,57.05 116,57.05 101.86,24.03 			"/>
		</defs>
		<linearGradient id="SVGID_18_" gradientUnits="userSpaceOnUse" x1="85.1902" y1="40.5414" x2="116.004" y2="40.5414">
			<stop  offset="0" style="stop-color:#E3C783"/>
			<stop  offset="5.618000e-03" style="stop-color:#E3C783"/>
			<stop  offset="0.1854" style="stop-color:#E9D590"/>
			<stop  offset="0.4101" style="stop-color:#DEC99C"/>
			<stop  offset="0.7303" style="stop-color:#B38225"/>
			<stop  offset="0.9335" style="stop-color:#DEBF81"/>
			<stop  offset="0.9494" style="stop-color:#E2C488"/>
			<stop  offset="1" style="stop-color:#E2C488"/>
		</linearGradient>
		<use xlink:href="#SVGID_17_"  overflow="visible" fill="url(#SVGID_18_)"/>
		<clipPath id="SVGID_19_">
			<use xlink:href="#SVGID_17_"  overflow="visible"/>
		</clipPath>
		
			<linearGradient id="SVGID_20_" gradientUnits="userSpaceOnUse" x1="-130.5844" y1="-772.8572" x2="-130.4552" y2="-772.8572" gradientTransform="matrix(-1531.3959 0 0 -1531.3959 -199724.3438 -1183509.75)">
			<stop  offset="0" style="stop-color:#E3C783"/>
			<stop  offset="5.618000e-03" style="stop-color:#E3C783"/>
			<stop  offset="0.1854" style="stop-color:#E9D590"/>
			<stop  offset="0.4101" style="stop-color:#DEC99C"/>
			<stop  offset="0.7303" style="stop-color:#B38225"/>
			<stop  offset="0.9335" style="stop-color:#DEBF81"/>
			<stop  offset="0.9494" style="stop-color:#E2C488"/>
			<stop  offset="1" style="stop-color:#E2C488"/>
		</linearGradient>
		<rect x="85.19" y="24.03" clip-path="url(#SVGID_19_)" fill="url(#SVGID_20_)" width="30.81" height="33.02"/>
	</g>
</g>
<g>
	<g>
		<defs>
			<path id="SVGID_21_" d="M187.58,25c-2.72,1.55-4.89,3.7-6.45,6.43c-1.56,2.71-2.35,5.73-2.35,9c0,3.28,0.77,6.3,2.3,8.96
				c1.52,2.67,3.67,4.82,6.36,6.35c2.7,1.54,5.76,2.32,9.11,2.35l0,0c2.31,0,4.53-0.39,6.64-1.16c2.1-0.77,4.03-1.96,5.72-3.55
				c1.63-1.52,2.94-3.4,3.92-5.59l0.4-0.9h-2.89l-0.17,0.36c-0.85,1.76-1.96,3.27-3.3,4.48c-1.37,1.25-2.93,2.21-4.66,2.85
				c-3.11,1.16-6.74,1.42-10.64,0.08c-1.73-0.59-3.4-1.54-4.94-2.79c-1.54-1.24-2.79-2.83-3.73-4.71c-0.71-1.45-1.17-3.11-1.34-5
				c-0.08-0.68-0.12-1.25-0.12-1.78c0-0.63,0.05-1.29,0.15-2.07c0.18-1.74,0.63-3.36,1.34-4.78c0.81-1.65,1.94-3.12,3.33-4.4
				c1.39-1.27,3.01-2.26,4.78-2.93c1.78-0.67,3.73-1.02,5.78-1.02c2.41,0,4.78,0.62,7,1.83c2.22,1.23,4.07,2.92,5.47,5.05
				c1.32,1.99,2.07,4.14,2.26,6.43h-26.79l-1.05,2.5h30.45l0.09-1.39c-0.09-2.52-0.63-4.87-1.61-6.96c-0.99-2.09-2.31-3.9-3.94-5.38
				c-1.61-1.47-3.5-2.62-5.58-3.41c-2.08-0.79-4.29-1.17-6.54-1.17C193.35,22.66,190.31,23.45,187.58,25"/>
		</defs>
		<linearGradient id="SVGID_22_" gradientUnits="userSpaceOnUse" x1="178.7804" y1="40.3799" x2="214.2673" y2="40.3799">
			<stop  offset="0" style="stop-color:#E3C783"/>
			<stop  offset="5.618000e-03" style="stop-color:#E3C783"/>
			<stop  offset="0.1854" style="stop-color:#E9D590"/>
			<stop  offset="0.4101" style="stop-color:#DEC99C"/>
			<stop  offset="0.7303" style="stop-color:#B38225"/>
			<stop  offset="0.9335" style="stop-color:#DEBF81"/>
			<stop  offset="0.9494" style="stop-color:#E2C488"/>
			<stop  offset="1" style="stop-color:#E2C488"/>
		</linearGradient>
		<use xlink:href="#SVGID_21_"  overflow="visible" fill="url(#SVGID_22_)"/>
		<clipPath id="SVGID_23_">
			<use xlink:href="#SVGID_21_"  overflow="visible"/>
		</clipPath>
		
			<linearGradient id="SVGID_24_" gradientUnits="userSpaceOnUse" x1="-130.5843" y1="-772.8584" x2="-130.4552" y2="-772.8584" gradientTransform="matrix(-1531.3959 0 0 -1531.3959 -199724.3438 -1183511.75)">
			<stop  offset="0" style="stop-color:#E3C783"/>
			<stop  offset="5.618000e-03" style="stop-color:#E3C783"/>
			<stop  offset="0.1854" style="stop-color:#E9D590"/>
			<stop  offset="0.4101" style="stop-color:#DEC99C"/>
			<stop  offset="0.7303" style="stop-color:#B38225"/>
			<stop  offset="0.9335" style="stop-color:#DEBF81"/>
			<stop  offset="0.9494" style="stop-color:#E2C488"/>
			<stop  offset="1" style="stop-color:#E2C488"/>
		</linearGradient>
		<rect x="178.79" y="22.66" clip-path="url(#SVGID_23_)" fill="url(#SVGID_24_)" width="35.53" height="35.41"/>
	</g>
</g>
<g>
	<g>
		<defs>
			<path id="SVGID_25_" d="M248.01,24.64h0.72c0.31,0,0.57,0.04,0.61,0.43c0,0.58-0.44,0.58-0.7,0.58H248v-1.01H248.01z
				 M247.3,24.06v3.61h0.72v-1.45h0.63c0.5,0.05,0.62,0.21,0.65,0.77c0.01,0.45,0.04,0.57,0.1,0.67h0.74
				c-0.08-0.15-0.08-0.22-0.12-0.84c-0.01-0.46-0.1-0.76-0.61-0.9v-0.01c0.49-0.12,0.67-0.48,0.67-0.88c0-0.98-1.05-0.98-1.28-0.98
				C248.81,24.06,247.3,24.06,247.3,24.06z M246.23,25.83c0-1.33,1.05-2.44,2.41-2.44c1.37,0,2.41,1.11,2.41,2.44
				c0,1.36-1.07,2.44-2.41,2.44C247.3,28.28,246.23,27.18,246.23,25.83 M245.49,25.83c0,1.73,1.39,3.16,3.16,3.16
				c1.72,0,3.15-1.41,3.15-3.16c0-1.73-1.39-3.15-3.15-3.15C246.88,22.68,245.49,24.11,245.49,25.83"/>
		</defs>
		<linearGradient id="SVGID_26_" gradientUnits="userSpaceOnUse" x1="245.4941" y1="25.8316" x2="251.8066" y2="25.8316">
			<stop  offset="0" style="stop-color:#E3C783"/>
			<stop  offset="5.618000e-03" style="stop-color:#E3C783"/>
			<stop  offset="0.1854" style="stop-color:#E9D590"/>
			<stop  offset="0.4101" style="stop-color:#DEC99C"/>
			<stop  offset="0.7303" style="stop-color:#B38225"/>
			<stop  offset="0.9335" style="stop-color:#DEBF81"/>
			<stop  offset="0.9494" style="stop-color:#E2C488"/>
			<stop  offset="1" style="stop-color:#E2C488"/>
		</linearGradient>
		<use xlink:href="#SVGID_25_"  overflow="visible" fill="url(#SVGID_26_)"/>
		<clipPath id="SVGID_27_">
			<use xlink:href="#SVGID_25_"  overflow="visible"/>
		</clipPath>
		
			<linearGradient id="SVGID_28_" gradientUnits="userSpaceOnUse" x1="-130.5843" y1="-772.922" x2="-130.4563" y2="-772.922" gradientTransform="matrix(-1531.3959 0 0 -1531.3959 -199724.3438 -1183623.75)">
			<stop  offset="0" style="stop-color:#E3C783"/>
			<stop  offset="5.618000e-03" style="stop-color:#E3C783"/>
			<stop  offset="0.1854" style="stop-color:#E9D590"/>
			<stop  offset="0.4101" style="stop-color:#DEC99C"/>
			<stop  offset="0.7303" style="stop-color:#B38225"/>
			<stop  offset="0.9335" style="stop-color:#DEBF81"/>
			<stop  offset="0.9494" style="stop-color:#E2C488"/>
			<stop  offset="1" style="stop-color:#E2C488"/>
		</linearGradient>
		<rect x="245.49" y="22.68" clip-path="url(#SVGID_27_)" fill="url(#SVGID_28_)" width="6.31" height="6.31"/>
	</g>
</g>
<g>
	<g>
		<defs>
			<path id="SVGID_29_" d="M173.31,117.08c-2.22,1.27-5.12,3.89-4.44,6.74c0.13,0.53,0.98,0.96,1.42,0.45c0.35-0.41-0.1-1.45,0-1.98
				c0.14-0.74,0.57-1.38,1.05-1.94c2.08-2.49,5.02-3.47,7.38-0.77c1.11,1.27,1.21,5.25,3.27,4.26c0.4-0.19,0.77-2.47,1.03-2.92
				c0.81-1.43,2.78-2.56,4.01-0.94c1.6,2.07-1.91,6.45-2.84,8.2c-0.52,0.98-1.5,1.92-2.17,2.79c-0.35,0.45-3.49-2.43-3.83-2.7
				c-0.94-0.75-5.12-5.12-6.21-4.76c-1.98,0.65,3.5,4.6,3.95,4.96c1.15,0.92,2.27,1.86,3.45,2.75c1.91,1.45,0.9,1.74-0.65,3.24
				c-0.23,0.23-1.51,1.25-1.16,1.72c1.02,1.33,2.12-0.39,3.12-1.33c0.41-0.39,1.14-1.67,1.78-1.12c0.62,0.52,1.81,0.46,1.2-0.49
				c-1.02-1.6,2.32-4.66,3.18-6.26c1.15-2.18,3.12-5.89,1.14-8.15c-0.72-0.83-1.96-1.25-3.03-1.07c-2.09,0.35-2.4,1.73-3.7,3.02
				c-0.27-0.45-0.56-0.9-0.84-1.36c0.06,0.1,0.12,0.18-0.01-0.03c-0.14-0.22-0.09-0.13-0.01-0.03c-1.05-1.65-2.97-2.84-4.89-2.84
				C174.75,116.51,174,116.69,173.31,117.08 M179.77,105.37c0.05-0.1,0.03-0.17,0-0.18C179.77,105.27,179.77,105.33,179.77,105.37
				 M179.99,104.22c0.01,0,0.03-0.01,0.04-0.01c0.13-0.08,0.13-0.13,0.1-0.13C180.08,104.07,180.02,104.12,179.99,104.22
				 M218.5,102.47L218.5,102.47C218.5,102.48,218.5,102.48,218.5,102.47c0.01,0.01,0.03,0,0.01-0.03c0-0.01,0-0.03-0.01-0.03
				C218.5,102.41,218.5,102.43,218.5,102.47 M179.77,104.87c0.01-0.32,0.09-0.66,0.35-0.53c0.35,0.15-0.23,0.92-0.35,1.05v-0.01
				c0,0.01-0.01,0.03-0.01,0.03l0,0c0,0-0.01,0,0,0c-0.05-0.15-0.01-0.22,0.01-0.21C179.77,105.1,179.77,104.98,179.77,104.87
				 M180.02,104.2c-0.01,0-0.03,0.01-0.04,0.01c0.19-0.77-0.15-2.62-1.32-1.39c-0.76,0.8-1.39,2.66-1.72,3.7
				c-0.52,1.69-1.55,5.11-0.06,6.3c1.32,1.05,2.76-4.14,3.06-5.07c0.71-2.19,1.82-5.03,3.92-6.29c0.52,1.83-1.01,4.21-0.53,6.27
				c0.39,1.67,1.42,2.41,2.9,3.06c1.38,0.59,3.45,0.3,4.52-0.74c0.71-0.68-1.34-0.65-2.72-0.62c-0.56,0.01-1.01,0.03-1.12-0.01
				c-4.25-1.42,0.66-6.85-1.12-9.02c-0.56-0.67-1.06-0.94-1.52-0.94C182.5,99.47,181.27,103.46,180.02,104.2 M201.46,97.68
				C201.38,97.73,201.49,97.69,201.46,97.68L201.46,97.68 M222.79,96.17c-0.37,0.77-3.89,6.51-4.29,6.3l0,0l0,0
				C218.5,100.98,220.63,95.52,222.79,96.17 M203.14,92.51c-2.4,3.95-6,7.68-10.87,8.35c-0.15-2.12,1.21-4.25,2.19-6
				c0.26-0.48,1.34-1.72,1.14-2.32c-0.19-0.57-1.23-1.2-1.7-0.61c-2.7,3.32-4.97,9.02-3.27,13.23c0.9,2.25,2.26,3.94,4.54,4.89
				c1.39,0.58,5.55,1.37,5.34-1.14c-0.72-0.08-1.38-0.04-1.99,0c-1.28,0.08-2.43,0.17-3.87-0.85c-1.81-1.27-2.67-3.9-2.44-6.02
				c3.15,1.05,6.92-2.65,9.26-4.38c0.31,0.21-1.55,7.68-1.85,8.43c-0.39,0.97,0.21,2.4,1.43,2.1c0.8-0.19,1.5-1.81,1.9-2.44
				c0.86-1.39,5.47-9.66,7.47-8.44c0.58,0.35-0.32,4.07-0.36,4.72c-0.13,1.79,0.17,4.11,1.5,5.45c1.16,1.17,3.05,1.41,4.49,0.66
				c0.67-0.35,1.92-2.19,2.54-2c1.42,0.45,3.03,0.27,4.38-0.35c1.52-0.7,1.29-2.35,2.39-0.62c1.47,2.32,5.53,2.41,7.87,2.59
				c0.66,0.05,4.79,0.08,4.61-1.25c-0.08-0.57-2.16-0.46-3.73-0.37c-0.75,0.04-1.39,0.09-1.64,0.06c-3.38-0.36-5.9-0.99-5.98-4.76
				c-0.03-0.92-0.1-2.32,0.31-3.19c0.49-1.03-0.56-2.88-1.46-1.63c-1.32,1.81-0.43,4.35-1.41,6.29c-0.57,1.14-4.91,3.14-4.6,1.05
				c0.3-2.03,2.04-4.09,3.19-5.72c0.81-1.15,3.64-3.89,0.41-3.99c-3.2-0.12-5.91,3.94-6.31,6.64c-0.46,3.1,0.85,3.36-0.13,4.47
				c-0.54,0.62-2.81,2.34-3.58,1.25c-2.17-3.03,0.83-7.05-0.85-9.82c-2.83-4.66-7.96,5.18-9.72,6.31c-0.71-0.58,1.96-7.01,2.3-7.94
				c0.27-0.76,0.99-2.1,0.54-2.96c-0.27-0.52-0.57-0.72-0.85-0.72C203.86,91.52,203.44,92.02,203.14,92.51 M72.28,82.19L72.28,82.19
				 M72.28,82.19L72.28,82.19 M72.28,82.13c0-0.03,0-0.04,0-0.04S72.28,82.11,72.28,82.13 M83.24,76L83.24,76L83.24,76L83.24,76
				 M84.33,72.37c-0.62,0.83-0.76,2.39,0.09,3.14c2.1,1.86,3.87-1.17,5.07-2.3c0.36,2,0.05,5.16-0.52,7.11
				c-0.63,2.18-2.98,2.87-4.93,3.34c-3.03,0.75-9.51,1.95-11.14-1.39c-0.19-0.04-0.26,0.06-0.22,0.31
				c-0.14-0.22-0.06-0.48-0.14-0.75c-0.1,0.12-0.25,0.14-0.26,0.3l0,0l0,0c0,0.03,0,0.04,0,0.05c0,0,0-0.03,0-0.04
				c-0.19,4.12,7.77,3.09,10.12,2.79c1.98-0.25,4.31-0.72,5.9-2c1.95-1.57,1.7-4.16,1.81-6.42c0.03-0.57,0.14-6.39-1.16-4
				c-0.65,1.17-1.5,2.01-2.8,2.36c-1.43,0.37-1.81-0.77-1.1-1.96c0.34-0.57,0.36-1.19,0.06-1.19
				C84.93,71.72,84.67,71.91,84.33,72.37 M79.17,68.95c-0.75,0.06-1.94,0.13-2.52,0.66c-0.27,0.25,0,1.01,0.43,0.79
				c1.3-0.67,4.63-1.42,5.82-0.21c-0.56,0.52-1.27,0.85-1.96,1.16c-1.01,0.45-0.77,0.34-0.79,0.21c-0.01-0.06-0.08-0.12-0.37-0.1
				c-0.77,0.03-0.23,0.5-0.89,0.68c-0.31,0.09,0.3,8.02,1.1,1.67c0.34,0.1,3.76,1.78,3.24,2.18l0,0c-0.19,0.15-0.13,0.1-0.06,0.05
				c0.03-0.03,0.05-0.04,0.06-0.05c-1.07,0.84-3.01,0.84-4.51,0.83c-0.3,0-0.58,0-0.84,0c-2.25,0.05,0.52,0.96,1.37,0.92
				c1.08-0.04,4.63,0.08,5.01-1.42c0.28-1.11-3.78-3.89-4.17-3.63c0.46-0.3,4.88-1.82,3.65-2.85c-0.9-0.76-2.17-0.97-3.38-0.97
				C79.96,68.89,79.56,68.92,79.17,68.95 M122.59,69.25c-6.21,1.56-17.7,6.79-22.93,9.94c-2.13,1.29-5.91,3.74-7.71,5.19
				c-1.08,0.88-2.75,2.32-3.42,3.59c-3.05,5.86,5.47,12.68,10.19,14.46c3.18,1.2,5.93,3.69,9.09,4.98c2.34,0.96,4.72,2.58,6.91,3.89
				c2.53,1.52,5,3.06,7.47,4.62c1.27,0.8,2.57,1.41,3.7,2.38c1.03,0.88,1.99,2.32,3.18,2.98c13.61,7.62,4.34,18.07,4.31,18.07
				c-0.23,1.01-7.46,6.51-7.54,6.56c-2.49,1.9-13.79,7.41-19.31,9.09c-4.6,1.39-9.09,2.32-13.83,3.02c-4.11,0.61-9.5,0.53-13.23-1.5
				c-4.61-2.5-3.34-8.95-2.61-13.17c0.46-2.75,1.61-5.15,2.45-7.6c1.64-4.8,10.99-15.62,8.47-13.23c-2.08,1.21-7.9,8.12-9.89,13.22
				c-0.14,0.36-1.51,4.16-1.63,4.7c-0.4,1.81-1.12,3.95-1.27,4.76c-0.5,2.93-0.36,4.96-0.41,5.96c-0.3,6.08,6.62,7.99,11.51,8.15
				c3.78,0.12,7.73-0.26,11.45-0.99c1.28-0.26,7.98-1.79,8.44-2.17c-0.08-0.04,6.97-2.17,10.38-3.92c3.76-1.94,7.72-3.49,11.31-6.07
				c3.42-2.47,10.65-6.66,10.4-16.01c-0.08-2.84-2.8-6.05-4.67-8.02c2.34-1.05,3.51-2.48,4.76-4.65c0.86,0.72-0.7,4.11,2.01,3.33
				c0.75-0.22,1.37-5.14,1.64-6.03c0.76-2.52,2.35-8.12,5.14-9c0.67,2.99-0.05,6.47-0.01,9.53c0.01,0.72-0.37,3.09,0.63,3.42
				c0.65,0.22,1.33,0.43,1.67-0.37c0.85-2.09,1.78-4.13,2.61-6.24c0.46-1.17,1.06-3.65,1.74-4.78c0.61,0.67,0.14,2.87,0.31,3.76
				c0.23,1.21,0.72,2.54,1.56,3.47c2.05,2.28,4.87,1.03,7.06-0.15c1.08-0.58,0.85-1.37,2.04-0.72c0.4,0.22,0.81,0.41,1.23,0.61
				c1.38,0.57,2.59-0.57,3.45-1.48c1.33-1.45,1.64-3.18,2.62-4.76c0.5,0.98,1.12,2.31,2.4,2.45c0.32,0.04,2.14,0.01,1.6-0.92
				c-0.49-0.84-1.38-0.03-1.94-1.47c-0.32-0.84-0.39-2.32-0.13-3.19c0.32-1.11,0.86-1.9-0.36-2.53c-0.86-0.45-1.41,0.72-1.33,1.42
				c0.17,1.42-1.34,3.96-2.1,5.09c-0.65,0.96-3.02,4.6-4.44,3.55c-0.97-0.71-1.28-2.94-1.1-4c0.4-2.31,1.14-5,3.01-6.58
				c0.79-0.67,4.21-1.15,4.34-1.91c-1.95-1.98-5.33-0.34-6.69,1.5c-1.55,2.1-2.39,4.3-2.66,6.88c-0.15,1.45,0.28,2.53,0.53,3.91
				c-0.81,0.63-1.45,1.19-2.44,1.52c-2.47,0.83-4.36,0.34-4.67-2.7c-0.14-1.37,1.07-7.96,0.22-8.6c-2.12-1.59-2.76,0.45-3.46,2.32
				c-0.4,1.06-3.3,8.21-3.55,8.98c-0.65-2.28,0.14-5.19-0.04-7.56c-0.13-1.73-2.26-3.15-3.73-1.69c-0.81,0.8-1.59,1.56-2.17,2.56
				c-0.3,0.5-1.55,4.48-2.36,5.09c-0.61-0.53,0.56-3.85,0.71-4.58c0.18-0.86,1.21-3.41,0.53-4.14c-1.87-2.01-2.39,1.98-2.7,3.1
				c-1.08,4.01-1.46,8.83-4.22,12.19c-2.01,2.45-4.51,2.09-6.44-0.28c-1.87-2.3-1.55-6.56-0.72-9.15c1.03-3.25,2.97-6.14,5.67-8.24
				c1.29-0.99,2.66-1.36,4.11-2.05c0.56-0.27,1.16-0.25,1.76-0.22c0.62,0.03,1.21,0.05,1.74-0.25c-4.21-2.63-9.42,1.2-11.9,4.56
				c-3.12,4.23-3.95,8.37-3.29,13.58c-4.79-2.48-9.18-5.83-13.97-8.39c-5.36-2.85-10.79-5.58-15.9-8.87
				c-2.7-1.73-6.36-4.97-6.57-8.4c-0.21-3.46,3.76-5.71,6.16-7.51c5.58-4.17,12.32-7.5,18.83-10.02c3.86-1.5,7.68-2.98,11.7-4.04
				c3.56-0.94,8.61-2.38,12.07-0.68c3.52,1.72,0.65,4.83-1.32,6.3c-2.18,1.64-12.43,8.3-14.41,9.58c-2.38,1.52-5.03,2.99-7.55,4.41
				c-3.6,2.04-7.51,4.56-11.63,5.34c-1.85,0.35-1.56,1.77,0.32,1.43c2.08-0.36,3.96-1.12,5.82-2.1c6.17-3.25,12.24-6.62,18.15-10.33
				c3.49-2.18,6.95-4.38,10.22-6.85c1.33-1.01,2.99-2.22,3.74-3.78c0.85-1.78,0.22-2.94-0.93-4c-1.72-1.59-3.77-2.14-6.02-2.14
				C130.94,66.63,126.64,68.23,122.59,69.25"/>
		</defs>
		<linearGradient id="SVGID_30_" gradientUnits="userSpaceOnUse" x1="72.2778" y1="112.9713" x2="237.8577" y2="112.9713">
			<stop  offset="0" style="stop-color:#E3C783"/>
			<stop  offset="5.618000e-03" style="stop-color:#E3C783"/>
			<stop  offset="0.1854" style="stop-color:#E9D590"/>
			<stop  offset="0.4101" style="stop-color:#DEC99C"/>
			<stop  offset="0.7303" style="stop-color:#B38225"/>
			<stop  offset="0.9335" style="stop-color:#DEBF81"/>
			<stop  offset="0.9494" style="stop-color:#E2C488"/>
			<stop  offset="1" style="stop-color:#E2C488"/>
		</linearGradient>
		<use xlink:href="#SVGID_29_"  overflow="visible" fill="url(#SVGID_30_)"/>
		<clipPath id="SVGID_31_">
			<use xlink:href="#SVGID_29_"  overflow="visible"/>
		</clipPath>
		
			<linearGradient id="SVGID_32_" gradientUnits="userSpaceOnUse" x1="-131.4736" y1="-773.1084" x2="-131.3446" y2="-773.1084" gradientTransform="matrix(1282.5072 0 0 1282.5072 168688 991630.0625)">
			<stop  offset="0" style="stop-color:#E3C783"/>
			<stop  offset="5.618000e-03" style="stop-color:#E3C783"/>
			<stop  offset="0.1854" style="stop-color:#E9D590"/>
			<stop  offset="0.4101" style="stop-color:#DEC99C"/>
			<stop  offset="0.7303" style="stop-color:#B38225"/>
			<stop  offset="0.9335" style="stop-color:#DEBF81"/>
			<stop  offset="0.9494" style="stop-color:#E2C488"/>
			<stop  offset="1" style="stop-color:#E2C488"/>
		</linearGradient>
		<rect x="72.09" y="66.63" clip-path="url(#SVGID_31_)" fill="url(#SVGID_32_)" width="165.93" height="92.78"/>
	</g>
</g>
</svg>
