<?xml version="1.0" encoding="utf-8"?>
<!-- Generator: Adobe Illustrator 19.2.0, SVG Export Plug-In . SVG Version: 6.00 Build 0)  -->
<svg version="1.1" baseProfile="tiny" id="Layer_1" xmlns="http://www.w3.org/2000/svg" xmlns:xlink="http://www.w3.org/1999/xlink"
	 x="0px" y="0px" viewBox="0 0 300 180" xml:space="preserve">
<g>
	<path fill="#DCE4A5" d="M116.05,117.08c-7.64,0-15.25,0-22.94,0c0-2.27,0-4.52,0-6.77c-0.05-0.02-0.1-0.05-0.16-0.07
		c-0.14,0.15-0.3,0.28-0.43,0.45c-1.4,1.83-2.91,3.55-4.87,4.83c-2.14,1.4-4.49,2.2-6.98,2.66c-2.4,0.44-4.82,0.55-7.25,0.47
		c-3.91-0.13-7.56-1.17-10.92-3.2c-3.91-2.36-6.83-5.66-9.09-9.59c-2.4-4.18-3.88-8.67-4.59-13.42c-0.25-1.64-0.41-3.31-0.48-4.96
		c-0.08-1.76-0.09-3.53,0.01-5.29c0.28-4.62,1.09-9.15,2.82-13.47c1.28-3.2,3.02-6.12,5.42-8.63c3.28-3.43,7.28-5.48,11.88-6.46
		c2.68-0.57,5.4-0.73,8.11-0.56c3.54,0.22,6.86,1.24,9.9,3.12c2.11,1.31,3.88,2.97,5.33,4.97c0.08,0.11,0.18,0.19,0.27,0.29
		c0.04-0.02,0.08-0.03,0.12-0.05c0-10.09,0-20.18,0-30.31c7.98,0,15.89,0,23.84,0C116.05,59.73,116.05,88.38,116.05,117.08z
		 M93.13,85.16c-0.07-0.83-0.16-2.25-0.31-3.66c-0.23-2.22-0.77-4.37-1.85-6.34c-1.02-1.86-2.44-3.3-4.44-4.1
		c-1.9-0.76-3.87-0.87-5.87-0.55c-1.27,0.2-2.47,0.63-3.54,1.38c-1.91,1.32-3.04,3.19-3.79,5.33c-0.92,2.63-1.15,5.36-1.22,8.11
		c-0.03,1.24,0.08,2.49,0.17,3.73c0.13,1.94,0.48,3.85,1.17,5.68c0.8,2.12,1.95,3.99,3.93,5.21c1.22,0.75,2.54,1.17,3.97,1.31
		c2.11,0.2,4.14-0.02,6.02-1.05c2.31-1.26,3.63-3.3,4.48-5.71C92.85,91.67,93.05,88.72,93.13,85.16z"/>
	<path fill="#DCE4A5" d="M150.41,73.45c-7.37,0-14.72,0-22.1,0c0.14-4.31,1.3-8.25,4-11.64c1.45-1.82,3.25-3.24,5.27-4.39
		c3.31-1.88,6.91-2.89,10.64-3.52c2.54-0.43,5.09-0.73,7.66-0.77c2.82-0.05,5.64-0.15,8.46-0.06c3.78,0.11,7.55,0.51,11.23,1.44
		c2.62,0.66,5.14,1.57,7.42,3.06c3.3,2.15,5.4,5.14,6.27,8.96c0.35,1.55,0.65,3.15,0.68,4.74c0.13,6.26,0.17,12.51,0.2,18.77
		c0.03,5.13,0,10.25,0.01,15.38c0.01,2.7,0.28,5.37,1.11,7.94c0.41,1.27,1.02,2.47,1.55,3.72c-0.03,0-0.17,0.02-0.3,0.02
		c-7.79,0-15.58,0-23.36,0.01c-0.37,0-0.58-0.08-0.65-0.47c-0.21-1.17-0.45-2.34-0.64-3.52c-0.09-0.6-0.09-1.22-0.14-1.94
		c-0.2,0.15-0.36,0.24-0.47,0.37c-1.8,2.02-3.96,3.52-6.4,4.65c-2.46,1.13-5.06,1.77-7.74,2.14c-2.61,0.36-5.24,0.43-7.86,0.28
		c-3.05-0.17-6.03-0.74-8.87-1.91c-2.44-1.01-4.64-2.39-6.45-4.32c-2.32-2.47-3.64-5.43-4.23-8.75c-0.32-1.82-0.38-3.65-0.26-5.47
		c0.22-3.56,1.3-6.82,3.62-9.6c1.96-2.35,4.45-3.94,7.21-5.16c3.49-1.54,7.18-2.39,10.92-3.01c2.55-0.42,5.12-0.72,7.67-1.09
		c2.76-0.41,5.56-0.65,8.25-1.46c1.47-0.44,2.82-1.11,3.57-2.56c1.07-2.09,0.67-5.36-1.9-6.86c-1.37-0.81-2.85-1.18-4.43-1.28
		c-1.96-0.13-3.88,0-5.73,0.69c-2.31,0.86-3.77,2.46-4.08,4.97C150.52,73.02,150.46,73.22,150.41,73.45z M167.2,89.08
		c-0.54,0.23-1.02,0.45-1.51,0.65c-2.43,1-4.97,1.66-7.53,2.24c-1.88,0.42-3.75,0.87-5.48,1.76c-2.48,1.29-3.28,3.58-2.79,6.04
		c0.34,1.7,1.53,2.82,2.97,3.67c1.89,1.11,3.94,1.28,6.06,1c4.03-0.52,6.91-3.09,7.91-6.99c0.4-1.56,0.38-3.14,0.37-4.73
		C167.2,91.53,167.2,90.33,167.2,89.08z"/>
	<path fill="#DCE4A5" d="M226.67,117.08c-7.97,0-15.87,0-23.81,0c0-20.81,0-41.61,0-62.45c7.59,0,15.18,0,22.87,0
		c0,3.31,0,6.6,0,9.89c0.05,0.01,0.1,0.03,0.15,0.04c0.1-0.15,0.2-0.3,0.29-0.46c1.31-2.4,2.81-4.66,4.81-6.55
		c2.26-2.13,4.93-3.47,7.97-4.11c2.09-0.44,4.22-0.52,6.33-0.36c1.63,0.13,3.25,0.52,4.87,0.79c0.25,0.04,0.39,0.12,0.39,0.43
		c-0.01,6.83-0.01,13.66-0.01,20.49c0,0.06-0.02,0.13-0.03,0.24c-0.72-0.23-1.42-0.46-2.13-0.67c-1.65-0.47-3.34-0.7-5.06-0.81
		c-2.16-0.14-4.3-0.1-6.42,0.39c-4.2,0.97-6.98,3.58-8.54,7.55c-0.83,2.12-1.32,4.33-1.46,6.6c-0.12,1.84-0.19,3.69-0.2,5.53
		c-0.02,7.61-0.01,15.22-0.01,22.83C226.67,116.64,226.67,116.83,226.67,117.08z"/>
	<path fill="#DCE4A5" d="M135.68,32.32c6.83,0,13.6,0,20.4,0c0,5.21,0,10.39,0,15.61c-6.8,0-13.59,0-20.4,0
		C135.68,42.72,135.68,37.54,135.68,32.32z"/>
	<path fill="#DCE4A5" d="M183.45,32.33c0,5.21,0,10.38,0,15.59c-6.8,0-13.58,0-20.4,0c0-5.19,0-10.37,0-15.59
		C169.83,32.33,176.61,32.33,183.45,32.33z"/>
	<path fill="#034D3F" d="M179.42,133.69c0-0.66,0-1.32,0-2c0.81,0,1.59,0,2.4,0c0.01,0.13,0.02,0.27,0.02,0.41
		c0,4.64,0.02,9.27-0.01,13.91c-0.01,0.96-0.12,1.95-0.34,2.88c-0.56,2.39-2.07,3.9-4.49,4.44c-1.86,0.41-3.71,0.38-5.51-0.24
		c-1.68-0.57-2.91-1.61-3.26-3.45c-0.04-0.19-0.04-0.38-0.07-0.61c0.86,0,1.7,0,2.56,0c0.2,1.37,1.19,1.94,2.4,2.28
		c0.9,0.25,1.82,0.3,2.75,0.12c1.89-0.37,3.1-1.74,3.41-3.93c0.13-0.89,0.11-1.81,0.16-2.71c0-0.04,0-0.08-0.01-0.13
		c-0.02,0.02-0.04,0.04-0.07,0.06c-1.24,2.34-3.83,3.04-6.22,2.61c-2.22-0.4-3.84-1.65-4.73-3.71c-1.31-3.03-1.2-6.08,0.37-8.99
		c1.46-2.71,4.78-3.98,7.73-3.08c1.23,0.38,2.15,1.15,2.85,2.2c0.02,0.02,0.04,0.04,0.05,0.06
		C179.41,133.77,179.41,133.73,179.42,133.69z M170.29,139.25c-0.02,1.1,0.13,2.17,0.53,3.19c0.61,1.55,1.69,2.56,3.41,2.69
		c1.86,0.15,3.33-0.53,4.19-2.21c1.14-2.24,1.22-4.58,0.25-6.9c-0.67-1.6-1.96-2.42-3.7-2.45c-1.77-0.03-3.14,0.68-3.97,2.29
		C170.45,136.93,170.27,138.07,170.29,139.25z"/>
	<path fill="#034D3F" d="M139.45,149.01c0.89,0,1.71,0,2.57,0c0.19,1.34,1.13,1.92,2.3,2.27c0.93,0.27,1.89,0.33,2.84,0.14
		c1.83-0.35,3.03-1.65,3.38-3.74c0.16-0.98,0.19-1.99,0.27-2.98c-0.04-0.01-0.08-0.02-0.12-0.03c-0.06,0.1-0.12,0.2-0.18,0.3
		c-1.22,1.96-3.08,2.59-5.26,2.45c-3.78-0.25-5.77-2.98-6.26-6.23c-0.32-2.13-0.09-4.21,0.87-6.16c1.57-3.18,5.45-4.64,8.59-3.24
		c0.96,0.43,1.69,1.11,2.29,2.11c0-0.81,0-1.49,0-2.2c0.82,0,1.61,0,2.44,0c0,0.15,0,0.3,0,0.44c0,4.59,0.02,9.18-0.02,13.77
		c-0.01,1.01-0.13,2.05-0.36,3.03c-0.57,2.4-2.11,3.89-4.53,4.41c-2.08,0.44-4.13,0.37-6.1-0.51
		C140.54,152.1,139.59,150.86,139.45,149.01z M150.62,139.02c-0.02-0.25-0.03-0.69-0.1-1.12c-0.06-0.41-0.15-0.83-0.28-1.23
		c-0.62-1.96-2.06-3.07-3.99-3.09c-2.03-0.03-3.59,1.04-4.24,2.99c-0.65,1.97-0.59,3.96,0.14,5.9c0.59,1.57,1.7,2.54,3.43,2.67
		c1.86,0.14,3.28-0.59,4.19-2.24C150.39,141.75,150.59,140.49,150.62,139.02z"/>
	<path fill="#034D3F" d="M76.29,144.7c-2.01,3.87-8.88,3.76-11.01-0.91c-1.45-3.19-1.33-6.38,0.43-9.41
		c1.51-2.6,4.92-3.76,7.77-2.77c1.13,0.39,2.01,1.1,2.69,2.23c0-0.78,0-1.45,0-2.15c0.85,0,1.64,0,2.46,0c0,0.18,0,0.34,0,0.5
		c0,4.59,0.02,9.18-0.02,13.77c-0.01,1.04-0.14,2.11-0.39,3.12c-0.58,2.32-2.1,3.74-4.44,4.25c-2.02,0.44-4.03,0.39-5.97-0.42
		c-1.7-0.71-2.74-1.95-2.88-3.88c0.87,0,1.7,0,2.56,0c0.17,1.23,1.01,1.83,2.08,2.19c0.99,0.33,2,0.41,3.02,0.21
		c1.93-0.36,2.97-1.65,3.35-3.47C76.17,146.89,76.18,145.79,76.29,144.7z M67.06,139.65c0.05,0.39,0.1,1.14,0.27,1.86
		c0.36,1.55,1.08,2.85,2.7,3.42c2.04,0.72,4.19-0.08,5.18-2.01c1.16-2.26,1.23-4.61,0.23-6.94c-0.67-1.58-1.96-2.38-3.68-2.4
		c-1.75-0.03-3.11,0.67-3.95,2.24C67.23,136.91,67.08,138.09,67.06,139.65z"/>
	<path fill="#034D3F" d="M238.46,145.29c0,2.61,0,5.24,0,7.9c-0.84,0-1.68,0-2.54,0c0-7.14,0-14.3,0-21.49c0.83,0,1.65,0,2.52,0
		c0,0.65,0,1.32,0,2.08c1.66-2.46,4.02-2.74,6.55-2.32c2.56,0.43,4.22,2.04,5.06,4.46c0.98,2.81,0.91,5.62-0.49,8.29
		c-2.06,3.94-7.02,4.13-9.65,2.37C239.38,146.22,238.95,145.73,238.46,145.29z M248.04,139.45c-0.09-1.27-0.31-2.48-0.94-3.57
		c-0.91-1.6-2.33-2.35-4.15-2.29c-1.84,0.06-3.19,0.93-3.92,2.63c-0.92,2.11-0.92,4.27-0.05,6.39c0.79,1.93,2.45,2.85,4.69,2.74
		c1.84-0.09,3.24-1.2,3.83-3.13C247.77,141.31,247.87,140.37,248.04,139.45z"/>
	<path fill="#054F40" d="M86.57,147.23c-0.88,0-1.71,0-2.57,0c0-7.17,0-14.31,0-21.48c0.84,0,1.68,0,2.55,0c0,2.69,0,5.37,0,8.05
		c0.06,0,0.11,0.01,0.12,0c0.95-1.68,2.51-2.32,4.32-2.47c0.7-0.06,1.43-0.01,2.13,0.12c2.15,0.4,3.4,1.8,3.68,4.06
		c0.06,0.47,0.1,0.94,0.1,1.41c0.01,3.42,0,6.84,0,10.3c-0.84,0-1.68,0-2.58,0c0-0.15,0-0.32,0-0.49c0-3.31,0-6.62,0-9.93
		c0-1.56-0.65-2.58-1.89-3.03c-2.34-0.84-4.98,0.51-5.62,2.91c-0.16,0.59-0.22,1.21-0.22,1.82c-0.02,2.74-0.01,5.48-0.01,8.22
		C86.57,146.9,86.57,147.05,86.57,147.23z"/>
	<path fill="#034D3F" d="M205.46,147.63c-4.13-0.01-7.08-2.71-7.49-6.84c-0.14-1.44-0.08-2.85,0.33-4.24
		c0.98-3.36,3.64-5.28,7.23-5.25c4.12,0.03,7.01,2.68,7.44,6.78c0.15,1.47,0.09,2.92-0.33,4.33
		C211.66,145.71,209,147.63,205.46,147.63z M210.41,139.68c-0.15-0.94-0.21-1.7-0.41-2.43c-0.58-2.19-2.24-3.56-4.36-3.67
		c-1.99-0.1-3.76,1.06-4.52,3.05c-0.74,1.94-0.75,3.92,0.06,5.83c0.79,1.85,2.23,2.88,4.28,2.88c2.05-0.01,3.5-1.03,4.25-2.9
		C210.09,141.52,210.22,140.5,210.41,139.68z"/>
	<path fill="#054F40" d="M220.13,131.69c0,3.46,0.05,6.85-0.02,10.24c-0.05,2.25,1.34,3.73,3.99,3.35c2.31-0.33,3.71-1.96,3.75-4.41
		c0.05-2.87,0.02-5.74,0.02-8.61c0-0.18,0-0.36,0-0.57c0.87,0,1.71,0,2.58,0c0,5.17,0,10.33,0,15.52c-0.79,0-1.57,0-2.39,0
		c0-0.77,0-1.56,0-2.38c-0.08,0.04-0.14,0.05-0.16,0.08c-1.1,1.87-2.8,2.68-4.9,2.7c-0.64,0.01-1.3-0.06-1.93-0.2
		c-1.99-0.45-3.17-1.85-3.43-4.03c-0.06-0.53-0.1-1.07-0.1-1.6c-0.01-3.19,0-6.39,0-9.58c0-0.16,0-0.32,0-0.51
		C218.41,131.69,219.25,131.69,220.13,131.69z"/>
	<path fill="#034D3F" d="M124.02,147.24c-0.89,0-1.71,0-2.55,0c0-5.19,0-10.36,0-15.55c0.79,0,1.58,0,2.41,0c0,0.8,0,1.58,0,2.36
		c0.05,0,0.08,0.01,0.08,0c1.52-2.65,4.33-3.12,6.96-2.53c1.98,0.45,3.19,1.97,3.37,4.24c0.08,1.02,0.08,2.04,0.08,3.06
		c0.01,2.79,0,5.58,0,8.4c-0.85,0-1.68,0-2.59,0c0-0.13,0-0.29,0-0.44c0-3.21-0.07-6.42,0.02-9.63c0.08-2.74-1.72-3.97-4.31-3.46
		c-2,0.39-3.31,1.88-3.4,4c-0.09,2.09-0.05,4.18-0.06,6.27C124.01,145.04,124.02,146.12,124.02,147.24z"/>
	<path fill="#034D3F" d="M108.9,144.95c0,0.83,0,1.55,0,2.36c-1.2-0.05-2.39-0.04-3.55-0.17c-1.21-0.14-1.83-0.83-2-2.04
		c-0.07-0.5-0.09-1-0.1-1.5c-0.01-3.2,0-6.39,0-9.64c-0.88,0-1.74,0-2.62,0c0-0.78,0-1.5,0-2.27c0.86,0,1.71,0,2.61,0
		c0-1.57,0-3.1,0-4.66c0.88,0,1.72,0,2.59,0c0,1.54,0,3.06,0,4.64c1.05,0,2.06,0,3.09,0c0,0.78,0,1.51,0,2.27c-1.02,0-2.02,0-3.05,0
		c-0.01,0.15-0.03,0.27-0.03,0.4c0,3.03,0,6.07,0,9.1c0,0.15,0,0.29,0.01,0.44c0.05,0.76,0.31,1.04,1.09,1.08
		C107.57,144.97,108.22,144.95,108.9,144.95z"/>
	<path fill="#DCE4A5" d="M253.73,41.38c-0.02-4.77,3.72-8.78,8.8-8.77c5.02,0.01,8.83,3.85,8.81,8.87
		c-0.02,4.86-3.81,8.74-8.89,8.74C257.61,50.22,253.64,46.26,253.73,41.38z M262.53,33.75c-4.29-0.02-7.69,3.29-7.71,7.64
		c-0.01,4.3,3.23,7.65,7.64,7.73c4.26,0.08,7.71-3.4,7.73-7.64C270.22,37.16,266.83,33.73,262.53,33.75z"/>
	<path fill="#034D3F" d="M189.62,134.84c0.22-0.37,0.43-0.76,0.67-1.12c1.19-1.72,2.84-2.52,4.99-2.41c0,0.88,0,1.76,0,2.67
		c-0.49,0.05-1.01,0.08-1.51,0.17c-2.37,0.44-3.8,2.01-3.98,4.59c-0.13,1.89-0.09,3.79-0.11,5.68c-0.01,0.92,0,1.84,0,2.79
		c-0.86,0-1.69,0-2.55,0c0-5.17,0-10.34,0-15.53c0.79,0,1.58,0,2.41,0c0,1.03,0,2.05,0,3.07c0,0.04-0.01,0.08-0.01,0.11
		C189.56,134.87,189.59,134.85,189.62,134.84z"/>
	<path fill="#054F40" d="M48.97,125.75c0.84,0,1.68,0,2.54,0c0,7.16,0,14.3,0,21.48c-0.84,0-1.67,0-2.54,0
		C48.97,140.08,48.97,132.92,48.97,125.75z"/>
	<path fill="#054F40" d="M113.42,131.69c0.84,0,1.68,0,2.54,0c0,5.18,0,10.34,0,15.54c-0.83,0-1.67,0-2.54,0
		C113.42,142.06,113.42,136.89,113.42,131.69z"/>
	<path fill="#054F40" d="M57.16,131.69c0.84,0,1.67,0,2.53,0c0,5.17,0,10.33,0,15.53c-0.83,0-1.66,0-2.53,0
		C57.16,142.06,57.16,136.89,57.16,131.69z"/>
	<path fill="#054F40" d="M113.41,128.84c0-1.04,0-2.05,0-3.09c0.85,0,1.69,0,2.55,0c0,1.02,0,2.04,0,3.09
		C115.12,128.84,114.29,128.84,113.41,128.84z"/>
	<path fill="#054F40" d="M57.16,125.75c0.84,0,1.67,0,2.53,0c0,1.02,0,2.04,0,3.09c-0.83,0-1.66,0-2.53,0
		C57.16,127.83,57.16,126.8,57.16,125.75z"/>
	<path fill="#FEFEFE" d="M179.42,133.69c0,0.04-0.01,0.08-0.01,0.12c-0.02-0.02-0.04-0.04-0.05-0.06
		C179.37,133.73,179.39,133.71,179.42,133.69z"/>
	<path fill="#FEFEFE" d="M179.34,144.72c0.02-0.02,0.04-0.04,0.07-0.06c0,0.04,0,0.08,0.01,0.13
		C179.39,144.76,179.37,144.74,179.34,144.72z"/>
	<path fill="#FEFEFE" d="M189.62,134.84c-0.03,0.01-0.06,0.02-0.1,0.04c0-0.04,0.01-0.08,0.01-0.11
		C189.56,134.79,189.59,134.82,189.62,134.84z"/>
	<path fill="#DCE4A5" d="M264.56,41.72c0.62,1.11,1.24,2.28,1.92,3.42c0.17,0.29,0.51,0.48,0.77,0.73c0.09,0.09,0.15,0.21,0.23,0.32
		c-0.12,0.05-0.24,0.14-0.36,0.14c-0.76,0.01-1.53,0.03-2.29-0.01c-0.18-0.01-0.42-0.16-0.51-0.32c-0.7-1.22-1.38-2.46-2.06-3.69
		c-0.08-0.14-0.14-0.31-0.26-0.41c-0.11-0.09-0.29-0.14-0.43-0.12c-0.09,0.02-0.2,0.2-0.2,0.31c0.01,0.99,0.03,1.97,0.09,2.96
		c0.03,0.51,0.37,0.74,1.06,0.87c0.13,0.02,0.25,0.13,0.37,0.2c-0.14,0.07-0.27,0.2-0.41,0.2c-1.48,0.01-2.95,0.01-4.43,0
		c-0.14,0-0.27-0.13-0.41-0.2c0.12-0.07,0.24-0.17,0.37-0.2c0.62-0.15,0.88-0.42,0.89-1.14c0.02-2.35,0.01-4.7,0-7.06
		c0-0.51-0.26-0.85-0.8-0.95c-0.1-0.02-0.18-0.16-0.27-0.25c0.08-0.07,0.17-0.21,0.25-0.21c2.17,0.05,4.35-0.21,6.5,0.19
		c2.04,0.38,2.85,2.69,1.46,4.24C265.67,41.14,265.11,41.36,264.56,41.72z M261.37,41.09c0.96,0.26,1.74,0.03,2.22-0.65
		c0.56-0.79,0.63-2.01,0.14-2.75c-0.45-0.68-1.37-0.98-2.36-0.74C261.37,38.33,261.37,39.71,261.37,41.09z"/>
</g>
</svg>
