<?xml version="1.0" encoding="utf-8"?>
<!-- Generator: Adobe Illustrator 19.2.0, SVG Export Plug-In . SVG Version: 6.00 Build 0)  -->
<svg version="1.1" baseProfile="tiny" id="Layer_1" xmlns="http://www.w3.org/2000/svg" xmlns:xlink="http://www.w3.org/1999/xlink"
	 x="0px" y="0px" viewBox="0 0 300 180" xml:space="preserve">
<g>
	<path d="M20.65,95.49c0.16-0.88,0.29-1.77,0.47-2.64c1.41-6.56,2.83-13.12,4.24-19.68c0.15-0.67,0.3-1.36,0.45-2.05
		c3.26,0,6.51,0,9.82,0c-0.24,1.11-0.46,2.18-0.7,3.25c-1.43,6.65-2.87,13.28-4.28,19.92c-0.14,0.65-0.17,1.34-0.17,2
		c0.01,1.1,0.62,1.79,1.69,2.02c1.38,0.3,2.64,0.01,3.78-0.78c0.41-0.29,0.8-0.63,1.16-1c0.9-0.91,1.39-1.92,1.44-3.29
		c0.21-5.85,1.97-11.23,5.48-15.97c1.62-2.19,3.53-4.07,6.06-5.23c2.66-1.23,5.44-1.56,8.31-1.05c1.57,0.27,2.79,1.05,3.15,2.75
		c0.01,0.02,0.06,0.05,0.12,0.11c1.07-4.93,2.14-9.84,3.21-14.78c3.35-0.45,6.67-0.88,10.07-1.33c-0.15,0.7-0.27,1.34-0.41,1.99
		c-2.44,11.24-4.89,22.49-7.32,33.73c-0.2,0.91-0.32,1.85-0.36,2.78c-0.05,1.13,0.57,1.84,1.68,2.08c1.64,0.35,3.1-0.04,4.26-1.27
		c0.49-0.51,0.86-1.13,1.24-1.74c0.14-0.22,0.2-0.54,0.2-0.81c0.01-5.87,1.62-11.29,4.75-16.23c2.35-3.72,5.66-6.23,9.96-7.36
		c2.35-0.61,4.74-0.54,7.09,0.06c2.3,0.58,3.76,2.26,4.04,4.62c0.44,3.6-0.57,6.77-2.99,9.45c-2.95,3.29-6.66,5.2-11.03,5.81
		c-0.5,0.07-1.01,0.12-1.54,0.19c-0.17,1.78-0.29,3.51,0.07,5.26c0.35,1.7,1.46,2.63,3.1,2.86c2.9,0.4,5.65-0.1,8.15-1.72
		c1.62-1.05,3.04-2.35,4.36-3.75c0.17-0.17,0.25-0.5,0.26-0.76c0.26-4.79,1.58-9.27,3.99-13.42c1.05-1.79,2.33-3.41,3.82-4.84
		c2.78-2.68,6.1-3.95,9.94-3.83c0.75,0.02,1.52,0.09,2.25,0.24c1.67,0.34,2.83,1.23,3.11,3.05c0.21-1,0.42-1.98,0.63-2.96
		c3.29,0,6.51,0,9.81,0c-0.26,1.23-0.51,2.43-0.77,3.62c-1.42,6.6-2.86,13.19-4.26,19.8c-0.15,0.71-0.15,1.47-0.07,2.19
		c0.11,1.17,0.92,1.9,2.09,2.04c1.39,0.17,2.59-0.25,3.55-1.27c1.22-1.32,1.98-2.87,2.36-4.63c0.85-3.93,1.7-7.85,2.56-11.79
		c1.58-7.23,3.16-14.46,4.74-21.7c0.02-0.14,0.07-0.27,0.12-0.45c3.31-0.44,6.63-0.87,10.01-1.32c-0.01,0.16-0.01,0.3-0.04,0.42
		c-2.03,9.37-4.07,18.74-6.1,28.1c-0.62,2.85-1.23,5.7-1.83,8.56c-0.09,0.44-0.1,0.9-0.07,1.34c0.06,1.27,0.97,2.18,2.24,2.23
		c0.45,0.02,0.9,0.01,1.34-0.05c0.42-0.05,0.83-0.17,1.36-0.3c-0.04,0.35-0.07,0.67-0.12,1.01c-0.62,3.88-3.83,5.77-6.87,5.95
		c-1.37,0.07-2.69-0.12-3.93-0.73c-1.75-0.85-2.92-2.19-3.42-4.08c-0.06-0.24-0.12-0.47-0.2-0.81c-0.24,0.3-0.44,0.55-0.63,0.8
		c-1.69,2.1-3.76,3.67-6.41,4.39c-1.63,0.45-3.3,0.57-4.98,0.31c-2.56-0.4-4.27-2.09-4.84-4.79c-0.07-0.34-0.12-0.67-0.21-1.13
		c-0.22,0.27-0.39,0.46-0.54,0.66c-1.58,1.98-3.4,3.63-5.79,4.6c-2.07,0.83-4.19,1.03-6.37,0.54c-2.96-0.67-4.73-2.68-5.74-5.43
		c-0.26-0.72-0.44-1.48-0.67-2.31c-0.25,0.27-0.46,0.52-0.68,0.77c-2.17,2.41-4.64,4.43-7.64,5.71c-3.57,1.52-7.28,1.98-11.08,1.03
		c-2.95-0.73-5.16-2.38-6.17-5.38c-0.01-0.04-0.05-0.06-0.11-0.15c-0.19,0.24-0.35,0.45-0.52,0.66c-1.93,2.41-4.32,4.08-7.39,4.69
		c-1.39,0.27-2.8,0.36-4.21,0.11c-2.74-0.49-4.34-2.05-4.92-4.77c-0.05-0.22-0.09-0.44-0.16-0.76c-0.17,0.22-0.3,0.39-0.42,0.55
		c-0.97,1.33-2.08,2.53-3.42,3.47c-2.61,1.84-5.51,2.41-8.62,1.79c-2.46-0.5-4.22-1.97-5.35-4.18c-0.26-0.51-0.47-1.05-0.73-1.63
		c-0.19,0.25-0.37,0.47-0.55,0.7c-1.97,2.48-4.41,4.22-7.52,4.95c-1.57,0.36-3.15,0.56-4.74,0.27c-3.07-0.56-5.1-2.78-5.5-5.92
		c-0.02-0.17-0.07-0.35-0.12-0.52C20.65,97.36,20.65,96.42,20.65,95.49z M110.51,93.2c0,0.35-0.01,0.7,0,1.05
		c0.05,0.9,0.17,1.79,0.6,2.6c0.56,1.07,1.42,1.64,2.66,1.59c1.03-0.04,1.95-0.39,2.79-0.98c1.29-0.92,2.15-2.18,2.64-3.67
		c0.35-1.08,0.58-2.2,0.83-3.32c0.92-4.16,1.82-8.33,2.71-12.49c0.31-1.43-0.63-2.75-2.09-2.97c-1.43-0.21-2.71,0.15-3.72,1.14
		c-0.88,0.88-1.74,1.84-2.43,2.9C111.71,83.34,110.78,88.18,110.51,93.2z M48.52,93.61c0.1,0.62,0.17,1.68,0.46,2.66
		c0.5,1.67,1.95,2.48,3.65,2.05c1.98-0.5,3.39-1.72,4.29-3.55c0.44-0.9,0.58-1.85,0.78-2.81c1.01-4.75,2.07-9.48,3.09-14.24
		c0.07-0.34,0.04-0.75-0.09-1.06c-0.5-1.28-1.59-1.89-2.97-1.74c-1.37,0.15-2.5,0.78-3.37,1.8c-0.83,0.97-1.64,1.99-2.28,3.1
		C49.69,83.95,48.82,88.49,48.52,93.61z M85.06,87.84c0.75-0.15,1.38-0.24,2-0.41c4.64-1.36,8.21-6.52,7.87-11.35
		c-0.02-0.29-0.06-0.57-0.15-0.85c-0.26-0.9-0.96-1.38-1.87-1.14c-0.63,0.16-1.29,0.44-1.8,0.83c-0.63,0.5-1.18,1.13-1.66,1.79
		c-1.16,1.59-1.98,3.37-2.69,5.2C86.01,83.79,85.45,85.7,85.06,87.84z"/>
	<path d="M33.52,56.87c0.19,0.06,0.37,0.14,0.56,0.19c2.94,0.82,4.64,3.85,3.72,6.71c-0.65,2.03-2.13,3.21-4.19,3.61
		c-2.75,0.52-5.43-1.06-6.2-3.58c-0.91-3,0.92-6.12,3.99-6.81c0.1-0.02,0.19-0.07,0.27-0.11C32.3,56.87,32.91,56.87,33.52,56.87z"/>
	<path d="M285.43,84.09c-0.39,0-0.77,0-1.21,0c0-0.49,0-0.92,0-1.47c-0.87,0.75-1.74,1.24-2.74,1.51c-3.73,0.96-7.49-1.62-7.94-5.45
		c-0.36-3.2,1.08-5.97,3.82-7.12c2.43-1.02,4.79-0.72,7.03,0.62c0.14,0.09,0.25,0.2,0.4,0.31c-0.14,0.19-0.24,0.36-0.36,0.52
		c-0.1,0.12-0.2,0.25-0.22,0.29c-0.95-0.35-1.82-0.77-2.74-0.98c-2.55-0.58-4.92,0.5-6.01,2.66c-1.16,2.28-0.67,5.21,1.16,6.88
		c2.05,1.87,5.33,1.72,7.4-0.42c0.1-0.1,0.17-0.29,0.17-0.42c0.02-0.61,0.01-1.22,0.01-1.9c-0.76,0-1.48,0-2.22,0
		c0-0.41,0-0.75,0-1.12c1.17,0,2.31,0,3.45,0C285.43,79.99,285.43,82.03,285.43,84.09z"/>
	<path d="M265.53,82.04c0-3.65,0-7.21,0-10.83c0.41,0,0.81,0,1.23,0c0,4.27,0,8.52,0,12.86c-0.24,0-0.45-0.02-0.67,0
		c-0.41,0.05-0.66-0.11-0.91-0.45c-1.83-2.56-3.68-5.1-5.51-7.65c-0.63-0.9-1.26-1.8-1.9-2.75c0,3.61,0,7.18,0,10.8
		c-0.4,0-0.8,0-1.23,0c0-4.26,0-8.51,0-12.77c0.97-0.26,1.17-0.19,1.73,0.58c1.99,2.75,3.97,5.49,5.95,8.24
		C264.66,80.71,265.06,81.35,265.53,82.04z"/>
	<path d="M204.39,70.93c3.76,0,6.71,2.87,6.73,6.56c0.02,3.77-3,6.81-6.75,6.78c-3.73-0.02-6.71-3.02-6.7-6.77
		C197.68,73.83,200.65,70.93,204.39,70.93z M204.37,83.09c3,0.01,5.4-2.46,5.4-5.58c0-3-2.35-5.4-5.33-5.43
		c-3-0.02-5.39,2.38-5.4,5.41C199.03,80.6,201.39,83.08,204.37,83.09z"/>
	<path d="M166.07,104.67c0-4.32,0-8.56,0-12.84c0.17-0.02,0.32-0.06,0.47-0.06c1.38,0,2.78-0.01,4.16,0.01
		c1.67,0.04,3.19,0.51,4.41,1.69c1.58,1.53,2,3.48,1.77,5.56c-0.37,3.5-2.7,5.56-6.23,5.63
		C169.15,104.69,167.64,104.67,166.07,104.67z M167.41,92.98c0,3.5,0,6.99,0,10.62c1.42-0.06,2.83-0.01,4.18-0.22
		c2.08-0.32,3.39-1.62,3.83-3.7c0.14-0.61,0.17-1.26,0.15-1.88c-0.14-2.7-1.66-4.44-4.33-4.78
		C169.99,92.86,168.72,92.98,167.41,92.98z"/>
	<path d="M274.51,104.64c0-4.26,0-8.51,0-12.84c0.49,0,0.93-0.01,1.37,0c1.38,0.04,2.79-0.02,4.16,0.12
		c3.09,0.34,5.16,2.66,5.29,5.76c0.04,1.07-0.01,2.13-0.4,3.14c-0.88,2.36-2.68,3.57-5.09,3.8c-1.7,0.16-3.42,0.06-5.14,0.07
		C274.63,104.71,274.58,104.67,274.51,104.64z M275.78,103.55c1.24,0,2.43,0.07,3.61-0.01c2.31-0.19,3.91-1.52,4.39-3.62
		c0.17-0.76,0.22-1.58,0.16-2.36c-0.16-1.95-1.08-3.45-2.99-4.18c-1.68-0.65-3.41-0.35-5.16-0.42
		C275.78,96.52,275.78,100,275.78,103.55z"/>
	<path d="M180.83,71.14c0.42,0,0.81,0,1.24,0c0,1.93,0,3.83,0,5.8c2.55,0,5.05,0,7.64,0c0-1.89,0-3.82,0-5.77c0.47,0,0.85,0,1.28,0
		c0,4.27,0,8.54,0,12.86c-0.39,0-0.78,0-1.26,0c0-1.94,0-3.86,0-5.82c-2.58,0-5.08,0-7.63,0c0,1.94,0,3.86,0,5.81
		c-0.45,0-0.85,0-1.28,0C180.83,79.72,180.83,75.45,180.83,71.14z"/>
	<path d="M198.08,104.67c-0.56,0-1.01,0-1.48,0c-0.87-1.59-1.77-3.16-2.6-4.77c-0.25-0.49-0.54-0.67-1.08-0.65
		c-0.83,0.05-1.67,0.01-2.58,0.01c0,1.8,0,3.56,0,5.38c-0.46,0-0.86,0-1.28,0c0-4.26,0-8.51,0-12.79c0.14-0.02,0.25-0.05,0.36-0.05
		c1.47,0,2.94-0.02,4.41,0.02c2.94,0.09,4.53,3.05,3.05,5.6c-0.39,0.67-0.82,1.02-1.94,1.57c0.52,0.95,1.05,1.88,1.56,2.83
		C197.02,102.72,197.52,103.65,198.08,104.67z M190.35,98.06c1.26,0,2.43,0,3.61,0c0.12,0,0.24-0.04,0.36-0.07
		c1.43-0.42,2.13-2.04,1.54-3.58c-0.29-0.75-0.81-1.28-1.59-1.36c-1.28-0.12-2.59-0.12-3.92-0.19
		C190.35,94.65,190.35,96.33,190.35,98.06z"/>
	<path d="M219.08,79c0,1.73,0,3.36,0,5.03c-0.45,0-0.83,0-1.27,0c0-4.27,0-8.52,0-12.78c0.04-0.02,0.06-0.07,0.1-0.07
		c1.67,0,3.35-0.06,5.02,0.04c2.12,0.12,3.47,1.7,3.47,3.83c0,2.14-1.37,3.72-3.45,3.88c-1.02,0.09-2.04,0.05-3.06,0.06
		C219.65,79,219.4,79,219.08,79z M219.13,72.32c0,1.87,0,3.67,0,5.5c1.21,0,2.38,0.06,3.53-0.01c1.48-0.1,2.39-1.21,2.4-2.74
		c0.01-1.52-0.87-2.61-2.34-2.73C221.54,72.25,220.36,72.32,219.13,72.32z"/>
	<path d="M234,79.01c0,1.73,0,3.37,0,5.04c-0.45,0-0.83,0-1.24,0c0-4.28,0-8.54,0-12.84c0.14-0.01,0.3-0.05,0.45-0.05
		c1.37,0,2.74,0,4.09,0.01c0.36,0,0.73,0.04,1.1,0.12c2.02,0.47,3.06,1.98,2.92,4.18c-0.11,1.87-1.48,3.3-3.41,3.47
		c-1,0.09-1.99,0.05-3,0.06C234.65,79.01,234.38,79.01,234,79.01z M234.07,72.32c0,1.87,0,3.67,0,5.5c1.23,0,2.41,0.07,3.58-0.01
		c1.47-0.11,2.35-1.23,2.34-2.79c-0.01-1.52-0.91-2.58-2.39-2.68C236.45,72.26,235.28,72.32,234.07,72.32z"/>
	<path d="M225.47,102.04c0.24,0.27,0.46,0.56,0.7,0.83c-1.72,2.02-6.23,3.14-9.37,0.5c-2.79-2.35-3.11-6.92-0.68-9.63
		c2.9-3.25,7.79-2.4,9.72-0.49c-0.21,0.29-0.42,0.58-0.66,0.92c-1.64-1.22-3.45-1.7-5.43-1.24c-1.19,0.27-2.15,0.95-2.87,1.95
		c-1.56,2.15-1.29,5.41,0.57,7.33C219.2,104.01,222.57,104.5,225.47,102.04z"/>
	<path d="M209.05,97.6c0,0.41,0,0.75,0,1.16c-1.63,0-3.26,0-4.93,0c0,1.62,0,3.19,0,4.79c2.14,0,4.23,0,6.37,0c0,0.39,0,0.72,0,1.1
		c-2.53,0-5.08,0-7.65,0c0-4.26,0-8.51,0-12.81c2.43,0,4.87,0,7.34,0c0,0.35,0,0.68,0,1.07c-2.03,0-4.02,0-6.05,0
		c0,1.58,0,3.1,0,4.69C205.77,97.6,207.39,97.6,209.05,97.6z"/>
	<path d="M173.9,72.16c-0.21,0.35-0.41,0.67-0.62,1.03c-0.81-0.6-1.64-1.01-2.61-1.07c-0.82-0.05-1.59,0.1-2.24,0.63
		c-1.07,0.86-1.11,2.26,0,3.09c0.55,0.41,1.21,0.67,1.82,0.98c0.67,0.34,1.39,0.6,2.04,0.96c1.51,0.85,2.08,2.02,1.83,3.6
		c-0.21,1.37-1.33,2.49-2.92,2.76c-1.94,0.32-3.67-0.16-5.2-1.53c0.26-0.34,0.51-0.65,0.77-0.98c0.97,0.81,2,1.33,3.24,1.38
		c0.65,0.02,1.26-0.06,1.82-0.41c1.19-0.75,1.38-2.35,0.34-3.3c-0.39-0.35-0.86-0.62-1.33-0.86c-0.61-0.31-1.27-0.55-1.89-0.86
		c-0.47-0.24-0.96-0.47-1.38-0.78c-1.56-1.13-1.73-3.19-0.42-4.6c0.56-0.6,1.24-0.97,2.04-1.16
		C170.79,70.64,172.63,71.07,173.9,72.16z"/>
	<path d="M239.96,91.81c0,0.37,0,0.7,0,1.08c-1.53,0-3.05,0-4.64,0c0,3.95,0,7.83,0,11.76c-0.47,0-0.87,0-1.34,0
		c0-3.88,0-7.77,0-11.71c-1.59,0-3.11,0-4.69,0c0-0.4,0-0.76,0-1.13C232.83,91.81,236.35,91.81,239.96,91.81z"/>
	<path d="M264.43,92.95c-1.63,0-3.15,0-4.7,0c0-0.39,0-0.72,0-1.11c3.55,0,7.09,0,10.69,0c0,0.34,0,0.67,0,1.08
		c-1.54,0-3.09,0-4.68,0c0,3.96,0,7.83,0,11.74c-0.45,0-0.85,0-1.29,0C264.43,100.79,264.43,96.92,264.43,92.95z"/>
	<path d="M258.43,103.55c0,0.45,0,0.76,0,1.12c-2.45,0-4.87,0-7.34,0c0-4.27,0-8.52,0-12.83c0.19-0.01,0.39-0.02,0.57-0.04
		c0.2,0,0.4,0,0.65,0c0,3.92,0,7.79,0,11.75C254.37,103.55,256.39,103.55,258.43,103.55z"/>
	<path d="M181.97,91.81c0.42,0,0.8,0,1.21,0c0,4.29,0,8.55,0,12.83c-0.41,0-0.78,0-1.21,0C181.97,100.38,181.97,96.13,181.97,91.81z
		"/>
	<path d="M247.71,71.19c0.4,0,0.77,0,1.19,0c0,4.29,0,8.55,0,12.84c-0.39,0-0.77,0-1.19,0C247.71,79.78,247.71,75.5,247.71,71.19z"
		/>
</g>
</svg>
