<?xml version="1.0" encoding="utf-8"?>
<!-- Generator: Adobe Illustrator 19.2.0, SVG Export Plug-In . SVG Version: 6.00 Build 0)  -->
<svg version="1.1" baseProfile="tiny" id="Layer_1" xmlns="http://www.w3.org/2000/svg" xmlns:xlink="http://www.w3.org/1999/xlink"
	 x="0px" y="0px" viewBox="0 0 300 180" xml:space="preserve">
<g>
	<rect x="80.96" y="25.58" fill="#499C44" width="138.09" height="128.84"/>
	<g>
		<rect x="81.24" y="25.86" fill="none" width="137.52" height="128.28"/>
		<path fill="#FFFFFF" d="M80.68,154.7h138.65V25.3H80.68V154.7z M81.24,25.86h137.52v128.28H81.24V25.86z"/>
	</g>
	<g>
		<path fill="none" d="M169.53,134.16c0,2.64,2.27,4.81,4.89,4.81c2.67,0,4.9-2.18,4.9-4.86c0-2.68-2.22-4.89-4.9-4.89
			C171.7,129.22,169.53,131.46,169.53,134.16z"/>
		<path fill="none" d="M154.73,134.16c0,2.64,2.27,4.81,4.89,4.81c2.67,0,4.9-2.18,4.9-4.86c0-2.68-2.22-4.89-4.9-4.89
			C156.91,129.22,154.73,131.46,154.73,134.16z"/>
		<path fill="none" d="M147.78,130.3c-1.13-0.79-2.42-0.88-3.76-0.88h-1.65v9.35h1.9c1.34,0,2.55-0.1,3.67-0.92
			c1.17-0.85,1.79-2.34,1.79-3.76C149.72,132.58,149.02,131.15,147.78,130.3z"/>
		<path fill="none" d="M149.61,109.57c3.59,0.77,6.32,0.77,10.01,0.77c3.26,0,7.95-0.87,10.88-2.18c2.83-1.2,5.66-4.13,5.66-7.4
			c0-4.9-4.35-6.85-8.49-7.18c-2.07-0.22-4.13-0.33-6.2-0.33c-4.13,0-8.17,0.21-12.3,0.55c-3.81,1.74-6.97,4.46-6.97,9.03
			C142.21,106.85,146.24,108.81,149.61,109.57z"/>
		<path fill="none" d="M158.21,44.5c-7.73,0-11.32,6.31-11.32,13.39c0,7.51,3.15,13.71,11.43,13.71c7.73,0,10.99-6.52,10.99-13.5
			C169.31,50.48,166.91,44.5,158.21,44.5z"/>
		<path fill="none" d="M112.49,138.97c2.67,0,4.91-2.18,4.91-4.86c0-2.68-2.22-4.89-4.91-4.89c-2.71,0-4.89,2.24-4.89,4.93
			C107.6,136.79,109.87,138.97,112.49,138.97z"/>
		<path fill="#FFFFFF" d="M113.06,117.87c-2.97,0.25-3.63,0.03-6.6,0.15v3.38H186l4.78-27.11h-4.16c0,21.15-16.39,23.08-28.03,23.08
			c-19.79,0-27.46-4-27.46-13.82V50.81c0-1.24,0-2.72,0.37-3.97c0.25-0.61,0.5-1.49,1.11-1.85c1.36-0.99,3.09-1.12,4.7-1.12
			c2.6-0.13,3.02-0.13,5.61-0.13v-2.72h-36.46v2.72c3.59,0,5.12,0,8.7,0.63c0.5,0.37,1.25,0.62,1.61,1.23
			c0.75,0.87,0.87,1.98,0.87,3.09v62.12C117.64,114.53,117.64,117.62,113.06,117.87z"/>
		<path fill="#FFFFFF" d="M178.23,44.39c0.88-0.11,1.2-0.33,1.74,0.43c0.11,0.65,0.33,1.3,0.43,1.96c0.33,1.09,1.31,2.06,2.39,2.5
			c3.49,1.41,7.08-0.87,7.08-4.79c0-3.81-3.71-5.88-7.08-5.88c-4.24,0-7.61,2.94-10.55,5.77c-4.14-3.15-8.82-4.13-13.93-4.13
			c-5.01,0-10.22,1.09-14.37,4.13c-4.14,3.05-6.75,8.16-6.75,13.27c0,6.97,3.05,12.19,9.46,14.91l-0.98,0.33
			c-5.33,1.63-9.69,4.13-9.69,10.45c0,5.23,3.05,8.81,8.16,9.68l-0.98,0.33c-2.18,0.66-3.91,1.2-5.77,2.61
			c-1.96,1.74-4.02,4.24-4.02,6.86c0,11.42,17.18,11.85,25.35,11.85c11.31,0,24.81-3.69,24.81-17.4c0-7.19-5.22-12.08-12.19-12.3
			c-2.94-0.11-5.88-0.33-8.82-0.33c-2.18,0-4.24-0.11-6.43-0.11c-3.04,0-6.09-0.21-9.13-0.21c-2.51,0-4.03-1.42-4.03-4.03
			c0-4.79,7.18-4.68,10.56-4.79c5.87-0.11,11.75,0,17.09-2.94c5.66-3.16,8.38-8.38,8.38-14.91c0-3.8-0.98-7.94-4.03-10.56l1.85-1.85
			C177.25,44.93,177.8,44.72,178.23,44.39z M149.18,93.79c4.13-0.33,8.16-0.55,12.3-0.55c2.07,0,4.13,0.11,6.2,0.33
			c4.14,0.33,8.49,2.28,8.49,7.18c0,3.27-2.83,6.2-5.66,7.4c-2.94,1.31-7.62,2.18-10.88,2.18c-3.7,0-6.42,0-10.01-0.77
			c-3.37-0.76-7.4-2.72-7.4-6.74C142.21,98.25,145.37,95.54,149.18,93.79z M158.32,71.59c-8.28,0-11.43-6.2-11.43-13.71
			c0-7.08,3.59-13.39,11.32-13.39c8.71,0,11.1,5.99,11.1,13.6C169.31,65.07,166.05,71.59,158.32,71.59z"/>
		<path fill="#FFFFFF" d="M112.49,140c3.26,0,6.05-2.61,6.05-5.91c0-3.3-2.77-5.91-6.05-5.91c-3.32,0-6.03,2.64-6.03,5.97
			C106.46,137.41,109.3,140,112.49,140z M112.49,129.22c2.68,0,4.91,2.21,4.91,4.89c0,2.68-2.24,4.86-4.91,4.86
			c-2.62,0-4.89-2.18-4.89-4.81C107.6,131.46,109.78,129.22,112.49,129.22z"/>
		<path fill="#FFFFFF" d="M121.74,128.39v7.11c0,0.77,0.11,1.68,0.43,2.38c0.65,1.39,1.94,2.13,3.45,2.13
			c1.51,0,2.81-0.74,3.46-2.13c0.32-0.7,0.43-1.6,0.43-2.38v-7.11h-1.14v7.11c0,0.62-0.07,1.51-0.38,2.07
			c-0.51,0.93-1.31,1.4-2.36,1.4c-1.05,0-1.85-0.48-2.36-1.4c-0.31-0.55-0.39-1.45-0.39-2.07v-7.11H121.74z"/>
		<polygon fill="#FFFFFF" points="135.96,139.8 135.96,129.42 138.57,129.42 138.57,128.39 132.2,128.39 132.2,129.42 
			134.82,129.42 134.82,139.8 		"/>
		<path fill="#FFFFFF" d="M144.56,128.39h-3.33v11.41h3.33c1.2,0,2.68-0.28,3.72-0.94c1.59-1.03,2.59-2.84,2.59-4.73
			c0-1.91-0.97-3.77-2.59-4.8C147.24,128.67,145.78,128.39,144.56,128.39z M149.72,134.08c0,1.42-0.61,2.92-1.79,3.76
			c-1.13,0.82-2.33,0.92-3.67,0.92h-1.9v-9.35h1.65c1.34,0,2.64,0.09,3.76,0.88C149.02,131.15,149.72,132.58,149.72,134.08z"/>
		<path fill="#FFFFFF" d="M153.59,134.16c0,3.26,2.84,5.85,6.03,5.85c3.26,0,6.05-2.61,6.05-5.91c0-3.3-2.77-5.91-6.05-5.91
			C156.3,128.19,153.59,130.83,153.59,134.16z M164.53,134.11c0,2.68-2.24,4.86-4.9,4.86c-2.62,0-4.89-2.18-4.89-4.81
			c0-2.7,2.18-4.93,4.89-4.93C162.31,129.22,164.53,131.43,164.53,134.11z"/>
		<path fill="#FFFFFF" d="M168.39,134.16c0,3.26,2.84,5.85,6.03,5.85c3.25,0,6.05-2.61,6.05-5.91c0-3.3-2.78-5.91-6.05-5.91
			C171.1,128.19,168.39,130.83,168.39,134.16z M179.32,134.11c0,2.68-2.23,4.86-4.9,4.86c-2.62,0-4.89-2.18-4.89-4.81
			c0-2.7,2.18-4.93,4.89-4.93C177.1,129.22,179.32,131.43,179.32,134.11z"/>
		<path fill="#FFFFFF" d="M191.45,132.08c0-1.42-0.76-2.64-2.04-3.25c-0.8-0.39-1.94-0.43-2.8-0.43h-2.9v11.41h1.14v-10.38h1.99
			c0.8,0,1.51,0.05,2.22,0.43c0.77,0.41,1.25,1.32,1.25,2.19c0,1.19-0.77,2.08-1.88,2.42c-0.7,0.22-1.75,0.17-2.46,0.17l3.87,5.17
			h1.44l-3.23-4.26C189.96,135.42,191.45,134.02,191.45,132.08z"/>
	</g>
</g>
</svg>
