<?xml version="1.0" encoding="utf-8"?>
<!-- Generator: Adobe Illustrator 19.2.0, SVG Export Plug-In . SVG Version: 6.00 Build 0)  -->
<svg version="1.1" baseProfile="tiny" id="Layer_1" xmlns="http://www.w3.org/2000/svg" xmlns:xlink="http://www.w3.org/1999/xlink"
	 x="0px" y="0px" viewBox="0 0 300 180" xml:space="preserve">
<path fill="#C73238" d="M153.82,95.99v-9.43c0-4.6,3.73-8.33,8.33-8.33h0.87c3.53,0,3.53,5.29,0,5.29h-0.87
	c-1.68,0-3.04,1.36-3.04,3.04v9.43C159.1,99.51,153.82,99.51,153.82,95.99L153.82,95.99z"/>
<path fill="#C73238" d="M171.46,80.94l-0.01,15.05c0,3.53-5.29,3.52-5.29,0l0.01-15.05C166.17,77.41,171.46,77.42,171.46,80.94
	L171.46,80.94z"/>
<path fill="#C73238" d="M166.13,73.36c0-1.49,1.21-2.7,2.69-2.7c1.49,0,2.69,1.21,2.69,2.7c0,1.49-1.21,2.69-2.69,2.69
	C167.34,76.05,166.13,74.85,166.13,73.36L166.13,73.36z"/>
<path fill="#C73238" d="M231.3,95.99v-9.43c0-4.6,3.73-8.33,8.33-8.33h0.87c3.53,0,3.53,5.29,0,5.29h-0.87
	c-1.68,0-3.04,1.36-3.04,3.04v9.43C236.59,99.51,231.3,99.51,231.3,95.99L231.3,95.99z"/>
<path fill="#C73238" d="M190.45,93.86c-1.46,3.2-4.82,5.01-8.21,5.01c-5.58,0-9.82-4.78-9.82-10.33c0-5.54,4.24-10.32,9.82-10.32
	c3.39,0,6.75,1.81,8.21,5.01c1.39,3.05-3.19,5.14-4.58,2.09c-0.52-1.14-1.9-2.07-3.63-2.07c-2.49,0-4.79,2.2-4.79,5.28
	c0,3.08,2.3,5.29,4.79,5.29c1.73,0,3.11-0.92,3.63-2.07C187.26,88.72,191.84,90.81,190.45,93.86L190.45,93.86z"/>
<path fill="#C73238" d="M196.78,73.5v5.57c1.08-0.46,2.26-0.72,3.51-0.72c4.9,0,8.87,3.97,8.87,8.87v8.9c0,3.53-5.29,3.53-5.29,0
	v-8.9c0-1.98-1.6-3.58-3.58-3.58c-1.74,0-3.18,1.23-3.51,2.87v0.18v9.43c0,3.53-5.29,3.53-5.29,0V73.5
	C191.49,69.98,196.78,69.98,196.78,73.5L196.78,73.5z"/>
<path fill="#C73238" d="M251.56,98.67c-5.58,0-9.82-4.78-9.82-10.33s4.24-10.33,9.82-10.33c1.65,0,3.18,0.42,4.52,1.15v-5.45
	c0-3.53,5.29-3.53,5.29,0v14.19c0.01,0.14,0.01,0.29,0.01,0.44C261.38,93.89,257.14,98.67,251.56,98.67L251.56,98.67z M251.56,93.64
	c2.49,0,4.79-2.21,4.79-5.29c0-3.08-2.3-5.29-4.79-5.29c-2.49,0-4.79,2.21-4.79,5.29C246.77,91.43,249.07,93.64,251.56,93.64
	L251.56,93.64z"/>
<path fill="#C73238" d="M266.22,92.7c1.34,0.98,3.14,1.41,4.78,1.26c1.77-0.13,2.46-0.77,2.3-1.61c-0.19-0.97-3.25-1.49-3.59-1.55
	c-3.69-0.69-7.57-2.12-7.29-6.7c0.35-4.21,3.75-5.76,6.53-5.96c2.7-0.24,5.35,0.16,7.74,2.07c2.59,2.06-0.25,5.68-3.32,3.64
	c-1.5-1-2.87-1.02-4.02-0.92c-1.46,0.13-2.03,0.88-2.04,1.54c-0.02,1.19,2.7,1.44,3.25,1.54c3.7,0.63,7.96,2.03,7.63,6.75
	c-0.4,4.26-3.99,5.73-6.78,5.95c-2.82,0.26-5.72-0.47-8.03-2.15C260.72,94.6,263.55,90.75,266.22,92.7L266.22,92.7z"/>
<path fill="#C73238" d="M219.99,78.22c-5.61,0-9.88,4.81-9.88,10.39c0,5.71,4.4,10.09,9.88,10.09c1.72,0,3.91-0.68,5.03-1.54
	c0,0,0,0,0,0c0,0,0.06,0.15,0.07,0.15c1.02,2.12,4.78,1.73,4.78-1.18V88.7v-0.09C229.88,83.04,225.61,78.22,219.99,78.22z
	 M219.8,93.83c-2.65,0-4.85-1.95-4.85-5.21c0-3.12,2.33-5.36,4.85-5.36c2.52,0,4.9,2.24,4.9,5.36
	C224.7,91.96,222.63,93.83,219.8,93.83z"/>
<path fill="#C73238" d="M76.47,95.97v-9.83c0-4.8,3.89-8.69,8.69-8.69h0.91c3.68,0,3.68,5.52,0,5.52h-0.91
	c-1.75,0-3.17,1.42-3.17,3.17v9.83C81.99,99.65,76.47,99.65,76.47,95.97L76.47,95.97z"/>
<path fill="#C73238" d="M65.2,77.44c5.82,0,10.25,4.99,10.25,10.77c0,5.78-4.42,10.77-10.25,10.77c-5.82,0-10.25-4.99-10.25-10.77
	C54.96,82.43,59.38,77.44,65.2,77.44L65.2,77.44z M65.2,82.69c-2.6,0-4.99,2.3-4.99,5.52c0,3.22,2.4,5.52,4.99,5.52
	c2.6,0,4.99-2.3,4.99-5.52C70.2,84.99,67.8,82.69,65.2,82.69L65.2,82.69z"/>
<path fill="#C73238" d="M24.74,95.97v-9.83c0-4.8,3.89-8.69,8.69-8.69c2.29,0,4.38,0.89,5.93,2.34c1.55-1.45,3.64-2.34,5.93-2.34
	c4.8,0,8.69,3.89,8.69,8.69v9.83c0,3.68-5.52,3.68-5.52,0v-9.83c0-1.75-1.42-3.17-3.17-3.17c-1.75,0-3.17,1.42-3.17,3.17v9.83
	c0,3.68-5.52,3.68-5.52,0v-9.83c0-1.75-1.42-3.17-3.17-3.17c-1.75,0-3.17,1.42-3.17,3.17v9.83C30.26,99.65,24.74,99.65,24.74,95.97
	L24.74,95.97z"/>
<path fill="#C73238" d="M114.18,72.37v5.81c1.12-0.48,2.36-0.75,3.66-0.75c5.11,0,9.25,4.14,9.25,9.25v9.28c0,3.68-5.52,3.68-5.52,0
	v-9.28c0-2.06-1.67-3.73-3.73-3.73c-1.81,0-3.32,1.29-3.66,3v0.18v9.83c0,3.68-5.52,3.68-5.52,0V72.37
	C108.66,68.7,114.18,68.7,114.18,72.37L114.18,72.37z"/>
<path fill="#C73238" d="M140.94,103.91v-5.81c-1.12,0.48-2.36,0.75-3.66,0.75c-5.11,0-9.25-4.14-9.25-9.25v-9.28
	c0-3.68,5.52-3.68,5.52,0v9.28c0,2.06,1.67,3.73,3.73,3.73c1.81,0,3.32-1.29,3.66-3v-0.18v-9.83c0-3.68,5.52-3.68,5.52,0v23.59
	C146.46,107.59,140.94,107.59,140.94,103.91L140.94,103.91z"/>
<path fill="#C73238" d="M97.43,77.44c5.82,0,10.25,4.99,10.25,10.77c0,5.78-4.43,10.77-10.25,10.77c-1.73,0-3.34-0.44-4.75-1.21v5.7
	c0,3.68-5.52,3.68-5.52,0V88.21c0-0.16,0.01-0.3,0.02-0.43C87.41,82.18,91.76,77.44,97.43,77.44L97.43,77.44z M97.43,82.69
	c-2.6,0-4.99,2.3-4.99,5.52c0,3.22,2.4,5.52,4.99,5.52c2.6,0,4.99-2.3,4.99-5.52C102.43,84.99,100.03,82.69,97.43,82.69L97.43,82.69
	z"/>
<path fill-rule="evenodd" fill="#C73238" d="M276.58,75.52c0,1.38,1.11,2.42,2.43,2.42c1.31,0,2.42-1.04,2.42-2.42
	c0-1.36-1.1-2.4-2.42-2.4C277.69,73.13,276.58,74.17,276.58,75.52L276.58,75.52z M277.02,75.52c0-1.15,0.86-2.04,1.99-2.04
	c1.11,0,1.98,0.89,1.98,2.04c0,1.18-0.86,2.07-1.98,2.07C277.88,77.59,277.02,76.7,277.02,75.52L277.02,75.52z M278.07,76.94h0.44
	v-1.21h0.46l0.77,1.21h0.47l-0.81-1.24c0.42-0.05,0.74-0.26,0.74-0.77c0-0.54-0.32-0.81-0.99-0.81h-1.09V76.94L278.07,76.94z
	 M278.51,74.48h0.58c0.3,0,0.62,0.06,0.62,0.43c0,0.44-0.35,0.46-0.74,0.46h-0.46V74.48L278.51,74.48z"/>
</svg>
