<?xml version="1.0" encoding="utf-8"?>
<!-- Generator: Adobe Illustrator 19.2.0, SVG Export Plug-In . SVG Version: 6.00 Build 0)  -->
<svg version="1.1" baseProfile="tiny" id="Layer_1" xmlns="http://www.w3.org/2000/svg" xmlns:xlink="http://www.w3.org/1999/xlink"
	 x="0px" y="0px" viewBox="0 0 300 180" xml:space="preserve">
<g>
	<g>
		<path fill="#9B9B9B" d="M78.88,139.76c0,0.78-0.21,1.03-1.1,1.03h-4.7c-0.68,0-0.93-0.25-0.93-0.99v-14.11
			c0-1.32,0-1.98-0.63-2.64c-0.55-0.49-1.4-0.74-2.16-0.74c-2.71,0-2.75,2.15-2.75,3.38v14.2c0,0.78-0.38,0.87-1.1,0.91h-4.7
			c-0.76,0-0.93-0.29-0.97-1.03V123.3c0-1.49,0-2.85,4.1-3.84c1.82-0.45,4.06-0.66,5.75-0.66c4.65,0,6.22,0.95,6.77,1.32
			c2.37,1.44,2.41,3.38,2.41,4.58V139.76z"/>
		<path fill="#9B9B9B" d="M98.93,135.68c0,1.69-0.04,2.81-1.52,3.88c-1.23,0.87-4.02,1.77-7.74,1.77c-7.53,0-9.14-3.1-9.14-6.85
			v-14.32c0-0.74,0.47-0.78,0.93-0.78h4.78c0.55,0,1.06,0.04,1.06,0.87v13.95c0,1.03,0.04,2.76,2.54,2.76
			c2.28,0,2.33-1.49,2.33-2.48v-14.2c0-0.62,0.13-0.91,0.85-0.91h4.95c0.55,0,0.97,0.08,0.97,0.83V135.68z"/>
		<path fill="#9B9B9B" d="M109.93,122.1v11.84c0,1.36,0.04,3.63,2.83,3.8c0.68,0,1.78,0,1.78,1.28c0,1.32-2.54,2.31-4.99,2.31
			c-0.97,0-3.17-0.12-4.78-1.77c-1.4-1.49-1.44-3.1-1.44-4.54V122.1c-0.76,0-2.16,0-2.28-0.04c-0.42-0.04-0.47-0.33-0.47-0.7
			c0-1.86,0-1.86,0.47-1.94c0.08-0.04,1.52-0.04,2.28-0.04v-2.15c0-0.78,0.09-0.99,0.8-1.4l4.31-2.15c0.21-0.12,0.47-0.25,0.72-0.25
			c0.72,0,0.76,0.83,0.76,1.2v4.75h2.83c0.55,0,0.8,0.04,0.93,0.45v1.53c0,0.66-0.34,0.74-0.93,0.74H109.93z"/>
		<path fill="#9B9B9B" d="M122.95,139.85c0,0.74-0.25,0.91-0.93,0.91h-4.86c-0.76,0-0.97-0.16-0.97-0.95v-17.13
			c0-1.36,0.25-1.86,1.23-2.35c2.41-1.24,6.34-1.53,8.33-1.53c1.14,0,5.58,0,5.58,3.8c0,1.49-0.93,2.68-2.49,2.68
			c-1.48,0-1.9-0.95-2.37-1.98c-0.34-0.7-0.72-1.28-1.73-1.28c-1.73,0-1.78,1.11-1.78,2.1V139.85z"/>
		<path fill="#9B9B9B" d="M136.49,117.11c-1.95,0-3.51-0.99-3.51-2.85c0-1.61,1.14-2.93,3.47-2.93c2.28,0,3.26,1.36,3.3,2.89
			C139.74,116.2,138.18,117.11,136.49,117.11z M139.87,139.72c0,0.87-0.34,1.03-1.06,1.03h-4.99c-0.8,0-0.85-0.37-0.85-0.99v-19.48
			c0-0.58,0.08-0.91,0.89-0.91h4.99c0.8,0,1.01,0.16,1.01,0.95V139.72z"/>
		<path fill="#222221" d="M142.31,123.38c0-1.4,0.04-2.11,1.06-2.85c1.4-0.99,4.27-1.65,6.73-1.65c4.31,0,5.71,1.69,6.34,2.48
			c0.93-0.95,2.41-2.48,6.73-2.48c6.9,0,6.85,4.46,6.85,6.64v14.44c0,0.58-0.17,0.74-0.76,0.78h-2.24c-0.55,0-0.76-0.08-0.76-0.78
			v-13.45c-0.04-2.19-0.09-5.32-4.1-5.32c-1.48,0-2.41,0.54-2.92,0.95c-1.18,1.03-1.18,2.1-1.18,3.38v14.44
			c0,0.58-0.08,0.78-0.72,0.78h-2.2c-0.59,0-0.85-0.04-0.85-0.74v-13.87c0-1.49-0.04-5.08-4.06-5.08c-4.06,0-4.15,3.05-4.15,4.46
			v14.44c0,0.66-0.17,0.78-0.85,0.78h-2.16c-0.55,0-0.76-0.12-0.76-0.78V123.38z"/>
		<path fill="#222221" d="M186.85,136.42c-0.04,1.86-0.25,2.89-1.82,3.72c-1.61,0.83-4.15,1.11-5.96,1.11c-1.14,0-7.4,0-7.4-5.61
			c0-4.75,4.74-6.11,11.5-8.05v-2.1c0-1.61,0-4.42-3.17-4.42c-2.45,0-3.22,1.86-3.55,2.68c-0.3,0.78-0.63,1.77-1.9,1.77
			c-0.59,0-1.69-0.41-1.69-1.73c0-2.48,3.17-4.91,7.7-4.91c6.22,0,6.26,4.42,6.3,6.6V136.42z M183.17,129.53
			c-4.61,1.44-7.66,2.39-7.66,5.57c0,0.33,0,3.92,4.31,3.92c3.3,0,3.34-1.9,3.34-3.01V129.53z"/>
		<path fill="#222221" d="M197.76,128.7c2.2,1.07,5.16,2.48,5.16,6.36c0,1.73-0.72,3.47-1.99,4.58c-1.78,1.53-4.06,1.61-5.12,1.61
			c-5.67,0-7.32-3.47-7.32-4.66c0-1.16,0.89-1.78,1.73-1.78c0.93,0,1.44,0.7,1.69,1.07c0.13,0.21,0.3,0.49,0.55,0.95
			c0.59,0.91,1.48,2.06,3.64,2.06c2.24,0,3.26-1.61,3.26-3.14c0-2.52-2.2-3.51-4.06-4.38c-3.47-1.61-6.39-2.97-6.39-6.77
			c0-2.93,2.12-5.74,6.73-5.74c4.82,0,6.6,2.85,6.6,4.17c0,0.99-0.72,1.57-1.57,1.57c-1.1,0-1.48-0.7-1.86-1.4
			c-0.47-0.78-1.23-2.23-3.26-2.23c-2.28,0-3.17,1.82-3.17,3.01c0,2.31,2.03,3.22,3.55,3.88L197.76,128.7z"/>
		<path fill="#222221" d="M209.89,121.19v13.41c0.04,1.73,0.04,2.19,0.51,2.97c0.47,0.87,1.27,1.44,2.54,1.44
			c0.17,0,0.93-0.04,1.1-0.04c0.76,0,0.85,0.58,0.85,0.83c0,1.07-2.33,1.36-3.3,1.36c-2.03,0-3.55-0.78-4.44-1.9
			c-0.97-1.28-1.02-2.64-1.02-3.92v-14.16h-2.24c-0.55,0-0.63-0.04-0.63-0.62c0-1.07,0-1.16,0.63-1.2h2.24v-2.48
			c0-0.74,0.13-0.95,0.63-1.44l1.95-1.69c0.42-0.37,0.59-0.45,0.72-0.45c0.42,0,0.47,0.54,0.47,1.03v5.04h3.68
			c0.51,0,0.68,0.04,0.68,0.58c0,1.11,0,1.24-0.63,1.24H209.89z"/>
		<path fill="#222221" d="M217.53,129.41c0.34,5.78,3.34,8.46,6.56,8.46c2.54,0,4.44-1.4,5.84-3.63c0.59-0.99,0.72-1.2,1.23-1.2
			c0.25,0,0.85,0.12,0.85,0.99c0,1.07-1.86,7.22-8.46,7.22c-2.54,0-5.96-0.99-7.87-4.79c-1.1-2.06-1.35-4.42-1.35-6.36
			c0-2.97,0.59-5.12,1.44-6.64c0.46-0.87,2.62-4.58,7.83-4.58c6.68,0,8.12,5.65,8.12,7.35c0,1.16-0.72,1.24-1.23,1.32L217.53,129.41
			z M227.64,125.86c-0.25-2.64-2.11-4.62-4.53-4.62c-3.43,0-5.16,2.56-5.58,6.15L227.64,125.86z"/>
		<path fill="#222221" d="M237.41,140.05c-0.04,0.66-0.25,0.7-0.76,0.7h-2.16c-0.59,0-0.85-0.04-0.85-0.7V122.8
			c0-1.44,0.17-1.94,1.1-2.48c1.27-0.74,3.98-1.44,6.73-1.44c2.07,0,4.36,0.45,4.36,2.39c0,0.95-0.68,1.78-1.73,1.78
			c-0.76,0-1.06-0.33-1.78-1.11c-0.55-0.54-1.1-1.03-2.33-1.03c-2.5,0-2.54,1.82-2.58,2.89V140.05z"/>
		<g>
			<path d="M242.41,115.75c0-0.94,0.76-1.71,1.71-1.71c0.94,0,1.71,0.76,1.71,1.71c0,0.94-0.76,1.71-1.71,1.71
				C243.18,117.46,242.41,116.69,242.41,115.75z M245.44,115.75c0-0.75-0.6-1.35-1.32-1.35c-0.72,0-1.32,0.6-1.32,1.35
				c0,0.75,0.6,1.35,1.32,1.35C244.84,117.1,245.44,116.49,245.44,115.75z M243.73,115.91v0.67c0,0.09-0.05,0.15-0.16,0.15
				c-0.1,0-0.16-0.06-0.16-0.15v-1.69c0-0.07,0.03-0.1,0.11-0.1h0.62c0.47,0,0.71,0.14,0.71,0.56c0,0.37-0.22,0.51-0.49,0.54
				l0.42,0.64c0.02,0.03,0.05,0.09,0.05,0.12c0,0.05-0.09,0.08-0.17,0.08c-0.09,0-0.14-0.03-0.19-0.1l-0.45-0.72H243.73z
				 M244.09,115.63c0.24,0,0.46-0.02,0.46-0.3c0-0.24-0.23-0.25-0.43-0.25h-0.39v0.55H244.09z"/>
		</g>
	</g>
	<g>
		<path fill="#9A9A9A" d="M113.38,163.1v-5.34h0.27c0.06,0,0.1,0.01,0.13,0.04c0.03,0.03,0.04,0.07,0.05,0.13l0.04,1.12
			c0.08-0.22,0.18-0.41,0.28-0.58c0.11-0.17,0.23-0.31,0.37-0.43c0.14-0.12,0.29-0.21,0.46-0.27c0.17-0.06,0.36-0.09,0.57-0.09
			c0.11,0,0.22,0.01,0.33,0.03c0.11,0.02,0.2,0.05,0.28,0.1l-0.04,0.35c-0.02,0.06-0.05,0.09-0.1,0.09c-0.04,0-0.11-0.01-0.2-0.04
			c-0.09-0.03-0.2-0.04-0.35-0.04c-0.21,0-0.39,0.03-0.55,0.1s-0.3,0.16-0.43,0.28c-0.13,0.12-0.24,0.28-0.33,0.46
			c-0.1,0.18-0.18,0.4-0.26,0.64v3.46H113.38z"/>
		<path fill="#9A9A9A" d="M118.97,157.68c0.3,0,0.58,0.05,0.84,0.16c0.26,0.1,0.48,0.26,0.67,0.45c0.19,0.2,0.34,0.44,0.45,0.73
			c0.11,0.29,0.16,0.62,0.16,1c0,0.08-0.01,0.13-0.03,0.16c-0.02,0.03-0.06,0.04-0.11,0.04h-3.89v0.1c0,0.4,0.05,0.75,0.14,1.06
			s0.23,0.56,0.4,0.77c0.17,0.21,0.38,0.36,0.62,0.46c0.24,0.1,0.52,0.16,0.82,0.16c0.27,0,0.5-0.03,0.7-0.09
			c0.2-0.06,0.36-0.13,0.5-0.2c0.13-0.07,0.24-0.14,0.32-0.2c0.08-0.06,0.14-0.09,0.17-0.09c0.05,0,0.08,0.02,0.11,0.05l0.14,0.17
			c-0.09,0.11-0.2,0.21-0.34,0.3c-0.14,0.09-0.3,0.17-0.47,0.24c-0.17,0.07-0.36,0.12-0.56,0.16c-0.2,0.04-0.4,0.06-0.6,0.06
			c-0.37,0-0.7-0.06-1-0.19c-0.3-0.13-0.56-0.31-0.77-0.56c-0.21-0.24-0.38-0.54-0.5-0.89c-0.12-0.35-0.17-0.76-0.17-1.21
			c0-0.38,0.05-0.74,0.16-1.06c0.11-0.32,0.27-0.6,0.47-0.84c0.21-0.23,0.46-0.42,0.76-0.55
			C118.25,157.74,118.59,157.68,118.97,157.68z M118.98,158.06c-0.28,0-0.52,0.04-0.74,0.13c-0.22,0.09-0.41,0.21-0.57,0.37
			c-0.16,0.16-0.29,0.35-0.39,0.58c-0.1,0.23-0.16,0.48-0.2,0.76h3.54c0-0.29-0.04-0.54-0.12-0.77c-0.08-0.23-0.19-0.42-0.34-0.58
			c-0.15-0.16-0.32-0.28-0.52-0.36C119.44,158.1,119.22,158.06,118.98,158.06z"/>
		<path fill="#9A9A9A" d="M124.43,163.1h-0.45l-2.25-5.34h0.4c0.05,0,0.09,0.01,0.12,0.04c0.03,0.03,0.05,0.06,0.06,0.09l1.77,4.21
			c0.05,0.15,0.1,0.31,0.13,0.46c0.03-0.15,0.08-0.31,0.13-0.46l1.77-4.21c0.02-0.04,0.04-0.07,0.07-0.09
			c0.03-0.02,0.07-0.03,0.11-0.03h0.39L124.43,163.1z"/>
		<path fill="#9A9A9A" d="M128.57,155.92c0,0.06-0.01,0.12-0.04,0.18c-0.03,0.06-0.06,0.1-0.1,0.15c-0.04,0.04-0.09,0.08-0.15,0.1
			c-0.06,0.03-0.12,0.04-0.18,0.04c-0.06,0-0.13-0.01-0.18-0.04c-0.06-0.02-0.11-0.06-0.15-0.1c-0.04-0.04-0.08-0.09-0.1-0.15
			c-0.03-0.06-0.04-0.12-0.04-0.18c0-0.06,0.01-0.13,0.04-0.19c0.03-0.06,0.06-0.11,0.1-0.15c0.04-0.04,0.09-0.08,0.15-0.1
			c0.06-0.03,0.12-0.04,0.18-0.04c0.06,0,0.13,0.01,0.18,0.04c0.06,0.02,0.11,0.06,0.15,0.1c0.04,0.04,0.08,0.09,0.1,0.15
			C128.55,155.8,128.57,155.86,128.57,155.92z M128.35,157.76v5.34h-0.51v-5.34H128.35z"/>
		<path fill="#9A9A9A" d="M131.63,163.19c-0.36,0-0.64-0.1-0.85-0.3c-0.2-0.2-0.3-0.51-0.3-0.93v-3.65h-0.77
			c-0.04,0-0.07-0.01-0.1-0.03c-0.03-0.02-0.04-0.05-0.04-0.09v-0.2l0.91-0.06l0.13-1.91c0.01-0.03,0.02-0.06,0.04-0.09
			s0.05-0.04,0.09-0.04h0.24v2.04h1.69v0.38h-1.69v3.62c0,0.15,0.02,0.27,0.06,0.38c0.04,0.11,0.09,0.19,0.16,0.26
			c0.07,0.07,0.14,0.12,0.23,0.15c0.09,0.03,0.19,0.05,0.29,0.05c0.13,0,0.24-0.02,0.33-0.06c0.09-0.04,0.17-0.08,0.24-0.12
			c0.07-0.04,0.12-0.09,0.17-0.12c0.04-0.04,0.08-0.06,0.1-0.06c0.03,0,0.06,0.02,0.09,0.05l0.14,0.23
			c-0.14,0.15-0.31,0.27-0.52,0.36C132.07,163.15,131.85,163.19,131.63,163.19z"/>
		<path fill="#9A9A9A" d="M137.13,163.1c-0.11,0-0.17-0.05-0.2-0.15l-0.07-0.68c-0.15,0.14-0.29,0.27-0.44,0.39
			c-0.14,0.11-0.3,0.21-0.45,0.29c-0.16,0.08-0.33,0.14-0.51,0.18s-0.38,0.06-0.6,0.06c-0.18,0-0.36-0.03-0.53-0.08
			c-0.17-0.05-0.32-0.14-0.46-0.25c-0.13-0.11-0.24-0.25-0.32-0.43c-0.08-0.17-0.12-0.38-0.12-0.63c0-0.23,0.06-0.43,0.19-0.63
			c0.13-0.19,0.33-0.36,0.61-0.5c0.28-0.14,0.63-0.26,1.06-0.34c0.43-0.09,0.95-0.14,1.55-0.15v-0.56c0-0.49-0.11-0.87-0.32-1.14
			c-0.21-0.27-0.53-0.4-0.95-0.4c-0.26,0-0.48,0.04-0.66,0.11c-0.18,0.07-0.33,0.15-0.46,0.24c-0.13,0.09-0.23,0.17-0.31,0.24
			c-0.08,0.07-0.15,0.11-0.2,0.11c-0.04,0-0.07-0.01-0.1-0.03c-0.02-0.02-0.05-0.04-0.06-0.07l-0.09-0.16
			c0.28-0.28,0.57-0.49,0.88-0.63c0.31-0.14,0.66-0.21,1.05-0.21c0.29,0,0.54,0.05,0.75,0.14c0.21,0.09,0.39,0.22,0.53,0.39
			c0.14,0.17,0.25,0.38,0.32,0.62c0.07,0.24,0.11,0.51,0.11,0.81v3.48H137.13z M134.98,162.82c0.21,0,0.4-0.02,0.57-0.07
			c0.17-0.04,0.33-0.11,0.48-0.19c0.15-0.08,0.29-0.18,0.42-0.29c0.13-0.11,0.26-0.23,0.38-0.36v-1.39
			c-0.51,0.01-0.95,0.05-1.32,0.12c-0.37,0.06-0.67,0.15-0.91,0.26c-0.24,0.11-0.41,0.24-0.53,0.38c-0.11,0.15-0.17,0.32-0.17,0.51
			c0,0.18,0.03,0.33,0.09,0.46c0.06,0.13,0.14,0.24,0.24,0.32c0.1,0.08,0.21,0.15,0.34,0.19
			C134.71,162.8,134.84,162.82,134.98,162.82z"/>
		<path fill="#9A9A9A" d="M139.6,155.29v7.81h-0.52v-7.81H139.6z"/>
		<path fill="#9A9A9A" d="M142.2,155.92c0,0.06-0.01,0.12-0.04,0.18c-0.03,0.06-0.06,0.1-0.1,0.15c-0.04,0.04-0.09,0.08-0.15,0.1
			c-0.06,0.03-0.12,0.04-0.18,0.04c-0.07,0-0.13-0.01-0.18-0.04c-0.06-0.02-0.11-0.06-0.15-0.1c-0.04-0.04-0.08-0.09-0.1-0.15
			c-0.03-0.06-0.04-0.12-0.04-0.18c0-0.06,0.01-0.13,0.04-0.19c0.02-0.06,0.06-0.11,0.1-0.15c0.04-0.04,0.09-0.08,0.15-0.1
			c0.06-0.03,0.12-0.04,0.18-0.04c0.06,0,0.13,0.01,0.18,0.04c0.06,0.02,0.11,0.06,0.15,0.1c0.04,0.04,0.08,0.09,0.1,0.15
			C142.19,155.8,142.2,155.86,142.2,155.92z M141.98,157.76v5.34h-0.51v-5.34H141.98z"/>
		<path fill="#9A9A9A" d="M146.74,158.42c-0.03,0.05-0.07,0.07-0.12,0.07c-0.04,0-0.09-0.02-0.15-0.07
			c-0.06-0.04-0.14-0.09-0.24-0.15c-0.1-0.06-0.23-0.11-0.38-0.15s-0.33-0.07-0.55-0.07c-0.19,0-0.37,0.03-0.53,0.08
			c-0.16,0.06-0.3,0.13-0.41,0.22c-0.11,0.09-0.2,0.2-0.26,0.32c-0.06,0.12-0.09,0.25-0.09,0.39c0,0.17,0.04,0.31,0.13,0.42
			c0.09,0.11,0.2,0.21,0.34,0.28c0.14,0.08,0.3,0.15,0.48,0.2c0.18,0.06,0.36,0.11,0.54,0.17c0.18,0.06,0.37,0.12,0.54,0.19
			c0.18,0.07,0.34,0.16,0.47,0.26c0.14,0.1,0.25,0.23,0.34,0.38s0.13,0.33,0.13,0.55c0,0.23-0.04,0.45-0.12,0.65
			c-0.08,0.2-0.2,0.37-0.36,0.52c-0.16,0.15-0.36,0.26-0.59,0.35c-0.23,0.09-0.5,0.13-0.8,0.13c-0.38,0-0.7-0.06-0.97-0.18
			c-0.27-0.12-0.52-0.28-0.73-0.47l0.12-0.18c0.02-0.03,0.04-0.05,0.06-0.06c0.02-0.01,0.05-0.02,0.09-0.02
			c0.05,0,0.1,0.03,0.17,0.09c0.07,0.06,0.15,0.12,0.27,0.19c0.11,0.07,0.25,0.13,0.41,0.19c0.16,0.06,0.36,0.09,0.6,0.09
			c0.23,0,0.42-0.03,0.6-0.09c0.17-0.06,0.31-0.15,0.43-0.25c0.11-0.11,0.2-0.23,0.26-0.38c0.06-0.14,0.09-0.3,0.09-0.46
			c0-0.18-0.04-0.33-0.13-0.45c-0.09-0.12-0.2-0.22-0.34-0.3c-0.14-0.08-0.3-0.15-0.47-0.21c-0.18-0.06-0.36-0.11-0.54-0.17
			c-0.19-0.06-0.37-0.12-0.55-0.19c-0.18-0.07-0.33-0.15-0.47-0.26c-0.14-0.1-0.25-0.23-0.34-0.38c-0.09-0.15-0.13-0.33-0.13-0.56
			c0-0.19,0.04-0.37,0.12-0.55c0.08-0.18,0.2-0.33,0.35-0.46c0.15-0.13,0.34-0.24,0.56-0.32c0.22-0.08,0.46-0.12,0.74-0.12
			c0.33,0,0.61,0.05,0.87,0.14c0.25,0.09,0.48,0.24,0.69,0.43L146.74,158.42z"/>
		<path fill="#9A9A9A" d="M150.45,157.68c0.3,0,0.58,0.05,0.84,0.16c0.26,0.1,0.48,0.26,0.67,0.45c0.19,0.2,0.34,0.44,0.45,0.73
			c0.11,0.29,0.16,0.62,0.16,1c0,0.08-0.01,0.13-0.03,0.16c-0.02,0.03-0.06,0.04-0.11,0.04h-3.89v0.1c0,0.4,0.05,0.75,0.14,1.06
			s0.23,0.56,0.4,0.77c0.17,0.21,0.38,0.36,0.62,0.46c0.24,0.1,0.52,0.16,0.82,0.16c0.27,0,0.5-0.03,0.7-0.09
			c0.2-0.06,0.36-0.13,0.5-0.2s0.24-0.14,0.32-0.2c0.08-0.06,0.14-0.09,0.17-0.09c0.05,0,0.08,0.02,0.11,0.05l0.14,0.17
			c-0.09,0.11-0.2,0.21-0.34,0.3c-0.14,0.09-0.3,0.17-0.47,0.24c-0.17,0.07-0.36,0.12-0.56,0.16c-0.2,0.04-0.4,0.06-0.6,0.06
			c-0.37,0-0.7-0.06-1-0.19c-0.3-0.13-0.56-0.31-0.77-0.56c-0.21-0.24-0.38-0.54-0.5-0.89c-0.12-0.35-0.17-0.76-0.17-1.21
			c0-0.38,0.05-0.74,0.16-1.06c0.11-0.32,0.27-0.6,0.47-0.84c0.21-0.23,0.46-0.42,0.76-0.55
			C149.74,157.74,150.08,157.68,150.45,157.68z M150.46,158.06c-0.28,0-0.52,0.04-0.74,0.13c-0.22,0.09-0.41,0.21-0.57,0.37
			c-0.16,0.16-0.29,0.35-0.39,0.58c-0.1,0.23-0.16,0.48-0.2,0.76h3.54c0-0.29-0.04-0.54-0.12-0.77c-0.08-0.23-0.19-0.42-0.34-0.58
			c-0.15-0.16-0.32-0.28-0.52-0.36C150.93,158.1,150.7,158.06,150.46,158.06z"/>
		<path fill="#9A9A9A" d="M157.86,164.82c-0.02,0.05-0.05,0.09-0.08,0.12c-0.03,0.03-0.08,0.05-0.15,0.05h-0.37l0.94-2.09
			l-2.26-5.14h0.42c0.05,0,0.1,0.01,0.13,0.04c0.03,0.03,0.05,0.06,0.06,0.09l1.8,4.16c0.02,0.05,0.04,0.11,0.06,0.16
			c0.02,0.06,0.03,0.11,0.05,0.17c0.02-0.06,0.04-0.11,0.06-0.17c0.02-0.06,0.04-0.11,0.06-0.16l1.78-4.16
			c0.02-0.04,0.04-0.07,0.08-0.09c0.03-0.02,0.07-0.03,0.11-0.03h0.39L157.86,164.82z"/>
		<path fill="#9A9A9A" d="M164,157.68c0.38,0,0.73,0.07,1.03,0.2c0.3,0.13,0.56,0.32,0.77,0.56c0.21,0.24,0.37,0.53,0.48,0.87
			c0.11,0.34,0.16,0.72,0.16,1.14c0,0.42-0.05,0.8-0.16,1.13c-0.11,0.34-0.27,0.62-0.48,0.86c-0.21,0.24-0.46,0.42-0.77,0.55
			c-0.3,0.13-0.65,0.19-1.03,0.19c-0.38,0-0.73-0.06-1.03-0.19c-0.3-0.13-0.56-0.31-0.77-0.55c-0.21-0.24-0.37-0.53-0.48-0.86
			c-0.11-0.34-0.16-0.71-0.16-1.13c0-0.42,0.05-0.8,0.16-1.14c0.11-0.34,0.27-0.63,0.48-0.87c0.21-0.24,0.47-0.42,0.77-0.56
			C163.27,157.74,163.61,157.68,164,157.68z M164,162.77c0.32,0,0.6-0.05,0.84-0.16c0.24-0.11,0.44-0.27,0.6-0.47
			c0.16-0.2,0.28-0.45,0.36-0.74c0.08-0.29,0.12-0.61,0.12-0.97c0-0.35-0.04-0.68-0.12-0.97c-0.08-0.29-0.2-0.54-0.36-0.74
			c-0.16-0.21-0.36-0.36-0.6-0.48c-0.24-0.11-0.52-0.17-0.84-0.17c-0.32,0-0.6,0.06-0.84,0.17c-0.24,0.11-0.44,0.27-0.6,0.48
			c-0.16,0.21-0.28,0.45-0.36,0.74c-0.08,0.29-0.12,0.61-0.12,0.97c0,0.36,0.04,0.68,0.12,0.97c0.08,0.29,0.2,0.53,0.36,0.74
			c0.16,0.2,0.36,0.36,0.6,0.47S163.68,162.77,164,162.77z"/>
		<path fill="#9A9A9A" d="M168.33,157.76v3.41c0,0.5,0.11,0.89,0.34,1.18c0.23,0.28,0.58,0.43,1.05,0.43c0.35,0,0.67-0.09,0.97-0.27
			c0.3-0.18,0.57-0.42,0.81-0.74v-4.02h0.52v5.34h-0.28c-0.09,0-0.14-0.05-0.16-0.14l-0.05-0.8c-0.25,0.31-0.53,0.56-0.86,0.74
			c-0.32,0.19-0.68,0.28-1.08,0.28c-0.3,0-0.56-0.05-0.78-0.14c-0.22-0.09-0.41-0.23-0.55-0.4c-0.15-0.18-0.26-0.39-0.33-0.63
			c-0.08-0.25-0.11-0.53-0.11-0.84v-3.41H168.33z"/>
		<path fill="#9A9A9A" d="M173.77,163.1v-5.34h0.27c0.06,0,0.1,0.01,0.13,0.04s0.04,0.07,0.05,0.13l0.04,1.12
			c0.08-0.22,0.18-0.41,0.28-0.58s0.23-0.31,0.37-0.43c0.14-0.12,0.29-0.21,0.46-0.27c0.17-0.06,0.36-0.09,0.57-0.09
			c0.11,0,0.22,0.01,0.33,0.03c0.11,0.02,0.2,0.05,0.28,0.1l-0.04,0.35c-0.02,0.06-0.05,0.09-0.1,0.09c-0.04,0-0.11-0.01-0.2-0.04
			c-0.09-0.03-0.2-0.04-0.35-0.04c-0.21,0-0.39,0.03-0.55,0.1c-0.16,0.06-0.3,0.16-0.43,0.28c-0.13,0.12-0.24,0.28-0.33,0.46
			c-0.09,0.18-0.18,0.4-0.26,0.64v3.46H173.77z"/>
		<path fill="#9A9A9A" d="M180.82,155.29v7.81h-0.52v-7.81H180.82z"/>
		<path fill="#9A9A9A" d="M183.42,155.92c0,0.06-0.01,0.12-0.04,0.18c-0.03,0.06-0.06,0.1-0.1,0.15c-0.04,0.04-0.09,0.08-0.15,0.1
			c-0.06,0.03-0.12,0.04-0.18,0.04c-0.06,0-0.13-0.01-0.18-0.04c-0.06-0.02-0.11-0.06-0.15-0.1c-0.04-0.04-0.08-0.09-0.1-0.15
			c-0.02-0.06-0.04-0.12-0.04-0.18c0-0.06,0.01-0.13,0.04-0.19c0.03-0.06,0.06-0.11,0.1-0.15c0.04-0.04,0.09-0.08,0.15-0.1
			c0.06-0.03,0.12-0.04,0.18-0.04c0.06,0,0.13,0.01,0.18,0.04c0.06,0.02,0.11,0.06,0.15,0.1c0.04,0.04,0.08,0.09,0.1,0.15
			C183.4,155.8,183.42,155.86,183.42,155.92z M183.2,157.76v5.34h-0.51v-5.34H183.2z"/>
		<path fill="#9A9A9A" d="M185.33,163.1v-4.78l-0.75-0.05c-0.1-0.01-0.15-0.06-0.15-0.13v-0.21h0.9v-0.68c0-0.3,0.04-0.57,0.12-0.8
			c0.08-0.23,0.19-0.42,0.33-0.58c0.14-0.15,0.31-0.27,0.52-0.35c0.2-0.08,0.42-0.12,0.67-0.12c0.11,0,0.22,0.01,0.34,0.03
			c0.11,0.02,0.21,0.05,0.3,0.08l-0.02,0.25c-0.01,0.03-0.02,0.05-0.05,0.06c-0.02,0.01-0.06,0.01-0.1,0.01
			c-0.04,0-0.1-0.01-0.17-0.02c-0.07-0.01-0.15-0.01-0.24-0.01c-0.17,0-0.34,0.03-0.49,0.08c-0.15,0.05-0.28,0.13-0.38,0.25
			c-0.11,0.11-0.19,0.26-0.25,0.45c-0.06,0.18-0.09,0.41-0.09,0.68v0.66h1.73v0.38h-1.72v4.79H185.33z"/>
		<path fill="#9A9A9A" d="M190.54,157.68c0.3,0,0.58,0.05,0.84,0.16c0.26,0.1,0.48,0.26,0.67,0.45c0.19,0.2,0.34,0.44,0.45,0.73
			c0.11,0.29,0.16,0.62,0.16,1c0,0.08-0.01,0.13-0.03,0.16s-0.06,0.04-0.11,0.04h-3.89v0.1c0,0.4,0.05,0.75,0.14,1.06
			c0.09,0.3,0.23,0.56,0.4,0.77c0.17,0.21,0.38,0.36,0.62,0.46c0.24,0.1,0.52,0.16,0.82,0.16c0.27,0,0.5-0.03,0.7-0.09
			c0.2-0.06,0.36-0.13,0.5-0.2c0.13-0.07,0.24-0.14,0.32-0.2c0.08-0.06,0.14-0.09,0.17-0.09c0.05,0,0.08,0.02,0.11,0.05l0.14,0.17
			c-0.09,0.11-0.2,0.21-0.34,0.3c-0.14,0.09-0.3,0.17-0.47,0.24c-0.17,0.07-0.36,0.12-0.56,0.16c-0.2,0.04-0.4,0.06-0.6,0.06
			c-0.37,0-0.7-0.06-1-0.19c-0.3-0.13-0.56-0.31-0.77-0.56c-0.21-0.24-0.38-0.54-0.5-0.89c-0.12-0.35-0.17-0.76-0.17-1.21
			c0-0.38,0.05-0.74,0.16-1.06c0.11-0.32,0.27-0.6,0.47-0.84c0.21-0.23,0.46-0.42,0.76-0.55
			C189.83,157.74,190.17,157.68,190.54,157.68z M190.55,158.06c-0.28,0-0.52,0.04-0.74,0.13c-0.22,0.09-0.41,0.21-0.57,0.37
			c-0.16,0.16-0.29,0.35-0.39,0.58c-0.1,0.23-0.16,0.48-0.2,0.76h3.54c0-0.29-0.04-0.54-0.12-0.77c-0.08-0.23-0.19-0.42-0.34-0.58
			c-0.15-0.16-0.32-0.28-0.52-0.36C191.02,158.1,190.79,158.06,190.55,158.06z"/>
	</g>
</g>
<path fill="#9B9B9B" d="M176.66,18.33h-47.6c-2.05,0-4.04,0.4-5.92,1.2c-1.81,0.77-3.44,1.86-4.84,3.26c-1.4,1.4-2.5,3.02-3.28,4.83
	c-0.8,1.88-1.21,3.87-1.21,5.92v59.33c0,1.94,1.57,3.51,3.51,3.51c1.94,0,3.51-1.57,3.51-3.51V33.54c0-2.17,0.86-4.22,2.42-5.77
	c1.56-1.55,3.62-2.41,5.8-2.41h47.6c2.18,0,4.23,0.85,5.78,2.4c1.55,1.55,2.4,3.6,2.4,5.78v47.6c0,2.18-0.86,4.24-2.41,5.8
	c-1.55,1.56-3.6,2.42-5.77,2.42H143.1c-2.17,0-4.23-0.86-5.79-2.42c-1.56-1.56-2.41-3.62-2.41-5.8V58.11c0-2.23,0.79-4.33,2.23-5.9
	c1.36-1.48,3.13-2.3,4.99-2.3s3.63,0.82,4.99,2.3c1.44,1.57,2.23,3.66,2.23,5.9v13.44v0.23c0,1.94,1.57,3.51,3.51,3.51
	s3.51-1.57,3.51-3.51v-0.23V58.11c0-2.23,0.79-4.33,2.23-5.9c1.36-1.48,3.13-2.3,4.99-2.3s3.63,0.82,4.99,2.3
	c1.44,1.57,2.23,3.66,2.23,5.9v20.7c0,1.94,1.57,3.51,3.51,3.51s3.51-1.57,3.51-3.51v-20.7c0-2.01-0.37-3.97-1.09-5.82
	c-0.7-1.8-1.71-3.42-2.99-4.82c-1.3-1.42-2.83-2.54-4.53-3.33c-1.79-0.83-3.69-1.25-5.65-1.25s-3.86,0.42-5.65,1.25
	c-1.7,0.79-3.22,1.91-4.53,3.33c-0.19,0.21-0.38,0.43-0.56,0.65c-0.18-0.22-0.37-0.44-0.56-0.65c-1.3-1.42-2.83-2.54-4.53-3.33
	c-1.79-0.83-3.69-1.25-5.65-1.25s-3.86,0.42-5.65,1.25c-1.7,0.79-3.22,1.91-4.53,3.33c-1.28,1.4-2.29,3.02-2.99,4.82
	c-0.72,1.85-1.09,3.81-1.09,5.82v23.03c0,2.05,0.4,4.04,1.2,5.92c0.77,1.81,1.87,3.44,3.26,4.84c1.4,1.4,3.02,2.5,4.83,3.27
	c1.88,0.8,3.88,1.21,5.93,1.21h33.56c2.05,0,4.04-0.41,5.92-1.21c1.81-0.77,3.43-1.87,4.83-3.28c1.39-1.4,2.49-3.03,3.26-4.84
	c0.8-1.88,1.2-3.87,1.2-5.92v-47.6C191.87,25.16,185.04,18.33,176.66,18.33z"/>
</svg>
