<?xml version="1.0" encoding="utf-8"?>
<!-- Generator: Adobe Illustrator 19.2.0, SVG Export Plug-In . SVG Version: 6.00 Build 0)  -->
<svg version="1.1" baseProfile="tiny" id="Layer_1" xmlns="http://www.w3.org/2000/svg" xmlns:xlink="http://www.w3.org/1999/xlink"
	 x="0px" y="0px" viewBox="0 0 300 180" xml:space="preserve">
<polygon fill="#9FA0A0" points="256.61,54.1 241.31,112.78 241.12,112.78 224.7,54.1 216.72,54.1 200.39,112.78 200.2,112.78 
	184.99,54.1 178.13,54.1 196.72,121.13 203.67,121.13 220.56,61.14 220.75,61.14 237.74,121.13 244.5,121.13 263,54.1 "/>
<polygon fill="#4EABD5" points="160.01,54.1 121.06,90.15 121.06,54.1 114.68,54.1 114.68,121.13 121.06,121.13 121.06,98.13 
	133.92,86.21 161.8,121.13 170.06,121.13 138.71,81.8 168.66,54.1 "/>
<path fill="#043A63" d="M44.55,121.13h6.39V91.38h24.22c12.02-0.47,12.96,9.95,13.43,19.34c0.28,2.82,0.28,7.88,1.78,10.42h7.04
	c-2.81-3.29-2.81-12.58-3.1-17.18c-0.47-8.07-3-13.89-11.73-15.11v-0.19c8.64-1.78,13.05-8.54,13.05-17.08
	c0-12.11-9.39-17.46-20.37-17.46h-30.7V121.13z M50.94,59.55h23.84c9.67,0,14.45,5.07,14.45,13.33c0,8.17-6.67,13.05-14.45,13.05
	H50.94V59.55z"/>
</svg>
