<?xml version="1.0" encoding="utf-8"?>
<!-- Generator: Adobe Illustrator 19.2.0, SVG Export Plug-In . SVG Version: 6.00 Build 0)  -->
<svg version="1.1" baseProfile="tiny" id="Layer_1" xmlns="http://www.w3.org/2000/svg" xmlns:xlink="http://www.w3.org/1999/xlink"
	 x="0px" y="0px" viewBox="0 0 300 180" xml:space="preserve">
<path fill="#00539F" d="M45.02,67.87H25.59c0,0-3.78-0.57-6.03,3.19c-2.44,4.07,0.62,9.91,0.62,9.91l8.39,13.57
	c0,0,0.87,1.08,0.21,2.2c-0.6,1.03-1.78,0.92-1.78,0.92h-8.97l2.44,12.76h19.92c0,0,4.72,0.57,7.02-4.29
	c2.11-4.47-0.87-8.46-0.87-8.46l-8.39-15.55c0,0-0.26-0.52,0-0.86c0.23-0.31,0.66-0.26,0.66-0.26h8.68L45.02,67.87z M76.08,110.47
	c0,0-13.75,1.48-23.12-12.78c-5.13-7.81-6.35-29.35,14.05-29.92c5.29,0,9.6,0.08,9.6,0.08l2.62,13.1c0,0-4.88,0.04-9.08,0.04
	c-4.21,0-6.13,2.75-6.13,5.73s0.39,8.72,10.15,10.96c3.32,0.77,5.77,0.08,5.77,0.08L76.08,110.47L76.08,110.47z M83.58,82.42h14.78
	v28H83.58V82.42z M180.99,67.89l-4.02,18.96l-3.65-18.96h-14.66l10.45,42.56h14.9l3.34-16.48l2.91,13.82l6.06-25.09l-2.16-14.81
	L180.99,67.89z"/>
<path fill="#ED1C24" d="M202.2,67.89l-1.24,6.07h26.9l1.73-6.07H202.2z"/>
<path fill="#00539F" d="M200.53,76.01l-1.98,7.43h12.74l2.35-7.43H200.53z"/>
<path fill="#ED1C24" d="M198.06,86.17l-1.42,5.82h24.67l1.79-5.82L198.06,86.17z"/>
<path fill="#00539F" d="M196.39,94.53h12.92l-3.65,15.86h-13.05L196.39,94.53z"/>
<path fill="#ED1C24" d="M226.01,110.46h8.22l10.76-42.56h-8.04L226.01,110.46z M250.15,67.82h8.11l5.84,14.43l14.01-14.43H287
	l-19.59,21.52l9.28,21.06h-8.43l-6.55-14.82l-13.95,14.82h-9.28l20.18-22.23L250.15,67.82z"/>
<path fill="#00539F" d="M125.25,67.83h30.48l3.46,12.7h-17.75v2.36h15.15l-3.96,12.61h-11.38v2.07h18.92l-4.02,12.82h-30.85
	L125.25,67.83z M134.51,115.47c-4.55-1.91-10.31-4.8-13.8-8.33c-6.43-6.51-7.13-11.57-7.13-11.57s10.22-7.89,7.87-17.31
	c-2.64-10.58-9.28-10.22-19.48-10.22l-17.99-0.12L81.57,81c0,0,17.55-0.07,19.84-0.01c2.29,0.06,4.92,0.16,4.88,3.72
	c-0.03,3.03-6.68,6.66-6.68,6.66s-1.03,7.54,8.37,19.13c3.63,4.47,7.95,8.44,11.88,11.64L134.51,115.47L134.51,115.47z"/>
</svg>
