<?xml version="1.0" encoding="utf-8"?>
<!-- Generator: Adobe Illustrator 19.2.0, SVG Export Plug-In . SVG Version: 6.00 Build 0)  -->
<svg version="1.1" baseProfile="tiny" id="Layer_1" xmlns="http://www.w3.org/2000/svg" xmlns:xlink="http://www.w3.org/1999/xlink"
	 x="0px" y="0px" viewBox="0 0 300 180" xml:space="preserve">
<g>
	<g>
		<rect x="58.25" y="129.61" fill="#F6F9F9" width="185.36" height="0.21"/>
		<rect x="58.25" y="129.21" fill="#F4F8F7" width="185.36" height="0.39"/>
		<rect x="58.25" y="128.82" fill="#F4F8F6" width="185.36" height="0.39"/>
		<rect x="58.25" y="128.42" fill="#F3F7F6" width="185.36" height="0.39"/>
		<rect x="58.25" y="128.03" fill="#F2F7F6" width="185.36" height="0.39"/>
		<rect x="58.25" y="127.63" fill="#F1F7F5" width="185.36" height="0.39"/>
		<rect x="58.25" y="127.24" fill="#F1F6F5" width="185.36" height="0.39"/>
		<rect x="58.25" y="126.85" fill="#F0F6F4" width="185.36" height="0.39"/>
		<rect x="58.25" y="126.44" fill="#EFF5F3" width="185.36" height="0.39"/>
		<rect x="58.25" y="126.05" fill="#EFF5F3" width="185.36" height="0.39"/>
		<rect x="58.25" y="125.66" fill="#EEF5F2" width="185.36" height="0.39"/>
		<rect x="58.25" y="125.27" fill="#EDF4F2" width="185.36" height="0.39"/>
		<rect x="58.25" y="124.87" fill="#EDF4F2" width="185.36" height="0.39"/>
		<rect x="58.25" y="124.47" fill="#EBF3F0" width="185.36" height="0.39"/>
		<rect x="58.25" y="124.08" fill="#EAF2F0" width="185.36" height="0.39"/>
		<rect x="58.25" y="123.68" fill="#EAF2EF" width="185.36" height="0.39"/>
		<rect x="58.25" y="123.29" fill="#E9F1EE" width="185.36" height="0.39"/>
		<rect x="58.25" y="122.9" fill="#E8F1EE" width="185.36" height="0.39"/>
		<rect x="58.25" y="122.5" fill="#E8F1EE" width="185.36" height="0.39"/>
		<rect x="58.25" y="122.1" fill="#E7F0ED" width="185.36" height="0.39"/>
		<rect x="58.25" y="121.71" fill="#E6F0ED" width="185.36" height="0.39"/>
		<rect x="58.25" y="121.32" fill="#E6EFEC" width="185.36" height="0.39"/>
		<rect x="58.25" y="120.92" fill="#E5EFEB" width="185.36" height="0.39"/>
		<rect x="58.25" y="120.52" fill="#E4EFEB" width="185.36" height="0.39"/>
		<rect x="58.25" y="120.13" fill="#E3EEEA" width="185.36" height="0.39"/>
		<rect x="58.25" y="119.74" fill="#E2EDE9" width="185.36" height="0.39"/>
		<rect x="58.25" y="119.34" fill="#E1EDE9" width="185.36" height="0.39"/>
		<rect x="58.25" y="118.95" fill="#E1ECE8" width="185.36" height="0.39"/>
		<rect x="58.25" y="118.55" fill="#E0ECE7" width="185.36" height="0.39"/>
		<rect x="58.25" y="118.15" fill="#DFEBE7" width="185.36" height="0.39"/>
		<rect x="58.25" y="117.76" fill="#DFEBE7" width="185.36" height="0.39"/>
		<rect x="58.25" y="117.37" fill="#DEEBE6" width="185.36" height="0.39"/>
		<rect x="58.25" y="116.98" fill="#DDEAE6" width="185.36" height="0.39"/>
		<rect x="58.25" y="116.57" fill="#DCEAE5" width="185.36" height="0.39"/>
		<rect x="58.25" y="116.18" fill="#DCE9E5" width="185.36" height="0.39"/>
		<rect x="58.25" y="115.79" fill="#DBE9E4" width="185.36" height="0.39"/>
		<rect x="58.25" y="115.39" fill="#DAE9E3" width="185.36" height="0.39"/>
		<rect x="58.25" y="115" fill="#D9E7E3" width="185.36" height="0.39"/>
		<rect x="58.25" y="114.6" fill="#D8E7E2" width="185.36" height="0.39"/>
		<rect x="58.25" y="114.21" fill="#D8E7E1" width="185.36" height="0.39"/>
		<rect x="58.25" y="113.81" fill="#D7E6E1" width="185.36" height="0.39"/>
		<rect x="58.25" y="113.42" fill="#D6E6E0" width="185.36" height="0.39"/>
		<rect x="58.25" y="113.02" fill="#D5E5DF" width="185.36" height="0.39"/>
		<rect x="58.25" y="112.62" fill="#D5E5DF" width="185.36" height="0.39"/>
		<rect x="58.25" y="112.23" fill="#D4E5DF" width="185.36" height="0.39"/>
		<rect x="58.25" y="111.84" fill="#D3E4DE" width="185.36" height="0.39"/>
		<rect x="58.25" y="111.45" fill="#D2E4DE" width="185.36" height="0.39"/>
		<rect x="58.25" y="111.05" fill="#D2E3DD" width="185.36" height="0.39"/>
		<rect x="58.25" y="110.65" fill="#D1E3DC" width="185.36" height="0.39"/>
		<rect x="58.25" y="110.26" fill="#D0E2DB" width="185.36" height="0.39"/>
		<rect x="58.25" y="109.86" fill="#CFE1DB" width="185.36" height="0.39"/>
		<rect x="58.25" y="109.47" fill="#CEE1DA" width="185.36" height="0.39"/>
		<rect x="58.25" y="109.07" fill="#CDE1DA" width="185.36" height="0.39"/>
		<rect x="58.25" y="108.68" fill="#CDE0D9" width="185.36" height="0.39"/>
		<rect x="58.25" y="108.28" fill="#CCE0D9" width="185.36" height="0.39"/>
		<rect x="58.25" y="107.89" fill="#CBDFD8" width="185.36" height="0.39"/>
		<rect x="58.25" y="107.5" fill="#CBDFD7" width="185.36" height="0.39"/>
		<rect x="58.25" y="107.1" fill="#CADFD7" width="185.36" height="0.39"/>
		<rect x="58.25" y="106.7" fill="#C9DED6" width="185.36" height="0.39"/>
		<rect x="58.25" y="106.31" fill="#C8DED6" width="185.36" height="0.39"/>
		<rect x="58.25" y="105.92" fill="#C8DDD6" width="185.36" height="0.39"/>
		<rect x="58.25" y="105.52" fill="#C6DCD4" width="185.36" height="0.39"/>
		<rect x="58.25" y="105.12" fill="#C5DCD3" width="185.36" height="0.39"/>
		<rect x="58.25" y="104.73" fill="#C5DCD3" width="185.36" height="0.39"/>
		<rect x="58.25" y="104.33" fill="#C4DBD3" width="185.36" height="0.39"/>
		<rect x="58.25" y="103.94" fill="#C3DBD2" width="185.36" height="0.39"/>
		<rect x="58.25" y="103.55" fill="#C2DAD2" width="185.36" height="0.39"/>
		<rect x="58.25" y="103.15" fill="#C2DAD1" width="185.36" height="0.39"/>
		<rect x="58.25" y="102.75" fill="#C1D9D0" width="185.36" height="0.39"/>
		<rect x="58.25" y="102.36" fill="#C0D9D0" width="185.36" height="0.39"/>
		<rect x="58.25" y="101.97" fill="#BFD9CF" width="185.36" height="0.39"/>
		<rect x="58.25" y="101.57" fill="#BFD8CF" width="185.36" height="0.39"/>
		<rect x="58.25" y="101.17" fill="#BED8CE" width="185.36" height="0.39"/>
		<rect x="58.25" y="100.78" fill="#BDD7CD" width="185.36" height="0.39"/>
		<rect x="58.25" y="100.39" fill="#BCD6CC" width="185.36" height="0.39"/>
		<rect x="58.25" y="99.99" fill="#BBD6CC" width="185.36" height="0.39"/>
		<rect x="58.25" y="99.6" fill="#BAD5CB" width="185.36" height="0.39"/>
		<rect x="58.25" y="99.2" fill="#B9D5CB" width="185.36" height="0.39"/>
		<rect x="58.25" y="98.8" fill="#B9D5CB" width="185.36" height="0.39"/>
		<rect x="58.25" y="98.41" fill="#B8D4CA" width="185.36" height="0.39"/>
		<rect x="58.25" y="98.02" fill="#B7D4CA" width="185.36" height="0.39"/>
		<rect x="58.25" y="97.63" fill="#B6D3C9" width="185.36" height="0.39"/>
		<rect x="58.25" y="97.22" fill="#B5D3C8" width="185.36" height="0.39"/>
		<rect x="58.25" y="96.83" fill="#B5D3C8" width="185.36" height="0.39"/>
		<rect x="58.25" y="96.44" fill="#B4D2C7" width="185.36" height="0.39"/>
		<rect x="58.25" y="96.04" fill="#B3D1C6" width="185.36" height="0.39"/>
		<rect x="58.25" y="95.65" fill="#B2D1C6" width="185.36" height="0.39"/>
		<rect x="58.25" y="95.25" fill="#B1D0C5" width="185.36" height="0.39"/>
		<rect x="58.25" y="94.86" fill="#B0D0C4" width="185.36" height="0.39"/>
		<rect x="58.25" y="94.46" fill="#AFCFC4" width="185.36" height="0.39"/>
		<rect x="58.25" y="94.07" fill="#AFCFC4" width="185.36" height="0.39"/>
		<rect x="58.25" y="93.68" fill="#AECEC3" width="185.36" height="0.39"/>
		<rect x="58.25" y="93.27" fill="#ADCEC3" width="185.36" height="0.39"/>
		<rect x="58.25" y="92.88" fill="#ACCEC2" width="185.36" height="0.39"/>
		<rect x="58.25" y="92.49" fill="#ABCDC1" width="185.36" height="0.39"/>
		<rect x="58.25" y="92.1" fill="#AACDC1" width="185.36" height="0.39"/>
		<rect x="58.25" y="91.7" fill="#AACCC0" width="185.36" height="0.39"/>
		<rect x="58.25" y="91.3" fill="#A8CBBF" width="185.36" height="0.39"/>
		<rect x="58.25" y="90.91" fill="#A8CBBF" width="185.36" height="0.39"/>
		<rect x="58.25" y="90.51" fill="#A7CBBE" width="185.36" height="0.39"/>
		<rect x="58.25" y="90.12" fill="#A6CABE" width="185.36" height="0.39"/>
		<rect x="58.25" y="89.72" fill="#A5CABD" width="185.36" height="0.39"/>
		<rect x="58.25" y="89.33" fill="#A4C9BD" width="185.36" height="0.39"/>
		<rect x="58.25" y="88.93" fill="#A4C9BC" width="185.36" height="0.39"/>
		<rect x="58.25" y="88.54" fill="#A3C8BC" width="185.36" height="0.39"/>
		<rect x="58.25" y="88.15" fill="#A2C8BB" width="185.36" height="0.39"/>
		<rect x="58.25" y="87.75" fill="#A1C8BB" width="185.36" height="0.39"/>
		<rect x="58.25" y="87.35" fill="#A0C7BA" width="185.36" height="0.39"/>
		<rect x="58.25" y="86.96" fill="#9FC7B9" width="185.36" height="0.39"/>
		<rect x="58.25" y="86.57" fill="#9EC6B9" width="185.36" height="0.39"/>
		<rect x="58.25" y="86.17" fill="#9DC5B8" width="185.36" height="0.39"/>
		<rect x="58.25" y="85.77" fill="#9DC5B7" width="185.36" height="0.39"/>
		<rect x="58.25" y="85.38" fill="#9CC5B7" width="185.36" height="0.39"/>
		<rect x="58.25" y="84.98" fill="#9BC4B6" width="185.36" height="0.39"/>
		<rect x="58.25" y="84.59" fill="#9AC4B5" width="185.36" height="0.39"/>
		<rect x="58.25" y="84.2" fill="#99C3B5" width="185.36" height="0.39"/>
		<rect x="58.25" y="83.8" fill="#98C3B5" width="185.36" height="0.39"/>
		<rect x="58.25" y="83.4" fill="#98C2B4" width="185.36" height="0.39"/>
		<rect x="58.25" y="83.01" fill="#97C2B4" width="185.36" height="0.39"/>
		<rect x="58.25" y="82.62" fill="#96C2B3" width="185.36" height="0.39"/>
		<rect x="58.25" y="82.22" fill="#95C1B2" width="185.36" height="0.39"/>
		<rect x="58.25" y="81.82" fill="#94C0B2" width="185.36" height="0.39"/>
		<rect x="58.25" y="81.43" fill="#93C0B1" width="185.36" height="0.39"/>
		<rect x="58.25" y="81.04" fill="#92BFB1" width="185.36" height="0.39"/>
		<rect x="58.25" y="80.64" fill="#91BFB0" width="185.36" height="0.39"/>
		<rect x="58.25" y="80.25" fill="#90BEAF" width="185.36" height="0.39"/>
		<rect x="58.25" y="79.85" fill="#8FBEAF" width="185.36" height="0.39"/>
		<rect x="58.25" y="79.45" fill="#8EBDAE" width="185.36" height="0.39"/>
		<rect x="58.25" y="79.06" fill="#8DBDAD" width="185.36" height="0.39"/>
		<rect x="58.25" y="78.67" fill="#8CBCAD" width="185.36" height="0.39"/>
		<rect x="58.25" y="78.28" fill="#8BBCAD" width="185.36" height="0.39"/>
		<rect x="58.25" y="77.87" fill="#8ABBAC" width="185.36" height="0.39"/>
		<rect x="58.25" y="77.48" fill="#89BBAC" width="185.36" height="0.39"/>
		<rect x="58.25" y="77.09" fill="#88BAAB" width="185.36" height="0.39"/>
		<rect x="58.25" y="76.69" fill="#87BAAA" width="185.36" height="0.39"/>
		<rect x="58.25" y="76.3" fill="#86B9AA" width="185.36" height="0.39"/>
		<rect x="58.25" y="75.9" fill="#86B9A9" width="185.36" height="0.39"/>
		<rect x="58.25" y="75.51" fill="#85B8A8" width="185.36" height="0.39"/>
		<rect x="58.25" y="75.11" fill="#84B8A8" width="185.36" height="0.39"/>
		<rect x="58.25" y="74.72" fill="#83B7A7" width="185.36" height="0.39"/>
		<rect x="58.25" y="74.33" fill="#82B7A7" width="185.36" height="0.39"/>
		<rect x="58.25" y="73.92" fill="#81B7A7" width="185.36" height="0.39"/>
		<rect x="58.25" y="73.53" fill="#80B6A6" width="185.36" height="0.39"/>
		<rect x="58.25" y="73.14" fill="#80B6A5" width="185.36" height="0.39"/>
		<rect x="58.25" y="72.75" fill="#7FB5A5" width="185.36" height="0.39"/>
		<rect x="58.25" y="72.35" fill="#7EB4A4" width="185.36" height="0.39"/>
		<rect x="58.25" y="71.95" fill="#7DB4A4" width="185.36" height="0.39"/>
		<rect x="58.25" y="71.56" fill="#7CB4A3" width="185.36" height="0.39"/>
		<rect x="58.25" y="71.16" fill="#7BB3A2" width="185.36" height="0.39"/>
		<rect x="58.25" y="70.77" fill="#7AB3A2" width="185.36" height="0.39"/>
		<rect x="58.25" y="70.38" fill="#7AB2A1" width="185.36" height="0.39"/>
		<rect x="58.25" y="69.98" fill="#79B2A1" width="185.36" height="0.39"/>
		<rect x="58.25" y="69.58" fill="#78B2A1" width="185.36" height="0.39"/>
		<rect x="58.25" y="69.19" fill="#77B1A0" width="185.36" height="0.39"/>
		<rect x="58.25" y="68.8" fill="#76B19F" width="185.36" height="0.39"/>
		<rect x="58.25" y="68.4" fill="#75B09F" width="185.36" height="0.39"/>
		<rect x="58.25" y="68" fill="#74B09E" width="185.36" height="0.39"/>
		<rect x="58.25" y="67.61" fill="#73AF9D" width="185.36" height="0.39"/>
		<rect x="58.25" y="67.22" fill="#72AF9D" width="185.36" height="0.39"/>
		<rect x="58.25" y="66.82" fill="#71AE9C" width="185.36" height="0.39"/>
		<rect x="58.25" y="66.42" fill="#70AE9C" width="185.36" height="0.39"/>
		<rect x="58.25" y="66.03" fill="#6FAD9B" width="185.36" height="0.39"/>
		<rect x="58.25" y="65.63" fill="#6EAD9B" width="185.36" height="0.39"/>
		<rect x="58.25" y="65.24" fill="#6DAC9A" width="185.36" height="0.39"/>
		<rect x="58.25" y="64.85" fill="#6DAC9A" width="185.36" height="0.39"/>
		<rect x="58.25" y="64.45" fill="#6CAC99" width="185.36" height="0.39"/>
		<rect x="58.25" y="64.05" fill="#6BAB98" width="185.36" height="0.39"/>
		<rect x="58.25" y="63.66" fill="#6AAB98" width="185.36" height="0.39"/>
		<rect x="58.25" y="63.27" fill="#69AA98" width="185.36" height="0.39"/>
		<rect x="58.25" y="62.87" fill="#68AA96" width="185.36" height="0.39"/>
		<rect x="58.25" y="62.47" fill="#67A996" width="185.36" height="0.39"/>
		<rect x="58.25" y="62.08" fill="#66A996" width="185.36" height="0.39"/>
		<rect x="58.25" y="61.69" fill="#65A896" width="185.36" height="0.39"/>
		<rect x="58.25" y="61.29" fill="#64A895" width="185.36" height="0.39"/>
		<rect x="58.25" y="60.9" fill="#63A894" width="185.36" height="0.39"/>
		<rect x="58.25" y="60.5" fill="#62A794" width="185.36" height="0.39"/>
		<rect x="58.25" y="60.1" fill="#61A793" width="185.36" height="0.39"/>
		<rect x="58.25" y="59.71" fill="#60A693" width="185.36" height="0.39"/>
		<rect x="58.25" y="59.32" fill="#5FA692" width="185.36" height="0.39"/>
		<rect x="58.25" y="58.93" fill="#5EA692" width="185.36" height="0.39"/>
		<rect x="58.25" y="58.52" fill="#5DA591" width="185.36" height="0.39"/>
		<rect x="58.25" y="58.13" fill="#5CA491" width="185.36" height="0.39"/>
		<rect x="58.25" y="57.74" fill="#5BA490" width="185.36" height="0.39"/>
		<rect x="58.25" y="57.34" fill="#5AA48F" width="185.36" height="0.39"/>
		<rect x="58.25" y="56.95" fill="#59A38F" width="185.36" height="0.39"/>
		<rect x="58.25" y="56.55" fill="#58A38E" width="185.36" height="0.39"/>
		<rect x="58.25" y="56.16" fill="#58A28E" width="185.36" height="0.39"/>
		<rect x="58.25" y="55.76" fill="#57A28D" width="185.36" height="0.39"/>
		<rect x="58.25" y="55.37" fill="#56A28D" width="185.36" height="0.39"/>
		<rect x="58.25" y="54.98" fill="#55A18C" width="185.36" height="0.39"/>
		<rect x="58.25" y="54.57" fill="#54A18C" width="185.36" height="0.39"/>
		<rect x="58.25" y="54.18" fill="#53A08B" width="185.36" height="0.39"/>
		<rect x="58.25" y="53.79" fill="#52A08A" width="185.36" height="0.39"/>
		<rect x="58.25" y="53.4" fill="#509F8A" width="185.36" height="0.39"/>
		<rect x="58.25" y="53" fill="#509F89" width="185.36" height="0.39"/>
		<rect x="58.25" y="52.6" fill="#4F9F89" width="185.36" height="0.39"/>
		<rect x="58.25" y="52.21" fill="#4E9E89" width="185.36" height="0.39"/>
		<rect x="58.25" y="51.81" fill="#4D9E88" width="185.36" height="0.39"/>
		<rect x="58.25" y="51.42" fill="#4C9D88" width="185.36" height="0.39"/>
		<rect x="58.25" y="51.03" fill="#4B9D87" width="185.36" height="0.39"/>
		<rect x="58.25" y="50.63" fill="#4A9D86" width="185.36" height="0.39"/>
		<rect x="58.25" y="50.23" fill="#499C86" width="185.36" height="0.39"/>
		<rect x="58.25" y="49.84" fill="#489C86" width="185.36" height="0.39"/>
		<rect x="58.25" y="49.45" fill="#479C85" width="185.36" height="0.39"/>
		<rect x="58.25" y="49.05" fill="#469B85" width="185.36" height="0.39"/>
		<rect x="58.25" y="48.65" fill="#449A84" width="185.36" height="0.39"/>
		<rect x="58.25" y="48.26" fill="#439A83" width="185.36" height="0.39"/>
		<rect x="58.25" y="47.87" fill="#429A83" width="185.36" height="0.39"/>
		<rect x="58.25" y="47.47" fill="#419982" width="185.36" height="0.39"/>
		<rect x="58.25" y="47.08" fill="#409981" width="185.36" height="0.39"/>
		<rect x="58.25" y="46.68" fill="#3F9981" width="185.36" height="0.39"/>
		<rect x="58.25" y="46.28" fill="#3E9881" width="185.36" height="0.39"/>
		<rect x="58.25" y="45.89" fill="#3D9880" width="185.36" height="0.39"/>
		<rect x="58.25" y="45.5" fill="#3C9880" width="185.36" height="0.39"/>
		<rect x="58.25" y="45.1" fill="#3B9780" width="185.36" height="0.39"/>
		<rect x="58.25" y="44.7" fill="#3A9780" width="185.36" height="0.39"/>
		<rect x="58.25" y="44.31" fill="#39977F" width="185.36" height="0.39"/>
		<rect x="58.25" y="43.92" fill="#37967E" width="185.36" height="0.39"/>
		<rect x="58.25" y="43.52" fill="#36967E" width="185.36" height="0.39"/>
		<rect x="58.25" y="43.12" fill="#35957E" width="185.36" height="0.39"/>
		<rect x="58.25" y="42.73" fill="#34957D" width="185.36" height="0.39"/>
		<rect x="58.25" y="42.34" fill="#33957D" width="185.36" height="0.39"/>
		<rect x="58.25" y="41.94" fill="#31947C" width="185.36" height="0.39"/>
		<rect x="58.25" y="41.55" fill="#30947C" width="185.36" height="0.39"/>
		<rect x="58.25" y="41.15" fill="#2F947C" width="185.36" height="0.39"/>
		<rect x="58.25" y="40.75" fill="#2E937B" width="185.36" height="0.39"/>
		<rect x="58.25" y="40.53" fill="#2C937A" width="185.36" height="0.22"/>
	</g>
</g>
<g>
	<path fill="#FFFFFF" d="M66.01,97.75c4.46,6.7,12.8,10.76,21.35,10.76c5.82,0,8.17-2.15,8.17-5.7c0-4.14-3.13-4.73-10.23-7.29
		c-13.66-5.02-20.61-9.18-20.61-21.6c0-11.38,10.3-23.34,24.98-24.32c9.14-0.61,12.39,0.48,19.22,2.94v19.88
		c-5.88-4.84-7.99-7.04-15.32-7.88c-4.94-0.56-8.55,2.48-8.13,5.6c0.63,4.73,4.9,4.09,15.73,8.33c9.65,3.84,14.37,12.24,14.37,22.1
		c0,13.7-13,22.72-28.37,22.47c-8.65-0.14-15.68-1.21-21.15-5.86V97.75"/>
</g>
<g>
	<path fill="#FFFFFF" d="M110.73,68.93h6.11V57.35l19.8-2.52v13.89h9.27v14.11h-9.69v20c0,0,0.69,6.47,8.84,2.4
		c0.04-0.02-0.03,14.51-0.03,14.51s-24.88,9.74-27.79-8.15l0.02-28.76h-6.53V68.93"/>
</g>
<g>
	<path fill="#FFFFFF" d="M201.09,96.03l-14.7-27h23.38l4.74,9.94l4.73-9.94h18.8l-15.48,27l14.85,24.94h-22.11l-5.06-7.86
		l-5.38,8.42h-32.16l-1.22-4.77c-2.62,3.05-3.95,6-10.91,6c-8.85,0-14.17-5.14-14.17-14.27c0-8.95,3.58-14.23,12.26-18.91
		c7.45-4.02,10.91-3.26,10.91-3.34c-0.04-2.83-0.68-4.6-4.21-4.81c-5.15-0.3-8.8,0.15-15.16,4.98V70.15
		c6.57-3.06,11.81-3.28,19.27-2.41c11.16,1.3,18.76,8.27,19.19,17.44v28.68L201.09,96.03 M164.6,104.55c0.28,6.66,6.16,3,6.16,3
		V97.3C164.48,100.12,164.6,104.55,164.6,104.55z"/>
</g>
<g>
	<polyline fill="#20201E" points="243.78,139.33 243.78,129.59 58.16,129.59 58.16,139.33 243.78,139.33 	"/>
</g>
<g>
	<polyline fill="#FFFFFF" points="66.65,137.38 66.65,132.94 65.67,132.94 65.67,131.43 69.31,131.43 69.31,132.94 68.33,132.94 
		68.33,137.38 66.65,137.38 	"/>
</g>
<g>
	<path fill="#FFFFFF" d="M79.81,131.43h1.91c1.31,0,2.09,0.71,2.09,1.84c0,0.7-0.33,1.19-1,1.48l1.18,2.64h-1.77l-0.75-2.3v2.3
		h-1.66L79.81,131.43 M81.48,134.08c0.45-0.01,0.65-0.22,0.65-0.71c0-0.47-0.21-0.71-0.59-0.71c-0.02,0-0.04,0-0.07,0L81.48,134.08
		L81.48,134.08z"/>
</g>
<g>
	<path fill="#FFFFFF" d="M96.07,131.43h1.87l1.3,5.95h-1.62l-0.12-0.87h-0.99l-0.12,0.87h-1.62L96.07,131.43 M97.33,135.3L97,133.1
		l-0.33,2.2H97.33z"/>
</g>
<g>
	<path fill="#FFFFFF" d="M111.57,131.43c0.97,0,1.62,0.09,2.21,0.72c0.43,0.47,0.66,1.23,0.66,2.26c0,1.97-0.86,2.97-2.51,2.97
		h-1.61v-5.95H111.57 M112,135.87c0.03,0,0.05,0,0.07,0c0.55,0,0.7-0.46,0.7-1.5c0-1.04-0.13-1.52-0.71-1.52c-0.02,0-0.04,0-0.06,0
		L112,135.87L112,135.87z"/>
</g>
<g>
	<polyline fill="#FFFFFF" points="125.73,131.43 128.69,131.43 128.69,132.87 127.4,132.87 127.4,133.63 128.56,133.63 
		128.56,135.02 127.4,135.02 127.4,135.84 128.69,135.84 128.69,137.38 125.73,137.38 125.73,131.43 	"/>
</g>
<g>
	<path fill="#FFFFFF" d="M148.76,137.49c-0.59,0-1.15-0.24-1.61-0.71c-0.56-0.57-0.81-1.36-0.81-2.43c0-1.85,1.03-3.04,2.37-3.04
		c0.35,0,0.68,0.06,0.99,0.17v1.43c-0.21-0.12-0.42-0.18-0.62-0.18c-0.66,0-1.01,0.56-1.01,1.64c0,1.04,0.37,1.61,0.98,1.61
		c0.21,0,0.44-0.06,0.64-0.2v1.5C149.39,137.42,149.08,137.49,148.76,137.49"/>
</g>
<g>
	<polyline fill="#FFFFFF" points="161.03,131.43 163.98,131.43 163.98,132.87 162.7,132.87 162.7,133.63 163.86,133.63 
		163.86,135.02 162.7,135.02 162.7,135.84 163.98,135.84 163.98,137.38 161.03,137.38 161.03,131.43 	"/>
</g>
<g>
	<polyline fill="#FFFFFF" points="175.4,131.43 177.05,131.43 177.97,134.56 177.97,131.43 179.49,131.43 179.49,137.38 
		177.85,137.38 176.92,134.4 176.92,137.38 175.4,137.38 175.4,131.43 	"/>
</g>
<g>
	<polyline fill="#FFFFFF" points="191.68,137.38 191.68,132.94 190.7,132.94 190.7,131.43 194.33,131.43 194.33,132.94 
		193.34,132.94 193.34,137.38 191.68,137.38 	"/>
</g>
<g>
	<path fill="#FFFFFF" d="M205.53,131.43h1.91c1.31,0,2.09,0.71,2.09,1.84c0,0.7-0.34,1.19-1,1.48l1.18,2.64h-1.77l-0.75-2.3v2.3
		h-1.66L205.53,131.43 M207.19,134.08c0.45-0.01,0.65-0.22,0.65-0.71c0-0.47-0.21-0.71-0.59-0.71c-0.02,0-0.04,0-0.06,0
		L207.19,134.08L207.19,134.08z"/>
</g>
<g>
	<polyline fill="#FFFFFF" points="220.91,131.43 223.87,131.43 223.87,132.87 222.58,132.87 222.58,133.63 223.74,133.63 
		223.74,135.02 222.58,135.02 222.58,135.84 223.87,135.84 223.87,137.38 220.91,137.38 220.91,131.43 	"/>
</g>
<g>
	<path fill="#FFFFFF" d="M235.56,135.98c0.28,0,0.45-0.19,0.45-0.42c0-0.21-0.19-0.38-0.45-0.63c-0.7-0.65-1.17-1.11-1.17-1.89
		c0-0.99,0.74-1.73,1.83-1.73c0.42,0,0.86,0.12,1.35,0.34v1.54c-0.4-0.32-0.75-0.47-1.03-0.47c-0.26,0-0.42,0.15-0.42,0.36
		c0,0.24,0.21,0.38,0.47,0.6c0.75,0.6,1.19,1.01,1.19,1.89c0,1.16-0.79,1.93-2.02,1.93c-0.47,0-0.92-0.15-1.38-0.45v-1.64
		C234.87,135.79,235.27,135.98,235.56,135.98"/>
</g>
<g>
	<path fill="#FFFFFF" d="M65.82,97.75c4.46,6.7,12.8,10.76,21.35,10.76c5.82,0,8.17-2.15,8.17-5.7c0-4.14-3.13-4.73-10.23-7.29
		c-13.65-5.02-20.6-9.18-20.6-21.6c0-11.38,10.3-23.34,24.98-24.32c9.14-0.61,12.39,0.48,19.22,2.94v19.88
		c-5.88-4.84-7.99-7.04-15.32-7.88c-4.94-0.56-8.55,2.48-8.13,5.6c0.63,4.73,4.9,4.09,15.73,8.33c9.65,3.84,14.37,12.24,14.37,22.1
		c0,13.7-13,22.72-28.37,22.47c-8.65-0.14-15.68-1.21-21.15-5.86L65.82,97.75"/>
</g>
<g>
	<path fill="#20201E" d="M87.61,124.31c-0.21,0-0.44,0-0.65-0.01c-7.78-0.12-15.83-0.96-21.95-6.15l-0.45-0.37v-24.2l2.32,3.48
		c4.13,6.2,12.09,10.2,20.3,10.2c6.9,0,6.9-3.22,6.9-4.44c0-2.68-1.49-3.31-7.18-5.31c-0.69-0.24-1.43-0.5-2.22-0.78
		c-12.55-4.62-21.43-8.96-21.43-22.79c0-5.97,2.68-12.14,7.34-16.94c4.95-5.09,11.64-8.16,18.81-8.63
		c9.23-0.61,12.72,0.48,19.73,3.01l0.84,0.3v23.44l-3.37-2.79c-4.93-4.09-6.97-5.79-13.36-6.52c-2.32-0.26-4.48,0.37-5.78,1.69
		c-0.74,0.75-1.08,1.64-0.96,2.49c0.32,2.4,1.66,2.92,6.73,4.49c2.18,0.68,4.88,1.52,8.2,2.83c9.65,3.84,15.18,12.32,15.18,23.27
		c0,5.88-2.26,11.2-6.53,15.4C104.68,121.29,96.52,124.31,87.61,124.31z M67.09,116.59c5.15,4.11,11.7,5.06,19.91,5.19
		c8.52,0.16,16.26-2.63,21.32-7.61c3.77-3.72,5.77-8.42,5.77-13.6c0-9.86-4.95-17.49-13.58-20.93c-3.24-1.27-5.89-2.1-8.03-2.76
		c-5.12-1.6-7.94-2.48-8.49-6.57c-0.22-1.64,0.37-3.27,1.67-4.59c1.84-1.87,4.77-2.78,7.86-2.43c6.76,0.77,9.38,2.69,13.92,6.45
		V53.44c-6.28-2.25-9.5-3.12-17.87-2.57c-11.49,0.76-23.8,10.21-23.8,23.05c0,11.32,5.83,15.29,19.77,20.42
		c0.78,0.28,1.51,0.54,2.18,0.78c5.72,2.02,8.86,3.12,8.86,7.7c0,3.17-1.63,6.96-9.43,6.96c-7.8,0-15.19-3.15-20.08-8.4
		C67.09,101.38,67.09,116.59,67.09,116.59z"/>
</g>
<g>
	<path fill="#FFFFFF" d="M110.55,68.93h6.11V57.35l19.8-2.52v13.89h9.27v14.11h-9.69v20c0,0,0.69,6.47,8.84,2.4
		c0.04-0.02-0.03,14.51-0.03,14.51s-24.88,9.74-27.79-8.15l0.02-28.76h-6.53V68.93"/>
</g>
<g>
	<path fill="#20201E" d="M131.23,123.64c-3.17,0-6.41-0.54-9.12-2.09c-3.44-1.96-5.56-5.25-6.3-9.77l-0.02-0.21l0.02-27.49h-6.53
		V67.66h6.11V56.24l22.33-2.84v14.06h9.27v16.63h-9.69v18.65c0.04,0.27,0.32,1.64,1.45,2.24c1.19,0.64,3.11,0.34,5.56-0.88
		l0.62-0.31l0.6,0.36c0.63,0.38,0.63,0.38,0.61,8.35l-0.04,8.11l-0.8,0.31C144.9,121.06,138.19,123.64,131.23,123.64z
		 M118.32,111.47c0.62,3.73,2.27,6.31,5.04,7.88c6.55,3.73,17.24,0.5,20.22-0.53c0.02-3.97,0.04-9.02,0.04-11.69
		c-2.45,0.9-4.5,0.92-6.1,0.04c-2.41-1.32-2.73-4.11-2.74-4.23l-0.01-0.13V81.56h9.69V69.98h-9.27V56.26l-17.27,2.2v11.73h-6.11
		v11.37h6.53L118.32,111.47z"/>
</g>
<g>
	<path fill="#20201E" d="M161.51,123.65c-9.67,0-15.44-5.8-15.44-15.52c0-9.27,3.75-15.08,12.92-20.03
		c3.89-2.1,7.37-3.28,10.17-3.48c-0.21-1.59-0.88-2.18-2.95-2.31c-4.53-0.27-7.98-0.09-14.32,4.73l-2.02,1.54V68.98l0.73-0.34
		c6.97-3.24,12.59-3.38,19.95-2.51c11.69,1.36,19.85,8.86,20.3,18.65v24.71l9.67-13.89l-15.34-28.18h26.31l3.94,8.27l3.94-8.27
		h21.78l-16.2,28.25l15.6,26.22h-25.03l-4.36-6.78l-4.68,7.34h-33.84l-0.85-3.31C169.8,121.54,167.55,123.65,161.51,123.65z
		 M169.96,87.13c-2.47,0-5.92,1.12-9.76,3.2c-8.35,4.49-11.6,9.49-11.6,17.8c0,8.27,4.71,13,12.91,13c5.44,0,6.9-1.82,8.93-4.33
		c0.33-0.4,0.66-0.82,1.02-1.23l1.58-1.84l1.58,6.16h30.5l6.05-9.5l5.75,8.93h19.21l-14.09-23.67l14.77-25.74h-15.82l-5.54,11.62
		l-5.54-11.62h-20.46l14.04,25.81l-15.17,21.78v-32.7c-0.39-8.44-7.65-14.97-18.07-16.19c-6.8-0.79-11.74-0.71-17.86,1.97v12.99
		c5.27-3.57,8.88-4.09,13.97-3.78c4.69,0.28,5.36,3.22,5.39,6.05l0.01,0.54l-0.38,0.38c-0.4,0.39-0.87,0.37-1.1,0.37
		C170.19,87.13,170.08,87.13,169.96,87.13z M168.49,109.45c-0.64,0-1.29-0.12-1.91-0.45c-1.44-0.76-2.22-2.36-2.33-4.77v-0.02
		c-0.01-0.21-0.06-5.31,6.9-8.44l1.78-0.8v12.92l-0.6,0.37C172.09,108.41,170.36,109.45,168.49,109.45z M166.78,104.15
		c0.04,0.98,0.25,2.23,0.98,2.61c0.69,0.37,1.85,0.02,2.66-0.35v-7.39C166.9,101.28,166.79,103.92,166.78,104.15z"/>
</g>
</svg>
