<?xml version="1.0" encoding="utf-8"?>
<!-- Generator: Adobe Illustrator 19.2.0, SVG Export Plug-In . SVG Version: 6.00 Build 0)  -->
<svg version="1.1" baseProfile="tiny" id="Layer_1" xmlns="http://www.w3.org/2000/svg" xmlns:xlink="http://www.w3.org/1999/xlink"
	 x="0px" y="0px" viewBox="0 0 300 180" xml:space="preserve">
<g>
	<path fill="none" d="M140.89,121.57h-0.83v3.36h0.67c0.64,0,1.03-0.28,1.03-1.16v-1.08C141.76,121.92,141.5,121.57,140.89,121.57z"
		/>
	<path fill="none" d="M191.81,121.57h-0.83v3.36h0.67c0.64,0,1.03-0.28,1.03-1.16v-1.08C192.68,121.92,192.42,121.57,191.81,121.57z
		"/>
	<path fill="none" d="M154.17,122.53v5.91c0,0.78,0.34,1.08,0.89,1.08c0.55,0,0.89-0.3,0.89-1.08v-5.91c0-0.78-0.34-1.08-0.89-1.08
		C154.51,121.45,154.17,121.75,154.17,122.53z"/>
	<path fill="none" d="M115.03,124.24v-1.64c0-0.78-0.3-1.03-0.84-1.03h-0.81v3.7h0.81C114.74,125.27,115.03,125.02,115.03,124.24z"
		/>
	<path fill="none" d="M120.98,128.43v-5.91c0-0.78-0.34-1.08-0.89-1.08s-0.89,0.3-0.89,1.08v5.91c0,0.78,0.34,1.08,0.89,1.08
		C120.64,129.51,120.98,129.21,120.98,128.43z"/>
	<path fill="#BF0005" d="M42.08,56.84v48.14c0,4,2.81,6.83,6.87,6.83h34.1V56.84H65.95v41.23h-6.78V56.84H42.08z"/>
	<path fill="#BF0005" d="M87.72,63.67v11.54c0,4.4,0.86,6.76,4.6,9.34l14.83,9.89v3.62H87.72v13.74h29.73
		c3.98,0,6.78-2.83,6.78-6.83V92.49c0-4.4-0.86-6.83-4.6-9.34l-14.83-9.97v-2.51h16.77l2.66-7.07v-6.75H94.59
		C90.53,56.84,87.72,59.67,87.72,63.67z"/>
	<path fill="#BF0005" d="M134.28,56.84l-7.65,48.14v6.83h17.01l1.09-11.07h7.49l1.01,11.07h17.09v-6.83l-7.65-48.14
		C162.69,56.84,134.28,56.84,134.28,56.84z M145.99,87l1.56-16.33h1.88L150.98,87H145.99z"/>
	<polygon fill="#BF0005" points="191.56,56.84 173.46,56.84 173.46,111.81 189.14,111.81 189.14,104.97 186.95,86.45 188.28,86.45 
		196.32,111.81 214.42,111.81 214.42,56.84 198.66,56.84 198.66,63.67 200.92,82.28 199.52,82.28 	"/>
	<path fill="#BF0005" d="M225.2,56.84l-7.65,48.14v6.83h17.01l1.09-11.07h7.49l1.01,11.07h17.09v-6.83l-7.65-48.14
		C253.6,56.84,225.2,56.84,225.2,56.84z M236.9,87l1.56-16.33h1.88L241.9,87H236.9z"/>
	<path fill="#BF0005" d="M266.7,66.27c-0.03-0.06-0.05-0.13-0.09-0.19c-0.04-0.05-0.05-0.09-0.06-0.11
		c-0.28-0.5-0.52-0.94-0.74-1.32c-0.14-0.23-0.3-0.43-0.44-0.58c-0.17-0.17-0.39-0.31-0.67-0.39v-0.04
		c1.24-0.26,1.86-0.89,1.86-1.88c0-0.66-0.21-1.15-0.62-1.48c-0.41-0.32-1.02-0.48-1.85-0.48h-3.05v6.87h1.7v-2.7
		c0.08-0.01,0.14-0.02,0.2-0.02c0.24,0,0.46,0.12,0.66,0.36c0.25,0.31,0.61,0.92,1.06,1.86l0.26,0.5h2c-0.03-0.06-0.06-0.13-0.1-0.2
		C266.78,66.42,266.74,66.34,266.7,66.27z M263.46,62.72h-0.74V61h0.8c0.41,0,0.73,0.07,0.95,0.22c0.21,0.15,0.31,0.37,0.31,0.64
		C264.79,62.43,264.35,62.72,263.46,62.72z"/>
	<path fill="#BF0005" d="M267.12,57.69c-0.99-0.57-2.05-0.85-3.2-0.85s-2.21,0.29-3.19,0.85c-0.99,0.57-1.76,1.36-2.33,2.34
		c-0.57,0.99-0.86,2.06-0.86,3.21c0,1.16,0.29,2.23,0.86,3.2c0.57,0.99,1.35,1.76,2.33,2.33c0.98,0.57,2.04,0.86,3.19,0.86
		s2.21-0.29,3.19-0.86c0.98-0.57,1.76-1.35,2.33-2.33c0.57-0.99,0.85-2.06,0.85-3.2c0-1.16-0.29-2.23-0.85-3.21
		C268.88,59.06,268.1,58.28,267.12,57.69z M268.37,65.83c-0.46,0.79-1.09,1.42-1.88,1.88c-0.8,0.47-1.66,0.7-2.58,0.7
		c-0.46,0-0.9-0.05-1.32-0.17c-0.42-0.11-0.84-0.29-1.26-0.52c-0.78-0.46-1.41-1.09-1.87-1.88c-0.46-0.78-0.69-1.65-0.69-2.59
		c0-0.94,0.23-1.81,0.69-2.61c0.47-0.79,1.09-1.42,1.87-1.88c0.79-0.46,1.65-0.69,2.58-0.69c0.93,0,1.79,0.23,2.58,0.69
		c0.8,0.46,1.43,1.09,1.88,1.89c0.46,0.8,0.69,1.67,0.69,2.59C269.07,64.18,268.84,65.04,268.37,65.83z"/>
	<polygon fill="#2B2C2D" points="125.09,120.01 123.41,120.01 124.63,130.94 126.99,130.94 127.61,125.12 128.24,130.94 
		130.52,130.94 131.74,120.01 130.24,120.01 129.35,128.69 128.49,120.01 126.83,120.01 126.01,128.63 	"/>
	<polygon fill="#2B2C2D" points="172.05,128.93 170.74,120.01 169.01,120.01 170.68,130.94 173.25,130.94 174.94,120.01 
		173.36,120.01 	"/>
	<rect x="166.48" y="120.01" fill="#2B2C2D" width="1.71" height="10.93"/>
	<polygon fill="#2B2C2D" points="180.41,121.57 180.41,120.01 175.73,120.01 175.73,130.94 180.41,130.94 180.41,129.38 
		177.45,129.38 177.45,126.18 179.8,126.18 179.8,124.62 177.45,124.62 177.45,121.57 	"/>
	<polygon fill="#2B2C2D" points="161.2,120.01 161.2,130.94 165.74,130.94 165.74,129.38 162.91,129.38 162.91,120.01 	"/>
	<path fill="#2B2C2D" d="M152.46,122.63v5.68c0,1.75,0.92,2.75,2.6,2.75c1.69,0,2.6-1,2.6-2.75v-5.68c0-1.75-0.92-2.75-2.6-2.75
		C153.37,119.89,152.46,120.89,152.46,122.63z M155.95,122.53v5.91c0,0.78-0.34,1.08-0.89,1.08c-0.55,0-0.89-0.3-0.89-1.08v-5.91
		c0-0.78,0.34-1.08,0.89-1.08C155.61,121.45,155.95,121.75,155.95,122.53z"/>
	<path fill="#2B2C2D" d="M141.93,130.94h1.75c-0.17-0.4-0.19-0.8-0.19-1.33v-1.69c0-1.14-0.28-1.97-1.14-2.32
		c0.76-0.36,1.12-1.09,1.12-2.22v-0.86c0-1.69-0.76-2.51-2.54-2.51h-2.59v10.93h1.71v-4.45h0.59c0.78,0,1.12,0.38,1.12,1.39v1.71
		C141.78,130.49,141.84,130.66,141.93,130.94z M141.76,123.77c0,0.87-0.39,1.16-1.03,1.16h-0.67v-3.36h0.83
		c0.61,0,0.87,0.34,0.87,1.12L141.76,123.77L141.76,123.77z"/>
	<polygon fill="#2B2C2D" points="188.44,121.57 188.44,120.01 183.89,120.01 183.89,130.94 185.61,130.94 185.61,126.43 
		187.83,126.43 187.83,124.87 185.61,124.87 185.61,121.57 	"/>
	<polygon fill="#2B2C2D" points="137.28,121.57 137.28,120.01 132.59,120.01 132.59,130.94 137.28,130.94 137.28,129.38 
		134.32,129.38 134.32,126.18 136.67,126.18 136.67,124.62 134.32,124.62 134.32,121.57 	"/>
	<polygon fill="#2B2C2D" points="150.05,130.94 150.05,121.57 151.85,121.57 151.85,120.01 146.54,120.01 146.54,121.57 
		148.34,121.57 148.34,130.94 	"/>
	<polygon fill="#2B2C2D" points="96.83,120.01 96.83,130.94 98.55,130.94 98.55,126.26 100.5,126.26 100.5,130.94 102.25,130.94 
		102.25,120.01 100.5,120.01 100.5,124.7 98.55,124.7 98.55,120.01 	"/>
	<path fill="#2B2C2D" d="M122.7,128.31v-5.68c0-1.75-0.92-2.75-2.61-2.75c-1.69,0-2.6,1-2.6,2.75v5.68c0,1.75,0.92,2.75,2.6,2.75
		C121.78,131.07,122.7,130.06,122.7,128.31z M119.2,128.43v-5.91c0-0.78,0.34-1.08,0.89-1.08s0.89,0.3,0.89,1.08v5.91
		c0,0.78-0.34,1.08-0.89,1.08C119.55,129.51,119.2,129.21,119.2,128.43z"/>
	<path fill="#2B2C2D" d="M114.19,126.83c1.71,0,2.56-0.95,2.56-2.7v-1.42c0-1.75-0.84-2.7-2.56-2.7h-2.53v10.93h1.71v-4.1
		L114.19,126.83L114.19,126.83z M113.38,121.57h0.81c0.55,0,0.84,0.25,0.84,1.03v1.64c0,0.78-0.3,1.03-0.84,1.03h-0.81V121.57z"/>
	<polygon fill="#2B2C2D" points="108.18,121.57 108.18,120.01 103.5,120.01 103.5,130.94 108.18,130.94 108.18,129.38 
		105.21,129.38 105.21,126.18 107.57,126.18 107.57,124.62 105.21,124.62 105.21,121.57 	"/>
	<polygon fill="#2B2C2D" points="94.29,130.94 94.29,121.57 96.09,121.57 96.09,120.01 90.77,120.01 90.77,121.57 92.57,121.57 
		92.57,130.94 	"/>
	<polygon fill="#2B2C2D" points="200.22,121.57 200.22,120.01 195.54,120.01 195.54,130.94 200.22,130.94 200.22,129.38 
		197.26,129.38 197.26,126.18 199.62,126.18 199.62,124.62 197.26,124.62 197.26,121.57 	"/>
	<path fill="#2B2C2D" d="M192.85,130.94h1.75c-0.17-0.4-0.19-0.8-0.19-1.33v-1.69c0-1.14-0.28-1.97-1.14-2.32
		c0.76-0.36,1.12-1.09,1.12-2.22v-0.86c0-1.69-0.76-2.51-2.54-2.51h-2.59v10.93h1.71v-4.45h0.59c0.78,0,1.12,0.38,1.12,1.39v1.71
		C192.7,130.49,192.76,130.66,192.85,130.94z M192.68,123.77c0,0.87-0.39,1.16-1.03,1.16h-0.67v-3.36h0.83
		c0.61,0,0.87,0.34,0.87,1.12L192.68,123.77L192.68,123.77z"/>
	<path fill="#2B2C2D" d="M201.02,127.65v0.67c0,1.75,0.88,2.75,2.56,2.75c1.69,0,2.56-1,2.56-2.75c0-3.12-3.36-3.55-3.36-5.79
		c0-0.78,0.31-1.08,0.86-1.08c0.55,0,0.86,0.3,0.86,1.08v0.45h1.62v-0.34c0-1.75-0.86-2.75-2.53-2.75c-1.67,0-2.53,1-2.53,2.75
		c0,3.12,3.36,3.55,3.36,5.79c0,0.78-0.34,1.06-0.89,1.06s-0.89-0.28-0.89-1.06v-0.78L201.02,127.65L201.02,127.65z"/>
	<polygon fill="#2B2C2D" points="212.54,130.94 212.54,120.01 210.79,120.01 210.79,124.7 208.84,124.7 208.84,120.01 
		207.12,120.01 207.12,130.94 208.84,130.94 208.84,126.26 210.79,126.26 210.79,130.94 	"/>
</g>
</svg>
