<?xml version="1.0" encoding="utf-8"?>
<!-- Generator: Adobe Illustrator 19.2.0, SVG Export Plug-In . SVG Version: 6.00 Build 0)  -->
<svg version="1.2" baseProfile="tiny" id="Layer_1" xmlns="http://www.w3.org/2000/svg" xmlns:xlink="http://www.w3.org/1999/xlink"
	 x="0px" y="0px" viewBox="0 0 600 220.6" xml:space="preserve">
<g>
	<g>
		<path fill="#222221" d="M61.7,219.2v-63.9h4.6v27.2c4.1-7,11.2-10.5,21.4-10.5c10.1,0,16.9,2.5,20.4,7.4c1.9,2.7,2.9,6.5,2.9,11.6
			v28.2h-4.5v-28.1c0-5.1-1.2-8.8-3.7-11.3c-3-2.9-8-4.3-15-4.3c-7,0-12.4,1.7-16.3,5.3c-3.4,3.1-5.1,7-5.1,11.6v26.7H61.7z"/>
		<path fill="#222221" d="M113.6,196.3c0-6.8,2.5-12.4,7.5-17c5.4-4.9,12.3-7.3,21-7.3c8.7,0,15.7,2.4,21,7.3c5,4.6,7.5,10.3,7.5,17
			c0,6.7-2.5,12.4-7.5,17c-5.3,4.9-12.4,7.3-21,7.3c-8.7,0-15.7-2.4-21-7.3C116.1,208.7,113.6,203,113.6,196.3 M118.2,196.3
			c0,5.7,2,10.4,6,14.3c4.4,4.3,10.4,6.4,18,6.4c7.6,0,13.6-2.1,18-6.4c4-3.9,6-8.6,6-14.3c0-5.7-2-10.5-6-14.3
			c-4.4-4.3-10.4-6.4-18-6.4c-7.6,0-13.6,2.1-18,6.4C120.2,185.8,118.2,190.6,118.2,196.3"/>
		<path fill="#222221" d="M173.3,219.2v-45.8h4.6v7.8c2-2.9,4.7-5.2,8.2-6.8c3.5-1.6,7.2-2.4,11.4-2.4c10.4,0,16.8,3.5,19.4,10.6
			c3.7-7.1,10.2-10.6,19.6-10.6c14.1,0,21.1,5.4,21.1,16.2v31h-4.5v-29.7c0-4.1-1.3-7.4-3.8-9.8c-2.8-2.7-7-4.1-12.6-4.1
			c-6.1,0-10.8,1.3-14,4.1c-3.3,2.7-4.8,6.5-4.8,11.4v28.2h-4.6v-30.5c0-8.7-5.5-13.1-16.4-13.1c-5.7,0-10.2,1.4-13.5,4.2
			c-3.6,3-5.3,7-5.3,12.2v27.3H173.3z"/>
		<path fill="#222221" d="M316.1,197.2h-51.5c0.1,5.9,2.3,10.6,6.4,14.2c4.3,3.7,10.2,5.6,17.7,5.6c10.6,0,17.8-4.3,21.5-13h4.5
			c-4.1,11.1-13,16.6-26.6,16.6c-8.6,0-15.5-2.2-20.6-6.7c-5.1-4.4-7.6-10.4-7.6-18c0-6,2-11.2,6-15.6c5.1-5.6,12.5-8.4,22.2-8.4
			c8.6,0,15.5,2.3,20.5,7.1C313.5,183.6,316,189.7,316.1,197.2 M264.6,193.6H311c-0.9-6-3.5-10.6-7.9-13.8
			c-4.1-2.9-9.2-4.3-15.3-4.3c-6.4,0-11.6,1.6-15.6,4.9C268.1,183.6,265.5,188,264.6,193.6"/>
		<path fill="#222221" d="M361.2,186.8h-4.5c-0.4-3.9-2-6.7-5-8.6c-3-1.8-7.7-2.7-14.2-2.7c-11,0-16.5,3-16.5,9.1
			c0,4.4,3.4,7,10.2,7.8l16.1,2c10.6,1.3,15.9,5.5,15.9,12.5c0,9.1-8.1,13.7-24.2,13.7c-15.8,0-24-5.2-24.7-15.7h4.5
			c0.5,3.6,1.6,6.2,3.6,7.9c3.3,2.8,9.2,4.2,17.8,4.2c12.3,0,18.5-3.4,18.5-10.1c0-4.7-3.4-7.5-10.1-8.3l-17.8-2.2
			c-9.5-1.1-14.2-5-14.2-11.5c0-3.3,1.4-6.2,4.1-8.4c3.7-3.1,9.4-4.5,17.1-4.5C352.7,172,360.5,176.9,361.2,186.8"/>
		<path fill="#222221" d="M370.3,173.4v-15.5h4.5v15.5h15v3.6h-15V210c0,2.7,0.9,4.5,2.7,5.4c1.2,0.7,3.4,1.1,6.5,1.1
			c0.1,0,2.2-0.2,6.3-0.5v3.6c-1.9,0.4-4.5,0.5-7.7,0.5c-5.1,0-8.5-0.9-10.1-2.8c-1.5-1.7-2.2-4.8-2.2-9.5v-30.8h-11.4v-3.6H370.3z"
			/>
		<path fill="#222221" d="M456.5,219.2v-45.8h4.5v10.8c3.5-8.2,10.5-12.2,21.1-12.2c1.1,0,2.4,0.2,3.8,0.5v4.1
			c-1-0.3-2.8-0.5-5.2-0.5c-6.2,0-11.1,1.9-14.8,5.6c-3.3,3.4-5,7.7-5,12.7v24.7H456.5z"/>
		<path fill="#222221" d="M538.9,197.2h-51.6c0.2,5.9,2.3,10.6,6.4,14.2c4.4,3.7,10.2,5.6,17.7,5.6c10.5,0,17.8-4.3,21.5-13h4.5
			c-4.1,11.1-13,16.6-26.6,16.6c-8.7,0-15.5-2.2-20.5-6.7c-5.1-4.4-7.6-10.4-7.6-18c0-6,2-11.2,6-15.6c5.1-5.6,12.5-8.4,22.2-8.4
			c8.7,0,15.5,2.3,20.5,7.1C536.3,183.6,538.7,189.7,538.9,197.2 M487.3,193.6h46.4c-0.9-6-3.5-10.6-7.9-13.8
			c-4.1-2.9-9.2-4.3-15.3-4.3c-6.4,0-11.6,1.6-15.7,4.9C490.8,183.6,488.3,188,487.3,193.6"/>
		<path fill="#222221" d="M441,213.3h-37.2c-1.4,0-2.5-1-2.5-2.3v-21.6c0-0.7,0.4-1.3,1-1.8l18.6-13c0.9-0.7,2.1-0.7,3.1,0
			l18.6,12.8c0.6,0.4,1,1.1,1,1.8V211C443.5,212.3,442.4,213.3,441,213.3 M406.2,208.8h32.2v-18.4l-16.1-11l-16.1,11.2V208.8z"/>
		<path fill="#222221" d="M422.4,219.7L422.4,219.7l-19.5,0c-0.1,0-0.1,0-0.2,0c-6.4-0.8-8.6-6-8.9-8.7c0-0.1,0-0.1,0-0.1l0-20.7
			c-0.2-0.9-0.4-5.6,6.2-9.5l15.1-10.3c0.5-0.4,3-2.3,6.3-2.5c0.1,0,0.2,0,0.2-0.1c3.7-0.3,6.8,2.1,7.3,2.4l15.2,10.3
			c6.5,3.8,6.3,8.6,6.2,9.4l-0.1,20.7v0.1c-0.3,2.7-2.5,8-8.9,8.7c0,0-0.1,0-0.2,0l-18.6,0.1C422.6,219.6,422.5,219.7,422.4,219.7
			 M403,217.1h18.5c0.1,0,0.3-0.1,0.4-0.1l19.3,0c5.4-0.7,6.2-5.8,6.3-6.4l0.1-20.7c0-0.1,0-0.2,0-0.2c0.1-0.2,0.6-3.8-5-7
			l-15.3-10.4c-0.1,0-0.1,0-0.1-0.1c0,0-2-1.6-4.4-1.8c-0.2,0.1-0.3,0.1-0.6,0.1c-2.7-0.2-5.2,1.8-5.2,1.8c0,0-0.1,0.1-0.1,0.1
			l-15.3,10.4c-5.7,3.3-5.1,6.9-5.1,7.1c0,0.1,0,0.2,0,0.2l0.1,20.7C396.7,211.3,397.5,216.4,403,217.1"/>
	</g>
	<g>
		<g>
			<polygon fill="#C3271A" points="90.9,0.3 56.2,78 21,0.3 12.7,0.3 0.3,85.2 6.1,85.1 17.7,7.9 53.4,84.9 58.8,84.9 94.2,7 
				106.1,84.9 111.6,84.9 99.2,0.3 			"/>
		</g>
		<g>
			<path fill="#C3271A" d="M142.8,52l22.4-45.5l22.8,45.5L142.8,52z M161.9,0.1l-43.5,84.8h7.1l14.7-28H190l15.2,27.8h6.4L169.1,0.1
				H161.9z"/>
		</g>
		<g>
			<path fill="#C3271A" d="M275.9,52l22.4-45.5l22.8,45.5L275.9,52z M295,0.1l-43.5,84.8h7.1l14.7-28h49.7l15.2,27.8h6.4L302.2,0.1
				H295z"/>
		</g>
		<g>
			<path fill="#C3271A" d="M442.8,52l22.4-45.5l22.8,45.5L442.8,52z M461.9,0.1l-43.5,84.8h7.1l14.7-28H490l15.2,27.8h6.4L469.1,0.1
				H461.9z"/>
		</g>
		<g>
			<polygon fill="#C3271A" points="198.5,0.1 198.5,4.9 230.1,4.9 230.1,85 235.8,85 235.8,5 266.5,5 266.5,0.1 			"/>
		</g>
		<g>
			<polygon fill="#C3271A" points="358.5,0 352.6,0 352.6,85.4 412.2,85.4 412.2,80.5 358.5,80.4 			"/>
		</g>
		<g>
			<polygon fill="#C3271A" points="517.7,0.1 517.7,85.2 523.4,85.2 523.4,8.1 593.7,85.2 600.3,85.2 600.3,0.3 594.4,0.3 
				594.4,76.7 524.2,0.1 			"/>
		</g>
	</g>
	<rect x="0.3" y="126.2" fill="#222221" width="599.9" height="2.8"/>
</g>
</svg>
