<?xml version="1.0" encoding="utf-8"?>
<!-- Generator: Adobe Illustrator 19.2.0, SVG Export Plug-In . SVG Version: 6.00 Build 0)  -->
<svg version="1.0" id="Layer_1" xmlns="http://www.w3.org/2000/svg" xmlns:xlink="http://www.w3.org/1999/xlink" x="0px" y="0px"
	 viewBox="0 0 732.2 67.2" style="enable-background:new 0 0 732.2 67.2;" xml:space="preserve">
<style type="text/css">
	.st0{fill:#421C3B;}
</style>
<polygon class="st0" points="49.9,1.7 32.5,45.1 15,1.7 0,1.7 0,1.8 26.2,65.8 38.7,65.8 64.9,1.7 "/>
<g>
	<path class="st0" d="M66.3,7.8c0-4.4,3.6-7.8,7.8-7.8c4.3,0,7.8,3.4,7.8,7.8c0,4.3-3.5,7.7-7.8,7.7C69.9,15.5,66.3,12.1,66.3,7.8
		 M67.3,19.5H81v30c0,3.3,0.7,4.9,3.1,4.9c0.6,0,1.5-0.1,1.7-0.2v11.7c-0.5,0.2-2.6,0.7-6.3,0.7c-7.3,0-12.1-3.5-12.1-13V19.5z"/>
	<path class="st0" d="M113.2,18c6.9,0,13.4,2.2,19.3,8.6l-8.6,8.5c-2.8-3-5.9-4.8-10.7-4.8c-6.6,0-11.9,5.1-11.9,12.1
		c0,7,5.2,12,11.9,12c4.8,0,7.8-1.7,10.7-4.8l8.6,8.5c-5.9,6.4-12.4,8.6-19.3,8.6c-14.1,0-25.5-10.3-25.5-24.4S99.1,18,113.2,18"/>
	<path class="st0" d="M140,31.9h-6.1V19.5h6.1V1.7h13.3v17.7h10.3v12.4h-10.3v16.5c0,4.5,1.8,6.2,5.9,6.2c1,0,2.3-0.2,3.5-0.4v12.1
		c-1.6,0.4-4.1,0.6-6.7,0.6c-6.8,0-16-2-16-16.5V31.9z"/>
	<path class="st0" d="M191,18.1c14.2,0,25.7,10.8,25.7,24.5c0,13.7-11.5,24.5-25.7,24.5c-14.3,0-25.7-10.8-25.7-24.5
		C165.2,28.9,176.6,18.1,191,18.1 M191,54.8c6.7,0,12-5.3,12-12.1c0-6.7-5.3-12.1-12-12.1c-6.8,0-12,5.4-12,12.1
		C178.9,49.4,184.2,54.8,191,54.8"/>
	<path class="st0" d="M221.6,19.5h13.7v6.3c2.1-4.7,7.1-7.3,13.4-7.3c1.3,0,2.8,0.2,3.6,0.3v12.9c-1.3-0.3-2.8-0.5-4.6-0.5
		c-7.8,0-12.4,4.5-12.4,12v22.6h-13.7V19.5z"/>
	<path class="st0" d="M255.8,7.8c0-4.4,3.6-7.8,7.8-7.8c4.3,0,7.8,3.4,7.8,7.8c0,4.3-3.5,7.7-7.8,7.7
		C259.4,15.5,255.8,12.1,255.8,7.8 M256.8,19.5h13.7v30c0,3.3,0.7,4.9,3.1,4.9c0.6,0,1.5-0.1,1.7-0.2v11.7c-0.5,0.2-2.6,0.7-6.3,0.7
		c-7.3,0-12.1-3.5-12.1-13V19.5z"/>
	<path class="st0" d="M299.5,18.6c7.1,0,12.5,2.8,13.8,6.9v-6.1H327v30c0,3.8,1,5.1,3.4,5.1c0.6,0,1.7-0.1,2.3-0.2v11.4
		c-1.4,0.5-4,0.7-6.2,0.7c-2.5,0-5.2-0.4-7.5-1.7c-1.5-0.9-3.3-2.4-4.1-5c-2.7,4-7.3,6.7-15.3,6.7c-13.1,0-23-10.6-23-24.1
		C276.6,29.3,286.4,18.6,299.5,18.6 M302,54.2c6.7,0,12.1-5.1,12.1-11.6c0-6.5-5.4-11.6-12.1-11.6c-6.6,0-11.8,5.1-11.8,11.6
		C290.3,49.1,295.4,54.2,302,54.2"/>
	<path class="st0" d="M338.1,1.7h27c9.7,0,21.6,7.6,21.6,21.7c0,13-11,21.7-21.6,21.7h-12.9v20.7h-14.1V1.7z M364.3,32.2
		c2.8,0,8.3-1.8,8.3-8.8c0-7.1-5.4-8.8-8.3-8.8h-12v17.6H364.3z"/>
	<path class="st0" d="M391,1.7h13.7v46.9c0,4.2,1.6,6,5.3,6c1,0,2.3-0.1,3.3-0.4v12.1c-1.4,0.4-4,0.6-6.5,0.6
		c-6.5,0-15.8-2-15.8-16.3V1.7z"/>
	<path class="st0" d="M416,19.5h13.7v26.5c0,5.3,2.8,8.7,8,8.7c5,0,8.5-3.8,8.5-9.2v-26h13.7v30c0,3.8,1,5.1,3.4,5.1
		c0.6,0,1.7-0.1,2.3-0.2v11.4c-1.4,0.5-4,0.7-6.2,0.7c-2.5,0-5.2-0.4-7.5-1.7c-1.5-0.9-3.3-2.4-4.1-5c-2,4-6.4,6.8-13.6,6.8
		c-11.7,0-18.2-7.3-18.2-19.2V19.5z"/>
	<path class="st0" d="M469.4,19.5h13.7v5.8c1.7-4,6.3-6.8,12-6.8c6.3,0,10.5,2.6,12.6,7.3c3-5.8,8.8-7.3,15.2-7.3
		c10.5,0,16.3,7.3,16.3,19.2v11.7c0,3.4,0.6,4.9,3,4.9c0.6,0,1.2-0.1,1.4-0.1v11.6c-0.3,0.1-2.3,0.6-5.9,0.6
		c-7.3,0-12.2-3.5-12.2-13.2V39.3c0-5.3-2.3-8.7-6.7-8.7c-4.4,0-7.5,3.8-7.5,9.2v26h-13.7V39.3c0-5.3-2.4-8.7-6.9-8.7
		c-4.4,0-7.6,3.8-7.6,9.2v26h-13.7V19.5z"/>
	<path class="st0" d="M587.3,18c6.9,0,13.4,2.2,19.3,8.6l-8.6,8.5c-2.8-3-5.9-4.8-10.7-4.8c-6.6,0-11.9,5.1-11.9,12.1
		c0,7,5.2,12,11.9,12c4.8,0,7.8-1.7,10.7-4.8l8.6,8.5c-5.9,6.4-12.4,8.6-19.3,8.6c-14.1,0-25.5-10.3-25.5-24.4S573.2,18,587.3,18"/>
	<path class="st0" d="M632.3,18.1c14.2,0,25.7,10.8,25.7,24.5c0,13.7-11.5,24.5-25.7,24.5c-14.3,0-25.7-10.8-25.7-24.5
		C606.6,28.9,618,18.1,632.3,18.1 M632.3,54.8c6.7,0,12-5.3,12-12.1c0-6.7-5.3-12.1-12-12.1c-6.8,0-12,5.4-12,12.1
		C620.3,49.4,625.5,54.8,632.3,54.8"/>
	<path class="st0" d="M662,19.5h13.7v5.8c1.7-4,6.3-6.8,12-6.8c6.3,0,10.5,2.6,12.6,7.3c3-5.8,8.9-7.3,15.4-7.3
		c10.6,0,16.4,7.3,16.4,19.2v28.1h-13.7V39.3c0-5.3-2.4-8.7-6.9-8.7c-4.5,0-7.7,3.8-7.7,9.2v26h-13.7V39.3c0-5.3-2.4-8.7-6.9-8.7
		c-4.4,0-7.6,3.8-7.6,9.2v26H662V19.5z"/>
	<polygon class="st0" points="562.2,54.1 554.6,47.7 547,54.1 547,65.7 562.2,65.7 	"/>
</g>
</svg>
