<?xml version="1.0" encoding="utf-8"?>
<!-- Generator: Adobe Illustrator 19.2.0, SVG Export Plug-In . SVG Version: 6.00 Build 0)  -->
<svg version="1.1" id="Layer_1" xmlns="http://www.w3.org/2000/svg" xmlns:xlink="http://www.w3.org/1999/xlink" x="0px" y="0px"
	 viewBox="0 0 2160 400" style="enable-background:new 0 0 2160 400;" xml:space="preserve">
<g>
	<path d="M17.2,314.3c1.3-7.1,2.3-14.2,3.8-21.2C32.3,240.4,43.7,187.7,55.1,135c1.2-5.4,2.4-10.9,3.6-16.5c26.2,0,52.3,0,78.9,0
		c-1.9,8.9-3.7,17.5-5.6,26.1c-11.5,53.4-23.1,106.7-34.4,160.1c-1.1,5.2-1.4,10.8-1.4,16.1c0.1,8.8,5,14.4,13.6,16.2
		c11.1,2.4,21.2,0.1,30.4-6.3c3.3-2.3,6.4-5.1,9.3-8c7.2-7.3,11.2-15.4,11.6-26.4c1.7-47,15.8-90.2,44-128.3
		c13-17.6,28.4-32.7,48.7-42c21.4-9.9,43.7-12.5,66.8-8.4c12.6,2.2,22.4,8.4,25.3,22.1c0.1,0.2,0.5,0.4,1,0.9
		c8.6-39.6,17.2-79.1,25.8-118.8c26.9-3.6,53.6-7.1,80.9-10.7c-1.2,5.6-2.2,10.8-3.3,16c-19.6,90.3-39.3,180.7-58.8,271
		c-1.6,7.3-2.6,14.9-2.9,22.3c-0.4,9.1,4.6,14.8,13.5,16.7c13.2,2.8,24.9-0.3,34.2-10.2c3.9-4.1,6.9-9.1,10-14
		c1.1-1.8,1.6-4.3,1.6-6.5c0.1-47.2,13-90.7,38.2-130.4c18.9-29.9,45.5-50.1,80-59.1c18.9-4.9,38.1-4.3,57,0.5
		c18.5,4.7,30.2,18.2,32.5,37.1c3.5,28.9-4.6,54.4-24,75.9c-23.7,26.4-53.5,41.8-88.6,46.7c-4,0.6-8.1,1-12.4,1.5
		c-1.4,14.3-2.3,28.2,0.6,42.3c2.8,13.7,11.7,21.1,24.9,23c23.3,3.2,45.4-0.8,65.5-13.8c13-8.4,24.4-18.9,35-30.1
		c1.4-1.4,2-4,2.1-6.1c2.1-38.5,12.7-74.5,32.1-107.8c8.4-14.4,18.7-27.4,30.7-38.9c22.3-21.5,49-31.7,79.9-30.8
		c6,0.2,12.2,0.7,18.1,1.9c13.4,2.7,22.7,9.9,25,24.5c1.7-8,3.4-15.9,5.1-23.8c26.4,0,52.3,0,78.8,0c-2.1,9.9-4.1,19.5-6.2,29.1
		c-11.4,53-23,106-34.2,159.1c-1.2,5.7-1.2,11.8-0.6,17.6c0.9,9.4,7.4,15.3,16.8,16.4c11.2,1.4,20.8-2,28.5-10.2
		c9.8-10.6,15.9-23.1,19-37.2c6.8-31.6,13.7-63.1,20.6-94.7C985,141,997.7,82.9,1010.4,24.7c0.2-1.1,0.6-2.2,1-3.6
		c26.6-3.5,53.3-7,80.4-10.6c-0.1,1.3-0.1,2.4-0.3,3.4c-16.3,75.3-32.7,150.6-49,225.8c-5,22.9-9.9,45.8-14.7,68.8
		c-0.7,3.5-0.8,7.2-0.6,10.8c0.5,10.2,7.8,17.5,18,17.9c3.6,0.2,7.2,0.1,10.8-0.4c3.4-0.4,6.7-1.4,10.9-2.4c-0.3,2.8-0.6,5.4-1,8.1
		c-5,31.2-30.8,46.4-55.2,47.8c-11,0.6-21.6-1-31.6-5.9c-14.1-6.8-23.5-17.6-27.5-32.8c-0.5-1.9-1-3.8-1.6-6.5
		c-1.9,2.4-3.5,4.4-5.1,6.4c-13.6,16.9-30.2,29.5-51.5,35.3c-13.1,3.6-26.5,4.6-40,2.5c-20.6-3.2-34.3-16.8-38.9-38.5
		c-0.6-2.7-1-5.4-1.7-9.1c-1.8,2.2-3.1,3.7-4.3,5.3c-12.7,15.9-27.3,29.2-46.5,37c-16.6,6.7-33.7,8.3-51.2,4.3
		c-23.8-5.4-38-21.5-46.1-43.6c-2.1-5.8-3.5-11.9-5.4-18.6c-2,2.2-3.7,4.2-5.5,6.2c-17.4,19.4-37.3,35.6-61.4,45.9
		c-28.7,12.2-58.5,15.9-89,8.3c-23.7-5.9-41.5-19.1-49.6-43.2c-0.1-0.3-0.4-0.5-0.9-1.2c-1.5,1.9-2.8,3.6-4.2,5.3
		c-15.5,19.4-34.7,32.8-59.4,37.7c-11.2,2.2-22.5,2.9-33.8,0.9c-22-3.9-34.9-16.5-39.5-38.3c-0.4-1.8-0.7-3.5-1.3-6.1
		c-1.4,1.8-2.4,3.1-3.4,4.4c-7.8,10.7-16.7,20.3-27.5,27.9c-21,14.8-44.3,19.4-69.3,14.4c-19.8-4-33.9-15.8-43-33.6
		c-2.1-4.1-3.8-8.4-5.9-13.1c-1.5,2-3,3.8-4.4,5.6c-15.8,19.9-35.4,33.9-60.4,39.8c-12.6,2.9-25.3,4.5-38.1,2.2
		c-24.7-4.5-41-22.3-44.2-47.6c-0.2-1.4-0.6-2.8-1-4.2C17.2,329.4,17.2,321.8,17.2,314.3z M739.2,295.9c0,2.8-0.1,5.6,0,8.4
		c0.4,7.2,1.4,14.4,4.8,20.9c4.5,8.6,11.4,13.2,21.4,12.8c8.3-0.3,15.7-3.1,22.4-7.9c10.4-7.4,17.3-17.5,21.2-29.5
		c2.8-8.7,4.7-17.7,6.7-26.7c7.4-33.4,14.6-66.9,21.8-100.4c2.5-11.5-5.1-22.1-16.8-23.9c-11.5-1.7-21.8,1.2-29.9,9.2
		c-7.1,7.1-14,14.8-19.5,23.3C748.9,216.7,741.4,255.6,739.2,295.9z M241.1,299.2c0.8,5,1.4,13.5,3.7,21.4
		c4,13.4,15.7,19.9,29.3,16.5c15.9-4,27.2-13.8,34.5-28.5c3.5-7.2,4.7-14.9,6.3-22.6c8.1-38.2,16.6-76.2,24.8-114.4
		c0.6-2.7,0.3-6-0.7-8.5c-4-10.3-12.8-15.2-23.9-14c-11,1.2-20.1,6.3-27.1,14.5c-6.7,7.8-13.2,16-18.3,24.9
		C250.5,221.6,243.5,258.1,241.1,299.2z M534.7,252.9c6-1.2,11.1-1.9,16.1-3.3c37.3-10.9,66-52.4,63.2-91.2
		c-0.2-2.3-0.5-4.6-1.2-6.8c-2.1-7.2-7.7-11.1-15-9.2c-5.1,1.3-10.4,3.5-14.5,6.7c-5.1,4-9.5,9.1-13.3,14.4
		c-9.3,12.8-15.9,27.1-21.6,41.8C542.4,220.3,537.9,235.7,534.7,252.9z"/>
	<path d="M120.6,4c1.5,0.5,3,1.1,4.5,1.5c23.6,6.6,37.3,30.9,29.9,53.9c-5.2,16.3-17.1,25.8-33.7,29c-22.1,4.2-43.6-8.5-49.8-28.8
		c-7.3-24.1,7.4-49.2,32.1-54.7c0.8-0.2,1.5-0.6,2.2-0.9C110.8,4,115.7,4,120.6,4z"/>
	<path d="M2144.8,222.7c-3.1,0-6.2,0-9.7,0c0-3.9,0-7.4,0-11.8c-7,6-14,10-22,12.1c-30,7.7-60.2-13-63.8-43.8
		c-2.9-25.7,8.7-48,30.7-57.2c19.5-8.2,38.5-5.8,56.5,5c1.1,0.7,2,1.6,3.2,2.5c-1.1,1.5-1.9,2.9-2.9,4.2c-0.8,1-1.6,2-1.8,2.3
		c-7.6-2.8-14.6-6.2-22-7.9c-20.5-4.7-39.5,4-48.3,21.4c-9.3,18.3-5.4,41.9,9.3,55.3c16.5,15,42.8,13.8,59.5-3.4
		c0.8-0.8,1.4-2.3,1.4-3.4c0.2-4.9,0.1-9.8,0.1-15.3c-6.1,0-11.9,0-17.8,0c0-3.3,0-6,0-9c9.4,0,18.6,0,27.7,0
		C2144.8,189.8,2144.8,206.2,2144.8,222.7z"/>
	<path d="M1984.9,206.3c0-29.3,0-57.9,0-87c3.3,0,6.5,0,9.9,0c0,34.3,0,68.5,0,103.3c-1.9,0-3.6-0.2-5.4,0c-3.3,0.4-5.3-0.9-7.3-3.6
		c-14.7-20.6-29.6-41-44.3-61.5c-5.1-7.2-10.1-14.5-15.3-22.1c0,29,0,57.7,0,86.8c-3.2,0-6.4,0-9.9,0c0-34.2,0-68.4,0-102.6
		c7.8-2.1,9.4-1.5,13.9,4.7c16,22.1,31.9,44.1,47.8,66.2C1977.9,195.6,1981.1,200.7,1984.9,206.3z"/>
	<path d="M1493.6,117c30.2,0,53.9,23.1,54.1,52.7c0.2,30.3-24.1,54.7-54.2,54.5c-30-0.2-53.9-24.3-53.8-54.4
		C1439.7,140.3,1463.5,117,1493.6,117z M1493.4,214.7c24.1,0.1,43.4-19.8,43.4-44.8c0-24.1-18.9-43.4-42.8-43.6
		c-24.1-0.2-43.3,19.1-43.4,43.5C1450.5,194.7,1469.5,214.6,1493.4,214.7z"/>
	<path d="M1185.7,388.1c0-34.7,0-68.8,0-103.2c1.4-0.2,2.6-0.5,3.8-0.5c11.1,0,22.3-0.1,33.4,0.1c13.4,0.3,25.6,4.1,35.4,13.6
		c12.7,12.3,16.1,28,14.2,44.7c-3,28.1-21.7,44.7-50.1,45.2C1210.4,388.3,1198.3,388.1,1185.7,388.1z M1196.4,294.2
		c0,28.1,0,56.2,0,85.3c11.4-0.5,22.7-0.1,33.6-1.8c16.7-2.6,27.2-13,30.8-29.7c1.1-4.9,1.4-10.1,1.2-15.1
		c-1.1-21.7-13.3-35.7-34.8-38.4C1217.2,293.2,1207,294.2,1196.4,294.2z"/>
	<path d="M2057,387.9c0-34.2,0-68.4,0-103.2c3.9,0,7.5-0.1,11,0c11.1,0.3,22.4-0.2,33.4,1c24.8,2.7,41.5,21.4,42.5,46.3
		c0.3,8.6-0.1,17.1-3.2,25.2c-7.1,19-21.5,28.7-40.9,30.5c-13.7,1.3-27.5,0.5-41.3,0.6C2058,388.4,2057.6,388.1,2057,387.9z
		 M2067.2,379.1c10,0,19.5,0.6,29-0.1c18.6-1.5,31.4-12.2,35.3-29.1c1.4-6.1,1.8-12.7,1.3-19c-1.3-15.7-8.7-27.7-24-33.6
		c-13.5-5.2-27.4-2.8-41.5-3.4C2067.2,322.6,2067.2,350.6,2067.2,379.1z"/>
	<path d="M1304.3,118.7c3.4,0,6.5,0,10,0c0,15.5,0,30.8,0,46.6c20.5,0,40.6,0,61.4,0c0-15.2,0-30.7,0-46.4c3.8,0,6.8,0,10.3,0
		c0,34.3,0,68.6,0,103.3c-3.1,0-6.3,0-10.1,0c0-15.6,0-31,0-46.8c-20.7,0-40.8,0-61.3,0c0,15.6,0,31,0,46.7c-3.6,0-6.8,0-10.3,0
		C1304.3,187.6,1304.3,153.3,1304.3,118.7z"/>
	<path d="M1442.9,388.1c-4.5,0-8.1,0-11.9,0c-7-12.8-14.2-25.4-20.9-38.3c-2-3.9-4.3-5.4-8.7-5.2c-6.7,0.4-13.4,0.1-20.7,0.1
		c0,14.5,0,28.6,0,43.2c-3.7,0-6.9,0-10.3,0c0-34.2,0-68.4,0-102.8c1.1-0.2,2-0.4,2.9-0.4c11.8,0,23.6-0.2,35.4,0.2
		c23.6,0.7,36.4,24.5,24.5,45c-3.1,5.4-6.6,8.2-15.6,12.6c4.2,7.6,8.4,15.1,12.5,22.7C1434.4,372.4,1438.4,379.9,1442.9,388.1z
		 M1380.8,335c10.1,0,19.5,0,29,0c1,0,1.9-0.3,2.9-0.6c11.5-3.4,17.1-16.4,12.4-28.8c-2.3-6-6.5-10.3-12.8-10.9
		c-10.3-1-20.8-1-31.5-1.5C1380.8,307.6,1380.8,321.1,1380.8,335z"/>
	<path d="M1611.6,181.8c0,13.9,0,27,0,40.4c-3.6,0-6.7,0-10.2,0c0-34.3,0-68.5,0-102.7c0.3-0.2,0.5-0.6,0.8-0.6
		c13.4,0,26.9-0.5,40.3,0.3c17,1,27.9,13.7,27.9,30.8c0,17.2-11,29.9-27.7,31.2c-8.2,0.7-16.4,0.4-24.6,0.5
		C1616.2,181.8,1614.2,181.8,1611.6,181.8z M1612,128.2c0,15,0,29.5,0,44.2c9.7,0,19.1,0.5,28.4-0.1c11.9-0.8,19.2-9.7,19.3-22
		c0.1-12.2-7-21-18.8-21.9C1631.4,127.6,1621.9,128.2,1612,128.2z"/>
	<path d="M1731.5,181.9c0,13.9,0,27.1,0,40.5c-3.6,0-6.7,0-10,0c0-34.4,0-68.6,0-103.2c1.1-0.1,2.4-0.4,3.6-0.4c11,0,22,0,32.9,0.1
		c2.9,0,5.9,0.3,8.8,1c16.2,3.8,24.6,15.9,23.5,33.6c-0.9,15-11.9,26.5-27.4,27.9c-8,0.7-16,0.4-24.1,0.5
		C1736.7,181.9,1734.6,181.9,1731.5,181.9z M1732.1,128.2c0,15,0,29.5,0,44.2c9.9,0,19.4,0.6,28.8-0.1c11.8-0.9,18.9-9.9,18.8-22.4
		c-0.1-12.2-7.3-20.7-19.2-21.5C1751.2,127.7,1741.8,128.2,1732.1,128.2z"/>
	<path d="M1663,367c1.9,2.2,3.7,4.5,5.6,6.7c-13.8,16.2-50.1,25.2-75.3,4c-22.4-18.9-25-55.6-5.5-77.4c23.3-26.1,62.6-19.3,78.1-3.9
		c-1.7,2.3-3.4,4.7-5.3,7.4c-13.2-9.8-27.7-13.7-43.6-10c-9.6,2.2-17.3,7.6-23.1,15.7c-12.5,17.3-10.4,43.5,4.6,58.9
		C1612.6,382.8,1639.7,386.7,1663,367z"/>
	<path d="M1531,331.3c0,3.3,0,6,0,9.3c-13.1,0-26.2,0-39.6,0c0,13,0,25.6,0,38.5c17.2,0,34,0,51.2,0c0,3.1,0,5.8,0,8.8
		c-20.3,0-40.8,0-61.5,0c0-34.2,0-68.4,0-102.9c19.5,0,39.1,0,59,0c0,2.8,0,5.5,0,8.6c-16.3,0-32.3,0-48.6,0c0,12.7,0,24.9,0,37.7
		C1504.7,331.3,1517.7,331.3,1531,331.3z"/>
	<path d="M1248.6,126.9c-1.7,2.8-3.3,5.4-5,8.3c-6.5-4.8-13.2-8.1-21-8.6c-6.6-0.4-12.8,0.8-18,5.1c-8.6,6.9-8.9,18.2,0,24.8
		c4.4,3.3,9.7,5.4,14.6,7.9c5.4,2.7,11.2,4.8,16.4,7.7c12.1,6.8,16.7,16.2,14.7,28.9c-1.7,11-10.7,20-23.5,22.2
		c-15.6,2.6-29.5-1.3-41.8-12.3c2.1-2.7,4.1-5.2,6.2-7.9c7.8,6.5,16.1,10.7,26,11.1c5.2,0.2,10.1-0.5,14.6-3.3
		c9.6-6,11.1-18.9,2.7-26.5c-3.1-2.8-6.9-5-10.7-6.9c-4.9-2.5-10.2-4.4-15.2-6.9c-3.8-1.9-7.7-3.8-11.1-6.3
		c-12.5-9.1-13.9-25.6-3.4-37c4.5-4.8,10-7.8,16.4-9.3C1223.6,114.7,1238.4,118.1,1248.6,126.9z"/>
	<path d="M1779.4,284.8c0,3,0,5.6,0,8.7c-12.3,0-24.5,0-37.3,0c0,31.7,0,62.9,0,94.5c-3.8,0-7,0-10.8,0c0-31.2,0-62.4,0-94.1
		c-12.8,0-25,0-37.7,0c0-3.2,0-6.1,0-9.1C1722.1,284.8,1750.4,284.8,1779.4,284.8z"/>
	<path d="M1976,293.9c-13.1,0-25.3,0-37.8,0c0-3.1,0-5.8,0-8.9c28.5,0,57,0,85.9,0c0,2.7,0,5.4,0,8.7c-12.4,0-24.8,0-37.6,0
		c0,31.8,0,62.9,0,94.3c-3.6,0-6.8,0-10.4,0C1976,356.9,1976,325.8,1976,293.9z"/>
	<path d="M1927.8,379.1c0,3.6,0,6.1,0,9c-19.7,0-39.1,0-59,0c0-34.3,0-68.5,0-103.1c1.5-0.1,3.1-0.2,4.6-0.3c1.6,0,3.2,0,5.2,0
		c0,31.5,0,62.6,0,94.4C1895.2,379.1,1911.4,379.1,1927.8,379.1z"/>
	<path d="M1313.4,284.8c3.4,0,6.4,0,9.7,0c0,34.5,0,68.7,0,103.1c-3.3,0-6.3,0-9.7,0C1313.4,353.6,1313.4,319.5,1313.4,284.8z"/>
	<path d="M1841.7,119.1c3.2,0,6.2,0,9.6,0c0,34.5,0,68.7,0,103.2c-3.1,0-6.2,0-9.6,0C1841.7,188.1,1841.7,153.7,1841.7,119.1z"/>
</g>
</svg>
