<?xml version="1.0" encoding="utf-8"?>
<!-- Generator: Adobe Illustrator 19.2.0, SVG Export Plug-In . SVG Version: 6.00 Build 0)  -->
<svg version="1.1" id="Layer_1" xmlns="http://www.w3.org/2000/svg" xmlns:xlink="http://www.w3.org/1999/xlink" x="0px" y="0px"
	 viewBox="0 0 300 119" enable-background="new 0 0 300 119" xml:space="preserve">
<g>
	<path fill="none" d="M140.9,81.6h-0.8v3.4h0.7c0.6,0,1-0.3,1-1.2v-1.1C141.8,81.9,141.5,81.6,140.9,81.6z"/>
	<path fill="none" d="M191.8,81.6H191v3.4h0.7c0.6,0,1-0.3,1-1.2v-1.1C192.7,81.9,192.4,81.6,191.8,81.6z"/>
	<path fill="none" d="M154.2,82.5v5.9c0,0.8,0.3,1.1,0.9,1.1s0.9-0.3,0.9-1.1v-5.9c0-0.8-0.3-1.1-0.9-1.1S154.2,81.7,154.2,82.5z"/>
	<path fill="none" d="M115,84.2v-1.6c0-0.8-0.3-1-0.8-1h-0.8v3.7h0.8C114.7,85.3,115,85,115,84.2z"/>
	<path fill="none" d="M121,88.4v-5.9c0-0.8-0.3-1.1-0.9-1.1s-0.9,0.3-0.9,1.1v5.9c0,0.8,0.3,1.1,0.9,1.1
		C120.6,89.5,121,89.2,121,88.4z"/>
	<path fill="#BF0005" d="M42.1,16.8V65c0,4,2.8,6.8,6.9,6.8h34.1v-55H65.9v41.2h-6.8V16.8H42.1z"/>
	<path fill="#BF0005" d="M87.7,23.7v11.5c0,4.4,0.9,6.8,4.6,9.3l14.8,9.9v3.6H87.7v13.7h29.7c4,0,6.8-2.8,6.8-6.8V52.5
		c0-4.4-0.9-6.8-4.6-9.3l-14.8-10v-2.5h16.8l2.7-7.1v-6.8H94.6C90.5,16.8,87.7,19.7,87.7,23.7z"/>
	<path fill="#BF0005" d="M134.3,16.8L126.6,65v6.8h17l1.1-11.1h7.5l1,11.1h17.1V65l-7.6-48.1C162.7,16.8,134.3,16.8,134.3,16.8z
		 M146,47l1.6-16.3h1.9L151,47H146z"/>
	<polygon fill="#BF0005" points="191.6,16.8 173.5,16.8 173.5,71.8 189.1,71.8 189.1,65 186.9,46.4 188.3,46.4 196.3,71.8 
		214.4,71.8 214.4,16.8 198.7,16.8 198.7,23.7 200.9,42.3 199.5,42.3 	"/>
	<path fill="#BF0005" d="M225.2,16.8L217.6,65v6.8h17l1.1-11.1h7.5l1,11.1h17.1V65l-7.6-48.1C253.6,16.8,225.2,16.8,225.2,16.8z
		 M236.9,47l1.6-16.3h1.9l1.6,16.3H236.9z"/>
	<path fill="#BF0005" d="M266.7,26.3c0-0.1,0-0.1-0.1-0.2c0-0.1,0-0.1-0.1-0.1c-0.3-0.5-0.5-0.9-0.7-1.3c-0.1-0.2-0.3-0.4-0.4-0.6
		c-0.2-0.2-0.4-0.3-0.7-0.4v0c1.2-0.3,1.9-0.9,1.9-1.9c0-0.7-0.2-1.2-0.6-1.5c-0.4-0.3-1-0.5-1.9-0.5h-3v6.9h1.7V24
		c0.1,0,0.1,0,0.2,0c0.2,0,0.5,0.1,0.7,0.4c0.2,0.3,0.6,0.9,1.1,1.9l0.3,0.5h2c0-0.1-0.1-0.1-0.1-0.2
		C266.8,26.4,266.7,26.3,266.7,26.3z M263.5,22.7h-0.7V21h0.8c0.4,0,0.7,0.1,1,0.2c0.2,0.2,0.3,0.4,0.3,0.6
		C264.8,22.4,264.4,22.7,263.5,22.7z"/>
	<path fill="#BF0005" d="M267.1,17.7c-1-0.6-2-0.8-3.2-0.8s-2.2,0.3-3.2,0.8c-1,0.6-1.8,1.4-2.3,2.3c-0.6,1-0.9,2.1-0.9,3.2
		c0,1.2,0.3,2.2,0.9,3.2c0.6,1,1.4,1.8,2.3,2.3c1,0.6,2,0.9,3.2,0.9s2.2-0.3,3.2-0.9s1.8-1.3,2.3-2.3c0.6-1,0.9-2.1,0.9-3.2
		c0-1.2-0.3-2.2-0.9-3.2C268.9,19.1,268.1,18.3,267.1,17.7z M268.4,25.8c-0.5,0.8-1.1,1.4-1.9,1.9c-0.8,0.5-1.7,0.7-2.6,0.7
		c-0.5,0-0.9-0.1-1.3-0.2c-0.4-0.1-0.8-0.3-1.3-0.5c-0.8-0.5-1.4-1.1-1.9-1.9c-0.5-0.8-0.7-1.7-0.7-2.6s0.2-1.8,0.7-2.6
		c0.5-0.8,1.1-1.4,1.9-1.9c0.8-0.5,1.6-0.7,2.6-0.7s1.8,0.2,2.6,0.7c0.8,0.5,1.4,1.1,1.9,1.9c0.5,0.8,0.7,1.7,0.7,2.6
		C269.1,24.2,268.8,25,268.4,25.8z"/>
	<polygon fill="#2B2C2D" points="125.1,80 123.4,80 124.6,90.9 127,90.9 127.6,85.1 128.2,90.9 130.5,90.9 131.7,80 130.2,80 
		129.4,88.7 128.5,80 126.8,80 126,88.6 	"/>
	<polygon fill="#2B2C2D" points="172.1,88.9 170.7,80 169,80 170.7,90.9 173.2,90.9 174.9,80 173.4,80 	"/>
	<rect x="166.5" y="80" fill="#2B2C2D" width="1.7" height="10.9"/>
	<polygon fill="#2B2C2D" points="180.4,81.6 180.4,80 175.7,80 175.7,90.9 180.4,90.9 180.4,89.4 177.4,89.4 177.4,86.2 179.8,86.2 
		179.8,84.6 177.4,84.6 177.4,81.6 	"/>
	<polygon fill="#2B2C2D" points="161.2,80 161.2,90.9 165.7,90.9 165.7,89.4 162.9,89.4 162.9,80 	"/>
	<path fill="#2B2C2D" d="M152.5,82.6v5.7c0,1.8,0.9,2.8,2.6,2.8c1.7,0,2.6-1,2.6-2.8v-5.7c0-1.8-0.9-2.8-2.6-2.8
		C153.4,79.9,152.5,80.9,152.5,82.6z M155.9,82.5v5.9c0,0.8-0.3,1.1-0.9,1.1s-0.9-0.3-0.9-1.1v-5.9c0-0.8,0.3-1.1,0.9-1.1
		S155.9,81.7,155.9,82.5z"/>
	<path fill="#2B2C2D" d="M141.9,90.9h1.8c-0.2-0.4-0.2-0.8-0.2-1.3v-1.7c0-1.1-0.3-2-1.1-2.3c0.8-0.4,1.1-1.1,1.1-2.2v-0.9
		c0-1.7-0.8-2.5-2.5-2.5h-2.6v10.9h1.7v-4.4h0.6c0.8,0,1.1,0.4,1.1,1.4v1.7C141.8,90.5,141.8,90.7,141.9,90.9z M141.8,83.8
		c0,0.9-0.4,1.2-1,1.2h-0.7v-3.4h0.8c0.6,0,0.9,0.3,0.9,1.1V83.8L141.8,83.8z"/>
	<polygon fill="#2B2C2D" points="188.4,81.6 188.4,80 183.9,80 183.9,90.9 185.6,90.9 185.6,86.4 187.8,86.4 187.8,84.9 185.6,84.9 
		185.6,81.6 	"/>
	<polygon fill="#2B2C2D" points="137.3,81.6 137.3,80 132.6,80 132.6,90.9 137.3,90.9 137.3,89.4 134.3,89.4 134.3,86.2 136.7,86.2 
		136.7,84.6 134.3,84.6 134.3,81.6 	"/>
	<polygon fill="#2B2C2D" points="150.1,90.9 150.1,81.6 151.9,81.6 151.9,80 146.5,80 146.5,81.6 148.3,81.6 148.3,90.9 	"/>
	<polygon fill="#2B2C2D" points="96.8,80 96.8,90.9 98.6,90.9 98.6,86.3 100.5,86.3 100.5,90.9 102.2,90.9 102.2,80 100.5,80 
		100.5,84.7 98.6,84.7 98.6,80 	"/>
	<path fill="#2B2C2D" d="M122.7,88.3v-5.7c0-1.8-0.9-2.8-2.6-2.8s-2.6,1-2.6,2.8v5.7c0,1.8,0.9,2.8,2.6,2.8
		C121.8,91.1,122.7,90.1,122.7,88.3z M119.2,88.4v-5.9c0-0.8,0.3-1.1,0.9-1.1s0.9,0.3,0.9,1.1v5.9c0,0.8-0.3,1.1-0.9,1.1
		C119.6,89.5,119.2,89.2,119.2,88.4z"/>
	<path fill="#2B2C2D" d="M114.2,86.8c1.7,0,2.6-0.9,2.6-2.7v-1.4c0-1.8-0.8-2.7-2.6-2.7h-2.5v10.9h1.7v-4.1L114.2,86.8L114.2,86.8z
		 M113.4,81.6h0.8c0.6,0,0.8,0.2,0.8,1v1.6c0,0.8-0.3,1-0.8,1h-0.8V81.6z"/>
	<polygon fill="#2B2C2D" points="108.2,81.6 108.2,80 103.5,80 103.5,90.9 108.2,90.9 108.2,89.4 105.2,89.4 105.2,86.2 107.6,86.2 
		107.6,84.6 105.2,84.6 105.2,81.6 	"/>
	<polygon fill="#2B2C2D" points="94.3,90.9 94.3,81.6 96.1,81.6 96.1,80 90.8,80 90.8,81.6 92.6,81.6 92.6,90.9 	"/>
	<polygon fill="#2B2C2D" points="200.2,81.6 200.2,80 195.5,80 195.5,90.9 200.2,90.9 200.2,89.4 197.3,89.4 197.3,86.2 199.6,86.2 
		199.6,84.6 197.3,84.6 197.3,81.6 	"/>
	<path fill="#2B2C2D" d="M192.9,90.9h1.8c-0.2-0.4-0.2-0.8-0.2-1.3v-1.7c0-1.1-0.3-2-1.1-2.3c0.8-0.4,1.1-1.1,1.1-2.2v-0.9
		c0-1.7-0.8-2.5-2.5-2.5h-2.6v10.9h1.7v-4.4h0.6c0.8,0,1.1,0.4,1.1,1.4v1.7C192.7,90.5,192.8,90.7,192.9,90.9z M192.7,83.8
		c0,0.9-0.4,1.2-1,1.2H191v-3.4h0.8c0.6,0,0.9,0.3,0.9,1.1V83.8L192.7,83.8z"/>
	<path fill="#2B2C2D" d="M201,87.6v0.7c0,1.8,0.9,2.8,2.6,2.8c1.7,0,2.6-1,2.6-2.8c0-3.1-3.4-3.6-3.4-5.8c0-0.8,0.3-1.1,0.9-1.1
		s0.9,0.3,0.9,1.1V83h1.6v-0.3c0-1.8-0.9-2.8-2.5-2.8s-2.5,1-2.5,2.8c0,3.1,3.4,3.6,3.4,5.8c0,0.8-0.3,1.1-0.9,1.1s-0.9-0.3-0.9-1.1
		v-0.8L201,87.6L201,87.6z"/>
	<polygon fill="#2B2C2D" points="212.5,90.9 212.5,80 210.8,80 210.8,84.7 208.8,84.7 208.8,80 207.1,80 207.1,90.9 208.8,90.9 
		208.8,86.3 210.8,86.3 210.8,90.9 	"/>
</g>
</svg>
