<?xml version="1.0" encoding="utf-8"?>
<!-- Generator: Adobe Illustrator 19.2.0, SVG Export Plug-In . SVG Version: 6.00 Build 0)  -->
<svg version="1.1" baseProfile="tiny" id="Layer_1" xmlns="http://www.w3.org/2000/svg" xmlns:xlink="http://www.w3.org/1999/xlink"
	 x="0px" y="0px" viewBox="0 0 518.65 109.58" xml:space="preserve">
<g>
	<path fill="#9C9B9B" d="M469.16,95.59c5.58,5.1,12.23,7.65,19.93,7.65c8.27,0,15.33-2.92,21.18-8.78c0.75-0.75,1.45-1.52,2.11-2.31
		l6.27,2.24c-1.14,1.58-2.44,3.1-3.89,4.55c-7.08,7.08-15.64,10.62-25.67,10.62c-9.99,0-18.52-3.54-25.6-10.62
		c-7.08-7.08-10.62-15.64-10.62-25.67c0-9.98,3.54-18.52,10.62-25.6c7.08-7.08,15.61-10.62,25.6-10.62c8.58,0,16.08,2.57,22.5,7.72
		c1.06,0.88,2.11,1.85,3.17,2.9c0.39,0.4,0.77,0.79,1.12,1.19l-4.49,4.49L469.16,95.59z M507.03,49.34
		c-5.15-3.96-11.13-5.94-17.95-5.94c-8.23,0-15.27,2.91-21.11,8.74c-5.85,5.83-8.78,12.88-8.78,21.15c0,6.82,1.98,12.8,5.94,17.95
		L507.03,49.34z"/>
</g>
<g>
	<path fill="#9C9B9B" d="M298.86,4.36h5.84v49.08c1.08-1.47,2.32-2.9,3.71-4.28c6.97-6.97,15.37-10.45,25.19-10.45
		c9.87,0,18.28,3.48,25.23,10.45c6.95,6.98,10.43,15.39,10.43,25.26c0,9.83-3.48,18.22-10.43,25.19
		c-6.94,6.97-15.35,10.46-25.23,10.46c-9.82,0-18.22-3.49-25.19-10.46c-1.39-1.38-2.62-2.81-3.71-4.29v12.93h-5.84V4.36z
		 M304.7,68.32v12.21c1.14,5.54,3.81,10.43,8.06,14.68c5.76,5.76,12.7,8.64,20.84,8.64c8.14,0,15.09-2.87,20.85-8.61
		c5.76-5.74,8.64-12.67,8.64-20.81c0-8.15-2.89-15.09-8.64-20.85c-5.75-5.76-12.7-8.64-20.85-8.64c-8.14,0-15.08,2.88-20.84,8.64
		C308.51,57.82,305.84,62.74,304.7,68.32z"/>
	<path fill="#9C9B9B" d="M446.13,44.49l-15.72,19.48l25.06,44.28h-7.27l-21.62-39.61l-5.71,7.08v32.54h-5.84V17.35h5.84v49.02
		l17.72-21.88H446.13z"/>
</g>
<path fill-rule="evenodd" fill="#9C9B9B" d="M379.13,32.53h23.13c1.43,0,2.61,1.17,2.61,2.61v31.19v0.33v40.01
	c0,0.72-0.59,1.31-1.31,1.31h-25.73c-0.72,0-1.31-0.59-1.31-1.31V66.65v-0.33V35.13C376.52,33.7,377.69,32.53,379.13,32.53
	L379.13,32.53z M379.2,36.27h22.99v67.96H379.2V36.27L379.2,36.27z"/>
<path fill-rule="evenodd" fill="#92B93C" d="M386.93,23.8h7.52c1.75,0,3.18,1.97,3.18,4.37v1.07h-13.88v-1.07
	C383.75,25.77,385.18,23.8,386.93,23.8L386.93,23.8z"/>
<polygon fill-rule="evenodd" fill="#92B93C" points="381.23,38.51 400.15,38.53 400.15,47.41 381.23,54.12 381.23,38.51 "/>
<polygon fill-rule="evenodd" fill="#92B93C" points="400.46,102.42 380.92,102.39 380.92,93.12 400.46,86.12 400.46,102.42 "/>
<path fill-rule="evenodd" fill="#92B93C" d="M400.16,53.74l-18.94,6.6c0-4.99,0-9.98,0-14.98l18.94-6.6
	C400.16,43.75,400.16,48.75,400.16,53.74L400.16,53.74z"/>
<path fill-rule="evenodd" fill="#92B93C" d="M400.46,95.24l-19.53,7c0-5.5,0-11,0-16.5l19.53-7
	C400.46,84.24,400.46,89.74,400.46,95.24L400.46,95.24z"/>
<path fill-rule="evenodd" fill="#92B93C" d="M400.46,75.06l-19.53,7c0,0,0-12.34,0-17.84l19.53-7c0,5.5,0,11,0,16.5V75.06z"/>
<path fill="#92B93C" d="M68.19,107.37V94.57c-7.82,9.37-17.74,14.06-29.77,14.06c-10.82,0-19.91-3.66-27.24-10.99
	C3.73,90.19,0,81.06,0,70.25c0-10.81,3.67-19.88,11-27.21c7.46-7.45,16.6-11.17,27.42-11.17c11.91,0,21.83,4.68,29.77,14.05V32.95
	h7.4v74.42H68.19z M60.43,48.26c-6.13-6.13-13.47-9.19-22.01-9.19c-8.66,0-16,3-22.01,9.01c-6.13,6.13-9.2,13.51-9.2,22.16
	c0,8.53,3.07,15.86,9.2,21.98c6.13,6.13,13.47,9.19,22.01,9.19c8.66,0,15.99-3,22.01-9.01c6.13-6.13,9.2-13.51,9.2-22.16
	C69.63,61.72,66.56,54.39,60.43,48.26z"/>
<path fill="#92B93C" d="M94.52,68.63c0,10.09,2.71,18.08,8.12,23.97c5.65,6.01,13.41,9.01,23.27,9.01c5.05,0,9.62-0.84,13.71-2.52
	c5.17-2.16,9.8-6.55,13.89-13.15l6.67,3.06c-4.69,8.89-11.91,14.9-21.65,18.02c-3.73,1.2-7.94,1.8-12.63,1.8
	c-11.19,0-20.39-3.66-27.6-10.99c-7.34-7.33-11-16.52-11-27.57c0-11.17,3.61-20.36,10.82-27.57c7.33-7.33,16.6-10.99,27.78-10.99
	c11.06,0,20.2,3.42,27.42,10.27c7.33,6.85,11,15.74,11,26.67H94.52z M145.4,45.02c-5.66-4.08-12.15-6.13-19.48-6.13
	c-15.4,0-25.5,7.57-30.31,22.7h60.43C154.84,54.75,151.29,49.23,145.4,45.02z"/>
<path fill="#92B93C" d="M212.14,43.94c-1.93-1.44-3.97-2.58-6.13-3.42c-2.16-0.84-4.45-1.26-6.85-1.26c-2.05,0-3.97,0.63-5.77,1.89
	c-1.8,1.26-3.37,2.82-4.69,4.68c-1.32,1.86-2.38,3.94-3.16,6.22c-0.78,2.28-1.17,4.39-1.17,6.31v49.01h-7.4V32.95h7.4v10.09
	c1.56-2.76,3.61-5.28,6.13-7.57c2.53-2.28,5.29-3.42,8.3-3.42c3.72,0,6.79,0.42,9.2,1.26c2.4,0.84,5.11,2.34,8.12,4.51L212.14,43.94
	z"/>
<path fill="#92B93C" d="M277.26,97.46c-7.46,7.45-16.6,11.17-27.42,11.17c-10.82,0-19.91-3.66-27.24-10.99
	c-7.46-7.45-11.18-16.58-11.18-27.39c0-10.69,3.72-19.76,11.18-27.21c7.33-7.57,16.42-11.35,27.24-11.35
	c10.7,0,19.78,3.73,27.24,11.17c7.46,7.45,11.19,16.58,11.19,27.39C288.27,81.06,284.6,90.13,277.26,97.46z M272.03,48.08
	c-6.02-6.13-13.41-9.19-22.19-9.19c-8.42,0-15.69,3.13-21.83,9.37c-6.25,6.25-9.38,13.58-9.38,21.98c0,8.53,3.07,15.86,9.2,21.98
	c6.13,6.13,13.47,9.19,22.01,9.19c8.66,0,15.99-3,22.01-9.01c6.13-6.13,9.2-13.51,9.2-22.16C281.05,61.48,278.04,54.09,272.03,48.08
	z"/>
</svg>
